<?xml version="1.0" encoding="utf-8"?><svg xmlns="http://www.w3.org/2000/svg" xmlns:xlink="http://www.w3.org/1999/xlink" width="1920" height="947" preserveAspectRatio="xMidYMid" viewBox="0 0 1920 947" style="z-index:1;display:block;background-color:rgb(34, 53, 118);animation-play-state:paused" ><g transform="translate(960,473.5) scale(1,1) translate(-960,-473.5)" style="animation-play-state:paused" ><linearGradient id="lg-0.5350756078810652" x1="0" x2="1" y1="0" y2="0" style="animation-play-state:paused" ><stop stop-color="#d643d6" offset="0" style="animation-play-state:paused" ></stop>

  
<stop stop-color="#00ffff" offset="1" style="animation-play-state:paused" ></stop></linearGradient>
<path d="M 0 0 L 0 817.95 Q 192 739.599 384 704.925 T 768 668.82 T 1152 620.307 T 1536 519.746 T 1920 351.876 L 1920 0 Z" fill="url(#lg-0.5350756078810652)" opacity="0.4" style="opacity:0.4;animation-play-state:paused" ></path>
<path d="M 0 0 L 0 886.378 Q 192 811.122 384 791.946 T 768 722.307 T 1152 587.526 T 1536 493.501 T 1920 434.279 L 1920 0 Z" fill="url(#lg-0.5350756078810652)" opacity="0.4" style="opacity:0.4;animation-play-state:paused" ></path>
<path d="M 0 0 L 0 777.249 Q 192 704.533 384 685.515 T 768 572.453 T 1152 548.158 T 1536 383.524 T 1920 363.39 L 1920 0 Z" fill="url(#lg-0.5350756078810652)" opacity="0.4" style="opacity:0.4;animation-play-state:paused" ></path>
<path d="M 0 0 L 0 913.028 Q 192 816.524 384 794.322 T 768 648.105 T 1152 550.788 T 1536 526.171 T 1920 419.843 L 1920 0 Z" fill="url(#lg-0.5350756078810652)" opacity="0.4" style="opacity:0.4;animation-play-state:paused" ></path>
<path d="M 0 0 L 0 822.743 Q 192 797.451 384 764.683 T 768 612.749 T 1152 612.514 T 1536 563.749 T 1920 486.707 L 1920 0 Z" fill="url(#lg-0.5350756078810652)" opacity="0.4" style="opacity:0.4;animation-play-state:paused" ></path></g></svg>