<?xml version="1.0" encoding="utf-8"?>
<!-- Generator: Adobe Illustrator 26.1.0, SVG Export Plug-In . SVG Version: 6.00 Build 0)  -->
<svg version="1.1" id="Layer_1" xmlns="http://www.w3.org/2000/svg" xmlns:xlink="http://www.w3.org/1999/xlink" x="0px" y="0px"
	 viewBox="0 0 60 60" style="enable-background:new 0 0 60 60;" xml:space="preserve">
<style type="text/css">
	.st0{fill:#EBEBEB;}
	.st1{fill:#F5F5F5;}
	.st2{fill:#E0E0E0;}
	.st3{fill:#FFFFFF;}
	.st4{fill:#FAFAFA;}
	.st5{fill:#263238;}
	.st6{fill:#455A64;}
	.st7{fill:#FF6A27;}
	.st8{opacity:0.2;}
	.st9{opacity:0.3;}
	.st10{fill:#FFBE9D;}
	.st11{fill:#FFE6E6;}
</style>
<g id="freepik--background-complete--inject-25">
	<path class="st0" d="M49.4,10.1c-0.1-0.6-0.5-1.1-0.9-1.5c-0.4-0.4-1-0.7-1.6-0.8c-1-0.1-2,0.5-2.4,1.4c-0.2-0.3-0.4-0.5-0.7-0.7
		c-0.6-0.3-1.2-0.4-1.8-0.2c-0.6,0.2-1,0.6-1.4,1.1C40.2,10,40,10.6,40,11.2c0,0.8,0.2,1.5,0.7,2.2c0.5,0.6,1.2,1.1,1.9,1.5
		c1.2,0.6,2.8,1.3,2.8,1.3s1.2-1.1,2.2-1.9c0.6-0.5,1.2-1.1,1.6-1.8C49.5,11.7,49.5,10.9,49.4,10.1z"/>
	<path class="st0" d="M54.6,5.3c0-0.4-0.1-0.7-0.3-1c-0.2-0.3-0.4-0.5-0.8-0.7C53,3.4,52.4,3.6,52,4.1c-0.2-0.5-0.7-0.9-1.3-0.9
		c-0.3,0-0.7,0.2-0.9,0.4c-0.3,0.2-0.5,0.5-0.6,0.9c-0.1,0.4-0.1,0.9,0,1.3c0.2,0.4,0.5,0.8,0.9,1.1c0.6,0.5,1.4,1.2,1.4,1.2
		s0.8-0.4,1.6-0.7c0.4-0.2,0.9-0.4,1.2-0.8C54.4,6.2,54.6,5.8,54.6,5.3z"/>
	<path class="st0" d="M53,17.5c-0.1-0.2-0.2-0.5-0.4-0.7c-0.2-0.2-0.4-0.3-0.7-0.3c-0.4,0-0.9,0.2-1,0.6c-0.2-0.3-0.7-0.5-1.1-0.4
		c-0.2,0.1-0.4,0.2-0.6,0.5c-0.2,0.2-0.2,0.5-0.3,0.7c0,0.3,0.1,0.7,0.3,0.9c0.2,0.3,0.5,0.5,0.8,0.6c0.5,0.3,1.2,0.6,1.2,0.6
		s0.5-0.5,1-0.8c0.3-0.2,0.5-0.5,0.7-0.8C53,18.2,53.1,17.9,53,17.5z"/>
	<rect x="4.8" y="41.9" class="st1" width="19.2" height="8.9"/>
	<path class="st2" d="M23.6,50.4H5.3v-8h18.3L23.6,50.4L23.6,50.4z M5.4,50.3h18.1v-7.8H5.4L5.4,50.3z"/>
	<rect x="24" y="41.9" class="st2" width="4.7" height="8.9"/>
	<path class="st2" d="M5.3,44.9h18.2c0,0,0,0,0,0c0,0,0,0,0,0L5.3,44.9C5.3,44.8,5.3,44.8,5.3,44.9C5.3,44.9,5.3,44.9,5.3,44.9z"/>
	<path class="st2" d="M14.5,44.8c0-0.8,0.1-1.6,0-2.4c0,0,0,0,0,0s0,0,0,0C14.4,43.2,14.4,44,14.5,44.8
		C14.5,44.8,14.5,44.8,14.5,44.8C14.5,44.8,14.5,44.8,14.5,44.8z"/>
	<path class="st2" d="M19.4,43.6c0,0.1-0.1,0.2-0.2,0.2c-0.1,0-0.2-0.1-0.2-0.2c0-0.1,0.1-0.2,0.2-0.2
		C19.3,43.4,19.4,43.5,19.4,43.6L19.4,43.6z"/>
	<path class="st2" d="M9.8,43.6c0,0.1-0.1,0.2-0.2,0.2s-0.2-0.1-0.2-0.2c0-0.1,0.1-0.2,0.2-0.2S9.8,43.5,9.8,43.6L9.8,43.6z"/>
	<path class="st2" d="M14.7,46.4c0,0.1-0.1,0.2-0.2,0.2c-0.1,0-0.2-0.1-0.2-0.2c0-0.1,0.1-0.2,0.2-0.2l0,0
		C14.6,46.1,14.7,46.3,14.7,46.4z"/>
	<polygon class="st2" points="7.1,50.8 6.2,56.4 6.7,56.4 8.5,50.8 	"/>
	<polygon class="st2" points="22.7,50.8 23.5,56.4 23,56.4 21.3,50.8 	"/>
	<polygon class="st2" points="26.4,50.8 27.3,56.4 26.8,56.4 25,50.8 	"/>
	<path class="st2" d="M14.7,48.9c0,0.1-0.1,0.2-0.2,0.2c-0.1,0-0.2-0.1-0.2-0.2c0-0.1,0.1-0.2,0.2-0.2l0,0
		C14.6,48.7,14.7,48.8,14.7,48.9z"/>
	<path class="st2" d="M5.3,47.6h18.2c0,0,0,0,0,0c0,0,0,0,0,0L5.3,47.6C5.3,47.6,5.3,47.6,5.3,47.6C5.3,47.6,5.3,47.6,5.3,47.6z"/>
	
		<rect x="12.4" y="37.7" transform="matrix(1 -5.267111e-03 5.267111e-03 1 -0.2016 8.134424e-02)" class="st2" width="5.8" height="1.2"/>
	
		<rect x="12.5" y="40.1" transform="matrix(1 -5.267111e-03 5.267111e-03 1 -0.2156 8.331317e-02)" class="st1" width="6.5" height="1.8"/>
	<path class="st2" d="M17.7,41.9c0-0.3,0-0.6,0-0.9c0-0.3,0-0.6,0-0.9c0,0.3,0,0.6,0,0.9C17.7,41.3,17.7,41.6,17.7,41.9z"/>
	<path class="st2" d="M18,41.9c0-0.3,0-0.6,0-0.9c0-0.3,0-0.6,0-0.9c0,0.3,0,0.6,0,0.9C18,41.3,18,41.6,18,41.9z"/>
	<path class="st2" d="M13.5,41.9c0-0.3,0-0.6,0-0.9c0-0.3,0-0.6,0-0.9c0,0.3,0,0.6,0,0.9C13.5,41.3,13.5,41.6,13.5,41.9z"/>
	<path class="st2" d="M13.7,41.9c0-0.3,0-0.6,0-0.9c0-0.3,0-0.6,0-0.9c0,0.3,0,0.6,0,0.9C13.8,41.3,13.8,41.6,13.7,41.9z"/>
	<path class="st2" d="M14.3,41c0,0,0.7,0,1.5,0c0.8,0,1.5,0,1.5,0s-0.7,0-1.5,0C15,41,14.3,41,14.3,41z"/>
	
		<rect x="13.4" y="38.9" transform="matrix(1 -5.267111e-03 5.267111e-03 1 -0.2076 9.208136e-02)" class="st0" width="8" height="1.2"/>
	<path class="st2" d="M20.2,39.9c-0.2,0-0.4-0.2-0.4-0.4c0-0.2,0.2-0.4,0.4-0.4c0.2,0,0.4,0.2,0.4,0.4l0,0
		C20.6,39.7,20.4,39.9,20.2,39.9L20.2,39.9z"/>
	<rect x="13.9" y="39.4" class="st2" width="5.3" height="0.2"/>
	<rect x="6.7" y="3.6" class="st2" width="11.5" height="16.7"/>
	<rect x="6.1" y="3.6" class="st1" width="11.5" height="16.7"/>
	<rect x="7.5" y="5.4" class="st3" width="8.6" height="13.1"/>
	<path class="st2" d="M16.1,18.5C16.1,18.5,16.1,18.5,16.1,18.5c0-0.1,0-0.2,0-0.3c0-0.2,0-0.4,0-0.7c0-0.6,0-1.5,0-2.7
		c0-2.3,0-5.6,0-9.4l0,0H7.5l0,0l0,0c0,4.9,0,9.5,0,13.1l0,0l6.3,0h1.7H16C16.1,18.5,16.1,18.5,16.1,18.5l-0.1,0h-0.4l-1.7,0l-6.3,0
		h0v0c0-3.6,0-8.2,0-13.1v0h0h8.6h0v0c0,3.9,0,7.1,0,9.5c0,1.2,0,2.1,0,2.7c0,0.3,0,0.5,0,0.7C16.1,18.3,16.1,18.3,16.1,18.5
		C16.1,18.4,16.1,18.5,16.1,18.5z"/>
	<path class="st2" d="M17.6,3.6c-0.1,0.1-0.1,0.2-0.2,0.3c-0.1,0.2-0.3,0.4-0.5,0.7s-0.4,0.5-0.6,0.7c-0.1,0.1-0.2,0.2-0.2,0.3
		c0.1-0.1,0.1-0.2,0.2-0.3l0.6-0.7C17,4.3,17.2,4,17.4,3.8C17.4,3.7,17.5,3.6,17.6,3.6z"/>
	<path class="st3" d="M16.2,18.4c0.4,0.7,0.9,1.3,1.5,1.9"/>
	<path class="st2" d="M17.7,20.3c-0.1-0.1-0.2-0.2-0.3-0.2c-0.4-0.4-0.8-0.9-1.1-1.3c-0.1-0.1-0.1-0.2-0.2-0.3
		c0.1,0.1,0.2,0.2,0.2,0.3c0.1,0.2,0.3,0.4,0.5,0.7s0.4,0.5,0.5,0.7C17.5,20.1,17.6,20.2,17.7,20.3z"/>
	<path class="st3" d="M6.1,20.3l1.5-1.9"/>
	<path class="st2" d="M7.6,18.4c-0.2,0.3-0.5,0.6-0.7,1c-0.2,0.3-0.5,0.6-0.8,0.9c0.2-0.3,0.5-0.6,0.7-1C7.1,19,7.3,18.7,7.6,18.4z"
		/>
	<path class="st2" d="M6.1,3.6c0.3,0.3,0.5,0.6,0.7,0.9C7.1,4.7,7.3,5,7.5,5.4C7.2,5.1,7,4.8,6.8,4.5C6.5,4.2,6.3,3.9,6.1,3.6z"/>
	<rect x="10.6" y="8" class="st2" width="2.9" height="8.2"/>
	<rect x="44.4" y="22.4" class="st2" width="8.3" height="8.7"/>
	<rect x="43.8" y="22.4" class="st4" width="8.3" height="8.7"/>
	<path class="st2" d="M52.2,31.1h-8.3v-8.7h8.3V31.1z M43.8,31.1h8.3v-8.7h-8.3V31.1z"/>
	<rect x="45" y="23.6" class="st3" width="6.1" height="6.4"/>
	<path class="st2" d="M45,30c0,0.1-0.1,0.1-0.2,0.2c-0.1,0.1-0.2,0.2-0.4,0.4c-0.2,0.2-0.3,0.3-0.4,0.4c0,0.1-0.1,0.1-0.2,0.1
		c0-0.1,0.1-0.1,0.2-0.2c0.1-0.1,0.2-0.2,0.4-0.4c0.2-0.2,0.3-0.3,0.4-0.4C44.8,30.1,44.9,30.1,45,30z"/>
	<path class="st2" d="M51.1,30c0.1,0,0.1,0.1,0.2,0.2c0.1,0.1,0.2,0.2,0.4,0.4c0.2,0.2,0.3,0.3,0.4,0.4c0.1,0,0.1,0.1,0.1,0.2
		C52.1,31.1,52,31,52,31c-0.1-0.1-0.2-0.2-0.4-0.4c-0.2-0.2-0.3-0.3-0.4-0.4C51.1,30.1,51.1,30.1,51.1,30z"/>
	<path class="st2" d="M51,23.6c0-0.1,0.1-0.1,0.2-0.2c0.1-0.1,0.2-0.2,0.4-0.4c0.2-0.2,0.3-0.3,0.4-0.4c0-0.1,0.1-0.1,0.2-0.1
		c0,0.1-0.1,0.1-0.2,0.2c-0.1,0.1-0.2,0.2-0.4,0.4s-0.3,0.3-0.4,0.4C51.2,23.5,51.1,23.6,51,23.6z"/>
	<path class="st2" d="M44.9,23.6c-0.1,0-0.1-0.1-0.2-0.2c-0.1-0.1-0.2-0.2-0.4-0.4c-0.2-0.2-0.3-0.3-0.4-0.4c-0.1,0-0.1-0.1-0.1-0.2
		c0.1,0,0.1,0.1,0.2,0.2c0.1,0.1,0.2,0.2,0.4,0.4s0.3,0.3,0.4,0.4C44.9,23.5,44.9,23.6,44.9,23.6z"/>
	<path class="st2" d="M51,30C51,30,51,29.9,51,30c0-0.1,0-0.1,0-0.1c0-0.1,0-0.2,0-0.3c0-0.3,0-0.7,0-1.3c0-1.1,0-2.7,0-4.6l0,0H45
		l0,0l0,0c0,2.3,0,4.5,0,6.4l0,0l4.4,0h1.2L51,30L51,30l-0.4,0h-1.2L45,30h0v0c0-1.8,0-4,0-6.4v0h0H51h0v0c0,1.9,0,3.5,0,4.6
		c0,0.6,0,1,0,1.3c0,0.1,0,0.3,0,0.3C51,29.9,51,29.9,51,30C51,29.9,51,30,51,30z"/>
	<rect x="47" y="25.8" class="st0" width="2" height="2"/>
</g>
<g id="freepik--Plant--inject-25">
	<rect x="25.5" y="34" class="st5" width="8.1" height="1.1"/>
	<path class="st5" d="M25.5,34h8.2v1.2h-8.2V34z M33.7,34h-8.1v1.1h8.1V34z"/>
	<polygon class="st5" points="32.9,34.8 31.8,40.6 27.4,40.6 26.3,35.1 	"/>
	<polygon class="st6" points="32.9,40 32.3,40.9 27,40.9 26.3,40 	"/>
	<path class="st5" d="M29.9,34.9c0,0,0-2.7,0-6s0-6,0-6s0,2.7,0,6S29.9,34.9,29.9,34.9z"/>
	<path class="st5" d="M28.1,28.2C28.1,28.2,28.1,28.2,28.1,28.2l0.1,0.2l0.1,0.1c0,0,0,0.1,0.1,0.2s0,0.1,0.1,0.2s0,0.1,0.1,0.2
		c0.1,0.3,0.2,0.7,0.2,1c0.1,0.4,0.1,0.8,0.1,1.2c0,0.8,0,1.5-0.1,2.3c0,0.3-0.1,0.5-0.1,0.7c0,0.1,0,0.1,0,0.2c0,0,0,0,0,0.1
		c0,0,0,0,0-0.1l0-0.2c0-0.2,0.1-0.4,0.1-0.7c0.1-0.8,0.1-1.5,0.1-2.3c0-0.4-0.1-0.8-0.1-1.3c-0.1-0.3-0.1-0.7-0.2-1
		c0-0.1,0-0.1-0.1-0.2c0-0.1,0-0.1-0.1-0.2l-0.1-0.2c0,0,0-0.1-0.1-0.1C28.2,28.3,28.2,28.3,28.1,28.2
		C28.1,28.2,28.1,28.2,28.1,28.2z"/>
	<path class="st5" d="M28.3,26C28.3,26.1,28.3,26.1,28.3,26l0.1,0.3l0.1,0.2c0,0.1,0,0.1,0.1,0.2c0,0.2,0.1,0.3,0.2,0.5l0.1,0.3
		c0,0.1,0,0.2,0.1,0.3c0.1,0.2,0.1,0.5,0.2,0.8c0.1,0.5,0.2,1.1,0.2,1.8s0.1,1.2,0.1,1.8c0,0.5,0,1,0,1.4c0,0.2,0,0.4,0,0.5
		c0,0.2,0,0.3,0,0.4c0,0.1,0,0.2,0,0.3c0,0,0,0.1,0,0.1c0,0,0-0.1,0-0.1c0-0.1,0-0.2,0-0.3c0-0.1,0-0.3,0-0.4c0-0.2,0-0.3,0-0.5
		c0-0.4,0-0.9,0-1.4c0-0.5,0-1.1-0.1-1.8c-0.1-0.6-0.1-1.2-0.2-1.8c-0.1-0.3-0.1-0.5-0.2-0.8c0-0.1-0.1-0.2-0.1-0.3l-0.1-0.3
		c0-0.2-0.1-0.4-0.2-0.5c0-0.1,0-0.1-0.1-0.2s0-0.1-0.1-0.2L28.3,26C28.4,26.1,28.3,26.1,28.3,26z"/>
	<path class="st5" d="M30.4,35.4C30.4,35.4,30.4,35.4,30.4,35.4c0-0.1,0-0.1,0-0.1c0-0.1,0-0.2,0-0.4c0-0.3,0-0.8,0.1-1.3
		c0.1-1.1,0.2-2.6,0.4-4.3c0.1-0.8,0.2-1.6,0.3-2.4c0.1-0.4,0.1-0.7,0.2-1s0.1-0.6,0.2-0.9c0.1-0.3,0.1-0.5,0.2-0.7
		c0-0.2,0.1-0.4,0.1-0.5s0.1-0.3,0.1-0.3c0,0,0-0.1,0-0.1c0,0,0,0,0,0c0,0,0,0,0,0c0,0,0,0,0,0.1c0,0.1-0.1,0.2-0.1,0.3
		s-0.1,0.3-0.1,0.5c0,0.2-0.1,0.5-0.2,0.7c0,0.3-0.1,0.6-0.2,0.9s-0.1,0.7-0.2,1c-0.1,0.7-0.2,1.5-0.3,2.4c-0.2,1.7-0.3,3.2-0.3,4.3
		c0,0.6,0,1-0.1,1.3c0,0.2,0,0.3,0,0.4L30.4,35.4C30.4,35.4,30.4,35.4,30.4,35.4z"/>
	<path class="st7" d="M30,24.2c0-0.4,0.4-0.7,0.8-0.7c0.4,0,0.7,0.2,1,0.5c0.2,0.3,0.4,0.7,0.5,1c0.3,0.9,0.4,1.8,0.3,2.8
		c-0.1,0.9-0.5,1.8-1.1,2.5c-0.1,0.1-0.2,0.2-0.4,0.2c-0.1,0-0.2-0.1-0.2-0.1c-1.3-1.2-2-2.9-2-4.7c0-0.4,0.1-0.7,0.2-1
		C29.2,24.4,29.7,24.1,30,24.2"/>
	<path class="st7" d="M32.8,21.1l0.5,1c0,0,0,0,0.1,0c0,0,0,0,0.1,0l1.4-2.2l-0.3-0.2L32.8,21.1z"/>
	<g class="st8">
		<path d="M32.8,21.1l0.5,1c0,0,0,0,0.1,0c0,0,0,0,0.1,0l1.4-2.2l-0.3-0.2L32.8,21.1z"/>
	</g>
	<path class="st7" d="M30,22.9l4.8-2.9c0,0,0.1-0.1,0.1-0.1c0-0.1,0-0.1-0.1-0.2c-0.7-0.7-1.6-1.1-2.6-1c-1,0.1-1.8,0.6-2.3,1.5
		C29.4,21,29.4,22.1,30,22.9"/>
	<path class="st5" d="M34.1,19.1C34.1,19.1,34.1,19.1,34.1,19.1c-0.1,0-0.2,0-0.2,0c-0.2,0-0.4,0-0.7,0.1c-0.3,0.1-0.7,0.2-1,0.3
		c-0.8,0.3-1.4,0.9-1.8,1.6c-0.2,0.3-0.3,0.6-0.4,0.9c-0.1,0.2-0.1,0.4-0.1,0.7c0,0.1,0,0.1,0,0.1c0,0,0,0.1,0,0.1
		c0-0.1,0-0.2,0-0.2c0-0.2,0.1-0.4,0.1-0.7c0.4-1.5,1.6-2.6,3.1-2.8c0.2,0,0.4-0.1,0.7-0.1C34,19.1,34.1,19.1,34.1,19.1z"/>
	<path class="st5" d="M30.6,20.9c0.1,0,0.2,0.1,0.2,0.1c0.2,0.1,0.4,0.1,0.6,0.2s0.5,0.1,0.6,0.2c0.1,0,0.2,0,0.3,0
		c-0.1,0-0.2-0.1-0.2-0.1l-0.6-0.2L30.9,21C30.8,21,30.7,20.9,30.6,20.9z"/>
	<path class="st5" d="M31.4,18.9c0,0.2-0.1,0.4-0.1,0.5c0,0.2,0,0.4,0,0.5c0-0.2,0-0.4,0-0.5C31.4,19.2,31.4,19,31.4,18.9z"/>
	<path class="st5" d="M34.8,20c-0.1,0-0.2-0.1-0.4-0.1c-0.2-0.1-0.5-0.2-0.9-0.2c-0.3-0.1-0.7-0.1-0.9-0.2c-0.1,0-0.2,0-0.4,0
		c0.1,0,0.2,0.1,0.4,0.1c0.2,0,0.5,0.1,0.9,0.2c0.3,0.1,0.7,0.2,0.9,0.2C34.6,19.9,34.7,20,34.8,20z"/>
	<path class="st7" d="M32,23.4c0.4-0.3,0.9-0.4,1.4-0.4c0.5,0,1,0.2,1.5,0.4c0.8,0.4,1.6,0.9,2.1,1.6c0.5,0.7,0.7,1.7,0.3,2.6
		c0,0.1-0.1,0.2-0.2,0.2c-0.1,0-0.2,0-0.3,0c-0.9-0.3-1.9-0.6-2.7-1.1s-1.6-1.1-2.1-2c-0.1-0.2-0.2-0.4-0.2-0.7
		C31.8,23.8,31.8,23.6,32,23.4"/>
	<path class="st5" d="M32,23.3C32,23.3,32,23.3,32,23.3l0.3,0.1l0.1,0c0,0,0.1,0,0.2,0.1c0.1,0,0.2,0.1,0.4,0.2l0.2,0.1
		c0.1,0,0.2,0.1,0.2,0.1c0.2,0.1,0.3,0.2,0.5,0.3c0.8,0.5,1.5,1.1,2,1.8c0.1,0.2,0.3,0.3,0.4,0.5c0,0.1,0.1,0.2,0.2,0.2l0.1,0.2
		c0.1,0.1,0.2,0.3,0.2,0.4c0,0.1,0.1,0.1,0.1,0.2l0.1,0.1c0,0.1,0.1,0.1,0.1,0.2c0,0,0,0,0,0.1c0,0,0,0,0-0.1L37,27.6
		c0,0,0-0.1-0.1-0.1c0,0,0-0.1-0.1-0.2c-0.1-0.1-0.1-0.2-0.2-0.4l-0.1-0.2c0-0.1-0.1-0.1-0.2-0.2c-0.1-0.2-0.2-0.3-0.4-0.5
		c-0.3-0.4-0.6-0.7-0.9-1c-0.3-0.3-0.7-0.6-1.1-0.8c-0.2-0.1-0.4-0.2-0.5-0.3c-0.1,0-0.2-0.1-0.2-0.1L33,23.6
		c-0.1-0.1-0.3-0.1-0.4-0.2c-0.1,0-0.1,0-0.2-0.1l-0.1,0L32,23.3C32,23.3,32,23.3,32,23.3z"/>
	<path class="st5" d="M35.2,25.1c0.3,0.1,0.7,0.2,1,0.3c0.3,0.1,0.7,0.2,1,0.3c-0.3-0.1-0.7-0.2-1-0.3
		C35.9,25.2,35.6,25.1,35.2,25.1z"/>
	<path class="st5" d="M35.3,27.3c0-0.1,0-0.2,0-0.3c0-0.2,0-0.5,0-0.8s0-0.6,0-0.8c0-0.1,0-0.2,0-0.3c0,0.1,0,0.2,0,0.3
		c0,0.2,0,0.5,0,0.8s0,0.5,0,0.8C35.3,27.1,35.3,27.2,35.3,27.3z"/>
	<path class="st5" d="M33.4,26.3c0,0,0.1-0.5,0.1-1.2c0-0.7,0.1-1.2,0.1-1.2c0,0-0.1,0.5-0.1,1.2C33.4,25.8,33.4,26.3,33.4,26.3z"/>
	<path class="st5" d="M35.8,23.8c-0.1,0-0.2,0-0.3,0c-0.2,0-0.5,0-0.8,0s-0.6,0-0.8,0c-0.1,0-0.2,0-0.3,0c0.1,0,0.2,0,0.3,0
		c0.2,0,0.5,0,0.8,0s0.6,0,0.8,0C35.5,23.8,35.7,23.8,35.8,23.8z"/>
	<path class="st5" d="M31.2,30.5C31.2,30.5,31.2,30.5,31.2,30.5c0-0.1,0-0.2,0-0.3c0-0.2,0-0.4,0-0.7c0-0.3,0-0.6-0.1-1
		c0-0.4-0.1-0.8-0.2-1.2s-0.2-0.8-0.3-1.2c-0.1-0.4-0.2-0.7-0.3-1s-0.2-0.5-0.2-0.6l-0.1-0.2c0,0,0,0,0-0.1c0,0,0,0,0,0.1
		c0,0,0,0.1,0.1,0.2c0.1,0.2,0.1,0.4,0.2,0.7c0.1,0.3,0.2,0.6,0.3,1c0.1,0.4,0.2,0.8,0.3,1.2s0.1,0.9,0.2,1.2s0.1,0.7,0.1,1
		c0,0.3,0,0.5,0,0.7C31.2,30.3,31.2,30.4,31.2,30.5C31.2,30.5,31.2,30.5,31.2,30.5z"/>
	<path class="st5" d="M30.9,27.3c0.1,0.1,0.1,0.2,0.2,0.2c0.1,0.1,0.3,0.3,0.5,0.5c0.2,0.2,0.4,0.3,0.5,0.4c0.1,0.1,0.2,0.1,0.2,0.2
		c-0.1-0.1-0.1-0.1-0.2-0.2L31.6,28l-0.5-0.5C31.1,27.4,31,27.4,30.9,27.3z"/>
	<path class="st5" d="M29.4,28.6c0.1-0.1,0.1-0.2,0.2-0.3l0.5-0.7l0.5-0.7c0.1-0.1,0.1-0.2,0.2-0.3c-0.1,0.1-0.2,0.2-0.2,0.3
		c-0.1,0.2-0.3,0.4-0.5,0.7c-0.2,0.3-0.4,0.5-0.5,0.7C29.5,28.4,29.4,28.4,29.4,28.6z"/>
	<path class="st5" d="M30.2,24.6c0,0,0.5,0.4,1.1,0.8s1.2,0.7,1.2,0.7c0,0-0.5-0.4-1.1-0.8C30.7,25,30.2,24.6,30.2,24.6z"/>
	<path class="st5" d="M28.7,26.2c0.3-0.2,0.5-0.5,0.8-0.7c0.3-0.2,0.5-0.5,0.7-0.8c-0.3,0.2-0.5,0.5-0.8,0.7
		C29.2,25.7,29,25.9,28.7,26.2z"/>
	<path class="st7" d="M28.4,26.2l-0.4,0c-0.3,0-0.6-0.1-0.9-0.3c-0.1-0.1-0.3-0.1-0.4-0.2c-0.5-0.2-1.1-0.2-1.7-0.2
		c-0.9,0-1.9-0.3-2.7-0.7c0,0-0.1-0.1-0.1-0.1c-0.1-0.2,0.1-0.3,0.2-0.4c0.7-0.5,1.5-0.9,2.3-1.1c0.8-0.2,1.8-0.2,2.5,0.3
		C27.9,24,28.2,25.2,28.4,26.2"/>
	<path class="st5" d="M22.1,24.6C22.1,24.6,22.1,24.6,22.1,24.6l0.3-0.1c0.2-0.1,0.4-0.2,0.8-0.4c0.4-0.2,0.8-0.3,1.2-0.5
		c0.5-0.1,1-0.2,1.5-0.1c0.5,0.1,1,0.3,1.4,0.6c0.3,0.3,0.6,0.6,0.7,1c0.1,0.3,0.2,0.5,0.3,0.8c0,0.1,0.1,0.2,0.1,0.2c0,0,0,0,0,0.1
		c0,0,0-0.1,0-0.1c0-0.1,0-0.1-0.1-0.2c-0.1-0.3-0.2-0.5-0.3-0.8c-0.2-0.4-0.4-0.8-0.7-1c-0.4-0.3-0.9-0.6-1.4-0.6
		c-0.5-0.1-1.1,0-1.6,0.1c-0.4,0.1-0.8,0.3-1.2,0.5c-0.3,0.2-0.6,0.3-0.8,0.4L22.1,24.6C22.1,24.6,22.1,24.6,22.1,24.6z"/>
	<path class="st5" d="M23.1,25.1c0,0,0.6-0.4,1.3-0.8c0.7-0.5,1.3-0.9,1.2-0.9s-0.6,0.4-1.3,0.8C23.6,24.7,23.1,25.1,23.1,25.1z"/>
	<path class="st5" d="M23.7,23.4c0.3,0.1,0.6,0.1,0.8,0.1c-0.1,0-0.3,0-0.4,0C24,23.4,23.9,23.4,23.7,23.4z"/>
	<path class="st5" d="M26.2,23.1c0,0.1,0.1,0.2,0.2,0.3c0.1,0.1,0.1,0.2,0.2,0.3c0-0.1-0.1-0.2-0.2-0.3
		C26.4,23.3,26.3,23.2,26.2,23.1z"/>
	<path class="st5" d="M25.7,25.5c0.1,0,0.2-0.1,0.3-0.2c0.2-0.1,0.4-0.3,0.6-0.4s0.4-0.3,0.6-0.5c0.1-0.1,0.2-0.1,0.2-0.2
		c-0.1,0-0.2,0.1-0.3,0.2c-0.2,0.1-0.4,0.3-0.6,0.4s-0.5,0.3-0.6,0.4C25.9,25.4,25.8,25.4,25.7,25.5z"/>
	<path class="st7" d="M27.7,28c0.4-0.1,0.9,0.3,1,0.7c0.1,0.4-0.1,0.9-0.3,1.2c-0.4,0.9-1,1.7-1.7,2.3c-0.7,0.6-1.7,1-2.6,1
		c0.2-0.8,0-1.7,0-2.5c0.2-1.5,1.4-2.7,2.9-2.9C27.3,27.8,27.6,27.8,27.7,28"/>
	<path class="st5" d="M24.1,33.3C24.1,33.3,24.1,33.3,24.1,33.3c0.1-0.1,0.2-0.1,0.2-0.1c0.2-0.2,0.3-0.3,0.4-0.5
		c0.1-0.1,0.1-0.3,0.2-0.4c0.1-0.2,0.1-0.3,0.2-0.5c0.1-0.2,0.2-0.4,0.3-0.5c0.1-0.2,0.2-0.4,0.4-0.5c0.3-0.3,0.6-0.6,0.9-0.9
		c0.2-0.2,0.5-0.5,0.7-0.8c0.1-0.2,0.2-0.4,0.3-0.6c0-0.1,0-0.1,0.1-0.2c0,0,0,0,0-0.1c0,0,0,0.1-0.1,0.2c-0.1,0.2-0.2,0.4-0.3,0.6
		c-0.2,0.3-0.4,0.5-0.7,0.8c-0.3,0.3-0.6,0.6-0.9,0.9c-0.1,0.2-0.3,0.3-0.4,0.5c-0.1,0.2-0.2,0.4-0.3,0.5l-0.2,0.5
		c-0.1,0.2-0.1,0.3-0.2,0.4c-0.1,0.2-0.2,0.4-0.4,0.6C24.2,33.2,24.1,33.3,24.1,33.3z"/>
	<path class="st5" d="M26.3,32.6c0-0.1,0-0.2,0-0.3c0-0.2-0.1-0.4-0.2-0.7c-0.1-0.3-0.2-0.5-0.2-0.7c0-0.1-0.1-0.2-0.1-0.3
		c0,0.1,0,0.2,0.1,0.3c0,0.2,0.1,0.4,0.2,0.7c0.1,0.3,0.1,0.5,0.2,0.7C26.2,32.4,26.2,32.5,26.3,32.6z"/>
	<path class="st5" d="M24.2,30.6c0.1,0,0.2,0,0.3-0.1c0.2,0,0.4-0.1,0.7-0.2c0.3-0.1,0.5-0.1,0.7-0.1c0.1,0,0.2,0,0.3-0.1
		c-0.1,0-0.2,0-0.3,0c-0.2,0-0.4,0.1-0.7,0.1c-0.3,0.1-0.5,0.1-0.7,0.2C24.4,30.5,24.3,30.5,24.2,30.6z"/>
	<path class="st5" d="M27.8,31.1c0-0.1,0-0.2,0-0.3c0-0.2-0.1-0.5-0.2-0.8c-0.1-0.3-0.2-0.6-0.2-0.8c0-0.1-0.1-0.2-0.1-0.3
		c0,0.1,0,0.2,0.1,0.3c0.1,0.2,0.1,0.5,0.2,0.8c0.1,0.3,0.1,0.6,0.2,0.8C27.8,30.9,27.8,31,27.8,31.1z"/>
	<path class="st5" d="M25.2,28.8c0,0,0.5,0,1.2-0.1c0.4,0,0.8-0.1,1.2-0.2c0,0-0.5,0-1.2,0.1C25.9,28.7,25.5,28.7,25.2,28.8z"/>
	<path class="st6" d="M25.5,35.1c0,0,1.8,0,4.1,0s4.1,0,4.1,0s-1.8,0-4.1,0S25.5,35.1,25.5,35.1z"/>
	<path class="st6" d="M26.8,37.5c0,0,1.2,0,2.8,0s2.8,0,2.8,0s-1.2,0-2.8,0S26.8,37.5,26.8,37.5z"/>
	<path class="st6" d="M26.9,37.9c0,0,1.2,0,2.7,0s2.7,0,2.7,0s-1.2,0-2.7,0S26.9,37.8,26.9,37.9z"/>
	<path class="st6" d="M26.8,37.2c0,0,1.3,0,2.9,0s2.9,0,2.9,0s-1.3,0-2.9,0S26.8,37.2,26.8,37.2z"/>
</g>
<g id="freepik--Device--inject-25">
	<path class="st5" d="M36.6,50.1l-13.7,0c-1.6,0-3-1.3-3-3l0,0l0-34.6c0-1.7,1.3-3,3-3l13.7,0c1.6,0,3,1.3,3,3l0,34.6
		C39.6,48.7,38.2,50.1,36.6,50.1L36.6,50.1z"/>
	<path class="st3" d="M36.6,10.7h-2.7c-0.4,0-0.7,0.3-0.7,0.7v0.5c0,0.4-0.3,0.7-0.7,0.7h-5.2c-0.4,0-0.7-0.3-0.7-0.7l0,0v-0.5
		c0-0.4-0.3-0.7-0.7-0.7h-3.3c-1.2,0-2.1,0.9-2.1,2.1l0,0l0,33.7c0,1.2,0.9,2.1,2.1,2.1l0,0l13.7,0c1.2,0,2.1-0.9,2.1-2.1l0,0V12.8
		C38.7,11.7,37.7,10.7,36.6,10.7L36.6,10.7z"/>
	<path class="st5" d="M28.5,47.2c0,0.1-0.1,0.3-0.3,0.3c-0.1,0-0.3-0.1-0.3-0.3c0-0.1,0.1-0.3,0.3-0.3l0,0
		C28.3,46.9,28.5,47.1,28.5,47.2L28.5,47.2z"/>
	<path class="st2" d="M29.9,47.2c0,0.1-0.1,0.3-0.3,0.3c-0.1,0-0.3-0.1-0.3-0.3c0-0.1,0.1-0.3,0.3-0.3
		C29.8,46.9,29.9,47.1,29.9,47.2L29.9,47.2z"/>
	<path class="st2" d="M31.4,47.2c0,0.1-0.1,0.3-0.3,0.3c-0.1,0-0.3-0.1-0.3-0.3c0-0.1,0.1-0.3,0.3-0.3C31.3,46.9,31.4,47,31.4,47.2
		L31.4,47.2z"/>
	<path class="st5" d="M22.6,15.4C22.6,15.4,22.6,15.4,22.6,15.4h0.1l0.3,0l0,0c0-0.1,0-0.2,0-0.2c0,0,0-0.1,0-0.1
		c0-0.1,0.1-0.1,0.1-0.1c0.1,0,0.1,0,0.2,0c0.1,0,0.1,0.1,0.1,0.1c0,0.1,0,0.2,0,0.4l0,0h0.4l0,0c0-0.2,0-0.3,0-0.5c0,0,0-0.1,0-0.1
		c0,0,0-0.1-0.1-0.1c-0.1-0.1-0.1-0.1-0.2-0.2l-0.2-0.2l-0.1-0.1c0,0,0-0.1-0.1-0.1c0,0-0.1,0-0.1,0c0,0,0,0-0.1,0.1l-0.2,0.2
		c-0.1,0.1-0.2,0.2-0.3,0.3c0,0,0,0.1,0,0.2v0.1c0,0.1,0,0.2,0,0.2S22.6,15.3,22.6,15.4C22.6,15.4,22.6,15.4,22.6,15.4
		C22.6,15.4,22.6,15.4,22.6,15.4c0-0.1,0-0.1,0-0.2c0-0.1,0-0.1,0-0.2c0,0,0-0.1,0-0.2c0,0,0-0.1,0-0.1c0,0,0-0.1,0-0.1
		c0.1-0.1,0.2-0.2,0.3-0.3l0.1-0.2c0,0,0,0,0.1-0.1c0,0,0.1,0,0.1,0s0.1,0,0.1,0.1l0.1,0.1l0.2,0.2l0.2,0.2c0,0,0.1,0.1,0.1,0.1
		c0,0,0,0.1,0,0.1c0,0.2,0,0.4,0,0.5v0h0h-0.4h0v0c0-0.1,0-0.2,0-0.4c0,0,0-0.1-0.1-0.1s-0.1,0-0.2,0c0,0-0.1,0-0.1,0.1
		c0,0,0,0.1,0,0.1c0,0.1,0,0.2,0,0.2v0h0h-0.3L22.6,15.4L22.6,15.4z"/>
	<path class="st1" d="M37.8,17.1L37.8,17.1c0.1,0,0.2,0.1,0.2,0.2v29.4c0,0.1-0.1,0.2-0.2,0.2h0c-0.1,0-0.2-0.1-0.2-0.2V17.3
		C37.6,17.2,37.7,17.1,37.8,17.1z"/>
	<path class="st2" d="M37.8,18.5L37.8,18.5c0.1,0,0.2,0.1,0.2,0.1v2.1c0,0.1-0.1,0.1-0.1,0.1h0c-0.1,0-0.1-0.1-0.1-0.1v-2.1
		C37.6,18.5,37.7,18.5,37.8,18.5z"/>
	<path class="st3" d="M22.7,16.9h13.9c0.3,0,0.5,0.2,0.5,0.5v5.4c0,0.3-0.2,0.5-0.5,0.5H22.7c-0.3,0-0.5-0.2-0.5-0.5v-5.4
		C22.2,17.2,22.4,16.9,22.7,16.9z"/>
	<path class="st7" d="M22.7,16.9h7.1l0,0v6.4l0,0h-7.1c-0.3,0-0.5-0.2-0.5-0.5v-5.5C22.2,17.2,22.4,16.9,22.7,16.9z"/>
	<g class="st9">
		<path d="M28.4,20.4c0.2-0.2,0.3-0.4,0.4-0.7c0.1-0.2,0.1-0.4,0-0.5c-0.1-0.1-0.2-0.2-0.3-0.2c-0.5-0.2-0.9-0.4-1.4-0.5l-3.6,1.3
			c-0.1,0.3,0.1,0.6,0.4,0.7c0.1,0,0.3,0,0.4-0.1c0.1,0.7,0.1,1.5-0.2,2.1c0,0.1-0.1,0.2,0,0.3c0.1,0.1,0.2,0.1,0.3,0.1l3.6,0
			c0.2,0,0.4,0,0.5-0.1c0.1-0.1,0.1-0.4,0-0.5l-0.4-1.4c0-0.1,0-0.2,0-0.2C28.2,20.5,28.3,20.5,28.4,20.4z"/>
	</g>
	<path class="st3" d="M27.9,22.2c0,0-0.3-1.2-0.3-1.2l0.1-1.2l0.1-1.7l-0.8-0.1c-0.6,0.3-1.5,0.5-2.2,0.2c0,0-0.3,0-0.5,0.2
		c-0.1,0.1,0,0.6,0.1,1c0.1,0.5,0.4,1.8,0.4,1.8s-0.4,1.1-0.5,1.4c0,0,2.8-0.5,3.7,0C27.9,22.5,28.1,22.5,27.9,22.2z"/>
	<path class="st3" d="M23.2,18.9l1-0.6l0.3,1.4L24,20.1C24,20.1,23.2,19.7,23.2,18.9z"/>
	<path class="st3" d="M27.7,18l1.1,0.5c0,0-0.3,1.3-0.5,1.5l-0.5-0.2l-0.1,0.4l0-1.7L27.7,18z"/>
	<path class="st2" d="M24.1,20C24.1,20,24.1,20,24.1,20c-0.1,0-0.1-0.1-0.2-0.1c-0.1-0.1-0.3-0.2-0.4-0.4c0-0.1-0.1-0.2-0.1-0.3
		c0-0.1,0-0.2-0.1-0.2c0,0,0-0.1,0-0.2c0,0,0,0,0-0.1c0,0,0,0.1,0,0.2c0,0.1,0,0.2,0.1,0.2c0,0.1,0.1,0.2,0.1,0.2
		c0.1,0.1,0.2,0.3,0.3,0.4C24,20,24.1,20,24.1,20z"/>
	<path class="st2" d="M24.4,19.5C24.4,19.5,24.4,19.5,24.4,19.5c-0.1,0-0.1-0.1-0.1-0.1c-0.1-0.1-0.2-0.2-0.2-0.3s-0.1-0.2-0.2-0.3
		c0,0,0-0.1-0.1-0.2c0,0,0,0.1,0.1,0.1c0.1,0.1,0.1,0.2,0.2,0.3s0.2,0.2,0.2,0.3C24.3,19.4,24.3,19.4,24.4,19.5
		C24.4,19.5,24.4,19.5,24.4,19.5z"/>
	<path class="st2" d="M27.6,18.1c0,0-0.1,0-0.1,0c-0.1,0-0.2,0-0.3,0.1l-0.5,0.2c-0.2,0.1-0.4,0.1-0.6,0.1c-0.4,0-0.8,0-1.2-0.1
		c-0.1,0-0.2-0.1-0.3-0.1c0,0-0.1,0-0.1,0l0,0c0,0,0.1,0,0.1,0.1c0.1,0,0.2,0.1,0.3,0.1c0.4,0.1,0.8,0.2,1.2,0.1
		c0.2,0,0.4-0.1,0.6-0.1c0.2-0.1,0.4-0.1,0.5-0.2s0.3-0.1,0.3-0.1C27.5,18.1,27.5,18.1,27.6,18.1C27.6,18.1,27.6,18.1,27.6,18.1z"/>
	<path class="st2" d="M27.7,19.1C27.7,19.1,27.7,19.1,27.7,19.1l-0.1,0c-0.1,0-0.2,0-0.4,0c-0.4,0-0.8,0.1-1.2,0.1
		c-0.5,0-0.9,0-1.2,0l-0.4,0l-0.1,0c0,0,0,0,0,0h0h0.1l0.4,0c0.3,0,0.7,0,1.2,0s0.9,0,1.2,0c0.2,0,0.3,0,0.4,0L27.7,19.1
		C27.7,19.1,27.7,19.1,27.7,19.1z"/>
	<path class="st2" d="M27.7,19.8c0,0-0.1,0-0.1,0s-0.1,0-0.1,0s-0.1,0-0.2,0c-0.4,0.1-0.7,0.1-1.1,0.1c-0.4,0-0.8,0-1.1,0
		c-0.1,0-0.3,0-0.3,0c0,0-0.1,0-0.1,0c0,0,0.1,0,0.1,0c0.1,0,0.2,0,0.3,0c0.3,0,0.7,0,1.1,0c0.4,0,0.7,0,1.1-0.1c0.1,0,0.1,0,0.2,0
		c0.1,0,0.1,0,0.1,0C27.6,19.8,27.6,19.8,27.7,19.8z"/>
	<path class="st2" d="M27.6,20.6c0,0-0.1,0-0.1,0c-0.1,0-0.2,0-0.3,0c-0.3,0-0.6,0-1,0c-0.4,0-0.8,0-1,0c-0.1,0-0.2,0-0.3,0
		c0,0-0.1,0-0.1,0c0,0,0.1,0,0.1,0c0.1,0,0.2,0,0.3,0c0.3,0,0.6,0,1,0s0.8,0,1,0l0.3,0C27.5,20.6,27.5,20.6,27.6,20.6z"/>
	<path class="st2" d="M27.7,21.5c0,0-0.1,0-0.1,0l-0.3,0c-0.3,0-0.7,0-1.1,0s-0.8,0-1.1,0l-0.3,0c0,0-0.1,0-0.1,0c0,0,0.1,0,0.1,0
		c0.1,0,0.2,0,0.3,0c0.3,0,0.7,0,1.1,0s0.8,0,1.1,0c0.1,0,0.3,0,0.3,0C27.7,21.5,27.7,21.5,27.7,21.5z"/>
	<path class="st2" d="M28.1,18.4c0,0.1-0.1,0.2-0.1,0.3c0,0.1-0.1,0.2-0.2,0.3c0,0,0.1-0.1,0.2-0.3S28.1,18.4,28.1,18.4z"/>
	<path class="st5" d="M24.3,18.8C24.3,18.8,24.3,18.9,24.3,18.8c0,0.2,0.1,0.2,0.1,0.3c0,0.2,0.1,0.5,0.2,0.8s0.1,0.6,0.2,0.8
		c0,0.1,0,0.2,0,0.2c0,0,0,0.1,0,0.1c0,0,0-0.1,0-0.1c0-0.1,0-0.1,0-0.2c0-0.2-0.1-0.5-0.2-0.8s-0.1-0.6-0.2-0.8c0-0.1,0-0.2,0-0.2
		C24.3,18.9,24.3,18.8,24.3,18.8z"/>
	<path class="st5" d="M27.7,19.2C27.7,19.2,27.7,19.2,27.7,19.2c0,0.1,0,0.2,0,0.3c0,0.2,0,0.4,0,0.6s0,0.5,0,0.6c0,0.1,0,0.1,0,0.2
		c0,0,0,0,0,0.1c0,0,0,0,0-0.1c0,0,0-0.1,0-0.2c0-0.2,0-0.4,0-0.6s0-0.5,0-0.6C27.7,19.4,27.7,19.3,27.7,19.2
		C27.7,19.2,27.7,19.2,27.7,19.2z"/>
	<path class="st2" d="M28.5,18.4c0,0.1,0,0.1-0.1,0.2c-0.1,0.1-0.1,0.3-0.2,0.5c-0.1,0.2-0.1,0.4-0.1,0.5c0,0.1,0,0.1,0,0.2
		c0,0,0,0,0-0.1c0,0,0-0.1,0-0.2c0-0.2,0.1-0.4,0.1-0.5c0.1-0.2,0.1-0.3,0.2-0.5C28.4,18.5,28.4,18.5,28.5,18.4
		C28.5,18.4,28.5,18.4,28.5,18.4z"/>
	<path class="st2" d="M27.9,22.2C27.9,22.2,27.9,22.2,27.9,22.2l-0.1,0c0,0-0.1,0-0.2,0s-0.1,0-0.2,0s-0.2,0-0.3,0
		c-0.1,0-0.2,0-0.3,0c-0.5,0-1,0-1.5,0.1c-0.1,0-0.2,0-0.3,0.1c-0.1,0-0.2,0-0.3,0.1s-0.2,0-0.2,0.1c-0.1,0-0.1,0-0.2,0.1l-0.1,0
		c0,0,0,0,0,0c0,0,0,0,0,0l0.1,0c0,0,0.1,0,0.2-0.1s0.1-0.1,0.2-0.1s0.2-0.1,0.3-0.1c0.1,0,0.2,0,0.3-0.1c0.5-0.1,1-0.1,1.5-0.1
		c0.1,0,0.2,0,0.3,0s0.2,0,0.3,0c0.1,0,0.2,0,0.2,0s0.1,0,0.2,0L27.9,22.2C27.9,22.2,27.9,22.2,27.9,22.2z"/>
	<path class="st7" d="M29.8,23.4c0,0,0-1.4,0-3.2s0-3.2,0-3.2s0,1.4,0,3.2S29.8,23.4,29.8,23.4z"/>
	<path class="st7" d="M36.6,23.4c0,0,0,0,0.1,0c0.1,0,0.2-0.1,0.3-0.2c0-0.1,0.1-0.1,0.1-0.2c0-0.1,0-0.2,0-0.3c0-0.2,0-0.4,0-0.7
		c0-1.1,0-2.6,0-4.5c0-0.1,0-0.1,0-0.2c0-0.2-0.2-0.3-0.3-0.4c-0.1,0-0.2,0-0.4,0h-2h-3.6h-8.1c-0.2,0-0.3,0.1-0.4,0.2
		c0,0.1-0.1,0.2-0.1,0.2v1.3c0,0.7,0,1.4,0,2.1v2c0,0.2,0.1,0.3,0.2,0.4c0.1,0,0.1,0.1,0.2,0.1c0.1,0,0.2,0,0.2,0h0.9l6.6,0l4.5,0
		h1.2h0.3L36.6,23.4c0,0,0,0-0.1,0h-0.3l-1.2,0l-4.5,0l-6.6,0h-0.9c-0.1,0-0.2,0-0.2,0c-0.1,0-0.2,0-0.2-0.1
		c-0.1-0.1-0.2-0.3-0.2-0.4c0-0.7,0-1.3,0-2v-3.4c0-0.3,0.2-0.5,0.6-0.5h8.1h3.6H36h0.6c0.1,0,0.1,0,0.2,0c0.2,0.1,0.3,0.2,0.4,0.4
		c0,0.1,0,0.1,0,0.2c0,1.9,0,3.4,0,4.5c0,0.3,0,0.5,0,0.7c0,0.1,0,0.2,0,0.3c0,0.1-0.1,0.1-0.1,0.2c-0.1,0.1-0.2,0.1-0.3,0.2
		C36.7,23.4,36.6,23.4,36.6,23.4z"/>
	<path class="st7" d="M33.1,18.4c0,0-0.6,0-1.4,0s-1.4,0-1.4,0s0.6,0,1.4,0S33.1,18.4,33.1,18.4z"/>
	<path class="st7" d="M35.7,19.3c0,0-1.2,0-2.7,0c-1.5,0-2.7,0-2.7,0c0,0,1.2,0,2.7,0C34.5,19.2,35.7,19.2,35.7,19.3z"/>
	<path class="st7" d="M35.7,19.8c0,0-1.2,0-2.7,0c-1.5,0-2.7,0-2.7,0c0,0,1.2,0,2.7,0C34.5,19.7,35.7,19.7,35.7,19.8z"/>
	<path class="st7" d="M35.2,22.2c0-0.1,0-0.1-0.1-0.2c0,0-0.1-0.1-0.1-0.1c-0.1,0-0.2,0-0.2,0.1c0,0,0,0-0.1-0.1c0,0-0.1,0-0.2,0
		c-0.1,0-0.1,0-0.1,0.1c0,0-0.1,0.1-0.1,0.1c0,0.1,0,0.1,0,0.2c0,0.1,0.1,0.1,0.2,0.2l0.2,0.2c0,0,0.1-0.1,0.2-0.1
		c0.1,0,0.1-0.1,0.2-0.2C35.2,22.3,35.2,22.3,35.2,22.2z"/>
	<path class="st5" d="M34.7,22.7L34.7,22.7c0,0-0.1-0.1-0.2-0.2c-0.1,0-0.1-0.1-0.2-0.2c0-0.1,0-0.1,0-0.2c0-0.1,0-0.1,0.1-0.2
		c0,0,0.1-0.1,0.1-0.1c0.1,0,0.1,0,0.2,0c0,0,0,0,0.1,0.1c0.1-0.1,0.1-0.1,0.2-0.1c0.1,0,0.1,0,0.1,0.1c0,0,0.1,0.1,0.1,0.2
		c0,0.1,0,0.2,0,0.2c0,0.1-0.1,0.1-0.2,0.2C34.8,22.6,34.7,22.7,34.7,22.7L34.7,22.7z M34.5,22C34.5,22,34.5,22,34.5,22
		c-0.1,0-0.2,0.1-0.2,0.2c0,0.1,0,0.1,0,0.2c0,0.1,0.1,0.1,0.2,0.2c0.1,0.1,0.2,0.1,0.2,0.1c0,0,0.1-0.1,0.2-0.1
		c0.1,0,0.1-0.1,0.2-0.1c0-0.1,0-0.1,0-0.2l0,0c0,0,0-0.1-0.1-0.1c0,0-0.1-0.1-0.1-0.1c-0.1,0-0.2,0-0.2,0.1l0,0l0,0
		c0,0,0,0-0.1-0.1C34.6,22,34.6,22,34.5,22L34.5,22z"/>
	<path class="st5" d="M36.4,22.6h-0.2h-0.4l0,0l0,0l0-0.1c0-0.2,0-0.4-0.1-0.5l0,0h-0.1h0c0,0,0,0,0,0h0.2c0,0.1,0,0.3,0.1,0.5
		c0,0,0,0,0,0.1l0,0l0.4,0L36.4,22.6L36.4,22.6L36.4,22.6z"/>
	<path class="st5" d="M36.2,22.6h-0.4c0,0,0,0,0,0l0-0.1L35.7,22h-0.1c0,0,0,0,0,0s0,0,0,0h0.1c0,0,0,0,0,0l0,0l0.1,0.5c0,0,0,0,0,0
		l0.6,0c0,0,0,0,0,0s0,0,0,0L36.2,22.6L36.2,22.6z"/>
	<path class="st5" d="M35.8,22.4H36h0.4l0,0c0-0.1,0-0.2,0-0.2l0-0.1l0,0h-0.5h-0.2h0.2h0.5l0,0l0,0c0,0,0,0.1,0,0.1
		c0,0.1,0,0.2,0,0.2l0,0l0,0H36H35.8L35.8,22.4L35.8,22.4z"/>
	<path class="st5" d="M36.4,22.4L36.4,22.4l-0.6,0c0,0,0,0,0,0c0,0,0,0,0,0h0H36L36.4,22.4l0-0.4l-0.7,0c0,0,0,0,0,0s0,0,0,0h0.2
		h0.5h0c0,0,0,0,0,0l0,0.1c0,0.1,0,0.1,0,0.2L36.4,22.4C36.4,22.4,36.4,22.4,36.4,22.4C36.4,22.4,36.4,22.4,36.4,22.4z"/>
	<path class="st5" d="M35.9,22.7C35.9,22.7,35.9,22.7,35.9,22.7C35.9,22.7,35.9,22.7,35.9,22.7C35.9,22.7,35.9,22.7,35.9,22.7
		c-0.1,0-0.1,0-0.1,0C35.8,22.7,35.8,22.8,35.9,22.7C35.9,22.8,35.9,22.8,35.9,22.7C35.9,22.7,35.9,22.7,35.9,22.7
		C35.9,22.7,35.9,22.7,35.9,22.7L35.9,22.7C35.9,22.7,35.9,22.8,35.9,22.7C35.9,22.8,35.9,22.8,35.9,22.7c-0.1,0-0.1,0-0.1,0
		C35.8,22.7,35.9,22.7,35.9,22.7C35.9,22.7,35.9,22.7,35.9,22.7C35.9,22.7,35.9,22.7,35.9,22.7C35.9,22.7,35.9,22.7,35.9,22.7z"/>
	<path class="st5" d="M35.9,22.8C35.9,22.8,35.9,22.8,35.9,22.8C35.8,22.8,35.8,22.8,35.9,22.8c-0.1-0.1,0-0.1,0-0.1c0,0,0,0,0,0
		C35.9,22.7,36,22.7,35.9,22.8L35.9,22.8L35.9,22.8C36,22.7,35.9,22.8,35.9,22.8C35.9,22.8,35.9,22.8,35.9,22.8z M35.9,22.7
		L35.9,22.7C35.9,22.7,35.8,22.7,35.9,22.7C35.8,22.7,35.9,22.8,35.9,22.7C35.9,22.8,35.9,22.8,35.9,22.7
		C35.9,22.7,35.9,22.7,35.9,22.7L35.9,22.7L35.9,22.7L35.9,22.7C35.9,22.7,35.9,22.7,35.9,22.7C35.9,22.7,35.9,22.7,35.9,22.7
		L35.9,22.7z"/>
	<path class="st5" d="M36.3,22.7C36.3,22.7,36.3,22.7,36.3,22.7C36.3,22.7,36.3,22.7,36.3,22.7C36.3,22.7,36.3,22.7,36.3,22.7
		c-0.1,0-0.1,0-0.1,0C36.2,22.7,36.2,22.8,36.3,22.7C36.3,22.8,36.3,22.8,36.3,22.7C36.3,22.7,36.3,22.7,36.3,22.7
		C36.3,22.7,36.3,22.7,36.3,22.7L36.3,22.7C36.3,22.7,36.3,22.8,36.3,22.7c0,0.1-0.1,0.1-0.1,0c0,0,0,0,0,0
		C36.2,22.7,36.2,22.7,36.3,22.7C36.3,22.7,36.3,22.7,36.3,22.7C36.3,22.7,36.3,22.7,36.3,22.7L36.3,22.7z"/>
	<path class="st5" d="M36.3,22.8C36.3,22.8,36.3,22.8,36.3,22.8C36.2,22.8,36.2,22.7,36.3,22.8c-0.1-0.1,0-0.1,0-0.1c0,0,0,0,0.1,0
		C36.3,22.7,36.3,22.7,36.3,22.8L36.3,22.8L36.3,22.8C36.3,22.7,36.3,22.8,36.3,22.8C36.3,22.8,36.3,22.8,36.3,22.8z M36.3,22.7
		L36.3,22.7C36.2,22.7,36.2,22.7,36.3,22.7C36.2,22.7,36.2,22.8,36.3,22.7C36.3,22.8,36.3,22.8,36.3,22.7
		C36.3,22.7,36.3,22.7,36.3,22.7L36.3,22.7L36.3,22.7L36.3,22.7L36.3,22.7C36.3,22.7,36.3,22.7,36.3,22.7
		C36.3,22.7,36.3,22.7,36.3,22.7L36.3,22.7z"/>
	<path class="st5" d="M36.6,22c0,0.1-0.1,0.2-0.2,0.2s-0.2-0.1-0.2-0.2s0.1-0.2,0.2-0.2S36.6,21.9,36.6,22L36.6,22z"/>
	<path class="st3" d="M36.5,22.1L36.5,22.1L36.5,22.1C36.5,22.1,36.5,22,36.5,22.1c0-0.1,0-0.2,0-0.2C36.5,21.9,36.5,22,36.5,22.1
		C36.5,22,36.5,22.1,36.5,22.1L36.5,22.1L36.5,22.1z"/>
	<path class="st3" d="M36.6,22C36.5,22,36.5,22,36.6,22c-0.1,0-0.2,0-0.2,0C36.4,22,36.4,22,36.6,22C36.5,22,36.5,22,36.6,22z"/>
	<path class="st7" d="M33,22.4c0,0-0.6,0-1.2,0c-0.7,0-1.2,0-1.2,0c0,0,0.6,0,1.2,0C32.4,22.4,33,22.4,33,22.4z"/>
	<path class="st1" d="M22.7,24.4h13.9c0.3,0,0.5,0.2,0.5,0.5v5.4c0,0.3-0.2,0.5-0.5,0.5H22.7c-0.3,0-0.5-0.2-0.5-0.5v-5.4
		C22.2,24.6,22.4,24.4,22.7,24.4z"/>
	<path class="st3" d="M22.7,24.4h7.1l0,0v6.4l0,0h-7.1c-0.3,0-0.5-0.2-0.5-0.5v-5.5C22.2,24.6,22.4,24.4,22.7,24.4z"/>
	<path class="st2" d="M29.8,30.9c0,0,0-1.4,0-3.2c0-1.8,0-3.2,0-3.2s0,1.4,0,3.2C29.8,29.5,29.8,30.9,29.8,30.9z"/>
	<path class="st2" d="M36.6,30.8c0,0,0,0,0.1,0c0.1,0,0.2-0.1,0.3-0.2c0-0.1,0.1-0.1,0.1-0.2c0-0.1,0-0.2,0-0.3c0-0.2,0-0.4,0-0.7
		c0-1.1,0-2.6,0-4.5c0-0.1,0-0.1,0-0.2c0-0.2-0.2-0.3-0.3-0.4c-0.1,0-0.2,0-0.4,0h-2h-3.6h-8.1c-0.2,0-0.3,0.1-0.4,0.2
		c0,0.1-0.1,0.2-0.1,0.2v1.3c0,0.7,0,1.4,0,2.1v2c0,0.2,0.2,0.4,0.4,0.5c0.1,0,0.2,0,0.2,0h0.9l6.6,0l4.5,0h1.2h0.3L36.6,30.8
		l-0.1,0h-0.3l-1.2,0l-4.5,0l-6.6,0h-0.9c-0.1,0-0.2,0-0.2,0c-0.3,0-0.5-0.3-0.5-0.5c0-0.7,0-1.3,0-2v-3.4c0-0.3,0.3-0.5,0.6-0.5
		h8.1h3.6H36h0.6c0.1,0,0.1,0,0.2,0c0.2,0.1,0.3,0.2,0.4,0.4c0,0.1,0,0.1,0,0.2c0,1.9,0,3.4,0,4.5c0,0.3,0,0.5,0,0.7
		c0,0.1,0,0.2,0,0.3c0,0.1-0.1,0.1-0.1,0.2c-0.1,0.1-0.2,0.1-0.3,0.2C36.7,30.8,36.6,30.8,36.6,30.8z"/>
	<path class="st5" d="M33.1,25.9c0,0-0.6,0-1.4,0s-1.4,0-1.4,0s0.6,0,1.4,0S33.1,25.9,33.1,25.9z"/>
	<path class="st2" d="M35.7,26.7c0,0-1.2,0-2.7,0c-1.5,0-2.7,0-2.7,0s1.2,0,2.7,0C34.5,26.7,35.7,26.7,35.7,26.7z"/>
	<path class="st2" d="M35.7,27.2c0,0-1.2,0-2.7,0c-1.5,0-2.7,0-2.7,0c0,0,1.2,0,2.7,0C34.5,27.2,35.7,27.2,35.7,27.2z"/>
	<path class="st7" d="M35.2,29.7c0-0.1,0-0.1-0.1-0.2c0,0-0.1-0.1-0.1-0.1c-0.1,0-0.1,0-0.2,0c0,0-0.1,0-0.1,0.1c0,0,0,0-0.1-0.1
		c0,0-0.1,0-0.2,0c-0.1,0-0.1,0-0.1,0.1c0,0-0.1,0.1-0.1,0.1c0,0.1,0,0.1,0,0.2c0,0.1,0.1,0.1,0.2,0.2c0.1,0.1,0.2,0.2,0.2,0.2
		s0.1-0.1,0.2-0.1c0.1,0,0.1-0.1,0.2-0.1C35.2,29.8,35.2,29.7,35.2,29.7z"/>
	<path class="st5" d="M34.7,30.2L34.7,30.2c0,0-0.1-0.1-0.2-0.2c-0.1,0-0.1-0.1-0.2-0.2c0-0.1,0-0.1,0-0.2c0-0.1,0-0.1,0.1-0.2
		c0,0,0.1-0.1,0.1-0.1c0.1,0,0.1,0,0.2,0c0,0,0,0,0.1,0.1c0,0,0,0,0.1-0.1c0.1,0,0.1,0,0.2,0c0.1,0,0.1,0,0.1,0.1
		c0,0,0.1,0.1,0.1,0.2c0,0.1,0,0.2,0,0.2c0,0.1-0.1,0.1-0.2,0.2C34.8,30.1,34.7,30.2,34.7,30.2L34.7,30.2z M34.5,29.4
		C34.5,29.4,34.5,29.4,34.5,29.4c-0.1,0-0.1,0-0.2,0.1c0,0-0.1,0.1-0.1,0.1c0,0.1,0,0.1,0,0.2c0,0.1,0.1,0.1,0.2,0.2
		c0.1,0.1,0.2,0.1,0.2,0.1c0,0,0.1-0.1,0.2-0.1c0.1,0,0.1-0.1,0.2-0.1c0-0.1,0-0.1,0-0.2l0,0c0,0,0-0.1-0.1-0.1c0,0-0.1-0.1-0.1-0.1
		c0,0-0.1,0-0.2,0c0,0,0,0-0.1,0.1l0,0l0,0c0,0,0,0-0.1-0.1C34.6,29.4,34.6,29.4,34.5,29.4L34.5,29.4z"/>
	<path class="st5" d="M36.4,30h-0.2h-0.4l0,0l0,0l0-0.1c0-0.2,0-0.4-0.1-0.5l0,0h-0.1h0.1l0,0l0.1,0.5c0,0,0,0,0,0.1l0,0l0.4,0
		L36.4,30L36.4,30L36.4,30z"/>
	<path class="st5" d="M36.2,30h-0.4c0,0,0,0,0,0l-0.1-0.6h-0.1c0,0,0,0,0,0s0,0,0,0h0.1c0,0,0,0,0,0l0,0l0.1,0.5c0,0,0,0,0,0l0.6,0
		c0,0,0,0,0,0s0,0,0,0H36.2L36.2,30z"/>
	<path class="st5" d="M35.8,29.9H36h0.4l0,0c0-0.1,0-0.2,0-0.3c0,0,0-0.1,0-0.1l0,0h-0.5h-0.2h0.2h0.5l0,0l0,0c0,0,0,0.1,0,0.1
		c0,0.1,0,0.2,0,0.3l0,0l0,0l-0.4,0L35.8,29.9L35.8,29.9L35.8,29.9z"/>
	<path class="st5" d="M36.4,29.9L36.4,29.9l-0.6,0c0,0,0,0,0,0s0,0,0,0c0,0,0,0,0,0H36L36.4,29.9l0-0.4l-0.7,0c0,0,0,0,0,0s0,0,0,0
		h0.2h0.5h0c0,0,0,0,0,0l0,0.1c0,0.1,0,0.1,0,0.2L36.4,29.9C36.4,29.9,36.4,29.9,36.4,29.9z"/>
	<path class="st5" d="M35.9,30.2C35.9,30.2,35.9,30.2,35.9,30.2C35.9,30.2,35.9,30.1,35.9,30.2c0-0.1-0.1-0.1-0.1,0c0,0,0,0,0,0
		C35.8,30.2,35.8,30.2,35.9,30.2C35.9,30.2,35.9,30.2,35.9,30.2C35.9,30.2,35.9,30.2,35.9,30.2C35.9,30.2,35.9,30.2,35.9,30.2
		L35.9,30.2C35.9,30.2,35.9,30.2,35.9,30.2c0,0.1-0.1,0.1-0.1,0c0,0,0,0,0,0C35.8,30.2,35.8,30.1,35.9,30.2
		C35.9,30.1,35.9,30.1,35.9,30.2C35.9,30.1,35.9,30.2,35.9,30.2C35.9,30.2,35.9,30.2,35.9,30.2z"/>
	<path class="st5" d="M35.9,30.2C35.9,30.2,35.9,30.2,35.9,30.2C35.8,30.2,35.8,30.2,35.9,30.2c-0.1-0.1,0-0.1,0-0.1c0,0,0,0,0.1,0
		C35.9,30.1,36,30.1,35.9,30.2L35.9,30.2L35.9,30.2C36,30.2,35.9,30.2,35.9,30.2C35.9,30.2,35.9,30.3,35.9,30.2z M35.9,30.1
		L35.9,30.1C35.9,30.1,35.8,30.2,35.9,30.1C35.8,30.2,35.9,30.2,35.9,30.1C35.9,30.2,35.9,30.2,35.9,30.1
		C35.9,30.2,35.9,30.2,35.9,30.1L35.9,30.1L35.9,30.1L35.9,30.1L35.9,30.1C35.9,30.2,35.9,30.1,35.9,30.1
		C35.9,30.1,35.9,30.1,35.9,30.1L35.9,30.1z"/>
	<path class="st5" d="M36.3,30.2C36.3,30.2,36.3,30.2,36.3,30.2C36.3,30.2,36.3,30.2,36.3,30.2C36.3,30.1,36.3,30.1,36.3,30.2
		c-0.1,0-0.1,0-0.1,0C36.2,30.2,36.2,30.2,36.3,30.2C36.3,30.2,36.3,30.2,36.3,30.2C36.3,30.2,36.3,30.2,36.3,30.2
		C36.3,30.2,36.3,30.2,36.3,30.2L36.3,30.2C36.3,30.2,36.3,30.2,36.3,30.2C36.3,30.2,36.3,30.2,36.3,30.2c-0.1,0-0.1,0-0.1,0
		C36.2,30.2,36.2,30.1,36.3,30.2C36.3,30.1,36.3,30.1,36.3,30.2C36.3,30.2,36.3,30.2,36.3,30.2C36.3,30.2,36.3,30.2,36.3,30.2z"/>
	<path class="st5" d="M36.3,30.3C36.3,30.3,36.3,30.3,36.3,30.3C36.2,30.2,36.2,30.2,36.3,30.3c-0.1-0.1,0-0.1,0-0.1c0,0,0,0,0.1,0
		C36.3,30.1,36.3,30.2,36.3,30.3L36.3,30.3L36.3,30.3C36.3,30.2,36.3,30.2,36.3,30.3C36.3,30.2,36.3,30.3,36.3,30.3z M36.3,30.1
		L36.3,30.1C36.2,30.2,36.2,30.2,36.3,30.1C36.2,30.2,36.2,30.2,36.3,30.1C36.3,30.2,36.3,30.2,36.3,30.1
		C36.3,30.2,36.3,30.2,36.3,30.1L36.3,30.1L36.3,30.1L36.3,30.1L36.3,30.1C36.3,30.2,36.3,30.2,36.3,30.1
		C36.3,30.1,36.3,30.1,36.3,30.1L36.3,30.1z"/>
	<path class="st5" d="M36.6,29.4c0,0.1-0.1,0.2-0.2,0.2s-0.2-0.1-0.2-0.2c0-0.1,0.1-0.2,0.2-0.2C36.5,29.3,36.6,29.4,36.6,29.4
		L36.6,29.4z"/>
	<path class="st3" d="M36.5,29.5L36.5,29.5L36.5,29.5C36.5,29.5,36.5,29.5,36.5,29.5c0-0.1,0-0.2,0-0.2
		C36.5,29.4,36.5,29.4,36.5,29.5C36.5,29.5,36.5,29.5,36.5,29.5L36.5,29.5L36.5,29.5z"/>
	<path class="st3" d="M36.6,29.5C36.5,29.5,36.5,29.5,36.6,29.5c-0.1,0-0.2,0-0.2,0C36.4,29.4,36.4,29.4,36.6,29.5
		C36.5,29.5,36.5,29.5,36.6,29.5z"/>
	<path class="st5" d="M33,29.9c-0.4,0-0.8,0-1.2,0c-0.4,0-0.8,0-1.2,0c0,0,0.6,0,1.2,0C32.4,29.8,33,29.8,33,29.9z"/>
	<path class="st1" d="M22.7,31.8h13.9c0.3,0,0.5,0.2,0.5,0.5v5.4c0,0.3-0.2,0.5-0.5,0.5H22.7c-0.3,0-0.5-0.2-0.5-0.5v-5.4
		C22.2,32,22.4,31.8,22.7,31.8z"/>
	<path class="st3" d="M22.7,31.8h7.1l0,0v6.4l0,0h-7.1c-0.3,0-0.5-0.2-0.5-0.5v-5.5C22.2,32,22.4,31.8,22.7,31.8z"/>
	<path class="st2" d="M29.8,38.3c0,0,0-1.4,0-3.2c0-1.8,0-3.2,0-3.2s0,1.4,0,3.2C29.8,36.8,29.8,38.3,29.8,38.3z"/>
	<path class="st2" d="M36.6,38.2c0,0,0,0,0.1,0c0.2,0,0.3-0.2,0.4-0.4c0-0.1,0-0.2,0-0.3c0-0.2,0-0.4,0-0.7c0-1.1,0-2.6,0-4.5
		c0-0.1,0-0.1,0-0.2c0-0.2-0.2-0.3-0.3-0.4c-0.1,0-0.2,0-0.4,0h-2h-3.6h-8.1c-0.3,0-0.5,0.2-0.5,0.5v1.3c0,0.7,0,1.4,0,2.1v2
		c0,0.2,0.1,0.3,0.2,0.4c0.1,0,0.1,0.1,0.2,0.1c0.1,0,0.2,0,0.2,0h0.9h6.6l4.5,0h1.2h0.3L36.6,38.2l-0.1,0h-0.3h-1.2l-4.5,0l-6.6,0
		h-0.9c-0.1,0-0.2,0-0.2,0c-0.3,0-0.5-0.3-0.5-0.5c0-0.7,0-1.3,0-2v-3.4c0-0.3,0.3-0.5,0.6-0.5h8.1h3.6h2.2c0.1,0,0.1,0,0.2,0
		c0.2,0.1,0.3,0.2,0.4,0.4c0,0.1,0,0.1,0,0.2c0,1.9,0,3.4,0,4.5c0,0.3,0,0.5,0,0.7c0,0.1,0,0.2,0,0.3c0,0.1-0.1,0.1-0.1,0.2
		c-0.1,0.1-0.2,0.1-0.3,0.2C36.7,38.2,36.6,38.2,36.6,38.2z"/>
	<path class="st5" d="M33.1,33.2c0,0-0.6,0-1.4,0s-1.4,0-1.4,0s0.6,0,1.4,0S33.1,33.2,33.1,33.2z"/>
	<path class="st2" d="M35.7,34.1c0,0-1.2,0-2.7,0c-1.5,0-2.7,0-2.7,0c0,0,1.2,0,2.7,0C34.5,34,35.7,34.1,35.7,34.1z"/>
	<path class="st2" d="M35.7,34.6c0,0-1.2,0-2.7,0c-1.5,0-2.7,0-2.7,0c0,0,1.2,0,2.7,0C34.5,34.5,35.7,34.6,35.7,34.6z"/>
	<path class="st7" d="M35.2,37c0-0.1,0-0.1-0.1-0.2c0,0-0.1-0.1-0.1-0.1c-0.1,0-0.2,0-0.2,0.1c0,0,0,0-0.1-0.1c0,0-0.1,0-0.2,0
		c-0.1,0-0.1,0-0.1,0.1c0,0-0.1,0.1-0.1,0.1c0,0.1,0,0.1,0,0.2c0,0.1,0.1,0.1,0.2,0.2l0.2,0.2c0,0,0.1-0.1,0.2-0.1
		c0.1,0,0.1-0.1,0.2-0.2C35.2,37.2,35.2,37.1,35.2,37z"/>
	<path class="st5" d="M34.7,37.5L34.7,37.5c0,0-0.1-0.1-0.2-0.2c-0.1,0-0.1-0.1-0.2-0.2c0-0.1,0-0.1,0-0.2c0-0.1,0-0.1,0.1-0.2
		c0,0,0.1-0.1,0.1-0.1c0.1,0,0.1,0,0.2,0c0,0,0,0,0.1,0.1c0,0,0,0,0.1-0.1c0,0,0.1,0,0.2,0c0.1,0,0.1,0,0.1,0.1c0,0,0.1,0.1,0.1,0.2
		c0,0.1,0,0.2,0,0.2c0,0.1-0.1,0.1-0.2,0.2C34.8,37.4,34.7,37.5,34.7,37.5L34.7,37.5z M34.5,36.8L34.5,36.8c-0.1,0-0.1,0-0.2,0.1
		c0,0-0.1,0.1-0.1,0.1c0,0.1,0,0.1,0,0.2c0,0.1,0.1,0.1,0.2,0.2c0.1,0.1,0.2,0.1,0.2,0.1c0,0,0.1-0.1,0.2-0.1c0.1,0,0.1-0.1,0.2-0.1
		c0-0.1,0-0.1,0-0.2l0,0c0,0,0-0.1-0.1-0.1c0,0-0.1-0.1-0.1-0.1c-0.1,0-0.2,0-0.2,0.1l0,0l0,0c0,0,0,0-0.1-0.1
		C34.6,36.8,34.6,36.8,34.5,36.8L34.5,36.8z"/>
	<path class="st5" d="M36.4,37.4h-0.2h-0.4l0,0l0,0l0-0.1c0-0.2,0-0.4-0.1-0.5l0,0h-0.1h0.1l0,0c0,0.1,0,0.3,0.1,0.5c0,0,0,0,0,0.1
		l0,0h0.4H36.4L36.4,37.4L36.4,37.4z"/>
	<path class="st5" d="M36.2,37.4h-0.4c0,0,0,0,0,0l-0.1-0.6h-0.1c0,0,0,0,0,0s0,0,0,0h0.1c0,0,0,0,0,0l0,0l0.1,0.5c0,0,0,0,0,0
		l0.6,0c0,0,0,0,0,0s0,0,0,0H36.2L36.2,37.4z"/>
	<path class="st5" d="M35.8,37.2H36h0.4l0,0c0-0.1,0-0.2,0-0.2l0-0.1l0,0h-0.5h-0.2h0.2h0.5l0,0l0,0c0,0,0,0.1,0,0.1
		c0,0.1,0,0.2,0,0.3l0,0l0,0H36L35.8,37.2L35.8,37.2L35.8,37.2z"/>
	<path class="st5" d="M36.4,37.3L36.4,37.3H36h-0.1h0c0,0,0,0,0,0l0,0h0H36L36.4,37.3l0-0.4l-0.6,0h-0.1h-0.1c0,0,0,0,0,0s0,0,0,0
		h0.1h0.3h0.4h0c0,0,0,0,0,0l0,0.1L36.4,37.3C36.4,37.3,36.4,37.3,36.4,37.3z"/>
	<path class="st5" d="M35.9,37.5C35.9,37.5,35.9,37.5,35.9,37.5C35.9,37.5,35.9,37.5,35.9,37.5C35.9,37.5,35.9,37.5,35.9,37.5
		c-0.1,0-0.1,0-0.1,0C35.8,37.6,35.8,37.6,35.9,37.5C35.9,37.6,35.9,37.6,35.9,37.5C35.9,37.6,35.9,37.6,35.9,37.5
		C35.9,37.5,35.9,37.5,35.9,37.5L35.9,37.5C35.9,37.6,35.9,37.6,35.9,37.5C35.9,37.6,35.9,37.6,35.9,37.5c-0.1,0-0.1,0-0.1,0
		C35.8,37.5,35.8,37.5,35.9,37.5C35.9,37.5,35.9,37.5,35.9,37.5C35.9,37.5,35.9,37.5,35.9,37.5C35.9,37.5,35.9,37.5,35.9,37.5z"/>
	<path class="st5" d="M35.9,37.6C35.9,37.6,35.9,37.6,35.9,37.6C35.8,37.6,35.8,37.6,35.9,37.6c-0.1-0.1,0-0.1,0-0.1c0,0,0,0,0.1,0
		C35.9,37.5,36,37.5,35.9,37.6L35.9,37.6L35.9,37.6C36,37.6,35.9,37.6,35.9,37.6C35.9,37.6,35.9,37.6,35.9,37.6z M35.9,37.5
		L35.9,37.5C35.9,37.5,35.8,37.5,35.9,37.5C35.8,37.6,35.9,37.6,35.9,37.5C35.9,37.6,35.9,37.6,35.9,37.5
		C35.9,37.6,35.9,37.6,35.9,37.5L35.9,37.5L35.9,37.5L35.9,37.5L35.9,37.5C35.9,37.5,35.9,37.5,35.9,37.5
		C35.9,37.5,35.9,37.5,35.9,37.5z"/>
	<path class="st5" d="M36.3,37.5C36.3,37.5,36.3,37.5,36.3,37.5C36.3,37.5,36.3,37.5,36.3,37.5C36.3,37.5,36.3,37.5,36.3,37.5
		c-0.1,0-0.1,0-0.1,0S36.2,37.6,36.3,37.5C36.3,37.6,36.3,37.6,36.3,37.5C36.3,37.6,36.3,37.6,36.3,37.5L36.3,37.5L36.3,37.5
		C36.3,37.6,36.3,37.6,36.3,37.5C36.3,37.6,36.3,37.6,36.3,37.5c-0.1,0-0.1,0-0.1,0S36.2,37.5,36.3,37.5
		C36.3,37.5,36.3,37.5,36.3,37.5C36.3,37.5,36.3,37.5,36.3,37.5L36.3,37.5z"/>
	<path class="st5" d="M36.3,37.6C36.3,37.6,36.3,37.6,36.3,37.6C36.2,37.6,36.2,37.6,36.3,37.6c-0.1-0.1,0-0.1,0-0.1c0,0,0,0,0.1,0
		C36.3,37.5,36.3,37.5,36.3,37.6L36.3,37.6L36.3,37.6C36.3,37.6,36.3,37.6,36.3,37.6C36.3,37.6,36.3,37.6,36.3,37.6z M36.3,37.5
		L36.3,37.5C36.2,37.5,36.2,37.5,36.3,37.5C36.2,37.6,36.2,37.6,36.3,37.5C36.3,37.6,36.3,37.6,36.3,37.5
		C36.3,37.6,36.3,37.6,36.3,37.5L36.3,37.5L36.3,37.5L36.3,37.5L36.3,37.5C36.3,37.5,36.3,37.5,36.3,37.5
		C36.3,37.5,36.3,37.5,36.3,37.5L36.3,37.5z"/>
	<path class="st5" d="M36.6,36.8c0,0.1-0.1,0.2-0.2,0.2s-0.2-0.1-0.2-0.2s0.1-0.2,0.2-0.2S36.6,36.7,36.6,36.8z"/>
	<path class="st3" d="M36.5,36.9L36.5,36.9L36.5,36.9C36.5,36.9,36.5,36.9,36.5,36.9c0-0.1,0-0.2,0-0.2
		C36.5,36.8,36.5,36.8,36.5,36.9C36.5,36.9,36.5,36.9,36.5,36.9L36.5,36.9L36.5,36.9z"/>
	<path class="st3" d="M36.6,36.8C36.5,36.8,36.5,36.8,36.6,36.8c-0.1,0-0.2,0-0.2,0C36.4,36.8,36.5,36.8,36.6,36.8L36.6,36.8z"/>
	<path class="st5" d="M33,37.2c0,0-0.6,0-1.2,0c-0.7,0-1.2,0-1.2,0s0.6,0,1.2,0C32.4,37.2,33,37.2,33,37.2z"/>
	<path class="st1" d="M22.7,39.2h13.9c0.3,0,0.5,0.2,0.5,0.5v5.4c0,0.3-0.2,0.5-0.5,0.5H22.7c-0.3,0-0.5-0.2-0.5-0.5v-5.4
		C22.2,39.4,22.4,39.2,22.7,39.2z"/>
	<path class="st3" d="M22.7,39.2h7.1l0,0v6.4l0,0h-7.1c-0.3,0-0.5-0.2-0.5-0.5v-5.5C22.2,39.4,22.4,39.2,22.7,39.2z"/>
	<path class="st2" d="M29.8,45.7c0,0,0-1.4,0-3.2s0-3.2,0-3.2s0,1.4,0,3.2S29.8,45.7,29.8,45.7z"/>
	<path class="st2" d="M36.6,45.6c0,0,0,0,0.1,0c0.1,0,0.2-0.1,0.3-0.2c0-0.1,0.1-0.1,0.1-0.2c0-0.1,0-0.2,0-0.3c0-0.2,0-0.4,0-0.7
		c0-1.1,0-2.6,0-4.5c0-0.1,0-0.1,0-0.2c0-0.1,0-0.1-0.1-0.2c-0.1-0.1-0.2-0.2-0.3-0.2c-0.1,0-0.2,0-0.4,0H36h-1.6h-3.6h-8.1
		c-0.2,0-0.3,0.1-0.4,0.2c0,0.1-0.1,0.2-0.1,0.2V41c0,0.7,0,1.4,0,2.1v2c0,0.2,0.1,0.3,0.2,0.4c0.1,0,0.1,0.1,0.2,0.1
		c0.1,0,0.2,0,0.2,0h0.9l6.6,0l4.5,0h1.2h0.3L36.6,45.6l-0.1,0h-0.3h-1.2l-4.5,0h-6.6h-0.9c-0.1,0-0.2,0-0.2,0
		c-0.3,0-0.5-0.3-0.5-0.5c0-0.7,0-1.3,0-2v-3.4c0-0.3,0.3-0.5,0.6-0.5h8.1h3.6H36h0.6c0.2,0,0.4,0.1,0.5,0.3c0,0.1,0.1,0.1,0.1,0.2
		c0,0.1,0,0.1,0,0.2c0,1.9,0,3.4,0,4.5c0,0.3,0,0.5,0,0.7c0,0.1,0,0.2,0,0.3c0,0.1-0.1,0.1-0.1,0.2c-0.1,0.1-0.2,0.1-0.3,0.2
		C36.7,45.6,36.6,45.6,36.6,45.6z"/>
	<path class="st5" d="M33.1,40.6c0,0-0.6,0-1.4,0s-1.4,0-1.4,0s0.6,0,1.4,0S33.1,40.6,33.1,40.6z"/>
	<path class="st2" d="M35.7,41.5c0,0-1.2,0-2.7,0c-1.5,0-2.7,0-2.7,0s1.2,0,2.7,0C34.5,41.4,35.7,41.5,35.7,41.5z"/>
	<path class="st2" d="M35.7,42c0,0-1.2,0-2.7,0c-1.5,0-2.7,0-2.7,0s1.2,0,2.7,0C34.5,41.9,35.7,42,35.7,42z"/>
	<path class="st7" d="M35.2,44.4c0-0.1,0-0.1-0.1-0.2c0,0-0.1-0.1-0.1-0.1c-0.1,0-0.1,0-0.2,0c0,0-0.1,0-0.1,0.1c0,0,0,0-0.1-0.1
		c0,0-0.1,0-0.2,0c-0.1,0-0.1,0-0.1,0.1c0,0-0.1,0.1-0.1,0.1c0,0.1,0,0.1,0,0.2c0,0.1,0.1,0.1,0.2,0.2c0.1,0.1,0.2,0.2,0.2,0.2
		s0.1-0.1,0.2-0.1c0.1,0,0.1-0.1,0.2-0.1C35.2,44.6,35.2,44.5,35.2,44.4z"/>
	<path class="st5" d="M34.7,44.9L34.7,44.9c0,0-0.1-0.1-0.2-0.2c-0.1,0-0.1-0.1-0.2-0.2c0-0.1,0-0.1,0-0.2c0-0.1,0-0.1,0.1-0.2
		c0,0,0.1-0.1,0.1-0.1c0.1,0,0.2,0,0.2,0.1c0-0.1,0.1-0.1,0.2-0.1c0.1,0,0.1,0,0.1,0.1c0,0,0.1,0.1,0.1,0.2l0,0c0,0.1,0,0.2,0,0.2
		c0,0.1-0.1,0.1-0.2,0.2C34.8,44.9,34.7,44.9,34.7,44.9L34.7,44.9z M34.5,44.2L34.5,44.2c-0.1,0-0.1,0-0.2,0.1c0,0-0.1,0.1-0.1,0.1
		c0,0.1,0,0.1,0,0.2c0,0.1,0.1,0.1,0.2,0.2c0.1,0.1,0.2,0.1,0.2,0.1c0,0,0.1-0.1,0.2-0.1c0.1,0,0.1-0.1,0.2-0.1c0-0.1,0-0.1,0-0.2
		l0,0c0-0.1-0.1-0.2-0.2-0.2c0,0-0.1,0-0.2,0c0,0,0,0-0.1,0.1l0,0l0,0c0,0,0,0-0.1-0.1C34.6,44.2,34.6,44.2,34.5,44.2L34.5,44.2z"/>
	<path class="st5" d="M36.4,44.8h-0.2h-0.4l0,0l0,0l0-0.1c0-0.2,0-0.4-0.1-0.5l0,0h-0.1h0.1l0,0l0.1,0.5c0,0,0,0,0,0.1l0,0h0.4H36.4
		L36.4,44.8L36.4,44.8z"/>
	<path class="st5" d="M36.2,44.8h-0.4c0,0,0,0,0,0l-0.1-0.6h-0.1h0c0,0,0,0,0,0s0,0,0,0h0.1c0,0,0,0,0,0l0,0l0.1,0.5c0,0,0,0,0,0
		l0.6,0c0,0,0,0,0,0c0,0,0,0,0,0H36.2L36.2,44.8z"/>
	<path class="st5" d="M35.8,44.7H36h0.4l0,0c0-0.1,0-0.2,0-0.2l0-0.1l0,0l-0.5,0h-0.2h0.2h0.5l0,0l0,0c0,0,0,0.1,0,0.1
		c0,0.1,0,0.2,0,0.2l0,0l0,0H36L35.8,44.7L35.8,44.7L35.8,44.7z"/>
	<path class="st5" d="M36.4,44.7L36.4,44.7l-0.6,0c0,0,0,0,0,0l0,0h0H36L36.4,44.7l0-0.4l-0.7,0h0c0,0,0,0,0,0s0,0,0,0h0.2h0.5h0
		c0,0,0,0,0,0l0,0.1C36.4,44.5,36.4,44.5,36.4,44.7L36.4,44.7C36.4,44.7,36.4,44.7,36.4,44.7z"/>
	<path class="st5" d="M35.9,44.9C35.9,44.9,35.9,44.9,35.9,44.9C35.9,44.9,35.9,44.9,35.9,44.9c0-0.1-0.1-0.1-0.1,0c0,0,0,0,0,0
		C35.8,45,35.8,45,35.9,44.9C35.9,45,35.9,45,35.9,44.9L35.9,44.9C35.9,45,35.9,44.9,35.9,44.9L35.9,44.9C35.9,45,35.9,45,35.9,44.9
		C35.9,45,35.9,45,35.9,44.9c-0.1,0-0.1,0-0.1,0S35.8,44.9,35.9,44.9C35.9,44.9,35.9,44.9,35.9,44.9C35.9,44.9,35.9,44.9,35.9,44.9
		L35.9,44.9z"/>
	<path class="st5" d="M35.9,45C35.9,45,35.9,45,35.9,45C35.8,45,35.8,45,35.9,45c-0.1-0.1,0-0.1,0-0.1c0,0,0,0,0,0
		C35.9,44.9,36,44.9,35.9,45L35.9,45L35.9,45C36,45,35.9,45,35.9,45C35.9,45,35.9,45,35.9,45z M35.9,44.9L35.9,44.9
		C35.9,44.9,35.8,44.9,35.9,44.9C35.8,45,35.9,45,35.9,44.9C35.9,45,35.9,45,35.9,44.9C35.9,45,35.9,45,35.9,44.9L35.9,44.9
		L35.9,44.9L35.9,44.9L35.9,44.9C35.9,44.9,35.9,44.9,35.9,44.9C35.9,44.9,35.9,44.9,35.9,44.9L35.9,44.9z"/>
	<path class="st5" d="M36.3,45C36.3,45,36.3,45,36.3,45C36.3,44.9,36.3,44.9,36.3,45C36.3,44.9,36.3,44.9,36.3,45
		c-0.1,0-0.1,0-0.1,0C36.2,45,36.2,45,36.3,45C36.3,45,36.3,45,36.3,45C36.3,45,36.3,45,36.3,45C36.3,45,36.3,45,36.3,45L36.3,45
		C36.3,45,36.3,45,36.3,45C36.3,45,36.3,45,36.3,45c-0.1,0-0.1,0-0.1,0S36.2,44.9,36.3,45C36.3,44.9,36.3,44.9,36.3,45
		C36.3,44.9,36.3,44.9,36.3,45C36.3,44.9,36.3,44.9,36.3,45z"/>
	<path class="st5" d="M36.3,45L36.3,45C36.2,45,36.2,45,36.3,45c-0.1-0.1,0-0.1,0-0.1c0,0,0,0,0.1,0C36.3,44.9,36.3,44.9,36.3,45
		L36.3,45L36.3,45C36.3,45,36.3,45,36.3,45C36.3,45,36.3,45,36.3,45z M36.3,44.9L36.3,44.9C36.2,44.9,36.2,44.9,36.3,44.9
		C36.2,45,36.2,45,36.3,44.9C36.3,45,36.3,45,36.3,44.9L36.3,44.9L36.3,44.9L36.3,44.9L36.3,44.9L36.3,44.9
		C36.3,44.9,36.3,44.9,36.3,44.9C36.3,44.9,36.3,44.9,36.3,44.9L36.3,44.9z"/>
	<path class="st5" d="M36.6,44.2c0,0.1-0.1,0.2-0.2,0.2s-0.2-0.1-0.2-0.2c0-0.1,0.1-0.2,0.2-0.2S36.6,44.1,36.6,44.2L36.6,44.2z"/>
	<path class="st3" d="M36.5,44.3L36.5,44.3L36.5,44.3C36.5,44.3,36.5,44.3,36.5,44.3c0-0.1,0-0.2,0-0.2
		C36.5,44.2,36.5,44.2,36.5,44.3C36.5,44.3,36.5,44.3,36.5,44.3L36.5,44.3L36.5,44.3z"/>
	<path class="st3" d="M36.6,44.2C36.5,44.2,36.5,44.2,36.6,44.2c-0.1,0-0.2,0-0.2,0C36.4,44.2,36.4,44.2,36.6,44.2
		C36.5,44.2,36.5,44.2,36.6,44.2z"/>
	<path class="st5" d="M33,44.6c-0.4,0-0.8,0-1.2,0c-0.4,0-0.8,0-1.2,0c0,0,0.6,0,1.2,0C32.4,44.6,33,44.6,33,44.6z"/>
	<path class="st5" d="M24.1,26c0,0-0.9,2.2-0.9,3.4l2.4,0.7l0.4-0.8l0.4,0.8c0,0,1.9-0.5,2.4-0.9c0,0-0.5-2.6-0.9-3.2
		c0,0,0.2-0.5,0.1-0.5c-0.2,0-0.5,0-0.7,0s-0.3,0-0.6,0c-0.3,0-0.3,0.3-0.6,0.2c-0.3-0.1-0.3-0.2-0.7-0.2c-0.4-0.1-0.6,0.2-0.8,0.1
		c-0.2,0-0.3-0.1-0.5-0.1c-0.1,0-0.3,0.1-0.3,0.2c0,0,0,0.1,0,0.1h0C24,25.8,24.1,25.9,24.1,26z"/>
	<path class="st5" d="M27.5,25.5c0,0.1,0,0.2,0,0.3c0,0.1-0.1,0.2-0.2,0.2c0.1-0.1,0.1-0.2,0.1-0.2C27.4,25.7,27.5,25.6,27.5,25.5z"
		/>
	<path class="st4" d="M26.1,27.2C26.1,27.2,26.1,27.1,26.1,27.2L25.9,27l-0.4-0.4h0l-0.5,0.6v0l0,0l0.5,0.6h0l0.4-0.4
		C26,27.3,26,27.2,26.1,27.2C26.1,27.2,26.1,27.2,26.1,27.2C26.1,27.2,26.1,27.2,26.1,27.2L26,27.3l-0.3,0.5l0,0l0,0l-0.5-0.6l0,0
		l0,0l0,0l0.5-0.6l0,0l0,0L26,27L26.1,27.2C26.1,27.1,26.1,27.2,26.1,27.2z"/>
	<path class="st4" d="M27.9,26.8C27.9,26.8,27.9,26.8,27.9,26.8l-0.1-0.2l-0.4-0.4h0l-0.5,0.6v0l0,0l0.5,0.6h0l0.4-0.4L27.9,26.8
		C27.9,26.8,27.9,26.8,27.9,26.8C27.9,26.8,27.9,26.8,27.9,26.8L27.8,27l-0.3,0.5l0,0l0,0l-0.5-0.6l0,0l0,0l0,0l0.5-0.6l0,0l0,0
		l0.3,0.4L27.9,26.8C27.9,26.8,27.9,26.8,27.9,26.8z"/>
	<path class="st4" d="M26.6,25.5c0.1,0.1,0.2,0.2,0.3,0.4h0l0,0l0,0l0,0l0,0l0,0l0.1-0.1l0.1-0.1c0,0,0.1-0.1,0.1-0.1
		c0,0,0,0.1-0.1,0.1L27,25.7c0,0,0,0,0,0.1l0,0l0,0l0,0l0,0l0,0h0C26.7,25.8,26.6,25.6,26.6,25.5z"/>
	<path class="st4" d="M24.8,26c0,0-0.1-0.1-0.1-0.1c-0.1-0.1-0.1-0.2-0.2-0.3l0,0h0c-0.1,0.1-0.1,0.2-0.2,0.3c0,0,0,0.1-0.1,0.1
		c0,0,0-0.1,0.1-0.1c0-0.1,0.1-0.2,0.2-0.3l0,0l0,0l0,0c0.1,0.1,0.2,0.2,0.2,0.3C24.8,25.9,24.8,26,24.8,26z"/>
	<path class="st4" d="M27.3,28.7C27.3,28.7,27.3,28.7,27.3,28.7l-0.1-0.2l-0.3-0.4h0c-0.1,0.2-0.3,0.4-0.5,0.6v0l0,0l0.5,0.6h0
		c0.1-0.2,0.3-0.3,0.4-0.4L27.3,28.7C27.3,28.7,27.3,28.7,27.3,28.7C27.3,28.7,27.3,28.7,27.3,28.7l-0.1,0.2l-0.3,0.5l0,0l0,0
		c-0.1-0.2-0.3-0.4-0.5-0.6l0,0l0,0l0,0c0.2-0.2,0.3-0.4,0.5-0.6l0,0l0,0l0.3,0.4L27.3,28.7C27.3,28.7,27.3,28.7,27.3,28.7z"/>
	<path class="st4" d="M25.2,29.2C25.2,29.2,25.2,29.2,25.2,29.2L25,29l-0.4-0.4h0l-0.5,0.6v0l0,0l0.5,0.6h0l0.4-0.4L25.2,29.2
		C25.2,29.2,25.2,29.2,25.2,29.2C25.2,29.2,25.2,29.2,25.2,29.2l-0.1,0.2l-0.3,0.5l0,0l0,0l-0.5-0.6l0,0l0,0l0,0l0.5-0.6l0,0l0,0
		l0.3,0.4L25.2,29.2C25.2,29.2,25.2,29.2,25.2,29.2z"/>
	<path class="st4" d="M23.4,28.1C23.4,28.1,23.5,28.1,23.4,28.1l0.2-0.2c0.1-0.1,0.3-0.2,0.5-0.4l0.1,0v0c-0.1-0.2-0.2-0.4-0.2-0.5
		c0-0.1-0.1-0.1-0.1-0.2c0,0.1,0.1,0.1,0.1,0.2c0.1,0.1,0.2,0.3,0.3,0.5l0,0l0,0l-0.1,0c-0.2,0.1-0.4,0.3-0.5,0.4
		C23.6,28,23.5,28.1,23.4,28.1C23.5,28.1,23.4,28.1,23.4,28.1z"/>
	<path class="st4" d="M28.8,28.6C28.7,28.6,28.7,28.6,28.8,28.6c-0.1-0.1-0.1-0.1-0.2-0.2c-0.1-0.1-0.3-0.3-0.4-0.4l0,0v0l0,0
		c0.1-0.2,0.1-0.4,0.2-0.6c0-0.1,0-0.1,0.1-0.2c0,0,0,0,0-0.1c0,0,0,0,0,0.1c0,0,0,0.1-0.1,0.2c0,0.1-0.1,0.3-0.2,0.6l0,0v0
		c0.2,0.2,0.3,0.3,0.4,0.4C28.6,28.5,28.7,28.5,28.8,28.6C28.7,28.6,28.8,28.6,28.8,28.6z"/>
	<path class="st5" d="M28,26C28,26,28,26,28,26c-0.1,0-0.1,0-0.1,0c-0.1,0-0.3,0-0.4,0c-0.2,0-0.4,0-0.6-0.1c-0.2,0-0.5-0.1-0.7-0.1
		c-0.3,0-0.5,0-0.7,0c-0.2,0-0.4,0-0.6,0c-0.1,0-0.3,0-0.4,0c0,0-0.1,0-0.1,0c0,0,0,0,0,0h0c0,0,0.1,0,0.1,0c0.1,0,0.3,0,0.4,0
		c0.2,0,0.4,0,0.6,0c0.2,0,0.5,0,0.8-0.1c0.2,0,0.5,0,0.8,0.1c0.2,0,0.4,0.1,0.6,0.1c0.1,0,0.3,0,0.4,0C28,26,28,26,28,26z"/>
	<path class="st5" d="M24.4,27.8C24.4,27.8,24.4,27.7,24.4,27.8c0-0.1,0-0.2,0-0.3c0-0.2,0.1-0.4,0.1-0.6c0-0.2,0.1-0.5,0.2-0.6
		c0-0.1,0-0.1,0.1-0.2c0,0,0,0,0-0.1c0,0,0,0,0,0.1c0,0,0,0.1,0,0.2c0,0.2-0.1,0.4-0.2,0.6c0,0.2-0.1,0.5-0.1,0.6
		C24.5,27.6,24.5,27.7,24.4,27.8C24.5,27.7,24.4,27.8,24.4,27.8z"/>
	<path class="st5" d="M24.8,27.1c0-0.2,0-0.4,0.1-0.5c0-0.2,0.1-0.4,0.1-0.5c0,0.2,0,0.4-0.1,0.5C24.9,26.8,24.8,26.9,24.8,27.1z"/>
	<path class="st6" d="M27.7,28.7C27.7,28.7,27.7,28.7,27.7,28.7c-0.1-0.2-0.1-0.3-0.2-0.4c-0.2-0.6-0.4-1.3-0.4-1.9
		c0-0.1,0-0.2,0-0.3c0,0,0-0.1,0-0.1c0,0,0,0.1,0,0.1c0,0.1,0,0.2,0,0.3c0,0.3,0.1,0.7,0.1,1c0.1,0.3,0.2,0.6,0.2,1
		c0,0.1,0.1,0.2,0.1,0.3C27.7,28.7,27.7,28.7,27.7,28.7z"/>
	<path class="st6" d="M27.6,27c0,0,0-0.1-0.1-0.1c0-0.1-0.1-0.2-0.1-0.3s-0.1-0.3-0.1-0.3c0,0,0-0.1,0-0.1c0,0,0,0.1,0,0.1
		c0,0.1,0.1,0.2,0.1,0.3s0.1,0.2,0.1,0.3C27.6,26.9,27.6,27,27.6,27z"/>
	<path class="st6" d="M25.8,29.9C25.8,29.9,25.8,29.9,25.8,29.9c0,0-0.1,0-0.1,0c-0.1,0-0.2,0-0.3-0.1c-0.3-0.1-0.6-0.2-0.9-0.4
		c-0.3-0.2-0.6-0.3-0.9-0.3c-0.1,0-0.2,0-0.3,0c-0.1,0-0.1,0-0.1,0h0c0,0,0,0,0.1,0c0.1,0,0.2,0,0.3,0c0.3,0.1,0.6,0.2,0.9,0.3
		c0.3,0.2,0.7,0.3,0.9,0.4C25.6,29.8,25.7,29.8,25.8,29.9C25.8,29.9,25.8,29.9,25.8,29.9z"/>
	<path class="st6" d="M28.8,28.9C28.8,28.9,28.8,28.9,28.8,28.9c-0.1,0.1-0.2,0.1-0.3,0.2c-0.3,0.2-0.6,0.3-0.8,0.4
		c-0.3,0.1-0.6,0.2-0.9,0.3c-0.1,0-0.2,0.1-0.3,0.1c0,0-0.1,0-0.1,0c0,0,0.1,0,0.1,0c0.1,0,0.2,0,0.3-0.1c0.2-0.1,0.5-0.2,0.9-0.3
		s0.6-0.3,0.8-0.4l0.2-0.1C28.8,28.9,28.8,28.9,28.8,28.9z"/>
	<path class="st5" d="M27.7,25.7c0,0.1,0,0.1-0.1,0.2c0,0.1-0.1,0.1-0.2,0.1c0,0,0.1-0.1,0.1-0.1C27.6,25.8,27.7,25.7,27.7,25.7z"/>
	<path class="st5" d="M25,25.5c0,0,0,0.1,0.1,0.2s0.1,0.2,0.1,0.2c-0.1,0-0.1-0.1-0.1-0.2C25,25.7,25,25.6,25,25.5z"/>
	<path class="st5" d="M24.8,41.8h3.1c0.2,0,0.3,0.1,0.3,0.3V44c0,0.2-0.1,0.3-0.3,0.3h-3.1c-0.2,0-0.3-0.1-0.3-0.3v-1.9
		C24.6,41.9,24.7,41.8,24.8,41.8z"/>
	<path class="st5" d="M27.2,42.3C27.2,42.2,27.2,42.2,27.2,42.3l0-0.2c0-0.2,0-0.3,0-0.5c0-0.2-0.1-0.5-0.3-0.7
		c-0.1-0.1-0.2-0.2-0.4-0.2c-0.2,0-0.3,0-0.5,0c-0.3,0-0.6,0.1-0.8,0.2c-0.1,0.1-0.2,0.2-0.2,0.3c0,0.1-0.1,0.2-0.1,0.3
		c0,0.2,0,0.3,0,0.5c0,0.1,0,0.1,0,0.1c0,0,0,0,0,0c0,0,0,0,0,0c0,0,0-0.1,0-0.1c0-0.2,0-0.3,0-0.5c0-0.1,0-0.2,0.1-0.3
		c0-0.1,0.1-0.2,0.2-0.3c0.1-0.1,0.2-0.2,0.4-0.2c0.2,0,0.3-0.1,0.5-0.1c0.2,0,0.3,0,0.5,0c0.1,0,0.3,0.1,0.4,0.2
		c0.2,0.2,0.3,0.4,0.3,0.7c0,0.2,0,0.3,0,0.5C27.2,42.1,27.2,42.2,27.2,42.3C27.2,42.2,27.2,42.2,27.2,42.3z"/>
	<path class="st6" d="M24.4,41.8h3.1c0.2,0,0.3,0.1,0.3,0.3V44c0,0.2-0.1,0.3-0.3,0.3h-3.1c-0.2,0-0.3-0.1-0.3-0.3v-1.9
		C24.1,41.9,24.2,41.8,24.4,41.8z"/>
	<path class="st5" d="M27.5,44.2c0,0,0.1,0,0.1,0c0,0,0.1,0,0.1-0.1c0,0,0.1-0.1,0.1-0.2c0-0.3,0-0.7,0-1.3c0-0.1,0-0.3,0-0.4
		c0-0.1,0-0.1,0-0.2c0-0.1,0-0.1-0.1-0.2s-0.1-0.1-0.2-0.1h-0.2h-0.5h-2.3c-0.1,0-0.2,0-0.2,0.1c0,0,0,0.1,0,0.1v0.7
		c0,0.4,0,0.7,0,1.1c0,0,0,0.1,0,0.1s0,0.1,0.1,0.1c0.1,0.1,0.1,0.1,0.2,0.1h1.3H27h0.3L27.5,44.2C27.5,44.2,27.5,44.2,27.5,44.2
		L27.5,44.2l-0.1,0H27l-1.3,0h-0.9h-0.5c-0.1,0-0.3-0.1-0.3-0.2c0,0,0-0.1,0-0.1c0-0.4,0-0.7,0-1.1c0-0.2,0-0.4,0-0.6
		c0,0,0-0.1,0-0.2s0-0.1,0-0.2c0.1-0.1,0.2-0.2,0.3-0.2h3c0.1,0,0.2,0,0.2,0.1c0.1,0,0.1,0.1,0.1,0.2c0,0.1,0,0.2,0,0.2v0.4
		c0,0.5,0,1,0,1.3c0,0.1,0,0.1-0.1,0.2c0,0-0.1,0.1-0.1,0.1C27.6,44.2,27.5,44.2,27.5,44.2z"/>
	<path class="st5" d="M27.7,43c0,0-0.8,0-1.8,0s-1.8,0-1.8,0s0.8,0,1.8,0S27.7,43,27.7,43z"/>
	<path class="st2" d="M25.9,43.3c0-0.2,0-0.4,0-0.6C26,42.9,26,43.2,25.9,43.3z"/>
	<path class="st7" d="M23.2,35.8c0,0,0.9-2.5,1.1-2.7s1.2-0.4,1.2-0.4l0.7,2.3l0.8-2.4c0,0,0.9,0.3,1.1,0.7c0.2,0.4,0.9,2.5,0.9,2.5
		l-1.4,0.5l0.2,0.8l-3.5,0l0.2-0.7L23.2,35.8z"/>
	<g class="st9">
		<path d="M25.1,34.2c-0.2-0.4-0.4-0.9-0.4-1.3L24.4,33c0,0.5,0.2,0.9,0.4,1.3c0,0.1,0.1,0.1,0.1,0.2s0.1,0,0.2,0
			C25.2,34.4,25.1,34.3,25.1,34.2z"/>
	</g>
	<g class="st9">
		<path d="M25.5,35.6c0,0-0.1-0.1-0.1-0.1l0,0c-0.1,0-0.2,0.1-0.2,0.2c0,0.1,0.1,0.2,0.2,0.2c0,0,0,0,0.1,0c0,0,0.1,0,0.1-0.1
			c0,0,0-0.1,0-0.1C25.6,35.7,25.6,35.7,25.5,35.6z"/>
	</g>
	<g class="st9">
		<path d="M27.7,36.5c-0.1,0.2-0.3,0.3-0.5,0.4c-0.2,0.1-0.4,0.1-0.6,0c-0.1,0-0.2-0.1-0.2-0.1c-0.1,0-0.1,0.1-0.2,0
			c0,0-0.1,0-0.1-0.1c0-0.1,0-0.2,0.1-0.2c0.1,0,0.2,0,0.2,0c0.1,0,0.2,0,0.2,0c0.3,0,0.7-0.2,0.9-0.5l0.2-0.2l-0.1,0.5L27.7,36.5z"
			/>
	</g>
	<path class="st5" d="M27.9,35.1c0,0.2-0.1,0.4-0.1,0.6c0,0.2-0.1,0.4-0.1,0.6c0-0.2,0.1-0.4,0.1-0.6C27.8,35.5,27.9,35.3,27.9,35.1
		z"/>
	<path class="st3" d="M27.9,33C27.9,33.1,27.9,33.1,27.9,33c0,0.1,0,0.2-0.1,0.2c-0.1,0.2-0.2,0.3-0.4,0.4c-0.2,0.1-0.4,0.1-0.5,0.1
		c-0.1,0-0.1,0-0.2,0c0,0,0,0-0.1,0c0,0,0.1,0,0.2,0c0.2,0,0.4,0,0.5-0.1c0.2-0.1,0.3-0.2,0.4-0.4C27.9,33.1,27.9,33,27.9,33z"/>
	<path class="st3" d="M28.1,33.3C28.1,33.3,28.1,33.3,28.1,33.3c-0.1,0.1-0.1,0.2-0.1,0.2c-0.3,0.4-0.7,0.5-1.2,0.5
		c-0.1,0-0.1,0-0.2,0c0,0,0,0-0.1,0c0,0,0.1,0,0.3,0.1c0.4,0.1,0.9-0.1,1.2-0.4C28.1,33.4,28.1,33.4,28.1,33.3z"/>
	<path class="st3" d="M26.1,34.7C26,34.7,26,34.8,26.1,34.7c-0.1,0-0.2,0.1-0.3,0.1c-0.2,0.1-0.4,0.2-0.6,0.3
		c-0.2,0.1-0.4,0.3-0.5,0.5c-0.1,0.1-0.1,0.1-0.1,0.2c0,0,0,0-0.1,0.1c0,0,0,0,0-0.1c0,0,0.1-0.1,0.1-0.2c0.2-0.2,0.3-0.3,0.5-0.5
		c0.2-0.1,0.4-0.2,0.6-0.3C25.9,34.8,25.9,34.8,26.1,34.7C26,34.7,26,34.7,26.1,34.7z"/>
	<path class="st3" d="M26,34.5C26,34.5,26,34.5,26,34.5c-0.1,0-0.2,0.1-0.3,0.1c-0.2,0.1-0.4,0.2-0.6,0.3c-0.2,0.1-0.4,0.2-0.6,0.3
		c-0.1,0-0.1,0.1-0.2,0.1c0,0,0,0-0.1,0c0,0,0,0,0.1,0c0,0,0.1-0.1,0.2-0.1c0.2-0.1,0.4-0.2,0.6-0.3c0.2-0.1,0.4-0.2,0.7-0.2
		C25.8,34.5,25.9,34.5,26,34.5C26,34.5,26,34.5,26,34.5z"/>
	<path class="st3" d="M28.6,35.9c-0.1-0.1-0.2-0.2-0.3-0.2c-0.1-0.1-0.2-0.1-0.4-0.2c0,0,0.1,0,0.1,0c0.1,0,0.2,0.1,0.3,0.1
		S28.4,35.8,28.6,35.9C28.5,35.9,28.5,35.9,28.6,35.9z"/>
	<path class="st3" d="M23.7,35.9c-0.1-0.1-0.1-0.2-0.2-0.4c0-0.1-0.1-0.3-0.1-0.4c0,0,0.1,0.2,0.1,0.4
		C23.6,35.7,23.7,35.9,23.7,35.9z"/>
	<path class="st3" d="M25.2,37.1c-0.1,0-0.2-0.1-0.4-0.2c-0.1-0.1-0.2-0.1-0.3-0.2c0,0,0.2,0.1,0.4,0.2C25,37,25.2,37.1,25.2,37.1z"
		/>
	<path class="st5" d="M26.1,35.5c0,0,0-0.1,0-0.1c0-0.1-0.1-0.2-0.1-0.3c-0.1-0.2-0.2-0.6-0.3-1c-0.1-0.4-0.2-0.7-0.3-1
		c0-0.1-0.1-0.2-0.1-0.3c0,0,0-0.1,0-0.1c0,0,0,0.1,0,0.1c0,0.1,0.1,0.2,0.1,0.3c0.1,0.2,0.2,0.6,0.3,1c0.1,0.4,0.2,0.7,0.3,1
		c0,0.1,0.1,0.2,0.1,0.3C26.1,35.4,26.1,35.4,26.1,35.5z"/>
	<path class="st5" d="M26.4,35.5c0,0-0.1,0-0.2,0c0,0-0.1,0-0.2,0C26.2,35.5,26.3,35.5,26.4,35.5L26.4,35.5z"/>
	<path class="st5" d="M27.2,32.7c0,0-0.2,0.6-0.4,1.4c-0.2,0.8-0.4,1.4-0.5,1.4s0.2-0.6,0.4-1.4C27,33.3,27.2,32.7,27.2,32.7z"/>
	<path class="st5" d="M24.5,36.4c0,0-0.1-0.3-0.2-0.7c-0.1-0.2-0.1-0.5-0.1-0.7c0,0,0.1,0.3,0.2,0.7S24.6,36.4,24.5,36.4z"/>
	<path d="M28.6,14.6l-0.2,0.7h-0.2L28,14.8l-0.2,0.5h-0.2l-0.2-0.7h0.2l0.2,0.5l0.2-0.5h0.2l0.2,0.5l0.2-0.5H28.6z"/>
	<path d="M28.7,14.6h0.2v0.7h-0.2V14.6z"/>
	<path d="M28.9,15.2l0.1-0.1c0.1,0,0.2,0.1,0.2,0.1c0.1,0,0.1,0,0.1-0.1c0-0.1-0.4,0-0.4-0.3c0-0.1,0.1-0.2,0.3-0.2
		c0.1,0,0.2,0,0.2,0.1l0,0.1c-0.1,0-0.1-0.1-0.2-0.1c-0.1,0-0.1,0-0.1,0.1c0,0.1,0.4,0,0.4,0.3c0,0.1-0.1,0.2-0.3,0.2
		C29.1,15.3,29,15.3,28.9,15.2z"/>
	<path d="M30.3,14.6v0.7h-0.2V15h-0.3v0.3h-0.2v-0.7h0.2v0.3h0.3v-0.3H30.3z"/>
	<path d="M30.6,14.6L30.6,14.6l0,0.7H31l0,0.1h-0.5L30.6,14.6z"/>
	<path d="M31.2,14.6L31.2,14.6l-0.1,0.7h-0.1L31.2,14.6z"/>
	<path d="M31.3,15.2L31.3,15.2c0.1,0,0.2,0,0.3,0c0.1,0,0.2,0,0.2-0.1c0-0.2-0.4-0.1-0.4-0.3c0-0.1,0.1-0.2,0.3-0.2
		c0.1,0,0.2,0,0.2,0.1l0,0.1c-0.1,0-0.1-0.1-0.2-0.1c-0.1,0-0.2,0.1-0.2,0.1c0,0.2,0.4,0.1,0.4,0.3c0,0.1-0.1,0.2-0.3,0.2
		C31.5,15.3,31.4,15.3,31.3,15.2z"/>
	<path d="M32.3,14.6H32l0-0.1h0.6l0,0.1H32.3l0,0.7h-0.1L32.3,14.6z"/>
	<path class="st5" d="M37,14.4c0,0-0.3,0-0.8,0c-0.4,0-0.8,0-0.8,0s0.3,0,0.8,0C36.7,14.4,37,14.4,37,14.4z"/>
	<path class="st5" d="M37,14.8c0,0-0.3,0-0.8,0s-0.8,0-0.8,0s0.3,0,0.8,0S37,14.8,37,14.8z"/>
	<path class="st5" d="M37,15.2c0,0-0.3,0-0.8,0c-0.3,0-0.5,0-0.8,0c0,0,0.3,0,0.8,0C36.5,15.2,36.8,15.2,37,15.2z"/>
</g>
<g id="freepik--Character--inject-25">
	<polygon class="st7" points="25.4,48.7 24.9,52.7 22.8,52.5 23.3,48.5 	"/>
	<path class="st5" d="M23.9,52.4c0,0,0.1-0.9,0.2-1.9c0.2-1.1,0.3-1.9,0.3-1.9s-0.1,0.9-0.2,1.9S23.9,52.4,23.9,52.4z"/>
	<polygon class="st5" points="24.9,52.4 22.8,52.2 22.8,52.5 24.9,52.7 	"/>
	<path class="st5" d="M22.9,51.2C22.9,51.2,23,51.1,22.9,51.2c0.1-0.2,0.2-0.2,0.3-0.3c0.1-0.1,0.2-0.1,0.4-0.2c0.5-0.2,1,0,1.3,0.4
		c0,0.1,0.1,0.2,0.1,0.2c0,0,0,0.1,0,0.1c0-0.1-0.1-0.2-0.2-0.3c-0.2-0.2-0.4-0.4-0.7-0.4c-0.3,0-0.6,0-0.9,0.2
		C23,51.1,22.9,51.2,22.9,51.2z"/>
	<g class="st9">
		<polygon points="25.2,50.3 25.2,50.7 23,50.5 23.1,50.1 		"/>
	</g>
	<polygon class="st7" points="32.3,49 32,53 29.9,52.9 30.1,48.9 	"/>
	<path class="st5" d="M31,52.8c0,0,0-0.9,0.1-2c0.1-1.1,0.2-2,0.2-2s0,0.9-0.1,2C31.1,51.9,31,52.8,31,52.8z"/>
	<polygon class="st5" points="32,52.7 29.9,52.6 29.9,52.9 32,53 	"/>
	<path class="st5" d="M29.9,51.6C29.9,51.6,30,51.6,29.9,51.6c0.1-0.2,0.2-0.2,0.3-0.3c0.1-0.1,0.2-0.2,0.4-0.2
		c0.2-0.1,0.3-0.1,0.5-0.1c0.3,0,0.6,0.2,0.8,0.4c0.1,0.1,0.1,0.2,0.1,0.2c0,0,0,0.1,0,0.1c-0.1-0.1-0.1-0.2-0.2-0.3
		c-0.2-0.2-0.5-0.4-0.8-0.4s-0.6,0.1-0.8,0.3C30,51.5,29.9,51.6,29.9,51.6z"/>
	<g class="st9">
		<polygon points="32.2,50.6 32.1,51 30,50.9 30,50.6 		"/>
	</g>
	<path class="st5" d="M24.2,30.3c-0.1,0-0.3,2.6-0.2,3.5c0.1,0.9,0.1,7.6,0.1,7.6s-0.4,0.3-0.4,0.7c0,0.4-0.8,7.9-0.8,7.9l2.4,0.4
		c0,0,2.2-8.1,2.3-9.3c0.1-1.1,1.6-8.9,1.6-8.9s0.5,7.3,0.5,8.4c0,1.1,0,9.8,0,9.8s1.8,0.3,2.7,0c0,0,0.7-6.5,0.7-8.7v-3.5
		c0,0,0.9-4,1.3-6.1s0-4,0-4l-7.3-1L24.2,30.3z"/>
	<path class="st6" d="M26.1,42.1c-0.3-0.1-0.6-0.1-0.9-0.1c-0.3,0-0.6,0.1-0.9,0.3c0.1-0.1,0.2-0.1,0.2-0.1c0.4-0.2,0.9-0.2,1.3-0.1
		C25.9,42,26,42,26.1,42.1z"/>
	<path class="st6" d="M26.3,41.4c-0.2,0-0.5,0-0.7,0c-0.2,0-0.5,0-0.7-0.1c0.2,0,0.5,0,0.7,0C25.8,41.4,26,41.4,26.3,41.4z"/>
	<path class="st6" d="M31.3,42.9C31.3,42.9,31.2,42.9,31.3,42.9c-0.1-0.1-0.2-0.2-0.2-0.2c-0.4-0.4-0.6-1-0.6-1.6c0-0.1,0-0.2,0-0.2
		c0,0,0-0.1,0-0.1c0,0,0,0.1,0,0.3c0.1,0.6,0.3,1.1,0.6,1.5C31.2,42.9,31.3,42.9,31.3,42.9z"/>
	<path class="st6" d="M29.3,32.1C29.3,32.1,29.3,32.1,29.3,32.1l-0.2,0.2c0,0-0.1,0.1-0.1,0.1c-0.3,0.2-0.6,0.3-0.9,0.4
		c-0.3,0.1-0.7,0.1-1,0.1c0,0-0.1,0-0.1,0l-0.1,0c0,0-0.1,0-0.1,0c0,0-0.1,0-0.1-0.1c0.1,0,0.3,0.1,0.4,0.1c0.3,0,0.7,0,1-0.1
		c0.3-0.1,0.6-0.2,0.9-0.4c0,0,0.1-0.1,0.1-0.1L29.3,32.1C29.2,32.1,29.3,32.1,29.3,32.1z"/>
	<path class="st10" d="M38.2,11.6c0-0.4,0.1-0.7,0.2-1c0.2-0.5,1-1.3,1-1.3s1-0.8,1.1-0.8c0.1,0,0.1,0.2,0,0.3
		c-0.1,0.1-0.7,0.8-0.7,0.8s0.2,0.1,0.2,0.2c0,0.1,0,0.2,0,0.2c0,0,0.2,0.1,0.3,0.2c0,0.1,0,0.2,0,0.2c0.1,0,0.1,0.1,0.1,0.2
		c0,0.1,0,0.2,0,0.3c0,0-0.4,0.4-0.5,0.5c-0.2,0.1-0.4,0.1-0.4,0.1l-0.1,0.2v0.5L38.2,11.6z"/>
	<path class="st6" d="M22.6,15.5c0,0-3.7,6.6-3.7,7.6c0,1.8,5.1,3.3,5.1,3.3l0.7-2.1l-2.6-1.8l1.9-4.2L22.6,15.5z"/>
	<path class="st6" d="M22.6,15.5c0.5-0.4,1.1-0.6,1.7-0.7c1-0.1,2.8-0.2,2.8-0.2s4.9-1.1,5.2-0.9c0.4,0.2,0.9,1.5,0.9,2.1
		c0.1,0.6-0.4,6.5-0.4,6.5s2.2,6.8,2,7c-0.1,0.1-2.7,1-5.4,1.2l-0.1-2L29,30.5c-2.5,0.2-5.3,0.3-5.3,0.3s1.9-6.7,1.9-6.9
		C25.5,23.7,22.3,16.2,22.6,15.5z"/>
	<path class="st6" d="M32.3,13.8c0,0,1.8,1,2,1c0.2,0,0.4-0.4,0.7-0.1l1.6-0.3l1.6-2.9c0.6,0.2,1.1,0.5,1.6,1c0,0-0.9,3-1.4,3.5
		c-0.5,0.5-2.6,2-5.5,2l-0.4-2.4L32.3,13.8z"/>
	<path class="st5" d="M34.1,17.3c0,0,0.1-0.1,0.2-0.4c0.1-0.1,0.1-0.3,0.1-0.4c0-0.2,0.1-0.3,0.1-0.5c0-0.2,0-0.3,0-0.5
		c0-0.1,0-0.3-0.1-0.4c-0.1-0.2-0.1-0.4-0.1-0.4c0,0,0,0.1,0.1,0.1c0,0.1,0.1,0.2,0.1,0.3c0,0.1,0.1,0.3,0.1,0.4c0,0.2,0,0.4,0,0.5
		c0,0.2,0,0.4-0.1,0.5c0,0.1-0.1,0.3-0.2,0.4C34.3,17.1,34.2,17.2,34.1,17.3C34.1,17.3,34.1,17.3,34.1,17.3z"/>
	<path class="st5" d="M37.2,15.1c-0.3-0.1-0.5-0.3-0.7-0.6c0.1,0.1,0.2,0.2,0.3,0.3C37,14.8,37.1,14.9,37.2,15.1z"/>
	<path class="st10" d="M24,26.3c0,0,0.1,0.3,0.5,0c0,0,0.6-0.1,0.9-0.4s0.4-0.5,0.6-0.5s0.8-0.1,0.8-0.1c0,0,0.2-0.3,0-0.4
		c-0.2-0.1-1.1,0-1.1,0l-0.2,0l0-0.3l0-0.3c0,0-0.5,0.2-0.5,0.3c0,0-0.4-0.1-0.4,0.1L24,26.3z"/>
	<path class="st5" d="M24.3,20.7c0,0,0-0.1-0.1-0.1c0-0.1-0.1-0.2-0.2-0.4c-0.1-0.3-0.3-0.7-0.5-1.2c-0.2-0.5-0.3-0.9-0.4-1.2
		c0-0.2-0.1-0.3-0.1-0.4c0,0,0-0.1,0-0.1c0,0,0,0.1,0,0.1l0.1,0.4c0.1,0.3,0.2,0.7,0.4,1.2s0.3,0.9,0.4,1.2l0.1,0.4
		C24.3,20.6,24.3,20.7,24.3,20.7z"/>
	<path class="st5" d="M30.3,24.1c0,0,0,0.1-0.1,0.2c-0.1,0.1-0.2,0.2-0.3,0.4c-0.3,0.4-0.7,0.8-1.1,1.1c-0.4,0.3-0.8,0.6-1.3,0.8
		c-0.2,0.1-0.3,0.2-0.4,0.2c0,0-0.1,0-0.2,0.1c0,0,0.1-0.1,0.2-0.1c0.1,0,0.2-0.1,0.4-0.2c0.9-0.5,1.7-1.1,2.4-2
		c0.1-0.2,0.2-0.3,0.3-0.4C30.3,24.2,30.3,24.2,30.3,24.1z"/>
	<path class="st5" d="M22.2,22.5c0,0-0.3,0.1-0.6,0.2S21,23,21,22.9c0.2-0.1,0.4-0.2,0.6-0.3C21.8,22.5,22,22.5,22.2,22.5z"/>
	<g class="st9">
		<path d="M23.6,19.1c-0.4-0.2-0.8-0.7-0.8-1.1c-0.1-0.4,0.1-0.9,0.1-1.3C23.1,17.5,23.4,18.3,23.6,19.1"/>
	</g>
	<g class="st9">
		<path d="M27.4,27.3c1.3,0.4,2.7-0.3,3.1-1.5c0-0.1,0.1-0.2,0.1-0.3C29.6,26.1,28.5,26.8,27.4,27.3z"/>
	</g>
	<path class="st5" d="M33.1,15.2c0,0,0,0.1,0,0.1c0,0.1,0,0.2,0.1,0.4c0.1,0.8,0.1,1.6-0.1,2.3c0,0.1,0,0.3-0.1,0.3c0,0,0,0.1,0,0.1
		c0,0,0-0.2,0.1-0.5c0.1-0.8,0.1-1.6,0-2.3C33.1,15.4,33.1,15.2,33.1,15.2z"/>
	<g class="st9">
		<path d="M31.1,13.1l-5.7,8.8c1.4,0.7,3.1,1,4.4,0.2c0.4,0.5,1.1,0.3,1.5-0.2s0.4-1.1,0.4-1.7C31.8,17.9,31.4,15.5,31.1,13.1z"/>
	</g>
	<path class="st5" d="M28.8,6.9c-0.6-0.1-1.2,0.2-1.7,0.6s-0.8,1-1,1.6c-0.5,1.1-0.7,2.3-1,3.5c-0.4,1.7-0.8,3.5-0.9,5.3
		s0.4,2.8,1.2,4.5l2.7-0.4v-0.5l0.4,0.5l1.1-0.2c0,0,0.3-2.8,0.3-2.8s0.5,2.6,0.5,2.6l0.9-0.1c0.9-3.5-0.1-5.8,0.4-9.3
		c0.1-0.8,0.3-1.7,0.3-2.5S31.6,7.9,31,7.3C30.4,6.6,29.4,6.4,28.8,6.9"/>
	<path class="st6" d="M29.5,21.7C29.5,21.6,29.4,21.6,29.5,21.7c0-0.1,0-0.1,0-0.2l-0.1-0.5c-0.1-0.4-0.2-1-0.2-1.7
		c-0.1-0.8-0.2-1.7-0.1-2.5c0-0.5,0-1,0.1-1.5c0.1-0.5,0.2-1,0.3-1.6c0.3-1,0.7-2,0.9-2.9c0.1-0.4,0.2-0.9,0.2-1.3
		c0-0.4-0.1-0.8-0.2-1.1c-0.1-0.3-0.2-0.6-0.4-0.8c-0.1-0.2-0.3-0.4-0.5-0.5C29.2,7,29.1,6.9,29,6.8l-0.1,0c0,0,0,0,0,0l0,0l0.1,0
		c0.1,0.1,0.3,0.1,0.4,0.2c0.2,0.1,0.4,0.3,0.5,0.5c0.2,0.3,0.3,0.5,0.4,0.9c0.1,0.4,0.2,0.8,0.2,1.2c0,0.5-0.1,0.9-0.2,1.3
		c-0.2,0.9-0.6,1.9-0.9,2.9c-0.1,0.5-0.2,1-0.3,1.6c-0.1,0.5-0.1,1-0.1,1.5c0,0.8,0,1.7,0.1,2.5c0.1,0.7,0.2,1.3,0.2,1.7
		c0,0.2,0,0.3,0.1,0.5C29.4,21.6,29.4,21.6,29.5,21.7C29.5,21.6,29.5,21.6,29.5,21.7z"/>
	<path class="st6" d="M25.7,19.9C25.7,19.9,25.7,19.8,25.7,19.9c0-0.1,0-0.1,0-0.1l0-0.4c0-0.1,0-0.2,0-0.3c0-0.1,0-0.2,0-0.3
		c0-0.2,0-0.5,0-0.8c0-0.1,0-0.3,0-0.5c0-0.2,0-0.3,0-0.5c0-0.3,0-0.7,0-1.1c0.1-0.8,0.2-1.7,0.3-2.5c0.2-0.8,0.4-1.6,0.6-2.4
		c0.1-0.4,0.2-0.7,0.4-1C26.9,9.8,27,9.6,27,9.5l0.2-0.4c0.1-0.3,0.2-0.5,0.3-0.7c0-0.1,0.1-0.2,0.1-0.3l0.1-0.2
		c0.1-0.1,0.1-0.2,0.2-0.3l0-0.1c0,0,0,0,0,0c0,0,0,0,0,0c0,0,0,0,0,0.1c0,0.1-0.1,0.2-0.2,0.3c0,0.1-0.1,0.2-0.1,0.2
		c0,0.1-0.1,0.2-0.1,0.3c-0.1,0.2-0.2,0.5-0.3,0.7c-0.1,0.1-0.1,0.3-0.2,0.4C27,9.7,27,9.8,26.9,10c-0.1,0.3-0.2,0.7-0.4,1
		c-0.2,0.8-0.4,1.6-0.6,2.4c-0.2,0.8-0.3,1.7-0.3,2.5c0,0.4,0,0.8-0.1,1.1c0,0.2,0,0.3,0,0.5s0,0.3,0,0.5c0,0.3,0,0.6,0,0.8
		c0,0.1,0,0.2,0,0.3c0,0.1,0,0.2,0,0.3c0,0.2,0,0.3,0,0.4C25.6,19.8,25.6,19.8,25.7,19.9C25.6,19.8,25.6,19.9,25.7,19.9z"/>
	<path class="st6" d="M27.1,22C27.1,22,27.1,21.9,27.1,22c0-0.1,0-0.1,0-0.1c0-0.1-0.1-0.2-0.1-0.4c0-0.1,0-0.2-0.1-0.3
		c0-0.1,0-0.2-0.1-0.3c0-0.2-0.1-0.5-0.2-0.8c0-0.2-0.1-0.3-0.1-0.5s0-0.3-0.1-0.5s-0.1-0.4-0.1-0.6c0-0.2,0-0.4,0-0.6
		c-0.1-0.9,0-1.8,0-2.6c0.1-0.9,0.2-1.8,0.4-2.6c0-0.2,0.1-0.4,0.1-0.6c0-0.2,0.1-0.4,0.1-0.5c0.1-0.3,0.2-0.7,0.3-1
		s0.2-0.5,0.3-0.8c0.1-0.2,0.2-0.4,0.2-0.6L28,8.8l0-0.1c0,0,0,0,0,0c0,0,0,0,0,0l0,0.1c0,0.1-0.1,0.2-0.1,0.4s-0.1,0.4-0.2,0.6
		s-0.2,0.5-0.3,0.8c-0.1,0.3-0.2,0.6-0.3,1c0,0.2-0.1,0.4-0.1,0.5l-0.1,0.6c-0.2,0.9-0.3,1.7-0.4,2.6c-0.1,0.9-0.1,1.8,0,2.6
		c0,0.2,0,0.4,0,0.6c0,0.2,0,0.4,0.1,0.5s0,0.3,0.1,0.5c0,0.2,0.1,0.3,0.1,0.5c0,0.3,0.1,0.6,0.2,0.8c0,0.1,0,0.2,0.1,0.3
		c0,0.1,0,0.2,0.1,0.3l0.1,0.4C27.1,21.8,27.1,21.9,27.1,22C27.1,21.9,27.1,21.9,27.1,22z"/>
	<path class="st6" d="M30.9,20.3C30.9,20.3,30.9,20.3,30.9,20.3c0-0.1,0-0.1-0.1-0.1L30.8,20c0-0.1-0.1-0.1-0.1-0.2
		c-0.2-0.5-0.4-1-0.4-1.5c-0.2-1.2-0.2-2.5,0.1-3.8c0.1-0.5,0.3-1,0.4-1.5c0.2-0.5,0.3-1,0.4-1.5c0.1-0.5,0.2-0.9,0.2-1.4
		c0-0.4,0-0.8-0.1-1.3c-0.1-0.4-0.2-0.7-0.4-1c-0.3-0.5-0.7-0.8-1.2-1c-0.1-0.1-0.3-0.1-0.4-0.1l-0.1,0c0,0,0,0,0,0c0,0,0,0,0,0
		l0.1,0c0.1,0,0.3,0.1,0.4,0.1c0.5,0.2,0.9,0.6,1.2,1c0.2,0.3,0.4,0.7,0.4,1c0.1,0.4,0.2,0.8,0.1,1.3c0,0.5-0.1,0.9-0.2,1.4
		c-0.1,0.5-0.2,1-0.4,1.5s-0.3,1-0.4,1.5c-0.1,0.5-0.2,0.9-0.2,1.4c-0.1,1.3,0.1,2.7,0.6,3.9c0,0.1,0.1,0.2,0.1,0.2l0.1,0.2
		L30.9,20.3C30.9,20.2,30.9,20.3,30.9,20.3z"/>
</g>
<g id="freepik--Floor--inject-25">
	<path class="st5" d="M54.5,29.8c0,0-11.1,0-24.8,0s-24.8,0-24.8,0s11.1,0,24.8,0S54.5,29.8,54.5,29.8z"/>
</g>
<rect x="-1.6" y="-1.6" class="st11" width="62.7" height="62.7"/>
<g>
	<path d="M9.4,34.9c-0.5,0-1.1-0.1-1.6-0.3c-0.5-0.2-1-0.5-1.4-0.9c-0.4-0.4-0.8-1-1-1.8C5.1,31.1,5,30.2,5,29.1
		c0-1.1,0.1-2,0.3-2.8c0.2-0.8,0.5-1.5,0.9-2.1c0.4-0.6,0.9-1,1.4-1.3s1.2-0.4,1.9-0.4c0.7,0,1.4,0.1,1.9,0.4c0.6,0.3,1,0.7,1.4,1.2
		c0.3,0.5,0.6,1.1,0.7,1.7h-1.8c-0.1-0.5-0.4-0.9-0.7-1.2c-0.4-0.3-0.8-0.5-1.4-0.5c-0.9,0-1.6,0.4-2.1,1.2C7,26,6.7,27.1,6.7,28.5
		h0.1c0.2-0.3,0.5-0.6,0.8-0.9c0.3-0.2,0.6-0.4,1-0.6c0.4-0.1,0.8-0.2,1.2-0.2c0.7,0,1.3,0.2,1.9,0.5c0.6,0.3,1,0.8,1.4,1.4
		c0.3,0.6,0.5,1.3,0.5,2c0,0.8-0.2,1.5-0.5,2.1c-0.3,0.6-0.8,1.1-1.5,1.5C10.9,34.7,10.2,34.9,9.4,34.9z M9.4,33.4
		c0.5,0,0.9-0.1,1.2-0.3s0.7-0.5,0.9-0.9c0.2-0.4,0.3-0.8,0.3-1.3c0-0.5-0.1-0.9-0.3-1.3s-0.5-0.7-0.8-0.9c-0.4-0.2-0.8-0.3-1.2-0.3
		c-0.3,0-0.7,0.1-1,0.2c-0.3,0.1-0.6,0.3-0.8,0.6c-0.2,0.2-0.4,0.5-0.5,0.8c-0.1,0.3-0.2,0.6-0.2,1c0,0.4,0.1,0.9,0.3,1.2
		c0.2,0.4,0.5,0.7,0.9,0.9C8.5,33.2,8.9,33.4,9.4,33.4z"/>
	<path d="M19.8,34.9c-0.9,0-1.7-0.2-2.4-0.7c-0.7-0.5-1.2-1.2-1.5-2.1c-0.3-0.9-0.5-2-0.5-3.3c0-1.3,0.2-2.4,0.5-3.3
		c0.4-0.9,0.9-1.6,1.5-2.1c0.7-0.5,1.4-0.7,2.4-0.7c0.9,0,1.7,0.2,2.4,0.7c0.7,0.5,1.2,1.2,1.5,2.1c0.3,0.9,0.5,2,0.5,3.3
		c0,1.3-0.2,2.4-0.5,3.4c-0.3,0.9-0.8,1.6-1.5,2.1C21.6,34.7,20.8,34.9,19.8,34.9z M19.8,33.3c0.8,0,1.4-0.4,1.9-1.2
		c0.5-0.8,0.7-1.9,0.7-3.4c0-1-0.1-1.8-0.3-2.5c-0.2-0.7-0.5-1.2-0.9-1.6c-0.4-0.4-0.9-0.5-1.4-0.5c-0.8,0-1.4,0.4-1.9,1.2
		c-0.5,0.8-0.7,1.9-0.7,3.4c0,1,0.1,1.8,0.3,2.5c0.2,0.7,0.5,1.2,0.9,1.6C18.8,33.2,19.3,33.3,19.8,33.3z"/>
	<path d="M27.7,25.7l2,3.5l2-3.5h1.9l-2.8,4.5l2.8,4.5h-1.9l-2-3.4l-2,3.4h-1.9l2.8-4.5l-2.8-4.5H27.7z"/>
	<path d="M39.6,34.9c-0.5,0-1.1-0.1-1.6-0.3c-0.5-0.2-1-0.5-1.4-0.9c-0.4-0.4-0.8-1-1-1.8c-0.3-0.7-0.4-1.7-0.4-2.8
		c0-1.1,0.1-2,0.3-2.8c0.2-0.8,0.5-1.5,0.9-2.1c0.4-0.6,0.9-1,1.4-1.3s1.2-0.4,1.9-0.4c0.7,0,1.4,0.1,1.9,0.4c0.6,0.3,1,0.7,1.4,1.2
		c0.3,0.5,0.6,1.1,0.7,1.7h-1.8c-0.1-0.5-0.4-0.9-0.7-1.2c-0.4-0.3-0.8-0.5-1.4-0.5c-0.9,0-1.6,0.4-2.1,1.2C37.2,26,37,27.1,37,28.5
		h0.1c0.2-0.3,0.5-0.6,0.8-0.9c0.3-0.2,0.6-0.4,1-0.6c0.4-0.1,0.8-0.2,1.2-0.2c0.7,0,1.3,0.2,1.9,0.5c0.6,0.3,1,0.8,1.4,1.4
		c0.3,0.6,0.5,1.3,0.5,2c0,0.8-0.2,1.5-0.5,2.1c-0.3,0.6-0.8,1.1-1.5,1.5C41.2,34.7,40.5,34.9,39.6,34.9z M39.6,33.4
		c0.5,0,0.9-0.1,1.2-0.3s0.7-0.5,0.9-0.9c0.2-0.4,0.3-0.8,0.3-1.3c0-0.5-0.1-0.9-0.3-1.3c-0.2-0.4-0.5-0.7-0.8-0.9
		c-0.4-0.2-0.8-0.3-1.2-0.3c-0.3,0-0.7,0.1-1,0.2c-0.3,0.1-0.6,0.3-0.8,0.6s-0.4,0.5-0.5,0.8c-0.1,0.3-0.2,0.6-0.2,1
		c0,0.4,0.1,0.9,0.3,1.2c0.2,0.4,0.5,0.7,0.9,0.9S39.2,33.4,39.6,33.4z"/>
	<path d="M50.1,34.9c-0.9,0-1.7-0.2-2.4-0.7c-0.7-0.5-1.2-1.2-1.5-2.1c-0.3-0.9-0.5-2-0.5-3.3c0-1.3,0.2-2.4,0.5-3.3
		c0.4-0.9,0.9-1.6,1.5-2.1c0.7-0.5,1.4-0.7,2.4-0.7c0.9,0,1.7,0.2,2.4,0.7c0.7,0.5,1.2,1.2,1.5,2.1c0.3,0.9,0.5,2,0.5,3.3
		c0,1.3-0.2,2.4-0.5,3.4c-0.3,0.9-0.8,1.6-1.5,2.1C51.8,34.7,51,34.9,50.1,34.9z M50.1,33.3c0.8,0,1.4-0.4,1.9-1.2
		c0.5-0.8,0.7-1.9,0.7-3.4c0-1-0.1-1.8-0.3-2.5c-0.2-0.7-0.5-1.2-0.9-1.6c-0.4-0.4-0.9-0.5-1.4-0.5c-0.8,0-1.4,0.4-1.9,1.2
		c-0.5,0.8-0.7,1.9-0.7,3.4c0,1,0.1,1.8,0.3,2.5c0.2,0.7,0.5,1.2,0.9,1.6C49.1,33.2,49.6,33.3,50.1,33.3z"/>
</g>
</svg>
