<?xml version="1.0" encoding="utf-8"?><svg viewBox="0 0 100 100" xmlns="http://www.w3.org/2000/svg" width="200px" height="200px" xmlns:xlink="http://www.w3.org/1999/xlink" style="width:100%;height:100%;background-color:rgb(255, 255, 255);animation-play-state:paused" ><g class="ldl-scale" style="transform-origin:50% 50% 0px;transform:rotate(0deg) scale(0.8);animation-play-state:paused" ><path stroke-miterlimit="10" stroke-linejoin="round" stroke-linecap="round" stroke-width="3" stroke="#323232" fill="none" d="M44.04 88.346l.229-3.321a2.354 2.354 0 0 0-.649-1.539l-6.09-6.387a2.354 2.354 0 0 0-1.704-.73h-3.629a1.661 1.661 0 0 1-1.661-1.661v-2.613a6.166 6.166 0 0 0 3.537-5.575v-6.3a6.117 6.117 0 0 0-6.117-6.117h-4.142a6.117 6.117 0 0 0-6.117 6.117v6.3a6.166 6.166 0 0 0 3.537 5.575v2.613c0 .917-.744 1.661-1.661 1.661h-3.629c-.644 0-1.26.264-1.704.73l-6.09 6.387a2.35 2.35 0 0 0-.65 1.539l.229 3.321" style="stroke:rgb(50, 50, 50);animation-play-state:paused" ></path>
<path stroke-miterlimit="10" stroke-linejoin="round" stroke-linecap="round" stroke-width="3" stroke="#323232" fill="none" d="M83.626 11.654H43.599a8.874 8.874 0 0 0-8.874 8.874v22.467a8.874 8.874 0 0 0 8.874 8.874h3.469l-2.521 12.745 10.924-12.745h28.154a8.874 8.874 0 0 0 8.874-8.874V20.528a8.872 8.872 0 0 0-8.873-8.874z" style="stroke:rgb(50, 50, 50);animation-play-state:paused" ></path>
<metadata xmlns:d="https://loading.io/stock/" style="animation-play-state:paused" ><d:name style="animation-play-state:paused" >discuss</d:name>


<d:tags style="animation-play-state:paused" >discuss,comment,support,customer service,contact,speak,talk,say,opinion</d:tags>


<d:license style="animation-play-state:paused" >by</d:license>


<d:slug style="animation-play-state:paused" >jkez43</d:slug></metadata></g><!-- generated by https://loading.io/ --></svg>