<?xml version="1.0" encoding="utf-8"?>
<!-- Generator: Adobe Illustrator 26.1.0, SVG Export Plug-In . SVG Version: 6.00 Build 0)  -->
<svg version="1.1" id="Layer_1" xmlns="http://www.w3.org/2000/svg" xmlns:xlink="http://www.w3.org/1999/xlink" x="0px" y="0px"
	 viewBox="0 0 526 314" style="enable-background:new 0 0 526 314;" xml:space="preserve">
<style type="text/css">
	.st0{fill:#EBEBEB;}
	.st1{fill:#F5F5F5;}
	.st2{fill:#E0E0E0;}
	.st3{fill:#FFFFFF;}
	.st4{fill:#FAFAFA;}
	.st5{fill:#263238;}
	.st6{fill:#455A64;}
	.st7{fill:#FF6A27;}
	.st8{opacity:0.2;}
	.st9{opacity:0.3;}
	.st10{fill:#FFBE9D;}
	.st11{fill:#FFE6E6;}
	.st12{enable-background:new    ;}
</style>
<g id="freepik--background-complete--inject-25">
	<path class="st0" d="M284.7,136.9c-0.1-0.6-0.5-1.1-0.9-1.5c-0.4-0.4-1-0.7-1.6-0.8c-1-0.1-2,0.5-2.4,1.4c-0.2-0.3-0.4-0.5-0.7-0.7
		c-0.6-0.3-1.2-0.4-1.8-0.2c-0.6,0.2-1,0.6-1.4,1.1c-0.4,0.6-0.6,1.2-0.6,1.8c0,0.8,0.2,1.5,0.7,2.2c0.5,0.6,1.2,1.1,1.9,1.5
		c1.2,0.6,2.8,1.3,2.8,1.3s1.2-1.1,2.2-1.9c0.6-0.5,1.2-1.1,1.6-1.8C284.8,138.5,284.8,137.7,284.7,136.9z"/>
	<path class="st0" d="M289.9,132.1c0-0.4-0.1-0.7-0.3-1c-0.2-0.3-0.4-0.5-0.8-0.7c-0.5-0.2-1.1,0-1.5,0.5c-0.2-0.5-0.7-0.9-1.3-0.9
		c-0.3,0-0.7,0.2-0.9,0.4c-0.3,0.2-0.5,0.5-0.6,0.9c-0.1,0.4-0.1,0.9,0,1.3c0.2,0.4,0.5,0.8,0.9,1.1c0.6,0.5,1.4,1.2,1.4,1.2
		s0.8-0.4,1.6-0.7c0.4-0.2,0.9-0.4,1.2-0.8C289.7,133,289.9,132.6,289.9,132.1z"/>
	<path class="st0" d="M288.3,144.3c-0.1-0.2-0.2-0.5-0.4-0.7c-0.2-0.2-0.4-0.3-0.7-0.3c-0.4,0-0.9,0.2-1,0.6
		c-0.2-0.3-0.7-0.5-1.1-0.4c-0.2,0.1-0.4,0.2-0.6,0.5c-0.2,0.2-0.2,0.5-0.3,0.7c0,0.3,0.1,0.7,0.3,0.9c0.2,0.3,0.5,0.5,0.8,0.6
		c0.5,0.3,1.2,0.6,1.2,0.6s0.5-0.5,1-0.8c0.3-0.2,0.5-0.5,0.7-0.8C288.3,145,288.4,144.7,288.3,144.3z"/>
	<rect x="240.1" y="168.7" class="st1" width="19.2" height="8.9"/>
	<path class="st2" d="M258.9,177.2h-18.3v-8h18.3V177.2L258.9,177.2z M240.7,177.1h18.1v-7.8h-18.1V177.1z"/>
	<rect x="259.3" y="168.7" class="st2" width="4.7" height="8.9"/>
	<path class="st2" d="M240.6,171.7h18.2l0,0l0,0H240.6C240.6,171.6,240.6,171.6,240.6,171.7L240.6,171.7z"/>
	<path class="st2" d="M249.8,171.6c0-0.8,0.1-1.6,0-2.4l0,0l0,0C249.7,170,249.7,170.8,249.8,171.6L249.8,171.6L249.8,171.6z"/>
	<path class="st2" d="M254.7,170.4c0,0.1-0.1,0.2-0.2,0.2c-0.1,0-0.2-0.1-0.2-0.2c0-0.1,0.1-0.2,0.2-0.2
		C254.6,170.2,254.7,170.3,254.7,170.4L254.7,170.4z"/>
	<path class="st2" d="M245.1,170.4c0,0.1-0.1,0.2-0.2,0.2c-0.1,0-0.2-0.1-0.2-0.2c0-0.1,0.1-0.2,0.2-0.2S245.1,170.3,245.1,170.4
		L245.1,170.4z"/>
	<path class="st2" d="M250,173.2c0,0.1-0.1,0.2-0.2,0.2c-0.1,0-0.2-0.1-0.2-0.2c0-0.1,0.1-0.2,0.2-0.2l0,0
		C249.9,172.9,250,173.1,250,173.2z"/>
	<polygon class="st2" points="242.4,177.6 241.5,183.2 242,183.2 243.8,177.6 	"/>
	<polygon class="st2" points="258,177.6 258.8,183.2 258.3,183.2 256.6,177.6 	"/>
	<polygon class="st2" points="261.7,177.6 262.6,183.2 262.1,183.2 260.3,177.6 	"/>
	<path class="st2" d="M250,175.7c0,0.1-0.1,0.2-0.2,0.2c-0.1,0-0.2-0.1-0.2-0.2c0-0.1,0.1-0.2,0.2-0.2l0,0
		C249.9,175.5,250,175.6,250,175.7z"/>
	<path class="st2" d="M240.6,174.4h18.2l0,0l0,0H240.6L240.6,174.4L240.6,174.4z"/>
	
		<rect x="247.7" y="164.5" transform="matrix(1 -5.266965e-03 5.266965e-03 1 -0.8661 1.3222)" class="st2" width="5.8" height="1.2"/>
	
		<rect x="247.8" y="166.9" transform="matrix(1 -5.266965e-03 5.266965e-03 1 -0.8803 1.3246)" class="st1" width="6.5" height="1.8"/>
	<path class="st2" d="M253,168.7c0-0.3,0-0.6,0-0.9s0-0.6,0-0.9c0,0.3,0,0.6,0,0.9C253,168.1,253,168.4,253,168.7z"/>
	<path class="st2" d="M253.3,168.7c0-0.3,0-0.6,0-0.9s0-0.6,0-0.9c0,0.3,0,0.6,0,0.9C253.3,168.1,253.3,168.4,253.3,168.7z"/>
	<path class="st2" d="M248.8,168.7c0-0.3,0-0.6,0-0.9s0-0.6,0-0.9c0,0.3,0,0.6,0,0.9C248.8,168.1,248.8,168.4,248.8,168.7z"/>
	<path class="st2" d="M249,168.7c0-0.3,0-0.6,0-0.9s0-0.6,0-0.9c0,0.3,0,0.6,0,0.9C249.1,168.1,249.1,168.4,249,168.7z"/>
	<path class="st2" d="M249.6,167.8c0,0,0.7,0,1.5,0s1.5,0,1.5,0s-0.7,0-1.5,0S249.6,167.8,249.6,167.8z"/>
	
		<rect x="248.7" y="165.7" transform="matrix(1 -5.266965e-03 5.266965e-03 1 -0.8724 1.3333)" class="st0" width="8" height="1.2"/>
	<path class="st2" d="M255.5,166.7c-0.2,0-0.4-0.2-0.4-0.4s0.2-0.4,0.4-0.4s0.4,0.2,0.4,0.4l0,0
		C255.9,166.5,255.7,166.7,255.5,166.7L255.5,166.7z"/>
	<rect x="249.2" y="166.2" class="st2" width="5.3" height="0.2"/>
	<rect x="242" y="130.4" class="st2" width="11.5" height="16.7"/>
	<rect x="241.4" y="130.4" class="st1" width="11.5" height="16.7"/>
	<rect x="242.8" y="132.2" class="st3" width="8.6" height="13.1"/>
	<path class="st2" d="M251.4,145.3L251.4,145.3c0-0.1,0-0.2,0-0.3c0-0.2,0-0.4,0-0.7c0-0.6,0-1.5,0-2.7c0-2.3,0-5.6,0-9.4l0,0h-8.6
		l0,0l0,0c0,4.9,0,9.5,0,13.1l0,0h6.3h1.7h0.5C251.4,145.3,251.4,145.3,251.4,145.3h-0.1h-0.4h-1.7h-6.3l0,0l0,0c0-3.6,0-8.2,0-13.1
		l0,0l0,0h8.6l0,0l0,0c0,3.9,0,7.1,0,9.5c0,1.2,0,2.1,0,2.7c0,0.3,0,0.5,0,0.7C251.4,145.1,251.4,145.1,251.4,145.3
		C251.4,145.2,251.4,145.3,251.4,145.3z"/>
	<path class="st2" d="M252.9,130.4c-0.1,0.1-0.1,0.2-0.2,0.3c-0.1,0.2-0.3,0.4-0.5,0.7c-0.2,0.3-0.4,0.5-0.6,0.7
		c-0.1,0.1-0.2,0.2-0.2,0.3c0.1-0.1,0.1-0.2,0.2-0.3l0.6-0.7c0.1-0.3,0.3-0.6,0.5-0.8C252.7,130.5,252.8,130.4,252.9,130.4z"/>
	<path class="st3" d="M251.5,145.2c0.4,0.7,0.9,1.3,1.5,1.9"/>
	<path class="st2" d="M253,147.1c-0.1-0.1-0.2-0.2-0.3-0.2c-0.4-0.4-0.8-0.9-1.1-1.3c-0.1-0.1-0.1-0.2-0.2-0.3
		c0.1,0.1,0.2,0.2,0.2,0.3c0.1,0.2,0.3,0.4,0.5,0.7s0.4,0.5,0.5,0.7C252.8,146.9,252.9,147,253,147.1z"/>
	<path class="st3" d="M241.4,147.1l1.5-1.9"/>
	<path class="st2" d="M242.9,145.2c-0.2,0.3-0.5,0.6-0.7,1c-0.2,0.3-0.5,0.6-0.8,0.9c0.2-0.3,0.5-0.6,0.7-1
		C242.4,145.8,242.6,145.5,242.9,145.2z"/>
	<path class="st2" d="M241.4,130.4c0.3,0.3,0.5,0.6,0.7,0.9c0.3,0.2,0.5,0.5,0.7,0.9c-0.3-0.3-0.5-0.6-0.7-0.9
		C241.8,131,241.6,130.7,241.4,130.4z"/>
	<rect x="245.9" y="134.8" class="st2" width="2.9" height="8.2"/>
	<rect x="279.7" y="149.2" class="st2" width="8.3" height="8.7"/>
	<rect x="279.1" y="149.2" class="st4" width="8.3" height="8.7"/>
	<path class="st2" d="M287.5,157.9h-8.3v-8.7h8.3V157.9z M279.1,157.9h8.3v-8.7h-8.3V157.9z"/>
	<rect x="280.3" y="150.4" class="st3" width="6.1" height="6.4"/>
	<path class="st2" d="M280.3,156.8c0,0.1-0.1,0.1-0.2,0.2c-0.1,0.1-0.2,0.2-0.4,0.4s-0.3,0.3-0.4,0.4c0,0.1-0.1,0.1-0.2,0.1
		c0-0.1,0.1-0.1,0.2-0.2s0.2-0.2,0.4-0.4s0.3-0.3,0.4-0.4C280.1,156.9,280.2,156.9,280.3,156.8z"/>
	<path class="st2" d="M286.4,156.8c0.1,0,0.1,0.1,0.2,0.2c0.1,0.1,0.2,0.2,0.4,0.4c0.2,0.2,0.3,0.3,0.4,0.4c0.1,0,0.1,0.1,0.1,0.2
		c-0.1-0.1-0.2-0.2-0.2-0.2c-0.1-0.1-0.2-0.2-0.4-0.4s-0.3-0.3-0.4-0.4C286.4,156.9,286.4,156.9,286.4,156.8z"/>
	<path class="st2" d="M286.3,150.4c0-0.1,0.1-0.1,0.2-0.2c0.1-0.1,0.2-0.2,0.4-0.4s0.3-0.3,0.4-0.4c0-0.1,0.1-0.1,0.2-0.1
		c0,0.1-0.1,0.1-0.2,0.2c-0.1,0.1-0.2,0.2-0.4,0.4s-0.3,0.3-0.4,0.4C286.5,150.3,286.4,150.4,286.3,150.4z"/>
	<path class="st2" d="M280.2,150.4c-0.1,0-0.1-0.1-0.2-0.2c-0.1-0.1-0.2-0.2-0.4-0.4s-0.3-0.3-0.4-0.4c-0.1,0-0.1-0.1-0.1-0.2
		c0.1,0,0.1,0.1,0.2,0.2c0.1,0.1,0.2,0.2,0.4,0.4c0.2,0.2,0.3,0.3,0.4,0.4C280.2,150.3,280.2,150.4,280.2,150.4z"/>
	<path class="st2" d="M286.3,156.8C286.3,156.8,286.3,156.7,286.3,156.8c0-0.1,0-0.1,0-0.1c0-0.1,0-0.2,0-0.3c0-0.3,0-0.7,0-1.3
		c0-1.1,0-2.7,0-4.6l0,0h-6l0,0l0,0c0,2.3,0,4.5,0,6.4l0,0h4.4h1.2L286.3,156.8L286.3,156.8h-0.4h-1.2h-4.4l0,0l0,0c0-1.8,0-4,0-6.4
		l0,0l0,0h6l0,0l0,0c0,1.9,0,3.5,0,4.6c0,0.6,0,1,0,1.3c0,0.1,0,0.3,0,0.3C286.3,156.7,286.3,156.7,286.3,156.8
		C286.3,156.7,286.3,156.8,286.3,156.8z"/>
	<rect x="282.3" y="152.6" class="st0" width="2" height="2"/>
</g>
<g id="freepik--Plant--inject-25">
	<rect x="258.5" y="161" class="st5" width="8.1" height="1.1"/>
	<path class="st5" d="M258.5,161h8.2v1.2h-8.2V161z M266.7,161h-8.1v1.1h8.1V161z"/>
	<polygon class="st5" points="265.9,161.8 264.8,167.6 260.4,167.6 259.3,162.1 	"/>
	<polygon class="st6" points="265.9,167 265.3,167.9 260,167.9 259.3,167 	"/>
	<path class="st5" d="M262.9,161.9c0,0,0-2.7,0-6s0-6,0-6s0,2.7,0,6S262.9,161.9,262.9,161.9z"/>
	<path class="st5" d="M261.1,155.2L261.1,155.2l0.1,0.2l0.1,0.1c0,0,0,0.1,0.1,0.2c0.1,0.1,0,0.1,0.1,0.2c0.1,0.1,0,0.1,0.1,0.2
		c0.1,0.3,0.2,0.7,0.2,1c0.1,0.4,0.1,0.8,0.1,1.2c0,0.8,0,1.5-0.1,2.3c0,0.3-0.1,0.5-0.1,0.7c0,0.1,0,0.1,0,0.2c0,0,0,0,0,0.1
		c0,0,0,0,0-0.1v-0.2c0-0.2,0.1-0.4,0.1-0.7c0.1-0.8,0.1-1.5,0.1-2.3c0-0.4-0.1-0.8-0.1-1.3c-0.1-0.3-0.1-0.7-0.2-1
		c0-0.1,0-0.1-0.1-0.2c0-0.1,0-0.1-0.1-0.2l-0.1-0.2c0,0,0-0.1-0.1-0.1C261.2,155.3,261.2,155.3,261.1,155.2L261.1,155.2z"/>
	<path class="st5" d="M261.3,153C261.3,153.1,261.3,153.1,261.3,153l0.1,0.3l0.1,0.2c0,0.1,0,0.1,0.1,0.2c0,0.2,0.1,0.3,0.2,0.5
		l0.1,0.3c0,0.1,0,0.2,0.1,0.3c0.1,0.2,0.1,0.5,0.2,0.8c0.1,0.5,0.2,1.1,0.2,1.8s0.1,1.2,0.1,1.8c0,0.5,0,1,0,1.4c0,0.2,0,0.4,0,0.5
		c0,0.2,0,0.3,0,0.4s0,0.2,0,0.3v0.1v-0.1c0-0.1,0-0.2,0-0.3s0-0.3,0-0.4c0-0.2,0-0.3,0-0.5c0-0.4,0-0.9,0-1.4s0-1.1-0.1-1.8
		c-0.1-0.6-0.1-1.2-0.2-1.8c-0.1-0.3-0.1-0.5-0.2-0.8c0-0.1-0.1-0.2-0.1-0.3l-0.1-0.3c0-0.2-0.1-0.4-0.2-0.5c0-0.1,0-0.1-0.1-0.2
		c-0.1-0.1,0-0.1-0.1-0.2L261.3,153C261.4,153.1,261.3,153.1,261.3,153z"/>
	<path class="st5" d="M263.4,162.4L263.4,162.4C263.4,162.3,263.4,162.3,263.4,162.4c0-0.2,0-0.3,0-0.5c0-0.3,0-0.8,0.1-1.3
		c0.1-1.1,0.2-2.6,0.4-4.3c0.1-0.8,0.2-1.6,0.3-2.4c0.1-0.4,0.1-0.7,0.2-1s0.1-0.6,0.2-0.9c0.1-0.3,0.1-0.5,0.2-0.7
		c0-0.2,0.1-0.4,0.1-0.5s0.1-0.3,0.1-0.3v-0.1l0,0l0,0c0,0,0,0,0,0.1s-0.1,0.2-0.1,0.3s-0.1,0.3-0.1,0.5s-0.1,0.5-0.2,0.7
		c0,0.3-0.1,0.6-0.2,0.9c-0.1,0.3-0.1,0.7-0.2,1c-0.1,0.7-0.2,1.5-0.3,2.4c-0.2,1.7-0.3,3.2-0.3,4.3c0,0.6,0,1-0.1,1.3
		c0,0.2,0,0.3,0,0.4L263.4,162.4L263.4,162.4z"/>
	<path class="st7" d="M263,151.2c0-0.4,0.4-0.7,0.8-0.7c0.4,0,0.7,0.2,1,0.5c0.2,0.3,0.4,0.7,0.5,1c0.3,0.9,0.4,1.8,0.3,2.8
		c-0.1,0.9-0.5,1.8-1.1,2.5c-0.1,0.1-0.2,0.2-0.4,0.2c-0.1,0-0.2-0.1-0.2-0.1c-1.3-1.2-2-2.9-2-4.7c0-0.4,0.1-0.7,0.2-1
		S262.7,151.1,263,151.2"/>
	<path class="st7" d="M265.8,148.1l0.5,1c0,0,0,0,0.1,0c0,0,0,0,0.1,0l1.4-2.2l-0.3-0.2L265.8,148.1z"/>
	<g class="st8">
		<path d="M265.8,148.1l0.5,1c0,0,0,0,0.1,0c0,0,0,0,0.1,0l1.4-2.2l-0.3-0.2L265.8,148.1z"/>
	</g>
	<path class="st7" d="M263,149.9l4.8-2.9l0.1-0.1c0-0.1,0-0.1-0.1-0.2c-0.7-0.7-1.6-1.1-2.6-1s-1.8,0.6-2.3,1.5
		C262.4,148,262.4,149.1,263,149.9"/>
	<path class="st5" d="M267.1,146.1L267.1,146.1c-0.1,0-0.2,0-0.2,0c-0.2,0-0.4,0-0.7,0.1s-0.7,0.2-1,0.3c-0.8,0.3-1.4,0.9-1.8,1.6
		c-0.2,0.3-0.3,0.6-0.4,0.9c-0.1,0.2-0.1,0.4-0.1,0.7c0,0.1,0,0.1,0,0.1v0.1c0-0.1,0-0.2,0-0.2c0-0.2,0.1-0.4,0.1-0.7
		c0.4-1.5,1.6-2.6,3.1-2.8c0.2,0,0.4-0.1,0.7-0.1C267,146.1,267.1,146.1,267.1,146.1z"/>
	<path class="st5" d="M263.6,147.9c0.1,0,0.2,0.1,0.2,0.1c0.2,0.1,0.4,0.1,0.6,0.2c0.2,0.1,0.5,0.1,0.6,0.2c0.1,0,0.2,0,0.3,0
		c-0.1,0-0.2-0.1-0.2-0.1l-0.6-0.2l-0.6-0.1C263.8,148,263.7,147.9,263.6,147.9z"/>
	<path class="st5" d="M264.4,145.9c0,0.2-0.1,0.4-0.1,0.5c0,0.2,0,0.4,0,0.5c0-0.2,0-0.4,0-0.5C264.4,146.2,264.4,146,264.4,145.9z"
		/>
	<path class="st5" d="M267.8,147c-0.1,0-0.2-0.1-0.4-0.1c-0.2-0.1-0.5-0.2-0.9-0.2c-0.3-0.1-0.7-0.1-0.9-0.2c-0.1,0-0.2,0-0.4,0
		c0.1,0,0.2,0.1,0.4,0.1c0.2,0,0.5,0.1,0.9,0.2c0.3,0.1,0.7,0.2,0.9,0.2C267.6,146.9,267.7,147,267.8,147z"/>
	<path class="st7" d="M265,150.4c0.4-0.3,0.9-0.4,1.4-0.4s1,0.2,1.5,0.4c0.8,0.4,1.6,0.9,2.1,1.6s0.7,1.7,0.3,2.6
		c0,0.1-0.1,0.2-0.2,0.2s-0.2,0-0.3,0c-0.9-0.3-1.9-0.6-2.7-1.1s-1.6-1.1-2.1-2c-0.1-0.2-0.2-0.4-0.2-0.7
		C264.8,150.8,264.8,150.6,265,150.4"/>
	<path class="st5" d="M265,150.3L265,150.3l0.3,0.1h0.1c0,0,0.1,0,0.2,0.1c0.1,0,0.2,0.1,0.4,0.2l0.2,0.1c0.1,0,0.2,0.1,0.2,0.1
		c0.2,0.1,0.3,0.2,0.5,0.3c0.8,0.5,1.5,1.1,2,1.8c0.1,0.2,0.3,0.3,0.4,0.5c0,0.1,0.1,0.2,0.2,0.2l0.1,0.2c0.1,0.1,0.2,0.3,0.2,0.4
		c0,0.1,0.1,0.1,0.1,0.2l0.1,0.1c0,0.1,0.1,0.1,0.1,0.2c0,0,0,0,0,0.1c0,0,0,0,0-0.1l-0.1-0.2c0,0,0-0.1-0.1-0.1c0,0,0-0.1-0.1-0.2
		c-0.1-0.1-0.1-0.2-0.2-0.4l-0.1-0.2c0-0.1-0.1-0.1-0.2-0.2c-0.1-0.2-0.2-0.3-0.4-0.5c-0.3-0.4-0.6-0.7-0.9-1s-0.7-0.6-1.1-0.8
		c-0.2-0.1-0.4-0.2-0.5-0.3c-0.1,0-0.2-0.1-0.2-0.1l-0.2-0.2c-0.1-0.1-0.3-0.1-0.4-0.2c-0.1,0-0.1,0-0.2-0.1h-0.1L265,150.3
		L265,150.3z"/>
	<path class="st5" d="M268.2,152.1c0.3,0.1,0.7,0.2,1,0.3c0.3,0.1,0.7,0.2,1,0.3c-0.3-0.1-0.7-0.2-1-0.3
		C268.9,152.2,268.6,152.1,268.2,152.1z"/>
	<path class="st5" d="M268.3,154.3c0-0.1,0-0.2,0-0.3c0-0.2,0-0.5,0-0.8s0-0.6,0-0.8c0-0.1,0-0.2,0-0.3c0,0.1,0,0.2,0,0.3
		c0,0.2,0,0.5,0,0.8s0,0.5,0,0.8C268.3,154.1,268.3,154.2,268.3,154.3z"/>
	<path class="st5" d="M266.4,153.3c0,0,0.1-0.5,0.1-1.2s0.1-1.2,0.1-1.2s-0.1,0.5-0.1,1.2C266.4,152.8,266.4,153.3,266.4,153.3z"/>
	<path class="st5" d="M268.8,150.8c-0.1,0-0.2,0-0.3,0c-0.2,0-0.5,0-0.8,0c-0.3,0-0.6,0-0.8,0c-0.1,0-0.2,0-0.3,0c0.1,0,0.2,0,0.3,0
		c0.2,0,0.5,0,0.8,0c0.3,0,0.6,0,0.8,0C268.5,150.8,268.7,150.8,268.8,150.8z"/>
	<path class="st5" d="M264.2,157.5L264.2,157.5c0-0.1,0-0.2,0-0.3c0-0.2,0-0.4,0-0.7s0-0.6-0.1-1c0-0.4-0.1-0.8-0.2-1.2
		s-0.2-0.8-0.3-1.2c-0.1-0.4-0.2-0.7-0.3-1s-0.2-0.5-0.2-0.6l-0.1-0.2c0,0,0,0,0-0.1c0,0,0,0,0,0.1c0,0,0,0.1,0.1,0.2
		c0.1,0.2,0.1,0.4,0.2,0.7c0.1,0.3,0.2,0.6,0.3,1c0.1,0.4,0.2,0.8,0.3,1.2s0.1,0.9,0.2,1.2c0.1,0.3,0.1,0.7,0.1,1s0,0.5,0,0.7
		C264.2,157.3,264.2,157.4,264.2,157.5L264.2,157.5z"/>
	<path class="st5" d="M263.9,154.3c0.1,0.1,0.1,0.2,0.2,0.2c0.1,0.1,0.3,0.3,0.5,0.5c0.2,0.2,0.4,0.3,0.5,0.4
		c0.1,0.1,0.2,0.1,0.2,0.2c-0.1-0.1-0.1-0.1-0.2-0.2l-0.5-0.4l-0.5-0.5C264.1,154.4,264,154.4,263.9,154.3z"/>
	<path class="st5" d="M262.4,155.6c0.1-0.1,0.1-0.2,0.2-0.3l0.5-0.7l0.5-0.7c0.1-0.1,0.1-0.2,0.2-0.3c-0.1,0.1-0.2,0.2-0.2,0.3
		c-0.1,0.2-0.3,0.4-0.5,0.7c-0.2,0.3-0.4,0.5-0.5,0.7C262.5,155.4,262.4,155.4,262.4,155.6z"/>
	<path class="st5" d="M263.2,151.6c0,0,0.5,0.4,1.1,0.8c0.6,0.4,1.2,0.7,1.2,0.7s-0.5-0.4-1.1-0.8
		C263.7,152,263.2,151.6,263.2,151.6z"/>
	<path class="st5" d="M261.7,153.2c0.3-0.2,0.5-0.5,0.8-0.7s0.5-0.5,0.7-0.8c-0.3,0.2-0.5,0.5-0.8,0.7
		C262.2,152.7,262,152.9,261.7,153.2z"/>
	<path class="st7" d="M261.4,153.2H261c-0.3,0-0.6-0.1-0.9-0.3c-0.1-0.1-0.3-0.1-0.4-0.2c-0.5-0.2-1.1-0.2-1.7-0.2
		c-0.9,0-1.9-0.3-2.7-0.7l-0.1-0.1c-0.1-0.2,0.1-0.3,0.2-0.4c0.7-0.5,1.5-0.9,2.3-1.1s1.8-0.2,2.5,0.3S261.2,152.2,261.4,153.2"/>
	<path class="st5" d="M255.1,151.6L255.1,151.6l0.3-0.1c0.2-0.1,0.4-0.2,0.8-0.4c0.4-0.2,0.8-0.3,1.2-0.5c0.5-0.1,1-0.2,1.5-0.1
		s1,0.3,1.4,0.6c0.3,0.3,0.6,0.6,0.7,1c0.1,0.3,0.2,0.5,0.3,0.8c0,0.1,0.1,0.2,0.1,0.2s0,0,0,0.1v-0.1c0-0.1,0-0.1-0.1-0.2
		c-0.1-0.3-0.2-0.5-0.3-0.8c-0.2-0.4-0.4-0.8-0.7-1c-0.4-0.3-0.9-0.6-1.4-0.6c-0.5-0.1-1.1,0-1.6,0.1c-0.4,0.1-0.8,0.3-1.2,0.5
		c-0.3,0.2-0.6,0.3-0.8,0.4L255.1,151.6L255.1,151.6z"/>
	<path class="st5" d="M256.1,152.1c0,0,0.6-0.4,1.3-0.8c0.7-0.5,1.3-0.9,1.2-0.9s-0.6,0.4-1.3,0.8
		C256.6,151.7,256.1,152.1,256.1,152.1z"/>
	<path class="st5" d="M256.7,150.4c0.3,0.1,0.6,0.1,0.8,0.1c-0.1,0-0.3,0-0.4,0C257,150.4,256.9,150.4,256.7,150.4z"/>
	<path class="st5" d="M259.2,150.1c0,0.1,0.1,0.2,0.2,0.3s0.1,0.2,0.2,0.3c0-0.1-0.1-0.2-0.2-0.3
		C259.4,150.3,259.3,150.2,259.2,150.1z"/>
	<path class="st5" d="M258.7,152.5c0.1,0,0.2-0.1,0.3-0.2c0.2-0.1,0.4-0.3,0.6-0.4c0.2-0.1,0.4-0.3,0.6-0.5c0.1-0.1,0.2-0.1,0.2-0.2
		c-0.1,0-0.2,0.1-0.3,0.2c-0.2,0.1-0.4,0.3-0.6,0.4c-0.2,0.1-0.5,0.3-0.6,0.4C258.9,152.4,258.8,152.4,258.7,152.5z"/>
	<path class="st7" d="M260.7,155c0.4-0.1,0.9,0.3,1,0.7c0.1,0.4-0.1,0.9-0.3,1.2c-0.4,0.9-1,1.7-1.7,2.3c-0.7,0.6-1.7,1-2.6,1
		c0.2-0.8,0-1.7,0-2.5c0.2-1.5,1.4-2.7,2.9-2.9C260.3,154.8,260.6,154.8,260.7,155"/>
	<path class="st5" d="M257.1,160.3L257.1,160.3c0.1-0.1,0.2-0.1,0.2-0.1c0.2-0.2,0.3-0.3,0.4-0.5c0.1-0.1,0.1-0.3,0.2-0.4
		c0.1-0.2,0.1-0.3,0.2-0.5c0.1-0.2,0.2-0.4,0.3-0.5c0.1-0.2,0.2-0.4,0.4-0.5c0.3-0.3,0.6-0.6,0.9-0.9c0.2-0.2,0.5-0.5,0.7-0.8
		c0.1-0.2,0.2-0.4,0.3-0.6c0-0.1,0-0.1,0.1-0.2c0,0,0,0,0-0.1c0,0,0,0.1-0.1,0.2c-0.1,0.2-0.2,0.4-0.3,0.6c-0.2,0.3-0.4,0.5-0.7,0.8
		s-0.6,0.6-0.9,0.9c-0.1,0.2-0.3,0.3-0.4,0.5s-0.2,0.4-0.3,0.5l-0.2,0.5c-0.1,0.2-0.1,0.3-0.2,0.4c-0.1,0.2-0.2,0.4-0.4,0.6
		C257.2,160.2,257.1,160.3,257.1,160.3z"/>
	<path class="st5" d="M259.3,159.6c0-0.1,0-0.2,0-0.3c0-0.2-0.1-0.4-0.2-0.7s-0.2-0.5-0.2-0.7c0-0.1-0.1-0.2-0.1-0.3
		c0,0.1,0,0.2,0.1,0.3c0,0.2,0.1,0.4,0.2,0.7s0.1,0.5,0.2,0.7C259.2,159.4,259.2,159.5,259.3,159.6z"/>
	<path class="st5" d="M257.2,157.6c0.1,0,0.2,0,0.3-0.1c0.2,0,0.4-0.1,0.7-0.2c0.3-0.1,0.5-0.1,0.7-0.1c0.1,0,0.2,0,0.3-0.1
		c-0.1,0-0.2,0-0.3,0c-0.2,0-0.4,0.1-0.7,0.1c-0.3,0.1-0.5,0.1-0.7,0.2C257.4,157.5,257.3,157.5,257.2,157.6z"/>
	<path class="st5" d="M260.8,158.1c0-0.1,0-0.2,0-0.3c0-0.2-0.1-0.5-0.2-0.8s-0.2-0.6-0.2-0.8c0-0.1-0.1-0.2-0.1-0.3
		c0,0.1,0,0.2,0.1,0.3c0.1,0.2,0.1,0.5,0.2,0.8s0.1,0.6,0.2,0.8C260.8,157.9,260.8,158,260.8,158.1z"/>
	<path class="st5" d="M258.2,155.8c0,0,0.5,0,1.2-0.1c0.4,0,0.8-0.1,1.2-0.2c0,0-0.5,0-1.2,0.1C258.9,155.7,258.5,155.7,258.2,155.8
		z"/>
	<path class="st6" d="M258.5,162.1c0,0,1.8,0,4.1,0s4.1,0,4.1,0s-1.8,0-4.1,0S258.5,162.1,258.5,162.1z"/>
	<path class="st6" d="M259.8,164.5c0,0,1.2,0,2.8,0s2.8,0,2.8,0s-1.2,0-2.8,0S259.8,164.5,259.8,164.5z"/>
	<path class="st6" d="M259.9,164.9c0,0,1.2,0,2.7,0s2.7,0,2.7,0s-1.2,0-2.7,0S259.9,164.8,259.9,164.9z"/>
	<path class="st6" d="M259.8,164.2c0,0,1.3,0,2.9,0c1.6,0,2.9,0,2.9,0s-1.3,0-2.9,0C261.1,164.2,259.8,164.2,259.8,164.2z"/>
</g>
<g id="freepik--Device--inject-25">
	<path class="st5" d="M269.6,177.1h-13.7c-1.6,0-3-1.3-3-3l0,0v-34.6c0-1.7,1.3-3,3-3h13.7c1.6,0,3,1.3,3,3v34.6
		C272.6,175.7,271.2,177.1,269.6,177.1L269.6,177.1z"/>
	<path class="st3" d="M269.6,137.7h-2.7c-0.4,0-0.7,0.3-0.7,0.7v0.5c0,0.4-0.3,0.7-0.7,0.7h-5.2c-0.4,0-0.7-0.3-0.7-0.7l0,0v-0.5
		c0-0.4-0.3-0.7-0.7-0.7h-3.3c-1.2,0-2.1,0.9-2.1,2.1l0,0v33.7c0,1.2,0.9,2.1,2.1,2.1l0,0h13.7c1.2,0,2.1-0.9,2.1-2.1l0,0v-33.7
		C271.7,138.7,270.7,137.7,269.6,137.7L269.6,137.7z"/>
	<path class="st5" d="M261.5,174.2c0,0.1-0.1,0.3-0.3,0.3c-0.1,0-0.3-0.1-0.3-0.3c0-0.1,0.1-0.3,0.3-0.3l0,0
		C261.3,173.9,261.5,174.1,261.5,174.2L261.5,174.2z"/>
	<path class="st2" d="M262.9,174.2c0,0.1-0.1,0.3-0.3,0.3c-0.1,0-0.3-0.1-0.3-0.3c0-0.1,0.1-0.3,0.3-0.3
		C262.8,173.9,262.9,174.1,262.9,174.2L262.9,174.2z"/>
	<path class="st2" d="M264.4,174.2c0,0.1-0.1,0.3-0.3,0.3c-0.1,0-0.3-0.1-0.3-0.3c0-0.1,0.1-0.3,0.3-0.3
		C264.3,173.9,264.4,174,264.4,174.2L264.4,174.2z"/>
	<path class="st5" d="M255.6,142.4L255.6,142.4L255.6,142.4h0.4l0,0c0-0.1,0-0.2,0-0.2v-0.1c0-0.1,0.1-0.1,0.1-0.1
		c0.1,0,0.1,0,0.2,0c0.1,0,0.1,0.1,0.1,0.1c0,0.1,0,0.2,0,0.4l0,0h0.4l0,0c0-0.2,0-0.3,0-0.5v-0.1c0,0,0-0.1-0.1-0.1
		c-0.1-0.1-0.1-0.1-0.2-0.2l-0.2-0.2l-0.1-0.1c0,0,0-0.1-0.1-0.1H256c0,0,0,0-0.1,0.1l-0.2,0.2c-0.1,0.1-0.2,0.2-0.3,0.3
		c0,0,0,0.1,0,0.2v0.1c0,0.1,0,0.2,0,0.2S255.6,142.3,255.6,142.4L255.6,142.4L255.6,142.4c0-0.1,0-0.1,0-0.2c0-0.1,0-0.1,0-0.2
		c0,0,0-0.1,0-0.2v-0.1v-0.1c0.1-0.1,0.2-0.2,0.3-0.3l0.1-0.2c0,0,0,0,0.1-0.1h0.1c0,0,0.1,0,0.1,0.1l0.1,0.1l0.2,0.2l0.2,0.2
		l0.1,0.1v0.1c0,0.2,0,0.4,0,0.5l0,0l0,0h-0.4l0,0l0,0c0-0.1,0-0.2,0-0.4c0,0,0-0.1-0.1-0.1c-0.1,0-0.1,0-0.2,0c0,0-0.1,0-0.1,0.1
		v0.1c0,0.1,0,0.2,0,0.2l0,0l0,0h-0.3L255.6,142.4L255.6,142.4z"/>
	<path class="st1" d="M270.8,144.1L270.8,144.1c0.1,0,0.2,0.1,0.2,0.2v29.4c0,0.1-0.1,0.2-0.2,0.2l0,0c-0.1,0-0.2-0.1-0.2-0.2v-29.4
		C270.6,144.2,270.7,144.1,270.8,144.1z"/>
	<path class="st2" d="M270.8,145.5L270.8,145.5c0.1,0,0.2,0.1,0.2,0.1v2.1c0,0.1-0.1,0.1-0.1,0.1l0,0c-0.1,0-0.1-0.1-0.1-0.1v-2.1
		C270.6,145.5,270.7,145.5,270.8,145.5z"/>
	<path class="st3" d="M255.7,143.9h13.9c0.3,0,0.5,0.2,0.5,0.5v5.4c0,0.3-0.2,0.5-0.5,0.5h-13.9c-0.3,0-0.5-0.2-0.5-0.5v-5.4
		C255.2,144.2,255.4,143.9,255.7,143.9z"/>
	<path class="st7" d="M255.7,143.9h7.1l0,0v6.4l0,0h-7.1c-0.3,0-0.5-0.2-0.5-0.5v-5.5C255.2,144.2,255.4,143.9,255.7,143.9z"/>
	<g class="st9">
		<path d="M261.4,147.4c0.2-0.2,0.3-0.4,0.4-0.7c0.1-0.2,0.1-0.4,0-0.5s-0.2-0.2-0.3-0.2c-0.5-0.2-0.9-0.4-1.4-0.5l-3.6,1.3
			c-0.1,0.3,0.1,0.6,0.4,0.7c0.1,0,0.3,0,0.4-0.1c0.1,0.7,0.1,1.5-0.2,2.1c0,0.1-0.1,0.2,0,0.3s0.2,0.1,0.3,0.1h3.6
			c0.2,0,0.4,0,0.5-0.1c0.1-0.1,0.1-0.4,0-0.5l-0.4-1.4c0-0.1,0-0.2,0-0.2C261.2,147.5,261.3,147.5,261.4,147.4z"/>
	</g>
	<path class="st3" d="M260.9,149.2l-0.3-1.2l0.1-1.2l0.1-1.7L260,145c-0.6,0.3-1.5,0.5-2.2,0.2c0,0-0.3,0-0.5,0.2
		c-0.1,0.1,0,0.6,0.1,1c0.1,0.5,0.4,1.8,0.4,1.8s-0.4,1.1-0.5,1.4c0,0,2.8-0.5,3.7,0C260.9,149.5,261.1,149.5,260.9,149.2z"/>
	<path class="st3" d="M256.2,145.9l1-0.6l0.3,1.4l-0.5,0.4C257,147.1,256.2,146.7,256.2,145.9z"/>
	<path class="st3" d="M260.7,145l1.1,0.5c0,0-0.3,1.3-0.5,1.5l-0.5-0.2l-0.1,0.4v-1.7V145z"/>
	<path class="st2" d="M257.1,147L257.1,147c-0.1,0-0.1-0.1-0.2-0.1c-0.1-0.1-0.3-0.2-0.4-0.4c0-0.1-0.1-0.2-0.1-0.3s0-0.2-0.1-0.2
		c0,0,0-0.1,0-0.2c0,0,0,0,0-0.1c0,0,0,0.1,0,0.2c0,0.1,0,0.2,0.1,0.2c0,0.1,0.1,0.2,0.1,0.2c0.1,0.1,0.2,0.3,0.3,0.4
		C257,147,257.1,147,257.1,147z"/>
	<path class="st2" d="M257.4,146.5L257.4,146.5c-0.1,0-0.1-0.1-0.1-0.1c-0.1-0.1-0.2-0.2-0.2-0.3s-0.1-0.2-0.2-0.3
		c0,0,0-0.1-0.1-0.2c0,0,0,0.1,0.1,0.1c0.1,0.1,0.1,0.2,0.2,0.3c0.1,0.1,0.2,0.2,0.2,0.3C257.3,146.4,257.3,146.4,257.4,146.5
		L257.4,146.5z"/>
	<path class="st2" d="M260.6,145.1h-0.1c-0.1,0-0.2,0-0.3,0.1l-0.5,0.2c-0.2,0.1-0.4,0.1-0.6,0.1c-0.4,0-0.8,0-1.2-0.1
		c-0.1,0-0.2-0.1-0.3-0.1h-0.1l0,0c0,0,0.1,0,0.1,0.1c0.1,0,0.2,0.1,0.3,0.1c0.4,0.1,0.8,0.2,1.2,0.1c0.2,0,0.4-0.1,0.6-0.1
		c0.2-0.1,0.4-0.1,0.5-0.2c0.1-0.1,0.3-0.1,0.3-0.1C260.5,145.1,260.5,145.1,260.6,145.1L260.6,145.1z"/>
	<path class="st2" d="M260.7,146.1L260.7,146.1L260.7,146.1c-0.2,0-0.3,0-0.5,0c-0.4,0-0.8,0.1-1.2,0.1c-0.5,0-0.9,0-1.2,0h-0.4
		h-0.1l0,0l0,0h0.1h0.4c0.3,0,0.7,0,1.2,0s0.9,0,1.2,0C260.4,146.2,260.5,146.2,260.7,146.1L260.7,146.1L260.7,146.1z"/>
	<path class="st2" d="M260.7,146.8L260.7,146.8h-0.2c0,0-0.1,0-0.2,0c-0.4,0.1-0.7,0.1-1.1,0.1c-0.4,0-0.8,0-1.1,0
		c-0.1,0-0.3,0-0.3,0h-0.1h0.1c0.1,0,0.2,0,0.3,0c0.3,0,0.7,0,1.1,0c0.4,0,0.7,0,1.1-0.1c0.1,0,0.1,0,0.2,0S260.6,146.8,260.7,146.8
		C260.6,146.8,260.6,146.8,260.7,146.8z"/>
	<path class="st2" d="M260.6,147.6h-0.1c-0.1,0-0.2,0-0.3,0c-0.3,0-0.6,0-1,0c-0.4,0-0.8,0-1,0c-0.1,0-0.2,0-0.3,0h-0.1h0.1
		c0.1,0,0.2,0,0.3,0c0.3,0,0.6,0,1,0c0.4,0,0.8,0,1,0h0.3C260.5,147.6,260.5,147.6,260.6,147.6z"/>
	<path class="st2" d="M260.7,148.5L260.7,148.5h-0.4c-0.3,0-0.7,0-1.1,0c-0.4,0-0.8,0-1.1,0h-0.3h-0.1h0.1c0.1,0,0.2,0,0.3,0
		c0.3,0,0.7,0,1.1,0c0.4,0,0.8,0,1.1,0C260.4,148.5,260.6,148.5,260.7,148.5L260.7,148.5z"/>
	<path class="st2" d="M261.1,145.4c0,0.1-0.1,0.2-0.1,0.3s-0.1,0.2-0.2,0.3c0,0,0.1-0.1,0.2-0.3S261.1,145.4,261.1,145.4z"/>
	<path class="st5" d="M257.3,145.8C257.3,145.8,257.3,145.9,257.3,145.8c0,0.2,0.1,0.2,0.1,0.3c0,0.2,0.1,0.5,0.2,0.8
		s0.1,0.6,0.2,0.8c0,0.1,0,0.2,0,0.2v0.1v-0.1c0-0.1,0-0.1,0-0.2c0-0.2-0.1-0.5-0.2-0.8s-0.1-0.6-0.2-0.8
		C257.4,146,257.4,145.9,257.3,145.8C257.3,145.9,257.3,145.8,257.3,145.8z"/>
	<path class="st5" d="M260.7,146.2L260.7,146.2c0,0.1,0,0.2,0,0.3c0,0.2,0,0.4,0,0.6c0,0.2,0,0.5,0,0.6s0,0.1,0,0.2c0,0,0,0,0,0.1
		c0,0,0,0,0-0.1c0,0,0-0.1,0-0.2c0-0.2,0-0.4,0-0.6c0-0.2,0-0.5,0-0.6S260.7,146.3,260.7,146.2L260.7,146.2z"/>
	<path class="st2" d="M261.5,145.4c0,0.1,0,0.1-0.1,0.2c-0.1,0.1-0.1,0.3-0.2,0.5c-0.1,0.2-0.1,0.4-0.1,0.5s0,0.1,0,0.2
		c0,0,0,0,0-0.1c0,0,0-0.1,0-0.2c0-0.2,0.1-0.4,0.1-0.5c0.1-0.2,0.1-0.3,0.2-0.5C261.4,145.5,261.4,145.5,261.5,145.4L261.5,145.4z"
		/>
	<path class="st2" d="M260.9,149.2L260.9,149.2L260.9,149.2c-0.1,0-0.2,0-0.3,0c-0.1,0-0.1,0-0.2,0s-0.2,0-0.3,0c-0.1,0-0.2,0-0.3,0
		c-0.5,0-1,0-1.5,0.1c-0.1,0-0.2,0-0.3,0.1c-0.1,0-0.2,0-0.3,0.1s-0.2,0-0.2,0.1c-0.1,0-0.1,0-0.2,0.1h-0.1l0,0l0,0h0.1
		c0,0,0.1,0,0.2-0.1c0.1-0.1,0.1-0.1,0.2-0.1s0.2-0.1,0.3-0.1c0.1,0,0.2,0,0.3-0.1c0.5-0.1,1-0.1,1.5-0.1c0.1,0,0.2,0,0.3,0
		c0.1,0,0.2,0,0.3,0s0.2,0,0.2,0S260.7,149.2,260.9,149.2L260.9,149.2L260.9,149.2z"/>
	<path class="st7" d="M262.8,150.4c0,0,0-1.4,0-3.2s0-3.2,0-3.2s0,1.4,0,3.2S262.8,150.4,262.8,150.4z"/>
	<path class="st7" d="M269.6,150.4L269.6,150.4c0.2,0,0.3-0.1,0.4-0.2c0-0.1,0.1-0.1,0.1-0.2s0-0.2,0-0.3c0-0.2,0-0.4,0-0.7
		c0-1.1,0-2.6,0-4.5c0-0.1,0-0.1,0-0.2c0-0.2-0.2-0.3-0.3-0.4c-0.1,0-0.2,0-0.4,0h-2h-3.6h-8.1c-0.2,0-0.3,0.1-0.4,0.2
		c0,0.1-0.1,0.2-0.1,0.2v1.3c0,0.7,0,1.4,0,2.1v2c0,0.2,0.1,0.3,0.2,0.4c0.1,0,0.1,0.1,0.2,0.1c0.1,0,0.2,0,0.2,0h0.9h6.6h4.5h1.2
		h0.3L269.6,150.4c0,0,0,0-0.1,0h-0.3H268h-4.5h-6.6H256c-0.1,0-0.2,0-0.2,0c-0.1,0-0.2,0-0.2-0.1c-0.1-0.1-0.2-0.3-0.2-0.4
		c0-0.7,0-1.3,0-2v-3.4c0-0.3,0.2-0.5,0.6-0.5h8.1h3.6h1.3h0.6c0.1,0,0.1,0,0.2,0c0.2,0.1,0.3,0.2,0.4,0.4c0,0.1,0,0.1,0,0.2
		c0,1.9,0,3.4,0,4.5c0,0.3,0,0.5,0,0.7c0,0.1,0,0.2,0,0.3s-0.1,0.1-0.1,0.2c-0.1,0.1-0.2,0.1-0.3,0.2
		C269.7,150.4,269.6,150.4,269.6,150.4z"/>
	<path class="st7" d="M266.1,145.4c0,0-0.6,0-1.4,0s-1.4,0-1.4,0s0.6,0,1.4,0S266.1,145.4,266.1,145.4z"/>
	<path class="st7" d="M268.7,146.3c0,0-1.2,0-2.7,0s-2.7,0-2.7,0s1.2,0,2.7,0C267.5,146.2,268.7,146.2,268.7,146.3z"/>
	<path class="st7" d="M268.7,146.8c0,0-1.2,0-2.7,0s-2.7,0-2.7,0s1.2,0,2.7,0C267.5,146.7,268.7,146.7,268.7,146.8z"/>
	<path class="st7" d="M268.2,149.2c0-0.1,0-0.1-0.1-0.2l-0.1-0.1c-0.1,0-0.2,0-0.2,0.1c0,0,0,0-0.1-0.1c0,0-0.1,0-0.2,0
		c-0.1,0-0.1,0-0.1,0.1l-0.1,0.1c0,0.1,0,0.1,0,0.2c0,0.1,0.1,0.1,0.2,0.2l0.2,0.2c0,0,0.1-0.1,0.2-0.1c0.1,0,0.1-0.1,0.2-0.2
		C268.2,149.3,268.2,149.3,268.2,149.2z"/>
	<path class="st5" d="M267.7,149.7L267.7,149.7c0,0-0.1-0.1-0.2-0.2c-0.1,0-0.1-0.1-0.2-0.2c0-0.1,0-0.1,0-0.2c0-0.1,0-0.1,0.1-0.2
		l0.1-0.1c0.1,0,0.1,0,0.2,0c0,0,0,0,0.1,0.1c0.1-0.1,0.1-0.1,0.2-0.1c0.1,0,0.1,0,0.1,0.1c0,0,0.1,0.1,0.1,0.2c0,0.1,0,0.2,0,0.2
		c0,0.1-0.1,0.1-0.2,0.2C267.8,149.6,267.7,149.7,267.7,149.7L267.7,149.7z M267.5,149L267.5,149c-0.1,0-0.2,0.1-0.2,0.2
		c0,0.1,0,0.1,0,0.2c0,0.1,0.1,0.1,0.2,0.2c0.1,0.1,0.2,0.1,0.2,0.1s0.1-0.1,0.2-0.1s0.1-0.1,0.2-0.1c0-0.1,0-0.1,0-0.2l0,0
		c0,0,0-0.1-0.1-0.1l-0.1-0.1c-0.1,0-0.2,0-0.2,0.1l0,0l0,0C267.7,149.2,267.7,149.2,267.5,149C267.6,149,267.6,149,267.5,149
		L267.5,149z"/>
	<path class="st5" d="M269.4,149.6h-0.2h-0.4l0,0l0,0v-0.1c0-0.2,0-0.4-0.1-0.5l0,0h-0.1l0,0l0,0h0.2c0,0.1,0,0.3,0.1,0.5
		c0,0,0,0,0,0.1l0,0H269.4L269.4,149.6L269.4,149.6L269.4,149.6z"/>
	<path class="st5" d="M269.2,149.6h-0.4l0,0v-0.1l-0.1-0.5h-0.1l0,0l0,0h0.1l0,0l0,0l0.1,0.5l0,0h0.6l0,0l0,0L269.2,149.6
		L269.2,149.6z"/>
	<path class="st5" d="M268.8,149.4h0.2h0.4l0,0c0-0.1,0-0.2,0-0.2v-0.1l0,0h-0.5h-0.2h0.2h0.5l0,0l0,0v0.1c0,0.1,0,0.2,0,0.2l0,0
		l0,0H269H268.8L268.8,149.4L268.8,149.4z"/>
	<path class="st5" d="M269.4,149.4L269.4,149.4h-0.6l0,0l0,0l0,0h0.2H269.4V149h-0.7l0,0l0,0h0.2h0.5l0,0l0,0v0.1
		C269.4,149.2,269.4,149.2,269.4,149.4L269.4,149.4L269.4,149.4L269.4,149.4z"/>
	<path class="st5" d="M268.9,149.7L268.9,149.7L268.9,149.7L268.9,149.7C268.8,149.7,268.8,149.7,268.9,149.7
		C268.8,149.7,268.8,149.8,268.9,149.7C268.9,149.8,268.9,149.8,268.9,149.7L268.9,149.7L268.9,149.7L268.9,149.7
		C268.9,149.7,268.9,149.8,268.9,149.7C268.9,149.8,268.9,149.8,268.9,149.7C268.8,149.7,268.8,149.7,268.9,149.7
		C268.8,149.7,268.9,149.7,268.9,149.7L268.9,149.7L268.9,149.7L268.9,149.7z"/>
	<path class="st5" d="M268.9,149.8L268.9,149.8C268.8,149.8,268.8,149.8,268.9,149.8c-0.1-0.1,0-0.1,0-0.1l0,0
		C268.9,149.7,269,149.7,268.9,149.8L268.9,149.8L268.9,149.8C269,149.7,268.9,149.8,268.9,149.8L268.9,149.8z M268.9,149.7
		L268.9,149.7C268.9,149.7,268.8,149.7,268.9,149.7C268.8,149.7,268.9,149.8,268.9,149.7C268.9,149.8,268.9,149.8,268.9,149.7
		L268.9,149.7L268.9,149.7L268.9,149.7L268.9,149.7L268.9,149.7L268.9,149.7L268.9,149.7z"/>
	<path class="st5" d="M269.3,149.7L269.3,149.7L269.3,149.7L269.3,149.7C269.2,149.7,269.2,149.7,269.3,149.7
		C269.2,149.7,269.2,149.8,269.3,149.7C269.3,149.8,269.3,149.8,269.3,149.7L269.3,149.7L269.3,149.7L269.3,149.7
		C269.3,149.7,269.3,149.8,269.3,149.7C269.3,149.8,269.2,149.8,269.3,149.7L269.3,149.7C269.2,149.7,269.2,149.7,269.3,149.7
		L269.3,149.7L269.3,149.7L269.3,149.7z"/>
	<path class="st5" d="M269.3,149.8L269.3,149.8C269.2,149.8,269.2,149.7,269.3,149.8c-0.1-0.1,0-0.1,0-0.1s0,0,0.1,0
		C269.3,149.7,269.3,149.7,269.3,149.8L269.3,149.8L269.3,149.8C269.3,149.7,269.3,149.8,269.3,149.8L269.3,149.8z M269.3,149.7
		L269.3,149.7C269.2,149.7,269.2,149.7,269.3,149.7C269.2,149.7,269.2,149.8,269.3,149.7C269.3,149.8,269.3,149.8,269.3,149.7
		L269.3,149.7L269.3,149.7L269.3,149.7L269.3,149.7L269.3,149.7L269.3,149.7L269.3,149.7L269.3,149.7z"/>
	<path class="st5" d="M269.6,149c0,0.1-0.1,0.2-0.2,0.2c-0.1,0-0.2-0.1-0.2-0.2s0.1-0.2,0.2-0.2C269.5,148.8,269.6,148.9,269.6,149
		L269.6,149z"/>
	<path class="st3" d="M269.5,149.1L269.5,149.1L269.5,149.1C269.5,149.1,269.5,149,269.5,149.1c0-0.1,0-0.2,0-0.2
		S269.5,149,269.5,149.1C269.5,149,269.5,149.1,269.5,149.1L269.5,149.1L269.5,149.1z"/>
	<path class="st3" d="M269.6,149C269.5,149,269.5,149,269.6,149c-0.1,0-0.2,0-0.2,0S269.4,149,269.6,149
		C269.5,149,269.5,149,269.6,149z"/>
	<path class="st7" d="M266,149.4c0,0-0.6,0-1.2,0c-0.7,0-1.2,0-1.2,0s0.6,0,1.2,0C265.4,149.4,266,149.4,266,149.4z"/>
	<path class="st1" d="M255.7,151.4h13.9c0.3,0,0.5,0.2,0.5,0.5v5.4c0,0.3-0.2,0.5-0.5,0.5h-13.9c-0.3,0-0.5-0.2-0.5-0.5v-5.4
		C255.2,151.6,255.4,151.4,255.7,151.4z"/>
	<path class="st3" d="M255.7,151.4h7.1l0,0v6.4l0,0h-7.1c-0.3,0-0.5-0.2-0.5-0.5v-5.5C255.2,151.6,255.4,151.4,255.7,151.4z"/>
	<path class="st2" d="M262.8,157.9c0,0,0-1.4,0-3.2s0-3.2,0-3.2s0,1.4,0,3.2S262.8,157.9,262.8,157.9z"/>
	<path class="st2" d="M269.6,157.8L269.6,157.8c0.2,0,0.3-0.1,0.4-0.2c0-0.1,0.1-0.1,0.1-0.2c0-0.1,0-0.2,0-0.3c0-0.2,0-0.4,0-0.7
		c0-1.1,0-2.6,0-4.5c0-0.1,0-0.1,0-0.2c0-0.2-0.2-0.3-0.3-0.4c-0.1,0-0.2,0-0.4,0h-2h-3.6h-8.1c-0.2,0-0.3,0.1-0.4,0.2
		c0,0.1-0.1,0.2-0.1,0.2v1.3c0,0.7,0,1.4,0,2.1v2c0,0.2,0.2,0.4,0.4,0.5c0.1,0,0.2,0,0.2,0h0.9h6.6h4.5h1.2h0.3L269.6,157.8h-0.1
		h-0.3H268h-4.5h-6.6H256c-0.1,0-0.2,0-0.2,0c-0.3,0-0.5-0.3-0.5-0.5c0-0.7,0-1.3,0-2v-3.4c0-0.3,0.3-0.5,0.6-0.5h8.1h3.6h1.4h0.6
		c0.1,0,0.1,0,0.2,0c0.2,0.1,0.3,0.2,0.4,0.4c0,0.1,0,0.1,0,0.2c0,1.9,0,3.4,0,4.5c0,0.3,0,0.5,0,0.7c0,0.1,0,0.2,0,0.3
		s-0.1,0.1-0.1,0.2c-0.1,0.1-0.2,0.1-0.3,0.2C269.7,157.8,269.6,157.8,269.6,157.8z"/>
	<path class="st5" d="M266.1,152.9c0,0-0.6,0-1.4,0s-1.4,0-1.4,0s0.6,0,1.4,0S266.1,152.9,266.1,152.9z"/>
	<path class="st2" d="M268.7,153.7c0,0-1.2,0-2.7,0s-2.7,0-2.7,0s1.2,0,2.7,0S268.7,153.7,268.7,153.7z"/>
	<path class="st2" d="M268.7,154.2c0,0-1.2,0-2.7,0s-2.7,0-2.7,0s1.2,0,2.7,0S268.7,154.2,268.7,154.2z"/>
	<path class="st7" d="M268.2,156.7c0-0.1,0-0.1-0.1-0.2l-0.1-0.1c-0.1,0-0.1,0-0.2,0c0,0-0.1,0-0.1,0.1c0,0,0,0-0.1-0.1
		c0,0-0.1,0-0.2,0c-0.1,0-0.1,0-0.1,0.1l-0.1,0.1c0,0.1,0,0.1,0,0.2c0,0.1,0.1,0.1,0.2,0.2c0.1,0.1,0.2,0.2,0.2,0.2s0.1-0.1,0.2-0.1
		s0.1-0.1,0.2-0.1C268.2,156.8,268.2,156.7,268.2,156.7z"/>
	<path class="st5" d="M267.7,157.2L267.7,157.2c0,0-0.1-0.1-0.2-0.2c-0.1,0-0.1-0.1-0.2-0.2c0-0.1,0-0.1,0-0.2c0-0.1,0-0.1,0.1-0.2
		l0.1-0.1c0.1,0,0.1,0,0.2,0c0,0,0,0,0.1,0.1c0,0,0,0,0.1-0.1c0.1,0,0.1,0,0.2,0c0.1,0,0.1,0,0.1,0.1c0,0,0.1,0.1,0.1,0.2
		c0,0.1,0,0.2,0,0.2c0,0.1-0.1,0.1-0.2,0.2C267.8,157.1,267.7,157.2,267.7,157.2L267.7,157.2z M267.5,156.4L267.5,156.4
		c-0.1,0-0.1,0-0.2,0.1l-0.1,0.1c0,0.1,0,0.1,0,0.2c0,0.1,0.1,0.1,0.2,0.2c0.1,0.1,0.2,0.1,0.2,0.1s0.1-0.1,0.2-0.1
		c0.1,0,0.1-0.1,0.2-0.1c0-0.1,0-0.1,0-0.2l0,0c0,0,0-0.1-0.1-0.1l-0.1-0.1C267.8,156.5,267.7,156.5,267.5,156.4
		c0.1,0.1,0.1,0.1,0,0.2l0,0l0,0c0,0,0,0-0.1-0.1C267.6,156.4,267.6,156.4,267.5,156.4L267.5,156.4z"/>
	<path class="st5" d="M269.4,157h-0.2h-0.4l0,0l0,0v-0.1c0-0.2,0-0.4-0.1-0.5l0,0h-0.1h0.1l0,0l0.1,0.5c0,0,0,0,0,0.1l0,0h0.4H269.4
		L269.4,157L269.4,157z"/>
	<path class="st5" d="M269.2,157h-0.4l0,0l-0.1-0.6h-0.1l0,0l0,0h0.1l0,0l0,0l0.1,0.5l0,0h0.6l0,0l0,0h-0.2V157L269.2,157z"/>
	<path class="st5" d="M268.8,156.9h0.2h0.4l0,0c0-0.1,0-0.2,0-0.3v-0.1l0,0h-0.5h-0.2h0.2h0.5l0,0l0,0v0.1c0,0.1,0,0.2,0,0.3l0,0
		l0,0H269L268.8,156.9L268.8,156.9L268.8,156.9z"/>
	<path class="st5" d="M269.4,156.9L269.4,156.9h-0.6l0,0l0,0l0,0h0.2H269.4v-0.4h-0.7l0,0l0,0h0.2h0.5l0,0l0,0v0.1
		C269.4,156.7,269.4,156.7,269.4,156.9L269.4,156.9L269.4,156.9z"/>
	<path class="st5" d="M268.9,157.2L268.9,157.2C268.9,157.2,268.9,157.1,268.9,157.2C268.9,157.1,268.8,157.1,268.9,157.2
		L268.9,157.2C268.8,157.2,268.8,157.2,268.9,157.2L268.9,157.2L268.9,157.2L268.9,157.2L268.9,157.2L268.9,157.2
		C268.9,157.3,268.8,157.3,268.9,157.2L268.9,157.2C268.8,157.2,268.8,157.1,268.9,157.2C268.9,157.1,268.9,157.1,268.9,157.2
		C268.9,157.1,268.9,157.2,268.9,157.2L268.9,157.2z"/>
	<path class="st5" d="M268.9,157.2L268.9,157.2C268.8,157.2,268.8,157.2,268.9,157.2C268.8,157.1,268.9,157.1,268.9,157.2
		c0-0.1,0-0.1,0.1-0.1C268.9,157.1,269,157.1,268.9,157.2L268.9,157.2L268.9,157.2C269,157.2,268.9,157.2,268.9,157.2
		S268.9,157.3,268.9,157.2z M268.9,157.1L268.9,157.1C268.9,157.1,268.8,157.2,268.9,157.1C268.8,157.2,268.9,157.2,268.9,157.1
		C268.9,157.2,268.9,157.2,268.9,157.1C268.9,157.2,268.9,157.2,268.9,157.1L268.9,157.1L268.9,157.1L268.9,157.1L268.9,157.1
		C268.9,157.2,268.9,157.1,268.9,157.1L268.9,157.1L268.9,157.1z"/>
	<path class="st5" d="M269.3,157.2L269.3,157.2L269.3,157.2C269.3,157.1,269.3,157.1,269.3,157.2
		C269.2,157.2,269.2,157.2,269.3,157.2C269.2,157.2,269.2,157.2,269.3,157.2L269.3,157.2L269.3,157.2L269.3,157.2L269.3,157.2
		L269.3,157.2L269.3,157.2C269.2,157.2,269.2,157.2,269.3,157.2C269.2,157.2,269.2,157.1,269.3,157.2
		C269.3,157.1,269.3,157.1,269.3,157.2L269.3,157.2L269.3,157.2z"/>
	<path class="st5" d="M269.3,157.3L269.3,157.3C269.2,157.2,269.2,157.2,269.3,157.3c-0.1-0.1,0-0.1,0-0.1s0,0,0.1,0
		C269.3,157.1,269.3,157.2,269.3,157.3L269.3,157.3L269.3,157.3C269.3,157.2,269.3,157.2,269.3,157.3
		C269.3,157.2,269.3,157.3,269.3,157.3z M269.3,157.1L269.3,157.1C269.2,157.2,269.2,157.2,269.3,157.1
		C269.2,157.2,269.2,157.2,269.3,157.1C269.3,157.2,269.3,157.2,269.3,157.1C269.3,157.2,269.3,157.2,269.3,157.1L269.3,157.1
		L269.3,157.1L269.3,157.1L269.3,157.1C269.3,157.2,269.3,157.2,269.3,157.1L269.3,157.1L269.3,157.1z"/>
	<path class="st5" d="M269.6,156.4c0,0.1-0.1,0.2-0.2,0.2c-0.1,0-0.2-0.1-0.2-0.2c0-0.1,0.1-0.2,0.2-0.2
		C269.5,156.3,269.6,156.4,269.6,156.4L269.6,156.4z"/>
	<path class="st3" d="M269.5,156.5L269.5,156.5L269.5,156.5L269.5,156.5c0-0.1,0-0.2,0-0.2C269.5,156.4,269.5,156.4,269.5,156.5
		L269.5,156.5L269.5,156.5L269.5,156.5z"/>
	<path class="st3" d="M269.6,156.5C269.5,156.5,269.5,156.5,269.6,156.5c-0.1,0-0.2,0-0.2,0C269.4,156.4,269.4,156.4,269.6,156.5
		C269.5,156.5,269.5,156.5,269.6,156.5z"/>
	<path class="st5" d="M266,156.9c-0.4,0-0.8,0-1.2,0c-0.4,0-0.8,0-1.2,0c0,0,0.6,0,1.2,0C265.4,156.8,266,156.8,266,156.9z"/>
	<path class="st1" d="M255.7,158.8h13.9c0.3,0,0.5,0.2,0.5,0.5v5.4c0,0.3-0.2,0.5-0.5,0.5h-13.9c-0.3,0-0.5-0.2-0.5-0.5v-5.4
		C255.2,159,255.4,158.8,255.7,158.8z"/>
	<path class="st3" d="M255.7,158.8h7.1l0,0v6.4l0,0h-7.1c-0.3,0-0.5-0.2-0.5-0.5v-5.5C255.2,159,255.4,158.8,255.7,158.8z"/>
	<path class="st2" d="M262.8,165.3c0,0,0-1.4,0-3.2s0-3.2,0-3.2s0,1.4,0,3.2C262.8,163.8,262.8,165.3,262.8,165.3z"/>
	<path class="st2" d="M269.6,165.2L269.6,165.2c0.3,0,0.4-0.2,0.5-0.4c0-0.1,0-0.2,0-0.3c0-0.2,0-0.4,0-0.7c0-1.1,0-2.6,0-4.5
		c0-0.1,0-0.1,0-0.2c0-0.2-0.2-0.3-0.3-0.4c-0.1,0-0.2,0-0.4,0h-2h-3.6h-8.1c-0.3,0-0.5,0.2-0.5,0.5v1.3c0,0.7,0,1.4,0,2.1v2
		c0,0.2,0.1,0.3,0.2,0.4c0.1,0,0.1,0.1,0.2,0.1c0.1,0,0.2,0,0.2,0h0.9h6.6h4.5h1.2h0.3L269.6,165.2h-0.1h-0.3H268h-4.5h-6.6H256
		c-0.1,0-0.2,0-0.2,0c-0.3,0-0.5-0.3-0.5-0.5c0-0.7,0-1.3,0-2v-3.4c0-0.3,0.3-0.5,0.6-0.5h8.1h3.6h2.2c0.1,0,0.1,0,0.2,0
		c0.2,0.1,0.3,0.2,0.4,0.4c0,0.1,0,0.1,0,0.2c0,1.9,0,3.4,0,4.5c0,0.3,0,0.5,0,0.7c0,0.1,0,0.2,0,0.3s-0.1,0.1-0.1,0.2
		c-0.1,0.1-0.2,0.1-0.3,0.2C269.7,165.2,269.6,165.2,269.6,165.2z"/>
	<path class="st5" d="M266.1,160.2c0,0-0.6,0-1.4,0s-1.4,0-1.4,0s0.6,0,1.4,0S266.1,160.2,266.1,160.2z"/>
	<path class="st2" d="M268.7,161.1c0,0-1.2,0-2.7,0s-2.7,0-2.7,0s1.2,0,2.7,0C267.5,161,268.7,161.1,268.7,161.1z"/>
	<path class="st2" d="M268.7,161.6c0,0-1.2,0-2.7,0s-2.7,0-2.7,0s1.2,0,2.7,0C267.5,161.5,268.7,161.6,268.7,161.6z"/>
	<path class="st7" d="M268.2,164c0-0.1,0-0.1-0.1-0.2l-0.1-0.1c-0.1,0-0.2,0-0.2,0.1c0,0,0,0-0.1-0.1c0,0-0.1,0-0.2,0
		c-0.1,0-0.1,0-0.1,0.1l-0.1,0.1c0,0.1,0,0.1,0,0.2c0,0.1,0.1,0.1,0.2,0.2l0.2,0.2c0,0,0.1-0.1,0.2-0.1c0.1,0,0.1-0.1,0.2-0.2
		C268.2,164.2,268.2,164.1,268.2,164z"/>
	<path class="st5" d="M267.7,164.5L267.7,164.5c0,0-0.1-0.1-0.2-0.2c-0.1,0-0.1-0.1-0.2-0.2c0-0.1,0-0.1,0-0.2c0-0.1,0-0.1,0.1-0.2
		l0.1-0.1c0.1,0,0.1,0,0.2,0c0,0,0,0,0.1,0.1c0,0,0,0,0.1-0.1c0,0,0.1,0,0.2,0c0.1,0,0.1,0,0.1,0.1c0,0,0.1,0.1,0.1,0.2s0,0.2,0,0.2
		c0,0.1-0.1,0.1-0.2,0.2C267.8,164.4,267.7,164.5,267.7,164.5L267.7,164.5z M267.5,163.8L267.5,163.8c-0.1,0-0.1,0-0.2,0.1l-0.1,0.1
		c0,0.1,0,0.1,0,0.2c0,0.1,0.1,0.1,0.2,0.2c0.1,0.1,0.2,0.1,0.2,0.1s0.1-0.1,0.2-0.1c0.1,0,0.1-0.1,0.2-0.1c0-0.1,0-0.1,0-0.2l0,0
		c0,0,0-0.1-0.1-0.1l-0.1-0.1c-0.1,0-0.2,0-0.2,0.1l0,0l0,0C267.6,164,267.6,164,267.5,163.8C267.6,163.8,267.6,163.8,267.5,163.8
		L267.5,163.8z"/>
	<path class="st5" d="M269.4,164.4h-0.2h-0.4l0,0l0,0v-0.1c0-0.2,0-0.4-0.1-0.5l0,0h-0.1h0.1l0,0c0,0.1,0,0.3,0.1,0.5c0,0,0,0,0,0.1
		l0,0h0.4H269.4L269.4,164.4L269.4,164.4z"/>
	<path class="st5" d="M269.2,164.4h-0.4l0,0l-0.1-0.6h-0.1l0,0l0,0h0.1l0,0l0,0l0.1,0.5l0,0h0.6l0,0l0,0L269.2,164.4L269.2,164.4z"
		/>
	<path class="st5" d="M268.8,164.2h0.2h0.4l0,0c0-0.1,0-0.2,0-0.2v-0.1l0,0h-0.5h-0.2h0.2h0.5l0,0l0,0v0.1c0,0.1,0,0.2,0,0.3l0,0
		l0,0H269L268.8,164.2L268.8,164.2L268.8,164.2z"/>
	<path class="st5" d="M269.4,164.3L269.4,164.3H269h-0.1l0,0l0,0l0,0l0,0h0.1H269.4v-0.4h-0.6h-0.1h-0.1l0,0l0,0h0.1h0.3h0.4l0,0
		l0,0v0.1L269.4,164.3L269.4,164.3z"/>
	<path class="st5" d="M268.9,164.5L268.9,164.5L268.9,164.5L268.9,164.5C268.8,164.5,268.8,164.5,268.9,164.5
		C268.8,164.6,268.8,164.6,268.9,164.5C268.9,164.6,268.9,164.6,268.9,164.5C268.9,164.6,268.9,164.6,268.9,164.5L268.9,164.5
		L268.9,164.5C268.9,164.6,268.9,164.6,268.9,164.5C268.9,164.6,268.9,164.6,268.9,164.5C268.8,164.5,268.8,164.5,268.9,164.5
		C268.8,164.5,268.8,164.5,268.9,164.5L268.9,164.5L268.9,164.5L268.9,164.5z"/>
	<path class="st5" d="M268.9,164.6L268.9,164.6C268.8,164.6,268.8,164.6,268.9,164.6c-0.1-0.1,0-0.1,0-0.1s0,0,0.1,0
		C268.9,164.5,269,164.5,268.9,164.6L268.9,164.6L268.9,164.6C269,164.6,268.9,164.6,268.9,164.6L268.9,164.6z M268.9,164.5
		L268.9,164.5C268.9,164.5,268.8,164.5,268.9,164.5C268.8,164.6,268.9,164.6,268.9,164.5C268.9,164.6,268.9,164.6,268.9,164.5
		C268.9,164.6,268.9,164.6,268.9,164.5L268.9,164.5L268.9,164.5L268.9,164.5L268.9,164.5L268.9,164.5L268.9,164.5z"/>
	<path class="st5" d="M269.3,164.5L269.3,164.5L269.3,164.5L269.3,164.5C269.2,164.5,269.2,164.5,269.3,164.5
		C269.2,164.5,269.2,164.6,269.3,164.5C269.3,164.6,269.3,164.6,269.3,164.5C269.3,164.6,269.3,164.6,269.3,164.5L269.3,164.5
		L269.3,164.5C269.3,164.6,269.3,164.6,269.3,164.5C269.3,164.6,269.3,164.6,269.3,164.5C269.2,164.5,269.2,164.5,269.3,164.5
		C269.2,164.5,269.2,164.5,269.3,164.5L269.3,164.5L269.3,164.5L269.3,164.5z"/>
	<path class="st5" d="M269.3,164.6L269.3,164.6C269.2,164.6,269.2,164.6,269.3,164.6c-0.1-0.1,0-0.1,0-0.1s0,0,0.1,0
		C269.3,164.5,269.3,164.5,269.3,164.6L269.3,164.6L269.3,164.6L269.3,164.6L269.3,164.6z M269.3,164.5L269.3,164.5
		C269.2,164.5,269.2,164.5,269.3,164.5C269.2,164.6,269.2,164.6,269.3,164.5C269.3,164.6,269.3,164.6,269.3,164.5
		C269.3,164.6,269.3,164.6,269.3,164.5L269.3,164.5L269.3,164.5L269.3,164.5L269.3,164.5L269.3,164.5L269.3,164.5L269.3,164.5z"/>
	<path class="st5" d="M269.6,163.8c0,0.1-0.1,0.2-0.2,0.2c-0.1,0-0.2-0.1-0.2-0.2c0-0.1,0.1-0.2,0.2-0.2
		C269.5,163.6,269.6,163.7,269.6,163.8z"/>
	<path class="st3" d="M269.5,163.9L269.5,163.9L269.5,163.9L269.5,163.9c0-0.1,0-0.2,0-0.2C269.5,163.8,269.5,163.8,269.5,163.9
		L269.5,163.9L269.5,163.9L269.5,163.9z"/>
	<path class="st3" d="M269.6,163.8C269.5,163.8,269.5,163.8,269.6,163.8c-0.1,0-0.2,0-0.2,0S269.5,163.8,269.6,163.8L269.6,163.8z"
		/>
	<path class="st5" d="M266,164.2c0,0-0.6,0-1.2,0c-0.7,0-1.2,0-1.2,0s0.6,0,1.2,0C265.4,164.2,266,164.2,266,164.2z"/>
	<path class="st1" d="M255.7,166.2h13.9c0.3,0,0.5,0.2,0.5,0.5v5.4c0,0.3-0.2,0.5-0.5,0.5h-13.9c-0.3,0-0.5-0.2-0.5-0.5v-5.4
		C255.2,166.4,255.4,166.2,255.7,166.2z"/>
	<path class="st3" d="M255.7,166.2h7.1l0,0v6.4l0,0h-7.1c-0.3,0-0.5-0.2-0.5-0.5v-5.5C255.2,166.4,255.4,166.2,255.7,166.2z"/>
	<path class="st2" d="M262.8,172.7c0,0,0-1.4,0-3.2s0-3.2,0-3.2s0,1.4,0,3.2S262.8,172.7,262.8,172.7z"/>
	<path class="st2" d="M269.6,172.6L269.6,172.6c0.2,0,0.3-0.1,0.4-0.2c0-0.1,0.1-0.1,0.1-0.2c0-0.1,0-0.2,0-0.3c0-0.2,0-0.4,0-0.7
		c0-1.1,0-2.6,0-4.5c0-0.1,0-0.1,0-0.2s0-0.1-0.1-0.2c-0.1-0.1-0.2-0.2-0.3-0.2c-0.1,0-0.2,0-0.4,0H269h-1.6h-3.6h-8.1
		c-0.2,0-0.3,0.1-0.4,0.2c0,0.1-0.1,0.2-0.1,0.2v1.5c0,0.7,0,1.4,0,2.1v2c0,0.2,0.1,0.3,0.2,0.4c0.1,0,0.1,0.1,0.2,0.1
		c0.1,0,0.2,0,0.2,0h0.9h6.6h4.5h1.2h0.3L269.6,172.6l-0.1,0h-0.3H268h-4.5h-6.6H256c-0.1,0-0.2,0-0.2,0c-0.3,0-0.5-0.3-0.5-0.5
		c0-0.7,0-1.3,0-2v-3.4c0-0.3,0.3-0.5,0.6-0.5h8.1h3.6h1.4h0.6c0.2,0,0.4,0.1,0.5,0.3c0,0.1,0.1,0.1,0.1,0.2c0,0.1,0,0.1,0,0.2
		c0,1.9,0,3.4,0,4.5c0,0.3,0,0.5,0,0.7c0,0.1,0,0.2,0,0.3s-0.1,0.1-0.1,0.2c-0.1,0.1-0.2,0.1-0.3,0.2
		C269.7,172.6,269.6,172.6,269.6,172.6z"/>
	<path class="st5" d="M266.1,167.6c0,0-0.6,0-1.4,0s-1.4,0-1.4,0s0.6,0,1.4,0S266.1,167.6,266.1,167.6z"/>
	<path class="st2" d="M268.7,168.5c0,0-1.2,0-2.7,0s-2.7,0-2.7,0s1.2,0,2.7,0C267.5,168.4,268.7,168.5,268.7,168.5z"/>
	<path class="st2" d="M268.7,169c0,0-1.2,0-2.7,0s-2.7,0-2.7,0s1.2,0,2.7,0C267.5,168.9,268.7,169,268.7,169z"/>
	<path class="st7" d="M268.2,171.4c0-0.1,0-0.1-0.1-0.2l-0.1-0.1c-0.1,0-0.1,0-0.2,0c0,0-0.1,0-0.1,0.1c0,0,0,0-0.1-0.1
		c0,0-0.1,0-0.2,0c-0.1,0-0.1,0-0.1,0.1l-0.1,0.1c0,0.1,0,0.1,0,0.2s0.1,0.1,0.2,0.2c0.1,0.1,0.2,0.2,0.2,0.2s0.1-0.1,0.2-0.1
		s0.1-0.1,0.2-0.1C268.2,171.6,268.2,171.5,268.2,171.4z"/>
	<path class="st5" d="M267.7,171.9L267.7,171.9c0,0-0.1-0.1-0.2-0.2c-0.1,0-0.1-0.1-0.2-0.2c0-0.1,0-0.1,0-0.2c0-0.1,0-0.1,0.1-0.2
		l0.1-0.1c0.1,0,0.2,0,0.2,0.1c0-0.1,0.1-0.1,0.2-0.1c0.1,0,0.1,0,0.1,0.1c0,0,0.1,0.1,0.1,0.2l0,0c0,0.1,0,0.2,0,0.2
		c0,0.1-0.1,0.1-0.2,0.2C267.8,171.9,267.7,171.9,267.7,171.9L267.7,171.9z M267.5,171.2L267.5,171.2c-0.1,0-0.1,0-0.2,0.1l-0.1,0.1
		c0,0.1,0,0.1,0,0.2c0,0.1,0.1,0.1,0.2,0.2c0.1,0.1,0.2,0.1,0.2,0.1s0.1-0.1,0.2-0.1c0.1,0,0.1-0.1,0.2-0.1c0-0.1,0-0.1,0-0.2l0,0
		c0-0.1-0.1-0.2-0.2-0.2c0,0-0.1,0-0.2,0c0,0,0,0-0.1,0.1l0,0l0,0c0,0,0,0-0.1-0.1C267.6,171.2,267.6,171.2,267.5,171.2L267.5,171.2
		z"/>
	<path class="st5" d="M269.4,171.8h-0.2h-0.4l0,0l0,0v-0.1c0-0.2,0-0.4-0.1-0.5l0,0h-0.1h0.1l0,0l0.1,0.5c0,0,0,0,0,0.1l0,0h0.4
		H269.4L269.4,171.8L269.4,171.8z"/>
	<path class="st5" d="M269.2,171.8h-0.4l0,0l-0.1-0.6h-0.1l0,0l0,0l0,0h0.1l0,0l0,0l0.1,0.5l0,0h0.6l0,0l0,0h-0.2V171.8L269.2,171.8
		z"/>
	<path class="st5" d="M268.8,171.7h0.2h0.4l0,0c0-0.1,0-0.2,0-0.2v-0.1l0,0h-0.5h-0.2h0.2h0.5l0,0l0,0v0.1c0,0.1,0,0.2,0,0.2l0,0
		l0,0H269H268.8L268.8,171.7L268.8,171.7z"/>
	<path class="st5" d="M269.4,171.7L269.4,171.7h-0.6l0,0l0,0l0,0h0.2H269.4v-0.4h-0.7l0,0l0,0l0,0h0.2h0.5l0,0l0,0v0.1
		C269.4,171.5,269.4,171.5,269.4,171.7L269.4,171.7L269.4,171.7z"/>
	<path class="st5" d="M268.9,171.9L268.9,171.9L268.9,171.9C268.9,171.8,268.8,171.8,268.9,171.9L268.9,171.9
		C268.8,172,268.8,172,268.9,171.9C268.9,172,268.9,172,268.9,171.9L268.9,171.9C268.9,172,268.9,171.9,268.9,171.9L268.9,171.9
		C268.9,172,268.9,172,268.9,171.9C268.9,172,268.9,172,268.9,171.9C268.8,171.9,268.8,171.9,268.9,171.9
		C268.8,171.9,268.8,171.9,268.9,171.9L268.9,171.9L268.9,171.9L268.9,171.9z"/>
	<path class="st5" d="M268.9,172L268.9,172C268.8,172,268.8,172,268.9,172c-0.1-0.1,0-0.1,0-0.1l0,0
		C268.9,171.9,269,171.9,268.9,172L268.9,172L268.9,172C269,172,268.9,172,268.9,172L268.9,172z M268.9,171.9L268.9,171.9
		C268.9,171.9,268.8,171.9,268.9,171.9C268.8,172,268.9,172,268.9,171.9C268.9,172,268.9,172,268.9,171.9
		C268.9,172,268.9,172,268.9,171.9L268.9,171.9L268.9,171.9L268.9,171.9L268.9,171.9L268.9,171.9L268.9,171.9L268.9,171.9z"/>
	<path class="st5" d="M269.3,172L269.3,172C269.3,171.9,269.3,171.9,269.3,172C269.3,171.9,269.3,171.9,269.3,172
		C269.2,172,269.2,172,269.3,172C269.2,172,269.2,172,269.3,172L269.3,172L269.3,172L269.3,172L269.3,172L269.3,172L269.3,172
		C269.2,172,269.2,172,269.3,172C269.2,172,269.2,171.9,269.3,172C269.3,171.9,269.3,171.9,269.3,172
		C269.3,171.9,269.3,171.9,269.3,172C269.3,171.9,269.3,171.9,269.3,172z"/>
	<path class="st5" d="M269.3,172L269.3,172C269.2,172,269.2,172,269.3,172c-0.1-0.1,0-0.1,0-0.1s0,0,0.1,0
		C269.3,171.9,269.3,171.9,269.3,172L269.3,172L269.3,172L269.3,172L269.3,172z M269.3,171.9L269.3,171.9
		C269.2,171.9,269.2,171.9,269.3,171.9C269.2,172,269.2,172,269.3,171.9C269.3,172,269.3,172,269.3,171.9L269.3,171.9L269.3,171.9
		L269.3,171.9L269.3,171.9L269.3,171.9L269.3,171.9L269.3,171.9L269.3,171.9z"/>
	<path class="st5" d="M269.6,171.2c0,0.1-0.1,0.2-0.2,0.2c-0.1,0-0.2-0.1-0.2-0.2c0-0.1,0.1-0.2,0.2-0.2
		C269.5,171,269.6,171.1,269.6,171.2L269.6,171.2z"/>
	<path class="st3" d="M269.5,171.3L269.5,171.3L269.5,171.3L269.5,171.3c0-0.1,0-0.2,0-0.2C269.5,171.2,269.5,171.2,269.5,171.3
		L269.5,171.3L269.5,171.3L269.5,171.3z"/>
	<path class="st3" d="M269.6,171.2C269.5,171.2,269.5,171.2,269.6,171.2c-0.1,0-0.2,0-0.2,0S269.4,171.2,269.6,171.2
		C269.5,171.2,269.5,171.2,269.6,171.2z"/>
	<path class="st5" d="M266,171.6c-0.4,0-0.8,0-1.2,0c-0.4,0-0.8,0-1.2,0c0,0,0.6,0,1.2,0C265.4,171.6,266,171.6,266,171.6z"/>
	<path class="st5" d="M257.1,153c0,0-0.9,2.2-0.9,3.4l2.4,0.7l0.4-0.8l0.4,0.8c0,0,1.9-0.5,2.4-0.9c0,0-0.5-2.6-0.9-3.2
		c0,0,0.2-0.5,0.1-0.5c-0.2,0-0.5,0-0.7,0c-0.2,0-0.3,0-0.6,0c-0.3,0-0.3,0.3-0.6,0.2c-0.3-0.1-0.3-0.2-0.7-0.2
		c-0.4-0.1-0.6,0.2-0.8,0.1c-0.2,0-0.3-0.1-0.5-0.1c-0.1,0-0.3,0.1-0.3,0.2v0.1l0,0C257,152.8,257.1,152.9,257.1,153z"/>
	<path class="st5" d="M260.5,152.5c0,0.1,0,0.2,0,0.3s-0.1,0.2-0.2,0.2c0.1-0.1,0.1-0.2,0.1-0.2
		C260.4,152.7,260.5,152.6,260.5,152.5z"/>
	<path class="st4" d="M259.1,154.2C259.1,154.2,259.1,154.1,259.1,154.2l-0.2-0.2l-0.4-0.4l0,0l-0.5,0.6l0,0l0,0l0.5,0.6l0,0
		l0.4-0.4C259,154.3,259,154.2,259.1,154.2L259.1,154.2L259.1,154.2l-0.1,0.1l-0.3,0.5l0,0l0,0l-0.5-0.6l0,0l0,0l0,0l0.5-0.6l0,0
		l0,0l0.3,0.4L259.1,154.2C259.1,154.1,259.1,154.2,259.1,154.2z"/>
	<path class="st4" d="M260.9,153.8L260.9,153.8l-0.1-0.2l-0.4-0.4l0,0l-0.5,0.6l0,0l0,0l0.5,0.6l0,0l0.4-0.4L260.9,153.8
		L260.9,153.8L260.9,153.8l-0.1,0.2l-0.3,0.5l0,0l0,0l-0.5-0.6l0,0l0,0l0,0l0.5-0.6l0,0l0,0l0.3,0.4L260.9,153.8L260.9,153.8z"/>
	<path class="st4" d="M259.6,152.5c0.1,0.1,0.2,0.2,0.3,0.4l0,0l0,0l0,0l0,0l0,0l0,0l0.1-0.1l0.1-0.1l0.1-0.1c0,0,0,0.1-0.1,0.1H260
		c0,0,0,0,0,0.1l0,0l0,0l0,0l0,0l0,0l0,0C259.7,152.8,259.6,152.6,259.6,152.5z"/>
	<path class="st4" d="M257.8,153l-0.1-0.1c-0.1-0.1-0.1-0.2-0.2-0.3l0,0l0,0c-0.1,0.1-0.1,0.2-0.2,0.3c0,0,0,0.1-0.1,0.1
		c0,0,0-0.1,0.1-0.1c0-0.1,0.1-0.2,0.2-0.3l0,0l0,0l0,0c0.1,0.1,0.2,0.2,0.2,0.3C257.8,152.9,257.8,153,257.8,153z"/>
	<path class="st4" d="M260.3,155.7L260.3,155.7l-0.1-0.2l-0.3-0.4l0,0c-0.1,0.2-0.3,0.4-0.5,0.6l0,0l0,0l0.5,0.6l0,0
		c0.1-0.2,0.3-0.3,0.4-0.4V155.7L260.3,155.7L260.3,155.7l-0.1,0.2l-0.3,0.5l0,0l0,0c-0.1-0.2-0.3-0.4-0.5-0.6l0,0l0,0l0,0
		c0.2-0.2,0.3-0.4,0.5-0.6l0,0l0,0l0.3,0.4L260.3,155.7L260.3,155.7z"/>
	<path class="st4" d="M258.2,156.2L258.2,156.2L258,156l-0.4-0.4l0,0l-0.5,0.6l0,0l0,0l0.5,0.6l0,0l0.4-0.4L258.2,156.2L258.2,156.2
		L258.2,156.2l-0.1,0.2l-0.3,0.5l0,0l0,0l-0.5-0.6l0,0l0,0l0,0l0.5-0.6l0,0l0,0L258.2,156.2L258.2,156.2L258.2,156.2z"/>
	<path class="st4" d="M256.4,155.1C256.4,155.1,256.5,155.1,256.4,155.1l0.2-0.2c0.1-0.1,0.3-0.2,0.5-0.4h0.1l0,0
		c-0.1-0.2-0.2-0.4-0.2-0.5s-0.1-0.1-0.1-0.2c0,0.1,0.1,0.1,0.1,0.2c0.1,0.1,0.2,0.3,0.3,0.5l0,0l0,0h-0.1c-0.2,0.1-0.4,0.3-0.5,0.4
		C256.6,155,256.5,155.1,256.4,155.1C256.5,155.1,256.4,155.1,256.4,155.1z"/>
	<path class="st4" d="M261.8,155.6C261.7,155.6,261.7,155.6,261.8,155.6c-0.1-0.1-0.1-0.1-0.2-0.2c-0.1-0.1-0.3-0.3-0.4-0.4l0,0l0,0
		l0,0c0.1-0.2,0.1-0.4,0.2-0.6c0-0.1,0-0.1,0.1-0.2c0,0,0,0,0-0.1c0,0,0,0,0,0.1c0,0,0,0.1-0.1,0.2c0,0.1-0.1,0.3-0.2,0.6l0,0l0,0
		c0.2,0.2,0.3,0.3,0.4,0.4C261.6,155.5,261.7,155.5,261.8,155.6C261.7,155.6,261.8,155.6,261.8,155.6z"/>
	<path class="st5" d="M261,153L261,153c-0.1,0-0.1,0-0.1,0c-0.1,0-0.3,0-0.4,0c-0.2,0-0.4,0-0.6-0.1c-0.2,0-0.5-0.1-0.7-0.1
		c-0.3,0-0.5,0-0.7,0s-0.4,0-0.6,0c-0.1,0-0.3,0-0.4,0h-0.1l0,0l0,0h0.1c0.1,0,0.3,0,0.4,0c0.2,0,0.4,0,0.6,0s0.5,0,0.8-0.1
		c0.2,0,0.5,0,0.8,0.1c0.2,0,0.4,0.1,0.6,0.1c0.1,0,0.3,0,0.4,0C261,153,261,153,261,153z"/>
	<path class="st5" d="M257.4,154.8C257.4,154.8,257.4,154.7,257.4,154.8c0-0.1,0-0.2,0-0.3c0-0.2,0.1-0.4,0.1-0.6
		c0-0.2,0.1-0.5,0.2-0.6c0-0.1,0-0.1,0.1-0.2c0,0,0,0,0-0.1c0,0,0,0,0,0.1c0,0,0,0.1,0,0.2c0,0.2-0.1,0.4-0.2,0.6
		c0,0.2-0.1,0.5-0.1,0.6S257.5,154.7,257.4,154.8C257.5,154.7,257.4,154.8,257.4,154.8z"/>
	<path class="st5" d="M257.8,154.1c0-0.2,0-0.4,0.1-0.5c0-0.2,0.1-0.4,0.1-0.5c0,0.2,0,0.4-0.1,0.5
		C257.9,153.8,257.8,153.9,257.8,154.1z"/>
	<path class="st6" d="M260.7,155.7L260.7,155.7c-0.1-0.2-0.1-0.3-0.2-0.4c-0.2-0.6-0.4-1.3-0.4-1.9c0-0.1,0-0.2,0-0.3V153v0.1
		c0,0.1,0,0.2,0,0.3c0,0.3,0.1,0.7,0.1,1c0.1,0.3,0.2,0.6,0.2,1c0,0.1,0.1,0.2,0.1,0.3C260.7,155.7,260.7,155.7,260.7,155.7z"/>
	<path class="st6" d="M260.6,154c0,0,0-0.1-0.1-0.1c0-0.1-0.1-0.2-0.1-0.3s-0.1-0.3-0.1-0.3v-0.1v0.1c0,0.1,0.1,0.2,0.1,0.3
		s0.1,0.2,0.1,0.3C260.6,153.9,260.6,154,260.6,154z"/>
	<path class="st6" d="M258.8,156.9L258.8,156.9L258.8,156.9c-0.2,0-0.3,0-0.4-0.1c-0.3-0.1-0.6-0.2-0.9-0.4s-0.6-0.3-0.9-0.3
		c-0.1,0-0.2,0-0.3,0c-0.1,0-0.1,0-0.1,0l0,0c0,0,0,0,0.1,0c0.1,0,0.2,0,0.3,0c0.3,0.1,0.6,0.2,0.9,0.3c0.3,0.2,0.7,0.3,0.9,0.4
		C258.6,156.8,258.7,156.8,258.8,156.9L258.8,156.9z"/>
	<path class="st6" d="M261.8,155.9L261.8,155.9c-0.1,0.1-0.2,0.1-0.3,0.2c-0.3,0.2-0.6,0.3-0.8,0.4c-0.3,0.1-0.6,0.2-0.9,0.3
		c-0.1,0-0.2,0.1-0.3,0.1h-0.1h0.1c0.1,0,0.2,0,0.3-0.1c0.2-0.1,0.5-0.2,0.9-0.3c0.4-0.1,0.6-0.3,0.8-0.4L261.8,155.9
		C261.8,155.9,261.8,155.9,261.8,155.9z"/>
	<path class="st5" d="M260.7,152.7c0,0.1,0,0.1-0.1,0.2c0,0.1-0.1,0.1-0.2,0.1l0.1-0.1C260.6,152.8,260.7,152.7,260.7,152.7z"/>
	<path class="st5" d="M258,152.5c0,0,0,0.1,0.1,0.2c0.1,0.1,0.1,0.2,0.1,0.2c-0.1,0-0.1-0.1-0.1-0.2C258,152.7,258,152.6,258,152.5z
		"/>
	<path class="st5" d="M257.8,168.8h3.1c0.2,0,0.3,0.1,0.3,0.3v1.9c0,0.2-0.1,0.3-0.3,0.3h-3.1c-0.2,0-0.3-0.1-0.3-0.3v-1.9
		C257.6,168.9,257.7,168.8,257.8,168.8z"/>
	<path class="st5" d="M260.2,169.3C260.2,169.2,260.2,169.2,260.2,169.3v-0.2c0-0.2,0-0.3,0-0.5s-0.1-0.5-0.3-0.7
		c-0.1-0.1-0.2-0.2-0.4-0.2s-0.3,0-0.5,0c-0.3,0-0.6,0.1-0.8,0.2c-0.1,0.1-0.2,0.2-0.2,0.3s-0.1,0.2-0.1,0.3c0,0.2,0,0.3,0,0.5
		c0,0.1,0,0.1,0,0.1l0,0l0,0V169c0-0.2,0-0.3,0-0.5c0-0.1,0-0.2,0.1-0.3c0-0.1,0.1-0.2,0.2-0.3c0.1-0.1,0.2-0.2,0.4-0.2
		c0.2,0,0.3-0.1,0.5-0.1c0.2,0,0.3,0,0.5,0c0.1,0,0.3,0.1,0.4,0.2c0.2,0.2,0.3,0.4,0.3,0.7c0,0.2,0,0.3,0,0.5
		C260.2,169.1,260.2,169.2,260.2,169.3C260.2,169.2,260.2,169.2,260.2,169.3z"/>
	<path class="st6" d="M257.4,168.8h3.1c0.2,0,0.3,0.1,0.3,0.3v1.9c0,0.2-0.1,0.3-0.3,0.3h-3.1c-0.2,0-0.3-0.1-0.3-0.3v-1.9
		C257.1,168.9,257.2,168.8,257.4,168.8z"/>
	<path class="st5" d="M260.5,171.2h0.1c0,0,0.1,0,0.1-0.1c0,0,0.1-0.1,0.1-0.2c0-0.3,0-0.7,0-1.3c0-0.1,0-0.3,0-0.4
		c0-0.1,0-0.1,0-0.2s0-0.1-0.1-0.2c-0.1-0.1-0.1-0.1-0.2-0.1h-0.2h-0.5h-2.3c-0.1,0-0.2,0-0.2,0.1v0.1v0.7c0,0.4,0,0.7,0,1.1v0.1
		c0,0,0,0.1,0.1,0.1c0.1,0.1,0.1,0.1,0.2,0.1h1.3h1.1h0.3L260.5,171.2L260.5,171.2L260.5,171.2h-0.1H260h-1.3h-0.9h-0.5
		c-0.1,0-0.3-0.1-0.3-0.2v-0.1c0-0.4,0-0.7,0-1.1c0-0.2,0-0.4,0-0.6c0,0,0-0.1,0-0.2s0-0.1,0-0.2c0.1-0.1,0.2-0.2,0.3-0.2h3
		c0.1,0,0.2,0,0.2,0.1c0.1,0,0.1,0.1,0.1,0.2c0,0.1,0,0.2,0,0.2v0.4c0,0.5,0,1,0,1.3c0,0.1,0,0.1-0.1,0.2l-0.1,0.1
		C260.6,171.2,260.5,171.2,260.5,171.2z"/>
	<path class="st5" d="M260.7,170c0,0-0.8,0-1.8,0s-1.8,0-1.8,0s0.8,0,1.8,0S260.7,170,260.7,170z"/>
	<path class="st2" d="M258.9,170.3c0-0.2,0-0.4,0-0.6C259,169.9,259,170.2,258.9,170.3z"/>
	<path class="st7" d="M256.2,162.8c0,0,0.9-2.5,1.1-2.7s1.2-0.4,1.2-0.4l0.7,2.3l0.8-2.4c0,0,0.9,0.3,1.1,0.7
		c0.2,0.4,0.9,2.5,0.9,2.5l-1.4,0.5l0.2,0.8h-3.5l0.2-0.7L256.2,162.8z"/>
	<g class="st9">
		<path d="M258.1,161.2c-0.2-0.4-0.4-0.9-0.4-1.3l-0.3,0.1c0,0.5,0.2,0.9,0.4,1.3c0,0.1,0.1,0.1,0.1,0.2s0.1,0,0.2,0
			C258.2,161.4,258.1,161.3,258.1,161.2z"/>
	</g>
	<g class="st9">
		<path d="M258.5,162.6l-0.1-0.1l0,0c-0.1,0-0.2,0.1-0.2,0.2c0,0.1,0.1,0.2,0.2,0.2c0,0,0,0,0.1,0c0,0,0.1,0,0.1-0.1v-0.1
			C258.6,162.7,258.6,162.7,258.5,162.6z"/>
	</g>
	<g class="st9">
		<path d="M260.7,163.5c-0.1,0.2-0.3,0.3-0.5,0.4c-0.2,0.1-0.4,0.1-0.6,0c-0.1,0-0.2-0.1-0.2-0.1c-0.1,0-0.1,0.1-0.2,0
			c0,0-0.1,0-0.1-0.1s0-0.2,0.1-0.2c0.1,0,0.2,0,0.2,0c0.1,0,0.2,0,0.2,0c0.3,0,0.7-0.2,0.9-0.5l0.2-0.2l-0.1,0.5L260.7,163.5z"/>
	</g>
	<path class="st5" d="M260.9,162.1c0,0.2-0.1,0.4-0.1,0.6s-0.1,0.4-0.1,0.6c0-0.2,0.1-0.4,0.1-0.6S260.9,162.3,260.9,162.1z"/>
	<path class="st3" d="M260.9,160C260.9,160.1,260.9,160.1,260.9,160c0,0.1,0,0.2-0.1,0.2c-0.1,0.2-0.2,0.3-0.4,0.4
		c-0.2,0.1-0.4,0.1-0.5,0.1s-0.1,0-0.2,0c0,0,0,0-0.1,0c0,0,0.1,0,0.2,0c0.2,0,0.4,0,0.5-0.1c0.2-0.1,0.3-0.2,0.4-0.4
		C260.9,160.1,260.9,160,260.9,160z"/>
	<path class="st3" d="M261.1,160.3L261.1,160.3c-0.1,0.1-0.1,0.2-0.1,0.2c-0.3,0.4-0.7,0.5-1.2,0.5c-0.1,0-0.1,0-0.2,0
		c0,0,0,0-0.1,0c0,0,0.1,0,0.3,0.1c0.4,0.1,0.9-0.1,1.2-0.4C261.1,160.4,261.1,160.4,261.1,160.3z"/>
	<path class="st3" d="M259.1,161.7C259,161.7,259,161.8,259.1,161.7c-0.1,0-0.2,0.1-0.3,0.1c-0.2,0.1-0.4,0.2-0.6,0.3
		s-0.4,0.3-0.5,0.5c-0.1,0.1-0.1,0.1-0.1,0.2c0,0,0,0-0.1,0.1c0,0,0,0,0-0.1c0,0,0.1-0.1,0.1-0.2c0.2-0.2,0.3-0.3,0.5-0.5
		c0.2-0.1,0.4-0.2,0.6-0.3C258.9,161.8,258.9,161.8,259.1,161.7C259,161.7,259,161.7,259.1,161.7z"/>
	<path class="st3" d="M259,161.5L259,161.5c-0.1,0-0.2,0.1-0.3,0.1c-0.2,0.1-0.4,0.2-0.6,0.3c-0.2,0.1-0.4,0.2-0.6,0.3
		c-0.1,0-0.1,0.1-0.2,0.1c0,0,0,0-0.1,0c0,0,0,0,0.1,0c0,0,0.1-0.1,0.2-0.1c0.2-0.1,0.4-0.2,0.6-0.3s0.4-0.2,0.7-0.2
		C258.8,161.5,258.9,161.5,259,161.5L259,161.5z"/>
	<path class="st3" d="M261.6,162.9c-0.1-0.1-0.2-0.2-0.3-0.2c-0.1-0.1-0.2-0.1-0.4-0.2h0.1c0.1,0,0.2,0.1,0.3,0.1
		C261.4,162.6,261.4,162.8,261.6,162.9C261.5,162.9,261.5,162.9,261.6,162.9z"/>
	<path class="st3" d="M256.7,162.9c-0.1-0.1-0.1-0.2-0.2-0.4c0-0.1-0.1-0.3-0.1-0.4c0,0,0.1,0.2,0.1,0.4
		C256.6,162.7,256.7,162.9,256.7,162.9z"/>
	<path class="st3" d="M258.2,164.1c-0.1,0-0.2-0.1-0.4-0.2c-0.1-0.1-0.2-0.1-0.3-0.2c0,0,0.2,0.1,0.4,0.2
		C258,164,258.2,164.1,258.2,164.1z"/>
	<path class="st5" d="M259.1,162.5v-0.1c0-0.1-0.1-0.2-0.1-0.3c-0.1-0.2-0.2-0.6-0.3-1c-0.1-0.4-0.2-0.7-0.3-1
		c0-0.1-0.1-0.2-0.1-0.3v-0.1v0.1c0,0.1,0.1,0.2,0.1,0.3c0.1,0.2,0.2,0.6,0.3,1c0.1,0.4,0.2,0.7,0.3,1c0,0.1,0.1,0.2,0.1,0.3
		C259.1,162.4,259.1,162.4,259.1,162.5z"/>
	<path class="st5" d="M259.4,162.5c0,0-0.1,0-0.2,0c0,0-0.1,0-0.2,0C259.2,162.5,259.3,162.5,259.4,162.5L259.4,162.5z"/>
	<path class="st5" d="M260.2,159.7c0,0-0.2,0.6-0.4,1.4c-0.2,0.8-0.4,1.4-0.5,1.4c-0.1,0,0.2-0.6,0.4-1.4
		C260,160.3,260.2,159.7,260.2,159.7z"/>
	<path class="st5" d="M257.5,163.4c0,0-0.1-0.3-0.2-0.7c-0.1-0.2-0.1-0.5-0.1-0.7c0,0,0.1,0.3,0.2,0.7
		C257.5,163.1,257.6,163.4,257.5,163.4z"/>
	<path d="M261.6,141.6l-0.2,0.7h-0.2l-0.2-0.5l-0.2,0.5h-0.2l-0.2-0.7h0.2l0.2,0.5l0.2-0.5h0.2l0.2,0.5L261.6,141.6L261.6,141.6z"/>
	<path d="M261.7,141.6h0.2v0.7h-0.2V141.6z"/>
	<path d="M261.9,142.2l0.1-0.1c0.1,0,0.2,0.1,0.2,0.1c0.1,0,0.1,0,0.1-0.1s-0.4,0-0.4-0.3c0-0.1,0.1-0.2,0.3-0.2
		c0.1,0,0.2,0,0.2,0.1v0.1c-0.1,0-0.1-0.1-0.2-0.1c-0.1,0-0.1,0-0.1,0.1s0.4,0,0.4,0.3c0,0.1-0.1,0.2-0.3,0.2
		C262.1,142.3,262,142.3,261.9,142.2z"/>
	<path d="M263.3,141.6v0.7h-0.2V142h-0.3v0.3h-0.2v-0.7h0.2v0.3h0.3v-0.3H263.3z"/>
	<path d="M263.6,141.6L263.6,141.6v0.7h0.4v0.1h-0.5L263.6,141.6z"/>
	<path d="M264.2,141.6L264.2,141.6l-0.1,0.7H264L264.2,141.6z"/>
	<path d="M264.3,142.2L264.3,142.2c0.1,0,0.2,0,0.3,0s0.2,0,0.2-0.1c0-0.2-0.4-0.1-0.4-0.3c0-0.1,0.1-0.2,0.3-0.2
		c0.1,0,0.2,0,0.2,0.1v0.1c-0.1,0-0.1-0.1-0.2-0.1c-0.1,0-0.2,0.1-0.2,0.1c0,0.2,0.4,0.1,0.4,0.3c0,0.1-0.1,0.2-0.3,0.2
		C264.5,142.3,264.4,142.3,264.3,142.2z"/>
	<path d="M265.3,141.6H265v-0.1h0.6v0.1H265.3v0.7h-0.1L265.3,141.6z"/>
	<path class="st5" d="M270,141.4c0,0-0.3,0-0.8,0c-0.4,0-0.8,0-0.8,0s0.3,0,0.8,0S270,141.4,270,141.4z"/>
	<path class="st5" d="M270,141.8c0,0-0.3,0-0.8,0s-0.8,0-0.8,0s0.3,0,0.8,0S270,141.8,270,141.8z"/>
	<path class="st5" d="M270,142.2c0,0-0.3,0-0.8,0c-0.3,0-0.5,0-0.8,0c0,0,0.3,0,0.8,0C269.5,142.2,269.8,142.2,270,142.2z"/>
</g>
<g id="freepik--Character--inject-25">
	<polygon class="st7" points="258.4,175.7 257.9,179.7 255.8,179.5 256.3,175.5 	"/>
	<path class="st5" d="M256.9,179.4c0,0,0.1-0.9,0.2-1.9c0.2-1.1,0.3-1.9,0.3-1.9s-0.1,0.9-0.2,1.9
		C257.1,178.5,256.9,179.4,256.9,179.4z"/>
	<polygon class="st5" points="257.9,179.4 255.8,179.2 255.8,179.5 257.9,179.7 	"/>
	<path class="st5" d="M255.9,178.2C255.9,178.2,256,178.1,255.9,178.2c0.1-0.2,0.2-0.2,0.3-0.3c0.1-0.1,0.2-0.1,0.4-0.2
		c0.5-0.2,1,0,1.3,0.4c0,0.1,0.1,0.2,0.1,0.2v0.1c0-0.1-0.1-0.2-0.2-0.3c-0.2-0.2-0.4-0.4-0.7-0.4s-0.6,0-0.9,0.2
		C256,178.1,255.9,178.2,255.9,178.2z"/>
	<g class="st9">
		<polygon points="258.2,177.3 258.2,177.7 256,177.5 256.1,177.1 		"/>
	</g>
	<polygon class="st7" points="265.3,176 265,180 262.9,179.9 263.1,175.9 	"/>
	<path class="st5" d="M264,179.8c0,0,0-0.9,0.1-2s0.2-2,0.2-2s0,0.9-0.1,2C264.1,178.9,264,179.8,264,179.8z"/>
	<polygon class="st5" points="265,179.7 262.9,179.6 262.9,179.9 265,180 	"/>
	<path class="st5" d="M262.9,178.6C262.9,178.6,263,178.6,262.9,178.6c0.1-0.2,0.2-0.2,0.3-0.3c0.1-0.1,0.2-0.2,0.4-0.2
		c0.2-0.1,0.3-0.1,0.5-0.1c0.3,0,0.6,0.2,0.8,0.4c0.1,0.1,0.1,0.2,0.1,0.2v0.1c-0.1-0.1-0.1-0.2-0.2-0.3c-0.2-0.2-0.5-0.4-0.8-0.4
		s-0.6,0.1-0.8,0.3C263,178.5,262.9,178.6,262.9,178.6z"/>
	<g class="st9">
		<polygon points="265.2,177.6 265.1,178 263,177.9 263,177.6 		"/>
	</g>
	<path class="st5" d="M257.2,157.3c-0.1,0-0.3,2.6-0.2,3.5s0.1,7.6,0.1,7.6s-0.4,0.3-0.4,0.7s-0.8,7.9-0.8,7.9l2.4,0.4
		c0,0,2.2-8.1,2.3-9.3c0.1-1.1,1.6-8.9,1.6-8.9s0.5,7.3,0.5,8.4s0,9.8,0,9.8s1.8,0.3,2.7,0c0,0,0.7-6.5,0.7-8.7v-3.5
		c0,0,0.9-4,1.3-6.1c0.4-2.1,0-4,0-4l-7.3-1L257.2,157.3z"/>
	<path class="st6" d="M259.1,169.1c-0.3-0.1-0.6-0.1-0.9-0.1s-0.6,0.1-0.9,0.3c0.1-0.1,0.2-0.1,0.2-0.1c0.4-0.2,0.9-0.2,1.3-0.1
		C258.9,169,259,169,259.1,169.1z"/>
	<path class="st6" d="M259.3,168.4c-0.2,0-0.5,0-0.7,0s-0.5,0-0.7-0.1c0.2,0,0.5,0,0.7,0C258.8,168.4,259,168.4,259.3,168.4z"/>
	<path class="st6" d="M264.3,169.9C264.3,169.9,264.2,169.9,264.3,169.9c-0.1-0.1-0.2-0.2-0.2-0.2c-0.4-0.4-0.6-1-0.6-1.6
		c0-0.1,0-0.2,0-0.2v-0.1c0,0,0,0.1,0,0.3c0.1,0.6,0.3,1.1,0.6,1.5C264.2,169.9,264.3,169.9,264.3,169.9z"/>
	<path class="st6" d="M262.3,159.1L262.3,159.1l-0.2,0.2l-0.1,0.1c-0.3,0.2-0.6,0.3-0.9,0.4c-0.3,0.1-0.7,0.1-1,0.1H260h-0.1h-0.1
		c0,0-0.1,0-0.1-0.1c0.1,0,0.3,0.1,0.4,0.1c0.3,0,0.7,0,1-0.1s0.6-0.2,0.9-0.4l0.1-0.1L262.3,159.1
		C262.2,159.1,262.3,159.1,262.3,159.1z"/>
	<path class="st10" d="M271.2,138.6c0-0.4,0.1-0.7,0.2-1c0.2-0.5,1-1.3,1-1.3s1-0.8,1.1-0.8s0.1,0.2,0,0.3c-0.1,0.1-0.7,0.8-0.7,0.8
		s0.2,0.1,0.2,0.2s0,0.2,0,0.2s0.2,0.1,0.3,0.2c0,0.1,0,0.2,0,0.2c0.1,0,0.1,0.1,0.1,0.2c0,0.1,0,0.2,0,0.3c0,0-0.4,0.4-0.5,0.5
		c-0.2,0.1-0.4,0.1-0.4,0.1l-0.1,0.2v0.5L271.2,138.6z"/>
	<path class="st6" d="M255.6,142.5c0,0-3.7,6.6-3.7,7.6c0,1.8,5.1,3.3,5.1,3.3l0.7-2.1l-2.6-1.8l1.9-4.2L255.6,142.5z"/>
	<path class="st6" d="M255.6,142.5c0.5-0.4,1.1-0.6,1.7-0.7c1-0.1,2.8-0.2,2.8-0.2s4.9-1.1,5.2-0.9c0.4,0.2,0.9,1.5,0.9,2.1
		c0.1,0.6-0.4,6.5-0.4,6.5s2.2,6.8,2,7c-0.1,0.1-2.7,1-5.4,1.2l-0.1-2l-0.3,2c-2.5,0.2-5.3,0.3-5.3,0.3s1.9-6.7,1.9-6.9
		C258.5,150.7,255.3,143.2,255.6,142.5z"/>
	<path class="st6" d="M265.3,140.8c0,0,1.8,1,2,1c0.2,0,0.4-0.4,0.7-0.1l1.6-0.3l1.6-2.9c0.6,0.2,1.1,0.5,1.6,1c0,0-0.9,3-1.4,3.5
		s-2.6,2-5.5,2l-0.4-2.4L265.3,140.8z"/>
	<path class="st5" d="M267.1,144.3c0,0,0.1-0.1,0.2-0.4c0.1-0.1,0.1-0.3,0.1-0.4c0-0.2,0.1-0.3,0.1-0.5s0-0.3,0-0.5
		c0-0.1,0-0.3-0.1-0.4c-0.1-0.2-0.1-0.4-0.1-0.4s0,0.1,0.1,0.1c0,0.1,0.1,0.2,0.1,0.3s0.1,0.3,0.1,0.4c0,0.2,0,0.4,0,0.5
		c0,0.2,0,0.4-0.1,0.5c0,0.1-0.1,0.3-0.2,0.4C267.3,144.1,267.2,144.2,267.1,144.3L267.1,144.3z"/>
	<path class="st5" d="M270.2,142.1c-0.3-0.1-0.5-0.3-0.7-0.6c0.1,0.1,0.2,0.2,0.3,0.3C270,141.8,270.1,141.9,270.2,142.1z"/>
	<path class="st10" d="M257,153.3c0,0,0.1,0.3,0.5,0c0,0,0.6-0.1,0.9-0.4c0.3-0.3,0.4-0.5,0.6-0.5s0.8-0.1,0.8-0.1s0.2-0.3,0-0.4
		c-0.2-0.1-1.1,0-1.1,0h-0.2v-0.3v-0.3c0,0-0.5,0.2-0.5,0.3c0,0-0.4-0.1-0.4,0.1L257,153.3z"/>
	<path class="st5" d="M257.3,147.7c0,0,0-0.1-0.1-0.1c0-0.1-0.1-0.2-0.2-0.4c-0.1-0.3-0.3-0.7-0.5-1.2s-0.3-0.9-0.4-1.2
		c0-0.2-0.1-0.3-0.1-0.4v-0.1v0.1l0.1,0.4c0.1,0.3,0.2,0.7,0.4,1.2s0.3,0.9,0.4,1.2l0.1,0.4C257.3,147.6,257.3,147.7,257.3,147.7z"
		/>
	<path class="st5" d="M263.3,151.1c0,0,0,0.1-0.1,0.2c-0.1,0.1-0.2,0.2-0.3,0.4c-0.3,0.4-0.7,0.8-1.1,1.1c-0.4,0.3-0.8,0.6-1.3,0.8
		c-0.2,0.1-0.3,0.2-0.4,0.2c0,0-0.1,0-0.2,0.1c0,0,0.1-0.1,0.2-0.1c0.1,0,0.2-0.1,0.4-0.2c0.9-0.5,1.7-1.1,2.4-2
		c0.1-0.2,0.2-0.3,0.3-0.4C263.3,151.2,263.3,151.2,263.3,151.1z"/>
	<path class="st5" d="M255.2,149.5c0,0-0.3,0.1-0.6,0.2c-0.3,0.1-0.6,0.3-0.6,0.2c0.2-0.1,0.4-0.2,0.6-0.3
		C254.8,149.5,255,149.5,255.2,149.5z"/>
	<g class="st9">
		<path d="M256.6,146.1c-0.4-0.2-0.8-0.7-0.8-1.1c-0.1-0.4,0.1-0.9,0.1-1.3C256.1,144.5,256.4,145.3,256.6,146.1"/>
	</g>
	<g class="st9">
		<path d="M260.4,154.3c1.3,0.4,2.7-0.3,3.1-1.5c0-0.1,0.1-0.2,0.1-0.3C262.6,153.1,261.5,153.8,260.4,154.3z"/>
	</g>
	<path class="st5" d="M266.1,142.2v0.1c0,0.1,0,0.2,0.1,0.4c0.1,0.8,0.1,1.6-0.1,2.3c0,0.1,0,0.3-0.1,0.3v0.1c0,0,0-0.2,0.1-0.5
		c0.1-0.8,0.1-1.6,0-2.3C266.1,142.4,266.1,142.2,266.1,142.2z"/>
	<g class="st9">
		<path d="M264.1,140.1l-5.7,8.8c1.4,0.7,3.1,1,4.4,0.2c0.4,0.5,1.1,0.3,1.5-0.2c0.4-0.5,0.4-1.1,0.4-1.7
			C264.8,144.9,264.4,142.5,264.1,140.1z"/>
	</g>
	<path class="st5" d="M261.8,133.9c-0.6-0.1-1.2,0.2-1.7,0.6s-0.8,1-1,1.6c-0.5,1.1-0.7,2.3-1,3.5c-0.4,1.7-0.8,3.5-0.9,5.3
		c-0.1,1.8,0.4,2.8,1.2,4.5l2.7-0.4v-0.5l0.4,0.5l1.1-0.2l0.3-2.8l0.5,2.6l0.9-0.1c0.9-3.5-0.1-5.8,0.4-9.3c0.1-0.8,0.3-1.7,0.3-2.5
		s-0.4-1.8-1-2.4C263.4,133.6,262.4,133.4,261.8,133.9"/>
	<path class="st6" d="M262.5,148.7C262.5,148.6,262.4,148.6,262.5,148.7c0-0.1,0-0.1,0-0.2l-0.1-0.5c-0.1-0.4-0.2-1-0.2-1.7
		c-0.1-0.8-0.2-1.7-0.1-2.5c0-0.5,0-1,0.1-1.5c0.1-0.5,0.2-1,0.3-1.6c0.3-1,0.7-2,0.9-2.9c0.1-0.4,0.2-0.9,0.2-1.3s-0.1-0.8-0.2-1.1
		c-0.1-0.3-0.2-0.6-0.4-0.8c-0.1-0.2-0.3-0.4-0.5-0.5c-0.3-0.1-0.4-0.2-0.5-0.3h-0.1l0,0l0,0h0.1c0.1,0.1,0.3,0.1,0.4,0.2
		c0.2,0.1,0.4,0.3,0.5,0.5c0.2,0.3,0.3,0.5,0.4,0.9c0.1,0.4,0.2,0.8,0.2,1.2c0,0.5-0.1,0.9-0.2,1.3c-0.2,0.9-0.6,1.9-0.9,2.9
		c-0.1,0.5-0.2,1-0.3,1.6c-0.1,0.5-0.1,1-0.1,1.5c0,0.8,0,1.7,0.1,2.5c0.1,0.7,0.2,1.3,0.2,1.7c0,0.2,0,0.3,0.1,0.5
		C262.4,148.6,262.4,148.6,262.5,148.7C262.5,148.6,262.5,148.6,262.5,148.7z"/>
	<path class="st6" d="M258.7,146.9C258.7,146.9,258.7,146.8,258.7,146.9C258.7,146.8,258.7,146.8,258.7,146.9v-0.5
		c0-0.1,0-0.2,0-0.3s0-0.2,0-0.3c0-0.2,0-0.5,0-0.8c0-0.1,0-0.3,0-0.5s0-0.3,0-0.5c0-0.3,0-0.7,0-1.1c0.1-0.8,0.2-1.7,0.3-2.5
		c0.2-0.8,0.4-1.6,0.6-2.4c0.1-0.4,0.2-0.7,0.4-1c-0.1-0.2,0-0.4,0-0.5l0.2-0.4c0.1-0.3,0.2-0.5,0.3-0.7c0-0.1,0.1-0.2,0.1-0.3
		l0.1-0.2c0.1-0.1,0.1-0.2,0.2-0.3v-0.1l0,0l0,0c0,0,0,0,0,0.1c0,0.1-0.1,0.2-0.2,0.3c0,0.1-0.1,0.2-0.1,0.2c0,0.1-0.1,0.2-0.1,0.3
		c-0.1,0.2-0.2,0.5-0.3,0.7c-0.1,0.1-0.1,0.3-0.2,0.4c0,0.2,0,0.3-0.1,0.5c-0.1,0.3-0.2,0.7-0.4,1c-0.2,0.8-0.4,1.6-0.6,2.4
		c-0.2,0.8-0.3,1.7-0.3,2.5c0,0.4,0,0.8-0.1,1.1c0,0.2,0,0.3,0,0.5s0,0.3,0,0.5c0,0.3,0,0.6,0,0.8c0,0.1,0,0.2,0,0.3s0,0.2,0,0.3
		c0,0.2,0,0.3,0,0.4C258.6,146.8,258.6,146.8,258.7,146.9C258.6,146.8,258.6,146.9,258.7,146.9z"/>
	<path class="st6" d="M260.1,149C260.1,149,260.1,148.9,260.1,149c0-0.1,0-0.1,0-0.1c0-0.1-0.1-0.2-0.1-0.4c0-0.1,0-0.2-0.1-0.3
		c0-0.1,0-0.2-0.1-0.3c0-0.2-0.1-0.5-0.2-0.8c0-0.2-0.1-0.3-0.1-0.5s0-0.3-0.1-0.5c-0.1-0.2-0.1-0.4-0.1-0.6s0-0.4,0-0.6
		c-0.1-0.9,0-1.8,0-2.6c0.1-0.9,0.2-1.8,0.4-2.6c0-0.2,0.1-0.4,0.1-0.6c0-0.2,0.1-0.4,0.1-0.5c0.1-0.3,0.2-0.7,0.3-1
		s0.2-0.5,0.3-0.8c0.1-0.2,0.2-0.4,0.2-0.6l0.3-0.4v-0.1l0,0l0,0v0.1c0,0.1-0.1,0.2-0.1,0.4c0,0.2-0.1,0.4-0.2,0.6s-0.2,0.5-0.3,0.8
		c-0.1,0.3-0.2,0.6-0.3,1c0,0.2-0.1,0.4-0.1,0.5l-0.1,0.6c-0.2,0.9-0.3,1.7-0.4,2.6c-0.1,0.9-0.1,1.8,0,2.6c0,0.2,0,0.4,0,0.6
		s0,0.4,0.1,0.5s0,0.3,0.1,0.5c0,0.2,0.1,0.3,0.1,0.5c0,0.3,0.1,0.6,0.2,0.8c0,0.1,0,0.2,0.1,0.3c0,0.1,0,0.2,0.1,0.3l0.1,0.4
		C260.1,148.8,260.1,148.9,260.1,149C260.1,148.9,260.1,148.9,260.1,149z"/>
	<path class="st6" d="M263.9,147.3L263.9,147.3c0-0.1,0-0.1-0.1-0.1V147c0-0.1-0.1-0.1-0.1-0.2c-0.2-0.5-0.4-1-0.4-1.5
		c-0.2-1.2-0.2-2.5,0.1-3.8c0.1-0.5,0.3-1,0.4-1.5c0.2-0.5,0.3-1,0.4-1.5s0.2-0.9,0.2-1.4c0-0.4,0-0.8-0.1-1.3
		c-0.1-0.4-0.2-0.7-0.4-1c-0.3-0.5-0.7-0.8-1.2-1c-0.1-0.1-0.3-0.1-0.4-0.1h-0.1l0,0l0,0h0.1c0.1,0,0.3,0.1,0.4,0.1
		c0.5,0.2,0.9,0.6,1.2,1c0.2,0.3,0.4,0.7,0.4,1c0.1,0.4,0.2,0.8,0.1,1.3c0,0.5-0.1,0.9-0.2,1.4s-0.2,1-0.4,1.5s-0.3,1-0.4,1.5
		s-0.2,0.9-0.2,1.4c-0.1,1.3,0.1,2.7,0.6,3.9c0,0.1,0.1,0.2,0.1,0.2l0.1,0.2L263.9,147.3C263.9,147.2,263.9,147.3,263.9,147.3z"/>
</g>
<g id="freepik--Floor--inject-25">
	<path class="st5" d="M289.8,156.6c0,0-11.1,0-24.8,0c-13.7,0-24.8,0-24.8,0s11.1,0,24.8,0C278.7,156.6,289.8,156.6,289.8,156.6z"/>
</g>
<rect x="-6" y="-5.5" class="st11" width="542.1" height="324.1"/>
<g class="st12">
	<path d="M155,143.9v-28H166c2.1,0,3.9,0.4,5.4,1.2c1.5,0.8,2.6,1.9,3.4,3.4c0.8,1.4,1.2,3.1,1.2,4.9c0,1.9-0.4,3.5-1.2,4.9
		s-2,2.5-3.5,3.3s-3.4,1.2-5.5,1.2h-7.1v-4.8h6.1c1.1,0,2.1-0.2,2.8-0.6c0.7-0.4,1.3-0.9,1.7-1.7s0.6-1.5,0.6-2.4
		c0-0.9-0.2-1.7-0.6-2.4c-0.4-0.7-0.9-1.2-1.7-1.6c-0.7-0.4-1.7-0.6-2.8-0.6h-4v23.2H155z"/>
	<path d="M185.7,115.9v28h-5.8v-28H185.7z"/>
	<path d="M196.3,144.3c-1.3,0-2.5-0.2-3.6-0.7c-1-0.5-1.9-1.2-2.5-2.1c-0.6-0.9-0.9-2.1-0.9-3.5c0-1.2,0.2-2.1,0.6-2.9
		c0.4-0.8,1-1.4,1.8-1.9s1.6-0.8,2.5-1.1c0.9-0.2,1.9-0.4,3-0.5c1.2-0.1,2.2-0.2,3-0.4c0.7-0.1,1.3-0.3,1.6-0.5
		c0.3-0.2,0.5-0.6,0.5-1v-0.1c0-0.9-0.3-1.5-0.8-2s-1.3-0.7-2.3-0.7c-1,0-1.9,0.2-2.5,0.7s-1,1-1.2,1.7l-5.4-0.4
		c0.3-1.3,0.8-2.4,1.6-3.3c0.8-0.9,1.8-1.7,3.1-2.2c1.3-0.5,2.7-0.8,4.4-0.8c1.2,0,2.3,0.1,3.4,0.4c1.1,0.3,2,0.7,2.9,1.3
		c0.8,0.6,1.5,1.3,2,2.2c0.5,0.9,0.7,2,0.7,3.2v14.2h-5.5V141h-0.2c-0.3,0.7-0.8,1.2-1.4,1.7c-0.6,0.5-1.2,0.9-2,1.2
		S197.4,144.3,196.3,144.3z M198,140.3c0.9,0,1.6-0.2,2.3-0.5c0.7-0.3,1.2-0.8,1.5-1.4c0.4-0.6,0.6-1.2,0.6-2v-2.2
		c-0.2,0.1-0.4,0.2-0.7,0.3c-0.3,0.1-0.7,0.2-1.1,0.3c-0.4,0.1-0.8,0.1-1.2,0.2c-0.4,0.1-0.7,0.1-1.1,0.2c-0.7,0.1-1.3,0.3-1.8,0.5
		s-0.9,0.5-1.2,0.9c-0.3,0.4-0.4,0.8-0.4,1.4c0,0.8,0.3,1.4,0.9,1.8C196.4,140.1,197.1,140.3,198,140.3z"/>
	<path d="M222.2,144.3c-2.2,0-4-0.5-5.6-1.4s-2.7-2.2-3.6-3.8c-0.8-1.6-1.2-3.5-1.2-5.6c0-2.2,0.4-4,1.3-5.7s2-2.9,3.6-3.8
		c1.5-0.9,3.4-1.4,5.5-1.4c1.8,0,3.4,0.3,4.8,1c1.4,0.7,2.5,1.6,3.3,2.8c0.8,1.2,1.2,2.6,1.3,4.2h-5.5c-0.2-1-0.6-1.9-1.2-2.5
		c-0.7-0.6-1.5-1-2.6-1c-0.9,0-1.7,0.2-2.4,0.7s-1.2,1.2-1.6,2.1c-0.4,0.9-0.6,2.1-0.6,3.4c0,1.3,0.2,2.5,0.6,3.4
		c0.4,0.9,0.9,1.7,1.6,2.1c0.7,0.5,1.5,0.7,2.4,0.7c0.7,0,1.3-0.1,1.8-0.4c0.5-0.3,1-0.7,1.3-1.2c0.4-0.5,0.6-1.2,0.7-1.9h5.5
		c-0.1,1.6-0.5,3-1.3,4.2c-0.8,1.2-1.9,2.2-3.2,2.9C225.7,144,224.1,144.3,222.2,144.3z"/>
	<path d="M244.9,144.3c-2.2,0-4-0.4-5.6-1.3c-1.6-0.9-2.8-2.1-3.6-3.8s-1.3-3.5-1.3-5.8c0-2.2,0.4-4.1,1.3-5.7s2-2.9,3.6-3.8
		c1.5-0.9,3.3-1.4,5.4-1.4c1.4,0,2.7,0.2,3.9,0.7c1.2,0.4,2.2,1.1,3.1,2c0.9,0.9,1.6,2,2.1,3.3s0.8,2.9,0.8,4.7v1.6h-17.8v-3.6h12.3
		c0-0.8-0.2-1.6-0.5-2.2c-0.4-0.6-0.9-1.2-1.5-1.5c-0.6-0.4-1.4-0.6-2.2-0.6c-0.9,0-1.7,0.2-2.3,0.6c-0.7,0.4-1.2,0.9-1.6,1.6
		s-0.6,1.4-0.6,2.3v3.4c0,1,0.2,1.9,0.6,2.7c0.4,0.8,0.9,1.3,1.6,1.8c0.7,0.4,1.6,0.6,2.5,0.6c0.6,0,1.2-0.1,1.8-0.3
		c0.5-0.2,1-0.5,1.4-0.8c0.4-0.4,0.7-0.8,0.9-1.3l5.4,0.4c-0.3,1.3-0.8,2.4-1.7,3.4c-0.8,1-1.9,1.7-3.3,2.2
		C248.2,144.1,246.6,144.3,244.9,144.3z"/>
	<path d="M264.2,131.8v12.2h-5.8v-28h5.7v10.7h0.2c0.5-1.2,1.2-2.2,2.3-2.9c1.1-0.7,2.4-1.1,4-1.1c1.5,0,2.7,0.3,3.8,1
		c1.1,0.6,1.9,1.5,2.5,2.7c0.6,1.2,0.9,2.6,0.9,4.2v13.4H272v-12.3c0-1.3-0.3-2.3-1-3c-0.7-0.7-1.6-1.1-2.8-1.1
		c-0.8,0-1.5,0.2-2.1,0.5c-0.6,0.3-1.1,0.8-1.4,1.5C264.4,130.1,264.2,130.9,264.2,131.8z"/>
	<path d="M291.9,144.3c-2.1,0-4-0.5-5.5-1.4c-1.5-0.9-2.7-2.2-3.6-3.8s-1.3-3.5-1.3-5.7c0-2.2,0.4-4.1,1.3-5.7s2-2.9,3.6-3.8
		c1.5-0.9,3.4-1.4,5.5-1.4c2.1,0,4,0.5,5.5,1.4s2.7,2.2,3.6,3.8c0.8,1.6,1.3,3.5,1.3,5.7c0,2.2-0.4,4-1.3,5.7
		c-0.8,1.6-2,2.9-3.6,3.8S294.1,144.3,291.9,144.3z M292,139.8c1,0,1.8-0.3,2.4-0.8c0.6-0.6,1.1-1.3,1.5-2.3c0.3-1,0.5-2,0.5-3.3
		c0-1.2-0.2-2.3-0.5-3.3s-0.8-1.7-1.5-2.3c-0.6-0.6-1.5-0.8-2.4-0.8c-1,0-1.8,0.3-2.5,0.8c-0.7,0.6-1.2,1.3-1.5,2.3
		c-0.3,1-0.5,2-0.5,3.3c0,1.2,0.2,2.3,0.5,3.3c0.3,1,0.8,1.7,1.5,2.3C290.2,139.5,291,139.8,292,139.8z"/>
	<path d="M311.9,115.9v28h-5.8v-28H311.9z"/>
	<path d="M324.3,144.3c-1.6,0-3-0.4-4.3-1.2c-1.3-0.8-2.3-2-3.1-3.7c-0.8-1.6-1.1-3.6-1.1-5.9c0-2.4,0.4-4.4,1.2-6
		c0.8-1.6,1.8-2.8,3.1-3.6c1.3-0.8,2.7-1.2,4.2-1.2c1.2,0,2.2,0.2,3,0.6c0.8,0.4,1.4,0.9,1.9,1.5s0.9,1.2,1.1,1.7h0.2v-10.5h5.8v28
		h-5.7v-3.4h-0.2c-0.3,0.6-0.7,1.2-1.2,1.7c-0.5,0.6-1.1,1-1.9,1.4S325.5,144.3,324.3,144.3z M326.2,139.6c0.9,0,1.7-0.3,2.4-0.8
		c0.7-0.5,1.2-1.2,1.5-2.2c0.4-0.9,0.5-2,0.5-3.3c0-1.2-0.2-2.3-0.5-3.3s-0.8-1.6-1.5-2.1s-1.5-0.8-2.4-0.8c-1,0-1.8,0.3-2.4,0.8
		c-0.7,0.5-1.2,1.2-1.5,2.2c-0.3,0.9-0.5,2-0.5,3.2c0,1.2,0.2,2.3,0.5,3.2c0.3,0.9,0.8,1.7,1.5,2.2
		C324.4,139.4,325.2,139.6,326.2,139.6z"/>
	<path d="M350.6,144.3c-2.2,0-4-0.4-5.6-1.3s-2.8-2.1-3.6-3.8s-1.3-3.5-1.3-5.8c0-2.2,0.4-4.1,1.3-5.7s2-2.9,3.6-3.8
		c1.5-0.9,3.3-1.4,5.4-1.4c1.4,0,2.7,0.2,3.9,0.7s2.2,1.1,3.1,2c0.9,0.9,1.6,2,2.1,3.3s0.8,2.9,0.8,4.7v1.6h-17.8v-3.6h12.3
		c0-0.8-0.2-1.6-0.5-2.2c-0.4-0.6-0.9-1.2-1.5-1.5c-0.6-0.4-1.4-0.6-2.2-0.6c-0.9,0-1.7,0.2-2.3,0.6s-1.2,0.9-1.6,1.6
		c-0.4,0.7-0.6,1.4-0.6,2.3v3.4c0,1,0.2,1.9,0.6,2.7s0.9,1.3,1.6,1.8c0.7,0.4,1.6,0.6,2.5,0.6c0.6,0,1.2-0.1,1.8-0.3
		c0.5-0.2,1-0.5,1.4-0.8c0.4-0.4,0.7-0.8,0.9-1.3l5.4,0.4c-0.3,1.3-0.8,2.4-1.7,3.4c-0.8,1-1.9,1.7-3.3,2.2
		C353.9,144.1,352.4,144.3,350.6,144.3z"/>
	<path d="M364.1,143.9v-21h5.7v3.7h0.2c0.4-1.3,1-2.3,1.9-3c0.9-0.7,1.9-1,3.1-1c0.3,0,0.6,0,0.9,0.1c0.3,0,0.6,0.1,0.9,0.2v5.2
		c-0.3-0.1-0.7-0.2-1.1-0.2s-0.9-0.1-1.3-0.1c-0.9,0-1.6,0.2-2.3,0.6c-0.7,0.4-1.2,0.9-1.6,1.5c-0.4,0.7-0.6,1.4-0.6,2.3v11.9H364.1
		z"/>
</g>
<g>
	<path d="M191.4,192.1c-1.6,0-3-0.3-4.3-1s-2.3-1.5-3.1-2.6c-0.8-1.1-1.2-2.4-1.3-3.8h3.3c0.1,1.3,0.7,2.3,1.7,3.1
		c1,0.8,2.2,1.2,3.7,1.2c1.1,0,2.2-0.3,3.1-0.8c0.9-0.5,1.6-1.3,2.1-2.2c0.5-0.9,0.8-2,0.8-3.2c0-1.2-0.3-2.3-0.8-3.3
		s-1.3-1.7-2.2-2.3c-0.9-0.6-2-0.8-3.2-0.8c-0.9,0-1.7,0.1-2.6,0.4c-0.9,0.3-1.6,0.6-2.2,1l-3.2-0.4l1.7-13.8h14.5v3h-11.7l-1,8.2
		h0.2c0.6-0.5,1.3-0.8,2.2-1.1c0.9-0.3,1.8-0.5,2.7-0.5c1.7,0,3.2,0.4,4.6,1.2c1.3,0.8,2.4,1.9,3.2,3.3c0.8,1.4,1.2,3,1.2,4.8
		c0,1.8-0.4,3.4-1.2,4.8c-0.8,1.4-1.9,2.5-3.3,3.3C194.8,191.7,193.2,192.1,191.4,192.1z"/>
	<path d="M206.1,191.7v-2.5l9.2-10.1c1.1-1.2,2-2.2,2.7-3.1c0.7-0.9,1.2-1.7,1.6-2.5c0.3-0.8,0.5-1.6,0.5-2.4c0-1-0.2-1.8-0.7-2.6
		c-0.5-0.7-1.1-1.3-1.9-1.7c-0.8-0.4-1.7-0.6-2.7-0.6c-1.1,0-2,0.2-2.8,0.7c-0.8,0.4-1.4,1.1-1.8,1.8c-0.4,0.8-0.6,1.7-0.6,2.8h-3.2
		c0-1.6,0.4-3.1,1.1-4.3c0.8-1.2,1.8-2.2,3.1-2.9c1.3-0.7,2.8-1,4.4-1c1.6,0,3.1,0.3,4.4,1s2.3,1.6,3,2.8c0.7,1.2,1.1,2.5,1.1,3.9
		c0,1-0.2,2-0.6,3c-0.4,1-1,2.1-1.9,3.3s-2.2,2.7-3.8,4.4l-6.3,6.7v0.2h13v3H206.1z"/>
	<path d="M238.6,192.1c-1.1,0-2.3-0.2-3.4-0.7c-1.1-0.4-2.2-1.1-3.1-2.1c-0.9-1-1.7-2.3-2.3-4.1c-0.6-1.7-0.9-3.9-0.9-6.4
		c0-2.5,0.2-4.7,0.7-6.6s1.1-3.5,2-4.9c0.9-1.3,1.9-2.3,3.2-3s2.7-1,4.2-1c1.6,0,3,0.3,4.2,0.9s2.2,1.5,3,2.6
		c0.8,1.1,1.3,2.4,1.5,3.9h-3.3c-0.3-1.3-0.9-2.3-1.8-3.2c-0.9-0.8-2.1-1.2-3.5-1.2c-2.2,0-3.9,0.9-5.1,2.8c-1.2,1.9-1.9,4.5-1.9,8
		h0.2c0.5-0.8,1.1-1.4,1.8-2c0.7-0.5,1.5-1,2.3-1.3c0.9-0.3,1.8-0.5,2.7-0.5c1.6,0,3.1,0.4,4.4,1.2c1.3,0.8,2.4,1.9,3.2,3.3
		c0.8,1.4,1.2,3,1.2,4.8c0,1.7-0.4,3.3-1.2,4.7c-0.8,1.4-1.9,2.6-3.3,3.4C242.1,191.7,240.5,192.1,238.6,192.1z M238.6,189.1
		c1.1,0,2.2-0.3,3.1-0.9c0.9-0.6,1.6-1.3,2.2-2.3c0.5-1,0.8-2,0.8-3.2c0-1.2-0.3-2.2-0.8-3.2c-0.5-1-1.2-1.7-2.1-2.3
		c-0.9-0.6-1.9-0.8-3.1-0.8c-0.9,0-1.7,0.2-2.4,0.5c-0.7,0.3-1.4,0.8-2,1.4c-0.6,0.6-1,1.3-1.3,2c-0.3,0.8-0.5,1.6-0.5,2.4
		c0,1.1,0.3,2.1,0.8,3.1c0.5,1,1.2,1.7,2.2,2.3C236.4,188.8,237.4,189.1,238.6,189.1z"/>
	<path d="M255.7,170.7l5,8.6l5-8.6h3.7l-6.8,10.5l6.8,10.5h-3.7l-5-8.1l-5,8.1H252l6.7-10.5l-6.7-10.5H255.7z"/>
	<path d="M283.5,192.1c-1.8,0-3.4-0.3-4.8-0.9c-1.4-0.6-2.5-1.5-3.3-2.6s-1.3-2.4-1.3-3.9h3.4c0.1,0.9,0.4,1.7,0.9,2.3
		s1.3,1.2,2.1,1.5c0.9,0.4,1.9,0.5,2.9,0.5c1.2,0,2.3-0.2,3.2-0.6c0.9-0.4,1.7-1,2.2-1.7c0.5-0.7,0.8-1.6,0.8-2.6
		c0-1-0.3-1.9-0.8-2.7c-0.5-0.8-1.3-1.4-2.2-1.8c-1-0.4-2.2-0.7-3.6-0.7h-2.2v-3h2.2c1.1,0,2.1-0.2,2.9-0.6s1.5-1,2-1.7
		c0.5-0.7,0.7-1.6,0.7-2.6c0-0.9-0.2-1.8-0.6-2.5c-0.4-0.7-1-1.2-1.8-1.6c-0.8-0.4-1.7-0.6-2.7-0.6c-1,0-1.9,0.2-2.7,0.5
		c-0.9,0.4-1.5,0.9-2.1,1.5c-0.5,0.7-0.8,1.5-0.9,2.4h-3.3c0.1-1.5,0.5-2.8,1.3-3.9s1.9-2,3.3-2.6c1.3-0.6,2.8-0.9,4.4-0.9
		c1.7,0,3.2,0.3,4.4,1c1.2,0.7,2.2,1.6,2.9,2.8c0.7,1.1,1,2.4,1,3.7c0,1.6-0.4,2.9-1.2,4s-1.9,1.9-3.4,2.3v0.2
		c1.8,0.3,3.1,1,4.1,2.2c1,1.2,1.5,2.7,1.5,4.5c0,1.5-0.4,2.9-1.2,4.1c-0.8,1.2-1.9,2.2-3.4,2.8
		C286.9,191.7,285.3,192.1,283.5,192.1z"/>
	<path d="M308.3,163.7v27.9h-3.4v-24.4h-0.2l-6.8,4.5v-3.4l7-4.6H308.3z"/>
	<path d="M325.6,192.1c-1.1,0-2.3-0.2-3.4-0.7c-1.1-0.4-2.2-1.1-3.1-2.1c-0.9-1-1.7-2.3-2.3-4.1s-0.9-3.9-0.9-6.4
		c0-2.5,0.2-4.7,0.7-6.6s1.1-3.5,2-4.9c0.9-1.3,1.9-2.3,3.2-3s2.7-1,4.2-1c1.6,0,3,0.3,4.2,0.9s2.2,1.5,3,2.6
		c0.8,1.1,1.3,2.4,1.5,3.9h-3.3c-0.3-1.3-0.9-2.3-1.8-3.2c-0.9-0.8-2.1-1.2-3.5-1.2c-2.2,0-3.9,0.9-5.1,2.8c-1.2,1.9-1.9,4.5-1.9,8
		h0.2c0.5-0.8,1.1-1.4,1.8-2c0.7-0.5,1.5-1,2.3-1.3c0.9-0.3,1.8-0.5,2.7-0.5c1.6,0,3.1,0.4,4.4,1.2c1.3,0.8,2.4,1.9,3.2,3.3
		c0.8,1.4,1.2,3,1.2,4.8c0,1.7-0.4,3.3-1.2,4.7s-1.9,2.6-3.3,3.4C329.1,191.7,327.5,192.1,325.6,192.1z M325.6,189.1
		c1.1,0,2.2-0.3,3.1-0.9s1.6-1.3,2.2-2.3c0.5-1,0.8-2,0.8-3.2c0-1.2-0.3-2.2-0.8-3.2c-0.5-1-1.2-1.7-2.1-2.3
		c-0.9-0.6-1.9-0.8-3.1-0.8c-0.9,0-1.7,0.2-2.4,0.5s-1.4,0.8-2,1.4c-0.6,0.6-1,1.3-1.3,2c-0.3,0.8-0.5,1.6-0.5,2.4
		c0,1.1,0.3,2.1,0.8,3.1c0.5,1,1.2,1.7,2.2,2.3C323.4,188.8,324.4,189.1,325.6,189.1z"/>
</g>
</svg>
