<?xml version="1.0" encoding="utf-8"?>
<!-- Generator: Adobe Illustrator 26.1.0, SVG Export Plug-In . SVG Version: 6.00 Build 0)  -->
<svg version="1.1" id="Layer_1" xmlns="http://www.w3.org/2000/svg" xmlns:xlink="http://www.w3.org/1999/xlink" x="0px" y="0px"
	 viewBox="0 0 364 295" style="enable-background:new 0 0 364 295;" xml:space="preserve">
<style type="text/css">
	.st0{fill:#EBEBEB;}
	.st1{fill:#F5F5F5;}
	.st2{fill:#E0E0E0;}
	.st3{fill:#FFFFFF;}
	.st4{fill:#FAFAFA;}
	.st5{fill:#263238;}
	.st6{fill:#455A64;}
	.st7{fill:#FF6A27;}
	.st8{opacity:0.2;}
	.st9{opacity:0.3;}
	.st10{fill:#FFBE9D;}
	.st11{fill:#FFE6E6;}
</style>
<g id="freepik--background-complete--inject-25">
	<path class="st0" d="M203.7,127.4c-0.1-0.6-0.5-1.1-0.9-1.5c-0.4-0.4-1-0.7-1.6-0.8c-1-0.1-2,0.5-2.4,1.4c-0.2-0.3-0.4-0.5-0.7-0.7
		c-0.6-0.3-1.2-0.4-1.8-0.2c-0.6,0.2-1,0.6-1.4,1.1c-0.4,0.6-0.6,1.2-0.6,1.8c0,0.8,0.2,1.5,0.7,2.2c0.5,0.6,1.2,1.1,1.9,1.5
		c1.2,0.6,2.8,1.3,2.8,1.3s1.2-1.1,2.2-1.9c0.6-0.5,1.2-1.1,1.6-1.8C203.8,129,203.8,128.2,203.7,127.4z"/>
	<path class="st0" d="M208.9,122.6c0-0.4-0.1-0.7-0.3-1c-0.2-0.3-0.4-0.5-0.8-0.7c-0.5-0.2-1.1,0-1.5,0.5c-0.2-0.5-0.7-0.9-1.3-0.9
		c-0.3,0-0.7,0.2-0.9,0.4c-0.3,0.2-0.5,0.5-0.6,0.9c-0.1,0.4-0.1,0.9,0,1.3c0.2,0.4,0.5,0.8,0.9,1.1c0.6,0.5,1.4,1.2,1.4,1.2
		s0.8-0.4,1.6-0.7c0.4-0.2,0.9-0.4,1.2-0.8C208.7,123.5,208.9,123.1,208.9,122.6z"/>
	<path class="st0" d="M207.3,134.8c-0.1-0.2-0.2-0.5-0.4-0.7c-0.2-0.2-0.4-0.3-0.7-0.3c-0.4,0-0.9,0.2-1,0.6
		c-0.2-0.3-0.7-0.5-1.1-0.4c-0.2,0.1-0.4,0.2-0.6,0.5c-0.2,0.2-0.2,0.5-0.3,0.7c0,0.3,0.1,0.7,0.3,0.9c0.2,0.3,0.5,0.5,0.8,0.6
		c0.5,0.3,1.2,0.6,1.2,0.6s0.5-0.5,1-0.8c0.3-0.2,0.5-0.5,0.7-0.8C207.3,135.5,207.4,135.2,207.3,134.8z"/>
	<rect x="159.1" y="159.2" class="st1" width="19.2" height="8.9"/>
	<path class="st2" d="M177.9,167.7h-18.3v-8h18.3V167.7L177.9,167.7z M159.7,167.6h18.1v-7.8h-18.1V167.6z"/>
	<rect x="178.3" y="159.2" class="st2" width="4.7" height="8.9"/>
	<path class="st2" d="M159.6,162.2h18.2l0,0l0,0H159.6C159.6,162.1,159.6,162.1,159.6,162.2L159.6,162.2z"/>
	<path class="st2" d="M168.8,162.1c0-0.8,0.1-1.6,0-2.4l0,0l0,0C168.7,160.5,168.7,161.3,168.8,162.1L168.8,162.1L168.8,162.1z"/>
	<path class="st2" d="M173.7,160.9c0,0.1-0.1,0.2-0.2,0.2c-0.1,0-0.2-0.1-0.2-0.2c0-0.1,0.1-0.2,0.2-0.2
		C173.6,160.7,173.7,160.8,173.7,160.9L173.7,160.9z"/>
	<path class="st2" d="M164.1,160.9c0,0.1-0.1,0.2-0.2,0.2c-0.1,0-0.2-0.1-0.2-0.2c0-0.1,0.1-0.2,0.2-0.2
		C164,160.7,164.1,160.8,164.1,160.9L164.1,160.9z"/>
	<path class="st2" d="M169,163.7c0,0.1-0.1,0.2-0.2,0.2c-0.1,0-0.2-0.1-0.2-0.2c0-0.1,0.1-0.2,0.2-0.2l0,0
		C168.9,163.4,169,163.6,169,163.7z"/>
	<polygon class="st2" points="161.4,168.1 160.5,173.7 161,173.7 162.8,168.1 	"/>
	<polygon class="st2" points="177,168.1 177.8,173.7 177.3,173.7 175.6,168.1 	"/>
	<polygon class="st2" points="180.7,168.1 181.6,173.7 181.1,173.7 179.3,168.1 	"/>
	<path class="st2" d="M169,166.2c0,0.1-0.1,0.2-0.2,0.2c-0.1,0-0.2-0.1-0.2-0.2c0-0.1,0.1-0.2,0.2-0.2l0,0
		C168.9,166,169,166.1,169,166.2z"/>
	<path class="st2" d="M159.6,164.9h18.2l0,0l0,0H159.6L159.6,164.9L159.6,164.9z"/>
	<rect x="166.7" y="155" transform="matrix(1 -5.267038e-03 5.267038e-03 1 -0.817 0.8956)" class="st2" width="5.8" height="1.2"/>
	
		<rect x="166.8" y="157.4" transform="matrix(1 -5.267038e-03 5.267038e-03 1 -0.8313 0.8981)" class="st1" width="6.5" height="1.8"/>
	<path class="st2" d="M172,159.2c0-0.3,0-0.6,0-0.9s0-0.6,0-0.9c0,0.3,0,0.6,0,0.9C172,158.6,172,158.9,172,159.2z"/>
	<path class="st2" d="M172.3,159.2c0-0.3,0-0.6,0-0.9s0-0.6,0-0.9c0,0.3,0,0.6,0,0.9C172.3,158.6,172.3,158.9,172.3,159.2z"/>
	<path class="st2" d="M167.8,159.2c0-0.3,0-0.6,0-0.9s0-0.6,0-0.9c0,0.3,0,0.6,0,0.9C167.8,158.6,167.8,158.9,167.8,159.2z"/>
	<path class="st2" d="M168,159.2c0-0.3,0-0.6,0-0.9s0-0.6,0-0.9c0,0.3,0,0.6,0,0.9C168.1,158.6,168.1,158.9,168,159.2z"/>
	<path class="st2" d="M168.6,158.3c0,0,0.7,0,1.5,0s1.5,0,1.5,0s-0.7,0-1.5,0S168.6,158.3,168.6,158.3z"/>
	
		<rect x="167.7" y="156.2" transform="matrix(1 -5.267038e-03 5.267038e-03 1 -0.8233 0.9067)" class="st0" width="8" height="1.2"/>
	<path class="st2" d="M174.5,157.2c-0.2,0-0.4-0.2-0.4-0.4c0-0.2,0.2-0.4,0.4-0.4s0.4,0.2,0.4,0.4l0,0
		C174.9,157,174.7,157.2,174.5,157.2L174.5,157.2z"/>
	<rect x="168.2" y="156.7" class="st2" width="5.3" height="0.2"/>
	<rect x="161" y="120.9" class="st2" width="11.5" height="16.7"/>
	<rect x="160.4" y="120.9" class="st1" width="11.5" height="16.7"/>
	<rect x="161.8" y="122.7" class="st3" width="8.6" height="13.1"/>
	<path class="st2" d="M170.4,135.8L170.4,135.8c0-0.1,0-0.2,0-0.3c0-0.2,0-0.4,0-0.7c0-0.6,0-1.5,0-2.7c0-2.3,0-5.6,0-9.4l0,0h-8.6
		l0,0l0,0c0,4.9,0,9.5,0,13.1l0,0h6.3h1.7h0.5C170.4,135.8,170.4,135.8,170.4,135.8h-0.1h-0.4h-1.7h-6.3l0,0l0,0c0-3.6,0-8.2,0-13.1
		l0,0l0,0h8.6l0,0l0,0c0,3.9,0,7.1,0,9.5c0,1.2,0,2.1,0,2.7c0,0.3,0,0.5,0,0.7C170.4,135.6,170.4,135.6,170.4,135.8
		C170.4,135.7,170.4,135.8,170.4,135.8z"/>
	<path class="st2" d="M171.9,120.9c-0.1,0.1-0.1,0.2-0.2,0.3c-0.1,0.2-0.3,0.4-0.5,0.7c-0.2,0.3-0.4,0.5-0.6,0.7
		c-0.1,0.1-0.2,0.2-0.2,0.3c0.1-0.1,0.1-0.2,0.2-0.3l0.6-0.7c0.1-0.3,0.3-0.6,0.5-0.8C171.7,121,171.8,120.9,171.9,120.9z"/>
	<path class="st3" d="M170.5,135.7c0.4,0.7,0.9,1.3,1.5,1.9"/>
	<path class="st2" d="M172,137.6c-0.1-0.1-0.2-0.2-0.3-0.2c-0.4-0.4-0.8-0.9-1.1-1.3c-0.1-0.1-0.1-0.2-0.2-0.3
		c0.1,0.1,0.2,0.2,0.2,0.3c0.1,0.2,0.3,0.4,0.5,0.7c0.2,0.3,0.4,0.5,0.5,0.7C171.8,137.4,171.9,137.5,172,137.6z"/>
	<path class="st3" d="M160.4,137.6l1.5-1.9"/>
	<path class="st2" d="M161.9,135.7c-0.2,0.3-0.5,0.6-0.7,1c-0.2,0.3-0.5,0.6-0.8,0.9c0.2-0.3,0.5-0.6,0.7-1
		C161.4,136.3,161.6,136,161.9,135.7z"/>
	<path class="st2" d="M160.4,120.9c0.3,0.3,0.5,0.6,0.7,0.9c0.3,0.2,0.5,0.5,0.7,0.9c-0.3-0.3-0.5-0.6-0.7-0.9
		C160.8,121.5,160.6,121.2,160.4,120.9z"/>
	<rect x="164.9" y="125.3" class="st2" width="2.9" height="8.2"/>
	<rect x="198.7" y="139.7" class="st2" width="8.3" height="8.7"/>
	<rect x="198.1" y="139.7" class="st4" width="8.3" height="8.7"/>
	<path class="st2" d="M206.5,148.4h-8.3v-8.7h8.3V148.4z M198.1,148.4h8.3v-8.7h-8.3V148.4z"/>
	<rect x="199.3" y="140.9" class="st3" width="6.1" height="6.4"/>
	<path class="st2" d="M199.3,147.3c0,0.1-0.1,0.1-0.2,0.2c-0.1,0.1-0.2,0.2-0.4,0.4c-0.2,0.2-0.3,0.3-0.4,0.4c0,0.1-0.1,0.1-0.2,0.1
		c0-0.1,0.1-0.1,0.2-0.2s0.2-0.2,0.4-0.4c0.2-0.2,0.3-0.3,0.4-0.4C199.1,147.4,199.2,147.4,199.3,147.3z"/>
	<path class="st2" d="M205.4,147.3c0.1,0,0.1,0.1,0.2,0.2c0.1,0.1,0.2,0.2,0.4,0.4c0.2,0.2,0.3,0.3,0.4,0.4c0.1,0,0.1,0.1,0.1,0.2
		c-0.1-0.1-0.2-0.2-0.2-0.2c-0.1-0.1-0.2-0.2-0.4-0.4s-0.3-0.3-0.4-0.4C205.4,147.4,205.4,147.4,205.4,147.3z"/>
	<path class="st2" d="M205.3,140.9c0-0.1,0.1-0.1,0.2-0.2c0.1-0.1,0.2-0.2,0.4-0.4c0.2-0.2,0.3-0.3,0.4-0.4c0-0.1,0.1-0.1,0.2-0.1
		c0,0.1-0.1,0.1-0.2,0.2c-0.1,0.1-0.2,0.2-0.4,0.4s-0.3,0.3-0.4,0.4C205.5,140.8,205.4,140.9,205.3,140.9z"/>
	<path class="st2" d="M199.2,140.9c-0.1,0-0.1-0.1-0.2-0.2c-0.1-0.1-0.2-0.2-0.4-0.4c-0.2-0.2-0.3-0.3-0.4-0.4
		c-0.1,0-0.1-0.1-0.1-0.2c0.1,0,0.1,0.1,0.2,0.2c0.1,0.1,0.2,0.2,0.4,0.4c0.2,0.2,0.3,0.3,0.4,0.4
		C199.2,140.8,199.2,140.9,199.2,140.9z"/>
	<path class="st2" d="M205.3,147.3C205.3,147.3,205.3,147.2,205.3,147.3c0-0.1,0-0.1,0-0.1c0-0.1,0-0.2,0-0.3c0-0.3,0-0.7,0-1.3
		c0-1.1,0-2.7,0-4.6l0,0h-6l0,0l0,0c0,2.3,0,4.5,0,6.4l0,0h4.4h1.2L205.3,147.3L205.3,147.3h-0.4h-1.2h-4.4l0,0l0,0c0-1.8,0-4,0-6.4
		l0,0l0,0h6l0,0l0,0c0,1.9,0,3.5,0,4.6c0,0.6,0,1,0,1.3c0,0.1,0,0.3,0,0.3C205.3,147.2,205.3,147.2,205.3,147.3
		C205.3,147.2,205.3,147.3,205.3,147.3z"/>
	<rect x="201.3" y="143.1" class="st0" width="2" height="2"/>
</g>
<g id="freepik--Plant--inject-25">
	<rect x="177.5" y="151.5" class="st5" width="8.1" height="1.1"/>
	<path class="st5" d="M177.5,151.5h8.2v1.2h-8.2V151.5z M185.7,151.5h-8.1v1.1h8.1V151.5z"/>
	<polygon class="st5" points="184.9,152.3 183.8,158.1 179.4,158.1 178.3,152.6 	"/>
	<polygon class="st6" points="184.9,157.5 184.3,158.4 179,158.4 178.3,157.5 	"/>
	<path class="st5" d="M181.9,152.4c0,0,0-2.7,0-6c0-3.3,0-6,0-6s0,2.7,0,6C181.9,149.7,181.9,152.4,181.9,152.4z"/>
	<path class="st5" d="M180.1,145.7L180.1,145.7l0.1,0.2l0.1,0.1c0,0,0,0.1,0.1,0.2c0.1,0.1,0,0.1,0.1,0.2c0.1,0.1,0,0.1,0.1,0.2
		c0.1,0.3,0.2,0.7,0.2,1c0.1,0.4,0.1,0.8,0.1,1.2c0,0.8,0,1.5-0.1,2.3c0,0.3-0.1,0.5-0.1,0.7c0,0.1,0,0.1,0,0.2c0,0,0,0,0,0.1
		c0,0,0,0,0-0.1v-0.2c0-0.2,0.1-0.4,0.1-0.7c0.1-0.8,0.1-1.5,0.1-2.3c0-0.4-0.1-0.8-0.1-1.3c-0.1-0.3-0.1-0.7-0.2-1
		c0-0.1,0-0.1-0.1-0.2c0-0.1,0-0.1-0.1-0.2l-0.1-0.2c0,0,0-0.1-0.1-0.1C180.2,145.8,180.2,145.8,180.1,145.7L180.1,145.7z"/>
	<path class="st5" d="M180.3,143.5C180.3,143.6,180.3,143.6,180.3,143.5l0.1,0.3l0.1,0.2c0,0.1,0,0.1,0.1,0.2c0,0.2,0.1,0.3,0.2,0.5
		l0.1,0.3c0,0.1,0,0.2,0.1,0.3c0.1,0.2,0.1,0.5,0.2,0.8c0.1,0.5,0.2,1.1,0.2,1.8s0.1,1.2,0.1,1.8c0,0.5,0,1,0,1.4c0,0.2,0,0.4,0,0.5
		c0,0.2,0,0.3,0,0.4s0,0.2,0,0.3v0.1v-0.1c0-0.1,0-0.2,0-0.3s0-0.3,0-0.4c0-0.2,0-0.3,0-0.5c0-0.4,0-0.9,0-1.4s0-1.1-0.1-1.8
		c-0.1-0.6-0.1-1.2-0.2-1.8c-0.1-0.3-0.1-0.5-0.2-0.8c0-0.1-0.1-0.2-0.1-0.3l-0.1-0.3c0-0.2-0.1-0.4-0.2-0.5c0-0.1,0-0.1-0.1-0.2
		s0-0.1-0.1-0.2L180.3,143.5C180.4,143.6,180.3,143.6,180.3,143.5z"/>
	<path class="st5" d="M182.4,152.9L182.4,152.9C182.4,152.8,182.4,152.8,182.4,152.9c0-0.2,0-0.3,0-0.5c0-0.3,0-0.8,0.1-1.3
		c0.1-1.1,0.2-2.6,0.4-4.3c0.1-0.8,0.2-1.6,0.3-2.4c0.1-0.4,0.1-0.7,0.2-1c0.1-0.3,0.1-0.6,0.2-0.9c0.1-0.3,0.1-0.5,0.2-0.7
		c0-0.2,0.1-0.4,0.1-0.5s0.1-0.3,0.1-0.3v-0.1l0,0l0,0c0,0,0,0,0,0.1c0,0.1-0.1,0.2-0.1,0.3s-0.1,0.3-0.1,0.5s-0.1,0.5-0.2,0.7
		c0,0.3-0.1,0.6-0.2,0.9c-0.1,0.3-0.1,0.7-0.2,1c-0.1,0.7-0.2,1.5-0.3,2.4c-0.2,1.7-0.3,3.2-0.3,4.3c0,0.6,0,1-0.1,1.3
		c0,0.2,0,0.3,0,0.4L182.4,152.9L182.4,152.9z"/>
	<path class="st7" d="M182,141.7c0-0.4,0.4-0.7,0.8-0.7c0.4,0,0.7,0.2,1,0.5c0.2,0.3,0.4,0.7,0.5,1c0.3,0.9,0.4,1.8,0.3,2.8
		c-0.1,0.9-0.5,1.8-1.1,2.5c-0.1,0.1-0.2,0.2-0.4,0.2c-0.1,0-0.2-0.1-0.2-0.1c-1.3-1.2-2-2.9-2-4.7c0-0.4,0.1-0.7,0.2-1
		C181.2,141.9,181.7,141.6,182,141.7"/>
	<path class="st7" d="M184.8,138.6l0.5,1c0,0,0,0,0.1,0c0,0,0,0,0.1,0l1.4-2.2l-0.3-0.2L184.8,138.6z"/>
	<g class="st8">
		<path d="M184.8,138.6l0.5,1c0,0,0,0,0.1,0c0,0,0,0,0.1,0l1.4-2.2l-0.3-0.2L184.8,138.6z"/>
	</g>
	<path class="st7" d="M182,140.4l4.8-2.9l0.1-0.1c0-0.1,0-0.1-0.1-0.2c-0.7-0.7-1.6-1.1-2.6-1c-1,0.1-1.8,0.6-2.3,1.5
		C181.4,138.5,181.4,139.6,182,140.4"/>
	<path class="st5" d="M186.1,136.6L186.1,136.6c-0.1,0-0.2,0-0.2,0c-0.2,0-0.4,0-0.7,0.1c-0.3,0.1-0.7,0.2-1,0.3
		c-0.8,0.3-1.4,0.9-1.8,1.6c-0.2,0.3-0.3,0.6-0.4,0.9c-0.1,0.2-0.1,0.4-0.1,0.7c0,0.1,0,0.1,0,0.1v0.1c0-0.1,0-0.2,0-0.2
		c0-0.2,0.1-0.4,0.1-0.7c0.4-1.5,1.6-2.6,3.1-2.8c0.2,0,0.4-0.1,0.7-0.1C186,136.6,186.1,136.6,186.1,136.6z"/>
	<path class="st5" d="M182.6,138.4c0.1,0,0.2,0.1,0.2,0.1c0.2,0.1,0.4,0.1,0.6,0.2c0.2,0.1,0.5,0.1,0.6,0.2c0.1,0,0.2,0,0.3,0
		c-0.1,0-0.2-0.1-0.2-0.1l-0.6-0.2l-0.6-0.1C182.8,138.5,182.7,138.4,182.6,138.4z"/>
	<path class="st5" d="M183.4,136.4c0,0.2-0.1,0.4-0.1,0.5c0,0.2,0,0.4,0,0.5c0-0.2,0-0.4,0-0.5C183.4,136.7,183.4,136.5,183.4,136.4
		z"/>
	<path class="st5" d="M186.8,137.5c-0.1,0-0.2-0.1-0.4-0.1c-0.2-0.1-0.5-0.2-0.9-0.2c-0.3-0.1-0.7-0.1-0.9-0.2c-0.1,0-0.2,0-0.4,0
		c0.1,0,0.2,0.1,0.4,0.1s0.5,0.1,0.9,0.2c0.3,0.1,0.7,0.2,0.9,0.2C186.6,137.4,186.7,137.5,186.8,137.5z"/>
	<path class="st7" d="M184,140.9c0.4-0.3,0.9-0.4,1.4-0.4s1,0.2,1.5,0.4c0.8,0.4,1.6,0.9,2.1,1.6s0.7,1.7,0.3,2.6
		c0,0.1-0.1,0.2-0.2,0.2c-0.1,0-0.2,0-0.3,0c-0.9-0.3-1.9-0.6-2.7-1.1c-0.8-0.5-1.6-1.1-2.1-2c-0.1-0.2-0.2-0.4-0.2-0.7
		C183.8,141.3,183.8,141.1,184,140.9"/>
	<path class="st5" d="M184,140.8L184,140.8l0.3,0.1h0.1c0,0,0.1,0,0.2,0.1c0.1,0,0.2,0.1,0.4,0.2l0.2,0.1c0.1,0,0.2,0.1,0.2,0.1
		c0.2,0.1,0.3,0.2,0.5,0.3c0.8,0.5,1.5,1.1,2,1.8c0.1,0.2,0.3,0.3,0.4,0.5c0,0.1,0.1,0.2,0.2,0.2l0.1,0.2c0.1,0.1,0.2,0.3,0.2,0.4
		c0,0.1,0.1,0.1,0.1,0.2l0.1,0.1c0,0.1,0.1,0.1,0.1,0.2c0,0,0,0,0,0.1c0,0,0,0,0-0.1l-0.1-0.2c0,0,0-0.1-0.1-0.1c0,0,0-0.1-0.1-0.2
		c-0.1-0.1-0.1-0.2-0.2-0.4l-0.1-0.2c0-0.1-0.1-0.1-0.2-0.2c-0.1-0.2-0.2-0.3-0.4-0.5c-0.3-0.4-0.6-0.7-0.9-1s-0.7-0.6-1.1-0.8
		c-0.2-0.1-0.4-0.2-0.5-0.3c-0.1,0-0.2-0.1-0.2-0.1l-0.2-0.2c-0.1-0.1-0.3-0.1-0.4-0.2c-0.1,0-0.1,0-0.2-0.1h-0.1H184L184,140.8z"/>
	<path class="st5" d="M187.2,142.6c0.3,0.1,0.7,0.2,1,0.3c0.3,0.1,0.7,0.2,1,0.3c-0.3-0.1-0.7-0.2-1-0.3
		C187.9,142.7,187.6,142.6,187.2,142.6z"/>
	<path class="st5" d="M187.3,144.8c0-0.1,0-0.2,0-0.3c0-0.2,0-0.5,0-0.8s0-0.6,0-0.8c0-0.1,0-0.2,0-0.3c0,0.1,0,0.2,0,0.3
		c0,0.2,0,0.5,0,0.8s0,0.5,0,0.8C187.3,144.6,187.3,144.7,187.3,144.8z"/>
	<path class="st5" d="M185.4,143.8c0,0,0.1-0.5,0.1-1.2c0-0.7,0.1-1.2,0.1-1.2s-0.1,0.5-0.1,1.2
		C185.4,143.3,185.4,143.8,185.4,143.8z"/>
	<path class="st5" d="M187.8,141.3c-0.1,0-0.2,0-0.3,0c-0.2,0-0.5,0-0.8,0s-0.6,0-0.8,0c-0.1,0-0.2,0-0.3,0c0.1,0,0.2,0,0.3,0
		c0.2,0,0.5,0,0.8,0s0.6,0,0.8,0C187.5,141.3,187.7,141.3,187.8,141.3z"/>
	<path class="st5" d="M183.2,148L183.2,148c0-0.1,0-0.2,0-0.3c0-0.2,0-0.4,0-0.7s0-0.6-0.1-1c0-0.4-0.1-0.8-0.2-1.2
		c-0.1-0.4-0.2-0.8-0.3-1.2c-0.1-0.4-0.2-0.7-0.3-1c-0.1-0.3-0.2-0.5-0.2-0.6l-0.1-0.2c0,0,0,0,0-0.1c0,0,0,0,0,0.1
		c0,0,0,0.1,0.1,0.2c0.1,0.2,0.1,0.4,0.2,0.7c0.1,0.3,0.2,0.6,0.3,1c0.1,0.4,0.2,0.8,0.3,1.2c0.1,0.4,0.1,0.9,0.2,1.2
		c0.1,0.3,0.1,0.7,0.1,1c0,0.3,0,0.5,0,0.7C183.2,147.8,183.2,147.9,183.2,148L183.2,148z"/>
	<path class="st5" d="M182.9,144.8c0.1,0.1,0.1,0.2,0.2,0.2c0.1,0.1,0.3,0.3,0.5,0.5c0.2,0.2,0.4,0.3,0.5,0.4
		c0.1,0.1,0.2,0.1,0.2,0.2c-0.1-0.1-0.1-0.1-0.2-0.2l-0.5-0.4l-0.5-0.5C183.1,144.9,183,144.9,182.9,144.8z"/>
	<path class="st5" d="M181.4,146.1c0.1-0.1,0.1-0.2,0.2-0.3l0.5-0.7l0.5-0.7c0.1-0.1,0.1-0.2,0.2-0.3c-0.1,0.1-0.2,0.2-0.2,0.3
		c-0.1,0.2-0.3,0.4-0.5,0.7c-0.2,0.3-0.4,0.5-0.5,0.7C181.5,145.9,181.4,145.9,181.4,146.1z"/>
	<path class="st5" d="M182.2,142.1c0,0,0.5,0.4,1.1,0.8c0.6,0.4,1.2,0.7,1.2,0.7s-0.5-0.4-1.1-0.8
		C182.7,142.5,182.2,142.1,182.2,142.1z"/>
	<path class="st5" d="M180.7,143.7c0.3-0.2,0.5-0.5,0.8-0.7s0.5-0.5,0.7-0.8c-0.3,0.2-0.5,0.5-0.8,0.7
		C181.2,143.2,181,143.4,180.7,143.7z"/>
	<path class="st7" d="M180.4,143.7H180c-0.3,0-0.6-0.1-0.9-0.3c-0.1-0.1-0.3-0.1-0.4-0.2c-0.5-0.2-1.1-0.2-1.7-0.2
		c-0.9,0-1.9-0.3-2.7-0.7l-0.1-0.1c-0.1-0.2,0.1-0.3,0.2-0.4c0.7-0.5,1.5-0.9,2.3-1.1s1.8-0.2,2.5,0.3S180.2,142.7,180.4,143.7"/>
	<path class="st5" d="M174.1,142.1L174.1,142.1l0.3-0.1c0.2-0.1,0.4-0.2,0.8-0.4c0.4-0.2,0.8-0.3,1.2-0.5c0.5-0.1,1-0.2,1.5-0.1
		s1,0.3,1.4,0.6c0.3,0.3,0.6,0.6,0.7,1c0.1,0.3,0.2,0.5,0.3,0.8c0,0.1,0.1,0.2,0.1,0.2s0,0,0,0.1v-0.1c0-0.1,0-0.1-0.1-0.2
		c-0.1-0.3-0.2-0.5-0.3-0.8c-0.2-0.4-0.4-0.8-0.7-1c-0.4-0.3-0.9-0.6-1.4-0.6c-0.5-0.1-1.1,0-1.6,0.1c-0.4,0.1-0.8,0.3-1.2,0.5
		c-0.3,0.2-0.6,0.3-0.8,0.4L174.1,142.1L174.1,142.1z"/>
	<path class="st5" d="M175.1,142.6c0,0,0.6-0.4,1.3-0.8c0.7-0.5,1.3-0.9,1.2-0.9c-0.1,0-0.6,0.4-1.3,0.8
		C175.6,142.2,175.1,142.6,175.1,142.6z"/>
	<path class="st5" d="M175.7,140.9c0.3,0.1,0.6,0.1,0.8,0.1c-0.1,0-0.3,0-0.4,0C176,140.9,175.9,140.9,175.7,140.9z"/>
	<path class="st5" d="M178.2,140.6c0,0.1,0.1,0.2,0.2,0.3c0.1,0.1,0.1,0.2,0.2,0.3c0-0.1-0.1-0.2-0.2-0.3
		C178.4,140.8,178.3,140.7,178.2,140.6z"/>
	<path class="st5" d="M177.7,143c0.1,0,0.2-0.1,0.3-0.2c0.2-0.1,0.4-0.3,0.6-0.4c0.2-0.1,0.4-0.3,0.6-0.5c0.1-0.1,0.2-0.1,0.2-0.2
		c-0.1,0-0.2,0.1-0.3,0.2c-0.2,0.1-0.4,0.3-0.6,0.4c-0.2,0.1-0.5,0.3-0.6,0.4C177.9,142.9,177.8,142.9,177.7,143z"/>
	<path class="st7" d="M179.7,145.5c0.4-0.1,0.9,0.3,1,0.7c0.1,0.4-0.1,0.9-0.3,1.2c-0.4,0.9-1,1.7-1.7,2.3c-0.7,0.6-1.7,1-2.6,1
		c0.2-0.8,0-1.7,0-2.5c0.2-1.5,1.4-2.7,2.9-2.9C179.3,145.3,179.6,145.3,179.7,145.5"/>
	<path class="st5" d="M176.1,150.8L176.1,150.8c0.1-0.1,0.2-0.1,0.2-0.1c0.2-0.2,0.3-0.3,0.4-0.5c0.1-0.1,0.1-0.3,0.2-0.4
		c0.1-0.2,0.1-0.3,0.2-0.5c0.1-0.2,0.2-0.4,0.3-0.5c0.1-0.2,0.2-0.4,0.4-0.5c0.3-0.3,0.6-0.6,0.9-0.9c0.2-0.2,0.5-0.5,0.7-0.8
		c0.1-0.2,0.2-0.4,0.3-0.6c0-0.1,0-0.1,0.1-0.2c0,0,0,0,0-0.1c0,0,0,0.1-0.1,0.2c-0.1,0.2-0.2,0.4-0.3,0.6c-0.2,0.3-0.4,0.5-0.7,0.8
		s-0.6,0.6-0.9,0.9c-0.1,0.2-0.3,0.3-0.4,0.5c-0.1,0.2-0.2,0.4-0.3,0.5l-0.2,0.5c-0.1,0.2-0.1,0.3-0.2,0.4c-0.1,0.2-0.2,0.4-0.4,0.6
		C176.2,150.7,176.1,150.8,176.1,150.8z"/>
	<path class="st5" d="M178.3,150.1c0-0.1,0-0.2,0-0.3c0-0.2-0.1-0.4-0.2-0.7c-0.1-0.3-0.2-0.5-0.2-0.7c0-0.1-0.1-0.2-0.1-0.3
		c0,0.1,0,0.2,0.1,0.3c0,0.2,0.1,0.4,0.2,0.7c0.1,0.3,0.1,0.5,0.2,0.7C178.2,149.9,178.2,150,178.3,150.1z"/>
	<path class="st5" d="M176.2,148.1c0.1,0,0.2,0,0.3-0.1c0.2,0,0.4-0.1,0.7-0.2c0.3-0.1,0.5-0.1,0.7-0.1c0.1,0,0.2,0,0.3-0.1
		c-0.1,0-0.2,0-0.3,0c-0.2,0-0.4,0.1-0.7,0.1c-0.3,0.1-0.5,0.1-0.7,0.2C176.4,148,176.3,148,176.2,148.1z"/>
	<path class="st5" d="M179.8,148.6c0-0.1,0-0.2,0-0.3c0-0.2-0.1-0.5-0.2-0.8c-0.1-0.3-0.2-0.6-0.2-0.8c0-0.1-0.1-0.2-0.1-0.3
		c0,0.1,0,0.2,0.1,0.3c0.1,0.2,0.1,0.5,0.2,0.8c0.1,0.3,0.1,0.6,0.2,0.8C179.8,148.4,179.8,148.5,179.8,148.6z"/>
	<path class="st5" d="M177.2,146.3c0,0,0.5,0,1.2-0.1c0.4,0,0.8-0.1,1.2-0.2c0,0-0.5,0-1.2,0.1C177.9,146.2,177.5,146.2,177.2,146.3
		z"/>
	<path class="st6" d="M177.5,152.6c0,0,1.8,0,4.1,0c2.3,0,4.1,0,4.1,0s-1.8,0-4.1,0C179.3,152.6,177.5,152.6,177.5,152.6z"/>
	<path class="st6" d="M178.8,155c0,0,1.2,0,2.8,0c1.6,0,2.8,0,2.8,0s-1.2,0-2.8,0C180,155,178.8,155,178.8,155z"/>
	<path class="st6" d="M178.9,155.4c0,0,1.2,0,2.7,0s2.7,0,2.7,0s-1.2,0-2.7,0S178.9,155.3,178.9,155.4z"/>
	<path class="st6" d="M178.8,154.7c0,0,1.3,0,2.9,0c1.6,0,2.9,0,2.9,0s-1.3,0-2.9,0C180.1,154.7,178.8,154.7,178.8,154.7z"/>
</g>
<g id="freepik--Device--inject-25">
	<path class="st5" d="M188.6,167.6h-13.7c-1.6,0-3-1.3-3-3l0,0V130c0-1.7,1.3-3,3-3h13.7c1.6,0,3,1.3,3,3v34.6
		C191.6,166.2,190.2,167.6,188.6,167.6L188.6,167.6z"/>
	<path class="st3" d="M188.6,128.2h-2.7c-0.4,0-0.7,0.3-0.7,0.7v0.5c0,0.4-0.3,0.7-0.7,0.7h-5.2c-0.4,0-0.7-0.3-0.7-0.7l0,0v-0.5
		c0-0.4-0.3-0.7-0.7-0.7h-3.3c-1.2,0-2.1,0.9-2.1,2.1l0,0V164c0,1.2,0.9,2.1,2.1,2.1l0,0h13.7c1.2,0,2.1-0.9,2.1-2.1l0,0v-33.7
		C190.7,129.2,189.7,128.2,188.6,128.2L188.6,128.2z"/>
	<path class="st5" d="M180.5,164.7c0,0.1-0.1,0.3-0.3,0.3c-0.1,0-0.3-0.1-0.3-0.3c0-0.1,0.1-0.3,0.3-0.3l0,0
		C180.3,164.4,180.5,164.6,180.5,164.7L180.5,164.7z"/>
	<path class="st2" d="M181.9,164.7c0,0.1-0.1,0.3-0.3,0.3c-0.1,0-0.3-0.1-0.3-0.3c0-0.1,0.1-0.3,0.3-0.3
		C181.8,164.4,181.9,164.6,181.9,164.7L181.9,164.7z"/>
	<path class="st2" d="M183.4,164.7c0,0.1-0.1,0.3-0.3,0.3c-0.1,0-0.3-0.1-0.3-0.3c0-0.1,0.1-0.3,0.3-0.3
		C183.3,164.4,183.4,164.5,183.4,164.7L183.4,164.7z"/>
	<path class="st5" d="M174.6,132.9L174.6,132.9L174.6,132.9h0.4l0,0c0-0.1,0-0.2,0-0.2v-0.1c0-0.1,0.1-0.1,0.1-0.1
		c0.1,0,0.1,0,0.2,0c0.1,0,0.1,0.1,0.1,0.1c0,0.1,0,0.2,0,0.4l0,0h0.4l0,0c0-0.2,0-0.3,0-0.5v-0.1c0,0,0-0.1-0.1-0.1
		c-0.1-0.1-0.1-0.1-0.2-0.2l-0.2-0.2l-0.1-0.1c0,0,0-0.1-0.1-0.1H175c0,0,0,0-0.1,0.1l-0.2,0.2c-0.1,0.1-0.2,0.2-0.3,0.3
		c0,0,0,0.1,0,0.2v0.1c0,0.1,0,0.2,0,0.2S174.6,132.8,174.6,132.9L174.6,132.9L174.6,132.9c0-0.1,0-0.1,0-0.2c0-0.1,0-0.1,0-0.2
		c0,0,0-0.1,0-0.2v-0.1v-0.1c0.1-0.1,0.2-0.2,0.3-0.3l0.1-0.2c0,0,0,0,0.1-0.1h0.1c0,0,0.1,0,0.1,0.1l0.1,0.1l0.2,0.2l0.2,0.2
		l0.1,0.1v0.1c0,0.2,0,0.4,0,0.5l0,0l0,0h-0.4l0,0l0,0c0-0.1,0-0.2,0-0.4c0,0,0-0.1-0.1-0.1c-0.1,0-0.1,0-0.2,0c0,0-0.1,0-0.1,0.1
		v0.1c0,0.1,0,0.2,0,0.2l0,0l0,0h-0.3L174.6,132.9L174.6,132.9z"/>
	<path class="st1" d="M189.8,134.6L189.8,134.6c0.1,0,0.2,0.1,0.2,0.2v29.4c0,0.1-0.1,0.2-0.2,0.2l0,0c-0.1,0-0.2-0.1-0.2-0.2v-29.4
		C189.6,134.7,189.7,134.6,189.8,134.6z"/>
	<path class="st2" d="M189.8,136L189.8,136c0.1,0,0.2,0.1,0.2,0.1v2.1c0,0.1-0.1,0.1-0.1,0.1l0,0c-0.1,0-0.1-0.1-0.1-0.1v-2.1
		C189.6,136,189.7,136,189.8,136z"/>
	<path class="st3" d="M174.7,134.4h13.9c0.3,0,0.5,0.2,0.5,0.5v5.4c0,0.3-0.2,0.5-0.5,0.5h-13.9c-0.3,0-0.5-0.2-0.5-0.5v-5.4
		C174.2,134.7,174.4,134.4,174.7,134.4z"/>
	<path class="st7" d="M174.7,134.4h7.1l0,0v6.4l0,0h-7.1c-0.3,0-0.5-0.2-0.5-0.5v-5.5C174.2,134.7,174.4,134.4,174.7,134.4z"/>
	<g class="st9">
		<path d="M180.4,137.9c0.2-0.2,0.3-0.4,0.4-0.7c0.1-0.2,0.1-0.4,0-0.5c-0.1-0.1-0.2-0.2-0.3-0.2c-0.5-0.2-0.9-0.4-1.4-0.5l-3.6,1.3
			c-0.1,0.3,0.1,0.6,0.4,0.7c0.1,0,0.3,0,0.4-0.1c0.1,0.7,0.1,1.5-0.2,2.1c0,0.1-0.1,0.2,0,0.3c0.1,0.1,0.2,0.1,0.3,0.1h3.6
			c0.2,0,0.4,0,0.5-0.1c0.1-0.1,0.1-0.4,0-0.5l-0.4-1.4c0-0.1,0-0.2,0-0.2C180.2,138,180.3,138,180.4,137.9z"/>
	</g>
	<path class="st3" d="M179.9,139.7l-0.3-1.2l0.1-1.2l0.1-1.7l-0.8-0.1c-0.6,0.3-1.5,0.5-2.2,0.2c0,0-0.3,0-0.5,0.2
		c-0.1,0.1,0,0.6,0.1,1c0.1,0.5,0.4,1.8,0.4,1.8s-0.4,1.1-0.5,1.4c0,0,2.8-0.5,3.7,0C179.9,140,180.1,140,179.9,139.7z"/>
	<path class="st3" d="M175.2,136.4l1-0.6l0.3,1.4l-0.5,0.4C176,137.6,175.2,137.2,175.2,136.4z"/>
	<path class="st3" d="M179.7,135.5l1.1,0.5c0,0-0.3,1.3-0.5,1.5l-0.5-0.2l-0.1,0.4V136V135.5z"/>
	<path class="st2" d="M176.1,137.5L176.1,137.5c-0.1,0-0.1-0.1-0.2-0.1c-0.1-0.1-0.3-0.2-0.4-0.4c0-0.1-0.1-0.2-0.1-0.3
		c0-0.1,0-0.2-0.1-0.2c0,0,0-0.1,0-0.2c0,0,0,0,0-0.1c0,0,0,0.1,0,0.2c0,0.1,0,0.2,0.1,0.2c0,0.1,0.1,0.2,0.1,0.2
		c0.1,0.1,0.2,0.3,0.3,0.4C176,137.5,176.1,137.5,176.1,137.5z"/>
	<path class="st2" d="M176.4,137L176.4,137c-0.1,0-0.1-0.1-0.1-0.1c-0.1-0.1-0.2-0.2-0.2-0.3c0-0.1-0.1-0.2-0.2-0.3
		c0,0,0-0.1-0.1-0.2c0,0,0,0.1,0.1,0.1c0.1,0.1,0.1,0.2,0.2,0.3c0.1,0.1,0.2,0.2,0.2,0.3C176.3,136.9,176.3,136.9,176.4,137
		L176.4,137z"/>
	<path class="st2" d="M179.6,135.6h-0.1c-0.1,0-0.2,0-0.3,0.1l-0.5,0.2c-0.2,0.1-0.4,0.1-0.6,0.1c-0.4,0-0.8,0-1.2-0.1
		c-0.1,0-0.2-0.1-0.3-0.1h-0.1l0,0c0,0,0.1,0,0.1,0.1c0.1,0,0.2,0.1,0.3,0.1c0.4,0.1,0.8,0.2,1.2,0.1c0.2,0,0.4-0.1,0.6-0.1
		c0.2-0.1,0.4-0.1,0.5-0.2c0.1-0.1,0.3-0.1,0.3-0.1C179.5,135.6,179.5,135.6,179.6,135.6L179.6,135.6z"/>
	<path class="st2" d="M179.7,136.6L179.7,136.6L179.7,136.6c-0.2,0-0.3,0-0.5,0c-0.4,0-0.8,0.1-1.2,0.1c-0.5,0-0.9,0-1.2,0h-0.4
		h-0.1l0,0l0,0h0.1h0.4c0.3,0,0.7,0,1.2,0s0.9,0,1.2,0C179.4,136.7,179.5,136.7,179.7,136.6L179.7,136.6L179.7,136.6z"/>
	<path class="st2" d="M179.7,137.3L179.7,137.3h-0.2c0,0-0.1,0-0.2,0c-0.4,0.1-0.7,0.1-1.1,0.1c-0.4,0-0.8,0-1.1,0
		c-0.1,0-0.3,0-0.3,0h-0.1h0.1c0.1,0,0.2,0,0.3,0c0.3,0,0.7,0,1.1,0c0.4,0,0.7,0,1.1-0.1c0.1,0,0.1,0,0.2,0S179.6,137.3,179.7,137.3
		C179.6,137.3,179.6,137.3,179.7,137.3z"/>
	<path class="st2" d="M179.6,138.1h-0.1c-0.1,0-0.2,0-0.3,0c-0.3,0-0.6,0-1,0c-0.4,0-0.8,0-1,0c-0.1,0-0.2,0-0.3,0h-0.1h0.1
		c0.1,0,0.2,0,0.3,0c0.3,0,0.6,0,1,0c0.4,0,0.8,0,1,0h0.3C179.5,138.1,179.5,138.1,179.6,138.1z"/>
	<path class="st2" d="M179.7,139L179.7,139h-0.4c-0.3,0-0.7,0-1.1,0c-0.4,0-0.8,0-1.1,0h-0.3h-0.1h0.1c0.1,0,0.2,0,0.3,0
		c0.3,0,0.7,0,1.1,0c0.4,0,0.8,0,1.1,0C179.4,139,179.6,139,179.7,139C179.7,139,179.7,139,179.7,139z"/>
	<path class="st2" d="M180.1,135.9c0,0.1-0.1,0.2-0.1,0.3c0,0.1-0.1,0.2-0.2,0.3c0,0,0.1-0.1,0.2-0.3S180.1,135.9,180.1,135.9z"/>
	<path class="st5" d="M176.3,136.3C176.3,136.3,176.3,136.4,176.3,136.3c0,0.2,0.1,0.2,0.1,0.3c0,0.2,0.1,0.5,0.2,0.8
		c0.1,0.3,0.1,0.6,0.2,0.8c0,0.1,0,0.2,0,0.2v0.1v-0.1c0-0.1,0-0.1,0-0.2c0-0.2-0.1-0.5-0.2-0.8c-0.1-0.3-0.1-0.6-0.2-0.8
		C176.4,136.5,176.4,136.4,176.3,136.3C176.3,136.4,176.3,136.3,176.3,136.3z"/>
	<path class="st5" d="M179.7,136.7L179.7,136.7c0,0.1,0,0.2,0,0.3c0,0.2,0,0.4,0,0.6c0,0.2,0,0.5,0,0.6c0,0.1,0,0.1,0,0.2
		c0,0,0,0,0,0.1c0,0,0,0,0-0.1c0,0,0-0.1,0-0.2c0-0.2,0-0.4,0-0.6c0-0.2,0-0.5,0-0.6S179.7,136.8,179.7,136.7L179.7,136.7z"/>
	<path class="st2" d="M180.5,135.9c0,0.1,0,0.1-0.1,0.2c-0.1,0.1-0.1,0.3-0.2,0.5c-0.1,0.2-0.1,0.4-0.1,0.5c0,0.1,0,0.1,0,0.2
		c0,0,0,0,0-0.1c0,0,0-0.1,0-0.2c0-0.2,0.1-0.4,0.1-0.5c0.1-0.2,0.1-0.3,0.2-0.5C180.4,136,180.4,136,180.5,135.9L180.5,135.9z"/>
	<path class="st2" d="M179.9,139.7L179.9,139.7L179.9,139.7c-0.1,0-0.2,0-0.3,0c-0.1,0-0.1,0-0.2,0c-0.1,0-0.2,0-0.3,0
		c-0.1,0-0.2,0-0.3,0c-0.5,0-1,0-1.5,0.1c-0.1,0-0.2,0-0.3,0.1c-0.1,0-0.2,0-0.3,0.1c-0.1,0.1-0.2,0-0.2,0.1c-0.1,0-0.1,0-0.2,0.1
		h-0.1l0,0l0,0h0.1c0,0,0.1,0,0.2-0.1c0.1-0.1,0.1-0.1,0.2-0.1c0.1,0,0.2-0.1,0.3-0.1s0.2,0,0.3-0.1c0.5-0.1,1-0.1,1.5-0.1
		c0.1,0,0.2,0,0.3,0c0.1,0,0.2,0,0.3,0c0.1,0,0.2,0,0.2,0S179.7,139.7,179.9,139.7L179.9,139.7L179.9,139.7z"/>
	<path class="st7" d="M181.8,140.9c0,0,0-1.4,0-3.2s0-3.2,0-3.2s0,1.4,0,3.2S181.8,140.9,181.8,140.9z"/>
	<path class="st7" d="M188.6,140.9C188.6,140.9,188.6,140.9,188.6,140.9c0.2,0,0.3-0.1,0.4-0.2c0-0.1,0.1-0.1,0.1-0.2s0-0.2,0-0.3
		c0-0.2,0-0.4,0-0.7c0-1.1,0-2.6,0-4.5c0-0.1,0-0.1,0-0.2c0-0.2-0.2-0.3-0.3-0.4c-0.1,0-0.2,0-0.4,0h-2h-3.6h-8.1
		c-0.2,0-0.3,0.1-0.4,0.2c0,0.1-0.1,0.2-0.1,0.2v1.3c0,0.7,0,1.4,0,2.1v2c0,0.2,0.1,0.3,0.2,0.4c0.1,0,0.1,0.1,0.2,0.1
		c0.1,0,0.2,0,0.2,0h0.9h6.6h4.5h1.2h0.3L188.6,140.9c0,0,0,0-0.1,0h-0.3H187h-4.5h-6.6H175c-0.1,0-0.2,0-0.2,0
		c-0.1,0-0.2,0-0.2-0.1c-0.1-0.1-0.2-0.3-0.2-0.4c0-0.7,0-1.3,0-2V135c0-0.3,0.2-0.5,0.6-0.5h8.1h3.6h1.3h0.6c0.1,0,0.1,0,0.2,0
		c0.2,0.1,0.3,0.2,0.4,0.4c0,0.1,0,0.1,0,0.2c0,1.9,0,3.4,0,4.5c0,0.3,0,0.5,0,0.7c0,0.1,0,0.2,0,0.3c0,0.1-0.1,0.1-0.1,0.2
		c-0.1,0.1-0.2,0.1-0.3,0.2C188.7,140.9,188.6,140.9,188.6,140.9z"/>
	<path class="st7" d="M185.1,135.9c0,0-0.6,0-1.4,0s-1.4,0-1.4,0s0.6,0,1.4,0S185.1,135.9,185.1,135.9z"/>
	<path class="st7" d="M187.7,136.8c0,0-1.2,0-2.7,0s-2.7,0-2.7,0s1.2,0,2.7,0C186.5,136.7,187.7,136.7,187.7,136.8z"/>
	<path class="st7" d="M187.7,137.3c0,0-1.2,0-2.7,0s-2.7,0-2.7,0s1.2,0,2.7,0C186.5,137.2,187.7,137.2,187.7,137.3z"/>
	<path class="st7" d="M187.2,139.7c0-0.1,0-0.1-0.1-0.2l-0.1-0.1c-0.1,0-0.2,0-0.2,0.1c0,0,0,0-0.1-0.1c0,0-0.1,0-0.2,0
		c-0.1,0-0.1,0-0.1,0.1l-0.1,0.1c0,0.1,0,0.1,0,0.2c0,0.1,0.1,0.1,0.2,0.2l0.2,0.2c0,0,0.1-0.1,0.2-0.1c0.1,0,0.1-0.1,0.2-0.2
		C187.2,139.8,187.2,139.8,187.2,139.7z"/>
	<path class="st5" d="M186.7,140.2L186.7,140.2c0,0-0.1-0.1-0.2-0.2c-0.1,0-0.1-0.1-0.2-0.2c0-0.1,0-0.1,0-0.2c0-0.1,0-0.1,0.1-0.2
		l0.1-0.1c0.1,0,0.1,0,0.2,0c0,0,0,0,0.1,0.1c0.1-0.1,0.1-0.1,0.2-0.1c0.1,0,0.1,0,0.1,0.1c0,0,0.1,0.1,0.1,0.2c0,0.1,0,0.2,0,0.2
		c0,0.1-0.1,0.1-0.2,0.2C186.8,140.1,186.7,140.2,186.7,140.2L186.7,140.2z M186.5,139.5L186.5,139.5c-0.1,0-0.2,0.1-0.2,0.2
		c0,0.1,0,0.1,0,0.2c0,0.1,0.1,0.1,0.2,0.2c0.1,0.1,0.2,0.1,0.2,0.1s0.1-0.1,0.2-0.1c0.1,0,0.1-0.1,0.2-0.1c0-0.1,0-0.1,0-0.2l0,0
		c0,0,0-0.1-0.1-0.1l-0.1-0.1c-0.1,0-0.2,0-0.2,0.1l0,0l0,0c0,0,0,0-0.1-0.1C186.6,139.5,186.6,139.5,186.5,139.5L186.5,139.5z"/>
	<path class="st5" d="M188.4,140.1h-0.2h-0.4l0,0l0,0V140c0-0.2,0-0.4-0.1-0.5l0,0h-0.1l0,0l0,0h0.2c0,0.1,0,0.3,0.1,0.5
		c0,0,0,0,0,0.1l0,0H188.4L188.4,140.1L188.4,140.1L188.4,140.1z"/>
	<path class="st5" d="M188.2,140.1h-0.4l0,0V140l-0.1-0.5h-0.1l0,0l0,0h0.1l0,0l0,0l0.1,0.5l0,0h0.6l0,0l0,0L188.2,140.1
		L188.2,140.1z"/>
	<path class="st5" d="M187.8,139.9h0.2h0.4l0,0c0-0.1,0-0.2,0-0.2v-0.1l0,0h-0.5h-0.2h0.2h0.5l0,0l0,0v0.1c0,0.1,0,0.2,0,0.2l0,0
		l0,0H188H187.8L187.8,139.9L187.8,139.9z"/>
	<path class="st5" d="M188.4,139.9L188.4,139.9h-0.6l0,0l0,0l0,0h0.2H188.4v-0.4h-0.7l0,0l0,0h0.2h0.5l0,0l0,0v0.1
		C188.4,139.7,188.4,139.7,188.4,139.9L188.4,139.9L188.4,139.9L188.4,139.9z"/>
	<path class="st5" d="M187.9,140.2L187.9,140.2L187.9,140.2L187.9,140.2C187.8,140.2,187.8,140.2,187.9,140.2
		C187.8,140.2,187.8,140.3,187.9,140.2C187.9,140.3,187.9,140.3,187.9,140.2L187.9,140.2L187.9,140.2L187.9,140.2
		C187.9,140.2,187.9,140.3,187.9,140.2C187.9,140.3,187.9,140.3,187.9,140.2C187.8,140.2,187.8,140.2,187.9,140.2
		C187.8,140.2,187.9,140.2,187.9,140.2L187.9,140.2L187.9,140.2L187.9,140.2z"/>
	<path class="st5" d="M187.9,140.3L187.9,140.3C187.8,140.3,187.8,140.3,187.9,140.3c-0.1-0.1,0-0.1,0-0.1l0,0
		C187.9,140.2,188,140.2,187.9,140.3L187.9,140.3L187.9,140.3C188,140.2,187.9,140.3,187.9,140.3L187.9,140.3z M187.9,140.2
		L187.9,140.2C187.9,140.2,187.8,140.2,187.9,140.2C187.8,140.2,187.9,140.3,187.9,140.2C187.9,140.3,187.9,140.3,187.9,140.2
		L187.9,140.2L187.9,140.2L187.9,140.2L187.9,140.2L187.9,140.2L187.9,140.2L187.9,140.2z"/>
	<path class="st5" d="M188.3,140.2L188.3,140.2L188.3,140.2L188.3,140.2c-0.1,0-0.1,0-0.1,0S188.2,140.3,188.3,140.2
		C188.3,140.3,188.3,140.3,188.3,140.2L188.3,140.2L188.3,140.2L188.3,140.2C188.3,140.2,188.3,140.3,188.3,140.2
		c0,0.1-0.1,0.1-0.1,0l0,0C188.2,140.2,188.2,140.2,188.3,140.2L188.3,140.2L188.3,140.2L188.3,140.2z"/>
	<path class="st5" d="M188.3,140.3L188.3,140.3C188.2,140.3,188.2,140.2,188.3,140.3c-0.1-0.1,0-0.1,0-0.1s0,0,0.1,0
		C188.3,140.2,188.3,140.2,188.3,140.3L188.3,140.3L188.3,140.3C188.3,140.2,188.3,140.3,188.3,140.3L188.3,140.3z M188.3,140.2
		L188.3,140.2C188.2,140.2,188.2,140.2,188.3,140.2C188.2,140.2,188.2,140.3,188.3,140.2C188.3,140.3,188.3,140.3,188.3,140.2
		L188.3,140.2L188.3,140.2L188.3,140.2L188.3,140.2L188.3,140.2L188.3,140.2L188.3,140.2L188.3,140.2z"/>
	<path class="st5" d="M188.6,139.5c0,0.1-0.1,0.2-0.2,0.2s-0.2-0.1-0.2-0.2s0.1-0.2,0.2-0.2S188.6,139.4,188.6,139.5L188.6,139.5z"
		/>
	<path class="st3" d="M188.5,139.6L188.5,139.6L188.5,139.6C188.5,139.6,188.5,139.5,188.5,139.6c0-0.1,0-0.2,0-0.2
		S188.5,139.5,188.5,139.6C188.5,139.5,188.5,139.6,188.5,139.6L188.5,139.6L188.5,139.6z"/>
	<path class="st3" d="M188.6,139.5C188.5,139.5,188.5,139.5,188.6,139.5c-0.1,0-0.2,0-0.2,0S188.4,139.5,188.6,139.5
		C188.5,139.5,188.5,139.5,188.6,139.5z"/>
	<path class="st7" d="M185,139.9c0,0-0.6,0-1.2,0c-0.7,0-1.2,0-1.2,0s0.6,0,1.2,0C184.4,139.9,185,139.9,185,139.9z"/>
	<path class="st1" d="M174.7,141.9h13.9c0.3,0,0.5,0.2,0.5,0.5v5.4c0,0.3-0.2,0.5-0.5,0.5h-13.9c-0.3,0-0.5-0.2-0.5-0.5v-5.4
		C174.2,142.1,174.4,141.9,174.7,141.9z"/>
	<path class="st3" d="M174.7,141.9h7.1l0,0v6.4l0,0h-7.1c-0.3,0-0.5-0.2-0.5-0.5v-5.5C174.2,142.1,174.4,141.9,174.7,141.9z"/>
	<path class="st2" d="M181.8,148.4c0,0,0-1.4,0-3.2s0-3.2,0-3.2s0,1.4,0,3.2S181.8,148.4,181.8,148.4z"/>
	<path class="st2" d="M188.6,148.3C188.6,148.3,188.6,148.3,188.6,148.3c0.2,0,0.3-0.1,0.4-0.2c0-0.1,0.1-0.1,0.1-0.2
		c0-0.1,0-0.2,0-0.3c0-0.2,0-0.4,0-0.7c0-1.1,0-2.6,0-4.5c0-0.1,0-0.1,0-0.2c0-0.2-0.2-0.3-0.3-0.4c-0.1,0-0.2,0-0.4,0h-2h-3.6h-8.1
		c-0.2,0-0.3,0.1-0.4,0.2c0,0.1-0.1,0.2-0.1,0.2v1.3c0,0.7,0,1.4,0,2.1v2c0,0.2,0.2,0.4,0.4,0.5c0.1,0,0.2,0,0.2,0h0.9h6.6h4.5h1.2
		h0.3L188.6,148.3h-0.1h-0.3H187h-4.5h-6.6H175c-0.1,0-0.2,0-0.2,0c-0.3,0-0.5-0.3-0.5-0.5c0-0.7,0-1.3,0-2v-3.4
		c0-0.3,0.3-0.5,0.6-0.5h8.1h3.6h1.4h0.6c0.1,0,0.1,0,0.2,0c0.2,0.1,0.3,0.2,0.4,0.4c0,0.1,0,0.1,0,0.2c0,1.9,0,3.4,0,4.5
		c0,0.3,0,0.5,0,0.7c0,0.1,0,0.2,0,0.3s-0.1,0.1-0.1,0.2c-0.1,0.1-0.2,0.1-0.3,0.2C188.7,148.3,188.6,148.3,188.6,148.3z"/>
	<path class="st5" d="M185.1,143.4c0,0-0.6,0-1.4,0s-1.4,0-1.4,0s0.6,0,1.4,0S185.1,143.4,185.1,143.4z"/>
	<path class="st2" d="M187.7,144.2c0,0-1.2,0-2.7,0s-2.7,0-2.7,0s1.2,0,2.7,0S187.7,144.2,187.7,144.2z"/>
	<path class="st2" d="M187.7,144.7c0,0-1.2,0-2.7,0s-2.7,0-2.7,0s1.2,0,2.7,0S187.7,144.7,187.7,144.7z"/>
	<path class="st7" d="M187.2,147.2c0-0.1,0-0.1-0.1-0.2l-0.1-0.1c-0.1,0-0.1,0-0.2,0c0,0-0.1,0-0.1,0.1c0,0,0,0-0.1-0.1
		c0,0-0.1,0-0.2,0c-0.1,0-0.1,0-0.1,0.1l-0.1,0.1c0,0.1,0,0.1,0,0.2c0,0.1,0.1,0.1,0.2,0.2c0.1,0.1,0.2,0.2,0.2,0.2s0.1-0.1,0.2-0.1
		c0.1,0,0.1-0.1,0.2-0.1C187.2,147.3,187.2,147.2,187.2,147.2z"/>
	<path class="st5" d="M186.7,147.7L186.7,147.7c0,0-0.1-0.1-0.2-0.2c-0.1,0-0.1-0.1-0.2-0.2c0-0.1,0-0.1,0-0.2c0-0.1,0-0.1,0.1-0.2
		l0.1-0.1c0.1,0,0.1,0,0.2,0c0,0,0,0,0.1,0.1c0,0,0,0,0.1-0.1c0.1,0,0.1,0,0.2,0c0.1,0,0.1,0,0.1,0.1c0,0,0.1,0.1,0.1,0.2
		c0,0.1,0,0.2,0,0.2c0,0.1-0.1,0.1-0.2,0.2C186.8,147.6,186.7,147.7,186.7,147.7L186.7,147.7z M186.5,146.9L186.5,146.9
		c-0.1,0-0.1,0-0.2,0.1l-0.1,0.1c0,0.1,0,0.1,0,0.2c0,0.1,0.1,0.1,0.2,0.2c0.1,0.1,0.2,0.1,0.2,0.1s0.1-0.1,0.2-0.1
		c0.1,0,0.1-0.1,0.2-0.1c0-0.1,0-0.1,0-0.2l0,0c0,0,0-0.1-0.1-0.1l-0.1-0.1c0,0-0.1,0-0.2,0c0,0,0,0-0.1,0.1l0,0l0,0
		c0,0,0,0-0.1-0.1C186.6,146.9,186.6,146.9,186.5,146.9L186.5,146.9z"/>
	<path class="st5" d="M188.4,147.5h-0.2h-0.4l0,0l0,0v-0.1c0-0.2,0-0.4-0.1-0.5l0,0h-0.1h0.1l0,0l0.1,0.5c0,0,0,0,0,0.1l0,0h0.4
		H188.4L188.4,147.5L188.4,147.5z"/>
	<path class="st5" d="M188.2,147.5h-0.4l0,0l-0.1-0.6h-0.1l0,0l0,0h0.1l0,0l0,0l0.1,0.5l0,0h0.6l0,0l0,0h-0.2V147.5z"/>
	<path class="st5" d="M187.8,147.4h0.2h0.4l0,0c0-0.1,0-0.2,0-0.3V147l0,0h-0.5h-0.2h0.2h0.5l0,0l0,0v0.1c0,0.1,0,0.2,0,0.3l0,0l0,0
		H188H187.8L187.8,147.4L187.8,147.4z"/>
	<path class="st5" d="M188.4,147.4L188.4,147.4h-0.6l0,0l0,0l0,0h0.2H188.4V147h-0.7l0,0l0,0h0.2h0.5l0,0l0,0v0.1
		C188.4,147.2,188.4,147.2,188.4,147.4L188.4,147.4L188.4,147.4z"/>
	<path class="st5" d="M187.9,147.7L187.9,147.7C187.9,147.7,187.9,147.6,187.9,147.7C187.9,147.6,187.8,147.6,187.9,147.7
		L187.9,147.7C187.8,147.7,187.8,147.7,187.9,147.7L187.9,147.7L187.9,147.7L187.9,147.7L187.9,147.7L187.9,147.7
		C187.9,147.8,187.8,147.8,187.9,147.7L187.9,147.7C187.8,147.7,187.8,147.6,187.9,147.7C187.9,147.6,187.9,147.6,187.9,147.7
		C187.9,147.6,187.9,147.7,187.9,147.7L187.9,147.7z"/>
	<path class="st5" d="M187.9,147.7L187.9,147.7C187.8,147.7,187.8,147.7,187.9,147.7C187.8,147.6,187.9,147.6,187.9,147.7
		c0-0.1,0-0.1,0.1-0.1C187.9,147.6,188,147.6,187.9,147.7L187.9,147.7L187.9,147.7C188,147.7,187.9,147.7,187.9,147.7
		S187.9,147.8,187.9,147.7z M187.9,147.6L187.9,147.6C187.9,147.6,187.8,147.7,187.9,147.6C187.8,147.7,187.9,147.7,187.9,147.6
		C187.9,147.7,187.9,147.7,187.9,147.6C187.9,147.7,187.9,147.7,187.9,147.6L187.9,147.6L187.9,147.6L187.9,147.6L187.9,147.6
		C187.9,147.7,187.9,147.6,187.9,147.6L187.9,147.6L187.9,147.6z"/>
	<path class="st5" d="M188.3,147.7L188.3,147.7L188.3,147.7C188.3,147.6,188.3,147.6,188.3,147.7c-0.1,0-0.1,0-0.1,0
		S188.2,147.7,188.3,147.7L188.3,147.7L188.3,147.7L188.3,147.7L188.3,147.7L188.3,147.7L188.3,147.7c-0.1,0-0.1,0-0.1,0
		S188.2,147.6,188.3,147.7C188.3,147.6,188.3,147.6,188.3,147.7L188.3,147.7L188.3,147.7z"/>
	<path class="st5" d="M188.3,147.8L188.3,147.8C188.2,147.7,188.2,147.7,188.3,147.8c-0.1-0.1,0-0.1,0-0.1s0,0,0.1,0
		C188.3,147.6,188.3,147.7,188.3,147.8L188.3,147.8L188.3,147.8C188.3,147.7,188.3,147.7,188.3,147.8
		C188.3,147.7,188.3,147.8,188.3,147.8z M188.3,147.6L188.3,147.6C188.2,147.7,188.2,147.7,188.3,147.6
		C188.2,147.7,188.2,147.7,188.3,147.6C188.3,147.7,188.3,147.7,188.3,147.6C188.3,147.7,188.3,147.7,188.3,147.6L188.3,147.6
		L188.3,147.6L188.3,147.6L188.3,147.6C188.3,147.7,188.3,147.7,188.3,147.6L188.3,147.6L188.3,147.6z"/>
	<path class="st5" d="M188.6,146.9c0,0.1-0.1,0.2-0.2,0.2s-0.2-0.1-0.2-0.2c0-0.1,0.1-0.2,0.2-0.2
		C188.5,146.8,188.6,146.9,188.6,146.9L188.6,146.9z"/>
	<path class="st3" d="M188.5,147L188.5,147L188.5,147L188.5,147c0-0.1,0-0.2,0-0.2C188.5,146.9,188.5,146.9,188.5,147L188.5,147
		L188.5,147L188.5,147z"/>
	<path class="st3" d="M188.6,147C188.5,147,188.5,147,188.6,147c-0.1,0-0.2,0-0.2,0C188.4,146.9,188.4,146.9,188.6,147
		C188.5,147,188.5,147,188.6,147z"/>
	<path class="st5" d="M185,147.4c-0.4,0-0.8,0-1.2,0c-0.4,0-0.8,0-1.2,0c0,0,0.6,0,1.2,0C184.4,147.3,185,147.3,185,147.4z"/>
	<path class="st1" d="M174.7,149.3h13.9c0.3,0,0.5,0.2,0.5,0.5v5.4c0,0.3-0.2,0.5-0.5,0.5h-13.9c-0.3,0-0.5-0.2-0.5-0.5v-5.4
		C174.2,149.5,174.4,149.3,174.7,149.3z"/>
	<path class="st3" d="M174.7,149.3h7.1l0,0v6.4l0,0h-7.1c-0.3,0-0.5-0.2-0.5-0.5v-5.5C174.2,149.5,174.4,149.3,174.7,149.3z"/>
	<path class="st2" d="M181.8,155.8c0,0,0-1.4,0-3.2c0-1.8,0-3.2,0-3.2s0,1.4,0,3.2C181.8,154.3,181.8,155.8,181.8,155.8z"/>
	<path class="st2" d="M188.6,155.7C188.6,155.7,188.6,155.7,188.6,155.7c0.3,0,0.4-0.2,0.5-0.4c0-0.1,0-0.2,0-0.3c0-0.2,0-0.4,0-0.7
		c0-1.1,0-2.6,0-4.5c0-0.1,0-0.1,0-0.2c0-0.2-0.2-0.3-0.3-0.4c-0.1,0-0.2,0-0.4,0h-2h-3.6h-8.1c-0.3,0-0.5,0.2-0.5,0.5v1.3
		c0,0.7,0,1.4,0,2.1v2c0,0.2,0.1,0.3,0.2,0.4c0.1,0,0.1,0.1,0.2,0.1c0.1,0,0.2,0,0.2,0h0.9h6.6h4.5h1.2h0.3L188.6,155.7h-0.1h-0.3
		H187h-4.5h-6.6H175c-0.1,0-0.2,0-0.2,0c-0.3,0-0.5-0.3-0.5-0.5c0-0.7,0-1.3,0-2v-3.4c0-0.3,0.3-0.5,0.6-0.5h8.1h3.6h2.2
		c0.1,0,0.1,0,0.2,0c0.2,0.1,0.3,0.2,0.4,0.4c0,0.1,0,0.1,0,0.2c0,1.9,0,3.4,0,4.5c0,0.3,0,0.5,0,0.7c0,0.1,0,0.2,0,0.3
		c0,0.1-0.1,0.1-0.1,0.2c-0.1,0.1-0.2,0.1-0.3,0.2C188.7,155.7,188.6,155.7,188.6,155.7z"/>
	<path class="st5" d="M185.1,150.7c0,0-0.6,0-1.4,0s-1.4,0-1.4,0s0.6,0,1.4,0S185.1,150.7,185.1,150.7z"/>
	<path class="st2" d="M187.7,151.6c0,0-1.2,0-2.7,0s-2.7,0-2.7,0s1.2,0,2.7,0C186.5,151.5,187.7,151.6,187.7,151.6z"/>
	<path class="st2" d="M187.7,152.1c0,0-1.2,0-2.7,0s-2.7,0-2.7,0s1.2,0,2.7,0C186.5,152,187.7,152.1,187.7,152.1z"/>
	<path class="st7" d="M187.2,154.5c0-0.1,0-0.1-0.1-0.2l-0.1-0.1c-0.1,0-0.2,0-0.2,0.1c0,0,0,0-0.1-0.1c0,0-0.1,0-0.2,0
		c-0.1,0-0.1,0-0.1,0.1l-0.1,0.1c0,0.1,0,0.1,0,0.2c0,0.1,0.1,0.1,0.2,0.2l0.2,0.2c0,0,0.1-0.1,0.2-0.1c0.1,0,0.1-0.1,0.2-0.2
		C187.2,154.7,187.2,154.6,187.2,154.5z"/>
	<path class="st5" d="M186.7,155L186.7,155c0,0-0.1-0.1-0.2-0.2c-0.1,0-0.1-0.1-0.2-0.2c0-0.1,0-0.1,0-0.2c0-0.1,0-0.1,0.1-0.2
		l0.1-0.1c0.1,0,0.1,0,0.2,0c0,0,0,0,0.1,0.1c0,0,0,0,0.1-0.1c0,0,0.1,0,0.2,0c0.1,0,0.1,0,0.1,0.1c0,0,0.1,0.1,0.1,0.2s0,0.2,0,0.2
		c0,0.1-0.1,0.1-0.2,0.2C186.8,154.9,186.7,155,186.7,155L186.7,155z M186.5,154.3L186.5,154.3c-0.1,0-0.1,0-0.2,0.1l-0.1,0.1
		c0,0.1,0,0.1,0,0.2c0,0.1,0.1,0.1,0.2,0.2c0.1,0.1,0.2,0.1,0.2,0.1s0.1-0.1,0.2-0.1c0.1,0,0.1-0.1,0.2-0.1c0-0.1,0-0.1,0-0.2l0,0
		c0,0,0-0.1-0.1-0.1l-0.1-0.1c-0.1,0-0.2,0-0.2,0.1l0,0l0,0C186.6,154.5,186.6,154.5,186.5,154.3
		C186.6,154.3,186.6,154.3,186.5,154.3L186.5,154.3z"/>
	<path class="st5" d="M188.4,154.9h-0.2h-0.4l0,0l0,0v-0.1c0-0.2,0-0.4-0.1-0.5l0,0h-0.1h0.1l0,0c0,0.1,0,0.3,0.1,0.5c0,0,0,0,0,0.1
		l0,0h0.4H188.4L188.4,154.9L188.4,154.9z"/>
	<path class="st5" d="M188.2,154.9h-0.4l0,0l-0.1-0.6h-0.1l0,0l0,0h0.1l0,0l0,0l0.1,0.5l0,0h0.6l0,0l0,0L188.2,154.9L188.2,154.9z"
		/>
	<path class="st5" d="M187.8,154.7h0.2h0.4l0,0c0-0.1,0-0.2,0-0.2v-0.1l0,0h-0.5h-0.2h0.2h0.5l0,0l0,0v0.1c0,0.1,0,0.2,0,0.3l0,0
		l0,0H188L187.8,154.7L187.8,154.7L187.8,154.7z"/>
	<path class="st5" d="M188.4,154.8L188.4,154.8H188h-0.1l0,0l0,0l0,0l0,0h0.1H188.4v-0.4h-0.6h-0.1h-0.1l0,0l0,0h0.1h0.3h0.4l0,0
		l0,0v0.1L188.4,154.8L188.4,154.8z"/>
	<path class="st5" d="M187.9,155L187.9,155L187.9,155L187.9,155C187.8,155,187.8,155,187.9,155C187.8,155.1,187.8,155.1,187.9,155
		C187.9,155.1,187.9,155.1,187.9,155C187.9,155.1,187.9,155.1,187.9,155L187.9,155L187.9,155C187.9,155.1,187.9,155.1,187.9,155
		C187.9,155.1,187.9,155.1,187.9,155C187.8,155,187.8,155,187.9,155C187.8,155,187.8,155,187.9,155L187.9,155L187.9,155L187.9,155z"
		/>
	<path class="st5" d="M187.9,155.1L187.9,155.1C187.8,155.1,187.8,155.1,187.9,155.1c-0.1-0.1,0-0.1,0-0.1s0,0,0.1,0
		C187.9,155,188,155,187.9,155.1L187.9,155.1L187.9,155.1C188,155.1,187.9,155.1,187.9,155.1L187.9,155.1z M187.9,155L187.9,155
		C187.9,155,187.8,155,187.9,155C187.8,155.1,187.9,155.1,187.9,155C187.9,155.1,187.9,155.1,187.9,155
		C187.9,155.1,187.9,155.1,187.9,155L187.9,155L187.9,155L187.9,155L187.9,155L187.9,155L187.9,155z"/>
	<path class="st5" d="M188.3,155L188.3,155L188.3,155L188.3,155c-0.1,0-0.1,0-0.1,0S188.2,155.1,188.3,155
		C188.3,155.1,188.3,155.1,188.3,155C188.3,155.1,188.3,155.1,188.3,155L188.3,155L188.3,155C188.3,155.1,188.3,155.1,188.3,155
		C188.3,155.1,188.3,155.1,188.3,155c-0.1,0-0.1,0-0.1,0S188.2,155,188.3,155L188.3,155L188.3,155L188.3,155z"/>
	<path class="st5" d="M188.3,155.1L188.3,155.1C188.2,155.1,188.2,155.1,188.3,155.1c-0.1-0.1,0-0.1,0-0.1s0,0,0.1,0
		C188.3,155,188.3,155,188.3,155.1L188.3,155.1L188.3,155.1L188.3,155.1L188.3,155.1z M188.3,155L188.3,155
		C188.2,155,188.2,155,188.3,155C188.2,155.1,188.2,155.1,188.3,155C188.3,155.1,188.3,155.1,188.3,155
		C188.3,155.1,188.3,155.1,188.3,155L188.3,155L188.3,155L188.3,155L188.3,155L188.3,155L188.3,155L188.3,155z"/>
	<path class="st5" d="M188.6,154.3c0,0.1-0.1,0.2-0.2,0.2s-0.2-0.1-0.2-0.2c0-0.1,0.1-0.2,0.2-0.2S188.6,154.2,188.6,154.3z"/>
	<path class="st3" d="M188.5,154.4L188.5,154.4L188.5,154.4L188.5,154.4c0-0.1,0-0.2,0-0.2C188.5,154.3,188.5,154.3,188.5,154.4
		L188.5,154.4L188.5,154.4L188.5,154.4z"/>
	<path class="st3" d="M188.6,154.3C188.5,154.3,188.5,154.3,188.6,154.3c-0.1,0-0.2,0-0.2,0S188.5,154.3,188.6,154.3L188.6,154.3z"
		/>
	<path class="st5" d="M185,154.7c0,0-0.6,0-1.2,0c-0.7,0-1.2,0-1.2,0s0.6,0,1.2,0C184.4,154.7,185,154.7,185,154.7z"/>
	<path class="st1" d="M174.7,156.7h13.9c0.3,0,0.5,0.2,0.5,0.5v5.4c0,0.3-0.2,0.5-0.5,0.5h-13.9c-0.3,0-0.5-0.2-0.5-0.5v-5.4
		C174.2,156.9,174.4,156.7,174.7,156.7z"/>
	<path class="st3" d="M174.7,156.7h7.1l0,0v6.4l0,0h-7.1c-0.3,0-0.5-0.2-0.5-0.5v-5.5C174.2,156.9,174.4,156.7,174.7,156.7z"/>
	<path class="st2" d="M181.8,163.2c0,0,0-1.4,0-3.2s0-3.2,0-3.2s0,1.4,0,3.2S181.8,163.2,181.8,163.2z"/>
	<path class="st2" d="M188.6,163.1C188.6,163.1,188.6,163.1,188.6,163.1c0.2,0,0.3-0.1,0.4-0.2c0-0.1,0.1-0.1,0.1-0.2
		c0-0.1,0-0.2,0-0.3c0-0.2,0-0.4,0-0.7c0-1.1,0-2.6,0-4.5c0-0.1,0-0.1,0-0.2s0-0.1-0.1-0.2c-0.1-0.1-0.2-0.2-0.3-0.2s-0.2,0-0.4,0
		H188h-1.6h-3.6h-8.1c-0.2,0-0.3,0.1-0.4,0.2c0,0.1-0.1,0.2-0.1,0.2v1.5c0,0.7,0,1.4,0,2.1v2c0,0.2,0.1,0.3,0.2,0.4
		c0.1,0,0.1,0.1,0.2,0.1c0.1,0,0.2,0,0.2,0h0.9h6.6h4.5h1.2h0.3H188.6h-0.1h-0.3H187h-4.5h-6.6H175c-0.1,0-0.2,0-0.2,0
		c-0.3,0-0.5-0.3-0.5-0.5c0-0.7,0-1.3,0-2v-3.4c0-0.3,0.3-0.5,0.6-0.5h8.1h3.6h1.4h0.6c0.2,0,0.4,0.1,0.5,0.3c0,0.1,0.1,0.1,0.1,0.2
		c0,0.1,0,0.1,0,0.2c0,1.9,0,3.4,0,4.5c0,0.3,0,0.5,0,0.7c0,0.1,0,0.2,0,0.3c0,0.1-0.1,0.1-0.1,0.2c-0.1,0.1-0.2,0.1-0.3,0.2
		C188.7,163.1,188.6,163.1,188.6,163.1z"/>
	<path class="st5" d="M185.1,158.1c0,0-0.6,0-1.4,0s-1.4,0-1.4,0s0.6,0,1.4,0S185.1,158.1,185.1,158.1z"/>
	<path class="st2" d="M187.7,159c0,0-1.2,0-2.7,0s-2.7,0-2.7,0s1.2,0,2.7,0C186.5,158.9,187.7,159,187.7,159z"/>
	<path class="st2" d="M187.7,159.5c0,0-1.2,0-2.7,0s-2.7,0-2.7,0s1.2,0,2.7,0C186.5,159.4,187.7,159.5,187.7,159.5z"/>
	<path class="st7" d="M187.2,161.9c0-0.1,0-0.1-0.1-0.2l-0.1-0.1c-0.1,0-0.1,0-0.2,0c0,0-0.1,0-0.1,0.1c0,0,0,0-0.1-0.1
		c0,0-0.1,0-0.2,0c-0.1,0-0.1,0-0.1,0.1l-0.1,0.1c0,0.1,0,0.1,0,0.2s0.1,0.1,0.2,0.2c0.1,0.1,0.2,0.2,0.2,0.2s0.1-0.1,0.2-0.1
		c0.1,0,0.1-0.1,0.2-0.1C187.2,162.1,187.2,162,187.2,161.9z"/>
	<path class="st5" d="M186.7,162.4L186.7,162.4c0,0-0.1-0.1-0.2-0.2c-0.1,0-0.1-0.1-0.2-0.2c0-0.1,0-0.1,0-0.2c0-0.1,0-0.1,0.1-0.2
		l0.1-0.1c0.1,0,0.2,0,0.2,0.1c0-0.1,0.1-0.1,0.2-0.1s0.1,0,0.1,0.1c0,0,0.1,0.1,0.1,0.2l0,0c0,0.1,0,0.2,0,0.2
		c0,0.1-0.1,0.1-0.2,0.2C186.8,162.4,186.7,162.4,186.7,162.4L186.7,162.4z M186.5,161.7L186.5,161.7c-0.1,0-0.1,0-0.2,0.1l-0.1,0.1
		c0,0.1,0,0.1,0,0.2c0,0.1,0.1,0.1,0.2,0.2c0.1,0.1,0.2,0.1,0.2,0.1s0.1-0.1,0.2-0.1c0.1,0,0.1-0.1,0.2-0.1c0-0.1,0-0.1,0-0.2l0,0
		c0-0.1-0.1-0.2-0.2-0.2c0,0-0.1,0-0.2,0c0,0,0,0-0.1,0.1l0,0l0,0c0,0,0,0-0.1-0.1C186.6,161.7,186.6,161.7,186.5,161.7L186.5,161.7
		z"/>
	<path class="st5" d="M188.4,162.3h-0.2h-0.4l0,0l0,0v-0.1c0-0.2,0-0.4-0.1-0.5l0,0h-0.1h0.1l0,0l0.1,0.5c0,0,0,0,0,0.1l0,0h0.4
		H188.4L188.4,162.3L188.4,162.3z"/>
	<path class="st5" d="M188.2,162.3h-0.4l0,0l-0.1-0.6h-0.1l0,0l0,0l0,0h0.1l0,0l0,0l0.1,0.5l0,0h0.6l0,0l0,0h-0.2V162.3z"/>
	<path class="st5" d="M187.8,162.2h0.2h0.4l0,0c0-0.1,0-0.2,0-0.2v-0.1l0,0h-0.5h-0.2h0.2h0.5l0,0l0,0v0.1c0,0.1,0,0.2,0,0.2l0,0
		l0,0H188H187.8L187.8,162.2L187.8,162.2z"/>
	<path class="st5" d="M188.4,162.2L188.4,162.2h-0.6l0,0l0,0l0,0h0.2H188.4v-0.4h-0.7l0,0l0,0l0,0h0.2h0.5l0,0l0,0v0.1
		C188.4,162,188.4,162,188.4,162.2L188.4,162.2L188.4,162.2z"/>
	<path class="st5" d="M187.9,162.4L187.9,162.4L187.9,162.4C187.9,162.3,187.8,162.3,187.9,162.4L187.9,162.4
		C187.8,162.5,187.8,162.5,187.9,162.4C187.9,162.5,187.9,162.5,187.9,162.4L187.9,162.4C187.9,162.5,187.9,162.4,187.9,162.4
		L187.9,162.4C187.9,162.5,187.9,162.5,187.9,162.4C187.9,162.5,187.9,162.5,187.9,162.4C187.8,162.4,187.8,162.4,187.9,162.4
		C187.8,162.4,187.8,162.4,187.9,162.4L187.9,162.4L187.9,162.4L187.9,162.4z"/>
	<path class="st5" d="M187.9,162.5L187.9,162.5C187.8,162.5,187.8,162.5,187.9,162.5c-0.1-0.1,0-0.1,0-0.1l0,0
		C187.9,162.4,188,162.4,187.9,162.5L187.9,162.5L187.9,162.5C188,162.5,187.9,162.5,187.9,162.5L187.9,162.5z M187.9,162.4
		L187.9,162.4C187.9,162.4,187.8,162.4,187.9,162.4C187.8,162.5,187.9,162.5,187.9,162.4C187.9,162.5,187.9,162.5,187.9,162.4
		C187.9,162.5,187.9,162.5,187.9,162.4L187.9,162.4L187.9,162.4L187.9,162.4L187.9,162.4L187.9,162.4L187.9,162.4L187.9,162.4z"/>
	<path class="st5" d="M188.3,162.5L188.3,162.5C188.3,162.4,188.3,162.4,188.3,162.5C188.3,162.4,188.3,162.4,188.3,162.5
		c-0.1,0-0.1,0-0.1,0S188.2,162.5,188.3,162.5L188.3,162.5L188.3,162.5L188.3,162.5L188.3,162.5L188.3,162.5L188.3,162.5
		c-0.1,0-0.1,0-0.1,0S188.2,162.4,188.3,162.5C188.3,162.4,188.3,162.4,188.3,162.5C188.3,162.4,188.3,162.4,188.3,162.5
		C188.3,162.4,188.3,162.4,188.3,162.5z"/>
	<path class="st5" d="M188.3,162.5L188.3,162.5C188.2,162.5,188.2,162.5,188.3,162.5c-0.1-0.1,0-0.1,0-0.1s0,0,0.1,0
		C188.3,162.4,188.3,162.4,188.3,162.5L188.3,162.5L188.3,162.5L188.3,162.5L188.3,162.5z M188.3,162.4L188.3,162.4
		C188.2,162.4,188.2,162.4,188.3,162.4C188.2,162.5,188.2,162.5,188.3,162.4C188.3,162.5,188.3,162.5,188.3,162.4L188.3,162.4
		L188.3,162.4L188.3,162.4L188.3,162.4L188.3,162.4L188.3,162.4L188.3,162.4L188.3,162.4z"/>
	<path class="st5" d="M188.6,161.7c0,0.1-0.1,0.2-0.2,0.2s-0.2-0.1-0.2-0.2c0-0.1,0.1-0.2,0.2-0.2S188.6,161.6,188.6,161.7
		L188.6,161.7z"/>
	<path class="st3" d="M188.5,161.8L188.5,161.8L188.5,161.8L188.5,161.8c0-0.1,0-0.2,0-0.2C188.5,161.7,188.5,161.7,188.5,161.8
		L188.5,161.8L188.5,161.8L188.5,161.8z"/>
	<path class="st3" d="M188.6,161.7C188.5,161.7,188.5,161.7,188.6,161.7c-0.1,0-0.2,0-0.2,0S188.4,161.7,188.6,161.7
		C188.5,161.7,188.5,161.7,188.6,161.7z"/>
	<path class="st5" d="M185,162.1c-0.4,0-0.8,0-1.2,0c-0.4,0-0.8,0-1.2,0c0,0,0.6,0,1.2,0C184.4,162.1,185,162.1,185,162.1z"/>
	<path class="st5" d="M176.1,143.5c0,0-0.9,2.2-0.9,3.4l2.4,0.7l0.4-0.8l0.4,0.8c0,0,1.9-0.5,2.4-0.9c0,0-0.5-2.6-0.9-3.2
		c0,0,0.2-0.5,0.1-0.5c-0.2,0-0.5,0-0.7,0s-0.3,0-0.6,0s-0.3,0.3-0.6,0.2c-0.3-0.1-0.3-0.2-0.7-0.2c-0.4-0.1-0.6,0.2-0.8,0.1
		c-0.2,0-0.3-0.1-0.5-0.1c-0.1,0-0.3,0.1-0.3,0.2v0.1l0,0C176,143.3,176.1,143.4,176.1,143.5z"/>
	<path class="st5" d="M179.5,143c0,0.1,0,0.2,0,0.3c0,0.1-0.1,0.2-0.2,0.2c0.1-0.1,0.1-0.2,0.1-0.2
		C179.4,143.2,179.5,143.1,179.5,143z"/>
	<path class="st4" d="M178.1,144.7C178.1,144.7,178.1,144.6,178.1,144.7l-0.2-0.2l-0.4-0.4l0,0l-0.5,0.6l0,0l0,0l0.5,0.6l0,0
		l0.4-0.4C178,144.8,178,144.7,178.1,144.7L178.1,144.7L178.1,144.7l-0.1,0.1l-0.3,0.5l0,0l0,0l-0.5-0.6l0,0l0,0l0,0l0.5-0.6l0,0
		l0,0l0.3,0.4L178.1,144.7C178.1,144.6,178.1,144.7,178.1,144.7z"/>
	<path class="st4" d="M179.9,144.3L179.9,144.3l-0.1-0.2l-0.4-0.4l0,0l-0.5,0.6l0,0l0,0l0.5,0.6l0,0l0.4-0.4L179.9,144.3
		L179.9,144.3L179.9,144.3l-0.1,0.2l-0.3,0.5l0,0l0,0l-0.5-0.6l0,0l0,0l0,0l0.5-0.6l0,0l0,0l0.3,0.4L179.9,144.3L179.9,144.3z"/>
	<path class="st4" d="M178.6,143c0.1,0.1,0.2,0.2,0.3,0.4l0,0l0,0l0,0l0,0l0,0l0,0l0.1-0.1l0.1-0.1l0.1-0.1c0,0,0,0.1-0.1,0.1H179
		c0,0,0,0,0,0.1l0,0l0,0l0,0l0,0l0,0l0,0C178.7,143.3,178.6,143.1,178.6,143z"/>
	<path class="st4" d="M176.8,143.5l-0.1-0.1c-0.1-0.1-0.1-0.2-0.2-0.3l0,0l0,0c-0.1,0.1-0.1,0.2-0.2,0.3c0,0,0,0.1-0.1,0.1
		c0,0,0-0.1,0.1-0.1c0-0.1,0.1-0.2,0.2-0.3l0,0l0,0l0,0c0.1,0.1,0.2,0.2,0.2,0.3C176.8,143.4,176.8,143.5,176.8,143.5z"/>
	<path class="st4" d="M179.3,146.2L179.3,146.2l-0.1-0.2l-0.3-0.4l0,0c-0.1,0.2-0.3,0.4-0.5,0.6l0,0l0,0l0.5,0.6l0,0
		c0.1-0.2,0.3-0.3,0.4-0.4V146.2L179.3,146.2L179.3,146.2l-0.1,0.2l-0.3,0.5l0,0l0,0c-0.1-0.2-0.3-0.4-0.5-0.6l0,0l0,0l0,0
		c0.2-0.2,0.3-0.4,0.5-0.6l0,0l0,0l0.3,0.4L179.3,146.2L179.3,146.2z"/>
	<path class="st4" d="M177.2,146.7L177.2,146.7l-0.2-0.2l-0.4-0.4l0,0l-0.5,0.6l0,0l0,0l0.5,0.6l0,0l0.4-0.4L177.2,146.7
		L177.2,146.7L177.2,146.7l-0.1,0.2l-0.3,0.5l0,0l0,0l-0.5-0.6l0,0l0,0l0,0l0.5-0.6l0,0l0,0L177.2,146.7L177.2,146.7L177.2,146.7z"
		/>
	<path class="st4" d="M175.4,145.6C175.4,145.6,175.5,145.6,175.4,145.6l0.2-0.2c0.1-0.1,0.3-0.2,0.5-0.4h0.1l0,0
		c-0.1-0.2-0.2-0.4-0.2-0.5s-0.1-0.1-0.1-0.2c0,0.1,0.1,0.1,0.1,0.2c0.1,0.1,0.2,0.3,0.3,0.5l0,0l0,0h-0.1c-0.2,0.1-0.4,0.3-0.5,0.4
		C175.6,145.5,175.5,145.6,175.4,145.6C175.5,145.6,175.4,145.6,175.4,145.6z"/>
	<path class="st4" d="M180.8,146.1C180.7,146.1,180.7,146.1,180.8,146.1c-0.1-0.1-0.1-0.1-0.2-0.2c-0.1-0.1-0.3-0.3-0.4-0.4l0,0l0,0
		l0,0c0.1-0.2,0.1-0.4,0.2-0.6c0-0.1,0-0.1,0.1-0.2c0,0,0,0,0-0.1c0,0,0,0,0,0.1c0,0,0,0.1-0.1,0.2c0,0.1-0.1,0.3-0.2,0.6l0,0l0,0
		c0.2,0.2,0.3,0.3,0.4,0.4C180.6,146,180.7,146,180.8,146.1C180.7,146.1,180.8,146.1,180.8,146.1z"/>
	<path class="st5" d="M180,143.5L180,143.5c-0.1,0-0.1,0-0.1,0c-0.1,0-0.3,0-0.4,0c-0.2,0-0.4,0-0.6-0.1c-0.2,0-0.5-0.1-0.7-0.1
		c-0.3,0-0.5,0-0.7,0s-0.4,0-0.6,0c-0.1,0-0.3,0-0.4,0h-0.1l0,0l0,0h0.1c0.1,0,0.3,0,0.4,0c0.2,0,0.4,0,0.6,0s0.5,0,0.8-0.1
		c0.2,0,0.5,0,0.8,0.1c0.2,0,0.4,0.1,0.6,0.1c0.1,0,0.3,0,0.4,0C180,143.5,180,143.5,180,143.5z"/>
	<path class="st5" d="M176.4,145.3C176.4,145.3,176.4,145.2,176.4,145.3c0-0.1,0-0.2,0-0.3c0-0.2,0.1-0.4,0.1-0.6
		c0-0.2,0.1-0.5,0.2-0.6c0-0.1,0-0.1,0.1-0.2c0,0,0,0,0-0.1c0,0,0,0,0,0.1c0,0,0,0.1,0,0.2c0,0.2-0.1,0.4-0.2,0.6
		c0,0.2-0.1,0.5-0.1,0.6S176.5,145.2,176.4,145.3C176.5,145.2,176.4,145.3,176.4,145.3z"/>
	<path class="st5" d="M176.8,144.6c0-0.2,0-0.4,0.1-0.5c0-0.2,0.1-0.4,0.1-0.5c0,0.2,0,0.4-0.1,0.5
		C176.9,144.3,176.8,144.4,176.8,144.6z"/>
	<path class="st6" d="M179.7,146.2L179.7,146.2c-0.1-0.2-0.1-0.3-0.2-0.4c-0.2-0.6-0.4-1.3-0.4-1.9c0-0.1,0-0.2,0-0.3v-0.1v0.1
		c0,0.1,0,0.2,0,0.3c0,0.3,0.1,0.7,0.1,1c0.1,0.3,0.2,0.6,0.2,1c0,0.1,0.1,0.2,0.1,0.3C179.7,146.2,179.7,146.2,179.7,146.2z"/>
	<path class="st6" d="M179.6,144.5c0,0,0-0.1-0.1-0.1c0-0.1-0.1-0.2-0.1-0.3c0-0.1-0.1-0.3-0.1-0.3v-0.1v0.1c0,0.1,0.1,0.2,0.1,0.3
		c0,0.1,0.1,0.2,0.1,0.3C179.6,144.4,179.6,144.5,179.6,144.5z"/>
	<path class="st6" d="M177.8,147.4L177.8,147.4h-0.1c-0.1,0-0.2,0-0.3-0.1c-0.3-0.1-0.6-0.2-0.9-0.4c-0.3-0.2-0.6-0.3-0.9-0.3
		c-0.1,0-0.2,0-0.3,0c-0.1,0-0.1,0-0.1,0l0,0c0,0,0,0,0.1,0c0.1,0,0.2,0,0.3,0c0.3,0.1,0.6,0.2,0.9,0.3c0.3,0.2,0.7,0.3,0.9,0.4
		C177.6,147.3,177.7,147.3,177.8,147.4L177.8,147.4z"/>
	<path class="st6" d="M180.8,146.4L180.8,146.4c-0.1,0.1-0.2,0.1-0.3,0.2c-0.3,0.2-0.6,0.3-0.8,0.4c-0.3,0.1-0.6,0.2-0.9,0.3
		c-0.1,0-0.2,0.1-0.3,0.1h-0.1h0.1c0.1,0,0.2,0,0.3-0.1c0.2-0.1,0.5-0.2,0.9-0.3c0.4-0.1,0.6-0.3,0.8-0.4l0.2-0.1
		C180.8,146.4,180.8,146.4,180.8,146.4z"/>
	<path class="st5" d="M179.7,143.2c0,0.1,0,0.1-0.1,0.2c0,0.1-0.1,0.1-0.2,0.1l0.1-0.1C179.6,143.3,179.7,143.2,179.7,143.2z"/>
	<path class="st5" d="M177,143c0,0,0,0.1,0.1,0.2c0.1,0.1,0.1,0.2,0.1,0.2c-0.1,0-0.1-0.1-0.1-0.2C177,143.2,177,143.1,177,143z"/>
	<path class="st5" d="M176.8,159.3h3.1c0.2,0,0.3,0.1,0.3,0.3v1.9c0,0.2-0.1,0.3-0.3,0.3h-3.1c-0.2,0-0.3-0.1-0.3-0.3v-1.9
		C176.6,159.4,176.7,159.3,176.8,159.3z"/>
	<path class="st5" d="M179.2,159.8C179.2,159.7,179.2,159.7,179.2,159.8v-0.2c0-0.2,0-0.3,0-0.5c0-0.2-0.1-0.5-0.3-0.7
		c-0.1-0.1-0.2-0.2-0.4-0.2s-0.3,0-0.5,0c-0.3,0-0.6,0.1-0.8,0.2c-0.1,0.1-0.2,0.2-0.2,0.3s-0.1,0.2-0.1,0.3c0,0.2,0,0.3,0,0.5
		c0,0.1,0,0.1,0,0.1l0,0l0,0v-0.1c0-0.2,0-0.3,0-0.5c0-0.1,0-0.2,0.1-0.3c0-0.1,0.1-0.2,0.2-0.3c0.1-0.1,0.2-0.2,0.4-0.2
		s0.3-0.1,0.5-0.1c0.2,0,0.3,0,0.5,0c0.1,0,0.3,0.1,0.4,0.2c0.2,0.2,0.3,0.4,0.3,0.7c0,0.2,0,0.3,0,0.5
		C179.2,159.6,179.2,159.7,179.2,159.8C179.2,159.7,179.2,159.7,179.2,159.8z"/>
	<path class="st6" d="M176.4,159.3h3.1c0.2,0,0.3,0.1,0.3,0.3v1.9c0,0.2-0.1,0.3-0.3,0.3h-3.1c-0.2,0-0.3-0.1-0.3-0.3v-1.9
		C176.1,159.4,176.2,159.3,176.4,159.3z"/>
	<path class="st5" d="M179.5,161.7h0.1c0,0,0.1,0,0.1-0.1c0,0,0.1-0.1,0.1-0.2c0-0.3,0-0.7,0-1.3c0-0.1,0-0.3,0-0.4
		c0-0.1,0-0.1,0-0.2s0-0.1-0.1-0.2c-0.1-0.1-0.1-0.1-0.2-0.1h-0.2h-0.5h-2.3c-0.1,0-0.2,0-0.2,0.1v0.1v0.7c0,0.4,0,0.7,0,1.1v0.1
		c0,0,0,0.1,0.1,0.1c0.1,0.1,0.1,0.1,0.2,0.1h1.3h1.1h0.3L179.5,161.7L179.5,161.7L179.5,161.7h-0.1H179h-1.3h-0.9h-0.5
		c-0.1,0-0.3-0.1-0.3-0.2v-0.1c0-0.4,0-0.7,0-1.1c0-0.2,0-0.4,0-0.6c0,0,0-0.1,0-0.2s0-0.1,0-0.2c0.1-0.1,0.2-0.2,0.3-0.2h3
		c0.1,0,0.2,0,0.2,0.1c0.1,0,0.1,0.1,0.1,0.2c0,0.1,0,0.2,0,0.2v0.4c0,0.5,0,1,0,1.3c0,0.1,0,0.1-0.1,0.2l-0.1,0.1
		C179.6,161.7,179.5,161.7,179.5,161.7z"/>
	<path class="st5" d="M179.7,160.5c0,0-0.8,0-1.8,0s-1.8,0-1.8,0s0.8,0,1.8,0S179.7,160.5,179.7,160.5z"/>
	<path class="st2" d="M177.9,160.8c0-0.2,0-0.4,0-0.6C178,160.4,178,160.7,177.9,160.8z"/>
	<path class="st7" d="M175.2,153.3c0,0,0.9-2.5,1.1-2.7c0.2-0.2,1.2-0.4,1.2-0.4l0.7,2.3l0.8-2.4c0,0,0.9,0.3,1.1,0.7
		c0.2,0.4,0.9,2.5,0.9,2.5l-1.4,0.5l0.2,0.8h-3.5l0.2-0.7L175.2,153.3z"/>
	<g class="st9">
		<path d="M177.1,151.7c-0.2-0.4-0.4-0.9-0.4-1.3l-0.3,0.1c0,0.5,0.2,0.9,0.4,1.3c0,0.1,0.1,0.1,0.1,0.2s0.1,0,0.2,0
			C177.2,151.9,177.1,151.8,177.1,151.7z"/>
	</g>
	<g class="st9">
		<path d="M177.5,153.1l-0.1-0.1l0,0c-0.1,0-0.2,0.1-0.2,0.2c0,0.1,0.1,0.2,0.2,0.2c0,0,0,0,0.1,0c0,0,0.1,0,0.1-0.1v-0.1
			C177.6,153.2,177.6,153.2,177.5,153.1z"/>
	</g>
	<g class="st9">
		<path d="M179.7,154c-0.1,0.2-0.3,0.3-0.5,0.4c-0.2,0.1-0.4,0.1-0.6,0c-0.1,0-0.2-0.1-0.2-0.1c-0.1,0-0.1,0.1-0.2,0
			c0,0-0.1,0-0.1-0.1c0-0.1,0-0.2,0.1-0.2c0.1,0,0.2,0,0.2,0c0.1,0,0.2,0,0.2,0c0.3,0,0.7-0.2,0.9-0.5l0.2-0.2l-0.1,0.5L179.7,154z"
			/>
	</g>
	<path class="st5" d="M179.9,152.6c0,0.2-0.1,0.4-0.1,0.6s-0.1,0.4-0.1,0.6c0-0.2,0.1-0.4,0.1-0.6S179.9,152.8,179.9,152.6z"/>
	<path class="st3" d="M179.9,150.5C179.9,150.6,179.9,150.6,179.9,150.5c0,0.1,0,0.2-0.1,0.2c-0.1,0.2-0.2,0.3-0.4,0.4
		c-0.2,0.1-0.4,0.1-0.5,0.1c-0.1,0-0.1,0-0.2,0c0,0,0,0-0.1,0c0,0,0.1,0,0.2,0c0.2,0,0.4,0,0.5-0.1c0.2-0.1,0.3-0.2,0.4-0.4
		C179.9,150.6,179.9,150.5,179.9,150.5z"/>
	<path class="st3" d="M180.1,150.8L180.1,150.8c-0.1,0.1-0.1,0.2-0.1,0.2c-0.3,0.4-0.7,0.5-1.2,0.5c-0.1,0-0.1,0-0.2,0
		c0,0,0,0-0.1,0c0,0,0.1,0,0.3,0.1c0.4,0.1,0.9-0.1,1.2-0.4C180.1,150.9,180.1,150.9,180.1,150.8z"/>
	<path class="st3" d="M178.1,152.2C178,152.2,178,152.3,178.1,152.2c-0.1,0-0.2,0.1-0.3,0.1c-0.2,0.1-0.4,0.2-0.6,0.3
		c-0.2,0.1-0.4,0.3-0.5,0.5c-0.1,0.1-0.1,0.1-0.1,0.2c0,0,0,0-0.1,0.1c0,0,0,0,0-0.1c0,0,0.1-0.1,0.1-0.2c0.2-0.2,0.3-0.3,0.5-0.5
		c0.2-0.1,0.4-0.2,0.6-0.3C177.9,152.3,177.9,152.3,178.1,152.2C178,152.2,178,152.2,178.1,152.2z"/>
	<path class="st3" d="M178,152L178,152c-0.1,0-0.2,0.1-0.3,0.1c-0.2,0.1-0.4,0.2-0.6,0.3c-0.2,0.1-0.4,0.2-0.6,0.3
		c-0.1,0-0.1,0.1-0.2,0.1c0,0,0,0-0.1,0c0,0,0,0,0.1,0c0,0,0.1-0.1,0.2-0.1c0.2-0.1,0.4-0.2,0.6-0.3c0.2-0.1,0.4-0.2,0.7-0.2
		C177.8,152,177.9,152,178,152L178,152z"/>
	<path class="st3" d="M180.6,153.4c-0.1-0.1-0.2-0.2-0.3-0.2c-0.1-0.1-0.2-0.1-0.4-0.2h0.1c0.1,0,0.2,0.1,0.3,0.1
		C180.4,153.1,180.4,153.3,180.6,153.4C180.5,153.4,180.5,153.4,180.6,153.4z"/>
	<path class="st3" d="M175.7,153.4c-0.1-0.1-0.1-0.2-0.2-0.4c0-0.1-0.1-0.3-0.1-0.4c0,0,0.1,0.2,0.1,0.4
		C175.6,153.2,175.7,153.4,175.7,153.4z"/>
	<path class="st3" d="M177.2,154.6c-0.1,0-0.2-0.1-0.4-0.2c-0.1-0.1-0.2-0.1-0.3-0.2c0,0,0.2,0.1,0.4,0.2
		C177,154.5,177.2,154.6,177.2,154.6z"/>
	<path class="st5" d="M178.1,153v-0.1c0-0.1-0.1-0.2-0.1-0.3c-0.1-0.2-0.2-0.6-0.3-1c-0.1-0.4-0.2-0.7-0.3-1c0-0.1-0.1-0.2-0.1-0.3
		v-0.1v0.1c0,0.1,0.1,0.2,0.1,0.3c0.1,0.2,0.2,0.6,0.3,1c0.1,0.4,0.2,0.7,0.3,1c0,0.1,0.1,0.2,0.1,0.3
		C178.1,152.9,178.1,152.9,178.1,153z"/>
	<path class="st5" d="M178.4,153c0,0-0.1,0-0.2,0c0,0-0.1,0-0.2,0C178.2,153,178.3,153,178.4,153L178.4,153z"/>
	<path class="st5" d="M179.2,150.2c0,0-0.2,0.6-0.4,1.4c-0.2,0.8-0.4,1.4-0.5,1.4c-0.1,0,0.2-0.6,0.4-1.4
		C179,150.8,179.2,150.2,179.2,150.2z"/>
	<path class="st5" d="M176.5,153.9c0,0-0.1-0.3-0.2-0.7c-0.1-0.2-0.1-0.5-0.1-0.7c0,0,0.1,0.3,0.2,0.7
		C176.5,153.6,176.6,153.9,176.5,153.9z"/>
	<path d="M180.6,132.1l-0.2,0.7h-0.2l-0.2-0.5l-0.2,0.5h-0.2l-0.2-0.7h0.2l0.2,0.5l0.2-0.5h0.2l0.2,0.5L180.6,132.1L180.6,132.1z"/>
	<path d="M180.7,132.1h0.2v0.7h-0.2V132.1z"/>
	<path d="M180.9,132.7l0.1-0.1c0.1,0,0.2,0.1,0.2,0.1c0.1,0,0.1,0,0.1-0.1c0-0.1-0.4,0-0.4-0.3c0-0.1,0.1-0.2,0.3-0.2
		c0.1,0,0.2,0,0.2,0.1v0.1c-0.1,0-0.1-0.1-0.2-0.1c-0.1,0-0.1,0-0.1,0.1c0,0.1,0.4,0,0.4,0.3c0,0.1-0.1,0.2-0.3,0.2
		C181.1,132.8,181,132.8,180.9,132.7z"/>
	<path d="M182.3,132.1v0.7h-0.2v-0.3h-0.3v0.3h-0.2v-0.7h0.2v0.3h0.3v-0.3H182.3z"/>
	<path d="M182.6,132.1L182.6,132.1v0.7h0.4v0.1h-0.5L182.6,132.1z"/>
	<path d="M183.2,132.1L183.2,132.1l-0.1,0.7H183L183.2,132.1z"/>
	<path d="M183.3,132.7L183.3,132.7c0.1,0,0.2,0,0.3,0c0.1,0,0.2,0,0.2-0.1c0-0.2-0.4-0.1-0.4-0.3c0-0.1,0.1-0.2,0.3-0.2
		c0.1,0,0.2,0,0.2,0.1v0.1c-0.1,0-0.1-0.1-0.2-0.1c-0.1,0-0.2,0.1-0.2,0.1c0,0.2,0.4,0.1,0.4,0.3c0,0.1-0.1,0.2-0.3,0.2
		C183.5,132.8,183.4,132.8,183.3,132.7z"/>
	<path d="M184.3,132.1H184V132h0.6v0.1H184.3v0.7h-0.1L184.3,132.1z"/>
	<path class="st5" d="M189,131.9c0,0-0.3,0-0.8,0c-0.4,0-0.8,0-0.8,0s0.3,0,0.8,0S189,131.9,189,131.9z"/>
	<path class="st5" d="M189,132.3c0,0-0.3,0-0.8,0s-0.8,0-0.8,0s0.3,0,0.8,0S189,132.3,189,132.3z"/>
	<path class="st5" d="M189,132.7c0,0-0.3,0-0.8,0c-0.3,0-0.5,0-0.8,0c0,0,0.3,0,0.8,0C188.5,132.7,188.8,132.7,189,132.7z"/>
</g>
<g id="freepik--Character--inject-25">
	<polygon class="st7" points="177.4,166.2 176.9,170.2 174.8,170 175.3,166 	"/>
	<path class="st5" d="M175.9,169.9c0,0,0.1-0.9,0.2-1.9c0.2-1.1,0.3-1.9,0.3-1.9s-0.1,0.9-0.2,1.9
		C176.1,169,175.9,169.9,175.9,169.9z"/>
	<polygon class="st5" points="176.9,169.9 174.8,169.7 174.8,170 176.9,170.2 	"/>
	<path class="st5" d="M174.9,168.7C174.9,168.7,175,168.6,174.9,168.7c0.1-0.2,0.2-0.2,0.3-0.3c0.1-0.1,0.2-0.1,0.4-0.2
		c0.5-0.2,1,0,1.3,0.4c0,0.1,0.1,0.2,0.1,0.2v0.1c0-0.1-0.1-0.2-0.2-0.3c-0.2-0.2-0.4-0.4-0.7-0.4c-0.3,0-0.6,0-0.9,0.2
		C175,168.6,174.9,168.7,174.9,168.7z"/>
	<g class="st9">
		<polygon points="177.2,167.8 177.2,168.2 175,168 175.1,167.6 		"/>
	</g>
	<polygon class="st7" points="184.3,166.5 184,170.5 181.9,170.4 182.1,166.4 	"/>
	<path class="st5" d="M183,170.3c0,0,0-0.9,0.1-2c0.1-1.1,0.2-2,0.2-2s0,0.9-0.1,2C183.1,169.4,183,170.3,183,170.3z"/>
	<polygon class="st5" points="184,170.2 181.9,170.1 181.9,170.4 184,170.5 	"/>
	<path class="st5" d="M181.9,169.1C181.9,169.1,182,169.1,181.9,169.1c0.1-0.2,0.2-0.2,0.3-0.3c0.1-0.1,0.2-0.2,0.4-0.2
		c0.2-0.1,0.3-0.1,0.5-0.1c0.3,0,0.6,0.2,0.8,0.4c0.1,0.1,0.1,0.2,0.1,0.2v0.1c-0.1-0.1-0.1-0.2-0.2-0.3c-0.2-0.2-0.5-0.4-0.8-0.4
		s-0.6,0.1-0.8,0.3S181.9,169.1,181.9,169.1z"/>
	<g class="st9">
		<polygon points="184.2,168.1 184.1,168.5 182,168.4 182,168.1 		"/>
	</g>
	<path class="st5" d="M176.2,147.8c-0.1,0-0.3,2.6-0.2,3.5c0.1,0.9,0.1,7.6,0.1,7.6s-0.4,0.3-0.4,0.7c0,0.4-0.8,7.9-0.8,7.9l2.4,0.4
		c0,0,2.2-8.1,2.3-9.3c0.1-1.1,1.6-8.9,1.6-8.9s0.5,7.3,0.5,8.4s0,9.8,0,9.8s1.8,0.3,2.7,0c0,0,0.7-6.5,0.7-8.7v-3.5
		c0,0,0.9-4,1.3-6.1c0.4-2.1,0-4,0-4l-7.3-1L176.2,147.8z"/>
	<path class="st6" d="M178.1,159.6c-0.3-0.1-0.6-0.1-0.9-0.1s-0.6,0.1-0.9,0.3c0.1-0.1,0.2-0.1,0.2-0.1c0.4-0.2,0.9-0.2,1.3-0.1
		C177.9,159.5,178,159.5,178.1,159.6z"/>
	<path class="st6" d="M178.3,158.9c-0.2,0-0.5,0-0.7,0c-0.2,0-0.5,0-0.7-0.1c0.2,0,0.5,0,0.7,0C177.8,158.9,178,158.9,178.3,158.9z"
		/>
	<path class="st6" d="M183.3,160.4C183.3,160.4,183.2,160.4,183.3,160.4c-0.1-0.1-0.2-0.2-0.2-0.2c-0.4-0.4-0.6-1-0.6-1.6
		c0-0.1,0-0.2,0-0.2v-0.1c0,0,0,0.1,0,0.3c0.1,0.6,0.3,1.1,0.6,1.5C183.2,160.4,183.3,160.4,183.3,160.4z"/>
	<path class="st6" d="M181.3,149.6L181.3,149.6l-0.2,0.2l-0.1,0.1c-0.3,0.2-0.6,0.3-0.9,0.4c-0.3,0.1-0.7,0.1-1,0.1H179h-0.1h-0.1
		c0,0-0.1,0-0.1-0.1c0.1,0,0.3,0.1,0.4,0.1c0.3,0,0.7,0,1-0.1c0.3-0.1,0.6-0.2,0.9-0.4l0.1-0.1L181.3,149.6
		C181.2,149.6,181.3,149.6,181.3,149.6z"/>
	<path class="st10" d="M190.2,129.1c0-0.4,0.1-0.7,0.2-1c0.2-0.5,1-1.3,1-1.3s1-0.8,1.1-0.8s0.1,0.2,0,0.3c-0.1,0.1-0.7,0.8-0.7,0.8
		s0.2,0.1,0.2,0.2c0,0.1,0,0.2,0,0.2s0.2,0.1,0.3,0.2c0,0.1,0,0.2,0,0.2c0.1,0,0.1,0.1,0.1,0.2c0,0.1,0,0.2,0,0.3
		c0,0-0.4,0.4-0.5,0.5c-0.2,0.1-0.4,0.1-0.4,0.1l-0.1,0.2v0.5L190.2,129.1z"/>
	<path class="st6" d="M174.6,133c0,0-3.7,6.6-3.7,7.6c0,1.8,5.1,3.3,5.1,3.3l0.7-2.1l-2.6-1.8l1.9-4.2L174.6,133z"/>
	<path class="st6" d="M174.6,133c0.5-0.4,1.1-0.6,1.7-0.7c1-0.1,2.8-0.2,2.8-0.2s4.9-1.1,5.2-0.9c0.4,0.2,0.9,1.5,0.9,2.1
		c0.1,0.6-0.4,6.5-0.4,6.5s2.2,6.8,2,7c-0.1,0.1-2.7,1-5.4,1.2l-0.1-2l-0.3,2c-2.5,0.2-5.3,0.3-5.3,0.3s1.9-6.7,1.9-6.9
		C177.5,141.2,174.3,133.7,174.6,133z"/>
	<path class="st6" d="M184.3,131.3c0,0,1.8,1,2,1s0.4-0.4,0.7-0.1l1.6-0.3l1.6-2.9c0.6,0.2,1.1,0.5,1.6,1c0,0-0.9,3-1.4,3.5
		s-2.6,2-5.5,2l-0.4-2.4L184.3,131.3z"/>
	<path class="st5" d="M186.1,134.8c0,0,0.1-0.1,0.2-0.4c0.1-0.1,0.1-0.3,0.1-0.4c0-0.2,0.1-0.3,0.1-0.5s0-0.3,0-0.5
		c0-0.1,0-0.3-0.1-0.4c-0.1-0.2-0.1-0.4-0.1-0.4s0,0.1,0.1,0.1c0,0.1,0.1,0.2,0.1,0.3c0,0.1,0.1,0.3,0.1,0.4c0,0.2,0,0.4,0,0.5
		c0,0.2,0,0.4-0.1,0.5c0,0.1-0.1,0.3-0.2,0.4C186.3,134.6,186.2,134.7,186.1,134.8L186.1,134.8z"/>
	<path class="st5" d="M189.2,132.6c-0.3-0.1-0.5-0.3-0.7-0.6c0.1,0.1,0.2,0.2,0.3,0.3C189,132.3,189.1,132.4,189.2,132.6z"/>
	<path class="st10" d="M176,143.8c0,0,0.1,0.3,0.5,0c0,0,0.6-0.1,0.9-0.4c0.3-0.3,0.4-0.5,0.6-0.5s0.8-0.1,0.8-0.1s0.2-0.3,0-0.4
		c-0.2-0.1-1.1,0-1.1,0h-0.2v-0.3v-0.3c0,0-0.5,0.2-0.5,0.3c0,0-0.4-0.1-0.4,0.1L176,143.8z"/>
	<path class="st5" d="M176.3,138.2c0,0,0-0.1-0.1-0.1c0-0.1-0.1-0.2-0.2-0.4c-0.1-0.3-0.3-0.7-0.5-1.2s-0.3-0.9-0.4-1.2
		c0-0.2-0.1-0.3-0.1-0.4v-0.1v0.1l0.1,0.4c0.1,0.3,0.2,0.7,0.4,1.2s0.3,0.9,0.4,1.2l0.1,0.4C176.3,138.1,176.3,138.2,176.3,138.2z"
		/>
	<path class="st5" d="M182.3,141.6c0,0,0,0.1-0.1,0.2c-0.1,0.1-0.2,0.2-0.3,0.4c-0.3,0.4-0.7,0.8-1.1,1.1c-0.4,0.3-0.8,0.6-1.3,0.8
		c-0.2,0.1-0.3,0.2-0.4,0.2c0,0-0.1,0-0.2,0.1c0,0,0.1-0.1,0.2-0.1c0.1,0,0.2-0.1,0.4-0.2c0.9-0.5,1.7-1.1,2.4-2
		c0.1-0.2,0.2-0.3,0.3-0.4C182.3,141.7,182.3,141.7,182.3,141.6z"/>
	<path class="st5" d="M174.2,140c0,0-0.3,0.1-0.6,0.2c-0.3,0.1-0.6,0.3-0.6,0.2c0.2-0.1,0.4-0.2,0.6-0.3
		C173.8,140,174,140,174.2,140z"/>
	<g class="st9">
		<path d="M175.6,136.6c-0.4-0.2-0.8-0.7-0.8-1.1c-0.1-0.4,0.1-0.9,0.1-1.3C175.1,135,175.4,135.8,175.6,136.6"/>
	</g>
	<g class="st9">
		<path d="M179.4,144.8c1.3,0.4,2.7-0.3,3.1-1.5c0-0.1,0.1-0.2,0.1-0.3C181.6,143.6,180.5,144.3,179.4,144.8z"/>
	</g>
	<path class="st5" d="M185.1,132.7v0.1c0,0.1,0,0.2,0.1,0.4c0.1,0.8,0.1,1.6-0.1,2.3c0,0.1,0,0.3-0.1,0.3v0.1c0,0,0-0.2,0.1-0.5
		c0.1-0.8,0.1-1.6,0-2.3C185.1,132.9,185.1,132.7,185.1,132.7z"/>
	<g class="st9">
		<path d="M183.1,130.6l-5.7,8.8c1.4,0.7,3.1,1,4.4,0.2c0.4,0.5,1.1,0.3,1.5-0.2c0.4-0.5,0.4-1.1,0.4-1.7
			C183.8,135.4,183.4,133,183.1,130.6z"/>
	</g>
	<path class="st5" d="M180.8,124.4c-0.6-0.1-1.2,0.2-1.7,0.6s-0.8,1-1,1.6c-0.5,1.1-0.7,2.3-1,3.5c-0.4,1.7-0.8,3.5-0.9,5.3
		c-0.1,1.8,0.4,2.8,1.2,4.5l2.7-0.4V139l0.4,0.5l1.1-0.2l0.3-2.8l0.5,2.6l0.9-0.1c0.9-3.5-0.1-5.8,0.4-9.3c0.1-0.8,0.3-1.7,0.3-2.5
		c0-0.8-0.4-1.8-1-2.4C182.4,124.1,181.4,123.9,180.8,124.4"/>
	<path class="st6" d="M181.5,139.2C181.5,139.1,181.4,139.1,181.5,139.2c0-0.1,0-0.1,0-0.2l-0.1-0.5c-0.1-0.4-0.2-1-0.2-1.7
		c-0.1-0.8-0.2-1.7-0.1-2.5c0-0.5,0-1,0.1-1.5c0.1-0.5,0.2-1,0.3-1.6c0.3-1,0.7-2,0.9-2.9c0.1-0.4,0.2-0.9,0.2-1.3s-0.1-0.8-0.2-1.1
		c-0.1-0.3-0.2-0.6-0.4-0.8c-0.1-0.2-0.3-0.4-0.5-0.5c-0.3-0.1-0.4-0.2-0.5-0.3h-0.1l0,0l0,0h0.1c0.1,0.1,0.3,0.1,0.4,0.2
		c0.2,0.1,0.4,0.3,0.5,0.5c0.2,0.3,0.3,0.5,0.4,0.9c0.1,0.4,0.2,0.8,0.2,1.2c0,0.5-0.1,0.9-0.2,1.3c-0.2,0.9-0.6,1.9-0.9,2.9
		c-0.1,0.5-0.2,1-0.3,1.6c-0.1,0.5-0.1,1-0.1,1.5c0,0.8,0,1.7,0.1,2.5c0.1,0.7,0.2,1.3,0.2,1.7c0,0.2,0,0.3,0.1,0.5
		C181.4,139.1,181.4,139.1,181.5,139.2C181.5,139.1,181.5,139.1,181.5,139.2z"/>
	<path class="st6" d="M177.7,137.4C177.7,137.4,177.7,137.3,177.7,137.4C177.7,137.3,177.7,137.3,177.7,137.4v-0.5
		c0-0.1,0-0.2,0-0.3c0-0.1,0-0.2,0-0.3c0-0.2,0-0.5,0-0.8c0-0.1,0-0.3,0-0.5s0-0.3,0-0.5c0-0.3,0-0.7,0-1.1c0.1-0.8,0.2-1.7,0.3-2.5
		c0.2-0.8,0.4-1.6,0.6-2.4c0.1-0.4,0.2-0.7,0.4-1c-0.1-0.2,0-0.4,0-0.5l0.2-0.4c0.1-0.3,0.2-0.5,0.3-0.7c0-0.1,0.1-0.2,0.1-0.3
		l0.1-0.2c0.1-0.1,0.1-0.2,0.2-0.3V125l0,0l0,0c0,0,0,0,0,0.1s-0.1,0.2-0.2,0.3c0,0.1-0.1,0.2-0.1,0.2c0,0.1-0.1,0.2-0.1,0.3
		c-0.1,0.2-0.2,0.5-0.3,0.7c-0.1,0.1-0.1,0.3-0.2,0.4c0,0.2,0,0.3-0.1,0.5c-0.1,0.3-0.2,0.7-0.4,1c-0.2,0.8-0.4,1.6-0.6,2.4
		c-0.2,0.8-0.3,1.7-0.3,2.5c0,0.4,0,0.8-0.1,1.1c0,0.2,0,0.3,0,0.5s0,0.3,0,0.5c0,0.3,0,0.6,0,0.8c0,0.1,0,0.2,0,0.3
		c0,0.1,0,0.2,0,0.3c0,0.2,0,0.3,0,0.4C177.6,137.3,177.6,137.3,177.7,137.4C177.6,137.3,177.6,137.4,177.7,137.4z"/>
	<path class="st6" d="M179.1,139.5C179.1,139.5,179.1,139.4,179.1,139.5c0-0.1,0-0.1,0-0.1c0-0.1-0.1-0.2-0.1-0.4
		c0-0.1,0-0.2-0.1-0.3c0-0.1,0-0.2-0.1-0.3c0-0.2-0.1-0.5-0.2-0.8c0-0.2-0.1-0.3-0.1-0.5c0-0.2,0-0.3-0.1-0.5
		c-0.1-0.2-0.1-0.4-0.1-0.6s0-0.4,0-0.6c-0.1-0.9,0-1.8,0-2.6c0.1-0.9,0.2-1.8,0.4-2.6c0-0.2,0.1-0.4,0.1-0.6c0-0.2,0.1-0.4,0.1-0.5
		c0.1-0.3,0.2-0.7,0.3-1c0.1-0.3,0.2-0.5,0.3-0.8c0.1-0.2,0.2-0.4,0.2-0.6l0.3-0.4v-0.1l0,0l0,0v0.1c0,0.1-0.1,0.2-0.1,0.4
		c0,0.2-0.1,0.4-0.2,0.6c-0.1,0.2-0.2,0.5-0.3,0.8c-0.1,0.3-0.2,0.6-0.3,1c0,0.2-0.1,0.4-0.1,0.5l-0.1,0.6c-0.2,0.9-0.3,1.7-0.4,2.6
		c-0.1,0.9-0.1,1.8,0,2.6c0,0.2,0,0.4,0,0.6s0,0.4,0.1,0.5c0.1,0.1,0,0.3,0.1,0.5c0,0.2,0.1,0.3,0.1,0.5c0,0.3,0.1,0.6,0.2,0.8
		c0,0.1,0,0.2,0.1,0.3c0,0.1,0,0.2,0.1,0.3l0.1,0.4C179.1,139.3,179.1,139.4,179.1,139.5C179.1,139.4,179.1,139.4,179.1,139.5z"/>
	<path class="st6" d="M182.9,137.8L182.9,137.8c0-0.1,0-0.1-0.1-0.1v-0.2c0-0.1-0.1-0.1-0.1-0.2c-0.2-0.5-0.4-1-0.4-1.5
		c-0.2-1.2-0.2-2.5,0.1-3.8c0.1-0.5,0.3-1,0.4-1.5c0.2-0.5,0.3-1,0.4-1.5c0.1-0.5,0.2-0.9,0.2-1.4c0-0.4,0-0.8-0.1-1.3
		c-0.1-0.4-0.2-0.7-0.4-1c-0.3-0.5-0.7-0.8-1.2-1c-0.1-0.1-0.3-0.1-0.4-0.1h-0.1l0,0l0,0h0.1c0.1,0,0.3,0.1,0.4,0.1
		c0.5,0.2,0.9,0.6,1.2,1c0.2,0.3,0.4,0.7,0.4,1c0.1,0.4,0.2,0.8,0.1,1.3c0,0.5-0.1,0.9-0.2,1.4c-0.1,0.5-0.2,1-0.4,1.5
		s-0.3,1-0.4,1.5c-0.1,0.5-0.2,0.9-0.2,1.4c-0.1,1.3,0.1,2.7,0.6,3.9c0,0.1,0.1,0.2,0.1,0.2l0.1,0.2L182.9,137.8
		C182.9,137.7,182.9,137.8,182.9,137.8z"/>
</g>
<g id="freepik--Floor--inject-25">
	<path class="st5" d="M208.8,147.1c0,0-11.1,0-24.8,0c-13.7,0-24.8,0-24.8,0s11.1,0,24.8,0C197.7,147.1,208.8,147.1,208.8,147.1z"/>
</g>
<rect x="-54.2" y="-7.7" class="st11" width="476.5" height="309.5"/>
<g>
	<path d="M74,134.4v-28H85c2.1,0,3.9,0.4,5.4,1.2c1.5,0.8,2.6,1.9,3.4,3.4s1.2,3.1,1.2,4.9c0,1.9-0.4,3.5-1.2,4.9
		c-0.8,1.4-2,2.5-3.5,3.3s-3.4,1.2-5.5,1.2h-7v-4.8h6.1c1.1,0,2.1-0.2,2.8-0.6c0.7-0.4,1.3-0.9,1.7-1.7c0.4-0.7,0.6-1.5,0.6-2.4
		c0-0.9-0.2-1.7-0.6-2.4c-0.4-0.7-0.9-1.2-1.7-1.6c-0.7-0.4-1.7-0.6-2.8-0.6h-4v23.2H74z"/>
	<path d="M104.7,106.4v28h-5.8v-28H104.7z"/>
	<path d="M115.3,134.8c-1.3,0-2.5-0.2-3.6-0.7c-1-0.5-1.9-1.2-2.5-2.1c-0.6-0.9-0.9-2.1-0.9-3.5c0-1.2,0.2-2.1,0.6-2.9
		c0.4-0.8,1-1.4,1.8-1.9c0.7-0.5,1.6-0.8,2.5-1.1s1.9-0.4,3-0.5c1.2-0.1,2.2-0.2,3-0.4s1.3-0.3,1.6-0.5c0.3-0.2,0.5-0.6,0.5-1v-0.1
		c0-0.9-0.3-1.5-0.8-2c-0.5-0.5-1.3-0.7-2.3-0.7c-1,0-1.9,0.2-2.5,0.7c-0.6,0.5-1,1-1.2,1.7l-5.4-0.4c0.3-1.3,0.8-2.4,1.6-3.3
		c0.8-0.9,1.8-1.7,3.1-2.2c1.3-0.5,2.7-0.8,4.4-0.8c1.2,0,2.3,0.1,3.4,0.4c1.1,0.3,2,0.7,2.9,1.3c0.8,0.6,1.5,1.3,2,2.2
		c0.5,0.9,0.7,2,0.7,3.2v14.2h-5.5v-2.9h-0.2c-0.3,0.7-0.8,1.2-1.4,1.7s-1.2,0.9-2,1.2S116.4,134.8,115.3,134.8z M117,130.8
		c0.9,0,1.6-0.2,2.3-0.5s1.2-0.8,1.5-1.4s0.6-1.2,0.6-2v-2.2c-0.2,0.1-0.4,0.2-0.7,0.3c-0.3,0.1-0.7,0.2-1.1,0.3s-0.8,0.1-1.2,0.2
		c-0.4,0.1-0.7,0.1-1.1,0.2c-0.7,0.1-1.3,0.3-1.8,0.5c-0.5,0.2-0.9,0.5-1.2,0.9c-0.3,0.4-0.4,0.8-0.4,1.4c0,0.8,0.3,1.4,0.9,1.8
		C115.4,130.6,116.1,130.8,117,130.8z"/>
	<path d="M141.2,134.8c-2.2,0-4-0.5-5.6-1.4c-1.5-0.9-2.7-2.2-3.6-3.8c-0.8-1.6-1.2-3.5-1.2-5.6c0-2.2,0.4-4,1.3-5.7
		c0.8-1.6,2-2.9,3.6-3.8s3.4-1.4,5.5-1.4c1.8,0,3.4,0.3,4.8,1c1.4,0.7,2.5,1.6,3.3,2.8s1.2,2.6,1.3,4.2h-5.5c-0.2-1-0.6-1.9-1.2-2.5
		c-0.7-0.6-1.5-1-2.6-1c-0.9,0-1.7,0.2-2.4,0.7c-0.7,0.5-1.2,1.2-1.6,2.1c-0.4,0.9-0.6,2.1-0.6,3.4c0,1.3,0.2,2.5,0.6,3.4
		c0.4,0.9,0.9,1.7,1.6,2.1c0.7,0.5,1.5,0.7,2.4,0.7c0.7,0,1.3-0.1,1.8-0.4s1-0.7,1.3-1.2c0.4-0.5,0.6-1.2,0.7-1.9h5.5
		c-0.1,1.6-0.5,3-1.3,4.2s-1.9,2.2-3.2,2.9C144.7,134.5,143.1,134.8,141.2,134.8z"/>
	<path d="M163.9,134.8c-2.2,0-4-0.4-5.6-1.3s-2.8-2.1-3.6-3.8c-0.8-1.6-1.3-3.5-1.3-5.8c0-2.2,0.4-4.1,1.3-5.7
		c0.8-1.6,2-2.9,3.6-3.8s3.3-1.4,5.4-1.4c1.4,0,2.7,0.2,3.9,0.7c1.2,0.4,2.2,1.1,3.1,2c0.9,0.9,1.6,2,2.1,3.3s0.8,2.9,0.8,4.7v1.6
		h-17.8v-3.6h12.3c0-0.8-0.2-1.6-0.5-2.2s-0.9-1.2-1.5-1.5s-1.4-0.6-2.2-0.6c-0.9,0-1.7,0.2-2.3,0.6c-0.7,0.4-1.2,0.9-1.6,1.6
		c-0.4,0.7-0.6,1.4-0.6,2.3v3.4c0,1,0.2,1.9,0.6,2.7c0.4,0.8,0.9,1.3,1.6,1.8s1.6,0.6,2.5,0.6c0.6,0,1.2-0.1,1.8-0.3
		c0.5-0.2,1-0.5,1.4-0.8c0.4-0.4,0.7-0.8,0.9-1.3l5.4,0.4c-0.3,1.3-0.8,2.4-1.7,3.4c-0.8,1-1.9,1.7-3.3,2.2
		C167.2,134.6,165.6,134.8,163.9,134.8z"/>
	<path d="M183.2,122.3v12.2h-5.8v-28h5.7v10.7h0.2c0.5-1.2,1.2-2.2,2.3-2.9c1.1-0.7,2.4-1.1,4-1.1c1.5,0,2.7,0.3,3.8,1
		s1.9,1.5,2.5,2.7c0.6,1.2,0.9,2.6,0.9,4.2v13.4H191v-12.3c0-1.3-0.3-2.3-1-3c-0.7-0.7-1.6-1.1-2.8-1.1c-0.8,0-1.5,0.2-2.1,0.5
		c-0.6,0.3-1.1,0.8-1.4,1.5C183.4,120.6,183.2,121.4,183.2,122.3z"/>
	<path d="M210.9,134.8c-2.1,0-4-0.5-5.5-1.4s-2.7-2.2-3.6-3.8c-0.8-1.6-1.3-3.5-1.3-5.7c0-2.2,0.4-4.1,1.3-5.7
		c0.8-1.6,2-2.9,3.6-3.8s3.4-1.4,5.5-1.4c2.1,0,4,0.5,5.5,1.4s2.7,2.2,3.6,3.8s1.3,3.5,1.3,5.7c0,2.2-0.4,4-1.3,5.7
		c-0.8,1.6-2,2.9-3.6,3.8S213.1,134.8,210.9,134.8z M211,130.3c1,0,1.8-0.3,2.4-0.8c0.6-0.6,1.1-1.3,1.5-2.3c0.3-1,0.5-2,0.5-3.3
		c0-1.2-0.2-2.3-0.5-3.3c-0.3-1-0.8-1.7-1.5-2.3c-0.6-0.6-1.5-0.8-2.4-0.8c-1,0-1.8,0.3-2.5,0.8c-0.7,0.6-1.2,1.3-1.5,2.3
		c-0.3,1-0.5,2-0.5,3.3c0,1.2,0.2,2.3,0.5,3.3c0.3,1,0.8,1.7,1.5,2.3C209.2,130,210,130.3,211,130.3z"/>
	<path d="M230.9,106.4v28h-5.8v-28H230.9z"/>
	<path d="M243.3,134.8c-1.6,0-3-0.4-4.3-1.2c-1.3-0.8-2.3-2-3.1-3.7c-0.8-1.6-1.1-3.6-1.1-5.9c0-2.4,0.4-4.4,1.2-6
		c0.8-1.6,1.8-2.8,3.1-3.6c1.3-0.8,2.7-1.2,4.2-1.2c1.2,0,2.2,0.2,3,0.6s1.4,0.9,1.9,1.5c0.5,0.6,0.9,1.2,1.1,1.7h0.2v-10.5h5.8v28
		h-5.8v-3.4h-0.2c-0.3,0.6-0.7,1.2-1.2,1.7c-0.5,0.6-1.1,1-1.9,1.4C245.4,134.6,244.5,134.8,243.3,134.8z M245.2,130.1
		c0.9,0,1.7-0.3,2.4-0.8c0.7-0.5,1.2-1.2,1.5-2.2c0.4-0.9,0.5-2,0.5-3.3c0-1.3-0.2-2.3-0.5-3.3c-0.3-0.9-0.8-1.6-1.5-2.1
		c-0.7-0.5-1.5-0.8-2.4-0.8c-1,0-1.8,0.3-2.4,0.8c-0.7,0.5-1.2,1.2-1.5,2.2c-0.3,0.9-0.5,2-0.5,3.2c0,1.2,0.2,2.3,0.5,3.2
		c0.3,0.9,0.8,1.7,1.5,2.2S244.2,130.1,245.2,130.1z"/>
	<path d="M269.6,134.8c-2.2,0-4-0.4-5.6-1.3s-2.8-2.1-3.6-3.8c-0.8-1.6-1.3-3.5-1.3-5.8c0-2.2,0.4-4.1,1.3-5.7
		c0.8-1.6,2-2.9,3.6-3.8s3.3-1.4,5.4-1.4c1.4,0,2.7,0.2,3.9,0.7c1.2,0.4,2.2,1.1,3.1,2c0.9,0.9,1.6,2,2.1,3.3s0.8,2.9,0.8,4.7v1.6
		h-17.8v-3.6h12.3c0-0.8-0.2-1.6-0.5-2.2s-0.9-1.2-1.5-1.5s-1.4-0.6-2.2-0.6c-0.9,0-1.7,0.2-2.3,0.6c-0.7,0.4-1.2,0.9-1.6,1.6
		c-0.4,0.7-0.6,1.4-0.6,2.3v3.4c0,1,0.2,1.9,0.6,2.7c0.4,0.8,0.9,1.3,1.6,1.8s1.6,0.6,2.5,0.6c0.6,0,1.2-0.1,1.8-0.3
		c0.5-0.2,1-0.5,1.4-0.8c0.4-0.4,0.7-0.8,0.9-1.3l5.4,0.4c-0.3,1.3-0.8,2.4-1.7,3.4c-0.8,1-1.9,1.7-3.3,2.2
		C272.9,134.6,271.4,134.8,269.6,134.8z"/>
	<path d="M283.1,134.4v-21h5.7v3.7h0.2c0.4-1.3,1-2.3,1.9-3s1.9-1,3.1-1c0.3,0,0.6,0,0.9,0.1c0.3,0,0.6,0.1,0.9,0.2v5.2
		c-0.3-0.1-0.7-0.2-1.1-0.2s-0.9-0.1-1.3-0.1c-0.9,0-1.6,0.2-2.3,0.6c-0.7,0.4-1.2,0.9-1.6,1.5c-0.4,0.7-0.6,1.4-0.6,2.3v11.9H283.1
		z"/>
	<path d="M113.9,181.1c-1.8,0-3.4-0.3-4.8-0.9c-1.4-0.6-2.5-1.5-3.4-2.6c-0.8-1.1-1.3-2.4-1.3-3.9h3.4c0.1,0.9,0.4,1.7,0.9,2.3
		c0.5,0.7,1.3,1.2,2.1,1.5c0.9,0.4,1.9,0.5,2.9,0.5c1.2,0,2.3-0.2,3.2-0.6s1.7-1,2.2-1.8s0.8-1.6,0.8-2.6c0-1-0.3-1.9-0.8-2.7
		s-1.3-1.4-2.2-1.9c-1-0.4-2.2-0.7-3.6-0.7h-2.2v-3h2.2c1.1,0,2.1-0.2,2.9-0.6c0.8-0.4,1.5-1,2-1.7c0.5-0.7,0.7-1.6,0.7-2.6
		c0-0.9-0.2-1.8-0.6-2.5s-1-1.2-1.8-1.6c-0.8-0.4-1.7-0.6-2.7-0.6c-1,0-1.9,0.2-2.7,0.5c-0.9,0.4-1.5,0.9-2.1,1.5
		c-0.5,0.7-0.8,1.5-0.9,2.4H105c0.1-1.5,0.5-2.8,1.3-3.9c0.8-1.1,1.9-2,3.3-2.6c1.3-0.6,2.8-0.9,4.4-0.9c1.7,0,3.2,0.3,4.5,1
		c1.2,0.7,2.2,1.6,2.9,2.8s1,2.4,1,3.7c0,1.6-0.4,2.9-1.2,4c-0.8,1.1-1.9,1.9-3.4,2.3v0.2c1.8,0.3,3.2,1,4.1,2.3
		c1,1.2,1.5,2.7,1.5,4.5c0,1.5-0.4,2.9-1.2,4.1c-0.8,1.2-2,2.2-3.4,2.9C117.4,180.7,115.8,181.1,113.9,181.1z"/>
	<path d="M138.3,181.1c-1.2,0-2.3-0.2-3.5-0.7c-1.1-0.4-2.2-1.1-3.1-2.1s-1.7-2.4-2.3-4.1c-0.6-1.7-0.9-3.9-0.9-6.5
		c0-2.5,0.2-4.7,0.7-6.6c0.5-1.9,1.1-3.6,2-4.9c0.9-1.3,2-2.3,3.2-3c1.3-0.7,2.7-1,4.3-1c1.6,0,3,0.3,4.2,0.9s2.2,1.5,3,2.6
		s1.3,2.4,1.5,3.9h-3.3c-0.3-1.3-0.9-2.3-1.8-3.2s-2.1-1.3-3.6-1.3c-2.2,0-3.9,0.9-5.1,2.8c-1.2,1.9-1.9,4.6-1.9,8h0.2
		c0.5-0.8,1.1-1.4,1.8-2c0.7-0.6,1.5-1,2.3-1.3c0.9-0.3,1.8-0.5,2.7-0.5c1.6,0,3.1,0.4,4.4,1.2c1.3,0.8,2.4,1.9,3.2,3.3
		c0.8,1.4,1.2,3,1.2,4.8c0,1.7-0.4,3.3-1.2,4.8c-0.8,1.4-1.9,2.6-3.3,3.4C141.9,180.7,140.2,181.1,138.3,181.1z M138.3,178.1
		c1.1,0,2.2-0.3,3.1-0.9c0.9-0.6,1.6-1.3,2.2-2.3c0.5-1,0.8-2,0.8-3.2c0-1.2-0.3-2.2-0.8-3.2c-0.5-1-1.2-1.7-2.1-2.3
		c-0.9-0.6-1.9-0.8-3.1-0.8c-0.9,0-1.7,0.2-2.4,0.5c-0.7,0.3-1.4,0.8-2,1.4c-0.6,0.6-1,1.3-1.3,2c-0.3,0.8-0.5,1.6-0.5,2.4
		c0,1.1,0.3,2.2,0.8,3.1c0.5,1,1.2,1.7,2.2,2.3C136.1,177.8,137.1,178.1,138.3,178.1z"/>
	<path d="M152.4,174.9v-2.8l12.3-19.5h2v4.3h-1.4l-9.3,14.7v0.2h16.6v3H152.4z M165.6,180.7v-6.6v-1.3v-20.1h3.2v28H165.6z"/>
	<path d="M180.3,159.7l5,8.6l5-8.6h3.7l-6.8,10.5l6.8,10.5h-3.7l-5-8.2l-5,8.2h-3.7l6.7-10.5l-6.7-10.5H180.3z"/>
	<path d="M198.6,180.7v-2.5l9.3-10.1c1.1-1.2,2-2.2,2.7-3.1c0.7-0.9,1.2-1.7,1.6-2.5c0.3-0.8,0.5-1.6,0.5-2.5c0-1-0.2-1.8-0.7-2.6
		s-1.1-1.3-1.9-1.7c-0.8-0.4-1.7-0.6-2.7-0.6c-1.1,0-2,0.2-2.8,0.7c-0.8,0.4-1.4,1.1-1.8,1.9s-0.7,1.7-0.7,2.8h-3.2
		c0-1.6,0.4-3.1,1.1-4.3c0.8-1.2,1.8-2.2,3.1-2.9c1.3-0.7,2.8-1,4.4-1c1.6,0,3.1,0.3,4.4,1c1.3,0.7,2.3,1.6,3,2.8
		c0.7,1.2,1.1,2.5,1.1,3.9c0,1-0.2,2-0.6,3c-0.4,1-1,2.1-1.9,3.3c-0.9,1.2-2.2,2.7-3.8,4.4l-6.3,6.7v0.2h13v3H198.6z"/>
	<path d="M230.9,152.2c1.2,0,2.3,0.2,3.5,0.7c1.1,0.4,2.2,1.1,3.1,2.1c0.9,1,1.7,2.3,2.3,4.1s0.9,3.9,0.9,6.5c0,2.5-0.2,4.7-0.7,6.6
		c-0.5,1.9-1.1,3.6-2,4.9c-0.9,1.3-1.9,2.3-3.2,3c-1.3,0.7-2.7,1-4.2,1c-1.6,0-3-0.3-4.2-0.9s-2.2-1.5-3-2.6s-1.3-2.4-1.5-3.9h3.3
		c0.3,1.3,0.9,2.3,1.8,3.2c0.9,0.8,2.1,1.3,3.6,1.3c2.2,0,3.9-0.9,5.1-2.8c1.3-1.9,1.9-4.6,1.9-8h-0.2c-0.5,0.8-1.1,1.4-1.8,2
		c-0.7,0.6-1.5,1-2.3,1.3c-0.9,0.3-1.8,0.5-2.7,0.5c-1.6,0-3.1-0.4-4.4-1.2s-2.4-1.9-3.2-3.3c-0.8-1.4-1.2-3-1.2-4.8
		c0-1.7,0.4-3.3,1.2-4.8c0.8-1.4,1.9-2.6,3.3-3.4C227.3,152.6,229,152.2,230.9,152.2z M230.9,155.2c-1.1,0-2.2,0.3-3.1,0.9
		c-0.9,0.6-1.6,1.3-2.2,2.3c-0.5,1-0.8,2-0.8,3.2c0,1.2,0.3,2.2,0.8,3.2c0.5,1,1.2,1.7,2.1,2.3c0.9,0.6,1.9,0.8,3.1,0.8
		c0.9,0,1.7-0.2,2.4-0.5c0.7-0.3,1.4-0.8,2-1.4s1-1.3,1.3-2c0.3-0.8,0.5-1.6,0.5-2.4c0-1.1-0.3-2.2-0.8-3.1c-0.5-1-1.2-1.7-2.2-2.3
		C233.1,155.5,232,155.2,230.9,155.2z"/>
	<path d="M254.7,181.1c-1.6,0-3.1-0.3-4.3-1c-1.3-0.6-2.3-1.5-3.1-2.6c-0.8-1.1-1.2-2.4-1.3-3.8h3.3c0.1,1.3,0.7,2.3,1.7,3.1
		c1,0.8,2.3,1.2,3.7,1.2c1.2,0,2.2-0.3,3.1-0.8c0.9-0.5,1.6-1.3,2.1-2.2s0.8-2,0.8-3.2c0-1.2-0.3-2.3-0.8-3.3
		c-0.5-1-1.3-1.7-2.2-2.3c-0.9-0.6-2-0.8-3.2-0.8c-0.9,0-1.7,0.1-2.6,0.4c-0.9,0.3-1.6,0.6-2.2,1l-3.2-0.4l1.7-13.8h14.6v3H251
		l-1,8.3h0.2c0.6-0.5,1.3-0.8,2.2-1.1c0.9-0.3,1.8-0.5,2.7-0.5c1.7,0,3.2,0.4,4.6,1.2c1.3,0.8,2.4,1.9,3.2,3.3
		c0.8,1.4,1.2,3,1.2,4.8c0,1.8-0.4,3.4-1.2,4.8c-0.8,1.4-1.9,2.5-3.3,3.3C258.1,180.7,256.5,181.1,254.7,181.1z"/>
</g>
</svg>
