<?xml version="1.0" encoding="utf-8"?>
<!-- Generator: Adobe Illustrator 26.1.0, SVG Export Plug-In . SVG Version: 6.00 Build 0)  -->
<svg version="1.1" id="Layer_1" xmlns="http://www.w3.org/2000/svg" xmlns:xlink="http://www.w3.org/1999/xlink" x="0px" y="0px"
	 viewBox="0 0 526 300" style="enable-background:new 0 0 526 300;" xml:space="preserve">
<style type="text/css">
	.st0{fill:#EBEBEB;}
	.st1{fill:#F5F5F5;}
	.st2{fill:#E0E0E0;}
	.st3{fill:#FFFFFF;}
	.st4{fill:#FAFAFA;}
	.st5{fill:#263238;}
	.st6{fill:#455A64;}
	.st7{fill:#FF6A27;}
	.st8{opacity:0.2;}
	.st9{opacity:0.3;}
	.st10{fill:#FFBE9D;}
	.st11{fill:#FFE6E6;}
	.st12{enable-background:new    ;}
</style>
<g id="freepik--background-complete--inject-25">
	<path class="st0" d="M284.7,129.9c-0.1-0.6-0.5-1.1-0.9-1.5c-0.4-0.4-1-0.7-1.6-0.8c-1-0.1-2,0.5-2.4,1.4c-0.2-0.3-0.4-0.5-0.7-0.7
		c-0.6-0.3-1.2-0.4-1.8-0.2c-0.6,0.2-1,0.6-1.4,1.1c-0.4,0.6-0.6,1.2-0.6,1.8c0,0.8,0.2,1.5,0.7,2.2c0.5,0.6,1.2,1.1,1.9,1.5
		c1.2,0.6,2.8,1.3,2.8,1.3s1.2-1.1,2.2-1.9c0.6-0.5,1.2-1.1,1.6-1.8C284.8,131.5,284.8,130.7,284.7,129.9z"/>
	<path class="st0" d="M289.9,125.1c0-0.4-0.1-0.7-0.3-1c-0.2-0.3-0.4-0.5-0.8-0.7c-0.5-0.2-1.1,0-1.5,0.5c-0.2-0.5-0.7-0.9-1.3-0.9
		c-0.3,0-0.7,0.2-0.9,0.4c-0.3,0.2-0.5,0.5-0.6,0.9c-0.1,0.4-0.1,0.9,0,1.3c0.2,0.4,0.5,0.8,0.9,1.1c0.6,0.5,1.4,1.2,1.4,1.2
		s0.8-0.4,1.6-0.7c0.4-0.2,0.9-0.4,1.2-0.8C289.7,126,289.9,125.6,289.9,125.1z"/>
	<path class="st0" d="M288.3,137.3c-0.1-0.2-0.2-0.5-0.4-0.7c-0.2-0.2-0.4-0.3-0.7-0.3c-0.4,0-0.9,0.2-1,0.6
		c-0.2-0.3-0.7-0.5-1.1-0.4c-0.2,0.1-0.4,0.2-0.6,0.5c-0.2,0.2-0.2,0.5-0.3,0.7c0,0.3,0.1,0.7,0.3,0.9c0.2,0.3,0.5,0.5,0.8,0.6
		c0.5,0.3,1.2,0.6,1.2,0.6s0.5-0.5,1-0.8c0.3-0.2,0.5-0.5,0.7-0.8C288.3,138,288.4,137.7,288.3,137.3z"/>
	<rect x="240.1" y="161.7" class="st1" width="19.2" height="8.9"/>
	<path class="st2" d="M258.9,170.2h-18.3v-8h18.3V170.2L258.9,170.2z M240.7,170.1h18.1v-7.8h-18.1V170.1z"/>
	<rect x="259.3" y="161.7" class="st2" width="4.7" height="8.9"/>
	<path class="st2" d="M240.6,164.7h18.2l0,0l0,0H240.6C240.6,164.6,240.6,164.6,240.6,164.7L240.6,164.7z"/>
	<path class="st2" d="M249.8,164.6c0-0.8,0.1-1.6,0-2.4l0,0l0,0C249.7,163,249.7,163.8,249.8,164.6L249.8,164.6L249.8,164.6z"/>
	<path class="st2" d="M254.7,163.4c0,0.1-0.1,0.2-0.2,0.2c-0.1,0-0.2-0.1-0.2-0.2c0-0.1,0.1-0.2,0.2-0.2
		C254.6,163.2,254.7,163.3,254.7,163.4L254.7,163.4z"/>
	<path class="st2" d="M245.1,163.4c0,0.1-0.1,0.2-0.2,0.2c-0.1,0-0.2-0.1-0.2-0.2c0-0.1,0.1-0.2,0.2-0.2S245.1,163.3,245.1,163.4
		L245.1,163.4z"/>
	<path class="st2" d="M250,166.2c0,0.1-0.1,0.2-0.2,0.2c-0.1,0-0.2-0.1-0.2-0.2c0-0.1,0.1-0.2,0.2-0.2l0,0
		C249.9,165.9,250,166.1,250,166.2z"/>
	<polygon class="st2" points="242.4,170.6 241.5,176.2 242,176.2 243.8,170.6 	"/>
	<polygon class="st2" points="258,170.6 258.8,176.2 258.3,176.2 256.6,170.6 	"/>
	<polygon class="st2" points="261.7,170.6 262.6,176.2 262.1,176.2 260.3,170.6 	"/>
	<path class="st2" d="M250,168.7c0,0.1-0.1,0.2-0.2,0.2c-0.1,0-0.2-0.1-0.2-0.2c0-0.1,0.1-0.2,0.2-0.2l0,0
		C249.9,168.5,250,168.6,250,168.7z"/>
	<path class="st2" d="M240.6,167.4h18.2l0,0l0,0H240.6L240.6,167.4L240.6,167.4z"/>
	
		<rect x="247.7" y="157.5" transform="matrix(1 -5.266965e-03 5.266965e-03 1 -0.8292 1.3221)" class="st2" width="5.8" height="1.2"/>
	
		<rect x="247.8" y="159.9" transform="matrix(1 -5.266965e-03 5.266965e-03 1 -0.8435 1.3245)" class="st1" width="6.5" height="1.8"/>
	<path class="st2" d="M253,161.7c0-0.3,0-0.6,0-0.9s0-0.6,0-0.9c0,0.3,0,0.6,0,0.9C253,161.1,253,161.4,253,161.7z"/>
	<path class="st2" d="M253.3,161.7c0-0.3,0-0.6,0-0.9s0-0.6,0-0.9c0,0.3,0,0.6,0,0.9C253.3,161.1,253.3,161.4,253.3,161.7z"/>
	<path class="st2" d="M248.8,161.7c0-0.3,0-0.6,0-0.9s0-0.6,0-0.9c0,0.3,0,0.6,0,0.9C248.8,161.1,248.8,161.4,248.8,161.7z"/>
	<path class="st2" d="M249,161.7c0-0.3,0-0.6,0-0.9s0-0.6,0-0.9c0,0.3,0,0.6,0,0.9C249.1,161.1,249.1,161.4,249,161.7z"/>
	<path class="st2" d="M249.6,160.8c0,0,0.7,0,1.5,0s1.5,0,1.5,0s-0.7,0-1.5,0S249.6,160.8,249.6,160.8z"/>
	
		<rect x="248.7" y="158.7" transform="matrix(1 -5.266965e-03 5.266965e-03 1 -0.8355 1.3332)" class="st0" width="8" height="1.2"/>
	<path class="st2" d="M255.5,159.7c-0.2,0-0.4-0.2-0.4-0.4s0.2-0.4,0.4-0.4s0.4,0.2,0.4,0.4l0,0
		C255.9,159.5,255.7,159.7,255.5,159.7L255.5,159.7z"/>
	<rect x="249.2" y="159.2" class="st2" width="5.3" height="0.2"/>
	<rect x="242" y="123.4" class="st2" width="11.5" height="16.7"/>
	<rect x="241.4" y="123.4" class="st1" width="11.5" height="16.7"/>
	<rect x="242.8" y="125.2" class="st3" width="8.6" height="13.1"/>
	<path class="st2" d="M251.4,138.3L251.4,138.3c0-0.1,0-0.2,0-0.3c0-0.2,0-0.4,0-0.7c0-0.6,0-1.5,0-2.7c0-2.3,0-5.6,0-9.4l0,0h-8.6
		l0,0l0,0c0,4.9,0,9.5,0,13.1l0,0h6.3h1.7h0.5C251.4,138.3,251.4,138.3,251.4,138.3h-0.1h-0.4h-1.7h-6.3l0,0l0,0c0-3.6,0-8.2,0-13.1
		l0,0l0,0h8.6l0,0l0,0c0,3.9,0,7.1,0,9.5c0,1.2,0,2.1,0,2.7c0,0.3,0,0.5,0,0.7C251.4,138.1,251.4,138.1,251.4,138.3
		C251.4,138.2,251.4,138.3,251.4,138.3z"/>
	<path class="st2" d="M252.9,123.4c-0.1,0.1-0.1,0.2-0.2,0.3c-0.1,0.2-0.3,0.4-0.5,0.7c-0.2,0.3-0.4,0.5-0.6,0.7
		c-0.1,0.1-0.2,0.2-0.2,0.3c0.1-0.1,0.1-0.2,0.2-0.3l0.6-0.7c0.1-0.3,0.3-0.6,0.5-0.8C252.7,123.5,252.8,123.4,252.9,123.4z"/>
	<path class="st3" d="M251.5,138.2c0.4,0.7,0.9,1.3,1.5,1.9"/>
	<path class="st2" d="M253,140.1c-0.1-0.1-0.2-0.2-0.3-0.2c-0.4-0.4-0.8-0.9-1.1-1.3c-0.1-0.1-0.1-0.2-0.2-0.3
		c0.1,0.1,0.2,0.2,0.2,0.3c0.1,0.2,0.3,0.4,0.5,0.7s0.4,0.5,0.5,0.7C252.8,139.9,252.9,140,253,140.1z"/>
	<path class="st3" d="M241.4,140.1l1.5-1.9"/>
	<path class="st2" d="M242.9,138.2c-0.2,0.3-0.5,0.6-0.7,1c-0.2,0.3-0.5,0.6-0.8,0.9c0.2-0.3,0.5-0.6,0.7-1
		C242.4,138.8,242.6,138.5,242.9,138.2z"/>
	<path class="st2" d="M241.4,123.4c0.3,0.3,0.5,0.6,0.7,0.9c0.3,0.2,0.5,0.5,0.7,0.9c-0.3-0.3-0.5-0.6-0.7-0.9
		C241.8,124,241.6,123.7,241.4,123.4z"/>
	<rect x="245.9" y="127.8" class="st2" width="2.9" height="8.2"/>
	<rect x="279.7" y="142.2" class="st2" width="8.3" height="8.7"/>
	<rect x="279.1" y="142.2" class="st4" width="8.3" height="8.7"/>
	<path class="st2" d="M287.5,150.9h-8.3v-8.7h8.3V150.9z M279.1,150.9h8.3v-8.7h-8.3V150.9z"/>
	<rect x="280.3" y="143.4" class="st3" width="6.1" height="6.4"/>
	<path class="st2" d="M280.3,149.8c0,0.1-0.1,0.1-0.2,0.2c-0.1,0.1-0.2,0.2-0.4,0.4s-0.3,0.3-0.4,0.4c0,0.1-0.1,0.1-0.2,0.1
		c0-0.1,0.1-0.1,0.2-0.2s0.2-0.2,0.4-0.4s0.3-0.3,0.4-0.4C280.1,149.9,280.2,149.9,280.3,149.8z"/>
	<path class="st2" d="M286.4,149.8c0.1,0,0.1,0.1,0.2,0.2c0.1,0.1,0.2,0.2,0.4,0.4c0.2,0.2,0.3,0.3,0.4,0.4c0.1,0,0.1,0.1,0.1,0.2
		c-0.1-0.1-0.2-0.2-0.2-0.2c-0.1-0.1-0.2-0.2-0.4-0.4s-0.3-0.3-0.4-0.4C286.4,149.9,286.4,149.9,286.4,149.8z"/>
	<path class="st2" d="M286.3,143.4c0-0.1,0.1-0.1,0.2-0.2c0.1-0.1,0.2-0.2,0.4-0.4s0.3-0.3,0.4-0.4c0-0.1,0.1-0.1,0.2-0.1
		c0,0.1-0.1,0.1-0.2,0.2c-0.1,0.1-0.2,0.2-0.4,0.4s-0.3,0.3-0.4,0.4C286.5,143.3,286.4,143.4,286.3,143.4z"/>
	<path class="st2" d="M280.2,143.4c-0.1,0-0.1-0.1-0.2-0.2c-0.1-0.1-0.2-0.2-0.4-0.4s-0.3-0.3-0.4-0.4c-0.1,0-0.1-0.1-0.1-0.2
		c0.1,0,0.1,0.1,0.2,0.2c0.1,0.1,0.2,0.2,0.4,0.4c0.2,0.2,0.3,0.3,0.4,0.4C280.2,143.3,280.2,143.4,280.2,143.4z"/>
	<path class="st2" d="M286.3,149.8C286.3,149.8,286.3,149.7,286.3,149.8c0-0.1,0-0.1,0-0.1c0-0.1,0-0.2,0-0.3c0-0.3,0-0.7,0-1.3
		c0-1.1,0-2.7,0-4.6l0,0h-6l0,0l0,0c0,2.3,0,4.5,0,6.4l0,0h4.4h1.2L286.3,149.8L286.3,149.8h-0.4h-1.2h-4.4l0,0l0,0c0-1.8,0-4,0-6.4
		l0,0l0,0h6l0,0l0,0c0,1.9,0,3.5,0,4.6c0,0.6,0,1,0,1.3c0,0.1,0,0.3,0,0.3C286.3,149.7,286.3,149.7,286.3,149.8
		C286.3,149.7,286.3,149.8,286.3,149.8z"/>
	<rect x="282.3" y="145.6" class="st0" width="2" height="2"/>
</g>
<g id="freepik--Plant--inject-25">
	<rect x="258.5" y="154" class="st5" width="8.1" height="1.1"/>
	<path class="st5" d="M258.5,154h8.2v1.2h-8.2V154z M266.7,154h-8.1v1.1h8.1V154z"/>
	<polygon class="st5" points="265.9,154.8 264.8,160.6 260.4,160.6 259.3,155.1 	"/>
	<polygon class="st6" points="265.9,160 265.3,160.9 260,160.9 259.3,160 	"/>
	<path class="st5" d="M262.9,154.9c0,0,0-2.7,0-6s0-6,0-6s0,2.7,0,6S262.9,154.9,262.9,154.9z"/>
	<path class="st5" d="M261.1,148.2L261.1,148.2l0.1,0.2l0.1,0.1c0,0,0,0.1,0.1,0.2c0.1,0.1,0,0.1,0.1,0.2c0.1,0.1,0,0.1,0.1,0.2
		c0.1,0.3,0.2,0.7,0.2,1c0.1,0.4,0.1,0.8,0.1,1.2c0,0.8,0,1.5-0.1,2.3c0,0.3-0.1,0.5-0.1,0.7c0,0.1,0,0.1,0,0.2c0,0,0,0,0,0.1
		c0,0,0,0,0-0.1v-0.2c0-0.2,0.1-0.4,0.1-0.7c0.1-0.8,0.1-1.5,0.1-2.3c0-0.4-0.1-0.8-0.1-1.3c-0.1-0.3-0.1-0.7-0.2-1
		c0-0.1,0-0.1-0.1-0.2c0-0.1,0-0.1-0.1-0.2l-0.1-0.2c0,0,0-0.1-0.1-0.1C261.2,148.3,261.2,148.3,261.1,148.2L261.1,148.2z"/>
	<path class="st5" d="M261.3,146C261.3,146.1,261.3,146.1,261.3,146l0.1,0.3l0.1,0.2c0,0.1,0,0.1,0.1,0.2c0,0.2,0.1,0.3,0.2,0.5
		l0.1,0.3c0,0.1,0,0.2,0.1,0.3c0.1,0.2,0.1,0.5,0.2,0.8c0.1,0.5,0.2,1.1,0.2,1.8s0.1,1.2,0.1,1.8c0,0.5,0,1,0,1.4c0,0.2,0,0.4,0,0.5
		c0,0.2,0,0.3,0,0.4s0,0.2,0,0.3v0.1v-0.1c0-0.1,0-0.2,0-0.3s0-0.3,0-0.4c0-0.2,0-0.3,0-0.5c0-0.4,0-0.9,0-1.4s0-1.1-0.1-1.8
		c-0.1-0.6-0.1-1.2-0.2-1.8c-0.1-0.3-0.1-0.5-0.2-0.8c0-0.1-0.1-0.2-0.1-0.3l-0.1-0.3c0-0.2-0.1-0.4-0.2-0.5c0-0.1,0-0.1-0.1-0.2
		c-0.1-0.1,0-0.1-0.1-0.2L261.3,146C261.4,146.1,261.3,146.1,261.3,146z"/>
	<path class="st5" d="M263.4,155.4L263.4,155.4C263.4,155.3,263.4,155.3,263.4,155.4c0-0.2,0-0.3,0-0.5c0-0.3,0-0.8,0.1-1.3
		c0.1-1.1,0.2-2.6,0.4-4.3c0.1-0.8,0.2-1.6,0.3-2.4c0.1-0.4,0.1-0.7,0.2-1s0.1-0.6,0.2-0.9c0.1-0.3,0.1-0.5,0.2-0.7
		c0-0.2,0.1-0.4,0.1-0.5s0.1-0.3,0.1-0.3v-0.1l0,0l0,0c0,0,0,0,0,0.1s-0.1,0.2-0.1,0.3s-0.1,0.3-0.1,0.5s-0.1,0.5-0.2,0.7
		c0,0.3-0.1,0.6-0.2,0.9c-0.1,0.3-0.1,0.7-0.2,1c-0.1,0.7-0.2,1.5-0.3,2.4c-0.2,1.7-0.3,3.2-0.3,4.3c0,0.6,0,1-0.1,1.3
		c0,0.2,0,0.3,0,0.4L263.4,155.4L263.4,155.4z"/>
	<path class="st7" d="M263,144.2c0-0.4,0.4-0.7,0.8-0.7c0.4,0,0.7,0.2,1,0.5c0.2,0.3,0.4,0.7,0.5,1c0.3,0.9,0.4,1.8,0.3,2.8
		c-0.1,0.9-0.5,1.8-1.1,2.5c-0.1,0.1-0.2,0.2-0.4,0.2c-0.1,0-0.2-0.1-0.2-0.1c-1.3-1.2-2-2.9-2-4.7c0-0.4,0.1-0.7,0.2-1
		S262.7,144.1,263,144.2"/>
	<path class="st7" d="M265.8,141.1l0.5,1c0,0,0,0,0.1,0c0,0,0,0,0.1,0l1.4-2.2l-0.3-0.2L265.8,141.1z"/>
	<g class="st8">
		<path d="M265.8,141.1l0.5,1c0,0,0,0,0.1,0c0,0,0,0,0.1,0l1.4-2.2l-0.3-0.2L265.8,141.1z"/>
	</g>
	<path class="st7" d="M263,142.9l4.8-2.9l0.1-0.1c0-0.1,0-0.1-0.1-0.2c-0.7-0.7-1.6-1.1-2.6-1s-1.8,0.6-2.3,1.5
		C262.4,141,262.4,142.1,263,142.9"/>
	<path class="st5" d="M267.1,139.1L267.1,139.1c-0.1,0-0.2,0-0.2,0c-0.2,0-0.4,0-0.7,0.1s-0.7,0.2-1,0.3c-0.8,0.3-1.4,0.9-1.8,1.6
		c-0.2,0.3-0.3,0.6-0.4,0.9c-0.1,0.2-0.1,0.4-0.1,0.7c0,0.1,0,0.1,0,0.1v0.1c0-0.1,0-0.2,0-0.2c0-0.2,0.1-0.4,0.1-0.7
		c0.4-1.5,1.6-2.6,3.1-2.8c0.2,0,0.4-0.1,0.7-0.1C267,139.1,267.1,139.1,267.1,139.1z"/>
	<path class="st5" d="M263.6,140.9c0.1,0,0.2,0.1,0.2,0.1c0.2,0.1,0.4,0.1,0.6,0.2c0.2,0.1,0.5,0.1,0.6,0.2c0.1,0,0.2,0,0.3,0
		c-0.1,0-0.2-0.1-0.2-0.1l-0.6-0.2l-0.6-0.1C263.8,141,263.7,140.9,263.6,140.9z"/>
	<path class="st5" d="M264.4,138.9c0,0.2-0.1,0.4-0.1,0.5c0,0.2,0,0.4,0,0.5c0-0.2,0-0.4,0-0.5C264.4,139.2,264.4,139,264.4,138.9z"
		/>
	<path class="st5" d="M267.8,140c-0.1,0-0.2-0.1-0.4-0.1c-0.2-0.1-0.5-0.2-0.9-0.2c-0.3-0.1-0.7-0.1-0.9-0.2c-0.1,0-0.2,0-0.4,0
		c0.1,0,0.2,0.1,0.4,0.1c0.2,0,0.5,0.1,0.9,0.2c0.3,0.1,0.7,0.2,0.9,0.2C267.6,139.9,267.7,140,267.8,140z"/>
	<path class="st7" d="M265,143.4c0.4-0.3,0.9-0.4,1.4-0.4s1,0.2,1.5,0.4c0.8,0.4,1.6,0.9,2.1,1.6s0.7,1.7,0.3,2.6
		c0,0.1-0.1,0.2-0.2,0.2s-0.2,0-0.3,0c-0.9-0.3-1.9-0.6-2.7-1.1s-1.6-1.1-2.1-2c-0.1-0.2-0.2-0.4-0.2-0.7
		C264.8,143.8,264.8,143.6,265,143.4"/>
	<path class="st5" d="M265,143.3L265,143.3l0.3,0.1h0.1c0,0,0.1,0,0.2,0.1c0.1,0,0.2,0.1,0.4,0.2l0.2,0.1c0.1,0,0.2,0.1,0.2,0.1
		c0.2,0.1,0.3,0.2,0.5,0.3c0.8,0.5,1.5,1.1,2,1.8c0.1,0.2,0.3,0.3,0.4,0.5c0,0.1,0.1,0.2,0.2,0.2l0.1,0.2c0.1,0.1,0.2,0.3,0.2,0.4
		c0,0.1,0.1,0.1,0.1,0.2l0.1,0.1c0,0.1,0.1,0.1,0.1,0.2c0,0,0,0,0,0.1c0,0,0,0,0-0.1l-0.1-0.2c0,0,0-0.1-0.1-0.1c0,0,0-0.1-0.1-0.2
		c-0.1-0.1-0.1-0.2-0.2-0.4l-0.1-0.2c0-0.1-0.1-0.1-0.2-0.2c-0.1-0.2-0.2-0.3-0.4-0.5c-0.3-0.4-0.6-0.7-0.9-1s-0.7-0.6-1.1-0.8
		c-0.2-0.1-0.4-0.2-0.5-0.3c-0.1,0-0.2-0.1-0.2-0.1l-0.2-0.2c-0.1-0.1-0.3-0.1-0.4-0.2c-0.1,0-0.1,0-0.2-0.1h-0.1L265,143.3
		L265,143.3z"/>
	<path class="st5" d="M268.2,145.1c0.3,0.1,0.7,0.2,1,0.3c0.3,0.1,0.7,0.2,1,0.3c-0.3-0.1-0.7-0.2-1-0.3
		C268.9,145.2,268.6,145.1,268.2,145.1z"/>
	<path class="st5" d="M268.3,147.3c0-0.1,0-0.2,0-0.3c0-0.2,0-0.5,0-0.8s0-0.6,0-0.8c0-0.1,0-0.2,0-0.3c0,0.1,0,0.2,0,0.3
		c0,0.2,0,0.5,0,0.8s0,0.5,0,0.8C268.3,147.1,268.3,147.2,268.3,147.3z"/>
	<path class="st5" d="M266.4,146.3c0,0,0.1-0.5,0.1-1.2s0.1-1.2,0.1-1.2s-0.1,0.5-0.1,1.2C266.4,145.8,266.4,146.3,266.4,146.3z"/>
	<path class="st5" d="M268.8,143.8c-0.1,0-0.2,0-0.3,0c-0.2,0-0.5,0-0.8,0c-0.3,0-0.6,0-0.8,0c-0.1,0-0.2,0-0.3,0c0.1,0,0.2,0,0.3,0
		c0.2,0,0.5,0,0.8,0c0.3,0,0.6,0,0.8,0C268.5,143.8,268.7,143.8,268.8,143.8z"/>
	<path class="st5" d="M264.2,150.5L264.2,150.5c0-0.1,0-0.2,0-0.3c0-0.2,0-0.4,0-0.7s0-0.6-0.1-1c0-0.4-0.1-0.8-0.2-1.2
		s-0.2-0.8-0.3-1.2c-0.1-0.4-0.2-0.7-0.3-1s-0.2-0.5-0.2-0.6l-0.1-0.2c0,0,0,0,0-0.1c0,0,0,0,0,0.1c0,0,0,0.1,0.1,0.2
		c0.1,0.2,0.1,0.4,0.2,0.7c0.1,0.3,0.2,0.6,0.3,1c0.1,0.4,0.2,0.8,0.3,1.2s0.1,0.9,0.2,1.2c0.1,0.3,0.1,0.7,0.1,1s0,0.5,0,0.7
		C264.2,150.3,264.2,150.4,264.2,150.5L264.2,150.5z"/>
	<path class="st5" d="M263.9,147.3c0.1,0.1,0.1,0.2,0.2,0.2c0.1,0.1,0.3,0.3,0.5,0.5c0.2,0.2,0.4,0.3,0.5,0.4
		c0.1,0.1,0.2,0.1,0.2,0.2c-0.1-0.1-0.1-0.1-0.2-0.2l-0.5-0.4l-0.5-0.5C264.1,147.4,264,147.4,263.9,147.3z"/>
	<path class="st5" d="M262.4,148.6c0.1-0.1,0.1-0.2,0.2-0.3l0.5-0.7l0.5-0.7c0.1-0.1,0.1-0.2,0.2-0.3c-0.1,0.1-0.2,0.2-0.2,0.3
		c-0.1,0.2-0.3,0.4-0.5,0.7c-0.2,0.3-0.4,0.5-0.5,0.7C262.5,148.4,262.4,148.4,262.4,148.6z"/>
	<path class="st5" d="M263.2,144.6c0,0,0.5,0.4,1.1,0.8c0.6,0.4,1.2,0.7,1.2,0.7s-0.5-0.4-1.1-0.8
		C263.7,145,263.2,144.6,263.2,144.6z"/>
	<path class="st5" d="M261.7,146.2c0.3-0.2,0.5-0.5,0.8-0.7s0.5-0.5,0.7-0.8c-0.3,0.2-0.5,0.5-0.8,0.7
		C262.2,145.7,262,145.9,261.7,146.2z"/>
	<path class="st7" d="M261.4,146.2H261c-0.3,0-0.6-0.1-0.9-0.3c-0.1-0.1-0.3-0.1-0.4-0.2c-0.5-0.2-1.1-0.2-1.7-0.2
		c-0.9,0-1.9-0.3-2.7-0.7l-0.1-0.1c-0.1-0.2,0.1-0.3,0.2-0.4c0.7-0.5,1.5-0.9,2.3-1.1s1.8-0.2,2.5,0.3S261.2,145.2,261.4,146.2"/>
	<path class="st5" d="M255.1,144.6L255.1,144.6l0.3-0.1c0.2-0.1,0.4-0.2,0.8-0.4c0.4-0.2,0.8-0.3,1.2-0.5c0.5-0.1,1-0.2,1.5-0.1
		s1,0.3,1.4,0.6c0.3,0.3,0.6,0.6,0.7,1c0.1,0.3,0.2,0.5,0.3,0.8c0,0.1,0.1,0.2,0.1,0.2s0,0,0,0.1v-0.1c0-0.1,0-0.1-0.1-0.2
		c-0.1-0.3-0.2-0.5-0.3-0.8c-0.2-0.4-0.4-0.8-0.7-1c-0.4-0.3-0.9-0.6-1.4-0.6c-0.5-0.1-1.1,0-1.6,0.1c-0.4,0.1-0.8,0.3-1.2,0.5
		c-0.3,0.2-0.6,0.3-0.8,0.4L255.1,144.6L255.1,144.6z"/>
	<path class="st5" d="M256.1,145.1c0,0,0.6-0.4,1.3-0.8c0.7-0.5,1.3-0.9,1.2-0.9s-0.6,0.4-1.3,0.8
		C256.6,144.7,256.1,145.1,256.1,145.1z"/>
	<path class="st5" d="M256.7,143.4c0.3,0.1,0.6,0.1,0.8,0.1c-0.1,0-0.3,0-0.4,0C257,143.4,256.9,143.4,256.7,143.4z"/>
	<path class="st5" d="M259.2,143.1c0,0.1,0.1,0.2,0.2,0.3s0.1,0.2,0.2,0.3c0-0.1-0.1-0.2-0.2-0.3
		C259.4,143.3,259.3,143.2,259.2,143.1z"/>
	<path class="st5" d="M258.7,145.5c0.1,0,0.2-0.1,0.3-0.2c0.2-0.1,0.4-0.3,0.6-0.4c0.2-0.1,0.4-0.3,0.6-0.5c0.1-0.1,0.2-0.1,0.2-0.2
		c-0.1,0-0.2,0.1-0.3,0.2c-0.2,0.1-0.4,0.3-0.6,0.4c-0.2,0.1-0.5,0.3-0.6,0.4C258.9,145.4,258.8,145.4,258.7,145.5z"/>
	<path class="st7" d="M260.7,148c0.4-0.1,0.9,0.3,1,0.7c0.1,0.4-0.1,0.9-0.3,1.2c-0.4,0.9-1,1.7-1.7,2.3c-0.7,0.6-1.7,1-2.6,1
		c0.2-0.8,0-1.7,0-2.5c0.2-1.5,1.4-2.7,2.9-2.9C260.3,147.8,260.6,147.8,260.7,148"/>
	<path class="st5" d="M257.1,153.3L257.1,153.3c0.1-0.1,0.2-0.1,0.2-0.1c0.2-0.2,0.3-0.3,0.4-0.5c0.1-0.1,0.1-0.3,0.2-0.4
		c0.1-0.2,0.1-0.3,0.2-0.5c0.1-0.2,0.2-0.4,0.3-0.5c0.1-0.2,0.2-0.4,0.4-0.5c0.3-0.3,0.6-0.6,0.9-0.9c0.2-0.2,0.5-0.5,0.7-0.8
		c0.1-0.2,0.2-0.4,0.3-0.6c0-0.1,0-0.1,0.1-0.2c0,0,0,0,0-0.1c0,0,0,0.1-0.1,0.2c-0.1,0.2-0.2,0.4-0.3,0.6c-0.2,0.3-0.4,0.5-0.7,0.8
		s-0.6,0.6-0.9,0.9c-0.1,0.2-0.3,0.3-0.4,0.5s-0.2,0.4-0.3,0.5l-0.2,0.5c-0.1,0.2-0.1,0.3-0.2,0.4c-0.1,0.2-0.2,0.4-0.4,0.6
		C257.2,153.2,257.1,153.3,257.1,153.3z"/>
	<path class="st5" d="M259.3,152.6c0-0.1,0-0.2,0-0.3c0-0.2-0.1-0.4-0.2-0.7s-0.2-0.5-0.2-0.7c0-0.1-0.1-0.2-0.1-0.3
		c0,0.1,0,0.2,0.1,0.3c0,0.2,0.1,0.4,0.2,0.7s0.1,0.5,0.2,0.7C259.2,152.4,259.2,152.5,259.3,152.6z"/>
	<path class="st5" d="M257.2,150.6c0.1,0,0.2,0,0.3-0.1c0.2,0,0.4-0.1,0.7-0.2c0.3-0.1,0.5-0.1,0.7-0.1c0.1,0,0.2,0,0.3-0.1
		c-0.1,0-0.2,0-0.3,0c-0.2,0-0.4,0.1-0.7,0.1c-0.3,0.1-0.5,0.1-0.7,0.2C257.4,150.5,257.3,150.5,257.2,150.6z"/>
	<path class="st5" d="M260.8,151.1c0-0.1,0-0.2,0-0.3c0-0.2-0.1-0.5-0.2-0.8s-0.2-0.6-0.2-0.8c0-0.1-0.1-0.2-0.1-0.3
		c0,0.1,0,0.2,0.1,0.3c0.1,0.2,0.1,0.5,0.2,0.8s0.1,0.6,0.2,0.8C260.8,150.9,260.8,151,260.8,151.1z"/>
	<path class="st5" d="M258.2,148.8c0,0,0.5,0,1.2-0.1c0.4,0,0.8-0.1,1.2-0.2c0,0-0.5,0-1.2,0.1C258.9,148.7,258.5,148.7,258.2,148.8
		z"/>
	<path class="st6" d="M258.5,155.1c0,0,1.8,0,4.1,0s4.1,0,4.1,0s-1.8,0-4.1,0S258.5,155.1,258.5,155.1z"/>
	<path class="st6" d="M259.8,157.5c0,0,1.2,0,2.8,0s2.8,0,2.8,0s-1.2,0-2.8,0S259.8,157.5,259.8,157.5z"/>
	<path class="st6" d="M259.9,157.9c0,0,1.2,0,2.7,0s2.7,0,2.7,0s-1.2,0-2.7,0S259.9,157.8,259.9,157.9z"/>
	<path class="st6" d="M259.8,157.2c0,0,1.3,0,2.9,0c1.6,0,2.9,0,2.9,0s-1.3,0-2.9,0C261.1,157.2,259.8,157.2,259.8,157.2z"/>
</g>
<g id="freepik--Device--inject-25">
	<path class="st5" d="M269.6,170.1h-13.7c-1.6,0-3-1.3-3-3l0,0v-34.6c0-1.7,1.3-3,3-3h13.7c1.6,0,3,1.3,3,3v34.6
		C272.6,168.7,271.2,170.1,269.6,170.1L269.6,170.1z"/>
	<path class="st3" d="M269.6,130.7h-2.7c-0.4,0-0.7,0.3-0.7,0.7v0.5c0,0.4-0.3,0.7-0.7,0.7h-5.2c-0.4,0-0.7-0.3-0.7-0.7l0,0v-0.5
		c0-0.4-0.3-0.7-0.7-0.7h-3.3c-1.2,0-2.1,0.9-2.1,2.1l0,0v33.7c0,1.2,0.9,2.1,2.1,2.1l0,0h13.7c1.2,0,2.1-0.9,2.1-2.1l0,0v-33.7
		C271.7,131.7,270.7,130.7,269.6,130.7L269.6,130.7z"/>
	<path class="st5" d="M261.5,167.2c0,0.1-0.1,0.3-0.3,0.3c-0.1,0-0.3-0.1-0.3-0.3c0-0.1,0.1-0.3,0.3-0.3l0,0
		C261.3,166.9,261.5,167.1,261.5,167.2L261.5,167.2z"/>
	<path class="st2" d="M262.9,167.2c0,0.1-0.1,0.3-0.3,0.3c-0.1,0-0.3-0.1-0.3-0.3c0-0.1,0.1-0.3,0.3-0.3
		C262.8,166.9,262.9,167.1,262.9,167.2L262.9,167.2z"/>
	<path class="st2" d="M264.4,167.2c0,0.1-0.1,0.3-0.3,0.3c-0.1,0-0.3-0.1-0.3-0.3c0-0.1,0.1-0.3,0.3-0.3
		C264.3,166.9,264.4,167,264.4,167.2L264.4,167.2z"/>
	<path class="st5" d="M255.6,135.4L255.6,135.4L255.6,135.4h0.4l0,0c0-0.1,0-0.2,0-0.2v-0.1c0-0.1,0.1-0.1,0.1-0.1
		c0.1,0,0.1,0,0.2,0c0.1,0,0.1,0.1,0.1,0.1c0,0.1,0,0.2,0,0.4l0,0h0.4l0,0c0-0.2,0-0.3,0-0.5v-0.1c0,0,0-0.1-0.1-0.1
		c-0.1-0.1-0.1-0.1-0.2-0.2l-0.2-0.2l-0.1-0.1c0,0,0-0.1-0.1-0.1H256c0,0,0,0-0.1,0.1l-0.2,0.2c-0.1,0.1-0.2,0.2-0.3,0.3
		c0,0,0,0.1,0,0.2v0.1c0,0.1,0,0.2,0,0.2S255.6,135.3,255.6,135.4L255.6,135.4L255.6,135.4c0-0.1,0-0.1,0-0.2c0-0.1,0-0.1,0-0.2
		c0,0,0-0.1,0-0.2v-0.1v-0.1c0.1-0.1,0.2-0.2,0.3-0.3l0.1-0.2c0,0,0,0,0.1-0.1h0.1c0,0,0.1,0,0.1,0.1l0.1,0.1l0.2,0.2l0.2,0.2
		l0.1,0.1v0.1c0,0.2,0,0.4,0,0.5l0,0l0,0h-0.4l0,0l0,0c0-0.1,0-0.2,0-0.4c0,0,0-0.1-0.1-0.1c-0.1,0-0.1,0-0.2,0c0,0-0.1,0-0.1,0.1
		v0.1c0,0.1,0,0.2,0,0.2l0,0l0,0h-0.3L255.6,135.4L255.6,135.4z"/>
	<path class="st1" d="M270.8,137.1L270.8,137.1c0.1,0,0.2,0.1,0.2,0.2v29.4c0,0.1-0.1,0.2-0.2,0.2l0,0c-0.1,0-0.2-0.1-0.2-0.2v-29.4
		C270.6,137.2,270.7,137.1,270.8,137.1z"/>
	<path class="st2" d="M270.8,138.5L270.8,138.5c0.1,0,0.2,0.1,0.2,0.1v2.1c0,0.1-0.1,0.1-0.1,0.1l0,0c-0.1,0-0.1-0.1-0.1-0.1v-2.1
		C270.6,138.5,270.7,138.5,270.8,138.5z"/>
	<path class="st3" d="M255.7,136.9h13.9c0.3,0,0.5,0.2,0.5,0.5v5.4c0,0.3-0.2,0.5-0.5,0.5h-13.9c-0.3,0-0.5-0.2-0.5-0.5v-5.4
		C255.2,137.2,255.4,136.9,255.7,136.9z"/>
	<path class="st7" d="M255.7,136.9h7.1l0,0v6.4l0,0h-7.1c-0.3,0-0.5-0.2-0.5-0.5v-5.5C255.2,137.2,255.4,136.9,255.7,136.9z"/>
	<g class="st9">
		<path d="M261.4,140.4c0.2-0.2,0.3-0.4,0.4-0.7c0.1-0.2,0.1-0.4,0-0.5s-0.2-0.2-0.3-0.2c-0.5-0.2-0.9-0.4-1.4-0.5l-3.6,1.3
			c-0.1,0.3,0.1,0.6,0.4,0.7c0.1,0,0.3,0,0.4-0.1c0.1,0.7,0.1,1.5-0.2,2.1c0,0.1-0.1,0.2,0,0.3s0.2,0.1,0.3,0.1h3.6
			c0.2,0,0.4,0,0.5-0.1c0.1-0.1,0.1-0.4,0-0.5l-0.4-1.4c0-0.1,0-0.2,0-0.2C261.2,140.5,261.3,140.5,261.4,140.4z"/>
	</g>
	<path class="st3" d="M260.9,142.2l-0.3-1.2l0.1-1.2l0.1-1.7L260,138c-0.6,0.3-1.5,0.5-2.2,0.2c0,0-0.3,0-0.5,0.2
		c-0.1,0.1,0,0.6,0.1,1c0.1,0.5,0.4,1.8,0.4,1.8s-0.4,1.1-0.5,1.4c0,0,2.8-0.5,3.7,0C260.9,142.5,261.1,142.5,260.9,142.2z"/>
	<path class="st3" d="M256.2,138.9l1-0.6l0.3,1.4l-0.5,0.4C257,140.1,256.2,139.7,256.2,138.9z"/>
	<path class="st3" d="M260.7,138l1.1,0.5c0,0-0.3,1.3-0.5,1.5l-0.5-0.2l-0.1,0.4v-1.7V138z"/>
	<path class="st2" d="M257.1,140L257.1,140c-0.1,0-0.1-0.1-0.2-0.1c-0.1-0.1-0.3-0.2-0.4-0.4c0-0.1-0.1-0.2-0.1-0.3s0-0.2-0.1-0.2
		c0,0,0-0.1,0-0.2c0,0,0,0,0-0.1c0,0,0,0.1,0,0.2c0,0.1,0,0.2,0.1,0.2c0,0.1,0.1,0.2,0.1,0.2c0.1,0.1,0.2,0.3,0.3,0.4
		C257,140,257.1,140,257.1,140z"/>
	<path class="st2" d="M257.4,139.5L257.4,139.5c-0.1,0-0.1-0.1-0.1-0.1c-0.1-0.1-0.2-0.2-0.2-0.3s-0.1-0.2-0.2-0.3
		c0,0,0-0.1-0.1-0.2c0,0,0,0.1,0.1,0.1c0.1,0.1,0.1,0.2,0.2,0.3c0.1,0.1,0.2,0.2,0.2,0.3C257.3,139.4,257.3,139.4,257.4,139.5
		L257.4,139.5z"/>
	<path class="st2" d="M260.6,138.1h-0.1c-0.1,0-0.2,0-0.3,0.1l-0.5,0.2c-0.2,0.1-0.4,0.1-0.6,0.1c-0.4,0-0.8,0-1.2-0.1
		c-0.1,0-0.2-0.1-0.3-0.1h-0.1l0,0c0,0,0.1,0,0.1,0.1c0.1,0,0.2,0.1,0.3,0.1c0.4,0.1,0.8,0.2,1.2,0.1c0.2,0,0.4-0.1,0.6-0.1
		c0.2-0.1,0.4-0.1,0.5-0.2c0.1-0.1,0.3-0.1,0.3-0.1C260.5,138.1,260.5,138.1,260.6,138.1L260.6,138.1z"/>
	<path class="st2" d="M260.7,139.1L260.7,139.1L260.7,139.1c-0.2,0-0.3,0-0.5,0c-0.4,0-0.8,0.1-1.2,0.1c-0.5,0-0.9,0-1.2,0h-0.4
		h-0.1l0,0l0,0h0.1h0.4c0.3,0,0.7,0,1.2,0s0.9,0,1.2,0C260.4,139.2,260.5,139.2,260.7,139.1L260.7,139.1L260.7,139.1z"/>
	<path class="st2" d="M260.7,139.8L260.7,139.8h-0.2c0,0-0.1,0-0.2,0c-0.4,0.1-0.7,0.1-1.1,0.1c-0.4,0-0.8,0-1.1,0
		c-0.1,0-0.3,0-0.3,0h-0.1h0.1c0.1,0,0.2,0,0.3,0c0.3,0,0.7,0,1.1,0c0.4,0,0.7,0,1.1-0.1c0.1,0,0.1,0,0.2,0S260.6,139.8,260.7,139.8
		C260.6,139.8,260.6,139.8,260.7,139.8z"/>
	<path class="st2" d="M260.6,140.6h-0.1c-0.1,0-0.2,0-0.3,0c-0.3,0-0.6,0-1,0c-0.4,0-0.8,0-1,0c-0.1,0-0.2,0-0.3,0h-0.1h0.1
		c0.1,0,0.2,0,0.3,0c0.3,0,0.6,0,1,0c0.4,0,0.8,0,1,0h0.3C260.5,140.6,260.5,140.6,260.6,140.6z"/>
	<path class="st2" d="M260.7,141.5L260.7,141.5h-0.4c-0.3,0-0.7,0-1.1,0c-0.4,0-0.8,0-1.1,0h-0.3h-0.1h0.1c0.1,0,0.2,0,0.3,0
		c0.3,0,0.7,0,1.1,0c0.4,0,0.8,0,1.1,0C260.4,141.5,260.6,141.5,260.7,141.5L260.7,141.5z"/>
	<path class="st2" d="M261.1,138.4c0,0.1-0.1,0.2-0.1,0.3s-0.1,0.2-0.2,0.3c0,0,0.1-0.1,0.2-0.3S261.1,138.4,261.1,138.4z"/>
	<path class="st5" d="M257.3,138.8C257.3,138.8,257.3,138.9,257.3,138.8c0,0.2,0.1,0.2,0.1,0.3c0,0.2,0.1,0.5,0.2,0.8
		s0.1,0.6,0.2,0.8c0,0.1,0,0.2,0,0.2v0.1v-0.1c0-0.1,0-0.1,0-0.2c0-0.2-0.1-0.5-0.2-0.8s-0.1-0.6-0.2-0.8
		C257.4,139,257.4,138.9,257.3,138.8C257.3,138.9,257.3,138.8,257.3,138.8z"/>
	<path class="st5" d="M260.7,139.2L260.7,139.2c0,0.1,0,0.2,0,0.3c0,0.2,0,0.4,0,0.6c0,0.2,0,0.5,0,0.6s0,0.1,0,0.2c0,0,0,0,0,0.1
		c0,0,0,0,0-0.1c0,0,0-0.1,0-0.2c0-0.2,0-0.4,0-0.6c0-0.2,0-0.5,0-0.6S260.7,139.3,260.7,139.2L260.7,139.2z"/>
	<path class="st2" d="M261.5,138.4c0,0.1,0,0.1-0.1,0.2c-0.1,0.1-0.1,0.3-0.2,0.5c-0.1,0.2-0.1,0.4-0.1,0.5s0,0.1,0,0.2
		c0,0,0,0,0-0.1c0,0,0-0.1,0-0.2c0-0.2,0.1-0.4,0.1-0.5c0.1-0.2,0.1-0.3,0.2-0.5C261.4,138.5,261.4,138.5,261.5,138.4L261.5,138.4z"
		/>
	<path class="st2" d="M260.9,142.2L260.9,142.2L260.9,142.2c-0.1,0-0.2,0-0.3,0c-0.1,0-0.1,0-0.2,0s-0.2,0-0.3,0c-0.1,0-0.2,0-0.3,0
		c-0.5,0-1,0-1.5,0.1c-0.1,0-0.2,0-0.3,0.1c-0.1,0-0.2,0-0.3,0.1s-0.2,0-0.2,0.1c-0.1,0-0.1,0-0.2,0.1h-0.1l0,0l0,0h0.1
		c0,0,0.1,0,0.2-0.1c0.1-0.1,0.1-0.1,0.2-0.1s0.2-0.1,0.3-0.1c0.1,0,0.2,0,0.3-0.1c0.5-0.1,1-0.1,1.5-0.1c0.1,0,0.2,0,0.3,0
		c0.1,0,0.2,0,0.3,0s0.2,0,0.2,0S260.7,142.2,260.9,142.2L260.9,142.2L260.9,142.2z"/>
	<path class="st7" d="M262.8,143.4c0,0,0-1.4,0-3.2s0-3.2,0-3.2s0,1.4,0,3.2S262.8,143.4,262.8,143.4z"/>
	<path class="st7" d="M269.6,143.4L269.6,143.4c0.2,0,0.3-0.1,0.4-0.2c0-0.1,0.1-0.1,0.1-0.2s0-0.2,0-0.3c0-0.2,0-0.4,0-0.7
		c0-1.1,0-2.6,0-4.5c0-0.1,0-0.1,0-0.2c0-0.2-0.2-0.3-0.3-0.4c-0.1,0-0.2,0-0.4,0h-2h-3.6h-8.1c-0.2,0-0.3,0.1-0.4,0.2
		c0,0.1-0.1,0.2-0.1,0.2v1.3c0,0.7,0,1.4,0,2.1v2c0,0.2,0.1,0.3,0.2,0.4c0.1,0,0.1,0.1,0.2,0.1c0.1,0,0.2,0,0.2,0h0.9h6.6h4.5h1.2
		h0.3L269.6,143.4c0,0,0,0-0.1,0h-0.3H268h-4.5h-6.6H256c-0.1,0-0.2,0-0.2,0c-0.1,0-0.2,0-0.2-0.1c-0.1-0.1-0.2-0.3-0.2-0.4
		c0-0.7,0-1.3,0-2v-3.4c0-0.3,0.2-0.5,0.6-0.5h8.1h3.6h1.3h0.6c0.1,0,0.1,0,0.2,0c0.2,0.1,0.3,0.2,0.4,0.4c0,0.1,0,0.1,0,0.2
		c0,1.9,0,3.4,0,4.5c0,0.3,0,0.5,0,0.7c0,0.1,0,0.2,0,0.3s-0.1,0.1-0.1,0.2c-0.1,0.1-0.2,0.1-0.3,0.2
		C269.7,143.4,269.6,143.4,269.6,143.4z"/>
	<path class="st7" d="M266.1,138.4c0,0-0.6,0-1.4,0s-1.4,0-1.4,0s0.6,0,1.4,0S266.1,138.4,266.1,138.4z"/>
	<path class="st7" d="M268.7,139.3c0,0-1.2,0-2.7,0s-2.7,0-2.7,0s1.2,0,2.7,0C267.5,139.2,268.7,139.2,268.7,139.3z"/>
	<path class="st7" d="M268.7,139.8c0,0-1.2,0-2.7,0s-2.7,0-2.7,0s1.2,0,2.7,0C267.5,139.7,268.7,139.7,268.7,139.8z"/>
	<path class="st7" d="M268.2,142.2c0-0.1,0-0.1-0.1-0.2l-0.1-0.1c-0.1,0-0.2,0-0.2,0.1c0,0,0,0-0.1-0.1c0,0-0.1,0-0.2,0
		c-0.1,0-0.1,0-0.1,0.1l-0.1,0.1c0,0.1,0,0.1,0,0.2c0,0.1,0.1,0.1,0.2,0.2l0.2,0.2c0,0,0.1-0.1,0.2-0.1c0.1,0,0.1-0.1,0.2-0.2
		C268.2,142.3,268.2,142.3,268.2,142.2z"/>
	<path class="st5" d="M267.7,142.7L267.7,142.7c0,0-0.1-0.1-0.2-0.2c-0.1,0-0.1-0.1-0.2-0.2c0-0.1,0-0.1,0-0.2c0-0.1,0-0.1,0.1-0.2
		l0.1-0.1c0.1,0,0.1,0,0.2,0c0,0,0,0,0.1,0.1c0.1-0.1,0.1-0.1,0.2-0.1c0.1,0,0.1,0,0.1,0.1c0,0,0.1,0.1,0.1,0.2c0,0.1,0,0.2,0,0.2
		c0,0.1-0.1,0.1-0.2,0.2C267.8,142.6,267.7,142.7,267.7,142.7L267.7,142.7z M267.5,142L267.5,142c-0.1,0-0.2,0.1-0.2,0.2
		c0,0.1,0,0.1,0,0.2c0,0.1,0.1,0.1,0.2,0.2c0.1,0.1,0.2,0.1,0.2,0.1s0.1-0.1,0.2-0.1s0.1-0.1,0.2-0.1c0-0.1,0-0.1,0-0.2l0,0
		c0,0,0-0.1-0.1-0.1l-0.1-0.1c-0.1,0-0.2,0-0.2,0.1l0,0l0,0C267.7,142.2,267.7,142.2,267.5,142C267.6,142,267.6,142,267.5,142
		L267.5,142z"/>
	<path class="st5" d="M269.4,142.6h-0.2h-0.4l0,0l0,0v-0.1c0-0.2,0-0.4-0.1-0.5l0,0h-0.1l0,0l0,0h0.2c0,0.1,0,0.3,0.1,0.5
		c0,0,0,0,0,0.1l0,0H269.4L269.4,142.6L269.4,142.6L269.4,142.6z"/>
	<path class="st5" d="M269.2,142.6h-0.4l0,0v-0.1l-0.1-0.5h-0.1l0,0l0,0h0.1l0,0l0,0l0.1,0.5l0,0h0.6l0,0l0,0L269.2,142.6
		L269.2,142.6z"/>
	<path class="st5" d="M268.8,142.4h0.2h0.4l0,0c0-0.1,0-0.2,0-0.2v-0.1l0,0h-0.5h-0.2h0.2h0.5l0,0l0,0v0.1c0,0.1,0,0.2,0,0.2l0,0
		l0,0H269H268.8L268.8,142.4L268.8,142.4z"/>
	<path class="st5" d="M269.4,142.4L269.4,142.4h-0.6l0,0l0,0l0,0h0.2H269.4V142h-0.7l0,0l0,0h0.2h0.5l0,0l0,0v0.1
		C269.4,142.2,269.4,142.2,269.4,142.4L269.4,142.4L269.4,142.4L269.4,142.4z"/>
	<path class="st5" d="M268.9,142.7L268.9,142.7L268.9,142.7L268.9,142.7C268.8,142.7,268.8,142.7,268.9,142.7
		C268.8,142.7,268.8,142.8,268.9,142.7C268.9,142.8,268.9,142.8,268.9,142.7L268.9,142.7L268.9,142.7L268.9,142.7
		C268.9,142.7,268.9,142.8,268.9,142.7C268.9,142.8,268.9,142.8,268.9,142.7C268.8,142.7,268.8,142.7,268.9,142.7
		C268.8,142.7,268.9,142.7,268.9,142.7L268.9,142.7L268.9,142.7L268.9,142.7z"/>
	<path class="st5" d="M268.9,142.8L268.9,142.8C268.8,142.8,268.8,142.8,268.9,142.8c-0.1-0.1,0-0.1,0-0.1l0,0
		C268.9,142.7,269,142.7,268.9,142.8L268.9,142.8L268.9,142.8C269,142.7,268.9,142.8,268.9,142.8L268.9,142.8z M268.9,142.7
		L268.9,142.7C268.9,142.7,268.8,142.7,268.9,142.7C268.8,142.7,268.9,142.8,268.9,142.7C268.9,142.8,268.9,142.8,268.9,142.7
		L268.9,142.7L268.9,142.7L268.9,142.7L268.9,142.7L268.9,142.7L268.9,142.7L268.9,142.7z"/>
	<path class="st5" d="M269.3,142.7L269.3,142.7L269.3,142.7L269.3,142.7C269.2,142.7,269.2,142.7,269.3,142.7
		C269.2,142.7,269.2,142.8,269.3,142.7C269.3,142.8,269.3,142.8,269.3,142.7L269.3,142.7L269.3,142.7L269.3,142.7
		C269.3,142.7,269.3,142.8,269.3,142.7C269.3,142.8,269.2,142.8,269.3,142.7L269.3,142.7C269.2,142.7,269.2,142.7,269.3,142.7
		L269.3,142.7L269.3,142.7L269.3,142.7z"/>
	<path class="st5" d="M269.3,142.8L269.3,142.8C269.2,142.8,269.2,142.7,269.3,142.8c-0.1-0.1,0-0.1,0-0.1s0,0,0.1,0
		C269.3,142.7,269.3,142.7,269.3,142.8L269.3,142.8L269.3,142.8C269.3,142.7,269.3,142.8,269.3,142.8L269.3,142.8z M269.3,142.7
		L269.3,142.7C269.2,142.7,269.2,142.7,269.3,142.7C269.2,142.7,269.2,142.8,269.3,142.7C269.3,142.8,269.3,142.8,269.3,142.7
		L269.3,142.7L269.3,142.7L269.3,142.7L269.3,142.7L269.3,142.7L269.3,142.7L269.3,142.7L269.3,142.7z"/>
	<path class="st5" d="M269.6,142c0,0.1-0.1,0.2-0.2,0.2c-0.1,0-0.2-0.1-0.2-0.2s0.1-0.2,0.2-0.2C269.5,141.8,269.6,141.9,269.6,142
		L269.6,142z"/>
	<path class="st3" d="M269.5,142.1L269.5,142.1L269.5,142.1C269.5,142.1,269.5,142,269.5,142.1c0-0.1,0-0.2,0-0.2
		S269.5,142,269.5,142.1C269.5,142,269.5,142.1,269.5,142.1L269.5,142.1L269.5,142.1z"/>
	<path class="st3" d="M269.6,142C269.5,142,269.5,142,269.6,142c-0.1,0-0.2,0-0.2,0S269.4,142,269.6,142
		C269.5,142,269.5,142,269.6,142z"/>
	<path class="st7" d="M266,142.4c0,0-0.6,0-1.2,0c-0.7,0-1.2,0-1.2,0s0.6,0,1.2,0C265.4,142.4,266,142.4,266,142.4z"/>
	<path class="st1" d="M255.7,144.4h13.9c0.3,0,0.5,0.2,0.5,0.5v5.4c0,0.3-0.2,0.5-0.5,0.5h-13.9c-0.3,0-0.5-0.2-0.5-0.5v-5.4
		C255.2,144.6,255.4,144.4,255.7,144.4z"/>
	<path class="st3" d="M255.7,144.4h7.1l0,0v6.4l0,0h-7.1c-0.3,0-0.5-0.2-0.5-0.5v-5.5C255.2,144.6,255.4,144.4,255.7,144.4z"/>
	<path class="st2" d="M262.8,150.9c0,0,0-1.4,0-3.2s0-3.2,0-3.2s0,1.4,0,3.2S262.8,150.9,262.8,150.9z"/>
	<path class="st2" d="M269.6,150.8L269.6,150.8c0.2,0,0.3-0.1,0.4-0.2c0-0.1,0.1-0.1,0.1-0.2c0-0.1,0-0.2,0-0.3c0-0.2,0-0.4,0-0.7
		c0-1.1,0-2.6,0-4.5c0-0.1,0-0.1,0-0.2c0-0.2-0.2-0.3-0.3-0.4c-0.1,0-0.2,0-0.4,0h-2h-3.6h-8.1c-0.2,0-0.3,0.1-0.4,0.2
		c0,0.1-0.1,0.2-0.1,0.2v1.3c0,0.7,0,1.4,0,2.1v2c0,0.2,0.2,0.4,0.4,0.5c0.1,0,0.2,0,0.2,0h0.9h6.6h4.5h1.2h0.3L269.6,150.8h-0.1
		h-0.3H268h-4.5h-6.6H256c-0.1,0-0.2,0-0.2,0c-0.3,0-0.5-0.3-0.5-0.5c0-0.7,0-1.3,0-2v-3.4c0-0.3,0.3-0.5,0.6-0.5h8.1h3.6h1.4h0.6
		c0.1,0,0.1,0,0.2,0c0.2,0.1,0.3,0.2,0.4,0.4c0,0.1,0,0.1,0,0.2c0,1.9,0,3.4,0,4.5c0,0.3,0,0.5,0,0.7c0,0.1,0,0.2,0,0.3
		s-0.1,0.1-0.1,0.2c-0.1,0.1-0.2,0.1-0.3,0.2C269.7,150.8,269.6,150.8,269.6,150.8z"/>
	<path class="st5" d="M266.1,145.9c0,0-0.6,0-1.4,0s-1.4,0-1.4,0s0.6,0,1.4,0S266.1,145.9,266.1,145.9z"/>
	<path class="st2" d="M268.7,146.7c0,0-1.2,0-2.7,0s-2.7,0-2.7,0s1.2,0,2.7,0S268.7,146.7,268.7,146.7z"/>
	<path class="st2" d="M268.7,147.2c0,0-1.2,0-2.7,0s-2.7,0-2.7,0s1.2,0,2.7,0S268.7,147.2,268.7,147.2z"/>
	<path class="st7" d="M268.2,149.7c0-0.1,0-0.1-0.1-0.2l-0.1-0.1c-0.1,0-0.1,0-0.2,0c0,0-0.1,0-0.1,0.1c0,0,0,0-0.1-0.1
		c0,0-0.1,0-0.2,0c-0.1,0-0.1,0-0.1,0.1l-0.1,0.1c0,0.1,0,0.1,0,0.2c0,0.1,0.1,0.1,0.2,0.2c0.1,0.1,0.2,0.2,0.2,0.2s0.1-0.1,0.2-0.1
		s0.1-0.1,0.2-0.1C268.2,149.8,268.2,149.7,268.2,149.7z"/>
	<path class="st5" d="M267.7,150.2L267.7,150.2c0,0-0.1-0.1-0.2-0.2c-0.1,0-0.1-0.1-0.2-0.2c0-0.1,0-0.1,0-0.2c0-0.1,0-0.1,0.1-0.2
		l0.1-0.1c0.1,0,0.1,0,0.2,0c0,0,0,0,0.1,0.1c0,0,0,0,0.1-0.1c0.1,0,0.1,0,0.2,0c0.1,0,0.1,0,0.1,0.1c0,0,0.1,0.1,0.1,0.2
		c0,0.1,0,0.2,0,0.2c0,0.1-0.1,0.1-0.2,0.2C267.8,150.1,267.7,150.2,267.7,150.2L267.7,150.2z M267.5,149.4L267.5,149.4
		c-0.1,0-0.1,0-0.2,0.1l-0.1,0.1c0,0.1,0,0.1,0,0.2c0,0.1,0.1,0.1,0.2,0.2c0.1,0.1,0.2,0.1,0.2,0.1s0.1-0.1,0.2-0.1
		c0.1,0,0.1-0.1,0.2-0.1c0-0.1,0-0.1,0-0.2l0,0c0,0,0-0.1-0.1-0.1l-0.1-0.1C267.8,149.5,267.7,149.5,267.5,149.4
		c0.1,0.1,0.1,0.1,0,0.2l0,0l0,0c0,0,0,0-0.1-0.1C267.6,149.4,267.6,149.4,267.5,149.4L267.5,149.4z"/>
	<path class="st5" d="M269.4,150h-0.2h-0.4l0,0l0,0v-0.1c0-0.2,0-0.4-0.1-0.5l0,0h-0.1h0.1l0,0l0.1,0.5c0,0,0,0,0,0.1l0,0h0.4H269.4
		L269.4,150L269.4,150z"/>
	<path class="st5" d="M269.2,150h-0.4l0,0l-0.1-0.6h-0.1l0,0l0,0h0.1l0,0l0,0l0.1,0.5l0,0h0.6l0,0l0,0h-0.2V150L269.2,150z"/>
	<path class="st5" d="M268.8,149.9h0.2h0.4l0,0c0-0.1,0-0.2,0-0.3v-0.1l0,0h-0.5h-0.2h0.2h0.5l0,0l0,0v0.1c0,0.1,0,0.2,0,0.3l0,0
		l0,0H269L268.8,149.9L268.8,149.9L268.8,149.9z"/>
	<path class="st5" d="M269.4,149.9L269.4,149.9h-0.6l0,0l0,0l0,0h0.2H269.4v-0.4h-0.7l0,0l0,0h0.2h0.5l0,0l0,0v0.1
		C269.4,149.7,269.4,149.7,269.4,149.9L269.4,149.9L269.4,149.9z"/>
	<path class="st5" d="M268.9,150.2L268.9,150.2C268.9,150.2,268.9,150.1,268.9,150.2C268.9,150.1,268.8,150.1,268.9,150.2
		L268.9,150.2C268.8,150.2,268.8,150.2,268.9,150.2L268.9,150.2L268.9,150.2L268.9,150.2L268.9,150.2L268.9,150.2
		C268.9,150.3,268.8,150.3,268.9,150.2L268.9,150.2C268.8,150.2,268.8,150.1,268.9,150.2C268.9,150.1,268.9,150.1,268.9,150.2
		C268.9,150.1,268.9,150.2,268.9,150.2L268.9,150.2z"/>
	<path class="st5" d="M268.9,150.2L268.9,150.2C268.8,150.2,268.8,150.2,268.9,150.2C268.8,150.1,268.9,150.1,268.9,150.2
		c0-0.1,0-0.1,0.1-0.1C268.9,150.1,269,150.1,268.9,150.2L268.9,150.2L268.9,150.2C269,150.2,268.9,150.2,268.9,150.2
		S268.9,150.3,268.9,150.2z M268.9,150.1L268.9,150.1C268.9,150.1,268.8,150.2,268.9,150.1C268.8,150.2,268.9,150.2,268.9,150.1
		C268.9,150.2,268.9,150.2,268.9,150.1C268.9,150.2,268.9,150.2,268.9,150.1L268.9,150.1L268.9,150.1L268.9,150.1L268.9,150.1
		C268.9,150.2,268.9,150.1,268.9,150.1L268.9,150.1L268.9,150.1z"/>
	<path class="st5" d="M269.3,150.2L269.3,150.2L269.3,150.2C269.3,150.1,269.3,150.1,269.3,150.2
		C269.2,150.2,269.2,150.2,269.3,150.2C269.2,150.2,269.2,150.2,269.3,150.2L269.3,150.2L269.3,150.2L269.3,150.2L269.3,150.2
		L269.3,150.2L269.3,150.2C269.2,150.2,269.2,150.2,269.3,150.2C269.2,150.2,269.2,150.1,269.3,150.2
		C269.3,150.1,269.3,150.1,269.3,150.2L269.3,150.2L269.3,150.2z"/>
	<path class="st5" d="M269.3,150.3L269.3,150.3C269.2,150.2,269.2,150.2,269.3,150.3c-0.1-0.1,0-0.1,0-0.1s0,0,0.1,0
		C269.3,150.1,269.3,150.2,269.3,150.3L269.3,150.3L269.3,150.3C269.3,150.2,269.3,150.2,269.3,150.3
		C269.3,150.2,269.3,150.3,269.3,150.3z M269.3,150.1L269.3,150.1C269.2,150.2,269.2,150.2,269.3,150.1
		C269.2,150.2,269.2,150.2,269.3,150.1C269.3,150.2,269.3,150.2,269.3,150.1C269.3,150.2,269.3,150.2,269.3,150.1L269.3,150.1
		L269.3,150.1L269.3,150.1L269.3,150.1C269.3,150.2,269.3,150.2,269.3,150.1L269.3,150.1L269.3,150.1z"/>
	<path class="st5" d="M269.6,149.4c0,0.1-0.1,0.2-0.2,0.2c-0.1,0-0.2-0.1-0.2-0.2c0-0.1,0.1-0.2,0.2-0.2
		C269.5,149.3,269.6,149.4,269.6,149.4L269.6,149.4z"/>
	<path class="st3" d="M269.5,149.5L269.5,149.5L269.5,149.5L269.5,149.5c0-0.1,0-0.2,0-0.2C269.5,149.4,269.5,149.4,269.5,149.5
		L269.5,149.5L269.5,149.5L269.5,149.5z"/>
	<path class="st3" d="M269.6,149.5C269.5,149.5,269.5,149.5,269.6,149.5c-0.1,0-0.2,0-0.2,0C269.4,149.4,269.4,149.4,269.6,149.5
		C269.5,149.5,269.5,149.5,269.6,149.5z"/>
	<path class="st5" d="M266,149.9c-0.4,0-0.8,0-1.2,0c-0.4,0-0.8,0-1.2,0c0,0,0.6,0,1.2,0C265.4,149.8,266,149.8,266,149.9z"/>
	<path class="st1" d="M255.7,151.8h13.9c0.3,0,0.5,0.2,0.5,0.5v5.4c0,0.3-0.2,0.5-0.5,0.5h-13.9c-0.3,0-0.5-0.2-0.5-0.5v-5.4
		C255.2,152,255.4,151.8,255.7,151.8z"/>
	<path class="st3" d="M255.7,151.8h7.1l0,0v6.4l0,0h-7.1c-0.3,0-0.5-0.2-0.5-0.5v-5.5C255.2,152,255.4,151.8,255.7,151.8z"/>
	<path class="st2" d="M262.8,158.3c0,0,0-1.4,0-3.2s0-3.2,0-3.2s0,1.4,0,3.2C262.8,156.8,262.8,158.3,262.8,158.3z"/>
	<path class="st2" d="M269.6,158.2L269.6,158.2c0.3,0,0.4-0.2,0.5-0.4c0-0.1,0-0.2,0-0.3c0-0.2,0-0.4,0-0.7c0-1.1,0-2.6,0-4.5
		c0-0.1,0-0.1,0-0.2c0-0.2-0.2-0.3-0.3-0.4c-0.1,0-0.2,0-0.4,0h-2h-3.6h-8.1c-0.3,0-0.5,0.2-0.5,0.5v1.3c0,0.7,0,1.4,0,2.1v2
		c0,0.2,0.1,0.3,0.2,0.4c0.1,0,0.1,0.1,0.2,0.1c0.1,0,0.2,0,0.2,0h0.9h6.6h4.5h1.2h0.3L269.6,158.2h-0.1h-0.3H268h-4.5h-6.6H256
		c-0.1,0-0.2,0-0.2,0c-0.3,0-0.5-0.3-0.5-0.5c0-0.7,0-1.3,0-2v-3.4c0-0.3,0.3-0.5,0.6-0.5h8.1h3.6h2.2c0.1,0,0.1,0,0.2,0
		c0.2,0.1,0.3,0.2,0.4,0.4c0,0.1,0,0.1,0,0.2c0,1.9,0,3.4,0,4.5c0,0.3,0,0.5,0,0.7c0,0.1,0,0.2,0,0.3s-0.1,0.1-0.1,0.2
		c-0.1,0.1-0.2,0.1-0.3,0.2C269.7,158.2,269.6,158.2,269.6,158.2z"/>
	<path class="st5" d="M266.1,153.2c0,0-0.6,0-1.4,0s-1.4,0-1.4,0s0.6,0,1.4,0S266.1,153.2,266.1,153.2z"/>
	<path class="st2" d="M268.7,154.1c0,0-1.2,0-2.7,0s-2.7,0-2.7,0s1.2,0,2.7,0C267.5,154,268.7,154.1,268.7,154.1z"/>
	<path class="st2" d="M268.7,154.6c0,0-1.2,0-2.7,0s-2.7,0-2.7,0s1.2,0,2.7,0C267.5,154.5,268.7,154.6,268.7,154.6z"/>
	<path class="st7" d="M268.2,157c0-0.1,0-0.1-0.1-0.2l-0.1-0.1c-0.1,0-0.2,0-0.2,0.1c0,0,0,0-0.1-0.1c0,0-0.1,0-0.2,0
		c-0.1,0-0.1,0-0.1,0.1l-0.1,0.1c0,0.1,0,0.1,0,0.2c0,0.1,0.1,0.1,0.2,0.2l0.2,0.2c0,0,0.1-0.1,0.2-0.1c0.1,0,0.1-0.1,0.2-0.2
		C268.2,157.2,268.2,157.1,268.2,157z"/>
	<path class="st5" d="M267.7,157.5L267.7,157.5c0,0-0.1-0.1-0.2-0.2c-0.1,0-0.1-0.1-0.2-0.2c0-0.1,0-0.1,0-0.2c0-0.1,0-0.1,0.1-0.2
		l0.1-0.1c0.1,0,0.1,0,0.2,0c0,0,0,0,0.1,0.1c0,0,0,0,0.1-0.1c0,0,0.1,0,0.2,0c0.1,0,0.1,0,0.1,0.1c0,0,0.1,0.1,0.1,0.2s0,0.2,0,0.2
		c0,0.1-0.1,0.1-0.2,0.2C267.8,157.4,267.7,157.5,267.7,157.5L267.7,157.5z M267.5,156.8L267.5,156.8c-0.1,0-0.1,0-0.2,0.1l-0.1,0.1
		c0,0.1,0,0.1,0,0.2c0,0.1,0.1,0.1,0.2,0.2c0.1,0.1,0.2,0.1,0.2,0.1s0.1-0.1,0.2-0.1c0.1,0,0.1-0.1,0.2-0.1c0-0.1,0-0.1,0-0.2l0,0
		c0,0,0-0.1-0.1-0.1l-0.1-0.1c-0.1,0-0.2,0-0.2,0.1l0,0l0,0C267.6,157,267.6,157,267.5,156.8C267.6,156.8,267.6,156.8,267.5,156.8
		L267.5,156.8z"/>
	<path class="st5" d="M269.4,157.4h-0.2h-0.4l0,0l0,0v-0.1c0-0.2,0-0.4-0.1-0.5l0,0h-0.1h0.1l0,0c0,0.1,0,0.3,0.1,0.5c0,0,0,0,0,0.1
		l0,0h0.4H269.4L269.4,157.4L269.4,157.4z"/>
	<path class="st5" d="M269.2,157.4h-0.4l0,0l-0.1-0.6h-0.1l0,0l0,0h0.1l0,0l0,0l0.1,0.5l0,0h0.6l0,0l0,0L269.2,157.4L269.2,157.4z"
		/>
	<path class="st5" d="M268.8,157.2h0.2h0.4l0,0c0-0.1,0-0.2,0-0.2v-0.1l0,0h-0.5h-0.2h0.2h0.5l0,0l0,0v0.1c0,0.1,0,0.2,0,0.3l0,0
		l0,0H269L268.8,157.2L268.8,157.2L268.8,157.2z"/>
	<path class="st5" d="M269.4,157.3L269.4,157.3H269h-0.1l0,0l0,0l0,0l0,0h0.1H269.4v-0.4h-0.6h-0.1h-0.1l0,0l0,0h0.1h0.3h0.4l0,0
		l0,0v0.1L269.4,157.3L269.4,157.3z"/>
	<path class="st5" d="M268.9,157.5L268.9,157.5L268.9,157.5L268.9,157.5C268.8,157.5,268.8,157.5,268.9,157.5
		C268.8,157.6,268.8,157.6,268.9,157.5C268.9,157.6,268.9,157.6,268.9,157.5C268.9,157.6,268.9,157.6,268.9,157.5L268.9,157.5
		L268.9,157.5C268.9,157.6,268.9,157.6,268.9,157.5C268.9,157.6,268.9,157.6,268.9,157.5C268.8,157.5,268.8,157.5,268.9,157.5
		C268.8,157.5,268.8,157.5,268.9,157.5L268.9,157.5L268.9,157.5L268.9,157.5z"/>
	<path class="st5" d="M268.9,157.6L268.9,157.6C268.8,157.6,268.8,157.6,268.9,157.6c-0.1-0.1,0-0.1,0-0.1s0,0,0.1,0
		C268.9,157.5,269,157.5,268.9,157.6L268.9,157.6L268.9,157.6C269,157.6,268.9,157.6,268.9,157.6L268.9,157.6z M268.9,157.5
		L268.9,157.5C268.9,157.5,268.8,157.5,268.9,157.5C268.8,157.6,268.9,157.6,268.9,157.5C268.9,157.6,268.9,157.6,268.9,157.5
		C268.9,157.6,268.9,157.6,268.9,157.5L268.9,157.5L268.9,157.5L268.9,157.5L268.9,157.5L268.9,157.5L268.9,157.5z"/>
	<path class="st5" d="M269.3,157.5L269.3,157.5L269.3,157.5L269.3,157.5C269.2,157.5,269.2,157.5,269.3,157.5
		C269.2,157.5,269.2,157.6,269.3,157.5C269.3,157.6,269.3,157.6,269.3,157.5C269.3,157.6,269.3,157.6,269.3,157.5L269.3,157.5
		L269.3,157.5C269.3,157.6,269.3,157.6,269.3,157.5C269.3,157.6,269.3,157.6,269.3,157.5C269.2,157.5,269.2,157.5,269.3,157.5
		C269.2,157.5,269.2,157.5,269.3,157.5L269.3,157.5L269.3,157.5L269.3,157.5z"/>
	<path class="st5" d="M269.3,157.6L269.3,157.6C269.2,157.6,269.2,157.6,269.3,157.6c-0.1-0.1,0-0.1,0-0.1s0,0,0.1,0
		C269.3,157.5,269.3,157.5,269.3,157.6L269.3,157.6L269.3,157.6L269.3,157.6L269.3,157.6z M269.3,157.5L269.3,157.5
		C269.2,157.5,269.2,157.5,269.3,157.5C269.2,157.6,269.2,157.6,269.3,157.5C269.3,157.6,269.3,157.6,269.3,157.5
		C269.3,157.6,269.3,157.6,269.3,157.5L269.3,157.5L269.3,157.5L269.3,157.5L269.3,157.5L269.3,157.5L269.3,157.5L269.3,157.5z"/>
	<path class="st5" d="M269.6,156.8c0,0.1-0.1,0.2-0.2,0.2c-0.1,0-0.2-0.1-0.2-0.2c0-0.1,0.1-0.2,0.2-0.2
		C269.5,156.6,269.6,156.7,269.6,156.8z"/>
	<path class="st3" d="M269.5,156.9L269.5,156.9L269.5,156.9L269.5,156.9c0-0.1,0-0.2,0-0.2C269.5,156.8,269.5,156.8,269.5,156.9
		L269.5,156.9L269.5,156.9L269.5,156.9z"/>
	<path class="st3" d="M269.6,156.8C269.5,156.8,269.5,156.8,269.6,156.8c-0.1,0-0.2,0-0.2,0S269.5,156.8,269.6,156.8L269.6,156.8z"
		/>
	<path class="st5" d="M266,157.2c0,0-0.6,0-1.2,0c-0.7,0-1.2,0-1.2,0s0.6,0,1.2,0C265.4,157.2,266,157.2,266,157.2z"/>
	<path class="st1" d="M255.7,159.2h13.9c0.3,0,0.5,0.2,0.5,0.5v5.4c0,0.3-0.2,0.5-0.5,0.5h-13.9c-0.3,0-0.5-0.2-0.5-0.5v-5.4
		C255.2,159.4,255.4,159.2,255.7,159.2z"/>
	<path class="st3" d="M255.7,159.2h7.1l0,0v6.4l0,0h-7.1c-0.3,0-0.5-0.2-0.5-0.5v-5.5C255.2,159.4,255.4,159.2,255.7,159.2z"/>
	<path class="st2" d="M262.8,165.7c0,0,0-1.4,0-3.2s0-3.2,0-3.2s0,1.4,0,3.2S262.8,165.7,262.8,165.7z"/>
	<path class="st2" d="M269.6,165.6L269.6,165.6c0.2,0,0.3-0.1,0.4-0.2c0-0.1,0.1-0.1,0.1-0.2c0-0.1,0-0.2,0-0.3c0-0.2,0-0.4,0-0.7
		c0-1.1,0-2.6,0-4.5c0-0.1,0-0.1,0-0.2s0-0.1-0.1-0.2c-0.1-0.1-0.2-0.2-0.3-0.2c-0.1,0-0.2,0-0.4,0H269h-1.6h-3.6h-8.1
		c-0.2,0-0.3,0.1-0.4,0.2c0,0.1-0.1,0.2-0.1,0.2v1.5c0,0.7,0,1.4,0,2.1v2c0,0.2,0.1,0.3,0.2,0.4c0.1,0,0.1,0.1,0.2,0.1
		c0.1,0,0.2,0,0.2,0h0.9h6.6h4.5h1.2h0.3L269.6,165.6l-0.1,0h-0.3H268h-4.5h-6.6H256c-0.1,0-0.2,0-0.2,0c-0.3,0-0.5-0.3-0.5-0.5
		c0-0.7,0-1.3,0-2v-3.4c0-0.3,0.3-0.5,0.6-0.5h8.1h3.6h1.4h0.6c0.2,0,0.4,0.1,0.5,0.3c0,0.1,0.1,0.1,0.1,0.2c0,0.1,0,0.1,0,0.2
		c0,1.9,0,3.4,0,4.5c0,0.3,0,0.5,0,0.7c0,0.1,0,0.2,0,0.3s-0.1,0.1-0.1,0.2c-0.1,0.1-0.2,0.1-0.3,0.2
		C269.7,165.6,269.6,165.6,269.6,165.6z"/>
	<path class="st5" d="M266.1,160.6c0,0-0.6,0-1.4,0s-1.4,0-1.4,0s0.6,0,1.4,0S266.1,160.6,266.1,160.6z"/>
	<path class="st2" d="M268.7,161.5c0,0-1.2,0-2.7,0s-2.7,0-2.7,0s1.2,0,2.7,0C267.5,161.4,268.7,161.5,268.7,161.5z"/>
	<path class="st2" d="M268.7,162c0,0-1.2,0-2.7,0s-2.7,0-2.7,0s1.2,0,2.7,0C267.5,161.9,268.7,162,268.7,162z"/>
	<path class="st7" d="M268.2,164.4c0-0.1,0-0.1-0.1-0.2l-0.1-0.1c-0.1,0-0.1,0-0.2,0c0,0-0.1,0-0.1,0.1c0,0,0,0-0.1-0.1
		c0,0-0.1,0-0.2,0c-0.1,0-0.1,0-0.1,0.1l-0.1,0.1c0,0.1,0,0.1,0,0.2s0.1,0.1,0.2,0.2c0.1,0.1,0.2,0.2,0.2,0.2s0.1-0.1,0.2-0.1
		s0.1-0.1,0.2-0.1C268.2,164.6,268.2,164.5,268.2,164.4z"/>
	<path class="st5" d="M267.7,164.9L267.7,164.9c0,0-0.1-0.1-0.2-0.2c-0.1,0-0.1-0.1-0.2-0.2c0-0.1,0-0.1,0-0.2c0-0.1,0-0.1,0.1-0.2
		l0.1-0.1c0.1,0,0.2,0,0.2,0.1c0-0.1,0.1-0.1,0.2-0.1c0.1,0,0.1,0,0.1,0.1c0,0,0.1,0.1,0.1,0.2l0,0c0,0.1,0,0.2,0,0.2
		c0,0.1-0.1,0.1-0.2,0.2C267.8,164.9,267.7,164.9,267.7,164.9L267.7,164.9z M267.5,164.2L267.5,164.2c-0.1,0-0.1,0-0.2,0.1l-0.1,0.1
		c0,0.1,0,0.1,0,0.2c0,0.1,0.1,0.1,0.2,0.2c0.1,0.1,0.2,0.1,0.2,0.1s0.1-0.1,0.2-0.1c0.1,0,0.1-0.1,0.2-0.1c0-0.1,0-0.1,0-0.2l0,0
		c0-0.1-0.1-0.2-0.2-0.2c0,0-0.1,0-0.2,0c0,0,0,0-0.1,0.1l0,0l0,0c0,0,0,0-0.1-0.1C267.6,164.2,267.6,164.2,267.5,164.2L267.5,164.2
		z"/>
	<path class="st5" d="M269.4,164.8h-0.2h-0.4l0,0l0,0v-0.1c0-0.2,0-0.4-0.1-0.5l0,0h-0.1h0.1l0,0l0.1,0.5c0,0,0,0,0,0.1l0,0h0.4
		H269.4L269.4,164.8L269.4,164.8z"/>
	<path class="st5" d="M269.2,164.8h-0.4l0,0l-0.1-0.6h-0.1l0,0l0,0l0,0h0.1l0,0l0,0l0.1,0.5l0,0h0.6l0,0l0,0h-0.2V164.8L269.2,164.8
		z"/>
	<path class="st5" d="M268.8,164.7h0.2h0.4l0,0c0-0.1,0-0.2,0-0.2v-0.1l0,0h-0.5h-0.2h0.2h0.5l0,0l0,0v0.1c0,0.1,0,0.2,0,0.2l0,0
		l0,0H269H268.8L268.8,164.7L268.8,164.7z"/>
	<path class="st5" d="M269.4,164.7L269.4,164.7h-0.6l0,0l0,0l0,0h0.2H269.4v-0.4h-0.7l0,0l0,0l0,0h0.2h0.5l0,0l0,0v0.1
		C269.4,164.5,269.4,164.5,269.4,164.7L269.4,164.7L269.4,164.7z"/>
	<path class="st5" d="M268.9,164.9L268.9,164.9L268.9,164.9C268.9,164.8,268.8,164.8,268.9,164.9L268.9,164.9
		C268.8,165,268.8,165,268.9,164.9C268.9,165,268.9,165,268.9,164.9L268.9,164.9C268.9,165,268.9,164.9,268.9,164.9L268.9,164.9
		C268.9,165,268.9,165,268.9,164.9C268.9,165,268.9,165,268.9,164.9C268.8,164.9,268.8,164.9,268.9,164.9
		C268.8,164.9,268.8,164.9,268.9,164.9L268.9,164.9L268.9,164.9L268.9,164.9z"/>
	<path class="st5" d="M268.9,165L268.9,165C268.8,165,268.8,165,268.9,165c-0.1-0.1,0-0.1,0-0.1l0,0
		C268.9,164.9,269,164.9,268.9,165L268.9,165L268.9,165C269,165,268.9,165,268.9,165L268.9,165z M268.9,164.9L268.9,164.9
		C268.9,164.9,268.8,164.9,268.9,164.9C268.8,165,268.9,165,268.9,164.9C268.9,165,268.9,165,268.9,164.9
		C268.9,165,268.9,165,268.9,164.9L268.9,164.9L268.9,164.9L268.9,164.9L268.9,164.9L268.9,164.9L268.9,164.9L268.9,164.9z"/>
	<path class="st5" d="M269.3,165L269.3,165C269.3,164.9,269.3,164.9,269.3,165C269.3,164.9,269.3,164.9,269.3,165
		C269.2,165,269.2,165,269.3,165C269.2,165,269.2,165,269.3,165L269.3,165L269.3,165L269.3,165L269.3,165L269.3,165L269.3,165
		C269.2,165,269.2,165,269.3,165C269.2,165,269.2,164.9,269.3,165C269.3,164.9,269.3,164.9,269.3,165
		C269.3,164.9,269.3,164.9,269.3,165C269.3,164.9,269.3,164.9,269.3,165z"/>
	<path class="st5" d="M269.3,165L269.3,165C269.2,165,269.2,165,269.3,165c-0.1-0.1,0-0.1,0-0.1s0,0,0.1,0
		C269.3,164.9,269.3,164.9,269.3,165L269.3,165L269.3,165L269.3,165L269.3,165z M269.3,164.9L269.3,164.9
		C269.2,164.9,269.2,164.9,269.3,164.9C269.2,165,269.2,165,269.3,164.9C269.3,165,269.3,165,269.3,164.9L269.3,164.9L269.3,164.9
		L269.3,164.9L269.3,164.9L269.3,164.9L269.3,164.9L269.3,164.9L269.3,164.9z"/>
	<path class="st5" d="M269.6,164.2c0,0.1-0.1,0.2-0.2,0.2c-0.1,0-0.2-0.1-0.2-0.2c0-0.1,0.1-0.2,0.2-0.2
		C269.5,164,269.6,164.1,269.6,164.2L269.6,164.2z"/>
	<path class="st3" d="M269.5,164.3L269.5,164.3L269.5,164.3L269.5,164.3c0-0.1,0-0.2,0-0.2C269.5,164.2,269.5,164.2,269.5,164.3
		L269.5,164.3L269.5,164.3L269.5,164.3z"/>
	<path class="st3" d="M269.6,164.2C269.5,164.2,269.5,164.2,269.6,164.2c-0.1,0-0.2,0-0.2,0S269.4,164.2,269.6,164.2
		C269.5,164.2,269.5,164.2,269.6,164.2z"/>
	<path class="st5" d="M266,164.6c-0.4,0-0.8,0-1.2,0c-0.4,0-0.8,0-1.2,0c0,0,0.6,0,1.2,0C265.4,164.6,266,164.6,266,164.6z"/>
	<path class="st5" d="M257.1,146c0,0-0.9,2.2-0.9,3.4l2.4,0.7l0.4-0.8l0.4,0.8c0,0,1.9-0.5,2.4-0.9c0,0-0.5-2.6-0.9-3.2
		c0,0,0.2-0.5,0.1-0.5c-0.2,0-0.5,0-0.7,0c-0.2,0-0.3,0-0.6,0c-0.3,0-0.3,0.3-0.6,0.2c-0.3-0.1-0.3-0.2-0.7-0.2
		c-0.4-0.1-0.6,0.2-0.8,0.1c-0.2,0-0.3-0.1-0.5-0.1c-0.1,0-0.3,0.1-0.3,0.2v0.1l0,0C257,145.8,257.1,145.9,257.1,146z"/>
	<path class="st5" d="M260.5,145.5c0,0.1,0,0.2,0,0.3s-0.1,0.2-0.2,0.2c0.1-0.1,0.1-0.2,0.1-0.2
		C260.4,145.7,260.5,145.6,260.5,145.5z"/>
	<path class="st4" d="M259.1,147.2C259.1,147.2,259.1,147.1,259.1,147.2l-0.2-0.2l-0.4-0.4l0,0l-0.5,0.6l0,0l0,0l0.5,0.6l0,0
		l0.4-0.4C259,147.3,259,147.2,259.1,147.2L259.1,147.2L259.1,147.2l-0.1,0.1l-0.3,0.5l0,0l0,0l-0.5-0.6l0,0l0,0l0,0l0.5-0.6l0,0
		l0,0l0.3,0.4L259.1,147.2C259.1,147.1,259.1,147.2,259.1,147.2z"/>
	<path class="st4" d="M260.9,146.8L260.9,146.8l-0.1-0.2l-0.4-0.4l0,0l-0.5,0.6l0,0l0,0l0.5,0.6l0,0l0.4-0.4L260.9,146.8
		L260.9,146.8L260.9,146.8l-0.1,0.2l-0.3,0.5l0,0l0,0l-0.5-0.6l0,0l0,0l0,0l0.5-0.6l0,0l0,0l0.3,0.4L260.9,146.8L260.9,146.8z"/>
	<path class="st4" d="M259.6,145.5c0.1,0.1,0.2,0.2,0.3,0.4l0,0l0,0l0,0l0,0l0,0l0,0l0.1-0.1l0.1-0.1l0.1-0.1c0,0,0,0.1-0.1,0.1H260
		c0,0,0,0,0,0.1l0,0l0,0l0,0l0,0l0,0l0,0C259.7,145.8,259.6,145.6,259.6,145.5z"/>
	<path class="st4" d="M257.8,146l-0.1-0.1c-0.1-0.1-0.1-0.2-0.2-0.3l0,0l0,0c-0.1,0.1-0.1,0.2-0.2,0.3c0,0,0,0.1-0.1,0.1
		c0,0,0-0.1,0.1-0.1c0-0.1,0.1-0.2,0.2-0.3l0,0l0,0l0,0c0.1,0.1,0.2,0.2,0.2,0.3C257.8,145.9,257.8,146,257.8,146z"/>
	<path class="st4" d="M260.3,148.7L260.3,148.7l-0.1-0.2l-0.3-0.4l0,0c-0.1,0.2-0.3,0.4-0.5,0.6l0,0l0,0l0.5,0.6l0,0
		c0.1-0.2,0.3-0.3,0.4-0.4V148.7L260.3,148.7L260.3,148.7l-0.1,0.2l-0.3,0.5l0,0l0,0c-0.1-0.2-0.3-0.4-0.5-0.6l0,0l0,0l0,0
		c0.2-0.2,0.3-0.4,0.5-0.6l0,0l0,0l0.3,0.4L260.3,148.7L260.3,148.7z"/>
	<path class="st4" d="M258.2,149.2L258.2,149.2L258,149l-0.4-0.4l0,0l-0.5,0.6l0,0l0,0l0.5,0.6l0,0l0.4-0.4L258.2,149.2L258.2,149.2
		L258.2,149.2l-0.1,0.2l-0.3,0.5l0,0l0,0l-0.5-0.6l0,0l0,0l0,0l0.5-0.6l0,0l0,0L258.2,149.2L258.2,149.2L258.2,149.2z"/>
	<path class="st4" d="M256.4,148.1C256.4,148.1,256.5,148.1,256.4,148.1l0.2-0.2c0.1-0.1,0.3-0.2,0.5-0.4h0.1l0,0
		c-0.1-0.2-0.2-0.4-0.2-0.5s-0.1-0.1-0.1-0.2c0,0.1,0.1,0.1,0.1,0.2c0.1,0.1,0.2,0.3,0.3,0.5l0,0l0,0h-0.1c-0.2,0.1-0.4,0.3-0.5,0.4
		C256.6,148,256.5,148.1,256.4,148.1C256.5,148.1,256.4,148.1,256.4,148.1z"/>
	<path class="st4" d="M261.8,148.6C261.7,148.6,261.7,148.6,261.8,148.6c-0.1-0.1-0.1-0.1-0.2-0.2c-0.1-0.1-0.3-0.3-0.4-0.4l0,0l0,0
		l0,0c0.1-0.2,0.1-0.4,0.2-0.6c0-0.1,0-0.1,0.1-0.2c0,0,0,0,0-0.1c0,0,0,0,0,0.1c0,0,0,0.1-0.1,0.2c0,0.1-0.1,0.3-0.2,0.6l0,0l0,0
		c0.2,0.2,0.3,0.3,0.4,0.4C261.6,148.5,261.7,148.5,261.8,148.6C261.7,148.6,261.8,148.6,261.8,148.6z"/>
	<path class="st5" d="M261,146L261,146c-0.1,0-0.1,0-0.1,0c-0.1,0-0.3,0-0.4,0c-0.2,0-0.4,0-0.6-0.1c-0.2,0-0.5-0.1-0.7-0.1
		c-0.3,0-0.5,0-0.7,0s-0.4,0-0.6,0c-0.1,0-0.3,0-0.4,0h-0.1l0,0l0,0h0.1c0.1,0,0.3,0,0.4,0c0.2,0,0.4,0,0.6,0s0.5,0,0.8-0.1
		c0.2,0,0.5,0,0.8,0.1c0.2,0,0.4,0.1,0.6,0.1c0.1,0,0.3,0,0.4,0C261,146,261,146,261,146z"/>
	<path class="st5" d="M257.4,147.8C257.4,147.8,257.4,147.7,257.4,147.8c0-0.1,0-0.2,0-0.3c0-0.2,0.1-0.4,0.1-0.6
		c0-0.2,0.1-0.5,0.2-0.6c0-0.1,0-0.1,0.1-0.2c0,0,0,0,0-0.1c0,0,0,0,0,0.1c0,0,0,0.1,0,0.2c0,0.2-0.1,0.4-0.2,0.6
		c0,0.2-0.1,0.5-0.1,0.6S257.5,147.7,257.4,147.8C257.5,147.7,257.4,147.8,257.4,147.8z"/>
	<path class="st5" d="M257.8,147.1c0-0.2,0-0.4,0.1-0.5c0-0.2,0.1-0.4,0.1-0.5c0,0.2,0,0.4-0.1,0.5
		C257.9,146.8,257.8,146.9,257.8,147.1z"/>
	<path class="st6" d="M260.7,148.7L260.7,148.7c-0.1-0.2-0.1-0.3-0.2-0.4c-0.2-0.6-0.4-1.3-0.4-1.9c0-0.1,0-0.2,0-0.3V146v0.1
		c0,0.1,0,0.2,0,0.3c0,0.3,0.1,0.7,0.1,1c0.1,0.3,0.2,0.6,0.2,1c0,0.1,0.1,0.2,0.1,0.3C260.7,148.7,260.7,148.7,260.7,148.7z"/>
	<path class="st6" d="M260.6,147c0,0,0-0.1-0.1-0.1c0-0.1-0.1-0.2-0.1-0.3s-0.1-0.3-0.1-0.3v-0.1v0.1c0,0.1,0.1,0.2,0.1,0.3
		s0.1,0.2,0.1,0.3C260.6,146.9,260.6,147,260.6,147z"/>
	<path class="st6" d="M258.8,149.9L258.8,149.9L258.8,149.9c-0.2,0-0.3,0-0.4-0.1c-0.3-0.1-0.6-0.2-0.9-0.4s-0.6-0.3-0.9-0.3
		c-0.1,0-0.2,0-0.3,0c-0.1,0-0.1,0-0.1,0l0,0c0,0,0,0,0.1,0c0.1,0,0.2,0,0.3,0c0.3,0.1,0.6,0.2,0.9,0.3c0.3,0.2,0.7,0.3,0.9,0.4
		C258.6,149.8,258.7,149.8,258.8,149.9L258.8,149.9z"/>
	<path class="st6" d="M261.8,148.9L261.8,148.9c-0.1,0.1-0.2,0.1-0.3,0.2c-0.3,0.2-0.6,0.3-0.8,0.4c-0.3,0.1-0.6,0.2-0.9,0.3
		c-0.1,0-0.2,0.1-0.3,0.1h-0.1h0.1c0.1,0,0.2,0,0.3-0.1c0.2-0.1,0.5-0.2,0.9-0.3c0.4-0.1,0.6-0.3,0.8-0.4L261.8,148.9
		C261.8,148.9,261.8,148.9,261.8,148.9z"/>
	<path class="st5" d="M260.7,145.7c0,0.1,0,0.1-0.1,0.2c0,0.1-0.1,0.1-0.2,0.1l0.1-0.1C260.6,145.8,260.7,145.7,260.7,145.7z"/>
	<path class="st5" d="M258,145.5c0,0,0,0.1,0.1,0.2c0.1,0.1,0.1,0.2,0.1,0.2c-0.1,0-0.1-0.1-0.1-0.2C258,145.7,258,145.6,258,145.5z
		"/>
	<path class="st5" d="M257.8,161.8h3.1c0.2,0,0.3,0.1,0.3,0.3v1.9c0,0.2-0.1,0.3-0.3,0.3h-3.1c-0.2,0-0.3-0.1-0.3-0.3v-1.9
		C257.6,161.9,257.7,161.8,257.8,161.8z"/>
	<path class="st5" d="M260.2,162.3C260.2,162.2,260.2,162.2,260.2,162.3v-0.2c0-0.2,0-0.3,0-0.5s-0.1-0.5-0.3-0.7
		c-0.1-0.1-0.2-0.2-0.4-0.2s-0.3,0-0.5,0c-0.3,0-0.6,0.1-0.8,0.2c-0.1,0.1-0.2,0.2-0.2,0.3s-0.1,0.2-0.1,0.3c0,0.2,0,0.3,0,0.5
		c0,0.1,0,0.1,0,0.1l0,0l0,0V162c0-0.2,0-0.3,0-0.5c0-0.1,0-0.2,0.1-0.3c0-0.1,0.1-0.2,0.2-0.3c0.1-0.1,0.2-0.2,0.4-0.2
		c0.2,0,0.3-0.1,0.5-0.1c0.2,0,0.3,0,0.5,0c0.1,0,0.3,0.1,0.4,0.2c0.2,0.2,0.3,0.4,0.3,0.7c0,0.2,0,0.3,0,0.5
		C260.2,162.1,260.2,162.2,260.2,162.3C260.2,162.2,260.2,162.2,260.2,162.3z"/>
	<path class="st6" d="M257.4,161.8h3.1c0.2,0,0.3,0.1,0.3,0.3v1.9c0,0.2-0.1,0.3-0.3,0.3h-3.1c-0.2,0-0.3-0.1-0.3-0.3v-1.9
		C257.1,161.9,257.2,161.8,257.4,161.8z"/>
	<path class="st5" d="M260.5,164.2h0.1c0,0,0.1,0,0.1-0.1c0,0,0.1-0.1,0.1-0.2c0-0.3,0-0.7,0-1.3c0-0.1,0-0.3,0-0.4
		c0-0.1,0-0.1,0-0.2s0-0.1-0.1-0.2c-0.1-0.1-0.1-0.1-0.2-0.1h-0.2h-0.5h-2.3c-0.1,0-0.2,0-0.2,0.1v0.1v0.7c0,0.4,0,0.7,0,1.1v0.1
		c0,0,0,0.1,0.1,0.1c0.1,0.1,0.1,0.1,0.2,0.1h1.3h1.1h0.3L260.5,164.2L260.5,164.2L260.5,164.2h-0.1H260h-1.3h-0.9h-0.5
		c-0.1,0-0.3-0.1-0.3-0.2v-0.1c0-0.4,0-0.7,0-1.1c0-0.2,0-0.4,0-0.6c0,0,0-0.1,0-0.2s0-0.1,0-0.2c0.1-0.1,0.2-0.2,0.3-0.2h3
		c0.1,0,0.2,0,0.2,0.1c0.1,0,0.1,0.1,0.1,0.2c0,0.1,0,0.2,0,0.2v0.4c0,0.5,0,1,0,1.3c0,0.1,0,0.1-0.1,0.2l-0.1,0.1
		C260.6,164.2,260.5,164.2,260.5,164.2z"/>
	<path class="st5" d="M260.7,163c0,0-0.8,0-1.8,0s-1.8,0-1.8,0s0.8,0,1.8,0S260.7,163,260.7,163z"/>
	<path class="st2" d="M258.9,163.3c0-0.2,0-0.4,0-0.6C259,162.9,259,163.2,258.9,163.3z"/>
	<path class="st7" d="M256.2,155.8c0,0,0.9-2.5,1.1-2.7s1.2-0.4,1.2-0.4l0.7,2.3l0.8-2.4c0,0,0.9,0.3,1.1,0.7
		c0.2,0.4,0.9,2.5,0.9,2.5l-1.4,0.5l0.2,0.8h-3.5l0.2-0.7L256.2,155.8z"/>
	<g class="st9">
		<path d="M258.1,154.2c-0.2-0.4-0.4-0.9-0.4-1.3l-0.3,0.1c0,0.5,0.2,0.9,0.4,1.3c0,0.1,0.1,0.1,0.1,0.2s0.1,0,0.2,0
			C258.2,154.4,258.1,154.3,258.1,154.2z"/>
	</g>
	<g class="st9">
		<path d="M258.5,155.6l-0.1-0.1l0,0c-0.1,0-0.2,0.1-0.2,0.2c0,0.1,0.1,0.2,0.2,0.2c0,0,0,0,0.1,0c0,0,0.1,0,0.1-0.1v-0.1
			C258.6,155.7,258.6,155.7,258.5,155.6z"/>
	</g>
	<g class="st9">
		<path d="M260.7,156.5c-0.1,0.2-0.3,0.3-0.5,0.4c-0.2,0.1-0.4,0.1-0.6,0c-0.1,0-0.2-0.1-0.2-0.1c-0.1,0-0.1,0.1-0.2,0
			c0,0-0.1,0-0.1-0.1s0-0.2,0.1-0.2c0.1,0,0.2,0,0.2,0c0.1,0,0.2,0,0.2,0c0.3,0,0.7-0.2,0.9-0.5l0.2-0.2l-0.1,0.5L260.7,156.5z"/>
	</g>
	<path class="st5" d="M260.9,155.1c0,0.2-0.1,0.4-0.1,0.6s-0.1,0.4-0.1,0.6c0-0.2,0.1-0.4,0.1-0.6S260.9,155.3,260.9,155.1z"/>
	<path class="st3" d="M260.9,153C260.9,153.1,260.9,153.1,260.9,153c0,0.1,0,0.2-0.1,0.2c-0.1,0.2-0.2,0.3-0.4,0.4
		c-0.2,0.1-0.4,0.1-0.5,0.1s-0.1,0-0.2,0c0,0,0,0-0.1,0c0,0,0.1,0,0.2,0c0.2,0,0.4,0,0.5-0.1c0.2-0.1,0.3-0.2,0.4-0.4
		C260.9,153.1,260.9,153,260.9,153z"/>
	<path class="st3" d="M261.1,153.3L261.1,153.3c-0.1,0.1-0.1,0.2-0.1,0.2c-0.3,0.4-0.7,0.5-1.2,0.5c-0.1,0-0.1,0-0.2,0
		c0,0,0,0-0.1,0c0,0,0.1,0,0.3,0.1c0.4,0.1,0.9-0.1,1.2-0.4C261.1,153.4,261.1,153.4,261.1,153.3z"/>
	<path class="st3" d="M259.1,154.7C259,154.7,259,154.8,259.1,154.7c-0.1,0-0.2,0.1-0.3,0.1c-0.2,0.1-0.4,0.2-0.6,0.3
		s-0.4,0.3-0.5,0.5c-0.1,0.1-0.1,0.1-0.1,0.2c0,0,0,0-0.1,0.1c0,0,0,0,0-0.1c0,0,0.1-0.1,0.1-0.2c0.2-0.2,0.3-0.3,0.5-0.5
		c0.2-0.1,0.4-0.2,0.6-0.3C258.9,154.8,258.9,154.8,259.1,154.7C259,154.7,259,154.7,259.1,154.7z"/>
	<path class="st3" d="M259,154.5L259,154.5c-0.1,0-0.2,0.1-0.3,0.1c-0.2,0.1-0.4,0.2-0.6,0.3c-0.2,0.1-0.4,0.2-0.6,0.3
		c-0.1,0-0.1,0.1-0.2,0.1c0,0,0,0-0.1,0c0,0,0,0,0.1,0c0,0,0.1-0.1,0.2-0.1c0.2-0.1,0.4-0.2,0.6-0.3s0.4-0.2,0.7-0.2
		C258.8,154.5,258.9,154.5,259,154.5L259,154.5z"/>
	<path class="st3" d="M261.6,155.9c-0.1-0.1-0.2-0.2-0.3-0.2c-0.1-0.1-0.2-0.1-0.4-0.2h0.1c0.1,0,0.2,0.1,0.3,0.1
		C261.4,155.6,261.4,155.8,261.6,155.9C261.5,155.9,261.5,155.9,261.6,155.9z"/>
	<path class="st3" d="M256.7,155.9c-0.1-0.1-0.1-0.2-0.2-0.4c0-0.1-0.1-0.3-0.1-0.4c0,0,0.1,0.2,0.1,0.4
		C256.6,155.7,256.7,155.9,256.7,155.9z"/>
	<path class="st3" d="M258.2,157.1c-0.1,0-0.2-0.1-0.4-0.2c-0.1-0.1-0.2-0.1-0.3-0.2c0,0,0.2,0.1,0.4,0.2
		C258,157,258.2,157.1,258.2,157.1z"/>
	<path class="st5" d="M259.1,155.5v-0.1c0-0.1-0.1-0.2-0.1-0.3c-0.1-0.2-0.2-0.6-0.3-1c-0.1-0.4-0.2-0.7-0.3-1
		c0-0.1-0.1-0.2-0.1-0.3v-0.1v0.1c0,0.1,0.1,0.2,0.1,0.3c0.1,0.2,0.2,0.6,0.3,1c0.1,0.4,0.2,0.7,0.3,1c0,0.1,0.1,0.2,0.1,0.3
		C259.1,155.4,259.1,155.4,259.1,155.5z"/>
	<path class="st5" d="M259.4,155.5c0,0-0.1,0-0.2,0c0,0-0.1,0-0.2,0C259.2,155.5,259.3,155.5,259.4,155.5L259.4,155.5z"/>
	<path class="st5" d="M260.2,152.7c0,0-0.2,0.6-0.4,1.4c-0.2,0.8-0.4,1.4-0.5,1.4c-0.1,0,0.2-0.6,0.4-1.4
		C260,153.3,260.2,152.7,260.2,152.7z"/>
	<path class="st5" d="M257.5,156.4c0,0-0.1-0.3-0.2-0.7c-0.1-0.2-0.1-0.5-0.1-0.7c0,0,0.1,0.3,0.2,0.7
		C257.5,156.1,257.6,156.4,257.5,156.4z"/>
	<path d="M261.6,134.6l-0.2,0.7h-0.2l-0.2-0.5l-0.2,0.5h-0.2l-0.2-0.7h0.2l0.2,0.5l0.2-0.5h0.2l0.2,0.5L261.6,134.6L261.6,134.6z"/>
	<path d="M261.7,134.6h0.2v0.7h-0.2V134.6z"/>
	<path d="M261.9,135.2l0.1-0.1c0.1,0,0.2,0.1,0.2,0.1c0.1,0,0.1,0,0.1-0.1s-0.4,0-0.4-0.3c0-0.1,0.1-0.2,0.3-0.2
		c0.1,0,0.2,0,0.2,0.1v0.1c-0.1,0-0.1-0.1-0.2-0.1c-0.1,0-0.1,0-0.1,0.1s0.4,0,0.4,0.3c0,0.1-0.1,0.2-0.3,0.2
		C262.1,135.3,262,135.3,261.9,135.2z"/>
	<path d="M263.3,134.6v0.7h-0.2V135h-0.3v0.3h-0.2v-0.7h0.2v0.3h0.3v-0.3H263.3z"/>
	<path d="M263.6,134.6L263.6,134.6v0.7h0.4v0.1h-0.5L263.6,134.6z"/>
	<path d="M264.2,134.6L264.2,134.6l-0.1,0.7H264L264.2,134.6z"/>
	<path d="M264.3,135.2L264.3,135.2c0.1,0,0.2,0,0.3,0s0.2,0,0.2-0.1c0-0.2-0.4-0.1-0.4-0.3c0-0.1,0.1-0.2,0.3-0.2
		c0.1,0,0.2,0,0.2,0.1v0.1c-0.1,0-0.1-0.1-0.2-0.1c-0.1,0-0.2,0.1-0.2,0.1c0,0.2,0.4,0.1,0.4,0.3c0,0.1-0.1,0.2-0.3,0.2
		C264.5,135.3,264.4,135.3,264.3,135.2z"/>
	<path d="M265.3,134.6H265v-0.1h0.6v0.1H265.3v0.7h-0.1L265.3,134.6z"/>
	<path class="st5" d="M270,134.4c0,0-0.3,0-0.8,0c-0.4,0-0.8,0-0.8,0s0.3,0,0.8,0S270,134.4,270,134.4z"/>
	<path class="st5" d="M270,134.8c0,0-0.3,0-0.8,0s-0.8,0-0.8,0s0.3,0,0.8,0S270,134.8,270,134.8z"/>
	<path class="st5" d="M270,135.2c0,0-0.3,0-0.8,0c-0.3,0-0.5,0-0.8,0c0,0,0.3,0,0.8,0C269.5,135.2,269.8,135.2,270,135.2z"/>
</g>
<g id="freepik--Character--inject-25">
	<polygon class="st7" points="258.4,168.7 257.9,172.7 255.8,172.5 256.3,168.5 	"/>
	<path class="st5" d="M256.9,172.4c0,0,0.1-0.9,0.2-1.9c0.2-1.1,0.3-1.9,0.3-1.9s-0.1,0.9-0.2,1.9
		C257.1,171.5,256.9,172.4,256.9,172.4z"/>
	<polygon class="st5" points="257.9,172.4 255.8,172.2 255.8,172.5 257.9,172.7 	"/>
	<path class="st5" d="M255.9,171.2C255.9,171.2,256,171.1,255.9,171.2c0.1-0.2,0.2-0.2,0.3-0.3c0.1-0.1,0.2-0.1,0.4-0.2
		c0.5-0.2,1,0,1.3,0.4c0,0.1,0.1,0.2,0.1,0.2v0.1c0-0.1-0.1-0.2-0.2-0.3c-0.2-0.2-0.4-0.4-0.7-0.4s-0.6,0-0.9,0.2
		C256,171.1,255.9,171.2,255.9,171.2z"/>
	<g class="st9">
		<polygon points="258.2,170.3 258.2,170.7 256,170.5 256.1,170.1 		"/>
	</g>
	<polygon class="st7" points="265.3,169 265,173 262.9,172.9 263.1,168.9 	"/>
	<path class="st5" d="M264,172.8c0,0,0-0.9,0.1-2s0.2-2,0.2-2s0,0.9-0.1,2C264.1,171.9,264,172.8,264,172.8z"/>
	<polygon class="st5" points="265,172.7 262.9,172.6 262.9,172.9 265,173 	"/>
	<path class="st5" d="M262.9,171.6C262.9,171.6,263,171.6,262.9,171.6c0.1-0.2,0.2-0.2,0.3-0.3c0.1-0.1,0.2-0.2,0.4-0.2
		c0.2-0.1,0.3-0.1,0.5-0.1c0.3,0,0.6,0.2,0.8,0.4c0.1,0.1,0.1,0.2,0.1,0.2v0.1c-0.1-0.1-0.1-0.2-0.2-0.3c-0.2-0.2-0.5-0.4-0.8-0.4
		s-0.6,0.1-0.8,0.3C263,171.5,262.9,171.6,262.9,171.6z"/>
	<g class="st9">
		<polygon points="265.2,170.6 265.1,171 263,170.9 263,170.6 		"/>
	</g>
	<path class="st5" d="M257.2,150.3c-0.1,0-0.3,2.6-0.2,3.5s0.1,7.6,0.1,7.6s-0.4,0.3-0.4,0.7s-0.8,7.9-0.8,7.9l2.4,0.4
		c0,0,2.2-8.1,2.3-9.3c0.1-1.1,1.6-8.9,1.6-8.9s0.5,7.3,0.5,8.4s0,9.8,0,9.8s1.8,0.3,2.7,0c0,0,0.7-6.5,0.7-8.7v-3.5
		c0,0,0.9-4,1.3-6.1c0.4-2.1,0-4,0-4l-7.3-1L257.2,150.3z"/>
	<path class="st6" d="M259.1,162.1c-0.3-0.1-0.6-0.1-0.9-0.1s-0.6,0.1-0.9,0.3c0.1-0.1,0.2-0.1,0.2-0.1c0.4-0.2,0.9-0.2,1.3-0.1
		C258.9,162,259,162,259.1,162.1z"/>
	<path class="st6" d="M259.3,161.4c-0.2,0-0.5,0-0.7,0s-0.5,0-0.7-0.1c0.2,0,0.5,0,0.7,0C258.8,161.4,259,161.4,259.3,161.4z"/>
	<path class="st6" d="M264.3,162.9C264.3,162.9,264.2,162.9,264.3,162.9c-0.1-0.1-0.2-0.2-0.2-0.2c-0.4-0.4-0.6-1-0.6-1.6
		c0-0.1,0-0.2,0-0.2v-0.1c0,0,0,0.1,0,0.3c0.1,0.6,0.3,1.1,0.6,1.5C264.2,162.9,264.3,162.9,264.3,162.9z"/>
	<path class="st6" d="M262.3,152.1L262.3,152.1l-0.2,0.2l-0.1,0.1c-0.3,0.2-0.6,0.3-0.9,0.4c-0.3,0.1-0.7,0.1-1,0.1H260h-0.1h-0.1
		c0,0-0.1,0-0.1-0.1c0.1,0,0.3,0.1,0.4,0.1c0.3,0,0.7,0,1-0.1s0.6-0.2,0.9-0.4l0.1-0.1L262.3,152.1
		C262.2,152.1,262.3,152.1,262.3,152.1z"/>
	<path class="st10" d="M271.2,131.6c0-0.4,0.1-0.7,0.2-1c0.2-0.5,1-1.3,1-1.3s1-0.8,1.1-0.8s0.1,0.2,0,0.3c-0.1,0.1-0.7,0.8-0.7,0.8
		s0.2,0.1,0.2,0.2s0,0.2,0,0.2s0.2,0.1,0.3,0.2c0,0.1,0,0.2,0,0.2c0.1,0,0.1,0.1,0.1,0.2c0,0.1,0,0.2,0,0.3c0,0-0.4,0.4-0.5,0.5
		c-0.2,0.1-0.4,0.1-0.4,0.1l-0.1,0.2v0.5L271.2,131.6z"/>
	<path class="st6" d="M255.6,135.5c0,0-3.7,6.6-3.7,7.6c0,1.8,5.1,3.3,5.1,3.3l0.7-2.1l-2.6-1.8l1.9-4.2L255.6,135.5z"/>
	<path class="st6" d="M255.6,135.5c0.5-0.4,1.1-0.6,1.7-0.7c1-0.1,2.8-0.2,2.8-0.2s4.9-1.1,5.2-0.9c0.4,0.2,0.9,1.5,0.9,2.1
		c0.1,0.6-0.4,6.5-0.4,6.5s2.2,6.8,2,7c-0.1,0.1-2.7,1-5.4,1.2l-0.1-2l-0.3,2c-2.5,0.2-5.3,0.3-5.3,0.3s1.9-6.7,1.9-6.9
		C258.5,143.7,255.3,136.2,255.6,135.5z"/>
	<path class="st6" d="M265.3,133.8c0,0,1.8,1,2,1c0.2,0,0.4-0.4,0.7-0.1l1.6-0.3l1.6-2.9c0.6,0.2,1.1,0.5,1.6,1c0,0-0.9,3-1.4,3.5
		s-2.6,2-5.5,2l-0.4-2.4L265.3,133.8z"/>
	<path class="st5" d="M267.1,137.3c0,0,0.1-0.1,0.2-0.4c0.1-0.1,0.1-0.3,0.1-0.4c0-0.2,0.1-0.3,0.1-0.5s0-0.3,0-0.5
		c0-0.1,0-0.3-0.1-0.4c-0.1-0.2-0.1-0.4-0.1-0.4s0,0.1,0.1,0.1c0,0.1,0.1,0.2,0.1,0.3s0.1,0.3,0.1,0.4c0,0.2,0,0.4,0,0.5
		c0,0.2,0,0.4-0.1,0.5c0,0.1-0.1,0.3-0.2,0.4C267.3,137.1,267.2,137.2,267.1,137.3L267.1,137.3z"/>
	<path class="st5" d="M270.2,135.1c-0.3-0.1-0.5-0.3-0.7-0.6c0.1,0.1,0.2,0.2,0.3,0.3C270,134.8,270.1,134.9,270.2,135.1z"/>
	<path class="st10" d="M257,146.3c0,0,0.1,0.3,0.5,0c0,0,0.6-0.1,0.9-0.4c0.3-0.3,0.4-0.5,0.6-0.5s0.8-0.1,0.8-0.1s0.2-0.3,0-0.4
		c-0.2-0.1-1.1,0-1.1,0h-0.2v-0.3v-0.3c0,0-0.5,0.2-0.5,0.3c0,0-0.4-0.1-0.4,0.1L257,146.3z"/>
	<path class="st5" d="M257.3,140.7c0,0,0-0.1-0.1-0.1c0-0.1-0.1-0.2-0.2-0.4c-0.1-0.3-0.3-0.7-0.5-1.2s-0.3-0.9-0.4-1.2
		c0-0.2-0.1-0.3-0.1-0.4v-0.1v0.1l0.1,0.4c0.1,0.3,0.2,0.7,0.4,1.2s0.3,0.9,0.4,1.2l0.1,0.4C257.3,140.6,257.3,140.7,257.3,140.7z"
		/>
	<path class="st5" d="M263.3,144.1c0,0,0,0.1-0.1,0.2c-0.1,0.1-0.2,0.2-0.3,0.4c-0.3,0.4-0.7,0.8-1.1,1.1c-0.4,0.3-0.8,0.6-1.3,0.8
		c-0.2,0.1-0.3,0.2-0.4,0.2c0,0-0.1,0-0.2,0.1c0,0,0.1-0.1,0.2-0.1c0.1,0,0.2-0.1,0.4-0.2c0.9-0.5,1.7-1.1,2.4-2
		c0.1-0.2,0.2-0.3,0.3-0.4C263.3,144.2,263.3,144.2,263.3,144.1z"/>
	<path class="st5" d="M255.2,142.5c0,0-0.3,0.1-0.6,0.2c-0.3,0.1-0.6,0.3-0.6,0.2c0.2-0.1,0.4-0.2,0.6-0.3
		C254.8,142.5,255,142.5,255.2,142.5z"/>
	<g class="st9">
		<path d="M256.6,139.1c-0.4-0.2-0.8-0.7-0.8-1.1c-0.1-0.4,0.1-0.9,0.1-1.3C256.1,137.5,256.4,138.3,256.6,139.1"/>
	</g>
	<g class="st9">
		<path d="M260.4,147.3c1.3,0.4,2.7-0.3,3.1-1.5c0-0.1,0.1-0.2,0.1-0.3C262.6,146.1,261.5,146.8,260.4,147.3z"/>
	</g>
	<path class="st5" d="M266.1,135.2v0.1c0,0.1,0,0.2,0.1,0.4c0.1,0.8,0.1,1.6-0.1,2.3c0,0.1,0,0.3-0.1,0.3v0.1c0,0,0-0.2,0.1-0.5
		c0.1-0.8,0.1-1.6,0-2.3C266.1,135.4,266.1,135.2,266.1,135.2z"/>
	<g class="st9">
		<path d="M264.1,133.1l-5.7,8.8c1.4,0.7,3.1,1,4.4,0.2c0.4,0.5,1.1,0.3,1.5-0.2c0.4-0.5,0.4-1.1,0.4-1.7
			C264.8,137.9,264.4,135.5,264.1,133.1z"/>
	</g>
	<path class="st5" d="M261.8,126.9c-0.6-0.1-1.2,0.2-1.7,0.6s-0.8,1-1,1.6c-0.5,1.1-0.7,2.3-1,3.5c-0.4,1.7-0.8,3.5-0.9,5.3
		c-0.1,1.8,0.4,2.8,1.2,4.5l2.7-0.4v-0.5l0.4,0.5l1.1-0.2l0.3-2.8l0.5,2.6l0.9-0.1c0.9-3.5-0.1-5.8,0.4-9.3c0.1-0.8,0.3-1.7,0.3-2.5
		s-0.4-1.8-1-2.4C263.4,126.6,262.4,126.4,261.8,126.9"/>
	<path class="st6" d="M262.5,141.7C262.5,141.6,262.4,141.6,262.5,141.7c0-0.1,0-0.1,0-0.2l-0.1-0.5c-0.1-0.4-0.2-1-0.2-1.7
		c-0.1-0.8-0.2-1.7-0.1-2.5c0-0.5,0-1,0.1-1.5c0.1-0.5,0.2-1,0.3-1.6c0.3-1,0.7-2,0.9-2.9c0.1-0.4,0.2-0.9,0.2-1.3s-0.1-0.8-0.2-1.1
		c-0.1-0.3-0.2-0.6-0.4-0.8c-0.1-0.2-0.3-0.4-0.5-0.5c-0.3-0.1-0.4-0.2-0.5-0.3h-0.1l0,0l0,0h0.1c0.1,0.1,0.3,0.1,0.4,0.2
		c0.2,0.1,0.4,0.3,0.5,0.5c0.2,0.3,0.3,0.5,0.4,0.9c0.1,0.4,0.2,0.8,0.2,1.2c0,0.5-0.1,0.9-0.2,1.3c-0.2,0.9-0.6,1.9-0.9,2.9
		c-0.1,0.5-0.2,1-0.3,1.6c-0.1,0.5-0.1,1-0.1,1.5c0,0.8,0,1.7,0.1,2.5c0.1,0.7,0.2,1.3,0.2,1.7c0,0.2,0,0.3,0.1,0.5
		C262.4,141.6,262.4,141.6,262.5,141.7C262.5,141.6,262.5,141.6,262.5,141.7z"/>
	<path class="st6" d="M258.7,139.9C258.7,139.9,258.7,139.8,258.7,139.9C258.7,139.8,258.7,139.8,258.7,139.9v-0.5
		c0-0.1,0-0.2,0-0.3s0-0.2,0-0.3c0-0.2,0-0.5,0-0.8c0-0.1,0-0.3,0-0.5s0-0.3,0-0.5c0-0.3,0-0.7,0-1.1c0.1-0.8,0.2-1.7,0.3-2.5
		c0.2-0.8,0.4-1.6,0.6-2.4c0.1-0.4,0.2-0.7,0.4-1c-0.1-0.2,0-0.4,0-0.5l0.2-0.4c0.1-0.3,0.2-0.5,0.3-0.7c0-0.1,0.1-0.2,0.1-0.3
		l0.1-0.2c0.1-0.1,0.1-0.2,0.2-0.3v-0.1l0,0l0,0c0,0,0,0,0,0.1s-0.1,0.2-0.2,0.3c0,0.1-0.1,0.2-0.1,0.2c0,0.1-0.1,0.2-0.1,0.3
		c-0.1,0.2-0.2,0.5-0.3,0.7c-0.1,0.1-0.1,0.3-0.2,0.4c0,0.2,0,0.3-0.1,0.5c-0.1,0.3-0.2,0.7-0.4,1c-0.2,0.8-0.4,1.6-0.6,2.4
		c-0.2,0.8-0.3,1.7-0.3,2.5c0,0.4,0,0.8-0.1,1.1c0,0.2,0,0.3,0,0.5s0,0.3,0,0.5c0,0.3,0,0.6,0,0.8c0,0.1,0,0.2,0,0.3s0,0.2,0,0.3
		c0,0.2,0,0.3,0,0.4C258.6,139.8,258.6,139.8,258.7,139.9C258.6,139.8,258.6,139.9,258.7,139.9z"/>
	<path class="st6" d="M260.1,142C260.1,142,260.1,141.9,260.1,142c0-0.1,0-0.1,0-0.1c0-0.1-0.1-0.2-0.1-0.4c0-0.1,0-0.2-0.1-0.3
		c0-0.1,0-0.2-0.1-0.3c0-0.2-0.1-0.5-0.2-0.8c0-0.2-0.1-0.3-0.1-0.5s0-0.3-0.1-0.5c-0.1-0.2-0.1-0.4-0.1-0.6s0-0.4,0-0.6
		c-0.1-0.9,0-1.8,0-2.6c0.1-0.9,0.2-1.8,0.4-2.6c0-0.2,0.1-0.4,0.1-0.6c0-0.2,0.1-0.4,0.1-0.5c0.1-0.3,0.2-0.7,0.3-1
		s0.2-0.5,0.3-0.8c0.1-0.2,0.2-0.4,0.2-0.6l0.3-0.4v-0.1l0,0l0,0v0.1c0,0.1-0.1,0.2-0.1,0.4c0,0.2-0.1,0.4-0.2,0.6s-0.2,0.5-0.3,0.8
		c-0.1,0.3-0.2,0.6-0.3,1c0,0.2-0.1,0.4-0.1,0.5l-0.1,0.6c-0.2,0.9-0.3,1.7-0.4,2.6c-0.1,0.9-0.1,1.8,0,2.6c0,0.2,0,0.4,0,0.6
		s0,0.4,0.1,0.5s0,0.3,0.1,0.5c0,0.2,0.1,0.3,0.1,0.5c0,0.3,0.1,0.6,0.2,0.8c0,0.1,0,0.2,0.1,0.3c0,0.1,0,0.2,0.1,0.3l0.1,0.4
		C260.1,141.8,260.1,141.9,260.1,142C260.1,141.9,260.1,141.9,260.1,142z"/>
	<path class="st6" d="M263.9,140.3L263.9,140.3c0-0.1,0-0.1-0.1-0.1V140c0-0.1-0.1-0.1-0.1-0.2c-0.2-0.5-0.4-1-0.4-1.5
		c-0.2-1.2-0.2-2.5,0.1-3.8c0.1-0.5,0.3-1,0.4-1.5c0.2-0.5,0.3-1,0.4-1.5s0.2-0.9,0.2-1.4c0-0.4,0-0.8-0.1-1.3
		c-0.1-0.4-0.2-0.7-0.4-1c-0.3-0.5-0.7-0.8-1.2-1c-0.1-0.1-0.3-0.1-0.4-0.1h-0.1l0,0l0,0h0.1c0.1,0,0.3,0.1,0.4,0.1
		c0.5,0.2,0.9,0.6,1.2,1c0.2,0.3,0.4,0.7,0.4,1c0.1,0.4,0.2,0.8,0.1,1.3c0,0.5-0.1,0.9-0.2,1.4s-0.2,1-0.4,1.5s-0.3,1-0.4,1.5
		s-0.2,0.9-0.2,1.4c-0.1,1.3,0.1,2.7,0.6,3.9c0,0.1,0.1,0.2,0.1,0.2l0.1,0.2L263.9,140.3C263.9,140.2,263.9,140.3,263.9,140.3z"/>
</g>
<g id="freepik--Floor--inject-25">
	<path class="st5" d="M289.8,149.6c0,0-11.1,0-24.8,0c-13.7,0-24.8,0-24.8,0s11.1,0,24.8,0C278.7,149.6,289.8,149.6,289.8,149.6z"/>
</g>
<rect x="-3.9" y="-5.2" class="st11" width="537.9" height="309.5"/>
<g class="st12">
	<path d="M155,136.9v-28H166c2.1,0,3.9,0.4,5.4,1.2c1.5,0.8,2.6,1.9,3.4,3.4c0.8,1.4,1.2,3.1,1.2,4.9c0,1.9-0.4,3.5-1.2,4.9
		s-2,2.5-3.5,3.3s-3.4,1.2-5.5,1.2h-7.1v-4.8h6.1c1.1,0,2.1-0.2,2.8-0.6c0.7-0.4,1.3-0.9,1.7-1.7s0.6-1.5,0.6-2.4
		c0-0.9-0.2-1.7-0.6-2.4c-0.4-0.7-0.9-1.2-1.7-1.6c-0.7-0.4-1.7-0.6-2.8-0.6h-4v23.2H155z"/>
	<path d="M185.7,108.9v28h-5.8v-28H185.7z"/>
	<path d="M196.3,137.3c-1.3,0-2.5-0.2-3.6-0.7c-1-0.5-1.9-1.2-2.5-2.1c-0.6-0.9-0.9-2.1-0.9-3.5c0-1.2,0.2-2.1,0.6-2.9
		c0.4-0.8,1-1.4,1.8-1.9s1.6-0.8,2.5-1.1c0.9-0.2,1.9-0.4,3-0.5c1.2-0.1,2.2-0.2,3-0.4c0.7-0.1,1.3-0.3,1.6-0.5
		c0.3-0.2,0.5-0.6,0.5-1v-0.1c0-0.9-0.3-1.5-0.8-2s-1.3-0.7-2.3-0.7c-1,0-1.9,0.2-2.5,0.7s-1,1-1.2,1.7l-5.4-0.4
		c0.3-1.3,0.8-2.4,1.6-3.3c0.8-0.9,1.8-1.7,3.1-2.2c1.3-0.5,2.7-0.8,4.4-0.8c1.2,0,2.3,0.1,3.4,0.4c1.1,0.3,2,0.7,2.9,1.3
		c0.8,0.6,1.5,1.3,2,2.2c0.5,0.9,0.7,2,0.7,3.2v14.2h-5.5V134h-0.2c-0.3,0.7-0.8,1.2-1.4,1.7c-0.6,0.5-1.2,0.9-2,1.2
		S197.4,137.3,196.3,137.3z M198,133.3c0.9,0,1.6-0.2,2.3-0.5c0.7-0.3,1.2-0.8,1.5-1.4c0.4-0.6,0.6-1.2,0.6-2v-2.2
		c-0.2,0.1-0.4,0.2-0.7,0.3c-0.3,0.1-0.7,0.2-1.1,0.3c-0.4,0.1-0.8,0.1-1.2,0.2c-0.4,0.1-0.7,0.1-1.1,0.2c-0.7,0.1-1.3,0.3-1.8,0.5
		s-0.9,0.5-1.2,0.9c-0.3,0.4-0.4,0.8-0.4,1.4c0,0.8,0.3,1.4,0.9,1.8C196.4,133.1,197.1,133.3,198,133.3z"/>
	<path d="M222.2,137.3c-2.2,0-4-0.5-5.6-1.4s-2.7-2.2-3.6-3.8c-0.8-1.6-1.2-3.5-1.2-5.6c0-2.2,0.4-4,1.3-5.7s2-2.9,3.6-3.8
		c1.5-0.9,3.4-1.4,5.5-1.4c1.8,0,3.4,0.3,4.8,1c1.4,0.7,2.5,1.6,3.3,2.8c0.8,1.2,1.2,2.6,1.3,4.2h-5.5c-0.2-1-0.6-1.9-1.2-2.5
		c-0.7-0.6-1.5-1-2.6-1c-0.9,0-1.7,0.2-2.4,0.7s-1.2,1.2-1.6,2.1c-0.4,0.9-0.6,2.1-0.6,3.4c0,1.3,0.2,2.5,0.6,3.4
		c0.4,0.9,0.9,1.7,1.6,2.1c0.7,0.5,1.5,0.7,2.4,0.7c0.7,0,1.3-0.1,1.8-0.4c0.5-0.3,1-0.7,1.3-1.2c0.4-0.5,0.6-1.2,0.7-1.9h5.5
		c-0.1,1.6-0.5,3-1.3,4.2c-0.8,1.2-1.9,2.2-3.2,2.9C225.7,137,224.1,137.3,222.2,137.3z"/>
	<path d="M244.9,137.3c-2.2,0-4-0.4-5.6-1.3c-1.6-0.9-2.8-2.1-3.6-3.8s-1.3-3.5-1.3-5.8c0-2.2,0.4-4.1,1.3-5.7s2-2.9,3.6-3.8
		c1.5-0.9,3.3-1.4,5.4-1.4c1.4,0,2.7,0.2,3.9,0.7c1.2,0.4,2.2,1.1,3.1,2c0.9,0.9,1.6,2,2.1,3.3s0.8,2.9,0.8,4.7v1.6h-17.8v-3.6h12.3
		c0-0.8-0.2-1.6-0.5-2.2c-0.4-0.6-0.9-1.2-1.5-1.5c-0.6-0.4-1.4-0.6-2.2-0.6c-0.9,0-1.7,0.2-2.3,0.6c-0.7,0.4-1.2,0.9-1.6,1.6
		s-0.6,1.4-0.6,2.3v3.4c0,1,0.2,1.9,0.6,2.7c0.4,0.8,0.9,1.3,1.6,1.8c0.7,0.4,1.6,0.6,2.5,0.6c0.6,0,1.2-0.1,1.8-0.3
		c0.5-0.2,1-0.5,1.4-0.8c0.4-0.4,0.7-0.8,0.9-1.3l5.4,0.4c-0.3,1.3-0.8,2.4-1.7,3.4c-0.8,1-1.9,1.7-3.3,2.2
		C248.2,137.1,246.6,137.3,244.9,137.3z"/>
	<path d="M264.2,124.8v12.2h-5.8v-28h5.7v10.7h0.2c0.5-1.2,1.2-2.2,2.3-2.9c1.1-0.7,2.4-1.1,4-1.1c1.5,0,2.7,0.3,3.8,1
		c1.1,0.6,1.9,1.5,2.5,2.7c0.6,1.2,0.9,2.6,0.9,4.2v13.4H272v-12.3c0-1.3-0.3-2.3-1-3c-0.7-0.7-1.6-1.1-2.8-1.1
		c-0.8,0-1.5,0.2-2.1,0.5c-0.6,0.3-1.1,0.8-1.4,1.5C264.4,123.1,264.2,123.9,264.2,124.8z"/>
	<path d="M291.9,137.3c-2.1,0-4-0.5-5.5-1.4c-1.5-0.9-2.7-2.2-3.6-3.8s-1.3-3.5-1.3-5.7c0-2.2,0.4-4.1,1.3-5.7s2-2.9,3.6-3.8
		c1.5-0.9,3.4-1.4,5.5-1.4c2.1,0,4,0.5,5.5,1.4s2.7,2.2,3.6,3.8c0.8,1.6,1.3,3.5,1.3,5.7c0,2.2-0.4,4-1.3,5.7
		c-0.8,1.6-2,2.9-3.6,3.8S294.1,137.3,291.9,137.3z M292,132.8c1,0,1.8-0.3,2.4-0.8c0.6-0.6,1.1-1.3,1.5-2.3c0.3-1,0.5-2,0.5-3.3
		c0-1.2-0.2-2.3-0.5-3.3s-0.8-1.7-1.5-2.3c-0.6-0.6-1.5-0.8-2.4-0.8c-1,0-1.8,0.3-2.5,0.8c-0.7,0.6-1.2,1.3-1.5,2.3
		c-0.3,1-0.5,2-0.5,3.3c0,1.2,0.2,2.3,0.5,3.3c0.3,1,0.8,1.7,1.5,2.3C290.2,132.5,291,132.8,292,132.8z"/>
	<path d="M311.9,108.9v28h-5.8v-28H311.9z"/>
	<path d="M324.3,137.3c-1.6,0-3-0.4-4.3-1.2c-1.3-0.8-2.3-2-3.1-3.7c-0.8-1.6-1.1-3.6-1.1-5.9c0-2.4,0.4-4.4,1.2-6
		c0.8-1.6,1.8-2.8,3.1-3.6c1.3-0.8,2.7-1.2,4.2-1.2c1.2,0,2.2,0.2,3,0.6c0.8,0.4,1.4,0.9,1.9,1.5s0.9,1.2,1.1,1.7h0.2v-10.5h5.8v28
		h-5.7v-3.4h-0.2c-0.3,0.6-0.7,1.2-1.2,1.7c-0.5,0.6-1.1,1-1.9,1.4S325.5,137.3,324.3,137.3z M326.2,132.6c0.9,0,1.7-0.3,2.4-0.8
		c0.7-0.5,1.2-1.2,1.5-2.2c0.4-0.9,0.5-2,0.5-3.3c0-1.2-0.2-2.3-0.5-3.3s-0.8-1.6-1.5-2.1s-1.5-0.8-2.4-0.8c-1,0-1.8,0.3-2.4,0.8
		c-0.7,0.5-1.2,1.2-1.5,2.2c-0.3,0.9-0.5,2-0.5,3.2c0,1.2,0.2,2.3,0.5,3.2c0.3,0.9,0.8,1.7,1.5,2.2
		C324.4,132.4,325.2,132.6,326.2,132.6z"/>
	<path d="M350.6,137.3c-2.2,0-4-0.4-5.6-1.3s-2.8-2.1-3.6-3.8s-1.3-3.5-1.3-5.8c0-2.2,0.4-4.1,1.3-5.7s2-2.9,3.6-3.8
		c1.5-0.9,3.3-1.4,5.4-1.4c1.4,0,2.7,0.2,3.9,0.7s2.2,1.1,3.1,2c0.9,0.9,1.6,2,2.1,3.3s0.8,2.9,0.8,4.7v1.6h-17.8v-3.6h12.3
		c0-0.8-0.2-1.6-0.5-2.2c-0.4-0.6-0.9-1.2-1.5-1.5c-0.6-0.4-1.4-0.6-2.2-0.6c-0.9,0-1.7,0.2-2.3,0.6s-1.2,0.9-1.6,1.6
		c-0.4,0.7-0.6,1.4-0.6,2.3v3.4c0,1,0.2,1.9,0.6,2.7s0.9,1.3,1.6,1.8c0.7,0.4,1.6,0.6,2.5,0.6c0.6,0,1.2-0.1,1.8-0.3
		c0.5-0.2,1-0.5,1.4-0.8c0.4-0.4,0.7-0.8,0.9-1.3l5.4,0.4c-0.3,1.3-0.8,2.4-1.7,3.4c-0.8,1-1.9,1.7-3.3,2.2
		C353.9,137.1,352.4,137.3,350.6,137.3z"/>
	<path d="M364.1,136.9v-21h5.7v3.7h0.2c0.4-1.3,1-2.3,1.9-3c0.9-0.7,1.9-1,3.1-1c0.3,0,0.6,0,0.9,0.1c0.3,0,0.6,0.1,0.9,0.2v5.2
		c-0.3-0.1-0.7-0.2-1.1-0.2s-0.9-0.1-1.3-0.1c-0.9,0-1.6,0.2-2.3,0.6c-0.7,0.4-1.2,0.9-1.6,1.5c-0.4,0.7-0.6,1.4-0.6,2.3v11.9H364.1
		z"/>
</g>
<g class="st12">
	<path d="M194.2,183.6c-1.6,0-3.1-0.3-4.3-1c-1.3-0.6-2.3-1.5-3.1-2.6c-0.8-1.1-1.2-2.4-1.3-3.8h3.3c0.1,1.3,0.7,2.3,1.7,3.1
		s2.3,1.2,3.7,1.2c1.1,0,2.2-0.3,3.1-0.8c0.9-0.5,1.6-1.3,2.1-2.2c0.5-0.9,0.8-2,0.8-3.2c0-1.2-0.3-2.3-0.8-3.3s-1.3-1.7-2.2-2.3
		c-0.9-0.6-2-0.8-3.2-0.8c-0.9,0-1.7,0.1-2.6,0.4c-0.9,0.3-1.6,0.6-2.2,1l-3.2-0.4l1.7-13.8h14.6v3h-11.7l-1,8.3h0.2
		c0.6-0.5,1.3-0.8,2.2-1.1c0.9-0.3,1.8-0.5,2.7-0.5c1.7,0,3.2,0.4,4.6,1.2c1.3,0.8,2.4,1.9,3.2,3.3c0.8,1.4,1.2,3,1.2,4.8
		c0,1.8-0.4,3.4-1.2,4.8c-0.8,1.4-1.9,2.5-3.3,3.3S196,183.6,194.2,183.6z"/>
	<path d="M208.9,183.2v-2.5l9.3-10.1c1.1-1.2,2-2.2,2.7-3.1c0.7-0.9,1.2-1.7,1.6-2.5s0.5-1.6,0.5-2.5c0-1-0.2-1.8-0.7-2.6
		c-0.5-0.7-1.1-1.3-1.9-1.7c-0.8-0.4-1.7-0.6-2.7-0.6c-1.1,0-2,0.2-2.8,0.7c-0.8,0.4-1.4,1.1-1.8,1.9s-0.7,1.7-0.7,2.8H209
		c0-1.6,0.4-3.1,1.1-4.3c0.8-1.2,1.8-2.2,3.1-2.9c1.3-0.7,2.8-1,4.4-1c1.6,0,3.1,0.3,4.4,1c1.3,0.7,2.3,1.6,3,2.8
		c0.7,1.2,1.1,2.5,1.1,3.9c0,1-0.2,2-0.6,3s-1,2.1-1.9,3.3s-2.2,2.7-3.8,4.4l-6.3,6.7v0.2h13v3H208.9z"/>
	<path d="M241.5,183.6c-1.1,0-2.3-0.2-3.4-0.7c-1.1-0.4-2.2-1.1-3.1-2.1c-0.9-1-1.7-2.4-2.3-4.1c-0.6-1.7-0.9-3.9-0.9-6.5
		c0-2.5,0.2-4.7,0.7-6.6c0.5-1.9,1.1-3.6,2-4.9c0.9-1.3,2-2.3,3.2-3s2.7-1,4.3-1c1.6,0,3,0.3,4.2,0.9s2.2,1.5,3,2.6
		c0.8,1.1,1.3,2.4,1.5,3.9h-3.3c-0.3-1.3-0.9-2.3-1.8-3.2s-2.1-1.3-3.6-1.3c-2.2,0-3.9,0.9-5.1,2.8c-1.2,1.9-1.9,4.6-1.9,8h0.2
		c0.5-0.8,1.1-1.4,1.8-2c0.7-0.6,1.5-1,2.3-1.3c0.9-0.3,1.8-0.5,2.7-0.5c1.6,0,3.1,0.4,4.4,1.2c1.3,0.8,2.4,1.9,3.2,3.3
		s1.2,3,1.2,4.8c0,1.7-0.4,3.3-1.2,4.8c-0.8,1.4-1.9,2.6-3.3,3.4S243.4,183.6,241.5,183.6z M241.5,180.6c1.1,0,2.2-0.3,3.1-0.9
		c0.9-0.6,1.6-1.3,2.2-2.3c0.5-1,0.8-2,0.8-3.2c0-1.2-0.3-2.2-0.8-3.2c-0.5-1-1.2-1.7-2.1-2.3c-0.9-0.6-1.9-0.8-3.1-0.8
		c-0.9,0-1.7,0.2-2.4,0.5c-0.7,0.3-1.4,0.8-2,1.4c-0.6,0.6-1,1.3-1.3,2c-0.3,0.8-0.5,1.6-0.5,2.4c0,1.1,0.3,2.2,0.8,3.1
		c0.5,1,1.2,1.7,2.2,2.3C239.3,180.3,240.3,180.6,241.5,180.6z"/>
	<path d="M258.7,162.2l5,8.6l5-8.6h3.7l-6.8,10.5l6.8,10.5h-3.7l-5-8.2l-5,8.2H255l6.7-10.5l-6.7-10.5H258.7z"/>
	<path d="M286.5,183.6c-1.8,0-3.4-0.3-4.8-0.9c-1.4-0.6-2.5-1.5-3.4-2.6c-0.8-1.1-1.3-2.4-1.3-3.9h3.4c0.1,0.9,0.4,1.7,0.9,2.3
		c0.5,0.7,1.3,1.2,2.1,1.5c0.9,0.4,1.9,0.5,2.9,0.5c1.2,0,2.3-0.2,3.2-0.6c0.9-0.4,1.7-1,2.2-1.8c0.5-0.7,0.8-1.6,0.8-2.6
		c0-1-0.3-1.9-0.8-2.7c-0.5-0.8-1.3-1.4-2.2-1.9c-1-0.4-2.2-0.7-3.6-0.7h-2.2v-3h2.2c1.1,0,2.1-0.2,2.9-0.6c0.8-0.4,1.5-1,2-1.7
		c0.5-0.7,0.7-1.6,0.7-2.6c0-0.9-0.2-1.8-0.6-2.5c-0.4-0.7-1-1.3-1.8-1.6c-0.8-0.4-1.7-0.6-2.7-0.6c-1,0-1.9,0.2-2.7,0.5
		c-0.9,0.4-1.5,0.9-2.1,1.5c-0.5,0.7-0.8,1.5-0.9,2.4h-3.3c0.1-1.5,0.5-2.8,1.3-3.9c0.8-1.1,1.9-2,3.3-2.6c1.3-0.6,2.8-0.9,4.4-0.9
		c1.7,0,3.2,0.3,4.5,1s2.2,1.6,2.9,2.8s1,2.4,1,3.7c0,1.6-0.4,2.9-1.2,4c-0.8,1.1-1.9,1.9-3.4,2.3v0.2c1.8,0.3,3.2,1,4.1,2.3
		c1,1.2,1.5,2.7,1.5,4.5c0,1.5-0.4,2.9-1.2,4.1c-0.8,1.2-2,2.2-3.4,2.9S288.3,183.6,286.5,183.6z"/>
	<path d="M310.7,183.6c-2.1,0-3.8-0.6-5.3-1.7c-1.5-1.1-2.6-2.8-3.3-4.9s-1.1-4.7-1.1-7.8c0-3,0.4-5.6,1.2-7.8
		c0.8-2.1,1.9-3.8,3.3-4.9c1.5-1.1,3.2-1.7,5.2-1.7c2,0,3.8,0.6,5.2,1.7c1.5,1.1,2.6,2.8,3.3,4.9c0.8,2.1,1.2,4.7,1.2,7.8
		c0,3-0.4,5.6-1.1,7.8s-1.9,3.8-3.3,4.9C314.5,183,312.8,183.6,310.7,183.6z M310.7,180.6c2,0,3.6-1,4.8-3c1.1-2,1.7-4.8,1.7-8.4
		c0-2.4-0.3-4.5-0.8-6.2c-0.5-1.7-1.3-3-2.2-3.9c-1-0.9-2.1-1.3-3.5-1.3c-2,0-3.6,1-4.8,3s-1.7,4.8-1.7,8.5c0,2.4,0.3,4.5,0.8,6.2
		s1.2,3,2.2,3.9C308.2,180.2,309.4,180.6,310.7,180.6z"/>
	<path d="M334.8,183.6c-2.1,0-3.8-0.6-5.3-1.7c-1.5-1.1-2.6-2.8-3.3-4.9s-1.2-4.7-1.2-7.8c0-3,0.4-5.6,1.2-7.8
		c0.8-2.1,1.9-3.8,3.3-4.9c1.5-1.1,3.2-1.7,5.2-1.7s3.8,0.6,5.2,1.7c1.5,1.1,2.6,2.8,3.3,4.9c0.8,2.1,1.2,4.7,1.2,7.8
		c0,3-0.4,5.6-1.2,7.8s-1.9,3.8-3.3,4.9C338.6,183,336.9,183.6,334.8,183.6z M334.8,180.6c2,0,3.6-1,4.8-3c1.1-2,1.7-4.8,1.7-8.4
		c0-2.4-0.3-4.5-0.8-6.2c-0.5-1.7-1.3-3-2.2-3.9c-1-0.9-2.1-1.3-3.5-1.3c-2,0-3.6,1-4.8,3c-1.1,2-1.7,4.8-1.7,8.5
		c0,2.4,0.3,4.5,0.8,6.2c0.5,1.7,1.2,3,2.2,3.9C332.3,180.2,333.5,180.6,334.8,180.6z"/>
</g>
</svg>
