<?xml version="1.0" encoding="utf-8"?>
<!-- Generator: Adobe Illustrator 26.1.0, SVG Export Plug-In . SVG Version: 6.00 Build 0)  -->
<svg version="1.1" id="Layer_1" xmlns="http://www.w3.org/2000/svg" xmlns:xlink="http://www.w3.org/1999/xlink" x="0px" y="0px"
	 viewBox="0 0 294 196" style="enable-background:new 0 0 294 196;" xml:space="preserve">
<style type="text/css">
	.st0{fill:#EBEBEB;}
	.st1{fill:#F5F5F5;}
	.st2{fill:#E0E0E0;}
	.st3{fill:#FFFFFF;}
	.st4{fill:#FAFAFA;}
	.st5{fill:#263238;}
	.st6{fill:#455A64;}
	.st7{fill:#FF6A27;}
	.st8{opacity:0.2;}
	.st9{opacity:0.3;}
	.st10{fill:#FFBE9D;}
	.st11{fill:#FFE6E6;}
</style>
<g id="freepik--background-complete--inject-25">
	<path class="st0" d="M166.4,78.1c-0.1-0.6-0.5-1.1-0.9-1.5s-1-0.7-1.6-0.8c-1-0.1-2,0.5-2.4,1.4c-0.2-0.3-0.4-0.5-0.7-0.7
		c-0.6-0.3-1.2-0.4-1.8-0.2c-0.6,0.2-1,0.6-1.4,1.1c-0.4,0.6-0.6,1.2-0.6,1.8c0,0.8,0.2,1.5,0.7,2.2c0.5,0.6,1.2,1.1,1.9,1.5
		c1.2,0.6,2.8,1.3,2.8,1.3s1.2-1.1,2.2-1.9c0.6-0.5,1.2-1.1,1.6-1.8C166.5,79.7,166.5,78.9,166.4,78.1z"/>
	<path class="st0" d="M171.6,73.3c0-0.4-0.1-0.7-0.3-1c-0.2-0.3-0.4-0.5-0.8-0.7c-0.5-0.2-1.1,0-1.5,0.5c-0.2-0.5-0.7-0.9-1.3-0.9
		c-0.3,0-0.7,0.2-0.9,0.4c-0.3,0.2-0.5,0.5-0.6,0.9c-0.1,0.4-0.1,0.9,0,1.3c0.2,0.4,0.5,0.8,0.9,1.1c0.6,0.5,1.4,1.2,1.4,1.2
		s0.8-0.4,1.6-0.7c0.4-0.2,0.9-0.4,1.2-0.8C171.4,74.2,171.6,73.8,171.6,73.3z"/>
	<path class="st0" d="M170,85.5c-0.1-0.2-0.2-0.5-0.4-0.7c-0.2-0.2-0.4-0.3-0.7-0.3c-0.4,0-0.9,0.2-1,0.6c-0.2-0.3-0.7-0.5-1.1-0.4
		c-0.2,0.1-0.4,0.2-0.6,0.5c-0.2,0.2-0.2,0.5-0.3,0.7c0,0.3,0.1,0.7,0.3,0.9c0.2,0.3,0.5,0.5,0.8,0.6c0.5,0.3,1.2,0.6,1.2,0.6
		s0.5-0.5,1-0.8c0.3-0.2,0.5-0.5,0.7-0.8C170,86.2,170.1,85.9,170,85.5z"/>
	<rect x="121.8" y="109.9" class="st1" width="19.2" height="8.9"/>
	<path class="st2" d="M140.6,118.4h-18.3v-8h18.3V118.4L140.6,118.4z M122.4,118.3h18.1v-7.8h-18.1V118.3z"/>
	<rect x="141" y="109.9" class="st2" width="4.7" height="8.9"/>
	<path class="st2" d="M122.3,112.9h18.2l0,0l0,0H122.3C122.3,112.8,122.3,112.8,122.3,112.9L122.3,112.9z"/>
	<path class="st2" d="M131.5,112.8c0-0.8,0.1-1.6,0-2.4l0,0l0,0C131.4,111.2,131.4,112,131.5,112.8L131.5,112.8L131.5,112.8z"/>
	<path class="st2" d="M136.4,111.6c0,0.1-0.1,0.2-0.2,0.2c-0.1,0-0.2-0.1-0.2-0.2s0.1-0.2,0.2-0.2
		C136.3,111.4,136.4,111.5,136.4,111.6L136.4,111.6z"/>
	<path class="st2" d="M126.8,111.6c0,0.1-0.1,0.2-0.2,0.2s-0.2-0.1-0.2-0.2s0.1-0.2,0.2-0.2S126.8,111.5,126.8,111.6L126.8,111.6z"
		/>
	<path class="st2" d="M131.7,114.4c0,0.1-0.1,0.2-0.2,0.2s-0.2-0.1-0.2-0.2s0.1-0.2,0.2-0.2l0,0
		C131.6,114.1,131.7,114.3,131.7,114.4z"/>
	<polygon class="st2" points="124.1,118.8 123.2,124.4 123.7,124.4 125.5,118.8 	"/>
	<polygon class="st2" points="139.7,118.8 140.5,124.4 140,124.4 138.3,118.8 	"/>
	<polygon class="st2" points="143.4,118.8 144.3,124.4 143.8,124.4 142,118.8 	"/>
	<path class="st2" d="M131.7,116.9c0,0.1-0.1,0.2-0.2,0.2s-0.2-0.1-0.2-0.2s0.1-0.2,0.2-0.2l0,0
		C131.6,116.7,131.7,116.8,131.7,116.9z"/>
	<path class="st2" d="M122.3,115.6h18.2l0,0l0,0H122.3L122.3,115.6L122.3,115.6z"/>
	
		<rect x="129.4" y="105.7" transform="matrix(1 -5.267038e-03 5.267038e-03 1 -0.5581 0.6983)" class="st2" width="5.8" height="1.2"/>
	
		<rect x="129.5" y="108.1" transform="matrix(1 -5.267038e-03 5.267038e-03 1 -0.5723 0.7007)" class="st1" width="6.5" height="1.8"/>
	<path class="st2" d="M134.7,109.9c0-0.3,0-0.6,0-0.9s0-0.6,0-0.9c0,0.3,0,0.6,0,0.9S134.7,109.6,134.7,109.9z"/>
	<path class="st2" d="M135,109.9c0-0.3,0-0.6,0-0.9s0-0.6,0-0.9c0,0.3,0,0.6,0,0.9S135,109.6,135,109.9z"/>
	<path class="st2" d="M130.5,109.9c0-0.3,0-0.6,0-0.9s0-0.6,0-0.9c0,0.3,0,0.6,0,0.9S130.5,109.6,130.5,109.9z"/>
	<path class="st2" d="M130.7,109.9c0-0.3,0-0.6,0-0.9s0-0.6,0-0.9c0,0.3,0,0.6,0,0.9C130.8,109.3,130.8,109.6,130.7,109.9z"/>
	<path class="st2" d="M131.3,109c0,0,0.7,0,1.5,0s1.5,0,1.5,0s-0.7,0-1.5,0S131.3,109,131.3,109z"/>
	
		<rect x="130.4" y="106.9" transform="matrix(1 -5.267038e-03 5.267038e-03 1 -0.5643 0.7094)" class="st0" width="8" height="1.2"/>
	<path class="st2" d="M137.2,107.9c-0.2,0-0.4-0.2-0.4-0.4s0.2-0.4,0.4-0.4s0.4,0.2,0.4,0.4l0,0
		C137.6,107.7,137.4,107.9,137.2,107.9L137.2,107.9z"/>
	<rect x="130.9" y="107.4" class="st2" width="5.3" height="0.2"/>
	<rect x="123.7" y="71.6" class="st2" width="11.5" height="16.7"/>
	<rect x="123.1" y="71.6" class="st1" width="11.5" height="16.7"/>
	<rect x="124.5" y="73.4" class="st3" width="8.6" height="13.1"/>
	<path class="st2" d="M133.1,86.5L133.1,86.5c0-0.1,0-0.2,0-0.3c0-0.2,0-0.4,0-0.7c0-0.6,0-1.5,0-2.7c0-2.3,0-5.6,0-9.4l0,0h-8.6
		l0,0l0,0c0,4.9,0,9.5,0,13.1l0,0h6.3h1.7h0.5C133.1,86.5,133.1,86.5,133.1,86.5H133h-0.4h-1.7h-6.3l0,0l0,0c0-3.6,0-8.2,0-13.1l0,0
		l0,0h8.6l0,0l0,0c0,3.9,0,7.1,0,9.5c0,1.2,0,2.1,0,2.7c0,0.3,0,0.5,0,0.7C133.1,86.3,133.1,86.3,133.1,86.5
		C133.1,86.4,133.1,86.5,133.1,86.5z"/>
	<path class="st2" d="M134.6,71.6c-0.1,0.1-0.1,0.2-0.2,0.3c-0.1,0.2-0.3,0.4-0.5,0.7c-0.2,0.3-0.4,0.5-0.6,0.7
		c-0.1,0.1-0.2,0.2-0.2,0.3c0.1-0.1,0.1-0.2,0.2-0.3l0.6-0.7c0.1-0.3,0.3-0.6,0.5-0.8C134.4,71.7,134.5,71.6,134.6,71.6z"/>
	<path class="st3" d="M133.2,86.4c0.4,0.7,0.9,1.3,1.5,1.9"/>
	<path class="st2" d="M134.7,88.3c-0.1-0.1-0.2-0.2-0.3-0.2c-0.4-0.4-0.8-0.9-1.1-1.3c-0.1-0.1-0.1-0.2-0.2-0.3
		c0.1,0.1,0.2,0.2,0.2,0.3c0.1,0.2,0.3,0.4,0.5,0.7s0.4,0.5,0.5,0.7C134.5,88.1,134.6,88.2,134.7,88.3z"/>
	<path class="st3" d="M123.1,88.3l1.5-1.9"/>
	<path class="st2" d="M124.6,86.4c-0.2,0.3-0.5,0.6-0.7,1c-0.2,0.3-0.5,0.6-0.8,0.9c0.2-0.3,0.5-0.6,0.7-1
		C124.1,87,124.3,86.7,124.6,86.4z"/>
	<path class="st2" d="M123.1,71.6c0.3,0.3,0.5,0.6,0.7,0.9c0.3,0.2,0.5,0.5,0.7,0.9c-0.3-0.3-0.5-0.6-0.7-0.9
		C123.5,72.2,123.3,71.9,123.1,71.6z"/>
	<rect x="127.6" y="76" class="st2" width="2.9" height="8.2"/>
	<rect x="161.4" y="90.4" class="st2" width="8.3" height="8.7"/>
	<rect x="160.8" y="90.4" class="st4" width="8.3" height="8.7"/>
	<path class="st2" d="M169.2,99.1h-8.3v-8.7h8.3V99.1z M160.8,99.1h8.3v-8.7h-8.3V99.1z"/>
	<rect x="162" y="91.6" class="st3" width="6.1" height="6.4"/>
	<path class="st2" d="M162,98c0,0.1-0.1,0.1-0.2,0.2c-0.1,0.1-0.2,0.2-0.4,0.4c-0.2,0.2-0.3,0.3-0.4,0.4c0,0.1-0.1,0.1-0.2,0.1
		c0-0.1,0.1-0.1,0.2-0.2c0.1-0.1,0.2-0.2,0.4-0.4c0.2-0.2,0.3-0.3,0.4-0.4C161.8,98.1,161.9,98.1,162,98z"/>
	<path class="st2" d="M168.1,98c0.1,0,0.1,0.1,0.2,0.2c0.1,0.1,0.2,0.2,0.4,0.4c0.2,0.2,0.3,0.3,0.4,0.4c0.1,0,0.1,0.1,0.1,0.2
		c-0.1-0.1-0.2-0.2-0.2-0.2c-0.1-0.1-0.2-0.2-0.4-0.4c-0.2-0.2-0.3-0.3-0.4-0.4C168.1,98.1,168.1,98.1,168.1,98z"/>
	<path class="st2" d="M168,91.6c0-0.1,0.1-0.1,0.2-0.2c0.1-0.1,0.2-0.2,0.4-0.4c0.2-0.2,0.3-0.3,0.4-0.4c0-0.1,0.1-0.1,0.2-0.1
		c0,0.1-0.1,0.1-0.2,0.2c-0.1,0.1-0.2,0.2-0.4,0.4c-0.2,0.2-0.3,0.3-0.4,0.4C168.2,91.5,168.1,91.6,168,91.6z"/>
	<path class="st2" d="M161.9,91.6c-0.1,0-0.1-0.1-0.2-0.2c-0.1-0.1-0.2-0.2-0.4-0.4s-0.3-0.3-0.4-0.4c-0.1,0-0.1-0.1-0.1-0.2
		c0.1,0,0.1,0.1,0.2,0.2s0.2,0.2,0.4,0.4c0.2,0.2,0.3,0.3,0.4,0.4C161.9,91.5,161.9,91.6,161.9,91.6z"/>
	<path class="st2" d="M168,98C168,98,168,97.9,168,98C168,97.9,168,97.9,168,98c0-0.2,0-0.3,0-0.4c0-0.3,0-0.7,0-1.3
		c0-1.1,0-2.7,0-4.6l0,0h-6l0,0l0,0c0,2.3,0,4.5,0,6.4l0,0h4.4h1.2L168,98L168,98h-0.4h-1.2H162l0,0l0,0c0-1.8,0-4,0-6.4l0,0l0,0h6
		l0,0l0,0c0,1.9,0,3.5,0,4.6c0,0.6,0,1,0,1.3c0,0.1,0,0.3,0,0.3C168,97.9,168,97.9,168,98C168,97.9,168,98,168,98z"/>
	<rect x="164" y="93.8" class="st0" width="2" height="2"/>
</g>
<g id="freepik--Plant--inject-25">
	<rect x="142.5" y="102" class="st5" width="8.1" height="1.1"/>
	<path class="st5" d="M142.5,102h8.2v1.2h-8.2V102z M150.7,102h-8.1v1.1h8.1V102z"/>
	<polygon class="st5" points="149.9,102.8 148.8,108.6 144.4,108.6 143.3,103.1 	"/>
	<polygon class="st6" points="149.9,108 149.3,108.9 144,108.9 143.3,108 	"/>
	<path class="st5" d="M146.9,102.9c0,0,0-2.7,0-6s0-6,0-6s0,2.7,0,6S146.9,102.9,146.9,102.9z"/>
	<path class="st5" d="M145.1,96.2L145.1,96.2l0.1,0.2l0.1,0.1c0,0,0,0.1,0.1,0.2c0.1,0.1,0,0.1,0.1,0.2s0,0.1,0.1,0.2
		c0.1,0.3,0.2,0.7,0.2,1c0.1,0.4,0.1,0.8,0.1,1.2c0,0.8,0,1.5-0.1,2.3c0,0.3-0.1,0.5-0.1,0.7c0,0.1,0,0.1,0,0.2c0,0,0,0,0,0.1
		c0,0,0,0,0-0.1v-0.2c0-0.2,0.1-0.4,0.1-0.7c0.1-0.8,0.1-1.5,0.1-2.3c0-0.4-0.1-0.8-0.1-1.3c-0.1-0.3-0.1-0.7-0.2-1
		c0-0.1,0-0.1-0.1-0.2c0-0.1,0-0.1-0.1-0.2l-0.1-0.2c0,0,0-0.1-0.1-0.1C145.2,96.3,145.2,96.3,145.1,96.2L145.1,96.2z"/>
	<path class="st5" d="M145.3,94C145.3,94.1,145.3,94.1,145.3,94l0.1,0.3l0.1,0.2c0,0.1,0,0.1,0.1,0.2c0,0.2,0.1,0.3,0.2,0.5l0.1,0.3
		c0,0.1,0,0.2,0.1,0.3c0.1,0.2,0.1,0.5,0.2,0.8c0.1,0.5,0.2,1.1,0.2,1.8c0,0.7,0.1,1.2,0.1,1.8c0,0.5,0,1,0,1.4c0,0.2,0,0.4,0,0.5
		c0,0.2,0,0.3,0,0.4c0,0.1,0,0.2,0,0.3v0.1v-0.1c0-0.1,0-0.2,0-0.3s0-0.3,0-0.4c0-0.2,0-0.3,0-0.5c0-0.4,0-0.9,0-1.4s0-1.1-0.1-1.8
		c-0.1-0.6-0.1-1.2-0.2-1.8c-0.1-0.3-0.1-0.5-0.2-0.8c0-0.1-0.1-0.2-0.1-0.3l-0.1-0.3c0-0.2-0.1-0.4-0.2-0.5c0-0.1,0-0.1-0.1-0.2
		s0-0.1-0.1-0.2L145.3,94C145.4,94.1,145.3,94.1,145.3,94z"/>
	<path class="st5" d="M147.4,103.4L147.4,103.4C147.4,103.3,147.4,103.3,147.4,103.4c0-0.2,0-0.3,0-0.5c0-0.3,0-0.8,0.1-1.3
		c0.1-1.1,0.2-2.6,0.4-4.3c0.1-0.8,0.2-1.6,0.3-2.4c0.1-0.4,0.1-0.7,0.2-1c0.1-0.3,0.1-0.6,0.2-0.9c0.1-0.3,0.1-0.5,0.2-0.7
		c0-0.2,0.1-0.4,0.1-0.5s0.1-0.3,0.1-0.3v-0.1l0,0l0,0c0,0,0,0,0,0.1c0,0.1-0.1,0.2-0.1,0.3s-0.1,0.3-0.1,0.5s-0.1,0.5-0.2,0.7
		c0,0.3-0.1,0.6-0.2,0.9c-0.1,0.3-0.1,0.7-0.2,1c-0.1,0.7-0.2,1.5-0.3,2.4c-0.2,1.7-0.3,3.2-0.3,4.3c0,0.6,0,1-0.1,1.3
		c0,0.2,0,0.3,0,0.4L147.4,103.4L147.4,103.4z"/>
	<path class="st7" d="M147,92.2c0-0.4,0.4-0.7,0.8-0.7c0.4,0,0.7,0.2,1,0.5c0.2,0.3,0.4,0.7,0.5,1c0.3,0.9,0.4,1.8,0.3,2.8
		c-0.1,0.9-0.5,1.8-1.1,2.5c-0.1,0.1-0.2,0.2-0.4,0.2c-0.1,0-0.2-0.1-0.2-0.1c-1.3-1.2-2-2.9-2-4.7c0-0.4,0.1-0.7,0.2-1
		C146.2,92.4,146.7,92.1,147,92.2"/>
	<path class="st7" d="M149.8,89.1l0.5,1c0,0,0,0,0.1,0c0,0,0,0,0.1,0l1.4-2.2l-0.3-0.2L149.8,89.1z"/>
	<g class="st8">
		<path d="M149.8,89.1l0.5,1c0,0,0,0,0.1,0c0,0,0,0,0.1,0l1.4-2.2l-0.3-0.2L149.8,89.1z"/>
	</g>
	<path class="st7" d="M147,90.9l4.8-2.9l0.1-0.1c0-0.1,0-0.1-0.1-0.2c-0.7-0.7-1.6-1.1-2.6-1c-1,0.1-1.8,0.6-2.3,1.5
		C146.4,89,146.4,90.1,147,90.9"/>
	<path class="st5" d="M151.1,87.1L151.1,87.1c-0.1,0-0.2,0-0.2,0c-0.2,0-0.4,0-0.7,0.1c-0.3,0.1-0.7,0.2-1,0.3
		c-0.8,0.3-1.4,0.9-1.8,1.6c-0.2,0.3-0.3,0.6-0.4,0.9c-0.1,0.2-0.1,0.4-0.1,0.7c0,0.1,0,0.1,0,0.1v0.1c0-0.1,0-0.2,0-0.2
		c0-0.2,0.1-0.4,0.1-0.7c0.4-1.5,1.6-2.6,3.1-2.8c0.2,0,0.4-0.1,0.7-0.1C151,87.1,151.1,87.1,151.1,87.1z"/>
	<path class="st5" d="M147.6,88.9c0.1,0,0.2,0.1,0.2,0.1c0.2,0.1,0.4,0.1,0.6,0.2c0.2,0.1,0.5,0.1,0.6,0.2c0.1,0,0.2,0,0.3,0
		c-0.1,0-0.2-0.1-0.2-0.1l-0.6-0.2l-0.6-0.1C147.8,89,147.7,88.9,147.6,88.9z"/>
	<path class="st5" d="M148.4,86.9c0,0.2-0.1,0.4-0.1,0.5c0,0.2,0,0.4,0,0.5c0-0.2,0-0.4,0-0.5C148.4,87.2,148.4,87,148.4,86.9z"/>
	<path class="st5" d="M151.8,88c-0.1,0-0.2-0.1-0.4-0.1c-0.2-0.1-0.5-0.2-0.9-0.2c-0.3-0.1-0.7-0.1-0.9-0.2c-0.1,0-0.2,0-0.4,0
		c0.1,0,0.2,0.1,0.4,0.1s0.5,0.1,0.9,0.2c0.3,0.1,0.7,0.2,0.9,0.2C151.6,87.9,151.7,88,151.8,88z"/>
	<path class="st7" d="M149,91.4c0.4-0.3,0.9-0.4,1.4-0.4s1,0.2,1.5,0.4c0.8,0.4,1.6,0.9,2.1,1.6s0.7,1.7,0.3,2.6
		c0,0.1-0.1,0.2-0.2,0.2c-0.1,0-0.2,0-0.3,0c-0.9-0.3-1.9-0.6-2.7-1.1c-0.8-0.5-1.6-1.1-2.1-2c-0.1-0.2-0.2-0.4-0.2-0.7
		C148.8,91.8,148.8,91.6,149,91.4"/>
	<path class="st5" d="M149,91.3L149,91.3l0.3,0.1h0.1c0,0,0.1,0,0.2,0.1c0.1,0,0.2,0.1,0.4,0.2l0.2,0.1c0.1,0,0.2,0.1,0.2,0.1
		c0.2,0.1,0.3,0.2,0.5,0.3c0.8,0.5,1.5,1.1,2,1.8c0.1,0.2,0.3,0.3,0.4,0.5c0,0.1,0.1,0.2,0.2,0.2l0.1,0.2c0.1,0.1,0.2,0.3,0.2,0.4
		c0,0.1,0.1,0.1,0.1,0.2l0.1,0.1c0,0.1,0.1,0.1,0.1,0.2c0,0,0,0,0,0.1c0,0,0,0,0-0.1l-0.1-0.2c0,0,0-0.1-0.1-0.1c0,0,0-0.1-0.1-0.2
		c-0.1-0.1-0.1-0.2-0.2-0.4l-0.1-0.2c0-0.1-0.1-0.1-0.2-0.2c-0.1-0.2-0.2-0.3-0.4-0.5c-0.3-0.4-0.6-0.7-0.9-1
		c-0.3-0.3-0.7-0.6-1.1-0.8c-0.2-0.1-0.4-0.2-0.5-0.3c-0.1,0-0.2-0.1-0.2-0.1l-0.2-0.2c-0.1-0.1-0.3-0.1-0.4-0.2
		c-0.1,0-0.1,0-0.2-0.1h-0.1H149L149,91.3z"/>
	<path class="st5" d="M152.2,93.1c0.3,0.1,0.7,0.2,1,0.3s0.7,0.2,1,0.3c-0.3-0.1-0.7-0.2-1-0.3C152.9,93.2,152.6,93.1,152.2,93.1z"
		/>
	<path class="st5" d="M152.3,95.3c0-0.1,0-0.2,0-0.3c0-0.2,0-0.5,0-0.8c0-0.3,0-0.6,0-0.8c0-0.1,0-0.2,0-0.3c0,0.1,0,0.2,0,0.3
		c0,0.2,0,0.5,0,0.8c0,0.3,0,0.5,0,0.8C152.3,95.1,152.3,95.2,152.3,95.3z"/>
	<path class="st5" d="M150.4,94.3c0,0,0.1-0.5,0.1-1.2s0.1-1.2,0.1-1.2s-0.1,0.5-0.1,1.2C150.4,93.8,150.4,94.3,150.4,94.3z"/>
	<path class="st5" d="M152.8,91.8c-0.1,0-0.2,0-0.3,0c-0.2,0-0.5,0-0.8,0s-0.6,0-0.8,0c-0.1,0-0.2,0-0.3,0c0.1,0,0.2,0,0.3,0
		c0.2,0,0.5,0,0.8,0s0.6,0,0.8,0C152.5,91.8,152.7,91.8,152.8,91.8z"/>
	<path class="st5" d="M148.2,98.5L148.2,98.5c0-0.1,0-0.2,0-0.3c0-0.2,0-0.4,0-0.7s0-0.6-0.1-1c0-0.4-0.1-0.8-0.2-1.2
		c-0.1-0.4-0.2-0.8-0.3-1.2c-0.1-0.4-0.2-0.7-0.3-1c-0.1-0.3-0.2-0.5-0.2-0.6l-0.1-0.2c0,0,0,0,0-0.1c0,0,0,0,0,0.1
		c0,0,0,0.1,0.1,0.2c0.1,0.2,0.1,0.4,0.2,0.7c0.1,0.3,0.2,0.6,0.3,1c0.1,0.4,0.2,0.8,0.3,1.2c0.1,0.4,0.1,0.9,0.2,1.2
		c0.1,0.3,0.1,0.7,0.1,1c0,0.3,0,0.5,0,0.7C148.2,98.3,148.2,98.4,148.2,98.5L148.2,98.5z"/>
	<path class="st5" d="M147.9,95.3c0.1,0.1,0.1,0.2,0.2,0.2c0.1,0.1,0.3,0.3,0.5,0.5c0.2,0.2,0.4,0.3,0.5,0.4
		c0.1,0.1,0.2,0.1,0.2,0.2c-0.1-0.1-0.1-0.1-0.2-0.2l-0.5-0.4l-0.5-0.5C148.1,95.4,148,95.4,147.9,95.3z"/>
	<path class="st5" d="M146.4,96.6c0.1-0.1,0.1-0.2,0.2-0.3l0.5-0.7l0.5-0.7c0.1-0.1,0.1-0.2,0.2-0.3c-0.1,0.1-0.2,0.2-0.2,0.3
		c-0.1,0.2-0.3,0.4-0.5,0.7c-0.2,0.3-0.4,0.5-0.5,0.7C146.5,96.4,146.4,96.4,146.4,96.6z"/>
	<path class="st5" d="M147.2,92.6c0,0,0.5,0.4,1.1,0.8c0.6,0.4,1.2,0.7,1.2,0.7s-0.5-0.4-1.1-0.8C147.7,93,147.2,92.6,147.2,92.6z"
		/>
	<path class="st5" d="M145.7,94.2c0.3-0.2,0.5-0.5,0.8-0.7s0.5-0.5,0.7-0.8c-0.3,0.2-0.5,0.5-0.8,0.7
		C146.2,93.7,146,93.9,145.7,94.2z"/>
	<path class="st7" d="M145.4,94.2H145c-0.3,0-0.6-0.1-0.9-0.3c-0.1-0.1-0.3-0.1-0.4-0.2c-0.5-0.2-1.1-0.2-1.7-0.2
		c-0.9,0-1.9-0.3-2.7-0.7l-0.1-0.1c-0.1-0.2,0.1-0.3,0.2-0.4c0.7-0.5,1.5-0.9,2.3-1.1c0.8-0.2,1.8-0.2,2.5,0.3
		S145.2,93.2,145.4,94.2"/>
	<path class="st5" d="M139.1,92.6L139.1,92.6l0.3-0.1c0.2-0.1,0.4-0.2,0.8-0.4c0.4-0.2,0.8-0.3,1.2-0.5c0.5-0.1,1-0.2,1.5-0.1
		s1,0.3,1.4,0.6c0.3,0.3,0.6,0.6,0.7,1c0.1,0.3,0.2,0.5,0.3,0.8c0,0.1,0.1,0.2,0.1,0.2s0,0,0,0.1v-0.1c0-0.1,0-0.1-0.1-0.2
		c-0.1-0.3-0.2-0.5-0.3-0.8c-0.2-0.4-0.4-0.8-0.7-1c-0.4-0.3-0.9-0.6-1.4-0.6c-0.5-0.1-1.1,0-1.6,0.1c-0.4,0.1-0.8,0.3-1.2,0.5
		c-0.3,0.2-0.6,0.3-0.8,0.4L139.1,92.6L139.1,92.6z"/>
	<path class="st5" d="M140.1,93.1c0,0,0.6-0.4,1.3-0.8c0.7-0.5,1.3-0.9,1.2-0.9c-0.1,0-0.6,0.4-1.3,0.8
		C140.6,92.7,140.1,93.1,140.1,93.1z"/>
	<path class="st5" d="M140.7,91.4c0.3,0.1,0.6,0.1,0.8,0.1c-0.1,0-0.3,0-0.4,0C141,91.4,140.9,91.4,140.7,91.4z"/>
	<path class="st5" d="M143.2,91.1c0,0.1,0.1,0.2,0.2,0.3c0.1,0.1,0.1,0.2,0.2,0.3c0-0.1-0.1-0.2-0.2-0.3
		C143.4,91.3,143.3,91.2,143.2,91.1z"/>
	<path class="st5" d="M142.7,93.5c0.1,0,0.2-0.1,0.3-0.2c0.2-0.1,0.4-0.3,0.6-0.4c0.2-0.1,0.4-0.3,0.6-0.5c0.1-0.1,0.2-0.1,0.2-0.2
		c-0.1,0-0.2,0.1-0.3,0.2c-0.2,0.1-0.4,0.3-0.6,0.4c-0.2,0.1-0.5,0.3-0.6,0.4C142.9,93.4,142.8,93.4,142.7,93.5z"/>
	<path class="st7" d="M144.7,96c0.4-0.1,0.9,0.3,1,0.7c0.1,0.4-0.1,0.9-0.3,1.2c-0.4,0.9-1,1.7-1.7,2.3c-0.7,0.6-1.7,1-2.6,1
		c0.2-0.8,0-1.7,0-2.5c0.2-1.5,1.4-2.7,2.9-2.9C144.3,95.8,144.6,95.8,144.7,96"/>
	<path class="st5" d="M141.1,101.3L141.1,101.3c0.1-0.1,0.2-0.1,0.2-0.1c0.2-0.2,0.3-0.3,0.4-0.5c0.1-0.1,0.1-0.3,0.2-0.4
		c0.1-0.2,0.1-0.3,0.2-0.5c0.1-0.2,0.2-0.4,0.3-0.5c0.1-0.2,0.2-0.4,0.4-0.5c0.3-0.3,0.6-0.6,0.9-0.9c0.2-0.2,0.5-0.5,0.7-0.8
		c0.1-0.2,0.2-0.4,0.3-0.6c0-0.1,0-0.1,0.1-0.2c0,0,0,0,0-0.1c0,0,0,0.1-0.1,0.2c-0.1,0.2-0.2,0.4-0.3,0.6c-0.2,0.3-0.4,0.5-0.7,0.8
		c-0.3,0.3-0.6,0.6-0.9,0.9c-0.1,0.2-0.3,0.3-0.4,0.5c-0.1,0.2-0.2,0.4-0.3,0.5l-0.2,0.5c-0.1,0.2-0.1,0.3-0.2,0.4
		c-0.1,0.2-0.2,0.4-0.4,0.6C141.2,101.2,141.1,101.3,141.1,101.3z"/>
	<path class="st5" d="M143.3,100.6c0-0.1,0-0.2,0-0.3c0-0.2-0.1-0.4-0.2-0.7c-0.1-0.3-0.2-0.5-0.2-0.7c0-0.1-0.1-0.2-0.1-0.3
		c0,0.1,0,0.2,0.1,0.3c0,0.2,0.1,0.4,0.2,0.7c0.1,0.3,0.1,0.5,0.2,0.7C143.2,100.4,143.2,100.5,143.3,100.6z"/>
	<path class="st5" d="M141.2,98.6c0.1,0,0.2,0,0.3-0.1c0.2,0,0.4-0.1,0.7-0.2c0.3-0.1,0.5-0.1,0.7-0.1c0.1,0,0.2,0,0.3-0.1
		c-0.1,0-0.2,0-0.3,0c-0.2,0-0.4,0.1-0.7,0.1c-0.3,0.1-0.5,0.1-0.7,0.2C141.4,98.5,141.3,98.5,141.2,98.6z"/>
	<path class="st5" d="M144.8,99.1c0-0.1,0-0.2,0-0.3c0-0.2-0.1-0.5-0.2-0.8c-0.1-0.3-0.2-0.6-0.2-0.8c0-0.1-0.1-0.2-0.1-0.3
		c0,0.1,0,0.2,0.1,0.3c0.1,0.2,0.1,0.5,0.2,0.8c0.1,0.3,0.1,0.6,0.2,0.8C144.8,98.9,144.8,99,144.8,99.1z"/>
	<path class="st5" d="M142.2,96.8c0,0,0.5,0,1.2-0.1c0.4,0,0.8-0.1,1.2-0.2c0,0-0.5,0-1.2,0.1C142.9,96.7,142.5,96.7,142.2,96.8z"/>
	<path class="st6" d="M142.5,103.1c0,0,1.8,0,4.1,0c2.3,0,4.1,0,4.1,0s-1.8,0-4.1,0C144.3,103.1,142.5,103.1,142.5,103.1z"/>
	<path class="st6" d="M143.8,105.5c0,0,1.2,0,2.8,0c1.6,0,2.8,0,2.8,0s-1.2,0-2.8,0C145,105.5,143.8,105.5,143.8,105.5z"/>
	<path class="st6" d="M143.9,105.9c0,0,1.2,0,2.7,0s2.7,0,2.7,0s-1.2,0-2.7,0S143.9,105.8,143.9,105.9z"/>
	<path class="st6" d="M143.8,105.2c0,0,1.3,0,2.9,0c1.6,0,2.9,0,2.9,0s-1.3,0-2.9,0C145.1,105.2,143.8,105.2,143.8,105.2z"/>
</g>
<g id="freepik--Device--inject-25">
	<path class="st5" d="M153.6,118.1h-13.7c-1.6,0-3-1.3-3-3l0,0V80.5c0-1.7,1.3-3,3-3h13.7c1.6,0,3,1.3,3,3v34.6
		C156.6,116.7,155.2,118.1,153.6,118.1L153.6,118.1z"/>
	<path class="st3" d="M153.6,78.7h-2.7c-0.4,0-0.7,0.3-0.7,0.7v0.5c0,0.4-0.3,0.7-0.7,0.7h-5.2c-0.4,0-0.7-0.3-0.7-0.7l0,0v-0.5
		c0-0.4-0.3-0.7-0.7-0.7h-3.3c-1.2,0-2.1,0.9-2.1,2.1l0,0v33.7c0,1.2,0.9,2.1,2.1,2.1l0,0h13.7c1.2,0,2.1-0.9,2.1-2.1l0,0V80.8
		C155.7,79.7,154.7,78.7,153.6,78.7L153.6,78.7z"/>
	<path class="st5" d="M145.5,115.2c0,0.1-0.1,0.3-0.3,0.3c-0.1,0-0.3-0.1-0.3-0.3c0-0.1,0.1-0.3,0.3-0.3l0,0
		C145.3,114.9,145.5,115.1,145.5,115.2L145.5,115.2z"/>
	<path class="st2" d="M146.9,115.2c0,0.1-0.1,0.3-0.3,0.3c-0.1,0-0.3-0.1-0.3-0.3c0-0.1,0.1-0.3,0.3-0.3
		C146.8,114.9,146.9,115.1,146.9,115.2L146.9,115.2z"/>
	<path class="st2" d="M148.4,115.2c0,0.1-0.1,0.3-0.3,0.3c-0.1,0-0.3-0.1-0.3-0.3c0-0.1,0.1-0.3,0.3-0.3
		C148.3,114.9,148.4,115,148.4,115.2L148.4,115.2z"/>
	<path class="st5" d="M139.6,83.4L139.6,83.4L139.6,83.4h0.4l0,0c0-0.1,0-0.2,0-0.2v-0.1c0-0.1,0.1-0.1,0.1-0.1c0.1,0,0.1,0,0.2,0
		c0.1,0,0.1,0.1,0.1,0.1c0,0.1,0,0.2,0,0.4l0,0h0.4l0,0c0-0.2,0-0.3,0-0.5v-0.1c0,0,0-0.1-0.1-0.1c-0.1-0.1-0.1-0.1-0.2-0.2
		l-0.2-0.2l-0.1-0.1c0,0,0-0.1-0.1-0.1H140c0,0,0,0-0.1,0.1l-0.2,0.2c-0.1,0.1-0.2,0.2-0.3,0.3c0,0,0,0.1,0,0.2v0.1
		c0,0.1,0,0.2,0,0.2S139.6,83.3,139.6,83.4L139.6,83.4L139.6,83.4c0-0.1,0-0.1,0-0.2c0-0.1,0-0.1,0-0.2c0,0,0-0.1,0-0.2v-0.1v-0.1
		c0.1-0.1,0.2-0.2,0.3-0.3l0.1-0.2c0,0,0,0,0.1-0.1h0.1c0,0,0.1,0,0.1,0.1l0.1,0.1l0.2,0.2l0.2,0.2l0.1,0.1v0.1c0,0.2,0,0.4,0,0.5
		l0,0l0,0h-0.4l0,0l0,0c0-0.1,0-0.2,0-0.4c0,0,0-0.1-0.1-0.1c-0.1,0-0.1,0-0.2,0c0,0-0.1,0-0.1,0.1V83c0,0.1,0,0.2,0,0.2l0,0l0,0
		h-0.3L139.6,83.4L139.6,83.4z"/>
	<path class="st1" d="M154.8,85.1L154.8,85.1c0.1,0,0.2,0.1,0.2,0.2v29.4c0,0.1-0.1,0.2-0.2,0.2l0,0c-0.1,0-0.2-0.1-0.2-0.2V85.3
		C154.6,85.2,154.7,85.1,154.8,85.1z"/>
	<path class="st2" d="M154.8,86.5L154.8,86.5c0.1,0,0.2,0.1,0.2,0.1v2.1c0,0.1-0.1,0.1-0.1,0.1l0,0c-0.1,0-0.1-0.1-0.1-0.1V86.5
		C154.6,86.5,154.7,86.5,154.8,86.5z"/>
	<path class="st3" d="M139.7,84.9h13.9c0.3,0,0.5,0.2,0.5,0.5v5.4c0,0.3-0.2,0.5-0.5,0.5h-13.9c-0.3,0-0.5-0.2-0.5-0.5v-5.4
		C139.2,85.2,139.4,84.9,139.7,84.9z"/>
	<path class="st7" d="M139.7,84.9h7.1l0,0v6.4l0,0h-7.1c-0.3,0-0.5-0.2-0.5-0.5v-5.5C139.2,85.2,139.4,84.9,139.7,84.9z"/>
	<g class="st9">
		<path d="M145.4,88.4c0.2-0.2,0.3-0.4,0.4-0.7c0.1-0.2,0.1-0.4,0-0.5c-0.1-0.1-0.2-0.2-0.3-0.2c-0.5-0.2-0.9-0.4-1.4-0.5l-3.6,1.3
			c-0.1,0.3,0.1,0.6,0.4,0.7c0.1,0,0.3,0,0.4-0.1c0.1,0.7,0.1,1.5-0.2,2.1c0,0.1-0.1,0.2,0,0.3c0.1,0.1,0.2,0.1,0.3,0.1h3.6
			c0.2,0,0.4,0,0.5-0.1s0.1-0.4,0-0.5l-0.4-1.4c0-0.1,0-0.2,0-0.2C145.2,88.5,145.3,88.5,145.4,88.4z"/>
	</g>
	<path class="st3" d="M144.9,90.2l-0.3-1.2l0.1-1.2l0.1-1.7L144,86c-0.6,0.3-1.5,0.5-2.2,0.2c0,0-0.3,0-0.5,0.2
		c-0.1,0.1,0,0.6,0.1,1c0.1,0.5,0.4,1.8,0.4,1.8s-0.4,1.1-0.5,1.4c0,0,2.8-0.5,3.7,0C144.9,90.5,145.1,90.5,144.9,90.2z"/>
	<path class="st3" d="M140.2,86.9l1-0.6l0.3,1.4l-0.5,0.4C141,88.1,140.2,87.7,140.2,86.9z"/>
	<path class="st3" d="M144.7,86l1.1,0.5c0,0-0.3,1.3-0.5,1.5l-0.5-0.2l-0.1,0.4v-1.7V86z"/>
	<path class="st2" d="M141.1,88L141.1,88c-0.1,0-0.1-0.1-0.2-0.1c-0.1-0.1-0.3-0.2-0.4-0.4c0-0.1-0.1-0.2-0.1-0.3
		c0-0.1,0-0.2-0.1-0.2c0,0,0-0.1,0-0.2c0,0,0,0,0-0.1c0,0,0,0.1,0,0.2s0,0.2,0.1,0.2c0,0.1,0.1,0.2,0.1,0.2c0.1,0.1,0.2,0.3,0.3,0.4
		C141,88,141.1,88,141.1,88z"/>
	<path class="st2" d="M141.4,87.5L141.4,87.5C141.3,87.5,141.3,87.4,141.4,87.5c-0.2-0.2-0.3-0.3-0.3-0.4s-0.1-0.2-0.2-0.3
		c0,0,0-0.1-0.1-0.2c0,0,0,0.1,0.1,0.1c0.1,0.1,0.1,0.2,0.2,0.3c0.1,0.1,0.2,0.2,0.2,0.3C141.3,87.4,141.3,87.4,141.4,87.5
		L141.4,87.5z"/>
	<path class="st2" d="M144.6,86.1h-0.1c-0.1,0-0.2,0-0.3,0.1l-0.5,0.2c-0.2,0.1-0.4,0.1-0.6,0.1c-0.4,0-0.8,0-1.2-0.1
		c-0.1,0-0.2-0.1-0.3-0.1h-0.1l0,0c0,0,0.1,0,0.1,0.1c0.1,0,0.2,0.1,0.3,0.1c0.4,0.1,0.8,0.2,1.2,0.1c0.2,0,0.4-0.1,0.6-0.1
		c0.2-0.1,0.4-0.1,0.5-0.2c0.1-0.1,0.3-0.1,0.3-0.1C144.5,86.1,144.5,86.1,144.6,86.1L144.6,86.1z"/>
	<path class="st2" d="M144.7,87.1L144.7,87.1L144.7,87.1c-0.2,0-0.3,0-0.5,0c-0.4,0-0.8,0.1-1.2,0.1c-0.5,0-0.9,0-1.2,0h-0.4h-0.1
		l0,0l0,0h0.1h0.4c0.3,0,0.7,0,1.2,0s0.9,0,1.2,0C144.4,87.2,144.5,87.2,144.7,87.1L144.7,87.1L144.7,87.1z"/>
	<path class="st2" d="M144.7,87.8L144.7,87.8h-0.2c0,0-0.1,0-0.2,0c-0.4,0.1-0.7,0.1-1.1,0.1c-0.4,0-0.8,0-1.1,0c-0.1,0-0.3,0-0.3,0
		h-0.1h0.1c0.1,0,0.2,0,0.3,0c0.3,0,0.7,0,1.1,0c0.4,0,0.7,0,1.1-0.1c0.1,0,0.1,0,0.2,0S144.6,87.8,144.7,87.8
		C144.6,87.8,144.6,87.8,144.7,87.8z"/>
	<path class="st2" d="M144.6,88.6h-0.1c-0.1,0-0.2,0-0.3,0c-0.3,0-0.6,0-1,0c-0.4,0-0.8,0-1,0c-0.1,0-0.2,0-0.3,0h-0.1h0.1
		c0.1,0,0.2,0,0.3,0c0.3,0,0.6,0,1,0c0.4,0,0.8,0,1,0h0.3C144.5,88.6,144.5,88.6,144.6,88.6z"/>
	<path class="st2" d="M144.7,89.5L144.7,89.5h-0.4c-0.3,0-0.7,0-1.1,0c-0.4,0-0.8,0-1.1,0h-0.3h-0.1h0.1c0.1,0,0.2,0,0.3,0
		c0.3,0,0.7,0,1.1,0c0.4,0,0.8,0,1.1,0C144.4,89.5,144.6,89.5,144.7,89.5C144.7,89.5,144.7,89.5,144.7,89.5z"/>
	<path class="st2" d="M145.1,86.4c0,0.1-0.1,0.2-0.1,0.3c0,0.1-0.1,0.2-0.2,0.3c0,0,0.1-0.1,0.2-0.3S145.1,86.4,145.1,86.4z"/>
	<path class="st5" d="M141.3,86.8C141.3,86.8,141.3,86.9,141.3,86.8c0,0.2,0.1,0.2,0.1,0.3c0,0.2,0.1,0.5,0.2,0.8
		c0.1,0.3,0.1,0.6,0.2,0.8c0,0.1,0,0.2,0,0.2V89v-0.1c0-0.1,0-0.1,0-0.2c0-0.2-0.1-0.5-0.2-0.8c-0.1-0.3-0.1-0.6-0.2-0.8
		C141.4,87,141.4,86.9,141.3,86.8C141.3,86.9,141.3,86.8,141.3,86.8z"/>
	<path class="st5" d="M144.7,87.2L144.7,87.2c0,0.1,0,0.2,0,0.3c0,0.2,0,0.4,0,0.6c0,0.2,0,0.5,0,0.6c0,0.1,0,0.1,0,0.2
		c0,0,0,0,0,0.1c0,0,0,0,0-0.1c0,0,0-0.1,0-0.2c0-0.2,0-0.4,0-0.6c0-0.2,0-0.5,0-0.6S144.7,87.3,144.7,87.2L144.7,87.2z"/>
	<path class="st2" d="M145.5,86.4c0,0.1,0,0.1-0.1,0.2c-0.1,0.1-0.1,0.3-0.2,0.5c-0.1,0.2-0.1,0.4-0.1,0.5s0,0.1,0,0.2
		c0,0,0,0,0-0.1c0,0,0-0.1,0-0.2c0-0.2,0.1-0.4,0.1-0.5c0.1-0.2,0.1-0.3,0.2-0.5C145.4,86.5,145.4,86.5,145.5,86.4L145.5,86.4z"/>
	<path class="st2" d="M144.9,90.2L144.9,90.2L144.9,90.2c-0.1,0-0.2,0-0.3,0c-0.1,0-0.1,0-0.2,0c-0.1,0-0.2,0-0.3,0
		c-0.1,0-0.2,0-0.3,0c-0.5,0-1,0-1.5,0.1c-0.1,0-0.2,0-0.3,0.1c-0.1,0-0.2,0-0.3,0.1c-0.1,0.1-0.2,0-0.2,0.1c-0.1,0-0.1,0-0.2,0.1
		h-0.1l0,0l0,0h0.1c0,0,0.1,0,0.2-0.1c0.1-0.1,0.1-0.1,0.2-0.1c0.1,0,0.2-0.1,0.3-0.1s0.2,0,0.3-0.1c0.5-0.1,1-0.1,1.5-0.1
		c0.1,0,0.2,0,0.3,0c0.1,0,0.2,0,0.3,0c0.1,0,0.2,0,0.2,0S144.7,90.2,144.9,90.2L144.9,90.2L144.9,90.2z"/>
	<path class="st7" d="M146.8,91.4c0,0,0-1.4,0-3.2s0-3.2,0-3.2s0,1.4,0,3.2S146.8,91.4,146.8,91.4z"/>
	<path class="st7" d="M153.6,91.4C153.6,91.4,153.6,91.4,153.6,91.4c0.2,0,0.3-0.1,0.4-0.2c0-0.1,0.1-0.1,0.1-0.2c0-0.1,0-0.2,0-0.3
		c0-0.2,0-0.4,0-0.7c0-1.1,0-2.6,0-4.5c0-0.1,0-0.1,0-0.2c0-0.2-0.2-0.3-0.3-0.4c-0.1,0-0.2,0-0.4,0h-2h-3.6h-8.1
		c-0.2,0-0.3,0.1-0.4,0.2c0,0.1-0.1,0.2-0.1,0.2v1.3c0,0.7,0,1.4,0,2.1v2c0,0.2,0.1,0.3,0.2,0.4c0.1,0,0.1,0.1,0.2,0.1
		c0.1,0,0.2,0,0.2,0h0.9h6.6h4.5h1.2h0.3L153.6,91.4c0,0,0,0-0.1,0h-0.3H152h-4.5h-6.6H140c-0.1,0-0.2,0-0.2,0c-0.1,0-0.2,0-0.2-0.1
		c-0.1-0.1-0.2-0.3-0.2-0.4c0-0.7,0-1.3,0-2v-3.4c0-0.3,0.2-0.5,0.6-0.5h8.1h3.6h1.3h0.6c0.1,0,0.1,0,0.2,0c0.2,0.1,0.3,0.2,0.4,0.4
		c0,0.1,0,0.1,0,0.2c0,1.9,0,3.4,0,4.5c0,0.3,0,0.5,0,0.7c0,0.1,0,0.2,0,0.3s-0.1,0.1-0.1,0.2c-0.1,0.1-0.2,0.1-0.3,0.2
		C153.7,91.4,153.6,91.4,153.6,91.4z"/>
	<path class="st7" d="M150.1,86.4c0,0-0.6,0-1.4,0s-1.4,0-1.4,0s0.6,0,1.4,0S150.1,86.4,150.1,86.4z"/>
	<path class="st7" d="M152.7,87.3c0,0-1.2,0-2.7,0s-2.7,0-2.7,0s1.2,0,2.7,0C151.5,87.2,152.7,87.2,152.7,87.3z"/>
	<path class="st7" d="M152.7,87.8c0,0-1.2,0-2.7,0s-2.7,0-2.7,0s1.2,0,2.7,0C151.5,87.7,152.7,87.7,152.7,87.8z"/>
	<path class="st7" d="M152.2,90.2c0-0.1,0-0.1-0.1-0.2l-0.1-0.1c-0.1,0-0.2,0-0.2,0.1c0,0,0,0-0.1-0.1c0,0-0.1,0-0.2,0
		c-0.1,0-0.1,0-0.1,0.1l-0.1,0.1c0,0.1,0,0.1,0,0.2c0,0.1,0.1,0.1,0.2,0.2l0.2,0.2c0,0,0.1-0.1,0.2-0.1c0.1,0,0.1-0.1,0.2-0.2
		C152.2,90.3,152.2,90.3,152.2,90.2z"/>
	<path class="st5" d="M151.7,90.7L151.7,90.7c0,0-0.1-0.1-0.2-0.2c-0.1,0-0.1-0.1-0.2-0.2c0-0.1,0-0.1,0-0.2s0-0.1,0.1-0.2l0.1-0.1
		c0.1,0,0.1,0,0.2,0c0,0,0,0,0.1,0.1c0.1-0.1,0.1-0.1,0.2-0.1c0.1,0,0.1,0,0.1,0.1c0,0,0.1,0.1,0.1,0.2s0,0.2,0,0.2
		c0,0.1-0.1,0.1-0.2,0.2C151.8,90.6,151.7,90.7,151.7,90.7L151.7,90.7z M151.5,90L151.5,90c-0.1,0-0.2,0.1-0.2,0.2
		c0,0.1,0,0.1,0,0.2s0.1,0.1,0.2,0.2c0.1,0.1,0.2,0.1,0.2,0.1s0.1-0.1,0.2-0.1c0.1,0,0.1-0.1,0.2-0.1c0-0.1,0-0.1,0-0.2l0,0
		c0,0,0-0.1-0.1-0.1l-0.1-0.1c-0.1,0-0.2,0-0.2,0.1l0,0l0,0c0,0,0,0-0.1-0.1C151.6,90,151.6,90,151.5,90L151.5,90z"/>
	<path class="st5" d="M153.4,90.6h-0.2h-0.4l0,0l0,0v-0.1c0-0.2,0-0.4-0.1-0.5l0,0h-0.1l0,0l0,0h0.2c0,0.1,0,0.3,0.1,0.5
		c0,0,0,0,0,0.1l0,0H153.4L153.4,90.6L153.4,90.6L153.4,90.6z"/>
	<path class="st5" d="M153.2,90.6h-0.4l0,0v-0.1l-0.1-0.5h-0.1l0,0l0,0h0.1l0,0l0,0l0.1,0.5l0,0h0.6l0,0l0,0L153.2,90.6L153.2,90.6z
		"/>
	<path class="st5" d="M152.8,90.4h0.2h0.4l0,0c0-0.1,0-0.2,0-0.2v-0.1l0,0h-0.5h-0.2h0.2h0.5l0,0l0,0v0.1c0,0.1,0,0.2,0,0.2l0,0l0,0
		H153H152.8L152.8,90.4L152.8,90.4z"/>
	<path class="st5" d="M153.4,90.4L153.4,90.4h-0.6l0,0l0,0l0,0h0.2H153.4V90h-0.7l0,0l0,0h0.2h0.5l0,0l0,0v0.1
		C153.4,90.2,153.4,90.2,153.4,90.4L153.4,90.4L153.4,90.4L153.4,90.4z"/>
	<path class="st5" d="M152.9,90.7L152.9,90.7L152.9,90.7L152.9,90.7C152.8,90.7,152.8,90.7,152.9,90.7
		C152.8,90.7,152.8,90.8,152.9,90.7C152.9,90.8,152.9,90.8,152.9,90.7L152.9,90.7L152.9,90.7L152.9,90.7
		C152.9,90.7,152.9,90.8,152.9,90.7C152.9,90.8,152.9,90.8,152.9,90.7C152.8,90.7,152.8,90.7,152.9,90.7
		C152.8,90.7,152.9,90.7,152.9,90.7L152.9,90.7L152.9,90.7L152.9,90.7z"/>
	<path class="st5" d="M152.9,90.8L152.9,90.8C152.8,90.8,152.8,90.8,152.9,90.8c-0.1-0.1,0-0.1,0-0.1l0,0
		C152.9,90.7,153,90.7,152.9,90.8L152.9,90.8L152.9,90.8C153,90.7,152.9,90.8,152.9,90.8L152.9,90.8z M152.9,90.7L152.9,90.7
		C152.9,90.7,152.8,90.7,152.9,90.7C152.8,90.7,152.9,90.8,152.9,90.7C152.9,90.8,152.9,90.8,152.9,90.7L152.9,90.7L152.9,90.7
		L152.9,90.7L152.9,90.7L152.9,90.7L152.9,90.7L152.9,90.7z"/>
	<path class="st5" d="M153.3,90.7L153.3,90.7L153.3,90.7L153.3,90.7c-0.1,0-0.1,0-0.1,0S153.2,90.8,153.3,90.7
		C153.3,90.8,153.3,90.8,153.3,90.7L153.3,90.7L153.3,90.7L153.3,90.7C153.3,90.7,153.3,90.8,153.3,90.7c0,0.1-0.1,0.1-0.1,0l0,0
		C153.2,90.7,153.2,90.7,153.3,90.7L153.3,90.7L153.3,90.7L153.3,90.7z"/>
	<path class="st5" d="M153.3,90.8L153.3,90.8C153.2,90.8,153.2,90.7,153.3,90.8c-0.1-0.1,0-0.1,0-0.1s0,0,0.1,0
		C153.3,90.7,153.3,90.7,153.3,90.8L153.3,90.8L153.3,90.8C153.3,90.7,153.3,90.8,153.3,90.8L153.3,90.8z M153.3,90.7L153.3,90.7
		C153.2,90.7,153.2,90.7,153.3,90.7C153.2,90.7,153.2,90.8,153.3,90.7C153.3,90.8,153.3,90.8,153.3,90.7L153.3,90.7L153.3,90.7
		L153.3,90.7L153.3,90.7L153.3,90.7L153.3,90.7L153.3,90.7L153.3,90.7z"/>
	<path class="st5" d="M153.6,90c0,0.1-0.1,0.2-0.2,0.2s-0.2-0.1-0.2-0.2s0.1-0.2,0.2-0.2S153.6,89.9,153.6,90L153.6,90z"/>
	<path class="st3" d="M153.5,90.1L153.5,90.1L153.5,90.1C153.5,90.1,153.5,90,153.5,90.1c0-0.1,0-0.2,0-0.2S153.5,90,153.5,90.1
		C153.5,90,153.5,90.1,153.5,90.1L153.5,90.1L153.5,90.1z"/>
	<path class="st3" d="M153.6,90C153.5,90,153.5,90,153.6,90c-0.1,0-0.2,0-0.2,0S153.4,90,153.6,90C153.5,90,153.5,90,153.6,90z"/>
	<path class="st7" d="M150,90.4c0,0-0.6,0-1.2,0c-0.7,0-1.2,0-1.2,0s0.6,0,1.2,0C149.4,90.4,150,90.4,150,90.4z"/>
	<path class="st1" d="M139.7,92.4h13.9c0.3,0,0.5,0.2,0.5,0.5v5.4c0,0.3-0.2,0.5-0.5,0.5h-13.9c-0.3,0-0.5-0.2-0.5-0.5v-5.4
		C139.2,92.6,139.4,92.4,139.7,92.4z"/>
	<path class="st3" d="M139.7,92.4h7.1l0,0v6.4l0,0h-7.1c-0.3,0-0.5-0.2-0.5-0.5v-5.5C139.2,92.6,139.4,92.4,139.7,92.4z"/>
	<path class="st2" d="M146.8,98.9c0,0,0-1.4,0-3.2c0-1.8,0-3.2,0-3.2s0,1.4,0,3.2S146.8,98.9,146.8,98.9z"/>
	<path class="st2" d="M153.6,98.8C153.6,98.8,153.6,98.8,153.6,98.8c0.2,0,0.3-0.1,0.4-0.2c0-0.1,0.1-0.1,0.1-0.2c0-0.1,0-0.2,0-0.3
		c0-0.2,0-0.4,0-0.7c0-1.1,0-2.6,0-4.5c0-0.1,0-0.1,0-0.2c0-0.2-0.2-0.3-0.3-0.4c-0.1,0-0.2,0-0.4,0h-2h-3.6h-8.1
		c-0.2,0-0.3,0.1-0.4,0.2c0,0.1-0.1,0.2-0.1,0.2V94c0,0.7,0,1.4,0,2.1v2c0,0.2,0.2,0.4,0.4,0.5c0.1,0,0.2,0,0.2,0h0.9h6.6h4.5h1.2
		h0.3L153.6,98.8h-0.1h-0.3H152h-4.5h-6.6H140c-0.1,0-0.2,0-0.2,0c-0.3,0-0.5-0.3-0.5-0.5c0-0.7,0-1.3,0-2v-3.4
		c0-0.3,0.3-0.5,0.6-0.5h8.1h3.6h1.4h0.6c0.1,0,0.1,0,0.2,0c0.2,0.1,0.3,0.2,0.4,0.4c0,0.1,0,0.1,0,0.2c0,1.9,0,3.4,0,4.5
		c0,0.3,0,0.5,0,0.7c0,0.1,0,0.2,0,0.3s-0.1,0.1-0.1,0.2c-0.1,0.1-0.2,0.1-0.3,0.2C153.7,98.8,153.6,98.8,153.6,98.8z"/>
	<path class="st5" d="M150.1,93.9c0,0-0.6,0-1.4,0s-1.4,0-1.4,0s0.6,0,1.4,0S150.1,93.9,150.1,93.9z"/>
	<path class="st2" d="M152.7,94.7c0,0-1.2,0-2.7,0s-2.7,0-2.7,0s1.2,0,2.7,0S152.7,94.7,152.7,94.7z"/>
	<path class="st2" d="M152.7,95.2c0,0-1.2,0-2.7,0s-2.7,0-2.7,0s1.2,0,2.7,0S152.7,95.2,152.7,95.2z"/>
	<path class="st7" d="M152.2,97.7c0-0.1,0-0.1-0.1-0.2l-0.1-0.1c-0.1,0-0.1,0-0.2,0c0,0-0.1,0-0.1,0.1c0,0,0,0-0.1-0.1
		c0,0-0.1,0-0.2,0c-0.1,0-0.1,0-0.1,0.1l-0.1,0.1c0,0.1,0,0.1,0,0.2c0,0.1,0.1,0.1,0.2,0.2c0.1,0.1,0.2,0.2,0.2,0.2s0.1-0.1,0.2-0.1
		c0.1,0,0.1-0.1,0.2-0.1C152.2,97.8,152.2,97.7,152.2,97.7z"/>
	<path class="st5" d="M151.7,98.2L151.7,98.2c0,0-0.1-0.1-0.2-0.2c-0.1,0-0.1-0.1-0.2-0.2c0-0.1,0-0.1,0-0.2s0-0.1,0.1-0.2l0.1-0.1
		c0.1,0,0.1,0,0.2,0c0,0,0,0,0.1,0.1c0,0,0,0,0.1-0.1c0.1,0,0.1,0,0.2,0c0.1,0,0.1,0,0.1,0.1c0,0,0.1,0.1,0.1,0.2s0,0.2,0,0.2
		c0,0.1-0.1,0.1-0.2,0.2C151.8,98.1,151.7,98.2,151.7,98.2L151.7,98.2z M151.5,97.4L151.5,97.4c-0.1,0-0.1,0-0.2,0.1l-0.1,0.1
		c0,0.1,0,0.1,0,0.2c0,0.1,0.1,0.1,0.2,0.2c0.1,0.1,0.2,0.1,0.2,0.1s0.1-0.1,0.2-0.1c0.1,0,0.1-0.1,0.2-0.1c0-0.1,0-0.1,0-0.2l0,0
		c0,0,0-0.1-0.1-0.1l-0.1-0.1c0,0-0.1,0-0.2,0c0,0,0,0-0.1,0.1l0,0l0,0C151.5,97.6,151.5,97.6,151.5,97.4
		C151.6,97.4,151.6,97.4,151.5,97.4L151.5,97.4z"/>
	<path class="st5" d="M153.4,98h-0.2h-0.4l0,0l0,0v-0.1c0-0.2,0-0.4-0.1-0.5l0,0h-0.1h0.1l0,0l0.1,0.5c0,0,0,0,0,0.1l0,0h0.4H153.4
		L153.4,98L153.4,98z"/>
	<path class="st5" d="M153.2,98h-0.4l0,0l-0.1-0.6h-0.1l0,0l0,0h0.1l0,0l0,0l0.1,0.5l0,0h0.6l0,0l0,0L153.2,98L153.2,98z"/>
	<path class="st5" d="M152.8,97.9h0.2h0.4l0,0c0-0.1,0-0.2,0-0.3v-0.1l0,0h-0.5h-0.2h0.2h0.5l0,0l0,0v0.1c0,0.1,0,0.2,0,0.3l0,0l0,0
		H153H152.8L152.8,97.9L152.8,97.9z"/>
	<path class="st5" d="M153.4,97.9L153.4,97.9h-0.6l0,0l0,0l0,0h0.2H153.4v-0.4h-0.7l0,0l0,0h0.2h0.5l0,0l0,0v0.1
		C153.4,97.7,153.4,97.7,153.4,97.9L153.4,97.9L153.4,97.9z"/>
	<path class="st5" d="M152.9,98.2L152.9,98.2C152.9,98.2,152.9,98.1,152.9,98.2C152.9,98.1,152.8,98.1,152.9,98.2L152.9,98.2
		C152.8,98.2,152.8,98.2,152.9,98.2L152.9,98.2L152.9,98.2L152.9,98.2L152.9,98.2L152.9,98.2C152.9,98.3,152.8,98.3,152.9,98.2
		L152.9,98.2C152.8,98.2,152.8,98.1,152.9,98.2C152.9,98.1,152.9,98.1,152.9,98.2C152.9,98.1,152.9,98.2,152.9,98.2L152.9,98.2z"/>
	<path class="st5" d="M152.9,98.2L152.9,98.2C152.8,98.2,152.8,98.2,152.9,98.2C152.8,98.1,152.9,98.1,152.9,98.2
		c0-0.1,0-0.1,0.1-0.1C152.9,98.1,153,98.1,152.9,98.2L152.9,98.2L152.9,98.2C153,98.2,152.9,98.2,152.9,98.2S152.9,98.3,152.9,98.2
		z M152.9,98.1L152.9,98.1C152.9,98.1,152.8,98.2,152.9,98.1C152.8,98.2,152.9,98.2,152.9,98.1C152.9,98.2,152.9,98.2,152.9,98.1
		C152.9,98.2,152.9,98.2,152.9,98.1L152.9,98.1L152.9,98.1L152.9,98.1L152.9,98.1C152.9,98.2,152.9,98.1,152.9,98.1L152.9,98.1
		L152.9,98.1z"/>
	<path class="st5" d="M153.3,98.2L153.3,98.2L153.3,98.2C153.3,98.1,153.3,98.1,153.3,98.2c-0.1,0-0.1,0-0.1,0
		S153.2,98.2,153.3,98.2L153.3,98.2L153.3,98.2L153.3,98.2L153.3,98.2L153.3,98.2L153.3,98.2c-0.1,0-0.1,0-0.1,0
		S153.2,98.1,153.3,98.2C153.3,98.1,153.3,98.1,153.3,98.2L153.3,98.2L153.3,98.2z"/>
	<path class="st5" d="M153.3,98.3L153.3,98.3C153.2,98.2,153.2,98.2,153.3,98.3c-0.1-0.1,0-0.1,0-0.1s0,0,0.1,0
		C153.3,98.1,153.3,98.2,153.3,98.3L153.3,98.3L153.3,98.3C153.3,98.2,153.3,98.2,153.3,98.3C153.3,98.2,153.3,98.3,153.3,98.3z
		 M153.3,98.1L153.3,98.1C153.2,98.2,153.2,98.2,153.3,98.1C153.2,98.2,153.2,98.2,153.3,98.1C153.3,98.2,153.3,98.2,153.3,98.1
		C153.3,98.2,153.3,98.2,153.3,98.1L153.3,98.1L153.3,98.1L153.3,98.1L153.3,98.1C153.3,98.2,153.3,98.2,153.3,98.1L153.3,98.1
		L153.3,98.1z"/>
	<path class="st5" d="M153.6,97.4c0,0.1-0.1,0.2-0.2,0.2s-0.2-0.1-0.2-0.2s0.1-0.2,0.2-0.2C153.5,97.3,153.6,97.4,153.6,97.4
		L153.6,97.4z"/>
	<path class="st3" d="M153.5,97.5L153.5,97.5L153.5,97.5L153.5,97.5c0-0.1,0-0.2,0-0.2C153.5,97.4,153.5,97.4,153.5,97.5L153.5,97.5
		L153.5,97.5L153.5,97.5z"/>
	<path class="st3" d="M153.6,97.5C153.5,97.5,153.5,97.5,153.6,97.5c-0.1,0-0.2,0-0.2,0C153.4,97.4,153.4,97.4,153.6,97.5
		C153.5,97.5,153.5,97.5,153.6,97.5z"/>
	<path class="st5" d="M150,97.9c-0.4,0-0.8,0-1.2,0c-0.4,0-0.8,0-1.2,0c0,0,0.6,0,1.2,0C149.4,97.8,150,97.8,150,97.9z"/>
	<path class="st1" d="M139.7,99.8h13.9c0.3,0,0.5,0.2,0.5,0.5v5.4c0,0.3-0.2,0.5-0.5,0.5h-13.9c-0.3,0-0.5-0.2-0.5-0.5v-5.4
		C139.2,100,139.4,99.8,139.7,99.8z"/>
	<path class="st3" d="M139.7,99.8h7.1l0,0v6.4l0,0h-7.1c-0.3,0-0.5-0.2-0.5-0.5v-5.5C139.2,100,139.4,99.8,139.7,99.8z"/>
	<path class="st2" d="M146.8,106.3c0,0,0-1.4,0-3.2s0-3.2,0-3.2s0,1.4,0,3.2C146.8,104.8,146.8,106.3,146.8,106.3z"/>
	<path class="st2" d="M153.6,106.2C153.6,106.2,153.6,106.2,153.6,106.2c0.3,0,0.4-0.2,0.5-0.4c0-0.1,0-0.2,0-0.3c0-0.2,0-0.4,0-0.7
		c0-1.1,0-2.6,0-4.5c0-0.1,0-0.1,0-0.2c0-0.2-0.2-0.3-0.3-0.4c-0.1,0-0.2,0-0.4,0h-2h-3.6h-8.1c-0.3,0-0.5,0.2-0.5,0.5v1.3
		c0,0.7,0,1.4,0,2.1v2c0,0.2,0.1,0.3,0.2,0.4c0.1,0,0.1,0.1,0.2,0.1c0.1,0,0.2,0,0.2,0h0.9h6.6h4.5h1.2h0.3L153.6,106.2h-0.1h-0.3
		H152h-4.5h-6.6H140c-0.1,0-0.2,0-0.2,0c-0.3,0-0.5-0.3-0.5-0.5c0-0.7,0-1.3,0-2v-3.4c0-0.3,0.3-0.5,0.6-0.5h8.1h3.6h2.2
		c0.1,0,0.1,0,0.2,0c0.2,0.1,0.3,0.2,0.4,0.4c0,0.1,0,0.1,0,0.2c0,1.9,0,3.4,0,4.5c0,0.3,0,0.5,0,0.7c0,0.1,0,0.2,0,0.3
		s-0.1,0.1-0.1,0.2c-0.1,0.1-0.2,0.1-0.3,0.2C153.7,106.2,153.6,106.2,153.6,106.2z"/>
	<path class="st5" d="M150.1,101.2c0,0-0.6,0-1.4,0s-1.4,0-1.4,0s0.6,0,1.4,0S150.1,101.2,150.1,101.2z"/>
	<path class="st2" d="M152.7,102.1c0,0-1.2,0-2.7,0s-2.7,0-2.7,0s1.2,0,2.7,0C151.5,102,152.7,102.1,152.7,102.1z"/>
	<path class="st2" d="M152.7,102.6c0,0-1.2,0-2.7,0s-2.7,0-2.7,0s1.2,0,2.7,0C151.5,102.5,152.7,102.6,152.7,102.6z"/>
	<path class="st7" d="M152.2,105c0-0.1,0-0.1-0.1-0.2l-0.1-0.1c-0.1,0-0.2,0-0.2,0.1c0,0,0,0-0.1-0.1c0,0-0.1,0-0.2,0
		c-0.1,0-0.1,0-0.1,0.1l-0.1,0.1c0,0.1,0,0.1,0,0.2s0.1,0.1,0.2,0.2l0.2,0.2c0,0,0.1-0.1,0.2-0.1c0.1,0,0.1-0.1,0.2-0.2
		C152.2,105.2,152.2,105.1,152.2,105z"/>
	<path class="st5" d="M151.7,105.5L151.7,105.5c0,0-0.1-0.1-0.2-0.2c-0.1,0-0.1-0.1-0.2-0.2c0-0.1,0-0.1,0-0.2c0-0.1,0-0.1,0.1-0.2
		l0.1-0.1c0.1,0,0.1,0,0.2,0c0,0,0,0,0.1,0.1c0,0,0,0,0.1-0.1c0,0,0.1,0,0.2,0c0.1,0,0.1,0,0.1,0.1c0,0,0.1,0.1,0.1,0.2
		c0,0.1,0,0.2,0,0.2c0,0.1-0.1,0.1-0.2,0.2C151.8,105.4,151.7,105.5,151.7,105.5L151.7,105.5z M151.5,104.8L151.5,104.8
		c-0.1,0-0.1,0-0.2,0.1l-0.1,0.1c0,0.1,0,0.1,0,0.2c0,0.1,0.1,0.1,0.2,0.2c0.1,0.1,0.2,0.1,0.2,0.1s0.1-0.1,0.2-0.1
		c0.1,0,0.1-0.1,0.2-0.1c0-0.1,0-0.1,0-0.2l0,0c0,0,0-0.1-0.1-0.1l-0.1-0.1c-0.1,0-0.2,0-0.2,0.1l0,0l0,0
		C151.6,105,151.6,105,151.5,104.8C151.6,104.8,151.6,104.8,151.5,104.8L151.5,104.8z"/>
	<path class="st5" d="M153.4,105.4h-0.2h-0.4l0,0l0,0v-0.1c0-0.2,0-0.4-0.1-0.5l0,0h-0.1h0.1l0,0c0,0.1,0,0.3,0.1,0.5c0,0,0,0,0,0.1
		l0,0h0.4H153.4L153.4,105.4L153.4,105.4z"/>
	<path class="st5" d="M153.2,105.4h-0.4l0,0l-0.1-0.6h-0.1l0,0l0,0h0.1l0,0l0,0l0.1,0.5l0,0h0.6l0,0l0,0L153.2,105.4L153.2,105.4z"
		/>
	<path class="st5" d="M152.8,105.2h0.2h0.4l0,0c0-0.1,0-0.2,0-0.2v-0.1l0,0h-0.5h-0.2h0.2h0.5l0,0l0,0v0.1c0,0.1,0,0.2,0,0.3l0,0
		l0,0H153L152.8,105.2L152.8,105.2L152.8,105.2z"/>
	<path class="st5" d="M153.4,105.3L153.4,105.3H153h-0.1l0,0l0,0l0,0l0,0h0.1H153.4v-0.4h-0.6h-0.1h-0.1l0,0l0,0h0.1h0.3h0.4l0,0
		l0,0v0.1L153.4,105.3L153.4,105.3z"/>
	<path class="st5" d="M152.9,105.5L152.9,105.5L152.9,105.5L152.9,105.5C152.8,105.5,152.8,105.5,152.9,105.5
		C152.8,105.6,152.8,105.6,152.9,105.5C152.9,105.6,152.9,105.6,152.9,105.5C152.9,105.6,152.9,105.6,152.9,105.5L152.9,105.5
		L152.9,105.5C152.9,105.6,152.9,105.6,152.9,105.5C152.9,105.6,152.9,105.6,152.9,105.5C152.8,105.5,152.8,105.5,152.9,105.5
		C152.8,105.5,152.8,105.5,152.9,105.5L152.9,105.5L152.9,105.5L152.9,105.5z"/>
	<path class="st5" d="M152.9,105.6L152.9,105.6C152.8,105.6,152.8,105.6,152.9,105.6C152.8,105.5,152.9,105.5,152.9,105.6
		c0-0.1,0-0.1,0.1-0.1C152.9,105.5,153,105.5,152.9,105.6L152.9,105.6L152.9,105.6C153,105.6,152.9,105.6,152.9,105.6L152.9,105.6z
		 M152.9,105.5L152.9,105.5C152.9,105.5,152.8,105.5,152.9,105.5C152.8,105.6,152.9,105.6,152.9,105.5
		C152.9,105.6,152.9,105.6,152.9,105.5C152.9,105.6,152.9,105.6,152.9,105.5L152.9,105.5L152.9,105.5L152.9,105.5L152.9,105.5
		L152.9,105.5L152.9,105.5z"/>
	<path class="st5" d="M153.3,105.5L153.3,105.5L153.3,105.5L153.3,105.5c-0.1,0-0.1,0-0.1,0S153.2,105.6,153.3,105.5
		C153.3,105.6,153.3,105.6,153.3,105.5C153.3,105.6,153.3,105.6,153.3,105.5L153.3,105.5L153.3,105.5
		C153.3,105.6,153.3,105.6,153.3,105.5C153.3,105.6,153.3,105.6,153.3,105.5c-0.1,0-0.1,0-0.1,0S153.2,105.5,153.3,105.5
		L153.3,105.5L153.3,105.5L153.3,105.5z"/>
	<path class="st5" d="M153.3,105.6L153.3,105.6C153.2,105.6,153.2,105.6,153.3,105.6C153.2,105.5,153.3,105.5,153.3,105.6
		C153.3,105.5,153.3,105.5,153.3,105.6C153.3,105.5,153.3,105.5,153.3,105.6L153.3,105.6L153.3,105.6L153.3,105.6L153.3,105.6z
		 M153.3,105.5L153.3,105.5C153.2,105.5,153.2,105.5,153.3,105.5C153.2,105.6,153.2,105.6,153.3,105.5
		C153.3,105.6,153.3,105.6,153.3,105.5C153.3,105.6,153.3,105.6,153.3,105.5L153.3,105.5L153.3,105.5L153.3,105.5L153.3,105.5
		L153.3,105.5L153.3,105.5L153.3,105.5z"/>
	<path class="st5" d="M153.6,104.8c0,0.1-0.1,0.2-0.2,0.2s-0.2-0.1-0.2-0.2c0-0.1,0.1-0.2,0.2-0.2S153.6,104.7,153.6,104.8z"/>
	<path class="st3" d="M153.5,104.9L153.5,104.9L153.5,104.9L153.5,104.9c0-0.1,0-0.2,0-0.2C153.5,104.8,153.5,104.8,153.5,104.9
		L153.5,104.9L153.5,104.9L153.5,104.9z"/>
	<path class="st3" d="M153.6,104.8C153.5,104.8,153.5,104.8,153.6,104.8c-0.1,0-0.2,0-0.2,0S153.5,104.8,153.6,104.8L153.6,104.8z"
		/>
	<path class="st5" d="M150,105.2c0,0-0.6,0-1.2,0c-0.7,0-1.2,0-1.2,0s0.6,0,1.2,0C149.4,105.2,150,105.2,150,105.2z"/>
	<path class="st1" d="M139.7,107.2h13.9c0.3,0,0.5,0.2,0.5,0.5v5.4c0,0.3-0.2,0.5-0.5,0.5h-13.9c-0.3,0-0.5-0.2-0.5-0.5v-5.4
		C139.2,107.4,139.4,107.2,139.7,107.2z"/>
	<path class="st3" d="M139.7,107.2h7.1l0,0v6.4l0,0h-7.1c-0.3,0-0.5-0.2-0.5-0.5v-5.5C139.2,107.4,139.4,107.2,139.7,107.2z"/>
	<path class="st2" d="M146.8,113.7c0,0,0-1.4,0-3.2s0-3.2,0-3.2s0,1.4,0,3.2S146.8,113.7,146.8,113.7z"/>
	<path class="st2" d="M153.6,113.6C153.6,113.6,153.6,113.6,153.6,113.6c0.2,0,0.3-0.1,0.4-0.2c0-0.1,0.1-0.1,0.1-0.2
		c0-0.1,0-0.2,0-0.3c0-0.2,0-0.4,0-0.7c0-1.1,0-2.6,0-4.5c0-0.1,0-0.1,0-0.2c0-0.1,0-0.1-0.1-0.2c-0.1-0.1-0.2-0.2-0.3-0.2
		s-0.2,0-0.4,0H153h-1.6h-3.6h-8.1c-0.2,0-0.3,0.1-0.4,0.2c0,0.1-0.1,0.2-0.1,0.2v1.5c0,0.7,0,1.4,0,2.1v2c0,0.2,0.1,0.3,0.2,0.4
		c0.1,0,0.1,0.1,0.2,0.1c0.1,0,0.2,0,0.2,0h0.9h6.6h4.5h1.2h0.3H153.6h-0.1h-0.3H152h-4.5h-6.6H140c-0.1,0-0.2,0-0.2,0
		c-0.3,0-0.5-0.3-0.5-0.5c0-0.7,0-1.3,0-2v-3.4c0-0.3,0.3-0.5,0.6-0.5h8.1h3.6h1.4h0.6c0.2,0,0.4,0.1,0.5,0.3c0,0.1,0.1,0.1,0.1,0.2
		c0,0.1,0,0.1,0,0.2c0,1.9,0,3.4,0,4.5c0,0.3,0,0.5,0,0.7c0,0.1,0,0.2,0,0.3c0,0.1-0.1,0.1-0.1,0.2c-0.1,0.1-0.2,0.1-0.3,0.2
		C153.7,113.6,153.6,113.6,153.6,113.6z"/>
	<path class="st5" d="M150.1,108.6c0,0-0.6,0-1.4,0s-1.4,0-1.4,0s0.6,0,1.4,0S150.1,108.6,150.1,108.6z"/>
	<path class="st2" d="M152.7,109.5c0,0-1.2,0-2.7,0s-2.7,0-2.7,0s1.2,0,2.7,0C151.5,109.4,152.7,109.5,152.7,109.5z"/>
	<path class="st2" d="M152.7,110c0,0-1.2,0-2.7,0s-2.7,0-2.7,0s1.2,0,2.7,0C151.5,109.9,152.7,110,152.7,110z"/>
	<path class="st7" d="M152.2,112.4c0-0.1,0-0.1-0.1-0.2l-0.1-0.1c-0.1,0-0.1,0-0.2,0c0,0-0.1,0-0.1,0.1c0,0,0,0-0.1-0.1
		c0,0-0.1,0-0.2,0c-0.1,0-0.1,0-0.1,0.1l-0.1,0.1c0,0.1,0,0.1,0,0.2c0,0.1,0.1,0.1,0.2,0.2c0.1,0.1,0.2,0.2,0.2,0.2s0.1-0.1,0.2-0.1
		c0.1,0,0.1-0.1,0.2-0.1C152.2,112.6,152.2,112.5,152.2,112.4z"/>
	<path class="st5" d="M151.7,112.9L151.7,112.9c0,0-0.1-0.1-0.2-0.2c-0.1,0-0.1-0.1-0.2-0.2c0-0.1,0-0.1,0-0.2c0-0.1,0-0.1,0.1-0.2
		l0.1-0.1c0.1,0,0.2,0,0.2,0.1c0-0.1,0.1-0.1,0.2-0.1s0.1,0,0.1,0.1c0,0,0.1,0.1,0.1,0.2l0,0c0,0.1,0,0.2,0,0.2
		c0,0.1-0.1,0.1-0.2,0.2C151.8,112.9,151.7,112.9,151.7,112.9L151.7,112.9z M151.5,112.2L151.5,112.2c-0.1,0-0.1,0-0.2,0.1l-0.1,0.1
		c0,0.1,0,0.1,0,0.2s0.1,0.1,0.2,0.2c0.1,0.1,0.2,0.1,0.2,0.1s0.1-0.1,0.2-0.1c0.1,0,0.1-0.1,0.2-0.1c0-0.1,0-0.1,0-0.2l0,0
		c0-0.1-0.1-0.2-0.2-0.2c0,0-0.1,0-0.2,0c0,0,0,0-0.1,0.1l0,0l0,0c0,0,0,0-0.1-0.1C151.6,112.2,151.6,112.2,151.5,112.2L151.5,112.2
		z"/>
	<path class="st5" d="M153.4,112.8h-0.2h-0.4l0,0l0,0v-0.1c0-0.2,0-0.4-0.1-0.5l0,0h-0.1h0.1l0,0l0.1,0.5c0,0,0,0,0,0.1l0,0h0.4
		H153.4L153.4,112.8L153.4,112.8z"/>
	<path class="st5" d="M153.2,112.8h-0.4l0,0l-0.1-0.6h-0.1l0,0l0,0l0,0h0.1l0,0l0,0l0.1,0.5l0,0h0.6l0,0l0,0h-0.2V112.8z"/>
	<path class="st5" d="M152.8,112.7h0.2h0.4l0,0c0-0.1,0-0.2,0-0.2v-0.1l0,0h-0.5h-0.2h0.2h0.5l0,0l0,0v0.1c0,0.1,0,0.2,0,0.2l0,0
		l0,0H153H152.8L152.8,112.7L152.8,112.7z"/>
	<path class="st5" d="M153.4,112.7L153.4,112.7h-0.6l0,0l0,0l0,0h0.2H153.4v-0.4h-0.7l0,0l0,0l0,0h0.2h0.5l0,0l0,0v0.1
		C153.4,112.5,153.4,112.5,153.4,112.7L153.4,112.7L153.4,112.7z"/>
	<path class="st5" d="M152.9,112.9L152.9,112.9L152.9,112.9C152.9,112.8,152.8,112.8,152.9,112.9L152.9,112.9
		C152.8,113,152.8,113,152.9,112.9C152.9,113,152.9,113,152.9,112.9L152.9,112.9C152.9,113,152.9,112.9,152.9,112.9L152.9,112.9
		C152.9,113,152.9,113,152.9,112.9C152.9,113,152.9,113,152.9,112.9C152.8,112.9,152.8,112.9,152.9,112.9
		C152.8,112.9,152.8,112.9,152.9,112.9L152.9,112.9L152.9,112.9L152.9,112.9z"/>
	<path class="st5" d="M152.9,113L152.9,113C152.8,113,152.8,113,152.9,113C152.8,112.9,152.9,112.9,152.9,113L152.9,113
		C152.9,112.9,153,112.9,152.9,113L152.9,113L152.9,113C153,113,152.9,113,152.9,113L152.9,113z M152.9,112.9L152.9,112.9
		C152.9,112.9,152.8,112.9,152.9,112.9C152.8,113,152.9,113,152.9,112.9C152.9,113,152.9,113,152.9,112.9
		C152.9,113,152.9,113,152.9,112.9L152.9,112.9L152.9,112.9L152.9,112.9L152.9,112.9L152.9,112.9L152.9,112.9L152.9,112.9z"/>
	<path class="st5" d="M153.3,113L153.3,113C153.3,112.9,153.3,112.9,153.3,113C153.3,112.9,153.3,112.9,153.3,113
		c-0.1,0-0.1,0-0.1,0S153.2,113,153.3,113L153.3,113L153.3,113L153.3,113L153.3,113L153.3,113L153.3,113c-0.1,0-0.1,0-0.1,0
		S153.2,112.9,153.3,113C153.3,112.9,153.3,112.9,153.3,113C153.3,112.9,153.3,112.9,153.3,113C153.3,112.9,153.3,112.9,153.3,113z"
		/>
	<path class="st5" d="M153.3,113L153.3,113C153.2,113,153.2,113,153.3,113C153.2,112.9,153.3,112.9,153.3,113
		C153.3,112.9,153.3,112.9,153.3,113C153.3,112.9,153.3,112.9,153.3,113L153.3,113L153.3,113L153.3,113L153.3,113z M153.3,112.9
		L153.3,112.9C153.2,112.9,153.2,112.9,153.3,112.9C153.2,113,153.2,113,153.3,112.9C153.3,113,153.3,113,153.3,112.9L153.3,112.9
		L153.3,112.9L153.3,112.9L153.3,112.9L153.3,112.9L153.3,112.9L153.3,112.9L153.3,112.9z"/>
	<path class="st5" d="M153.6,112.2c0,0.1-0.1,0.2-0.2,0.2s-0.2-0.1-0.2-0.2c0-0.1,0.1-0.2,0.2-0.2S153.6,112.1,153.6,112.2
		L153.6,112.2z"/>
	<path class="st3" d="M153.5,112.3L153.5,112.3L153.5,112.3L153.5,112.3c0-0.1,0-0.2,0-0.2C153.5,112.2,153.5,112.2,153.5,112.3
		L153.5,112.3L153.5,112.3L153.5,112.3z"/>
	<path class="st3" d="M153.6,112.2C153.5,112.2,153.5,112.2,153.6,112.2c-0.1,0-0.2,0-0.2,0S153.4,112.2,153.6,112.2
		C153.5,112.2,153.5,112.2,153.6,112.2z"/>
	<path class="st5" d="M150,112.6c-0.4,0-0.8,0-1.2,0c-0.4,0-0.8,0-1.2,0c0,0,0.6,0,1.2,0C149.4,112.6,150,112.6,150,112.6z"/>
	<path class="st5" d="M141.1,94c0,0-0.9,2.2-0.9,3.4l2.4,0.7l0.4-0.8l0.4,0.8c0,0,1.9-0.5,2.4-0.9c0,0-0.5-2.6-0.9-3.2
		c0,0,0.2-0.5,0.1-0.5c-0.2,0-0.5,0-0.7,0s-0.3,0-0.6,0s-0.3,0.3-0.6,0.2c-0.3-0.1-0.3-0.2-0.7-0.2c-0.4-0.1-0.6,0.2-0.8,0.1
		c-0.2,0-0.3-0.1-0.5-0.1c-0.1,0-0.3,0.1-0.3,0.2v0.1l0,0C141,93.8,141.1,93.9,141.1,94z"/>
	<path class="st5" d="M144.5,93.5c0,0.1,0,0.2,0,0.3c0,0.1-0.1,0.2-0.2,0.2c0.1-0.1,0.1-0.2,0.1-0.2
		C144.4,93.7,144.5,93.6,144.5,93.5z"/>
	<path class="st4" d="M143.1,95.2C143.1,95.2,143.1,95.1,143.1,95.2l-0.2-0.2l-0.4-0.4l0,0l-0.5,0.6l0,0l0,0l0.5,0.6l0,0l0.4-0.4
		C143,95.3,143,95.2,143.1,95.2L143.1,95.2L143.1,95.2l-0.1,0.1l-0.3,0.5l0,0l0,0l-0.5-0.6l0,0l0,0l0,0l0.5-0.6l0,0l0,0L143,95
		L143.1,95.2C143.1,95.1,143.1,95.2,143.1,95.2z"/>
	<path class="st4" d="M144.9,94.8L144.9,94.8l-0.1-0.2l-0.4-0.4l0,0l-0.5,0.6l0,0l0,0l0.5,0.6l0,0l0.4-0.4L144.9,94.8L144.9,94.8
		L144.9,94.8l-0.1,0.2l-0.3,0.5l0,0l0,0l-0.5-0.6l0,0l0,0l0,0l0.5-0.6l0,0l0,0l0.3,0.4L144.9,94.8L144.9,94.8z"/>
	<path class="st4" d="M143.6,93.5c0.1,0.1,0.2,0.2,0.3,0.4l0,0l0,0l0,0l0,0l0,0l0,0l0.1-0.1l0.1-0.1l0.1-0.1c0,0,0,0.1-0.1,0.1H144
		c0,0,0,0,0,0.1l0,0l0,0l0,0l0,0l0,0l0,0C143.7,93.8,143.6,93.6,143.6,93.5z"/>
	<path class="st4" d="M141.8,94l-0.1-0.1c-0.1-0.1-0.1-0.2-0.2-0.3l0,0l0,0c-0.1,0.1-0.1,0.2-0.2,0.3c0,0,0,0.1-0.1,0.1
		c0,0,0-0.1,0.1-0.1c0-0.1,0.1-0.2,0.2-0.3l0,0l0,0l0,0c0.1,0.1,0.2,0.2,0.2,0.3C141.8,93.9,141.8,94,141.8,94z"/>
	<path class="st4" d="M144.3,96.7L144.3,96.7l-0.1-0.2l-0.3-0.4l0,0c-0.1,0.2-0.3,0.4-0.5,0.6l0,0l0,0l0.5,0.6l0,0
		c0.1-0.2,0.3-0.3,0.4-0.4V96.7L144.3,96.7L144.3,96.7l-0.1,0.2l-0.3,0.5l0,0l0,0c-0.1-0.2-0.3-0.4-0.5-0.6l0,0l0,0l0,0
		c0.2-0.2,0.3-0.4,0.5-0.6l0,0l0,0l0.3,0.4L144.3,96.7L144.3,96.7z"/>
	<path class="st4" d="M142.2,97.2L142.2,97.2L142,97l-0.4-0.4l0,0l-0.5,0.6l0,0l0,0l0.5,0.6l0,0l0.4-0.4L142.2,97.2L142.2,97.2
		L142.2,97.2l-0.1,0.2l-0.3,0.5l0,0l0,0l-0.5-0.6l0,0l0,0l0,0l0.5-0.6l0,0l0,0L142.2,97.2L142.2,97.2L142.2,97.2z"/>
	<path class="st4" d="M140.4,96.1C140.4,96.1,140.5,96.1,140.4,96.1l0.2-0.2c0.1-0.1,0.3-0.2,0.5-0.4h0.1l0,0
		c-0.1-0.2-0.2-0.4-0.2-0.5s-0.1-0.1-0.1-0.2c0,0.1,0.1,0.1,0.1,0.2c0.1,0.1,0.2,0.3,0.3,0.5l0,0l0,0h-0.1c-0.2,0.1-0.4,0.3-0.5,0.4
		C140.6,96,140.5,96.1,140.4,96.1C140.5,96.1,140.4,96.1,140.4,96.1z"/>
	<path class="st4" d="M145.8,96.6C145.7,96.6,145.7,96.6,145.8,96.6c-0.1-0.1-0.1-0.1-0.2-0.2c-0.1-0.1-0.3-0.3-0.4-0.4l0,0l0,0l0,0
		c0.1-0.2,0.1-0.4,0.2-0.6c0-0.1,0-0.1,0.1-0.2c0,0,0,0,0-0.1c0,0,0,0,0,0.1c0,0,0,0.1-0.1,0.2c0,0.1-0.1,0.3-0.2,0.6l0,0l0,0
		c0.2,0.2,0.3,0.3,0.4,0.4C145.6,96.5,145.7,96.5,145.8,96.6C145.7,96.6,145.8,96.6,145.8,96.6z"/>
	<path class="st5" d="M145,94L145,94c-0.1,0-0.1,0-0.1,0c-0.1,0-0.3,0-0.4,0c-0.2,0-0.4,0-0.6-0.1c-0.2,0-0.5-0.1-0.7-0.1
		c-0.3,0-0.5,0-0.7,0s-0.4,0-0.6,0c-0.1,0-0.3,0-0.4,0h-0.1l0,0l0,0h0.1c0.1,0,0.3,0,0.4,0c0.2,0,0.4,0,0.6,0s0.5,0,0.8-0.1
		c0.2,0,0.5,0,0.8,0.1c0.2,0,0.4,0.1,0.6,0.1C144.8,93.9,145,93.9,145,94C145,94,145,94,145,94z"/>
	<path class="st5" d="M141.4,95.8C141.4,95.8,141.4,95.7,141.4,95.8c0-0.1,0-0.2,0-0.3c0-0.2,0.1-0.4,0.1-0.6c0-0.2,0.1-0.5,0.2-0.6
		c0-0.1,0-0.1,0.1-0.2c0,0,0,0,0-0.1c0,0,0,0,0,0.1c0,0,0,0.1,0,0.2c0,0.2-0.1,0.4-0.2,0.6c0,0.2-0.1,0.5-0.1,0.6
		S141.5,95.7,141.4,95.8C141.5,95.7,141.4,95.8,141.4,95.8z"/>
	<path class="st5" d="M141.8,95.1c0-0.2,0-0.4,0.1-0.5c0-0.2,0.1-0.4,0.1-0.5c0,0.2,0,0.4-0.1,0.5C141.9,94.8,141.8,94.9,141.8,95.1
		z"/>
	<path class="st6" d="M144.7,96.7L144.7,96.7c-0.1-0.2-0.1-0.3-0.2-0.4c-0.2-0.6-0.4-1.3-0.4-1.9c0-0.1,0-0.2,0-0.3V94v0.1
		c0,0.1,0,0.2,0,0.3c0,0.3,0.1,0.7,0.1,1c0.1,0.3,0.2,0.6,0.2,1c0,0.1,0.1,0.2,0.1,0.3C144.7,96.7,144.7,96.7,144.7,96.7z"/>
	<path class="st6" d="M144.6,95c0,0,0-0.1-0.1-0.1c0-0.1-0.1-0.2-0.1-0.3s-0.1-0.3-0.1-0.3v-0.1v0.1c0,0.1,0.1,0.2,0.1,0.3
		s0.1,0.2,0.1,0.3C144.6,94.9,144.6,95,144.6,95z"/>
	<path class="st6" d="M142.8,97.9L142.8,97.9h-0.1c-0.1,0-0.2,0-0.3-0.1c-0.3-0.1-0.6-0.2-0.9-0.4c-0.3-0.2-0.6-0.3-0.9-0.3
		c-0.1,0-0.2,0-0.3,0c-0.1,0-0.1,0-0.1,0l0,0c0,0,0,0,0.1,0c0.1,0,0.2,0,0.3,0c0.3,0.1,0.6,0.2,0.9,0.3c0.3,0.2,0.7,0.3,0.9,0.4
		C142.6,97.8,142.7,97.8,142.8,97.9L142.8,97.9z"/>
	<path class="st6" d="M145.8,96.9L145.8,96.9c-0.1,0.1-0.2,0.1-0.3,0.2c-0.3,0.2-0.6,0.3-0.8,0.4c-0.3,0.1-0.6,0.2-0.9,0.3
		c-0.1,0-0.2,0.1-0.3,0.1h-0.1h0.1c0.1,0,0.2,0,0.3-0.1c0.2-0.1,0.5-0.2,0.9-0.3c0.4-0.1,0.6-0.3,0.8-0.4l0.2-0.1
		C145.8,96.9,145.8,96.9,145.8,96.9z"/>
	<path class="st5" d="M144.7,93.7c0,0.1,0,0.1-0.1,0.2c0,0.1-0.1,0.1-0.2,0.1l0.1-0.1C144.6,93.8,144.7,93.7,144.7,93.7z"/>
	<path class="st5" d="M142,93.5c0,0,0,0.1,0.1,0.2c0.1,0.1,0.1,0.2,0.1,0.2c-0.1,0-0.1-0.1-0.1-0.2C142,93.7,142,93.6,142,93.5z"/>
	<path class="st5" d="M141.8,109.8h3.1c0.2,0,0.3,0.1,0.3,0.3v1.9c0,0.2-0.1,0.3-0.3,0.3h-3.1c-0.2,0-0.3-0.1-0.3-0.3v-1.9
		C141.6,109.9,141.7,109.8,141.8,109.8z"/>
	<path class="st5" d="M144.2,110.3C144.2,110.2,144.2,110.2,144.2,110.3v-0.2c0-0.2,0-0.3,0-0.5s-0.1-0.5-0.3-0.7
		c-0.1-0.1-0.2-0.2-0.4-0.2s-0.3,0-0.5,0c-0.3,0-0.6,0.1-0.8,0.2c-0.1,0.1-0.2,0.2-0.2,0.3s-0.1,0.2-0.1,0.3c0,0.2,0,0.3,0,0.5
		c0,0.1,0,0.1,0,0.1l0,0l0,0V110c0-0.2,0-0.3,0-0.5c0-0.1,0-0.2,0.1-0.3c0-0.1,0.1-0.2,0.2-0.3c0.1-0.1,0.2-0.2,0.4-0.2
		s0.3-0.1,0.5-0.1c0.2,0,0.3,0,0.5,0c0.1,0,0.3,0.1,0.4,0.2c0.2,0.2,0.3,0.4,0.3,0.7c0,0.2,0,0.3,0,0.5
		C144.2,110.1,144.2,110.2,144.2,110.3C144.2,110.2,144.2,110.2,144.2,110.3z"/>
	<path class="st6" d="M141.4,109.8h3.1c0.2,0,0.3,0.1,0.3,0.3v1.9c0,0.2-0.1,0.3-0.3,0.3h-3.1c-0.2,0-0.3-0.1-0.3-0.3v-1.9
		C141.1,109.9,141.2,109.8,141.4,109.8z"/>
	<path class="st5" d="M144.5,112.2h0.1c0,0,0.1,0,0.1-0.1c0,0,0.1-0.1,0.1-0.2c0-0.3,0-0.7,0-1.3c0-0.1,0-0.3,0-0.4
		c0-0.1,0-0.1,0-0.2c0-0.1,0-0.1-0.1-0.2c-0.1-0.1-0.1-0.1-0.2-0.1h-0.2h-0.5h-2.3c-0.1,0-0.2,0-0.2,0.1v0.1v0.7c0,0.4,0,0.7,0,1.1
		v0.1c0,0,0,0.1,0.1,0.1c0.1,0.1,0.1,0.1,0.2,0.1h1.3h1.1h0.3L144.5,112.2L144.5,112.2L144.5,112.2h-0.1H144h-1.3h-0.9h-0.5
		c-0.1,0-0.3-0.1-0.3-0.2v-0.1c0-0.4,0-0.7,0-1.1c0-0.2,0-0.4,0-0.6c0,0,0-0.1,0-0.2c0-0.1,0-0.1,0-0.2c0.1-0.1,0.2-0.2,0.3-0.2h3
		c0.1,0,0.2,0,0.2,0.1c0.1,0,0.1,0.1,0.1,0.2s0,0.2,0,0.2v0.4c0,0.5,0,1,0,1.3c0,0.1,0,0.1-0.1,0.2l-0.1,0.1
		C144.6,112.2,144.5,112.2,144.5,112.2z"/>
	<path class="st5" d="M144.7,111c0,0-0.8,0-1.8,0s-1.8,0-1.8,0s0.8,0,1.8,0S144.7,111,144.7,111z"/>
	<path class="st2" d="M142.9,111.3c0-0.2,0-0.4,0-0.6C143,110.9,143,111.2,142.9,111.3z"/>
	<path class="st7" d="M140.2,103.8c0,0,0.9-2.5,1.1-2.7s1.2-0.4,1.2-0.4l0.7,2.3l0.8-2.4c0,0,0.9,0.3,1.1,0.7
		c0.2,0.4,0.9,2.5,0.9,2.5l-1.4,0.5l0.2,0.8h-3.5l0.2-0.7L140.2,103.8z"/>
	<g class="st9">
		<path d="M142.1,102.2c-0.2-0.4-0.4-0.9-0.4-1.3l-0.3,0.1c0,0.5,0.2,0.9,0.4,1.3c0,0.1,0.1,0.1,0.1,0.2s0.1,0,0.2,0
			C142.2,102.4,142.1,102.3,142.1,102.2z"/>
	</g>
	<g class="st9">
		<path d="M142.5,103.6l-0.1-0.1l0,0c-0.1,0-0.2,0.1-0.2,0.2c0,0.1,0.1,0.2,0.2,0.2c0,0,0,0,0.1,0c0,0,0.1,0,0.1-0.1v-0.1
			C142.6,103.7,142.6,103.7,142.5,103.6z"/>
	</g>
	<g class="st9">
		<path d="M144.7,104.5c-0.1,0.2-0.3,0.3-0.5,0.4s-0.4,0.1-0.6,0c-0.1,0-0.2-0.1-0.2-0.1c-0.1,0-0.1,0.1-0.2,0c0,0-0.1,0-0.1-0.1
			s0-0.2,0.1-0.2c0.1,0,0.2,0,0.2,0c0.1,0,0.2,0,0.2,0c0.3,0,0.7-0.2,0.9-0.5l0.2-0.2l-0.1,0.5L144.7,104.5z"/>
	</g>
	<path class="st5" d="M144.9,103.1c0,0.2-0.1,0.4-0.1,0.6s-0.1,0.4-0.1,0.6c0-0.2,0.1-0.4,0.1-0.6S144.9,103.3,144.9,103.1z"/>
	<path class="st3" d="M144.9,101C144.9,101.1,144.9,101.1,144.9,101c0,0.1,0,0.2-0.1,0.2c-0.1,0.2-0.2,0.3-0.4,0.4
		c-0.2,0.1-0.4,0.1-0.5,0.1c-0.1,0-0.1,0-0.2,0c0,0,0,0-0.1,0c0,0,0.1,0,0.2,0c0.2,0,0.4,0,0.5-0.1c0.2-0.1,0.3-0.2,0.4-0.4
		C144.9,101.1,144.9,101,144.9,101z"/>
	<path class="st3" d="M145.1,101.3L145.1,101.3c-0.1,0.1-0.1,0.2-0.1,0.2c-0.3,0.4-0.7,0.5-1.2,0.5c-0.1,0-0.1,0-0.2,0
		c0,0,0,0-0.1,0c0,0,0.1,0,0.3,0.1c0.4,0.1,0.9-0.1,1.2-0.4C145.1,101.4,145.1,101.4,145.1,101.3z"/>
	<path class="st3" d="M143.1,102.7C143,102.7,143,102.8,143.1,102.7c-0.1,0-0.2,0.1-0.3,0.1c-0.2,0.1-0.4,0.2-0.6,0.3
		s-0.4,0.3-0.5,0.5c-0.1,0.1-0.1,0.1-0.1,0.2c0,0,0,0-0.1,0.1c0,0,0,0,0-0.1c0,0,0.1-0.1,0.1-0.2c0.2-0.2,0.3-0.3,0.5-0.5
		c0.2-0.1,0.4-0.2,0.6-0.3C142.9,102.8,142.9,102.8,143.1,102.7C143,102.7,143,102.7,143.1,102.7z"/>
	<path class="st3" d="M143,102.5L143,102.5c-0.1,0-0.2,0.1-0.3,0.1c-0.2,0.1-0.4,0.2-0.6,0.3c-0.2,0.1-0.4,0.2-0.6,0.3
		c-0.1,0-0.1,0.1-0.2,0.1c0,0,0,0-0.1,0c0,0,0,0,0.1,0c0,0,0.1-0.1,0.2-0.1c0.2-0.1,0.4-0.2,0.6-0.3c0.2-0.1,0.4-0.2,0.7-0.2
		C142.8,102.5,142.9,102.5,143,102.5L143,102.5z"/>
	<path class="st3" d="M145.6,103.9c-0.1-0.1-0.2-0.2-0.3-0.2c-0.1-0.1-0.2-0.1-0.4-0.2h0.1c0.1,0,0.2,0.1,0.3,0.1
		C145.4,103.6,145.4,103.8,145.6,103.9C145.5,103.9,145.5,103.9,145.6,103.9z"/>
	<path class="st3" d="M140.7,103.9c-0.1-0.1-0.1-0.2-0.2-0.4c0-0.1-0.1-0.3-0.1-0.4c0,0,0.1,0.2,0.1,0.4
		C140.6,103.7,140.7,103.9,140.7,103.9z"/>
	<path class="st3" d="M142.2,105.1c-0.1,0-0.2-0.1-0.4-0.2c-0.1-0.1-0.2-0.1-0.3-0.2c0,0,0.2,0.1,0.4,0.2
		C142,105,142.2,105.1,142.2,105.1z"/>
	<path class="st5" d="M143.1,103.5L143.1,103.5c0-0.2-0.1-0.3-0.1-0.4c-0.1-0.2-0.2-0.6-0.3-1c-0.1-0.4-0.2-0.7-0.3-1
		c0-0.1-0.1-0.2-0.1-0.3v-0.1v0.1c0,0.1,0.1,0.2,0.1,0.3c0.1,0.2,0.2,0.6,0.3,1c0.1,0.4,0.2,0.7,0.3,1
		C143,103.2,143.1,103.3,143.1,103.5C143.1,103.4,143.1,103.4,143.1,103.5z"/>
	<path class="st5" d="M143.4,103.5c0,0-0.1,0-0.2,0c0,0-0.1,0-0.2,0C143.2,103.5,143.3,103.5,143.4,103.5L143.4,103.5z"/>
	<path class="st5" d="M144.2,100.7c0,0-0.2,0.6-0.4,1.4c-0.2,0.8-0.4,1.4-0.5,1.4c-0.1,0,0.2-0.6,0.4-1.4
		C144,101.3,144.2,100.7,144.2,100.7z"/>
	<path class="st5" d="M141.5,104.4c0,0-0.1-0.3-0.2-0.7c-0.1-0.2-0.1-0.5-0.1-0.7c0,0,0.1,0.3,0.2,0.7
		C141.5,104.1,141.6,104.4,141.5,104.4z"/>
	<path d="M145.6,82.6l-0.2,0.7h-0.2l-0.2-0.5l-0.2,0.5h-0.2l-0.2-0.7h0.2l0.2,0.5l0.2-0.5h0.2l0.2,0.5L145.6,82.6L145.6,82.6z"/>
	<path d="M145.7,82.6h0.2v0.7h-0.2V82.6z"/>
	<path d="M145.9,83.2l0.1-0.1c0.1,0,0.2,0.1,0.2,0.1c0.1,0,0.1,0,0.1-0.1s-0.4,0-0.4-0.3c0-0.1,0.1-0.2,0.3-0.2c0.1,0,0.2,0,0.2,0.1
		v0.1c-0.1,0-0.1-0.1-0.2-0.1c-0.1,0-0.1,0-0.1,0.1c0,0.1,0.4,0,0.4,0.3c0,0.1-0.1,0.2-0.3,0.2C146.1,83.3,146,83.3,145.9,83.2z"/>
	<path d="M147.3,82.6v0.7h-0.2V83h-0.3v0.3h-0.2v-0.7h0.2v0.3h0.3v-0.3H147.3z"/>
	<path d="M147.6,82.6L147.6,82.6v0.7h0.4v0.1h-0.5L147.6,82.6z"/>
	<path d="M148.2,82.6L148.2,82.6l-0.1,0.7H148L148.2,82.6z"/>
	<path d="M148.3,83.2L148.3,83.2c0.1,0,0.2,0,0.3,0c0.1,0,0.2,0,0.2-0.1c0-0.2-0.4-0.1-0.4-0.3c0-0.1,0.1-0.2,0.3-0.2
		c0.1,0,0.2,0,0.2,0.1v0.1c-0.1,0-0.1-0.1-0.2-0.1c-0.1,0-0.2,0.1-0.2,0.1c0,0.2,0.4,0.1,0.4,0.3c0,0.1-0.1,0.2-0.3,0.2
		C148.5,83.3,148.4,83.3,148.3,83.2z"/>
	<path d="M149.3,82.6H149v-0.1h0.6v0.1H149.3v0.7h-0.1L149.3,82.6z"/>
	<path class="st5" d="M154,82.4c0,0-0.3,0-0.8,0c-0.4,0-0.8,0-0.8,0s0.3,0,0.8,0S154,82.4,154,82.4z"/>
	<path class="st5" d="M154,82.8c0,0-0.3,0-0.8,0s-0.8,0-0.8,0s0.3,0,0.8,0S154,82.8,154,82.8z"/>
	<path class="st5" d="M154,83.2c0,0-0.3,0-0.8,0c-0.3,0-0.5,0-0.8,0c0,0,0.3,0,0.8,0C153.5,83.2,153.8,83.2,154,83.2z"/>
</g>
<g id="freepik--Character--inject-25">
	<polygon class="st7" points="142.4,116.7 141.9,120.7 139.8,120.5 140.3,116.5 	"/>
	<path class="st5" d="M140.9,120.4c0,0,0.1-0.9,0.2-1.9c0.2-1.1,0.3-1.9,0.3-1.9s-0.1,0.9-0.2,1.9
		C141.1,119.5,140.9,120.4,140.9,120.4z"/>
	<polygon class="st5" points="141.9,120.4 139.8,120.2 139.8,120.5 141.9,120.7 	"/>
	<path class="st5" d="M139.9,119.2C139.9,119.2,140,119.1,139.9,119.2c0.1-0.2,0.2-0.2,0.3-0.3c0.1-0.1,0.2-0.1,0.4-0.2
		c0.5-0.2,1,0,1.3,0.4c0,0.1,0.1,0.2,0.1,0.2v0.1c0-0.1-0.1-0.2-0.2-0.3c-0.2-0.2-0.4-0.4-0.7-0.4c-0.3,0-0.6,0-0.9,0.2
		C140,119.1,139.9,119.2,139.9,119.2z"/>
	<g class="st9">
		<polygon points="142.2,118.3 142.2,118.7 140,118.5 140.1,118.1 		"/>
	</g>
	<polygon class="st7" points="149.3,117 149,121 146.9,120.9 147.1,116.9 	"/>
	<path class="st5" d="M148,120.8c0,0,0-0.9,0.1-2c0.1-1.1,0.2-2,0.2-2s0,0.9-0.1,2C148.1,119.9,148,120.8,148,120.8z"/>
	<polygon class="st5" points="149,120.7 146.9,120.6 146.9,120.9 149,121 	"/>
	<path class="st5" d="M146.9,119.6C146.9,119.6,147,119.6,146.9,119.6c0.1-0.2,0.2-0.2,0.3-0.3c0.1-0.1,0.2-0.2,0.4-0.2
		c0.2-0.1,0.3-0.1,0.5-0.1c0.3,0,0.6,0.2,0.8,0.4c0.1,0.1,0.1,0.2,0.1,0.2v0.1c-0.1-0.1-0.1-0.2-0.2-0.3c-0.2-0.2-0.5-0.4-0.8-0.4
		s-0.6,0.1-0.8,0.3C147,119.5,146.9,119.6,146.9,119.6z"/>
	<g class="st9">
		<polygon points="149.2,118.6 149.1,119 147,118.9 147,118.6 		"/>
	</g>
	<path class="st5" d="M141.2,98.3c-0.1,0-0.3,2.6-0.2,3.5c0.1,0.9,0.1,7.6,0.1,7.6s-0.4,0.3-0.4,0.7s-0.8,7.9-0.8,7.9l2.4,0.4
		c0,0,2.2-8.1,2.3-9.3c0.1-1.1,1.6-8.9,1.6-8.9s0.5,7.3,0.5,8.4c0,1.1,0,9.8,0,9.8s1.8,0.3,2.7,0c0,0,0.7-6.5,0.7-8.7v-3.5
		c0,0,0.9-4,1.3-6.1c0.4-2.1,0-4,0-4l-7.3-1L141.2,98.3z"/>
	<path class="st6" d="M143.1,110.1c-0.3-0.1-0.6-0.1-0.9-0.1s-0.6,0.1-0.9,0.3c0.1-0.1,0.2-0.1,0.2-0.1c0.4-0.2,0.9-0.2,1.3-0.1
		C142.9,110,143,110,143.1,110.1z"/>
	<path class="st6" d="M143.3,109.4c-0.2,0-0.5,0-0.7,0c-0.2,0-0.5,0-0.7-0.1c0.2,0,0.5,0,0.7,0C142.8,109.4,143,109.4,143.3,109.4z"
		/>
	<path class="st6" d="M148.3,110.9C148.3,110.9,148.2,110.9,148.3,110.9c-0.1-0.1-0.2-0.2-0.2-0.2c-0.4-0.4-0.6-1-0.6-1.6
		c0-0.1,0-0.2,0-0.2v-0.1c0,0,0,0.1,0,0.3c0.1,0.6,0.3,1.1,0.6,1.5C148.2,110.9,148.3,110.9,148.3,110.9z"/>
	<path class="st6" d="M146.3,100.1L146.3,100.1l-0.2,0.2l-0.1,0.1c-0.3,0.2-0.6,0.3-0.9,0.4c-0.3,0.1-0.7,0.1-1,0.1H144h-0.1h-0.1
		c0,0-0.1,0-0.1-0.1c0.1,0,0.3,0.1,0.4,0.1c0.3,0,0.7,0,1-0.1c0.3-0.1,0.6-0.2,0.9-0.4l0.1-0.1L146.3,100.1
		C146.2,100.1,146.3,100.1,146.3,100.1z"/>
	<path class="st10" d="M155.2,79.6c0-0.4,0.1-0.7,0.2-1c0.2-0.5,1-1.3,1-1.3s1-0.8,1.1-0.8s0.1,0.2,0,0.3c-0.1,0.1-0.7,0.8-0.7,0.8
		s0.2,0.1,0.2,0.2c0,0.1,0,0.2,0,0.2s0.2,0.1,0.3,0.2c0,0.1,0,0.2,0,0.2c0.1,0,0.1,0.1,0.1,0.2s0,0.2,0,0.3c0,0-0.4,0.4-0.5,0.5
		c-0.2,0.1-0.4,0.1-0.4,0.1l-0.1,0.2v0.5L155.2,79.6z"/>
	<path class="st6" d="M139.6,83.5c0,0-3.7,6.6-3.7,7.6c0,1.8,5.1,3.3,5.1,3.3l0.7-2.1l-2.6-1.8l1.9-4.2L139.6,83.5z"/>
	<path class="st6" d="M139.6,83.5c0.5-0.4,1.1-0.6,1.7-0.7c1-0.1,2.8-0.2,2.8-0.2s4.9-1.1,5.2-0.9c0.4,0.2,0.9,1.5,0.9,2.1
		c0.1,0.6-0.4,6.5-0.4,6.5s2.2,6.8,2,7c-0.1,0.1-2.7,1-5.4,1.2l-0.1-2l-0.3,2c-2.5,0.2-5.3,0.3-5.3,0.3s1.9-6.7,1.9-6.9
		C142.5,91.7,139.3,84.2,139.6,83.5z"/>
	<path class="st6" d="M149.3,81.8c0,0,1.8,1,2,1s0.4-0.4,0.7-0.1l1.6-0.3l1.6-2.9c0.6,0.2,1.1,0.5,1.6,1c0,0-0.9,3-1.4,3.5
		s-2.6,2-5.5,2l-0.4-2.4L149.3,81.8z"/>
	<path class="st5" d="M151.1,85.3c0,0,0.1-0.1,0.2-0.4c0.1-0.1,0.1-0.3,0.1-0.4c0-0.2,0.1-0.3,0.1-0.5s0-0.3,0-0.5
		c0-0.1,0-0.3-0.1-0.4c-0.1-0.2-0.1-0.4-0.1-0.4s0,0.1,0.1,0.1c0,0.1,0.1,0.2,0.1,0.3c0,0.1,0.1,0.3,0.1,0.4c0,0.2,0,0.4,0,0.5
		c0,0.2,0,0.4-0.1,0.5c0,0.1-0.1,0.3-0.2,0.4C151.3,85.1,151.2,85.2,151.1,85.3L151.1,85.3z"/>
	<path class="st5" d="M154.2,83.1c-0.3-0.1-0.5-0.3-0.7-0.6c0.1,0.1,0.2,0.2,0.3,0.3C154,82.8,154.1,82.9,154.2,83.1z"/>
	<path class="st10" d="M141,94.3c0,0,0.1,0.3,0.5,0c0,0,0.6-0.1,0.9-0.4c0.3-0.3,0.4-0.5,0.6-0.5s0.8-0.1,0.8-0.1s0.2-0.3,0-0.4
		s-1.1,0-1.1,0h-0.2v-0.3v-0.3c0,0-0.5,0.2-0.5,0.3c0,0-0.4-0.1-0.4,0.1L141,94.3z"/>
	<path class="st5" d="M141.3,88.7c0,0,0-0.1-0.1-0.1c0-0.1-0.1-0.2-0.2-0.4c-0.1-0.3-0.3-0.7-0.5-1.2s-0.3-0.9-0.4-1.2
		c0-0.2-0.1-0.3-0.1-0.4v-0.1v0.1l0.1,0.4c0.1,0.3,0.2,0.7,0.4,1.2s0.3,0.9,0.4,1.2l0.1,0.4C141.3,88.6,141.3,88.7,141.3,88.7z"/>
	<path class="st5" d="M147.3,92.1c0,0,0,0.1-0.1,0.2c-0.1,0.1-0.2,0.2-0.3,0.4c-0.3,0.4-0.7,0.8-1.1,1.1c-0.4,0.3-0.8,0.6-1.3,0.8
		c-0.2,0.1-0.3,0.2-0.4,0.2c0,0-0.1,0-0.2,0.1c0,0,0.1-0.1,0.2-0.1c0.1,0,0.2-0.1,0.4-0.2c0.9-0.5,1.7-1.1,2.4-2
		c0.1-0.2,0.2-0.3,0.3-0.4C147.3,92.2,147.3,92.2,147.3,92.1z"/>
	<path class="st5" d="M139.2,90.5c0,0-0.3,0.1-0.6,0.2c-0.3,0.1-0.6,0.3-0.6,0.2c0.2-0.1,0.4-0.2,0.6-0.3
		C138.8,90.5,139,90.5,139.2,90.5z"/>
	<g class="st9">
		<path d="M140.6,87.1c-0.4-0.2-0.8-0.7-0.8-1.1c-0.1-0.4,0.1-0.9,0.1-1.3C140.1,85.5,140.4,86.3,140.6,87.1"/>
	</g>
	<g class="st9">
		<path d="M144.4,95.3c1.3,0.4,2.7-0.3,3.1-1.5c0-0.1,0.1-0.2,0.1-0.3C146.6,94.1,145.5,94.8,144.4,95.3z"/>
	</g>
	<path class="st5" d="M150.1,83.2v0.1c0,0.1,0,0.2,0.1,0.4c0.1,0.8,0.1,1.6-0.1,2.3c0,0.1,0,0.3-0.1,0.3v0.1c0,0,0-0.2,0.1-0.5
		c0.1-0.8,0.1-1.6,0-2.3C150.1,83.4,150.1,83.2,150.1,83.2z"/>
	<g class="st9">
		<path d="M148.1,81.1l-5.7,8.8c1.4,0.7,3.1,1,4.4,0.2c0.4,0.5,1.1,0.3,1.5-0.2c0.4-0.5,0.4-1.1,0.4-1.7
			C148.8,85.9,148.4,83.5,148.1,81.1z"/>
	</g>
	<path class="st5" d="M145.8,74.9c-0.6-0.1-1.2,0.2-1.7,0.6s-0.8,1-1,1.6c-0.5,1.1-0.7,2.3-1,3.5c-0.4,1.7-0.8,3.5-0.9,5.3
		c-0.1,1.8,0.4,2.8,1.2,4.5l2.7-0.4v-0.5l0.4,0.5l1.1-0.2l0.3-2.8l0.5,2.6l0.9-0.1c0.9-3.5-0.1-5.8,0.4-9.3c0.1-0.8,0.3-1.7,0.3-2.5
		c0-0.8-0.4-1.8-1-2.4C147.4,74.6,146.4,74.4,145.8,74.9"/>
	<path class="st6" d="M146.5,89.7C146.5,89.6,146.4,89.6,146.5,89.7c0-0.1,0-0.1,0-0.2l-0.1-0.5c-0.1-0.4-0.2-1-0.2-1.7
		c-0.1-0.8-0.2-1.7-0.1-2.5c0-0.5,0-1,0.1-1.5c0.1-0.5,0.2-1,0.3-1.6c0.3-1,0.7-2,0.9-2.9c0.1-0.4,0.2-0.9,0.2-1.3s-0.1-0.8-0.2-1.1
		c-0.1-0.3-0.2-0.6-0.4-0.8c-0.1-0.2-0.3-0.4-0.5-0.5c-0.3-0.1-0.4-0.2-0.5-0.3h-0.1l0,0l0,0h0.1c0.1,0.1,0.3,0.1,0.4,0.2
		c0.2,0.1,0.4,0.3,0.5,0.5c0.2,0.3,0.3,0.5,0.4,0.9c0.1,0.4,0.2,0.8,0.2,1.2c0,0.5-0.1,0.9-0.2,1.3c-0.2,0.9-0.6,1.9-0.9,2.9
		c-0.1,0.5-0.2,1-0.3,1.6c-0.1,0.5-0.1,1-0.1,1.5c0,0.8,0,1.7,0.1,2.5c0.1,0.7,0.2,1.3,0.2,1.7c0,0.2,0,0.3,0.1,0.5
		C146.4,89.6,146.4,89.6,146.5,89.7C146.5,89.6,146.5,89.6,146.5,89.7z"/>
	<path class="st6" d="M142.7,87.9C142.7,87.9,142.7,87.8,142.7,87.9C142.7,87.8,142.7,87.8,142.7,87.9v-0.5c0-0.1,0-0.2,0-0.3
		s0-0.2,0-0.3c0-0.2,0-0.5,0-0.8c0-0.1,0-0.3,0-0.5c0-0.2,0-0.3,0-0.5c0-0.3,0-0.7,0-1.1c0.1-0.8,0.2-1.7,0.3-2.5
		c0.2-0.8,0.4-1.6,0.6-2.4c0.1-0.4,0.2-0.7,0.4-1c-0.1-0.2,0-0.4,0-0.5l0.2-0.4c0.1-0.3,0.2-0.5,0.3-0.7c0-0.1,0.1-0.2,0.1-0.3
		l0.1-0.2c0.1-0.1,0.1-0.2,0.2-0.3v-0.1l0,0l0,0c0,0,0,0,0,0.1s-0.1,0.2-0.2,0.3c0,0.1-0.1,0.2-0.1,0.2c0,0.1-0.1,0.2-0.1,0.3
		c-0.1,0.2-0.2,0.5-0.3,0.7c-0.1,0.1-0.1,0.3-0.2,0.4c0,0.2,0,0.3-0.1,0.5c-0.1,0.3-0.2,0.7-0.4,1c-0.2,0.8-0.4,1.6-0.6,2.4
		c-0.2,0.8-0.3,1.7-0.3,2.5c0,0.4,0,0.8-0.1,1.1c0,0.2,0,0.3,0,0.5s0,0.3,0,0.5c0,0.3,0,0.6,0,0.8c0,0.1,0,0.2,0,0.3s0,0.2,0,0.3
		c0,0.2,0,0.3,0,0.4C142.6,87.8,142.6,87.8,142.7,87.9C142.6,87.8,142.6,87.9,142.7,87.9z"/>
	<path class="st6" d="M144.1,90C144.1,90,144.1,89.9,144.1,90C144.1,89.9,144.1,89.9,144.1,90c0-0.2-0.1-0.3-0.1-0.5
		c0-0.1,0-0.2-0.1-0.3c0-0.1,0-0.2-0.1-0.3c0-0.2-0.1-0.5-0.2-0.8c0-0.2-0.1-0.3-0.1-0.5c0-0.2,0-0.3-0.1-0.5
		c-0.1-0.2-0.1-0.4-0.1-0.6c0-0.2,0-0.4,0-0.6c-0.1-0.9,0-1.8,0-2.6c0.1-0.9,0.2-1.8,0.4-2.6c0-0.2,0.1-0.4,0.1-0.6
		c0-0.2,0.1-0.4,0.1-0.5c0.1-0.3,0.2-0.7,0.3-1c0.1-0.3,0.2-0.5,0.3-0.8c0.1-0.2,0.2-0.4,0.2-0.6l0.3-0.4v-0.1l0,0l0,0v0.1
		c0,0.1-0.1,0.2-0.1,0.4c0,0.2-0.1,0.4-0.2,0.6c-0.1,0.2-0.2,0.5-0.3,0.8c-0.1,0.3-0.2,0.6-0.3,1c0,0.2-0.1,0.4-0.1,0.5l-0.1,0.6
		c-0.2,0.9-0.3,1.7-0.4,2.6c-0.1,0.9-0.1,1.8,0,2.6c0,0.2,0,0.4,0,0.6c0,0.2,0,0.4,0.1,0.5c0.1,0.1,0,0.3,0.1,0.5
		c0,0.2,0.1,0.3,0.1,0.5c0,0.3,0.1,0.6,0.2,0.8c0,0.1,0,0.2,0.1,0.3c0,0.1,0,0.2,0.1,0.3l0.1,0.4C144.1,89.8,144.1,89.9,144.1,90
		C144.1,89.9,144.1,89.9,144.1,90z"/>
	<path class="st6" d="M147.9,88.3L147.9,88.3c0-0.1,0-0.1-0.1-0.1V88c0-0.1-0.1-0.1-0.1-0.2c-0.2-0.5-0.4-1-0.4-1.5
		c-0.2-1.2-0.2-2.5,0.1-3.8c0.1-0.5,0.3-1,0.4-1.5c0.2-0.5,0.3-1,0.4-1.5c0.1-0.5,0.2-0.9,0.2-1.4c0-0.4,0-0.8-0.1-1.3
		c-0.1-0.4-0.2-0.7-0.4-1c-0.3-0.5-0.7-0.8-1.2-1c-0.1-0.1-0.3-0.1-0.4-0.1h-0.1l0,0l0,0h0.1c0.1,0,0.3,0.1,0.4,0.1
		c0.5,0.2,0.9,0.6,1.2,1c0.2,0.3,0.4,0.7,0.4,1c0.1,0.4,0.2,0.8,0.1,1.3c0,0.5-0.1,0.9-0.2,1.4c-0.1,0.5-0.2,1-0.4,1.5
		s-0.3,1-0.4,1.5c-0.1,0.5-0.2,0.9-0.2,1.4c-0.1,1.3,0.1,2.7,0.6,3.9c0,0.1,0.1,0.2,0.1,0.2l0.1,0.2L147.9,88.3
		C147.9,88.2,147.9,88.3,147.9,88.3z"/>
</g>
<g id="freepik--Floor--inject-25">
	<path class="st5" d="M171.5,97.8c0,0-11.1,0-24.8,0s-24.8,0-24.8,0s11.1,0,24.8,0S171.5,97.8,171.5,97.8z"/>
</g>
<rect x="-14.5" y="-7" class="st11" width="322.5" height="209.5"/>
<g>
	<path d="M92.7,106.9v-1.7l2.2-2.2c5.3-5.1,7.8-7.8,7.8-11c0-2.1-1-4.1-4.2-4.1c-1.9,0-3.5,1-4.4,1.8l-0.9-2
		c1.4-1.2,3.5-2.1,5.9-2.1c4.5,0,6.4,3.1,6.4,6.1c0,3.9-2.8,7-7.2,11.2l-1.7,1.5v0.1h9.4v2.4H92.7z"/>
	<path d="M110.8,104.9c0.6,0.1,1.3,0,2.3-0.1c1.6-0.2,3.2-0.9,4.4-2c1.4-1.3,2.4-3.1,2.8-5.6h-0.1c-1.2,1.4-2.8,2.3-4.9,2.3
		c-3.8,0-6.2-2.8-6.2-6.4c0-4,2.9-7.4,7.2-7.4s6.9,3.5,6.9,8.8c0,4.6-1.5,7.8-3.6,9.8c-1.6,1.6-3.8,2.5-6.1,2.8
		c-1,0.2-1.9,0.2-2.6,0.2V104.9z M111.9,92.9c0,2.6,1.6,4.4,4,4.4c1.9,0,3.4-0.9,4.1-2.2c0.2-0.3,0.3-0.6,0.3-1
		c0-3.6-1.3-6.3-4.3-6.3C113.6,87.8,111.9,89.9,111.9,92.9z"/>
	<path d="M134.5,106.9v-5.7h-9.7v-1.9l9.3-13.4h3.1v13h2.9v2.2h-2.9v5.7H134.5z M134.5,99v-7c0-1.1,0-2.2,0.1-3.3h-0.1
		c-0.6,1.2-1.2,2.1-1.7,3.1l-5.1,7.1V99H134.5z"/>
	<path d="M144.5,91.3l2.2,3.4c0.6,0.9,1.1,1.7,1.6,2.5h0.1c0.5-0.9,1-1.7,1.5-2.6l2.2-3.3h3.1l-5.3,7.5l5.5,8.1h-3.2l-2.3-3.5
		c-0.6-0.9-1.1-1.8-1.7-2.7h-0.1c-0.5,0.9-1.1,1.8-1.6,2.7l-2.3,3.5H141l5.5-8l-5.3-7.6H144.5z"/>
	<path d="M163.3,88.6L163.3,88.6l-3.7,2l-0.5-2.2l4.6-2.4h2.4v20.9h-2.7V88.6z"/>
	<path d="M175.3,104.9c0.6,0.1,1.3,0,2.3-0.1c1.6-0.2,3.2-0.9,4.4-2c1.4-1.3,2.4-3.1,2.8-5.6h-0.1c-1.2,1.4-2.8,2.3-4.9,2.3
		c-3.8,0-6.2-2.8-6.2-6.4c0-4,2.9-7.4,7.2-7.4s6.9,3.5,6.9,8.8c0,4.6-1.5,7.8-3.6,9.8c-1.6,1.6-3.8,2.5-6.1,2.8
		c-1,0.2-1.9,0.2-2.6,0.2V104.9z M176.4,92.9c0,2.6,1.6,4.4,4,4.4c1.9,0,3.4-0.9,4.1-2.2c0.2-0.3,0.3-0.6,0.3-1
		c0-3.6-1.3-6.3-4.3-6.3C178.1,87.8,176.4,89.9,176.4,92.9z"/>
	<path d="M202.2,88c-0.6,0-1.3,0-2.1,0.1c-4.4,0.7-6.8,4-7.3,7.4h0.1c1-1.3,2.7-2.4,5.1-2.4c3.7,0,6.3,2.7,6.3,6.8
		c0,3.8-2.6,7.4-7,7.4c-4.5,0-7.4-3.5-7.4-8.9c0-4.1,1.5-7.4,3.5-9.4c1.7-1.7,4.1-2.8,6.7-3.1c0.8-0.1,1.5-0.2,2.1-0.2V88z
		 M201.4,100.1c0-3-1.7-4.8-4.3-4.8c-1.7,0-3.3,1.1-4.1,2.6c-0.2,0.3-0.3,0.7-0.3,1.3c0.1,3.4,1.6,6,4.6,6
		C199.7,105.1,201.4,103.1,201.4,100.1z"/>
</g>
</svg>
