<?xml version="1.0" encoding="utf-8"?>
<!-- Generator: Adobe Illustrator 26.1.0, SVG Export Plug-In . SVG Version: 6.00 Build 0)  -->
<svg version="1.1" id="Layer_1" xmlns="http://www.w3.org/2000/svg" xmlns:xlink="http://www.w3.org/1999/xlink" x="0px" y="0px"
	 viewBox="0 0 636 536" style="enable-background:new 0 0 636 536;" xml:space="preserve">
<style type="text/css">
	.st0{fill:#EBEBEB;}
	.st1{fill:#F5F5F5;}
	.st2{fill:#E0E0E0;}
	.st3{fill:#FFFFFF;}
	.st4{fill:#FAFAFA;}
	.st5{fill:#263238;}
	.st6{fill:#455A64;}
	.st7{fill:#FF6A27;}
	.st8{opacity:0.2;}
	.st9{opacity:0.3;}
	.st10{fill:#FFBE9D;}
	.st11{fill:#FFE6E6;}
	.st12{enable-background:new    ;}
</style>
<g id="freepik--background-complete--inject-25">
	<path class="st0" d="M339.7,247.9c-0.1-0.6-0.5-1.1-0.9-1.5c-0.4-0.4-1-0.7-1.6-0.8c-1-0.1-2,0.5-2.4,1.4c-0.2-0.3-0.4-0.5-0.7-0.7
		c-0.6-0.3-1.2-0.4-1.8-0.2c-0.6,0.2-1,0.6-1.4,1.1c-0.4,0.6-0.6,1.2-0.6,1.8c0,0.8,0.2,1.5,0.7,2.2c0.5,0.6,1.2,1.1,1.9,1.5
		c1.2,0.6,2.8,1.3,2.8,1.3s1.2-1.1,2.2-1.9c0.6-0.5,1.2-1.1,1.6-1.8C339.8,249.5,339.8,248.7,339.7,247.9z"/>
	<path class="st0" d="M344.9,243.1c0-0.4-0.1-0.7-0.3-1c-0.2-0.3-0.4-0.5-0.8-0.7c-0.5-0.2-1.1,0-1.5,0.5c-0.2-0.5-0.7-0.9-1.3-0.9
		c-0.3,0-0.7,0.2-0.9,0.4c-0.3,0.2-0.5,0.5-0.6,0.9c-0.1,0.4-0.1,0.9,0,1.3c0.2,0.4,0.5,0.8,0.9,1.1c0.6,0.5,1.4,1.2,1.4,1.2
		s0.8-0.4,1.6-0.7c0.4-0.2,0.9-0.4,1.2-0.8C344.7,244,344.9,243.6,344.9,243.1z"/>
	<path class="st0" d="M343.3,255.3c-0.1-0.2-0.2-0.5-0.4-0.7c-0.2-0.2-0.4-0.3-0.7-0.3c-0.4,0-0.9,0.2-1,0.6
		c-0.2-0.3-0.7-0.5-1.1-0.4c-0.2,0.1-0.4,0.2-0.6,0.5c-0.2,0.2-0.2,0.5-0.3,0.7c0,0.3,0.1,0.7,0.3,0.9c0.2,0.3,0.5,0.5,0.8,0.6
		c0.5,0.3,1.2,0.6,1.2,0.6s0.5-0.5,1-0.8c0.3-0.2,0.5-0.5,0.7-0.8C343.3,256,343.4,255.7,343.3,255.3z"/>
	<rect x="295.1" y="279.7" class="st1" width="19.2" height="8.9"/>
	<path class="st2" d="M313.9,288.2h-18.3v-8h18.3V288.2L313.9,288.2z M295.7,288.1h18.1v-7.8h-18.1V288.1z"/>
	<rect x="314.3" y="279.7" class="st2" width="4.7" height="8.9"/>
	<path class="st2" d="M295.6,282.7h18.2l0,0l0,0H295.6C295.6,282.6,295.6,282.6,295.6,282.7L295.6,282.7z"/>
	<path class="st2" d="M304.8,282.6c0-0.8,0.1-1.6,0-2.4l0,0l0,0C304.7,281,304.7,281.8,304.8,282.6L304.8,282.6L304.8,282.6z"/>
	<path class="st2" d="M309.7,281.4c0,0.1-0.1,0.2-0.2,0.2c-0.1,0-0.2-0.1-0.2-0.2s0.1-0.2,0.2-0.2
		C309.6,281.2,309.7,281.3,309.7,281.4L309.7,281.4z"/>
	<path class="st2" d="M300.1,281.4c0,0.1-0.1,0.2-0.2,0.2c-0.1,0-0.2-0.1-0.2-0.2s0.1-0.2,0.2-0.2
		C300,281.2,300.1,281.3,300.1,281.4L300.1,281.4z"/>
	<path class="st2" d="M305,284.2c0,0.1-0.1,0.2-0.2,0.2c-0.1,0-0.2-0.1-0.2-0.2c0-0.1,0.1-0.2,0.2-0.2l0,0
		C304.9,283.9,305,284.1,305,284.2z"/>
	<polygon class="st2" points="297.4,288.6 296.5,294.2 297,294.2 298.8,288.6 	"/>
	<polygon class="st2" points="313,288.6 313.8,294.2 313.3,294.2 311.6,288.6 	"/>
	<polygon class="st2" points="316.7,288.6 317.6,294.2 317.1,294.2 315.3,288.6 	"/>
	<path class="st2" d="M305,286.7c0,0.1-0.1,0.2-0.2,0.2c-0.1,0-0.2-0.1-0.2-0.2c0-0.1,0.1-0.2,0.2-0.2l0,0
		C304.9,286.5,305,286.6,305,286.7z"/>
	<path class="st2" d="M295.6,285.4h18.2l0,0l0,0H295.6L295.6,285.4L295.6,285.4z"/>
	
		<rect x="302.7" y="275.5" transform="matrix(1 -5.266965e-03 5.266965e-03 1 -1.45 1.6134)" class="st2" width="5.8" height="1.2"/>
	
		<rect x="302.8" y="277.9" transform="matrix(1 -5.266965e-03 5.266965e-03 1 -1.4642 1.6158)" class="st1" width="6.5" height="1.8"/>
	<path class="st2" d="M308,279.7c0-0.3,0-0.6,0-0.9s0-0.6,0-0.9c0,0.3,0,0.6,0,0.9C308,279.1,308,279.4,308,279.7z"/>
	<path class="st2" d="M308.3,279.7c0-0.3,0-0.6,0-0.9s0-0.6,0-0.9c0,0.3,0,0.6,0,0.9C308.3,279.1,308.3,279.4,308.3,279.7z"/>
	<path class="st2" d="M303.8,279.7c0-0.3,0-0.6,0-0.9s0-0.6,0-0.9c0,0.3,0,0.6,0,0.9C303.8,279.1,303.8,279.4,303.8,279.7z"/>
	<path class="st2" d="M304,279.7c0-0.3,0-0.6,0-0.9s0-0.6,0-0.9c0,0.3,0,0.6,0,0.9C304.1,279.1,304.1,279.4,304,279.7z"/>
	<path class="st2" d="M304.6,278.8c0,0,0.7,0,1.5,0s1.5,0,1.5,0s-0.7,0-1.5,0S304.6,278.8,304.6,278.8z"/>
	
		<rect x="303.7" y="276.7" transform="matrix(1 -5.266965e-03 5.266965e-03 1 -1.4563 1.6245)" class="st0" width="8" height="1.2"/>
	<path class="st2" d="M310.5,277.7c-0.2,0-0.4-0.2-0.4-0.4c0-0.2,0.2-0.4,0.4-0.4s0.4,0.2,0.4,0.4l0,0
		C310.9,277.5,310.7,277.7,310.5,277.7L310.5,277.7z"/>
	<rect x="304.2" y="277.2" class="st2" width="5.3" height="0.2"/>
	<rect x="297" y="241.4" class="st2" width="11.5" height="16.7"/>
	<rect x="296.4" y="241.4" class="st1" width="11.5" height="16.7"/>
	<rect x="297.8" y="243.2" class="st3" width="8.6" height="13.1"/>
	<path class="st2" d="M306.4,256.3L306.4,256.3c0-0.1,0-0.2,0-0.3c0-0.2,0-0.4,0-0.7c0-0.6,0-1.5,0-2.7c0-2.3,0-5.6,0-9.4l0,0h-8.6
		l0,0l0,0c0,4.9,0,9.5,0,13.1l0,0h6.3h1.7h0.5C306.4,256.3,306.4,256.3,306.4,256.3h-0.1h-0.4h-1.7h-6.3l0,0l0,0c0-3.6,0-8.2,0-13.1
		l0,0l0,0h8.6l0,0l0,0c0,3.9,0,7.1,0,9.5c0,1.2,0,2.1,0,2.7c0,0.3,0,0.5,0,0.7C306.4,256.1,306.4,256.1,306.4,256.3
		C306.4,256.2,306.4,256.3,306.4,256.3z"/>
	<path class="st2" d="M307.9,241.4c-0.1,0.1-0.1,0.2-0.2,0.3c-0.1,0.2-0.3,0.4-0.5,0.7c-0.2,0.3-0.4,0.5-0.6,0.7
		c-0.1,0.1-0.2,0.2-0.2,0.3c0.1-0.1,0.1-0.2,0.2-0.3l0.6-0.7c0.1-0.3,0.3-0.6,0.5-0.8C307.7,241.5,307.8,241.4,307.9,241.4z"/>
	<path class="st3" d="M306.5,256.2c0.4,0.7,0.9,1.3,1.5,1.9"/>
	<path class="st2" d="M308,258.1c-0.1-0.1-0.2-0.2-0.3-0.2c-0.4-0.4-0.8-0.9-1.1-1.3c-0.1-0.1-0.1-0.2-0.2-0.3
		c0.1,0.1,0.2,0.2,0.2,0.3c0.1,0.2,0.3,0.4,0.5,0.7c0.2,0.3,0.4,0.5,0.5,0.7C307.8,257.9,307.9,258,308,258.1z"/>
	<path class="st3" d="M296.4,258.1l1.5-1.9"/>
	<path class="st2" d="M297.9,256.2c-0.2,0.3-0.5,0.6-0.7,1c-0.2,0.3-0.5,0.6-0.8,0.9c0.2-0.3,0.5-0.6,0.7-1
		C297.4,256.8,297.6,256.5,297.9,256.2z"/>
	<path class="st2" d="M296.4,241.4c0.3,0.3,0.5,0.6,0.7,0.9c0.3,0.2,0.5,0.5,0.7,0.9c-0.3-0.3-0.5-0.6-0.7-0.9
		C296.8,242,296.6,241.7,296.4,241.4z"/>
	<rect x="300.9" y="245.8" class="st2" width="2.9" height="8.2"/>
	<rect x="334.7" y="260.2" class="st2" width="8.3" height="8.7"/>
	<rect x="334.1" y="260.2" class="st4" width="8.3" height="8.7"/>
	<path class="st2" d="M342.5,268.9h-8.3v-8.7h8.3V268.9z M334.1,268.9h8.3v-8.7h-8.3V268.9z"/>
	<rect x="335.3" y="261.4" class="st3" width="6.1" height="6.4"/>
	<path class="st2" d="M335.3,267.8c0,0.1-0.1,0.1-0.2,0.2c-0.1,0.1-0.2,0.2-0.4,0.4s-0.3,0.3-0.4,0.4c0,0.1-0.1,0.1-0.2,0.1
		c0-0.1,0.1-0.1,0.2-0.2c0.1-0.1,0.2-0.2,0.4-0.4c0.2-0.2,0.3-0.3,0.4-0.4C335.1,267.9,335.2,267.9,335.3,267.8z"/>
	<path class="st2" d="M341.4,267.8c0.1,0,0.1,0.1,0.2,0.2c0.1,0.1,0.2,0.2,0.4,0.4c0.2,0.2,0.3,0.3,0.4,0.4c0.1,0,0.1,0.1,0.1,0.2
		c-0.1-0.1-0.2-0.2-0.2-0.2c-0.1-0.1-0.2-0.2-0.4-0.4s-0.3-0.3-0.4-0.4C341.4,267.9,341.4,267.9,341.4,267.8z"/>
	<path class="st2" d="M341.3,261.4c0-0.1,0.1-0.1,0.2-0.2c0.1-0.1,0.2-0.2,0.4-0.4c0.2-0.2,0.3-0.3,0.4-0.4c0-0.1,0.1-0.1,0.2-0.1
		c0,0.1-0.1,0.1-0.2,0.2c-0.1,0.1-0.2,0.2-0.4,0.4s-0.3,0.3-0.4,0.4C341.5,261.3,341.4,261.4,341.3,261.4z"/>
	<path class="st2" d="M335.2,261.4c-0.1,0-0.1-0.1-0.2-0.2c-0.1-0.1-0.2-0.2-0.4-0.4c-0.2-0.2-0.3-0.3-0.4-0.4
		c-0.1,0-0.1-0.1-0.1-0.2c0.1,0,0.1,0.1,0.2,0.2c0.1,0.1,0.2,0.2,0.4,0.4c0.2,0.2,0.3,0.3,0.4,0.4
		C335.2,261.3,335.2,261.4,335.2,261.4z"/>
	<path class="st2" d="M341.3,267.8C341.3,267.8,341.3,267.7,341.3,267.8C341.3,267.7,341.3,267.7,341.3,267.8c0-0.2,0-0.3,0-0.4
		c0-0.3,0-0.7,0-1.3c0-1.1,0-2.7,0-4.6l0,0h-6l0,0l0,0c0,2.3,0,4.5,0,6.4l0,0h4.4h1.2L341.3,267.8L341.3,267.8h-0.4h-1.2h-4.4l0,0
		l0,0c0-1.8,0-4,0-6.4l0,0l0,0h6l0,0l0,0c0,1.9,0,3.5,0,4.6c0,0.6,0,1,0,1.3c0,0.1,0,0.3,0,0.3C341.3,267.7,341.3,267.7,341.3,267.8
		C341.3,267.7,341.3,267.8,341.3,267.8z"/>
	<rect x="337.3" y="263.6" class="st0" width="2" height="2"/>
</g>
<g id="freepik--Plant--inject-25">
	<rect x="313.5" y="272" class="st5" width="8.1" height="1.1"/>
	<path class="st5" d="M313.5,272h8.2v1.2h-8.2V272z M321.7,272h-8.1v1.1h8.1V272z"/>
	<polygon class="st5" points="320.9,272.8 319.8,278.6 315.4,278.6 314.3,273.1 	"/>
	<polygon class="st6" points="320.9,278 320.3,278.9 315,278.9 314.3,278 	"/>
	<path class="st5" d="M317.9,272.9c0,0,0-2.7,0-6s0-6,0-6s0,2.7,0,6S317.9,272.9,317.9,272.9z"/>
	<path class="st5" d="M316.1,266.2L316.1,266.2l0.1,0.2l0.1,0.1c0,0,0,0.1,0.1,0.2c0.1,0.1,0,0.1,0.1,0.2s0,0.1,0.1,0.2
		c0.1,0.3,0.2,0.7,0.2,1c0.1,0.4,0.1,0.8,0.1,1.2c0,0.8,0,1.5-0.1,2.3c0,0.3-0.1,0.5-0.1,0.7c0,0.1,0,0.1,0,0.2c0,0,0,0,0,0.1
		c0,0,0,0,0-0.1v-0.2c0-0.2,0.1-0.4,0.1-0.7c0.1-0.8,0.1-1.5,0.1-2.3c0-0.4-0.1-0.8-0.1-1.3c-0.1-0.3-0.1-0.7-0.2-1
		c0-0.1,0-0.1-0.1-0.2c0-0.1,0-0.1-0.1-0.2l-0.1-0.2c0,0,0-0.1-0.1-0.1C316.2,266.3,316.2,266.3,316.1,266.2L316.1,266.2z"/>
	<path class="st5" d="M316.3,264C316.3,264.1,316.3,264.1,316.3,264l0.1,0.3l0.1,0.2c0,0.1,0,0.1,0.1,0.2c0,0.2,0.1,0.3,0.2,0.5
		l0.1,0.3c0,0.1,0,0.2,0.1,0.3c0.1,0.2,0.1,0.5,0.2,0.8c0.1,0.5,0.2,1.1,0.2,1.8c0,0.7,0.1,1.2,0.1,1.8c0,0.5,0,1,0,1.4
		c0,0.2,0,0.4,0,0.5c0,0.2,0,0.3,0,0.4s0,0.2,0,0.3v0.1v-0.1c0-0.1,0-0.2,0-0.3s0-0.3,0-0.4c0-0.2,0-0.3,0-0.5c0-0.4,0-0.9,0-1.4
		s0-1.1-0.1-1.8c-0.1-0.6-0.1-1.2-0.2-1.8c-0.1-0.3-0.1-0.5-0.2-0.8c0-0.1-0.1-0.2-0.1-0.3l-0.1-0.3c0-0.2-0.1-0.4-0.2-0.5
		c0-0.1,0-0.1-0.1-0.2c-0.1-0.1,0-0.1-0.1-0.2L316.3,264C316.4,264.1,316.3,264.1,316.3,264z"/>
	<path class="st5" d="M318.4,273.4L318.4,273.4C318.4,273.3,318.4,273.3,318.4,273.4c0-0.2,0-0.3,0-0.5c0-0.3,0-0.8,0.1-1.3
		c0.1-1.1,0.2-2.6,0.4-4.3c0.1-0.8,0.2-1.6,0.3-2.4c0.1-0.4,0.1-0.7,0.2-1s0.1-0.6,0.2-0.9c0.1-0.3,0.1-0.5,0.2-0.7
		c0-0.2,0.1-0.4,0.1-0.5c0-0.1,0.1-0.3,0.1-0.3v-0.1l0,0l0,0c0,0,0,0,0,0.1s-0.1,0.2-0.1,0.3c0,0.1-0.1,0.3-0.1,0.5
		c0,0.2-0.1,0.5-0.2,0.7c0,0.3-0.1,0.6-0.2,0.9c-0.1,0.3-0.1,0.7-0.2,1c-0.1,0.7-0.2,1.5-0.3,2.4c-0.2,1.7-0.3,3.2-0.3,4.3
		c0,0.6,0,1-0.1,1.3c0,0.2,0,0.3,0,0.4L318.4,273.4L318.4,273.4z"/>
	<path class="st7" d="M318,262.2c0-0.4,0.4-0.7,0.8-0.7c0.4,0,0.7,0.2,1,0.5c0.2,0.3,0.4,0.7,0.5,1c0.3,0.9,0.4,1.8,0.3,2.8
		c-0.1,0.9-0.5,1.8-1.1,2.5c-0.1,0.1-0.2,0.2-0.4,0.2c-0.1,0-0.2-0.1-0.2-0.1c-1.3-1.2-2-2.9-2-4.7c0-0.4,0.1-0.7,0.2-1
		C317.2,262.4,317.7,262.1,318,262.2"/>
	<path class="st7" d="M320.8,259.1l0.5,1c0,0,0,0,0.1,0c0,0,0,0,0.1,0l1.4-2.2l-0.3-0.2L320.8,259.1z"/>
	<g class="st8">
		<path d="M320.8,259.1l0.5,1c0,0,0,0,0.1,0c0,0,0,0,0.1,0l1.4-2.2l-0.3-0.2L320.8,259.1z"/>
	</g>
	<path class="st7" d="M318,260.9l4.8-2.9l0.1-0.1c0-0.1,0-0.1-0.1-0.2c-0.7-0.7-1.6-1.1-2.6-1c-1,0.1-1.8,0.6-2.3,1.5
		C317.4,259,317.4,260.1,318,260.9"/>
	<path class="st5" d="M322.1,257.1L322.1,257.1c-0.1,0-0.2,0-0.2,0c-0.2,0-0.4,0-0.7,0.1s-0.7,0.2-1,0.3c-0.8,0.3-1.4,0.9-1.8,1.6
		c-0.2,0.3-0.3,0.6-0.4,0.9c-0.1,0.2-0.1,0.4-0.1,0.7c0,0.1,0,0.1,0,0.1v0.1c0-0.1,0-0.2,0-0.2c0-0.2,0.1-0.4,0.1-0.7
		c0.4-1.5,1.6-2.6,3.1-2.8c0.2,0,0.4-0.1,0.7-0.1C322,257.1,322.1,257.1,322.1,257.1z"/>
	<path class="st5" d="M318.6,258.9c0.1,0,0.2,0.1,0.2,0.1c0.2,0.1,0.4,0.1,0.6,0.2c0.2,0.1,0.5,0.1,0.6,0.2c0.1,0,0.2,0,0.3,0
		c-0.1,0-0.2-0.1-0.2-0.1l-0.6-0.2l-0.6-0.1C318.8,259,318.7,258.9,318.6,258.9z"/>
	<path class="st5" d="M319.4,256.9c0,0.2-0.1,0.4-0.1,0.5c0,0.2,0,0.4,0,0.5c0-0.2,0-0.4,0-0.5C319.4,257.2,319.4,257,319.4,256.9z"
		/>
	<path class="st5" d="M322.8,258c-0.1,0-0.2-0.1-0.4-0.1c-0.2-0.1-0.5-0.2-0.9-0.2c-0.3-0.1-0.7-0.1-0.9-0.2c-0.1,0-0.2,0-0.4,0
		c0.1,0,0.2,0.1,0.4,0.1c0.2,0,0.5,0.1,0.9,0.2c0.3,0.1,0.7,0.2,0.9,0.2C322.6,257.9,322.7,258,322.8,258z"/>
	<path class="st7" d="M320,261.4c0.4-0.3,0.9-0.4,1.4-0.4s1,0.2,1.5,0.4c0.8,0.4,1.6,0.9,2.1,1.6s0.7,1.7,0.3,2.6
		c0,0.1-0.1,0.2-0.2,0.2s-0.2,0-0.3,0c-0.9-0.3-1.9-0.6-2.7-1.1s-1.6-1.1-2.1-2c-0.1-0.2-0.2-0.4-0.2-0.7
		C319.8,261.8,319.8,261.6,320,261.4"/>
	<path class="st5" d="M320,261.3L320,261.3l0.3,0.1h0.1c0,0,0.1,0,0.2,0.1c0.1,0,0.2,0.1,0.4,0.2l0.2,0.1c0.1,0,0.2,0.1,0.2,0.1
		c0.2,0.1,0.3,0.2,0.5,0.3c0.8,0.5,1.5,1.1,2,1.8c0.1,0.2,0.3,0.3,0.4,0.5c0,0.1,0.1,0.2,0.2,0.2l0.1,0.2c0.1,0.1,0.2,0.3,0.2,0.4
		s0.1,0.1,0.1,0.2l0.1,0.1c0,0.1,0.1,0.1,0.1,0.2c0,0,0,0,0,0.1c0,0,0,0,0-0.1l-0.1-0.2c0,0,0-0.1-0.1-0.1c0,0,0-0.1-0.1-0.2
		s-0.1-0.2-0.2-0.4l-0.1-0.2c0-0.1-0.1-0.1-0.2-0.2c-0.1-0.2-0.2-0.3-0.4-0.5c-0.3-0.4-0.6-0.7-0.9-1s-0.7-0.6-1.1-0.8
		c-0.2-0.1-0.4-0.2-0.5-0.3c-0.1,0-0.2-0.1-0.2-0.1l-0.2-0.2c-0.1-0.1-0.3-0.1-0.4-0.2c-0.1,0-0.1,0-0.2-0.1h-0.1L320,261.3
		L320,261.3z"/>
	<path class="st5" d="M323.2,263.1c0.3,0.1,0.7,0.2,1,0.3c0.3,0.1,0.7,0.2,1,0.3c-0.3-0.1-0.7-0.2-1-0.3
		C323.9,263.2,323.6,263.1,323.2,263.1z"/>
	<path class="st5" d="M323.3,265.3c0-0.1,0-0.2,0-0.3c0-0.2,0-0.5,0-0.8c0-0.3,0-0.6,0-0.8c0-0.1,0-0.2,0-0.3c0,0.1,0,0.2,0,0.3
		c0,0.2,0,0.5,0,0.8c0,0.3,0,0.5,0,0.8C323.3,265.1,323.3,265.2,323.3,265.3z"/>
	<path class="st5" d="M321.4,264.3c0,0,0.1-0.5,0.1-1.2s0.1-1.2,0.1-1.2s-0.1,0.5-0.1,1.2C321.4,263.8,321.4,264.3,321.4,264.3z"/>
	<path class="st5" d="M323.8,261.8c-0.1,0-0.2,0-0.3,0c-0.2,0-0.5,0-0.8,0c-0.3,0-0.6,0-0.8,0c-0.1,0-0.2,0-0.3,0c0.1,0,0.2,0,0.3,0
		c0.2,0,0.5,0,0.8,0c0.3,0,0.6,0,0.8,0C323.5,261.8,323.7,261.8,323.8,261.8z"/>
	<path class="st5" d="M319.2,268.5L319.2,268.5c0-0.1,0-0.2,0-0.3c0-0.2,0-0.4,0-0.7s0-0.6-0.1-1c0-0.4-0.1-0.8-0.2-1.2
		c-0.1-0.4-0.2-0.8-0.3-1.2c-0.1-0.4-0.2-0.7-0.3-1s-0.2-0.5-0.2-0.6l-0.1-0.2c0,0,0,0,0-0.1c0,0,0,0,0,0.1c0,0,0,0.1,0.1,0.2
		c0.1,0.2,0.1,0.4,0.2,0.7c0.1,0.3,0.2,0.6,0.3,1c0.1,0.4,0.2,0.8,0.3,1.2s0.1,0.9,0.2,1.2c0.1,0.3,0.1,0.7,0.1,1c0,0.3,0,0.5,0,0.7
		C319.2,268.3,319.2,268.4,319.2,268.5L319.2,268.5z"/>
	<path class="st5" d="M318.9,265.3c0.1,0.1,0.1,0.2,0.2,0.2c0.1,0.1,0.3,0.3,0.5,0.5c0.2,0.2,0.4,0.3,0.5,0.4
		c0.1,0.1,0.2,0.1,0.2,0.2c-0.1-0.1-0.1-0.1-0.2-0.2l-0.5-0.4l-0.5-0.5C319.1,265.4,319,265.4,318.9,265.3z"/>
	<path class="st5" d="M317.4,266.6c0.1-0.1,0.1-0.2,0.2-0.3l0.5-0.7l0.5-0.7c0.1-0.1,0.1-0.2,0.2-0.3c-0.1,0.1-0.2,0.2-0.2,0.3
		c-0.1,0.2-0.3,0.4-0.5,0.7c-0.2,0.3-0.4,0.5-0.5,0.7C317.5,266.4,317.4,266.4,317.4,266.6z"/>
	<path class="st5" d="M318.2,262.6c0,0,0.5,0.4,1.1,0.8c0.6,0.4,1.2,0.7,1.2,0.7s-0.5-0.4-1.1-0.8
		C318.7,263,318.2,262.6,318.2,262.6z"/>
	<path class="st5" d="M316.7,264.2c0.3-0.2,0.5-0.5,0.8-0.7s0.5-0.5,0.7-0.8c-0.3,0.2-0.5,0.5-0.8,0.7
		C317.2,263.7,317,263.9,316.7,264.2z"/>
	<path class="st7" d="M316.4,264.2H316c-0.3,0-0.6-0.1-0.9-0.3c-0.1-0.1-0.3-0.1-0.4-0.2c-0.5-0.2-1.1-0.2-1.7-0.2
		c-0.9,0-1.9-0.3-2.7-0.7l-0.1-0.1c-0.1-0.2,0.1-0.3,0.2-0.4c0.7-0.5,1.5-0.9,2.3-1.1s1.8-0.2,2.5,0.3S316.2,263.2,316.4,264.2"/>
	<path class="st5" d="M310.1,262.6L310.1,262.6l0.3-0.1c0.2-0.1,0.4-0.2,0.8-0.4c0.4-0.2,0.8-0.3,1.2-0.5c0.5-0.1,1-0.2,1.5-0.1
		s1,0.3,1.4,0.6c0.3,0.3,0.6,0.6,0.7,1c0.1,0.3,0.2,0.5,0.3,0.8c0,0.1,0.1,0.2,0.1,0.2s0,0,0,0.1v-0.1c0-0.1,0-0.1-0.1-0.2
		c-0.1-0.3-0.2-0.5-0.3-0.8c-0.2-0.4-0.4-0.8-0.7-1c-0.4-0.3-0.9-0.6-1.4-0.6c-0.5-0.1-1.1,0-1.6,0.1c-0.4,0.1-0.8,0.3-1.2,0.5
		c-0.3,0.2-0.6,0.3-0.8,0.4L310.1,262.6L310.1,262.6z"/>
	<path class="st5" d="M311.1,263.1c0,0,0.6-0.4,1.3-0.8c0.7-0.5,1.3-0.9,1.2-0.9s-0.6,0.4-1.3,0.8
		C311.6,262.7,311.1,263.1,311.1,263.1z"/>
	<path class="st5" d="M311.7,261.4c0.3,0.1,0.6,0.1,0.8,0.1c-0.1,0-0.3,0-0.4,0C312,261.4,311.9,261.4,311.7,261.4z"/>
	<path class="st5" d="M314.2,261.1c0,0.1,0.1,0.2,0.2,0.3c0.1,0.1,0.1,0.2,0.2,0.3c0-0.1-0.1-0.2-0.2-0.3
		C314.4,261.3,314.3,261.2,314.2,261.1z"/>
	<path class="st5" d="M313.7,263.5c0.1,0,0.2-0.1,0.3-0.2c0.2-0.1,0.4-0.3,0.6-0.4c0.2-0.1,0.4-0.3,0.6-0.5c0.1-0.1,0.2-0.1,0.2-0.2
		c-0.1,0-0.2,0.1-0.3,0.2c-0.2,0.1-0.4,0.3-0.6,0.4c-0.2,0.1-0.5,0.3-0.6,0.4C313.9,263.4,313.8,263.4,313.7,263.5z"/>
	<path class="st7" d="M315.7,266c0.4-0.1,0.9,0.3,1,0.7c0.1,0.4-0.1,0.9-0.3,1.2c-0.4,0.9-1,1.7-1.7,2.3c-0.7,0.6-1.7,1-2.6,1
		c0.2-0.8,0-1.7,0-2.5c0.2-1.5,1.4-2.7,2.9-2.9C315.3,265.8,315.6,265.8,315.7,266"/>
	<path class="st5" d="M312.1,271.3L312.1,271.3c0.1-0.1,0.2-0.1,0.2-0.1c0.2-0.2,0.3-0.3,0.4-0.5c0.1-0.1,0.1-0.3,0.2-0.4
		c0.1-0.2,0.1-0.3,0.2-0.5c0.1-0.2,0.2-0.4,0.3-0.5c0.1-0.2,0.2-0.4,0.4-0.5c0.3-0.3,0.6-0.6,0.9-0.9c0.2-0.2,0.5-0.5,0.7-0.8
		c0.1-0.2,0.2-0.4,0.3-0.6c0-0.1,0-0.1,0.1-0.2c0,0,0,0,0-0.1c0,0,0,0.1-0.1,0.2c-0.1,0.2-0.2,0.4-0.3,0.6c-0.2,0.3-0.4,0.5-0.7,0.8
		c-0.3,0.3-0.6,0.6-0.9,0.9c-0.1,0.2-0.3,0.3-0.4,0.5c-0.1,0.2-0.2,0.4-0.3,0.5l-0.2,0.5c-0.1,0.2-0.1,0.3-0.2,0.4
		c-0.1,0.2-0.2,0.4-0.4,0.6C312.2,271.2,312.1,271.3,312.1,271.3z"/>
	<path class="st5" d="M314.3,270.6c0-0.1,0-0.2,0-0.3c0-0.2-0.1-0.4-0.2-0.7s-0.2-0.5-0.2-0.7c0-0.1-0.1-0.2-0.1-0.3
		c0,0.1,0,0.2,0.1,0.3c0,0.2,0.1,0.4,0.2,0.7s0.1,0.5,0.2,0.7C314.2,270.4,314.2,270.5,314.3,270.6z"/>
	<path class="st5" d="M312.2,268.6c0.1,0,0.2,0,0.3-0.1c0.2,0,0.4-0.1,0.7-0.2c0.3-0.1,0.5-0.1,0.7-0.1c0.1,0,0.2,0,0.3-0.1
		c-0.1,0-0.2,0-0.3,0c-0.2,0-0.4,0.1-0.7,0.1c-0.3,0.1-0.5,0.1-0.7,0.2C312.4,268.5,312.3,268.5,312.2,268.6z"/>
	<path class="st5" d="M315.8,269.1c0-0.1,0-0.2,0-0.3c0-0.2-0.1-0.5-0.2-0.8s-0.2-0.6-0.2-0.8c0-0.1-0.1-0.2-0.1-0.3
		c0,0.1,0,0.2,0.1,0.3c0.1,0.2,0.1,0.5,0.2,0.8s0.1,0.6,0.2,0.8C315.8,268.9,315.8,269,315.8,269.1z"/>
	<path class="st5" d="M313.2,266.8c0,0,0.5,0,1.2-0.1c0.4,0,0.8-0.1,1.2-0.2c0,0-0.5,0-1.2,0.1C313.9,266.7,313.5,266.7,313.2,266.8
		z"/>
	<path class="st6" d="M313.5,273.1c0,0,1.8,0,4.1,0s4.1,0,4.1,0s-1.8,0-4.1,0S313.5,273.1,313.5,273.1z"/>
	<path class="st6" d="M314.8,275.5c0,0,1.2,0,2.8,0s2.8,0,2.8,0s-1.2,0-2.8,0S314.8,275.5,314.8,275.5z"/>
	<path class="st6" d="M314.9,275.9c0,0,1.2,0,2.7,0s2.7,0,2.7,0s-1.2,0-2.7,0S314.9,275.8,314.9,275.9z"/>
	<path class="st6" d="M314.8,275.2c0,0,1.3,0,2.9,0c1.6,0,2.9,0,2.9,0s-1.3,0-2.9,0C316.1,275.2,314.8,275.2,314.8,275.2z"/>
</g>
<g id="freepik--Device--inject-25">
	<path class="st5" d="M324.6,288.1h-13.7c-1.6,0-3-1.3-3-3l0,0v-34.6c0-1.7,1.3-3,3-3h13.7c1.6,0,3,1.3,3,3v34.6
		C327.6,286.7,326.2,288.1,324.6,288.1L324.6,288.1z"/>
	<path class="st3" d="M324.6,248.7h-2.7c-0.4,0-0.7,0.3-0.7,0.7v0.5c0,0.4-0.3,0.7-0.7,0.7h-5.2c-0.4,0-0.7-0.3-0.7-0.7l0,0v-0.5
		c0-0.4-0.3-0.7-0.7-0.7h-3.3c-1.2,0-2.1,0.9-2.1,2.1l0,0v33.7c0,1.2,0.9,2.1,2.1,2.1l0,0h13.7c1.2,0,2.1-0.9,2.1-2.1l0,0v-33.7
		C326.7,249.7,325.7,248.7,324.6,248.7L324.6,248.7z"/>
	<path class="st5" d="M316.5,285.2c0,0.1-0.1,0.3-0.3,0.3c-0.1,0-0.3-0.1-0.3-0.3c0-0.1,0.1-0.3,0.3-0.3l0,0
		C316.3,284.9,316.5,285.1,316.5,285.2L316.5,285.2z"/>
	<path class="st2" d="M317.9,285.2c0,0.1-0.1,0.3-0.3,0.3c-0.1,0-0.3-0.1-0.3-0.3c0-0.1,0.1-0.3,0.3-0.3
		C317.8,284.9,317.9,285.1,317.9,285.2L317.9,285.2z"/>
	<path class="st2" d="M319.4,285.2c0,0.1-0.1,0.3-0.3,0.3c-0.1,0-0.3-0.1-0.3-0.3c0-0.1,0.1-0.3,0.3-0.3
		C319.3,284.9,319.4,285,319.4,285.2L319.4,285.2z"/>
	<path class="st5" d="M310.6,253.4L310.6,253.4L310.6,253.4h0.4l0,0c0-0.1,0-0.2,0-0.2v-0.1c0-0.1,0.1-0.1,0.1-0.1
		c0.1,0,0.1,0,0.2,0c0.1,0,0.1,0.1,0.1,0.1c0,0.1,0,0.2,0,0.4l0,0h0.4l0,0c0-0.2,0-0.3,0-0.5v-0.1c0,0,0-0.1-0.1-0.1
		c-0.1-0.1-0.1-0.1-0.2-0.2l-0.2-0.2l-0.1-0.1c0,0,0-0.1-0.1-0.1H311c0,0,0,0-0.1,0.1l-0.2,0.2c-0.1,0.1-0.2,0.2-0.3,0.3
		c0,0,0,0.1,0,0.2v0.1c0,0.1,0,0.2,0,0.2S310.6,253.3,310.6,253.4L310.6,253.4L310.6,253.4c0-0.1,0-0.1,0-0.2c0-0.1,0-0.1,0-0.2
		c0,0,0-0.1,0-0.2v-0.1v-0.1c0.1-0.1,0.2-0.2,0.3-0.3l0.1-0.2c0,0,0,0,0.1-0.1h0.1c0,0,0.1,0,0.1,0.1l0.1,0.1l0.2,0.2l0.2,0.2
		l0.1,0.1v0.1c0,0.2,0,0.4,0,0.5l0,0l0,0h-0.4l0,0l0,0c0-0.1,0-0.2,0-0.4c0,0,0-0.1-0.1-0.1c-0.1,0-0.1,0-0.2,0c0,0-0.1,0-0.1,0.1
		v0.1c0,0.1,0,0.2,0,0.2l0,0l0,0h-0.3L310.6,253.4L310.6,253.4z"/>
	<path class="st1" d="M325.8,255.1L325.8,255.1c0.1,0,0.2,0.1,0.2,0.2v29.4c0,0.1-0.1,0.2-0.2,0.2l0,0c-0.1,0-0.2-0.1-0.2-0.2v-29.4
		C325.6,255.2,325.7,255.1,325.8,255.1z"/>
	<path class="st2" d="M325.8,256.5L325.8,256.5c0.1,0,0.2,0.1,0.2,0.1v2.1c0,0.1-0.1,0.1-0.1,0.1l0,0c-0.1,0-0.1-0.1-0.1-0.1v-2.1
		C325.6,256.5,325.7,256.5,325.8,256.5z"/>
	<path class="st3" d="M310.7,254.9h13.9c0.3,0,0.5,0.2,0.5,0.5v5.4c0,0.3-0.2,0.5-0.5,0.5h-13.9c-0.3,0-0.5-0.2-0.5-0.5v-5.4
		C310.2,255.2,310.4,254.9,310.7,254.9z"/>
	<path class="st7" d="M310.7,254.9h7.1l0,0v6.4l0,0h-7.1c-0.3,0-0.5-0.2-0.5-0.5v-5.5C310.2,255.2,310.4,254.9,310.7,254.9z"/>
	<g class="st9">
		<path d="M316.4,258.4c0.2-0.2,0.3-0.4,0.4-0.7c0.1-0.2,0.1-0.4,0-0.5c-0.1-0.1-0.2-0.2-0.3-0.2c-0.5-0.2-0.9-0.4-1.4-0.5l-3.6,1.3
			c-0.1,0.3,0.1,0.6,0.4,0.7c0.1,0,0.3,0,0.4-0.1c0.1,0.7,0.1,1.5-0.2,2.1c0,0.1-0.1,0.2,0,0.3c0.1,0.1,0.2,0.1,0.3,0.1h3.6
			c0.2,0,0.4,0,0.5-0.1c0.1-0.1,0.1-0.4,0-0.5l-0.4-1.4c0-0.1,0-0.2,0-0.2C316.2,258.5,316.3,258.5,316.4,258.4z"/>
	</g>
	<path class="st3" d="M315.9,260.2l-0.3-1.2l0.1-1.2l0.1-1.7L315,256c-0.6,0.3-1.5,0.5-2.2,0.2c0,0-0.3,0-0.5,0.2
		c-0.1,0.1,0,0.6,0.1,1c0.1,0.5,0.4,1.8,0.4,1.8s-0.4,1.1-0.5,1.4c0,0,2.8-0.5,3.7,0C315.9,260.5,316.1,260.5,315.9,260.2z"/>
	<path class="st3" d="M311.2,256.9l1-0.6l0.3,1.4l-0.5,0.4C312,258.1,311.2,257.7,311.2,256.9z"/>
	<path class="st3" d="M315.7,256l1.1,0.5c0,0-0.3,1.3-0.5,1.5l-0.5-0.2l-0.1,0.4v-1.7V256z"/>
	<path class="st2" d="M312.1,258L312.1,258c-0.1,0-0.1-0.1-0.2-0.1c-0.1-0.1-0.3-0.2-0.4-0.4c0-0.1-0.1-0.2-0.1-0.3
		c0-0.1,0-0.2-0.1-0.2c0,0,0-0.1,0-0.2c0,0,0,0,0-0.1c0,0,0,0.1,0,0.2s0,0.2,0.1,0.2c0,0.1,0.1,0.2,0.1,0.2c0.1,0.1,0.2,0.3,0.3,0.4
		C312,258,312.1,258,312.1,258z"/>
	<path class="st2" d="M312.4,257.5L312.4,257.5c-0.1,0-0.1-0.1-0.1-0.1c-0.1-0.1-0.2-0.2-0.2-0.3c0-0.1-0.1-0.2-0.2-0.3
		c0,0,0-0.1-0.1-0.2c0,0,0,0.1,0.1,0.1c0.1,0.1,0.1,0.2,0.2,0.3c0.1,0.1,0.2,0.2,0.2,0.3C312.3,257.4,312.3,257.4,312.4,257.5
		L312.4,257.5z"/>
	<path class="st2" d="M315.6,256.1h-0.1c-0.1,0-0.2,0-0.3,0.1l-0.5,0.2c-0.2,0.1-0.4,0.1-0.6,0.1c-0.4,0-0.8,0-1.2-0.1
		c-0.1,0-0.2-0.1-0.3-0.1h-0.1l0,0c0,0,0.1,0,0.1,0.1c0.1,0,0.2,0.1,0.3,0.1c0.4,0.1,0.8,0.2,1.2,0.1c0.2,0,0.4-0.1,0.6-0.1
		c0.2-0.1,0.4-0.1,0.5-0.2c0.1-0.1,0.3-0.1,0.3-0.1C315.5,256.1,315.5,256.1,315.6,256.1L315.6,256.1z"/>
	<path class="st2" d="M315.7,257.1L315.7,257.1L315.7,257.1c-0.2,0-0.3,0-0.5,0c-0.4,0-0.8,0.1-1.2,0.1c-0.5,0-0.9,0-1.2,0h-0.4
		h-0.1l0,0l0,0h0.1h0.4c0.3,0,0.7,0,1.2,0s0.9,0,1.2,0C315.4,257.2,315.5,257.2,315.7,257.1L315.7,257.1L315.7,257.1z"/>
	<path class="st2" d="M315.7,257.8L315.7,257.8h-0.2c0,0-0.1,0-0.2,0c-0.4,0.1-0.7,0.1-1.1,0.1c-0.4,0-0.8,0-1.1,0
		c-0.1,0-0.3,0-0.3,0h-0.1h0.1c0.1,0,0.2,0,0.3,0c0.3,0,0.7,0,1.1,0c0.4,0,0.7,0,1.1-0.1c0.1,0,0.1,0,0.2,0S315.6,257.8,315.7,257.8
		C315.6,257.8,315.6,257.8,315.7,257.8z"/>
	<path class="st2" d="M315.6,258.6h-0.1c-0.1,0-0.2,0-0.3,0c-0.3,0-0.6,0-1,0c-0.4,0-0.8,0-1,0c-0.1,0-0.2,0-0.3,0h-0.1h0.1
		c0.1,0,0.2,0,0.3,0c0.3,0,0.6,0,1,0c0.4,0,0.8,0,1,0h0.3C315.5,258.6,315.5,258.6,315.6,258.6z"/>
	<path class="st2" d="M315.7,259.5L315.7,259.5h-0.4c-0.3,0-0.7,0-1.1,0c-0.4,0-0.8,0-1.1,0h-0.3h-0.1h0.1c0.1,0,0.2,0,0.3,0
		c0.3,0,0.7,0,1.1,0c0.4,0,0.8,0,1.1,0C315.4,259.5,315.6,259.5,315.7,259.5L315.7,259.5z"/>
	<path class="st2" d="M316.1,256.4c0,0.1-0.1,0.2-0.1,0.3c0,0.1-0.1,0.2-0.2,0.3c0,0,0.1-0.1,0.2-0.3
		C316.1,256.5,316.1,256.4,316.1,256.4z"/>
	<path class="st5" d="M312.3,256.8C312.3,256.8,312.3,256.9,312.3,256.8c0,0.2,0.1,0.2,0.1,0.3c0,0.2,0.1,0.5,0.2,0.8
		c0.1,0.3,0.1,0.6,0.2,0.8c0,0.1,0,0.2,0,0.2v0.1v-0.1c0-0.1,0-0.1,0-0.2c0-0.2-0.1-0.5-0.2-0.8c-0.1-0.3-0.1-0.6-0.2-0.8
		C312.4,257,312.4,256.9,312.3,256.8C312.3,256.9,312.3,256.8,312.3,256.8z"/>
	<path class="st5" d="M315.7,257.2L315.7,257.2c0,0.1,0,0.2,0,0.3c0,0.2,0,0.4,0,0.6c0,0.2,0,0.5,0,0.6s0,0.1,0,0.2c0,0,0,0,0,0.1
		c0,0,0,0,0-0.1c0,0,0-0.1,0-0.2c0-0.2,0-0.4,0-0.6c0-0.2,0-0.5,0-0.6S315.7,257.3,315.7,257.2L315.7,257.2z"/>
	<path class="st2" d="M316.5,256.4c0,0.1,0,0.1-0.1,0.2c-0.1,0.1-0.1,0.3-0.2,0.5c-0.1,0.2-0.1,0.4-0.1,0.5c0,0.1,0,0.1,0,0.2
		c0,0,0,0,0-0.1c0,0,0-0.1,0-0.2c0-0.2,0.1-0.4,0.1-0.5c0.1-0.2,0.1-0.3,0.2-0.5C316.4,256.5,316.4,256.5,316.5,256.4L316.5,256.4z"
		/>
	<path class="st2" d="M315.9,260.2L315.9,260.2L315.9,260.2c-0.1,0-0.2,0-0.3,0c-0.1,0-0.1,0-0.2,0s-0.2,0-0.3,0c-0.1,0-0.2,0-0.3,0
		c-0.5,0-1,0-1.5,0.1c-0.1,0-0.2,0-0.3,0.1c-0.1,0-0.2,0-0.3,0.1c-0.1,0.1-0.2,0-0.2,0.1c-0.1,0-0.1,0-0.2,0.1h-0.1l0,0l0,0h0.1
		c0,0,0.1,0,0.2-0.1c0.1-0.1,0.1-0.1,0.2-0.1s0.2-0.1,0.3-0.1c0.1,0,0.2,0,0.3-0.1c0.5-0.1,1-0.1,1.5-0.1c0.1,0,0.2,0,0.3,0
		c0.1,0,0.2,0,0.3,0s0.2,0,0.2,0S315.7,260.2,315.9,260.2L315.9,260.2L315.9,260.2z"/>
	<path class="st7" d="M317.8,261.4c0,0,0-1.4,0-3.2c0-1.8,0-3.2,0-3.2s0,1.4,0,3.2C317.8,260,317.8,261.4,317.8,261.4z"/>
	<path class="st7" d="M324.6,261.4L324.6,261.4c0.2,0,0.3-0.1,0.4-0.2c0-0.1,0.1-0.1,0.1-0.2s0-0.2,0-0.3c0-0.2,0-0.4,0-0.7
		c0-1.1,0-2.6,0-4.5c0-0.1,0-0.1,0-0.2c0-0.2-0.2-0.3-0.3-0.4c-0.1,0-0.2,0-0.4,0h-2h-3.6h-8.1c-0.2,0-0.3,0.1-0.4,0.2
		c0,0.1-0.1,0.2-0.1,0.2v1.3c0,0.7,0,1.4,0,2.1v2c0,0.2,0.1,0.3,0.2,0.4c0.1,0,0.1,0.1,0.2,0.1c0.1,0,0.2,0,0.2,0h0.9h6.6h4.5h1.2
		h0.3L324.6,261.4c0,0,0,0-0.1,0h-0.3H323h-4.5h-6.6H311c-0.1,0-0.2,0-0.2,0c-0.1,0-0.2,0-0.2-0.1c-0.1-0.1-0.2-0.3-0.2-0.4
		c0-0.7,0-1.3,0-2v-3.4c0-0.3,0.2-0.5,0.6-0.5h8.1h3.6h1.3h0.6c0.1,0,0.1,0,0.2,0c0.2,0.1,0.3,0.2,0.4,0.4c0,0.1,0,0.1,0,0.2
		c0,1.9,0,3.4,0,4.5c0,0.3,0,0.5,0,0.7c0,0.1,0,0.2,0,0.3c0,0.1-0.1,0.1-0.1,0.2c-0.1,0.1-0.2,0.1-0.3,0.2
		C324.7,261.4,324.6,261.4,324.6,261.4z"/>
	<path class="st7" d="M321.1,256.4c0,0-0.6,0-1.4,0s-1.4,0-1.4,0s0.6,0,1.4,0S321.1,256.4,321.1,256.4z"/>
	<path class="st7" d="M323.7,257.3c0,0-1.2,0-2.7,0s-2.7,0-2.7,0s1.2,0,2.7,0C322.5,257.2,323.7,257.2,323.7,257.3z"/>
	<path class="st7" d="M323.7,257.8c0,0-1.2,0-2.7,0s-2.7,0-2.7,0s1.2,0,2.7,0C322.5,257.7,323.7,257.7,323.7,257.8z"/>
	<path class="st7" d="M323.2,260.2c0-0.1,0-0.1-0.1-0.2l-0.1-0.1c-0.1,0-0.2,0-0.2,0.1c0,0,0,0-0.1-0.1c0,0-0.1,0-0.2,0
		c-0.1,0-0.1,0-0.1,0.1l-0.1,0.1c0,0.1,0,0.1,0,0.2c0,0.1,0.1,0.1,0.2,0.2l0.2,0.2c0,0,0.1-0.1,0.2-0.1c0.1,0,0.1-0.1,0.2-0.2
		C323.2,260.3,323.2,260.3,323.2,260.2z"/>
	<path class="st5" d="M322.7,260.7L322.7,260.7c0,0-0.1-0.1-0.2-0.2c-0.1,0-0.1-0.1-0.2-0.2c0-0.1,0-0.1,0-0.2s0-0.1,0.1-0.2
		l0.1-0.1c0.1,0,0.1,0,0.2,0c0,0,0,0,0.1,0.1c0.1-0.1,0.1-0.1,0.2-0.1c0.1,0,0.1,0,0.1,0.1c0,0,0.1,0.1,0.1,0.2s0,0.2,0,0.2
		c0,0.1-0.1,0.1-0.2,0.2C322.8,260.6,322.7,260.7,322.7,260.7L322.7,260.7z M322.5,260L322.5,260c-0.1,0-0.2,0.1-0.2,0.2
		c0,0.1,0,0.1,0,0.2s0.1,0.1,0.2,0.2c0.1,0.1,0.2,0.1,0.2,0.1s0.1-0.1,0.2-0.1s0.1-0.1,0.2-0.1c0-0.1,0-0.1,0-0.2l0,0
		c0,0,0-0.1-0.1-0.1l-0.1-0.1c-0.1,0-0.2,0-0.2,0.1l0,0l0,0C322.7,260.2,322.7,260.2,322.5,260C322.6,260,322.6,260,322.5,260
		L322.5,260z"/>
	<path class="st5" d="M324.4,260.6h-0.2h-0.4l0,0l0,0v-0.1c0-0.2,0-0.4-0.1-0.5l0,0h-0.1l0,0l0,0h0.2c0,0.1,0,0.3,0.1,0.5
		c0,0,0,0,0,0.1l0,0H324.4L324.4,260.6L324.4,260.6L324.4,260.6z"/>
	<path class="st5" d="M324.2,260.6h-0.4l0,0v-0.1l-0.1-0.5h-0.1l0,0l0,0h0.1l0,0l0,0l0.1,0.5l0,0h0.6l0,0l0,0L324.2,260.6
		L324.2,260.6z"/>
	<path class="st5" d="M323.8,260.4h0.2h0.4l0,0c0-0.1,0-0.2,0-0.2v-0.1l0,0h-0.5h-0.2h0.2h0.5l0,0l0,0v0.1c0,0.1,0,0.2,0,0.2l0,0
		l0,0H324H323.8L323.8,260.4L323.8,260.4z"/>
	<path class="st5" d="M324.4,260.4L324.4,260.4h-0.6l0,0l0,0l0,0h0.2H324.4V260h-0.7l0,0l0,0h0.2h0.5l0,0l0,0v0.1
		C324.4,260.2,324.4,260.2,324.4,260.4L324.4,260.4L324.4,260.4L324.4,260.4z"/>
	<path class="st5" d="M323.9,260.7L323.9,260.7L323.9,260.7L323.9,260.7C323.8,260.7,323.8,260.7,323.9,260.7
		C323.8,260.7,323.8,260.8,323.9,260.7C323.9,260.8,323.9,260.8,323.9,260.7L323.9,260.7L323.9,260.7L323.9,260.7
		C323.9,260.7,323.9,260.8,323.9,260.7C323.9,260.8,323.9,260.8,323.9,260.7C323.8,260.7,323.8,260.7,323.9,260.7
		C323.8,260.7,323.9,260.7,323.9,260.7L323.9,260.7L323.9,260.7L323.9,260.7z"/>
	<path class="st5" d="M323.9,260.8L323.9,260.8C323.8,260.8,323.8,260.8,323.9,260.8C323.8,260.7,323.9,260.7,323.9,260.8
		L323.9,260.8C323.9,260.7,324,260.7,323.9,260.8L323.9,260.8L323.9,260.8C324,260.7,323.9,260.8,323.9,260.8L323.9,260.8z
		 M323.9,260.7L323.9,260.7C323.9,260.7,323.8,260.7,323.9,260.7C323.8,260.7,323.9,260.8,323.9,260.7
		C323.9,260.8,323.9,260.8,323.9,260.7L323.9,260.7L323.9,260.7L323.9,260.7L323.9,260.7L323.9,260.7L323.9,260.7L323.9,260.7z"/>
	<path class="st5" d="M324.3,260.7L324.3,260.7L324.3,260.7L324.3,260.7C324.2,260.7,324.2,260.7,324.3,260.7
		C324.2,260.7,324.2,260.8,324.3,260.7C324.3,260.8,324.3,260.8,324.3,260.7L324.3,260.7L324.3,260.7L324.3,260.7
		C324.3,260.7,324.3,260.8,324.3,260.7C324.3,260.8,324.2,260.8,324.3,260.7L324.3,260.7C324.2,260.7,324.2,260.7,324.3,260.7
		L324.3,260.7L324.3,260.7L324.3,260.7z"/>
	<path class="st5" d="M324.3,260.8L324.3,260.8C324.2,260.8,324.2,260.7,324.3,260.8C324.2,260.7,324.3,260.7,324.3,260.8
		c0-0.1,0-0.1,0.1-0.1C324.3,260.7,324.3,260.7,324.3,260.8L324.3,260.8L324.3,260.8C324.3,260.7,324.3,260.8,324.3,260.8
		L324.3,260.8z M324.3,260.7L324.3,260.7C324.2,260.7,324.2,260.7,324.3,260.7C324.2,260.7,324.2,260.8,324.3,260.7
		C324.3,260.8,324.3,260.8,324.3,260.7L324.3,260.7L324.3,260.7L324.3,260.7L324.3,260.7L324.3,260.7L324.3,260.7L324.3,260.7
		L324.3,260.7z"/>
	<path class="st5" d="M324.6,260c0,0.1-0.1,0.2-0.2,0.2c-0.1,0-0.2-0.1-0.2-0.2s0.1-0.2,0.2-0.2C324.5,259.8,324.6,259.9,324.6,260
		L324.6,260z"/>
	<path class="st3" d="M324.5,260.1L324.5,260.1L324.5,260.1C324.5,260.1,324.5,260,324.5,260.1c0-0.1,0-0.2,0-0.2
		S324.5,260,324.5,260.1C324.5,260,324.5,260.1,324.5,260.1L324.5,260.1L324.5,260.1z"/>
	<path class="st3" d="M324.6,260C324.5,260,324.5,260,324.6,260c-0.1,0-0.2,0-0.2,0S324.4,260,324.6,260
		C324.5,260,324.5,260,324.6,260z"/>
	<path class="st7" d="M321,260.4c0,0-0.6,0-1.2,0c-0.7,0-1.2,0-1.2,0s0.6,0,1.2,0C320.4,260.4,321,260.4,321,260.4z"/>
	<path class="st1" d="M310.7,262.4h13.9c0.3,0,0.5,0.2,0.5,0.5v5.4c0,0.3-0.2,0.5-0.5,0.5h-13.9c-0.3,0-0.5-0.2-0.5-0.5v-5.4
		C310.2,262.6,310.4,262.4,310.7,262.4z"/>
	<path class="st3" d="M310.7,262.4h7.1l0,0v6.4l0,0h-7.1c-0.3,0-0.5-0.2-0.5-0.5v-5.5C310.2,262.6,310.4,262.4,310.7,262.4z"/>
	<path class="st2" d="M317.8,268.9c0,0,0-1.4,0-3.2c0-1.8,0-3.2,0-3.2s0,1.4,0,3.2C317.8,267.5,317.8,268.9,317.8,268.9z"/>
	<path class="st2" d="M324.6,268.8L324.6,268.8c0.2,0,0.3-0.1,0.4-0.2c0-0.1,0.1-0.1,0.1-0.2c0-0.1,0-0.2,0-0.3c0-0.2,0-0.4,0-0.7
		c0-1.1,0-2.6,0-4.5c0-0.1,0-0.1,0-0.2c0-0.2-0.2-0.3-0.3-0.4c-0.1,0-0.2,0-0.4,0h-2h-3.6h-8.1c-0.2,0-0.3,0.1-0.4,0.2
		c0,0.1-0.1,0.2-0.1,0.2v1.3c0,0.7,0,1.4,0,2.1v2c0,0.2,0.2,0.4,0.4,0.5c0.1,0,0.2,0,0.2,0h0.9h6.6h4.5h1.2h0.3L324.6,268.8h-0.1
		h-0.3H323h-4.5h-6.6H311c-0.1,0-0.2,0-0.2,0c-0.3,0-0.5-0.3-0.5-0.5c0-0.7,0-1.3,0-2v-3.4c0-0.3,0.3-0.5,0.6-0.5h8.1h3.6h1.4h0.6
		c0.1,0,0.1,0,0.2,0c0.2,0.1,0.3,0.2,0.4,0.4c0,0.1,0,0.1,0,0.2c0,1.9,0,3.4,0,4.5c0,0.3,0,0.5,0,0.7c0,0.1,0,0.2,0,0.3
		s-0.1,0.1-0.1,0.2c-0.1,0.1-0.2,0.1-0.3,0.2C324.7,268.8,324.6,268.8,324.6,268.8z"/>
	<path class="st5" d="M321.1,263.9c0,0-0.6,0-1.4,0s-1.4,0-1.4,0s0.6,0,1.4,0S321.1,263.9,321.1,263.9z"/>
	<path class="st2" d="M323.7,264.7c0,0-1.2,0-2.7,0s-2.7,0-2.7,0s1.2,0,2.7,0S323.7,264.7,323.7,264.7z"/>
	<path class="st2" d="M323.7,265.2c0,0-1.2,0-2.7,0s-2.7,0-2.7,0s1.2,0,2.7,0S323.7,265.2,323.7,265.2z"/>
	<path class="st7" d="M323.2,267.7c0-0.1,0-0.1-0.1-0.2l-0.1-0.1c-0.1,0-0.1,0-0.2,0c0,0-0.1,0-0.1,0.1c0,0,0,0-0.1-0.1
		c0,0-0.1,0-0.2,0c-0.1,0-0.1,0-0.1,0.1l-0.1,0.1c0,0.1,0,0.1,0,0.2c0,0.1,0.1,0.1,0.2,0.2c0.1,0.1,0.2,0.2,0.2,0.2s0.1-0.1,0.2-0.1
		s0.1-0.1,0.2-0.1C323.2,267.8,323.2,267.7,323.2,267.7z"/>
	<path class="st5" d="M322.7,268.2L322.7,268.2c0,0-0.1-0.1-0.2-0.2c-0.1,0-0.1-0.1-0.2-0.2c0-0.1,0-0.1,0-0.2s0-0.1,0.1-0.2
		l0.1-0.1c0.1,0,0.1,0,0.2,0c0,0,0,0,0.1,0.1c0,0,0,0,0.1-0.1c0.1,0,0.1,0,0.2,0c0.1,0,0.1,0,0.1,0.1c0,0,0.1,0.1,0.1,0.2
		s0,0.2,0,0.2c0,0.1-0.1,0.1-0.2,0.2C322.8,268.1,322.7,268.2,322.7,268.2L322.7,268.2z M322.5,267.4L322.5,267.4
		c-0.1,0-0.1,0-0.2,0.1l-0.1,0.1c0,0.1,0,0.1,0,0.2c0,0.1,0.1,0.1,0.2,0.2c0.1,0.1,0.2,0.1,0.2,0.1s0.1-0.1,0.2-0.1
		c0.1,0,0.1-0.1,0.2-0.1c0-0.1,0-0.1,0-0.2l0,0c0,0,0-0.1-0.1-0.1l-0.1-0.1c0,0-0.1,0-0.2,0c0,0,0,0-0.1,0.1l0,0l0,0
		c0,0,0,0-0.1-0.1C322.6,267.4,322.6,267.4,322.5,267.4L322.5,267.4z"/>
	<path class="st5" d="M324.4,268h-0.2h-0.4l0,0l0,0v-0.1c0-0.2,0-0.4-0.1-0.5l0,0h-0.1h0.1l0,0l0.1,0.5c0,0,0,0,0,0.1l0,0h0.4H324.4
		L324.4,268L324.4,268z"/>
	<path class="st5" d="M324.2,268h-0.4l0,0l-0.1-0.6h-0.1l0,0l0,0h0.1l0,0l0,0l0.1,0.5l0,0h0.6l0,0l0,0h-0.2V268L324.2,268z"/>
	<path class="st5" d="M323.8,267.9h0.2h0.4l0,0c0-0.1,0-0.2,0-0.3v-0.1l0,0h-0.5h-0.2h0.2h0.5l0,0l0,0v0.1c0,0.1,0,0.2,0,0.3l0,0
		l0,0H324L323.8,267.9L323.8,267.9L323.8,267.9z"/>
	<path class="st5" d="M324.4,267.9L324.4,267.9h-0.6l0,0l0,0l0,0h0.2H324.4v-0.4h-0.7l0,0l0,0h0.2h0.5l0,0l0,0v0.1
		C324.4,267.7,324.4,267.7,324.4,267.9L324.4,267.9L324.4,267.9z"/>
	<path class="st5" d="M323.9,268.2L323.9,268.2C323.9,268.2,323.9,268.1,323.9,268.2C323.9,268.1,323.8,268.1,323.9,268.2
		L323.9,268.2C323.8,268.2,323.8,268.2,323.9,268.2L323.9,268.2L323.9,268.2L323.9,268.2L323.9,268.2L323.9,268.2
		C323.9,268.3,323.8,268.3,323.9,268.2L323.9,268.2C323.8,268.2,323.8,268.1,323.9,268.2C323.9,268.1,323.9,268.1,323.9,268.2
		C323.9,268.1,323.9,268.2,323.9,268.2L323.9,268.2z"/>
	<path class="st5" d="M323.9,268.2L323.9,268.2C323.8,268.2,323.8,268.2,323.9,268.2C323.8,268.1,323.9,268.1,323.9,268.2
		c0-0.1,0-0.1,0.1-0.1C323.9,268.1,324,268.1,323.9,268.2L323.9,268.2L323.9,268.2C324,268.2,323.9,268.2,323.9,268.2
		S323.9,268.3,323.9,268.2z M323.9,268.1L323.9,268.1C323.9,268.1,323.8,268.2,323.9,268.1C323.8,268.2,323.9,268.2,323.9,268.1
		C323.9,268.2,323.9,268.2,323.9,268.1C323.9,268.2,323.9,268.2,323.9,268.1L323.9,268.1L323.9,268.1L323.9,268.1L323.9,268.1
		C323.9,268.2,323.9,268.1,323.9,268.1L323.9,268.1L323.9,268.1z"/>
	<path class="st5" d="M324.3,268.2L324.3,268.2L324.3,268.2C324.3,268.1,324.3,268.1,324.3,268.2
		C324.2,268.2,324.2,268.2,324.3,268.2C324.2,268.2,324.2,268.2,324.3,268.2L324.3,268.2L324.3,268.2L324.3,268.2L324.3,268.2
		L324.3,268.2L324.3,268.2C324.2,268.2,324.2,268.2,324.3,268.2C324.2,268.2,324.2,268.1,324.3,268.2
		C324.3,268.1,324.3,268.1,324.3,268.2L324.3,268.2L324.3,268.2z"/>
	<path class="st5" d="M324.3,268.3L324.3,268.3C324.2,268.2,324.2,268.2,324.3,268.3C324.2,268.2,324.3,268.2,324.3,268.3
		c0-0.1,0-0.1,0.1-0.1C324.3,268.1,324.3,268.2,324.3,268.3L324.3,268.3L324.3,268.3C324.3,268.2,324.3,268.2,324.3,268.3
		C324.3,268.2,324.3,268.3,324.3,268.3z M324.3,268.1L324.3,268.1C324.2,268.2,324.2,268.2,324.3,268.1
		C324.2,268.2,324.2,268.2,324.3,268.1C324.3,268.2,324.3,268.2,324.3,268.1C324.3,268.2,324.3,268.2,324.3,268.1L324.3,268.1
		L324.3,268.1L324.3,268.1L324.3,268.1C324.3,268.2,324.3,268.2,324.3,268.1L324.3,268.1L324.3,268.1z"/>
	<path class="st5" d="M324.6,267.4c0,0.1-0.1,0.2-0.2,0.2c-0.1,0-0.2-0.1-0.2-0.2s0.1-0.2,0.2-0.2
		C324.5,267.3,324.6,267.4,324.6,267.4L324.6,267.4z"/>
	<path class="st3" d="M324.5,267.5L324.5,267.5L324.5,267.5L324.5,267.5c0-0.1,0-0.2,0-0.2C324.5,267.4,324.5,267.4,324.5,267.5
		L324.5,267.5L324.5,267.5L324.5,267.5z"/>
	<path class="st3" d="M324.6,267.5C324.5,267.5,324.5,267.5,324.6,267.5c-0.1,0-0.2,0-0.2,0C324.4,267.4,324.4,267.4,324.6,267.5
		C324.5,267.5,324.5,267.5,324.6,267.5z"/>
	<path class="st5" d="M321,267.9c-0.4,0-0.8,0-1.2,0c-0.4,0-0.8,0-1.2,0c0,0,0.6,0,1.2,0C320.4,267.8,321,267.8,321,267.9z"/>
	<path class="st1" d="M310.7,269.8h13.9c0.3,0,0.5,0.2,0.5,0.5v5.4c0,0.3-0.2,0.5-0.5,0.5h-13.9c-0.3,0-0.5-0.2-0.5-0.5v-5.4
		C310.2,270,310.4,269.8,310.7,269.8z"/>
	<path class="st3" d="M310.7,269.8h7.1l0,0v6.4l0,0h-7.1c-0.3,0-0.5-0.2-0.5-0.5v-5.5C310.2,270,310.4,269.8,310.7,269.8z"/>
	<path class="st2" d="M317.8,276.3c0,0,0-1.4,0-3.2s0-3.2,0-3.2s0,1.4,0,3.2C317.8,274.8,317.8,276.3,317.8,276.3z"/>
	<path class="st2" d="M324.6,276.2L324.6,276.2c0.3,0,0.4-0.2,0.5-0.4c0-0.1,0-0.2,0-0.3c0-0.2,0-0.4,0-0.7c0-1.1,0-2.6,0-4.5
		c0-0.1,0-0.1,0-0.2c0-0.2-0.2-0.3-0.3-0.4c-0.1,0-0.2,0-0.4,0h-2h-3.6h-8.1c-0.3,0-0.5,0.2-0.5,0.5v1.3c0,0.7,0,1.4,0,2.1v2
		c0,0.2,0.1,0.3,0.2,0.4c0.1,0,0.1,0.1,0.2,0.1c0.1,0,0.2,0,0.2,0h0.9h6.6h4.5h1.2h0.3L324.6,276.2h-0.1h-0.3H323h-4.5h-6.6H311
		c-0.1,0-0.2,0-0.2,0c-0.3,0-0.5-0.3-0.5-0.5c0-0.7,0-1.3,0-2v-3.4c0-0.3,0.3-0.5,0.6-0.5h8.1h3.6h2.2c0.1,0,0.1,0,0.2,0
		c0.2,0.1,0.3,0.2,0.4,0.4c0,0.1,0,0.1,0,0.2c0,1.9,0,3.4,0,4.5c0,0.3,0,0.5,0,0.7c0,0.1,0,0.2,0,0.3s-0.1,0.1-0.1,0.2
		c-0.1,0.1-0.2,0.1-0.3,0.2C324.7,276.2,324.6,276.2,324.6,276.2z"/>
	<path class="st5" d="M321.1,271.2c0,0-0.6,0-1.4,0s-1.4,0-1.4,0s0.6,0,1.4,0S321.1,271.2,321.1,271.2z"/>
	<path class="st2" d="M323.7,272.1c0,0-1.2,0-2.7,0s-2.7,0-2.7,0s1.2,0,2.7,0C322.5,272,323.7,272.1,323.7,272.1z"/>
	<path class="st2" d="M323.7,272.6c0,0-1.2,0-2.7,0s-2.7,0-2.7,0s1.2,0,2.7,0C322.5,272.5,323.7,272.6,323.7,272.6z"/>
	<path class="st7" d="M323.2,275c0-0.1,0-0.1-0.1-0.2l-0.1-0.1c-0.1,0-0.2,0-0.2,0.1c0,0,0,0-0.1-0.1c0,0-0.1,0-0.2,0
		c-0.1,0-0.1,0-0.1,0.1l-0.1,0.1c0,0.1,0,0.1,0,0.2s0.1,0.1,0.2,0.2l0.2,0.2c0,0,0.1-0.1,0.2-0.1c0.1,0,0.1-0.1,0.2-0.2
		C323.2,275.2,323.2,275.1,323.2,275z"/>
	<path class="st5" d="M322.7,275.5L322.7,275.5c0,0-0.1-0.1-0.2-0.2c-0.1,0-0.1-0.1-0.2-0.2c0-0.1,0-0.1,0-0.2c0-0.1,0-0.1,0.1-0.2
		l0.1-0.1c0.1,0,0.1,0,0.2,0c0,0,0,0,0.1,0.1c0,0,0,0,0.1-0.1c0,0,0.1,0,0.2,0c0.1,0,0.1,0,0.1,0.1c0,0,0.1,0.1,0.1,0.2
		c0,0.1,0,0.2,0,0.2c0,0.1-0.1,0.1-0.2,0.2C322.8,275.4,322.7,275.5,322.7,275.5L322.7,275.5z M322.5,274.8L322.5,274.8
		c-0.1,0-0.1,0-0.2,0.1l-0.1,0.1c0,0.1,0,0.1,0,0.2c0,0.1,0.1,0.1,0.2,0.2c0.1,0.1,0.2,0.1,0.2,0.1s0.1-0.1,0.2-0.1
		c0.1,0,0.1-0.1,0.2-0.1c0-0.1,0-0.1,0-0.2l0,0c0,0,0-0.1-0.1-0.1l-0.1-0.1c-0.1,0-0.2,0-0.2,0.1l0,0l0,0
		C322.6,275,322.6,275,322.5,274.8C322.6,274.8,322.6,274.8,322.5,274.8L322.5,274.8z"/>
	<path class="st5" d="M324.4,275.4h-0.2h-0.4l0,0l0,0v-0.1c0-0.2,0-0.4-0.1-0.5l0,0h-0.1h0.1l0,0c0,0.1,0,0.3,0.1,0.5c0,0,0,0,0,0.1
		l0,0h0.4H324.4L324.4,275.4L324.4,275.4z"/>
	<path class="st5" d="M324.2,275.4h-0.4l0,0l-0.1-0.6h-0.1l0,0l0,0h0.1l0,0l0,0l0.1,0.5l0,0h0.6l0,0l0,0L324.2,275.4L324.2,275.4z"
		/>
	<path class="st5" d="M323.8,275.2h0.2h0.4l0,0c0-0.1,0-0.2,0-0.2v-0.1l0,0h-0.5h-0.2h0.2h0.5l0,0l0,0v0.1c0,0.1,0,0.2,0,0.3l0,0
		l0,0H324L323.8,275.2L323.8,275.2L323.8,275.2z"/>
	<path class="st5" d="M324.4,275.3L324.4,275.3H324h-0.1l0,0l0,0l0,0l0,0h0.1H324.4v-0.4h-0.6h-0.1h-0.1l0,0l0,0h0.1h0.3h0.4l0,0
		l0,0v0.1L324.4,275.3L324.4,275.3z"/>
	<path class="st5" d="M323.9,275.5L323.9,275.5L323.9,275.5L323.9,275.5C323.8,275.5,323.8,275.5,323.9,275.5
		C323.8,275.6,323.8,275.6,323.9,275.5C323.9,275.6,323.9,275.6,323.9,275.5C323.9,275.6,323.9,275.6,323.9,275.5L323.9,275.5
		L323.9,275.5C323.9,275.6,323.9,275.6,323.9,275.5C323.9,275.6,323.9,275.6,323.9,275.5C323.8,275.5,323.8,275.5,323.9,275.5
		C323.8,275.5,323.8,275.5,323.9,275.5L323.9,275.5L323.9,275.5L323.9,275.5z"/>
	<path class="st5" d="M323.9,275.6L323.9,275.6C323.8,275.6,323.8,275.6,323.9,275.6c-0.1-0.1,0-0.1,0-0.1s0,0,0.1,0
		C323.9,275.5,324,275.5,323.9,275.6L323.9,275.6L323.9,275.6C324,275.6,323.9,275.6,323.9,275.6L323.9,275.6z M323.9,275.5
		L323.9,275.5C323.9,275.5,323.8,275.5,323.9,275.5C323.8,275.6,323.9,275.6,323.9,275.5C323.9,275.6,323.9,275.6,323.9,275.5
		C323.9,275.6,323.9,275.6,323.9,275.5L323.9,275.5L323.9,275.5L323.9,275.5L323.9,275.5L323.9,275.5L323.9,275.5z"/>
	<path class="st5" d="M324.3,275.5L324.3,275.5L324.3,275.5L324.3,275.5C324.2,275.5,324.2,275.5,324.3,275.5
		C324.2,275.5,324.2,275.6,324.3,275.5C324.3,275.6,324.3,275.6,324.3,275.5C324.3,275.6,324.3,275.6,324.3,275.5L324.3,275.5
		L324.3,275.5C324.3,275.6,324.3,275.6,324.3,275.5C324.3,275.6,324.3,275.6,324.3,275.5C324.2,275.5,324.2,275.5,324.3,275.5
		C324.2,275.5,324.2,275.5,324.3,275.5L324.3,275.5L324.3,275.5L324.3,275.5z"/>
	<path class="st5" d="M324.3,275.6L324.3,275.6C324.2,275.6,324.2,275.6,324.3,275.6c-0.1-0.1,0-0.1,0-0.1s0,0,0.1,0
		C324.3,275.5,324.3,275.5,324.3,275.6L324.3,275.6L324.3,275.6L324.3,275.6L324.3,275.6z M324.3,275.5L324.3,275.5
		C324.2,275.5,324.2,275.5,324.3,275.5C324.2,275.6,324.2,275.6,324.3,275.5C324.3,275.6,324.3,275.6,324.3,275.5
		C324.3,275.6,324.3,275.6,324.3,275.5L324.3,275.5L324.3,275.5L324.3,275.5L324.3,275.5L324.3,275.5L324.3,275.5L324.3,275.5z"/>
	<path class="st5" d="M324.6,274.8c0,0.1-0.1,0.2-0.2,0.2c-0.1,0-0.2-0.1-0.2-0.2c0-0.1,0.1-0.2,0.2-0.2
		C324.5,274.6,324.6,274.7,324.6,274.8z"/>
	<path class="st3" d="M324.5,274.9L324.5,274.9L324.5,274.9L324.5,274.9c0-0.1,0-0.2,0-0.2C324.5,274.8,324.5,274.8,324.5,274.9
		L324.5,274.9L324.5,274.9L324.5,274.9z"/>
	<path class="st3" d="M324.6,274.8C324.5,274.8,324.5,274.8,324.6,274.8c-0.1,0-0.2,0-0.2,0S324.5,274.8,324.6,274.8L324.6,274.8z"
		/>
	<path class="st5" d="M321,275.2c0,0-0.6,0-1.2,0c-0.7,0-1.2,0-1.2,0s0.6,0,1.2,0C320.4,275.2,321,275.2,321,275.2z"/>
	<path class="st1" d="M310.7,277.2h13.9c0.3,0,0.5,0.2,0.5,0.5v5.4c0,0.3-0.2,0.5-0.5,0.5h-13.9c-0.3,0-0.5-0.2-0.5-0.5v-5.4
		C310.2,277.4,310.4,277.2,310.7,277.2z"/>
	<path class="st3" d="M310.7,277.2h7.1l0,0v6.4l0,0h-7.1c-0.3,0-0.5-0.2-0.5-0.5v-5.5C310.2,277.4,310.4,277.2,310.7,277.2z"/>
	<path class="st2" d="M317.8,283.7c0,0,0-1.4,0-3.2s0-3.2,0-3.2s0,1.4,0,3.2S317.8,283.7,317.8,283.7z"/>
	<path class="st2" d="M324.6,283.6L324.6,283.6c0.2,0,0.3-0.1,0.4-0.2c0-0.1,0.1-0.1,0.1-0.2c0-0.1,0-0.2,0-0.3c0-0.2,0-0.4,0-0.7
		c0-1.1,0-2.6,0-4.5c0-0.1,0-0.1,0-0.2c0-0.1,0-0.1-0.1-0.2s-0.2-0.2-0.3-0.2c-0.1,0-0.2,0-0.4,0H324h-1.6h-3.6h-8.1
		c-0.2,0-0.3,0.1-0.4,0.2c0,0.1-0.1,0.2-0.1,0.2v1.5c0,0.7,0,1.4,0,2.1v2c0,0.2,0.1,0.3,0.2,0.4c0.1,0,0.1,0.1,0.2,0.1
		c0.1,0,0.2,0,0.2,0h0.9h6.6h4.5h1.2h0.3L324.6,283.6l-0.1,0h-0.3H323h-4.5h-6.6H311c-0.1,0-0.2,0-0.2,0c-0.3,0-0.5-0.3-0.5-0.5
		c0-0.7,0-1.3,0-2v-3.4c0-0.3,0.3-0.5,0.6-0.5h8.1h3.6h1.4h0.6c0.2,0,0.4,0.1,0.5,0.3c0,0.1,0.1,0.1,0.1,0.2c0,0.1,0,0.1,0,0.2
		c0,1.9,0,3.4,0,4.5c0,0.3,0,0.5,0,0.7c0,0.1,0,0.2,0,0.3s-0.1,0.1-0.1,0.2c-0.1,0.1-0.2,0.1-0.3,0.2
		C324.7,283.6,324.6,283.6,324.6,283.6z"/>
	<path class="st5" d="M321.1,278.6c0,0-0.6,0-1.4,0s-1.4,0-1.4,0s0.6,0,1.4,0S321.1,278.6,321.1,278.6z"/>
	<path class="st2" d="M323.7,279.5c0,0-1.2,0-2.7,0s-2.7,0-2.7,0s1.2,0,2.7,0C322.5,279.4,323.7,279.5,323.7,279.5z"/>
	<path class="st2" d="M323.7,280c0,0-1.2,0-2.7,0s-2.7,0-2.7,0s1.2,0,2.7,0C322.5,279.9,323.7,280,323.7,280z"/>
	<path class="st7" d="M323.2,282.4c0-0.1,0-0.1-0.1-0.2l-0.1-0.1c-0.1,0-0.1,0-0.2,0c0,0-0.1,0-0.1,0.1c0,0,0,0-0.1-0.1
		c0,0-0.1,0-0.2,0c-0.1,0-0.1,0-0.1,0.1l-0.1,0.1c0,0.1,0,0.1,0,0.2s0.1,0.1,0.2,0.2c0.1,0.1,0.2,0.2,0.2,0.2s0.1-0.1,0.2-0.1
		s0.1-0.1,0.2-0.1C323.2,282.6,323.2,282.5,323.2,282.4z"/>
	<path class="st5" d="M322.7,282.9L322.7,282.9c0,0-0.1-0.1-0.2-0.2c-0.1,0-0.1-0.1-0.2-0.2c0-0.1,0-0.1,0-0.2c0-0.1,0-0.1,0.1-0.2
		l0.1-0.1c0.1,0,0.2,0,0.2,0.1c0-0.1,0.1-0.1,0.2-0.1c0.1,0,0.1,0,0.1,0.1c0,0,0.1,0.1,0.1,0.2l0,0c0,0.1,0,0.2,0,0.2
		c0,0.1-0.1,0.1-0.2,0.2C322.8,282.9,322.7,282.9,322.7,282.9L322.7,282.9z M322.5,282.2L322.5,282.2c-0.1,0-0.1,0-0.2,0.1l-0.1,0.1
		c0,0.1,0,0.1,0,0.2s0.1,0.1,0.2,0.2c0.1,0.1,0.2,0.1,0.2,0.1s0.1-0.1,0.2-0.1c0.1,0,0.1-0.1,0.2-0.1c0-0.1,0-0.1,0-0.2l0,0
		c0-0.1-0.1-0.2-0.2-0.2C322.8,282.3,322.7,282.3,322.5,282.2c0.1,0.1,0.1,0.1,0,0.2l0,0l0,0c0,0,0,0-0.1-0.1
		C322.6,282.2,322.6,282.2,322.5,282.2L322.5,282.2z"/>
	<path class="st5" d="M324.4,282.8h-0.2h-0.4l0,0l0,0v-0.1c0-0.2,0-0.4-0.1-0.5l0,0h-0.1h0.1l0,0l0.1,0.5c0,0,0,0,0,0.1l0,0h0.4
		H324.4L324.4,282.8L324.4,282.8z"/>
	<path class="st5" d="M324.2,282.8h-0.4l0,0l-0.1-0.6h-0.1l0,0l0,0l0,0h0.1l0,0l0,0l0.1,0.5l0,0h0.6l0,0l0,0L324.2,282.8
		L324.2,282.8L324.2,282.8z"/>
	<path class="st5" d="M323.8,282.7h0.2h0.4l0,0c0-0.1,0-0.2,0-0.2v-0.1l0,0h-0.5h-0.2h0.2h0.5l0,0l0,0v0.1c0,0.1,0,0.2,0,0.2l0,0
		l0,0H324H323.8L323.8,282.7L323.8,282.7z"/>
	<path class="st5" d="M324.4,282.7L324.4,282.7h-0.6l0,0l0,0l0,0h0.2H324.4v-0.4h-0.7l0,0l0,0l0,0h0.2h0.5l0,0l0,0v0.1
		C324.4,282.5,324.4,282.5,324.4,282.7L324.4,282.7L324.4,282.7z"/>
	<path class="st5" d="M323.9,282.9L323.9,282.9L323.9,282.9C323.9,282.8,323.8,282.8,323.9,282.9L323.9,282.9
		C323.8,283,323.8,283,323.9,282.9C323.9,283,323.9,283,323.9,282.9L323.9,282.9C323.9,283,323.9,282.9,323.9,282.9L323.9,282.9
		C323.9,283,323.9,283,323.9,282.9C323.9,283,323.9,283,323.9,282.9C323.8,282.9,323.8,282.9,323.9,282.9
		C323.8,282.9,323.8,282.9,323.9,282.9L323.9,282.9L323.9,282.9L323.9,282.9z"/>
	<path class="st5" d="M323.9,283L323.9,283C323.8,283,323.8,283,323.9,283c-0.1-0.1,0-0.1,0-0.1l0,0
		C323.9,282.9,324,282.9,323.9,283L323.9,283L323.9,283C324,283,323.9,283,323.9,283L323.9,283z M323.9,282.9L323.9,282.9
		C323.9,282.9,323.8,282.9,323.9,282.9C323.8,283,323.9,283,323.9,282.9C323.9,283,323.9,283,323.9,282.9
		C323.9,283,323.9,283,323.9,282.9L323.9,282.9L323.9,282.9L323.9,282.9L323.9,282.9L323.9,282.9L323.9,282.9L323.9,282.9z"/>
	<path class="st5" d="M324.3,283L324.3,283C324.3,282.9,324.3,282.9,324.3,283C324.3,282.9,324.3,282.9,324.3,283
		C324.2,283,324.2,283,324.3,283C324.2,283,324.2,283,324.3,283L324.3,283L324.3,283L324.3,283L324.3,283L324.3,283L324.3,283
		C324.2,283,324.2,283,324.3,283C324.2,283,324.2,282.9,324.3,283C324.3,282.9,324.3,282.9,324.3,283
		C324.3,282.9,324.3,282.9,324.3,283C324.3,282.9,324.3,282.9,324.3,283z"/>
	<path class="st5" d="M324.3,283L324.3,283C324.2,283,324.2,283,324.3,283c-0.1-0.1,0-0.1,0-0.1s0,0,0.1,0
		C324.3,282.9,324.3,282.9,324.3,283L324.3,283L324.3,283L324.3,283L324.3,283z M324.3,282.9L324.3,282.9
		C324.2,282.9,324.2,282.9,324.3,282.9C324.2,283,324.2,283,324.3,282.9C324.3,283,324.3,283,324.3,282.9L324.3,282.9L324.3,282.9
		L324.3,282.9L324.3,282.9L324.3,282.9L324.3,282.9L324.3,282.9L324.3,282.9z"/>
	<path class="st5" d="M324.6,282.2c0,0.1-0.1,0.2-0.2,0.2c-0.1,0-0.2-0.1-0.2-0.2c0-0.1,0.1-0.2,0.2-0.2
		C324.5,282,324.6,282.1,324.6,282.2L324.6,282.2z"/>
	<path class="st3" d="M324.5,282.3L324.5,282.3L324.5,282.3L324.5,282.3c0-0.1,0-0.2,0-0.2C324.5,282.2,324.5,282.2,324.5,282.3
		L324.5,282.3L324.5,282.3L324.5,282.3z"/>
	<path class="st3" d="M324.6,282.2C324.5,282.2,324.5,282.2,324.6,282.2c-0.1,0-0.2,0-0.2,0S324.4,282.2,324.6,282.2
		C324.5,282.2,324.5,282.2,324.6,282.2z"/>
	<path class="st5" d="M321,282.6c-0.4,0-0.8,0-1.2,0c-0.4,0-0.8,0-1.2,0c0,0,0.6,0,1.2,0C320.4,282.6,321,282.6,321,282.6z"/>
	<path class="st5" d="M312.1,264c0,0-0.9,2.2-0.9,3.4l2.4,0.7l0.4-0.8l0.4,0.8c0,0,1.9-0.5,2.4-0.9c0,0-0.5-2.6-0.9-3.2
		c0,0,0.2-0.5,0.1-0.5c-0.2,0-0.5,0-0.7,0c-0.2,0-0.3,0-0.6,0c-0.3,0-0.3,0.3-0.6,0.2c-0.3-0.1-0.3-0.2-0.7-0.2
		c-0.4-0.1-0.6,0.2-0.8,0.1c-0.2,0-0.3-0.1-0.5-0.1c-0.1,0-0.3,0.1-0.3,0.2v0.1l0,0C312,263.8,312.1,263.9,312.1,264z"/>
	<path class="st5" d="M315.5,263.5c0,0.1,0,0.2,0,0.3c0,0.1-0.1,0.2-0.2,0.2c0.1-0.1,0.1-0.2,0.1-0.2
		C315.4,263.7,315.5,263.6,315.5,263.5z"/>
	<path class="st4" d="M314.1,265.2C314.1,265.2,314.1,265.1,314.1,265.2l-0.2-0.2l-0.4-0.4l0,0l-0.5,0.6l0,0l0,0l0.5,0.6l0,0
		l0.4-0.4C314,265.3,314,265.2,314.1,265.2L314.1,265.2L314.1,265.2l-0.1,0.1l-0.3,0.5l0,0l0,0l-0.5-0.6l0,0l0,0l0,0l0.5-0.6l0,0
		l0,0l0.3,0.4L314.1,265.2C314.1,265.1,314.1,265.2,314.1,265.2z"/>
	<path class="st4" d="M315.9,264.8L315.9,264.8l-0.1-0.2l-0.4-0.4l0,0l-0.5,0.6l0,0l0,0l0.5,0.6l0,0l0.4-0.4L315.9,264.8
		L315.9,264.8L315.9,264.8l-0.1,0.2l-0.3,0.5l0,0l0,0l-0.5-0.6l0,0l0,0l0,0l0.5-0.6l0,0l0,0l0.3,0.4L315.9,264.8L315.9,264.8z"/>
	<path class="st4" d="M314.6,263.5c0.1,0.1,0.2,0.2,0.3,0.4l0,0l0,0l0,0l0,0l0,0l0,0l0.1-0.1l0.1-0.1l0.1-0.1c0,0,0,0.1-0.1,0.1H315
		c0,0,0,0,0,0.1l0,0l0,0l0,0l0,0l0,0l0,0C314.7,263.8,314.6,263.6,314.6,263.5z"/>
	<path class="st4" d="M312.8,264l-0.1-0.1c-0.1-0.1-0.1-0.2-0.2-0.3l0,0l0,0c-0.1,0.1-0.1,0.2-0.2,0.3c0,0,0,0.1-0.1,0.1
		c0,0,0-0.1,0.1-0.1c0-0.1,0.1-0.2,0.2-0.3l0,0l0,0l0,0c0.1,0.1,0.2,0.2,0.2,0.3C312.8,263.9,312.8,264,312.8,264z"/>
	<path class="st4" d="M315.3,266.7L315.3,266.7l-0.1-0.2l-0.3-0.4l0,0c-0.1,0.2-0.3,0.4-0.5,0.6l0,0l0,0l0.5,0.6l0,0
		c0.1-0.2,0.3-0.3,0.4-0.4V266.7L315.3,266.7L315.3,266.7l-0.1,0.2l-0.3,0.5l0,0l0,0c-0.1-0.2-0.3-0.4-0.5-0.6l0,0l0,0l0,0
		c0.2-0.2,0.3-0.4,0.5-0.6l0,0l0,0l0.3,0.4L315.3,266.7L315.3,266.7z"/>
	<path class="st4" d="M313.2,267.2L313.2,267.2L313,267l-0.4-0.4l0,0l-0.5,0.6l0,0l0,0l0.5,0.6l0,0l0.4-0.4L313.2,267.2L313.2,267.2
		L313.2,267.2l-0.1,0.2l-0.3,0.5l0,0l0,0l-0.5-0.6l0,0l0,0l0,0l0.5-0.6l0,0l0,0L313.2,267.2L313.2,267.2L313.2,267.2z"/>
	<path class="st4" d="M311.4,266.1C311.4,266.1,311.5,266.1,311.4,266.1l0.2-0.2c0.1-0.1,0.3-0.2,0.5-0.4h0.1l0,0
		c-0.1-0.2-0.2-0.4-0.2-0.5c0-0.1-0.1-0.1-0.1-0.2c0,0.1,0.1,0.1,0.1,0.2c0.1,0.1,0.2,0.3,0.3,0.5l0,0l0,0h-0.1
		c-0.2,0.1-0.4,0.3-0.5,0.4C311.6,266,311.5,266.1,311.4,266.1C311.5,266.1,311.4,266.1,311.4,266.1z"/>
	<path class="st4" d="M316.8,266.6C316.7,266.6,316.7,266.6,316.8,266.6c-0.1-0.1-0.1-0.1-0.2-0.2c-0.1-0.1-0.3-0.3-0.4-0.4l0,0l0,0
		l0,0c0.1-0.2,0.1-0.4,0.2-0.6c0-0.1,0-0.1,0.1-0.2c0,0,0,0,0-0.1c0,0,0,0,0,0.1c0,0,0,0.1-0.1,0.2c0,0.1-0.1,0.3-0.2,0.6l0,0l0,0
		c0.2,0.2,0.3,0.3,0.4,0.4C316.6,266.5,316.7,266.5,316.8,266.6C316.7,266.6,316.8,266.6,316.8,266.6z"/>
	<path class="st5" d="M316,264L316,264c-0.1,0-0.1,0-0.1,0c-0.1,0-0.3,0-0.4,0c-0.2,0-0.4,0-0.6-0.1c-0.2,0-0.5-0.1-0.7-0.1
		c-0.3,0-0.5,0-0.7,0s-0.4,0-0.6,0c-0.1,0-0.3,0-0.4,0h-0.1l0,0l0,0h0.1c0.1,0,0.3,0,0.4,0c0.2,0,0.4,0,0.6,0s0.5,0,0.8-0.1
		c0.2,0,0.5,0,0.8,0.1c0.2,0,0.4,0.1,0.6,0.1c0.1,0,0.3,0,0.4,0C316,264,316,264,316,264z"/>
	<path class="st5" d="M312.4,265.8C312.4,265.8,312.4,265.7,312.4,265.8c0-0.1,0-0.2,0-0.3c0-0.2,0.1-0.4,0.1-0.6
		c0-0.2,0.1-0.5,0.2-0.6c0-0.1,0-0.1,0.1-0.2c0,0,0,0,0-0.1c0,0,0,0,0,0.1c0,0,0,0.1,0,0.2c0,0.2-0.1,0.4-0.2,0.6
		c0,0.2-0.1,0.5-0.1,0.6S312.5,265.7,312.4,265.8C312.5,265.7,312.4,265.8,312.4,265.8z"/>
	<path class="st5" d="M312.8,265.1c0-0.2,0-0.4,0.1-0.5c0-0.2,0.1-0.4,0.1-0.5c0,0.2,0,0.4-0.1,0.5
		C312.9,264.8,312.8,264.9,312.8,265.1z"/>
	<path class="st6" d="M315.7,266.7L315.7,266.7c-0.1-0.2-0.1-0.3-0.2-0.4c-0.2-0.6-0.4-1.3-0.4-1.9c0-0.1,0-0.2,0-0.3V264v0.1
		c0,0.1,0,0.2,0,0.3c0,0.3,0.1,0.7,0.1,1c0.1,0.3,0.2,0.6,0.2,1c0,0.1,0.1,0.2,0.1,0.3C315.7,266.7,315.7,266.7,315.7,266.7z"/>
	<path class="st6" d="M315.6,265c0,0,0-0.1-0.1-0.1c0-0.1-0.1-0.2-0.1-0.3c0-0.1-0.1-0.3-0.1-0.3v-0.1v0.1c0,0.1,0.1,0.2,0.1,0.3
		c0,0.1,0.1,0.2,0.1,0.3C315.6,264.9,315.6,265,315.6,265z"/>
	<path class="st6" d="M313.8,267.9L313.8,267.9L313.8,267.9c-0.2,0-0.3,0-0.4-0.1c-0.3-0.1-0.6-0.2-0.9-0.4s-0.6-0.3-0.9-0.3
		c-0.1,0-0.2,0-0.3,0c-0.1,0-0.1,0-0.1,0l0,0c0,0,0,0,0.1,0c0.1,0,0.2,0,0.3,0c0.3,0.1,0.6,0.2,0.9,0.3c0.3,0.2,0.7,0.3,0.9,0.4
		C313.6,267.8,313.7,267.8,313.8,267.9L313.8,267.9z"/>
	<path class="st6" d="M316.8,266.9L316.8,266.9c-0.1,0.1-0.2,0.1-0.3,0.2c-0.3,0.2-0.6,0.3-0.8,0.4c-0.3,0.1-0.6,0.2-0.9,0.3
		c-0.1,0-0.2,0.1-0.3,0.1h-0.1h0.1c0.1,0,0.2,0,0.3-0.1c0.2-0.1,0.5-0.2,0.9-0.3c0.4-0.1,0.6-0.3,0.8-0.4l0.2-0.1
		C316.8,266.9,316.8,266.9,316.8,266.9z"/>
	<path class="st5" d="M315.7,263.7c0,0.1,0,0.1-0.1,0.2c0,0.1-0.1,0.1-0.2,0.1l0.1-0.1C315.6,263.8,315.7,263.7,315.7,263.7z"/>
	<path class="st5" d="M313,263.5c0,0,0,0.1,0.1,0.2c0.1,0.1,0.1,0.2,0.1,0.2c-0.1,0-0.1-0.1-0.1-0.2C313,263.7,313,263.6,313,263.5z
		"/>
	<path class="st5" d="M312.8,279.8h3.1c0.2,0,0.3,0.1,0.3,0.3v1.9c0,0.2-0.1,0.3-0.3,0.3h-3.1c-0.2,0-0.3-0.1-0.3-0.3v-1.9
		C312.6,279.9,312.7,279.8,312.8,279.8z"/>
	<path class="st5" d="M315.2,280.3C315.2,280.2,315.2,280.2,315.2,280.3v-0.2c0-0.2,0-0.3,0-0.5s-0.1-0.5-0.3-0.7
		c-0.1-0.1-0.2-0.2-0.4-0.2s-0.3,0-0.5,0c-0.3,0-0.6,0.1-0.8,0.2c-0.1,0.1-0.2,0.2-0.2,0.3s-0.1,0.2-0.1,0.3c0,0.2,0,0.3,0,0.5
		c0,0.1,0,0.1,0,0.1l0,0l0,0V280c0-0.2,0-0.3,0-0.5c0-0.1,0-0.2,0.1-0.3c0-0.1,0.1-0.2,0.2-0.3c0.1-0.1,0.2-0.2,0.4-0.2
		c0.2,0,0.3-0.1,0.5-0.1c0.2,0,0.3,0,0.5,0c0.1,0,0.3,0.1,0.4,0.2c0.2,0.2,0.3,0.4,0.3,0.7c0,0.2,0,0.3,0,0.5
		C315.2,280.1,315.2,280.2,315.2,280.3C315.2,280.2,315.2,280.2,315.2,280.3z"/>
	<path class="st6" d="M312.4,279.8h3.1c0.2,0,0.3,0.1,0.3,0.3v1.9c0,0.2-0.1,0.3-0.3,0.3h-3.1c-0.2,0-0.3-0.1-0.3-0.3v-1.9
		C312.1,279.9,312.2,279.8,312.4,279.8z"/>
	<path class="st5" d="M315.5,282.2h0.1c0,0,0.1,0,0.1-0.1c0,0,0.1-0.1,0.1-0.2c0-0.3,0-0.7,0-1.3c0-0.1,0-0.3,0-0.4
		c0-0.1,0-0.1,0-0.2s0-0.1-0.1-0.2c-0.1-0.1-0.1-0.1-0.2-0.1h-0.2h-0.5h-2.3c-0.1,0-0.2,0-0.2,0.1v0.1v0.7c0,0.4,0,0.7,0,1.1v0.1
		c0,0,0,0.1,0.1,0.1c0.1,0.1,0.1,0.1,0.2,0.1h1.3h1.1h0.3L315.5,282.2L315.5,282.2L315.5,282.2h-0.1H315h-1.3h-0.9h-0.5
		c-0.1,0-0.3-0.1-0.3-0.2v-0.1c0-0.4,0-0.7,0-1.1c0-0.2,0-0.4,0-0.6c0,0,0-0.1,0-0.2c0-0.1,0-0.1,0-0.2c0.1-0.1,0.2-0.2,0.3-0.2h3
		c0.1,0,0.2,0,0.2,0.1c0.1,0,0.1,0.1,0.1,0.2s0,0.2,0,0.2v0.4c0,0.5,0,1,0,1.3c0,0.1,0,0.1-0.1,0.2l-0.1,0.1
		C315.6,282.2,315.5,282.2,315.5,282.2z"/>
	<path class="st5" d="M315.7,281c0,0-0.8,0-1.8,0s-1.8,0-1.8,0s0.8,0,1.8,0S315.7,281,315.7,281z"/>
	<path class="st2" d="M313.9,281.3c0-0.2,0-0.4,0-0.6C314,280.9,314,281.2,313.9,281.3z"/>
	<path class="st7" d="M311.2,273.8c0,0,0.9-2.5,1.1-2.7s1.2-0.4,1.2-0.4l0.7,2.3l0.8-2.4c0,0,0.9,0.3,1.1,0.7
		c0.2,0.4,0.9,2.5,0.9,2.5l-1.4,0.5l0.2,0.8h-3.5l0.2-0.7L311.2,273.8z"/>
	<g class="st9">
		<path d="M313.1,272.2c-0.2-0.4-0.4-0.9-0.4-1.3l-0.3,0.1c0,0.5,0.2,0.9,0.4,1.3c0,0.1,0.1,0.1,0.1,0.2s0.1,0,0.2,0
			C313.2,272.4,313.1,272.3,313.1,272.2z"/>
	</g>
	<g class="st9">
		<path d="M313.5,273.6l-0.1-0.1l0,0c-0.1,0-0.2,0.1-0.2,0.2c0,0.1,0.1,0.2,0.2,0.2c0,0,0,0,0.1,0c0,0,0.1,0,0.1-0.1v-0.1
			C313.6,273.7,313.6,273.7,313.5,273.6z"/>
	</g>
	<g class="st9">
		<path d="M315.7,274.5c-0.1,0.2-0.3,0.3-0.5,0.4c-0.2,0.1-0.4,0.1-0.6,0c-0.1,0-0.2-0.1-0.2-0.1c-0.1,0-0.1,0.1-0.2,0
			c0,0-0.1,0-0.1-0.1s0-0.2,0.1-0.2c0.1,0,0.2,0,0.2,0c0.1,0,0.2,0,0.2,0c0.3,0,0.7-0.2,0.9-0.5l0.2-0.2l-0.1,0.5L315.7,274.5z"/>
	</g>
	<path class="st5" d="M315.9,273.1c0,0.2-0.1,0.4-0.1,0.6s-0.1,0.4-0.1,0.6c0-0.2,0.1-0.4,0.1-0.6S315.9,273.3,315.9,273.1z"/>
	<path class="st3" d="M315.9,271C315.9,271.1,315.9,271.1,315.9,271c0,0.1,0,0.2-0.1,0.2c-0.1,0.2-0.2,0.3-0.4,0.4
		c-0.2,0.1-0.4,0.1-0.5,0.1s-0.1,0-0.2,0c0,0,0,0-0.1,0c0,0,0.1,0,0.2,0c0.2,0,0.4,0,0.5-0.1c0.2-0.1,0.3-0.2,0.4-0.4
		C315.9,271.1,315.9,271,315.9,271z"/>
	<path class="st3" d="M316.1,271.3L316.1,271.3c-0.1,0.1-0.1,0.2-0.1,0.2c-0.3,0.4-0.7,0.5-1.2,0.5c-0.1,0-0.1,0-0.2,0
		c0,0,0,0-0.1,0c0,0,0.1,0,0.3,0.1c0.4,0.1,0.9-0.1,1.2-0.4C316.1,271.4,316.1,271.4,316.1,271.3z"/>
	<path class="st3" d="M314.1,272.7C314,272.7,314,272.8,314.1,272.7c-0.1,0-0.2,0.1-0.3,0.1c-0.2,0.1-0.4,0.2-0.6,0.3
		s-0.4,0.3-0.5,0.5c-0.1,0.1-0.1,0.1-0.1,0.2c0,0,0,0-0.1,0.1c0,0,0,0,0-0.1c0,0,0.1-0.1,0.1-0.2c0.2-0.2,0.3-0.3,0.5-0.5
		c0.2-0.1,0.4-0.2,0.6-0.3C313.9,272.8,313.9,272.8,314.1,272.7C314,272.7,314,272.7,314.1,272.7z"/>
	<path class="st3" d="M314,272.5L314,272.5c-0.1,0-0.2,0.1-0.3,0.1c-0.2,0.1-0.4,0.2-0.6,0.3c-0.2,0.1-0.4,0.2-0.6,0.3
		c-0.1,0-0.1,0.1-0.2,0.1c0,0,0,0-0.1,0c0,0,0,0,0.1,0c0,0,0.1-0.1,0.2-0.1c0.2-0.1,0.4-0.2,0.6-0.3c0.2-0.1,0.4-0.2,0.7-0.2
		C313.8,272.5,313.9,272.5,314,272.5L314,272.5z"/>
	<path class="st3" d="M316.6,273.9c-0.1-0.1-0.2-0.2-0.3-0.2c-0.1-0.1-0.2-0.1-0.4-0.2h0.1c0.1,0,0.2,0.1,0.3,0.1
		C316.4,273.6,316.4,273.8,316.6,273.9C316.5,273.9,316.5,273.9,316.6,273.9z"/>
	<path class="st3" d="M311.7,273.9c-0.1-0.1-0.1-0.2-0.2-0.4c0-0.1-0.1-0.3-0.1-0.4c0,0,0.1,0.2,0.1,0.4
		C311.6,273.7,311.7,273.9,311.7,273.9z"/>
	<path class="st3" d="M313.2,275.1c-0.1,0-0.2-0.1-0.4-0.2c-0.1-0.1-0.2-0.1-0.3-0.2c0,0,0.2,0.1,0.4,0.2
		C313,275,313.2,275.1,313.2,275.1z"/>
	<path class="st5" d="M314.1,273.5v-0.1c0-0.1-0.1-0.2-0.1-0.3c-0.1-0.2-0.2-0.6-0.3-1c-0.1-0.4-0.2-0.7-0.3-1
		c0-0.1-0.1-0.2-0.1-0.3v-0.1v0.1c0,0.1,0.1,0.2,0.1,0.3c0.1,0.2,0.2,0.6,0.3,1c0.1,0.4,0.2,0.7,0.3,1c0,0.1,0.1,0.2,0.1,0.3
		C314.1,273.4,314.1,273.4,314.1,273.5z"/>
	<path class="st5" d="M314.4,273.5c0,0-0.1,0-0.2,0c0,0-0.1,0-0.2,0C314.2,273.5,314.3,273.5,314.4,273.5L314.4,273.5z"/>
	<path class="st5" d="M315.2,270.7c0,0-0.2,0.6-0.4,1.4c-0.2,0.8-0.4,1.4-0.5,1.4c-0.1,0,0.2-0.6,0.4-1.4
		C315,271.3,315.2,270.7,315.2,270.7z"/>
	<path class="st5" d="M312.5,274.4c0,0-0.1-0.3-0.2-0.7c-0.1-0.2-0.1-0.5-0.1-0.7c0,0,0.1,0.3,0.2,0.7
		C312.5,274.1,312.6,274.4,312.5,274.4z"/>
	<path d="M316.6,252.6l-0.2,0.7h-0.2l-0.2-0.5l-0.2,0.5h-0.2l-0.2-0.7h0.2l0.2,0.5l0.2-0.5h0.2l0.2,0.5L316.6,252.6L316.6,252.6z"/>
	<path d="M316.7,252.6h0.2v0.7h-0.2V252.6z"/>
	<path d="M316.9,253.2l0.1-0.1c0.1,0,0.2,0.1,0.2,0.1c0.1,0,0.1,0,0.1-0.1s-0.4,0-0.4-0.3c0-0.1,0.1-0.2,0.3-0.2
		c0.1,0,0.2,0,0.2,0.1v0.1c-0.1,0-0.1-0.1-0.2-0.1c-0.1,0-0.1,0-0.1,0.1s0.4,0,0.4,0.3c0,0.1-0.1,0.2-0.3,0.2
		C317.1,253.3,317,253.3,316.9,253.2z"/>
	<path d="M318.3,252.6v0.7h-0.2V253h-0.3v0.3h-0.2v-0.7h0.2v0.3h0.3v-0.3H318.3z"/>
	<path d="M318.6,252.6L318.6,252.6v0.7h0.4v0.1h-0.5L318.6,252.6z"/>
	<path d="M319.2,252.6L319.2,252.6l-0.1,0.7H319L319.2,252.6z"/>
	<path d="M319.3,253.2L319.3,253.2c0.1,0,0.2,0,0.3,0s0.2,0,0.2-0.1c0-0.2-0.4-0.1-0.4-0.3c0-0.1,0.1-0.2,0.3-0.2
		c0.1,0,0.2,0,0.2,0.1v0.1c-0.1,0-0.1-0.1-0.2-0.1c-0.1,0-0.2,0.1-0.2,0.1c0,0.2,0.4,0.1,0.4,0.3c0,0.1-0.1,0.2-0.3,0.2
		C319.5,253.3,319.4,253.3,319.3,253.2z"/>
	<path d="M320.3,252.6H320v-0.1h0.6v0.1H320.3v0.7h-0.1L320.3,252.6z"/>
	<path class="st5" d="M325,252.4c0,0-0.3,0-0.8,0c-0.4,0-0.8,0-0.8,0s0.3,0,0.8,0S325,252.4,325,252.4z"/>
	<path class="st5" d="M325,252.8c0,0-0.3,0-0.8,0s-0.8,0-0.8,0s0.3,0,0.8,0S325,252.8,325,252.8z"/>
	<path class="st5" d="M325,253.2c0,0-0.3,0-0.8,0c-0.3,0-0.5,0-0.8,0c0,0,0.3,0,0.8,0C324.5,253.2,324.8,253.2,325,253.2z"/>
</g>
<g id="freepik--Character--inject-25">
	<polygon class="st7" points="313.4,286.7 312.9,290.7 310.8,290.5 311.3,286.5 	"/>
	<path class="st5" d="M311.9,290.4c0,0,0.1-0.9,0.2-1.9c0.2-1.1,0.3-1.9,0.3-1.9s-0.1,0.9-0.2,1.9
		C312.1,289.5,311.9,290.4,311.9,290.4z"/>
	<polygon class="st5" points="312.9,290.4 310.8,290.2 310.8,290.5 312.9,290.7 	"/>
	<path class="st5" d="M310.9,289.2C310.9,289.2,311,289.1,310.9,289.2c0.1-0.2,0.2-0.2,0.3-0.3c0.1-0.1,0.2-0.1,0.4-0.2
		c0.5-0.2,1,0,1.3,0.4c0,0.1,0.1,0.2,0.1,0.2v0.1c0-0.1-0.1-0.2-0.2-0.3c-0.2-0.2-0.4-0.4-0.7-0.4s-0.6,0-0.9,0.2
		C311,289.1,310.9,289.2,310.9,289.2z"/>
	<g class="st9">
		<polygon points="313.2,288.3 313.2,288.7 311,288.5 311.1,288.1 		"/>
	</g>
	<polygon class="st7" points="320.3,287 320,291 317.9,290.9 318.1,286.9 	"/>
	<path class="st5" d="M319,290.8c0,0,0-0.9,0.1-2c0.1-1.1,0.2-2,0.2-2s0,0.9-0.1,2C319.1,289.9,319,290.8,319,290.8z"/>
	<polygon class="st5" points="320,290.7 317.9,290.6 317.9,290.9 320,291 	"/>
	<path class="st5" d="M317.9,289.6C317.9,289.6,318,289.6,317.9,289.6c0.1-0.2,0.2-0.2,0.3-0.3c0.1-0.1,0.2-0.2,0.4-0.2
		c0.2-0.1,0.3-0.1,0.5-0.1c0.3,0,0.6,0.2,0.8,0.4c0.1,0.1,0.1,0.2,0.1,0.2v0.1c-0.1-0.1-0.1-0.2-0.2-0.3c-0.2-0.2-0.5-0.4-0.8-0.4
		s-0.6,0.1-0.8,0.3C318,289.5,317.9,289.6,317.9,289.6z"/>
	<g class="st9">
		<polygon points="320.2,288.6 320.1,289 318,288.9 318,288.6 		"/>
	</g>
	<path class="st5" d="M312.2,268.3c-0.1,0-0.3,2.6-0.2,3.5c0.1,0.9,0.1,7.6,0.1,7.6s-0.4,0.3-0.4,0.7s-0.8,7.9-0.8,7.9l2.4,0.4
		c0,0,2.2-8.1,2.3-9.3c0.1-1.1,1.6-8.9,1.6-8.9s0.5,7.3,0.5,8.4c0,1.1,0,9.8,0,9.8s1.8,0.3,2.7,0c0,0,0.7-6.5,0.7-8.7v-3.5
		c0,0,0.9-4,1.3-6.1c0.4-2.1,0-4,0-4l-7.3-1L312.2,268.3z"/>
	<path class="st6" d="M314.1,280.1c-0.3-0.1-0.6-0.1-0.9-0.1s-0.6,0.1-0.9,0.3c0.1-0.1,0.2-0.1,0.2-0.1c0.4-0.2,0.9-0.2,1.3-0.1
		C313.9,280,314,280,314.1,280.1z"/>
	<path class="st6" d="M314.3,279.4c-0.2,0-0.5,0-0.7,0s-0.5,0-0.7-0.1c0.2,0,0.5,0,0.7,0C313.8,279.4,314,279.4,314.3,279.4z"/>
	<path class="st6" d="M319.3,280.9C319.3,280.9,319.2,280.9,319.3,280.9c-0.1-0.1-0.2-0.2-0.2-0.2c-0.4-0.4-0.6-1-0.6-1.6
		c0-0.1,0-0.2,0-0.2v-0.1c0,0,0,0.1,0,0.3c0.1,0.6,0.3,1.1,0.6,1.5C319.2,280.9,319.3,280.9,319.3,280.9z"/>
	<path class="st6" d="M317.3,270.1L317.3,270.1l-0.2,0.2l-0.1,0.1c-0.3,0.2-0.6,0.3-0.9,0.4c-0.3,0.1-0.7,0.1-1,0.1H315h-0.1h-0.1
		c0,0-0.1,0-0.1-0.1c0.1,0,0.3,0.1,0.4,0.1c0.3,0,0.7,0,1-0.1c0.3-0.1,0.6-0.2,0.9-0.4l0.1-0.1L317.3,270.1
		C317.2,270.1,317.3,270.1,317.3,270.1z"/>
	<path class="st10" d="M326.2,249.6c0-0.4,0.1-0.7,0.2-1c0.2-0.5,1-1.3,1-1.3s1-0.8,1.1-0.8s0.1,0.2,0,0.3c-0.1,0.1-0.7,0.8-0.7,0.8
		s0.2,0.1,0.2,0.2s0,0.2,0,0.2s0.2,0.1,0.3,0.2c0,0.1,0,0.2,0,0.2c0.1,0,0.1,0.1,0.1,0.2c0,0.1,0,0.2,0,0.3c0,0-0.4,0.4-0.5,0.5
		c-0.2,0.1-0.4,0.1-0.4,0.1l-0.1,0.2v0.5L326.2,249.6z"/>
	<path class="st6" d="M310.6,253.5c0,0-3.7,6.6-3.7,7.6c0,1.8,5.1,3.3,5.1,3.3l0.7-2.1l-2.6-1.8l1.9-4.2L310.6,253.5z"/>
	<path class="st6" d="M310.6,253.5c0.5-0.4,1.1-0.6,1.7-0.7c1-0.1,2.8-0.2,2.8-0.2s4.9-1.1,5.2-0.9c0.4,0.2,0.9,1.5,0.9,2.1
		c0.1,0.6-0.4,6.5-0.4,6.5s2.2,6.8,2,7c-0.1,0.1-2.7,1-5.4,1.2l-0.1-2l-0.3,2c-2.5,0.2-5.3,0.3-5.3,0.3s1.9-6.7,1.9-6.9
		C313.5,261.7,310.3,254.2,310.6,253.5z"/>
	<path class="st6" d="M320.3,251.8c0,0,1.8,1,2,1c0.2,0,0.4-0.4,0.7-0.1l1.6-0.3l1.6-2.9c0.6,0.2,1.1,0.5,1.6,1c0,0-0.9,3-1.4,3.5
		s-2.6,2-5.5,2l-0.4-2.4L320.3,251.8z"/>
	<path class="st5" d="M322.1,255.3c0,0,0.1-0.1,0.2-0.4c0.1-0.1,0.1-0.3,0.1-0.4c0-0.2,0.1-0.3,0.1-0.5s0-0.3,0-0.5
		c0-0.1,0-0.3-0.1-0.4c-0.1-0.2-0.1-0.4-0.1-0.4s0,0.1,0.1,0.1c0,0.1,0.1,0.2,0.1,0.3s0.1,0.3,0.1,0.4c0,0.2,0,0.4,0,0.5
		c0,0.2,0,0.4-0.1,0.5c0,0.1-0.1,0.3-0.2,0.4C322.3,255.1,322.2,255.2,322.1,255.3L322.1,255.3z"/>
	<path class="st5" d="M325.2,253.1c-0.3-0.1-0.5-0.3-0.7-0.6c0.1,0.1,0.2,0.2,0.3,0.3C325,252.8,325.1,252.9,325.2,253.1z"/>
	<path class="st10" d="M312,264.3c0,0,0.1,0.3,0.5,0c0,0,0.6-0.1,0.9-0.4c0.3-0.3,0.4-0.5,0.6-0.5s0.8-0.1,0.8-0.1s0.2-0.3,0-0.4
		c-0.2-0.1-1.1,0-1.1,0h-0.2v-0.3v-0.3c0,0-0.5,0.2-0.5,0.3c0,0-0.4-0.1-0.4,0.1L312,264.3z"/>
	<path class="st5" d="M312.3,258.7c0,0,0-0.1-0.1-0.1c0-0.1-0.1-0.2-0.2-0.4c-0.1-0.3-0.3-0.7-0.5-1.2s-0.3-0.9-0.4-1.2
		c0-0.2-0.1-0.3-0.1-0.4v-0.1v0.1l0.1,0.4c0.1,0.3,0.2,0.7,0.4,1.2s0.3,0.9,0.4,1.2l0.1,0.4C312.3,258.6,312.3,258.7,312.3,258.7z"
		/>
	<path class="st5" d="M318.3,262.1c0,0,0,0.1-0.1,0.2c-0.1,0.1-0.2,0.2-0.3,0.4c-0.3,0.4-0.7,0.8-1.1,1.1c-0.4,0.3-0.8,0.6-1.3,0.8
		c-0.2,0.1-0.3,0.2-0.4,0.2c0,0-0.1,0-0.2,0.1c0,0,0.1-0.1,0.2-0.1c0.1,0,0.2-0.1,0.4-0.2c0.9-0.5,1.7-1.1,2.4-2
		c0.1-0.2,0.2-0.3,0.3-0.4C318.3,262.2,318.3,262.2,318.3,262.1z"/>
	<path class="st5" d="M310.2,260.5c0,0-0.3,0.1-0.6,0.2c-0.3,0.1-0.6,0.3-0.6,0.2c0.2-0.1,0.4-0.2,0.6-0.3
		C309.8,260.5,310,260.5,310.2,260.5z"/>
	<g class="st9">
		<path d="M311.6,257.1c-0.4-0.2-0.8-0.7-0.8-1.1c-0.1-0.4,0.1-0.9,0.1-1.3C311.1,255.5,311.4,256.3,311.6,257.1"/>
	</g>
	<g class="st9">
		<path d="M315.4,265.3c1.3,0.4,2.7-0.3,3.1-1.5c0-0.1,0.1-0.2,0.1-0.3C317.6,264.1,316.5,264.8,315.4,265.3z"/>
	</g>
	<path class="st5" d="M321.1,253.2v0.1c0,0.1,0,0.2,0.1,0.4c0.1,0.8,0.1,1.6-0.1,2.3c0,0.1,0,0.3-0.1,0.3v0.1c0,0,0-0.2,0.1-0.5
		c0.1-0.8,0.1-1.6,0-2.3C321.1,253.4,321.1,253.2,321.1,253.2z"/>
	<g class="st9">
		<path d="M319.1,251.1l-5.7,8.8c1.4,0.7,3.1,1,4.4,0.2c0.4,0.5,1.1,0.3,1.5-0.2c0.4-0.5,0.4-1.1,0.4-1.7
			C319.8,255.9,319.4,253.5,319.1,251.1z"/>
	</g>
	<path class="st5" d="M316.8,244.9c-0.6-0.1-1.2,0.2-1.7,0.6s-0.8,1-1,1.6c-0.5,1.1-0.7,2.3-1,3.5c-0.4,1.7-0.8,3.5-0.9,5.3
		c-0.1,1.8,0.4,2.8,1.2,4.5l2.7-0.4v-0.5l0.4,0.5l1.1-0.2l0.3-2.8l0.5,2.6l0.9-0.1c0.9-3.5-0.1-5.8,0.4-9.3c0.1-0.8,0.3-1.7,0.3-2.5
		s-0.4-1.8-1-2.4C318.4,244.6,317.4,244.4,316.8,244.9"/>
	<path class="st6" d="M317.5,259.7C317.5,259.6,317.4,259.6,317.5,259.7c0-0.1,0-0.1,0-0.2l-0.1-0.5c-0.1-0.4-0.2-1-0.2-1.7
		c-0.1-0.8-0.2-1.7-0.1-2.5c0-0.5,0-1,0.1-1.5c0.1-0.5,0.2-1,0.3-1.6c0.3-1,0.7-2,0.9-2.9c0.1-0.4,0.2-0.9,0.2-1.3s-0.1-0.8-0.2-1.1
		c-0.1-0.3-0.2-0.6-0.4-0.8c-0.1-0.2-0.3-0.4-0.5-0.5c-0.3-0.1-0.4-0.2-0.5-0.3h-0.1l0,0l0,0h0.1c0.1,0.1,0.3,0.1,0.4,0.2
		c0.2,0.1,0.4,0.3,0.5,0.5c0.2,0.3,0.3,0.5,0.4,0.9c0.1,0.4,0.2,0.8,0.2,1.2c0,0.5-0.1,0.9-0.2,1.3c-0.2,0.9-0.6,1.9-0.9,2.9
		c-0.1,0.5-0.2,1-0.3,1.6c-0.1,0.5-0.1,1-0.1,1.5c0,0.8,0,1.7,0.1,2.5c0.1,0.7,0.2,1.3,0.2,1.7c0,0.2,0,0.3,0.1,0.5
		C317.4,259.6,317.4,259.6,317.5,259.7C317.5,259.6,317.5,259.6,317.5,259.7z"/>
	<path class="st6" d="M313.7,257.9C313.7,257.9,313.7,257.8,313.7,257.9C313.7,257.8,313.7,257.8,313.7,257.9v-0.5
		c0-0.1,0-0.2,0-0.3c0-0.1,0-0.2,0-0.3c0-0.2,0-0.5,0-0.8c0-0.1,0-0.3,0-0.5s0-0.3,0-0.5c0-0.3,0-0.7,0-1.1c0.1-0.8,0.2-1.7,0.3-2.5
		c0.2-0.8,0.4-1.6,0.6-2.4c0.1-0.4,0.2-0.7,0.4-1c-0.1-0.2,0-0.4,0-0.5l0.2-0.4c0.1-0.3,0.2-0.5,0.3-0.7c0-0.1,0.1-0.2,0.1-0.3
		l0.1-0.2c0.1-0.1,0.1-0.2,0.2-0.3v-0.1l0,0l0,0c0,0,0,0,0,0.1c0,0.1-0.1,0.2-0.2,0.3c0,0.1-0.1,0.2-0.1,0.2c0,0.1-0.1,0.2-0.1,0.3
		c-0.1,0.2-0.2,0.5-0.3,0.7c-0.1,0.1-0.1,0.3-0.2,0.4c0,0.2,0,0.3-0.1,0.5c-0.1,0.3-0.2,0.7-0.4,1c-0.2,0.8-0.4,1.6-0.6,2.4
		c-0.2,0.8-0.3,1.7-0.3,2.5c0,0.4,0,0.8-0.1,1.1c0,0.2,0,0.3,0,0.5s0,0.3,0,0.5c0,0.3,0,0.6,0,0.8c0,0.1,0,0.2,0,0.3s0,0.2,0,0.3
		c0,0.2,0,0.3,0,0.4C313.6,257.8,313.6,257.8,313.7,257.9C313.6,257.8,313.6,257.9,313.7,257.9z"/>
	<path class="st6" d="M315.1,260C315.1,260,315.1,259.9,315.1,260c0-0.1,0-0.1,0-0.1c0-0.1-0.1-0.2-0.1-0.4c0-0.1,0-0.2-0.1-0.3
		c0-0.1,0-0.2-0.1-0.3c0-0.2-0.1-0.5-0.2-0.8c0-0.2-0.1-0.3-0.1-0.5c0-0.2,0-0.3-0.1-0.5c-0.1-0.2-0.1-0.4-0.1-0.6s0-0.4,0-0.6
		c-0.1-0.9,0-1.8,0-2.6c0.1-0.9,0.2-1.8,0.4-2.6c0-0.2,0.1-0.4,0.1-0.6c0-0.2,0.1-0.4,0.1-0.5c0.1-0.3,0.2-0.7,0.3-1
		s0.2-0.5,0.3-0.8c0.1-0.2,0.2-0.4,0.2-0.6l0.3-0.4v-0.1l0,0l0,0v0.1c0,0.1-0.1,0.2-0.1,0.4c0,0.2-0.1,0.4-0.2,0.6s-0.2,0.5-0.3,0.8
		c-0.1,0.3-0.2,0.6-0.3,1c0,0.2-0.1,0.4-0.1,0.5l-0.1,0.6c-0.2,0.9-0.3,1.7-0.4,2.6c-0.1,0.9-0.1,1.8,0,2.6c0,0.2,0,0.4,0,0.6
		s0,0.4,0.1,0.5c0.1,0.1,0,0.3,0.1,0.5c0,0.2,0.1,0.3,0.1,0.5c0,0.3,0.1,0.6,0.2,0.8c0,0.1,0,0.2,0.1,0.3c0,0.1,0,0.2,0.1,0.3
		l0.1,0.4C315.1,259.8,315.1,259.9,315.1,260C315.1,259.9,315.1,259.9,315.1,260z"/>
	<path class="st6" d="M318.9,258.3L318.9,258.3c0-0.1,0-0.1-0.1-0.1V258c0-0.1-0.1-0.1-0.1-0.2c-0.2-0.5-0.4-1-0.4-1.5
		c-0.2-1.2-0.2-2.5,0.1-3.8c0.1-0.5,0.3-1,0.4-1.5c0.2-0.5,0.3-1,0.4-1.5s0.2-0.9,0.2-1.4c0-0.4,0-0.8-0.1-1.3
		c-0.1-0.4-0.2-0.7-0.4-1c-0.3-0.5-0.7-0.8-1.2-1c-0.1-0.1-0.3-0.1-0.4-0.1h-0.1l0,0l0,0h0.1c0.1,0,0.3,0.1,0.4,0.1
		c0.5,0.2,0.9,0.6,1.2,1c0.2,0.3,0.4,0.7,0.4,1c0.1,0.4,0.2,0.8,0.1,1.3c0,0.5-0.1,0.9-0.2,1.4s-0.2,1-0.4,1.5s-0.3,1-0.4,1.5
		s-0.2,0.9-0.2,1.4c-0.1,1.3,0.1,2.7,0.6,3.9c0,0.1,0.1,0.2,0.1,0.2l0.1,0.2L318.9,258.3C318.9,258.2,318.9,258.3,318.9,258.3z"/>
</g>
<g id="freepik--Floor--inject-25">
	<path class="st5" d="M344.8,267.6c0,0-11.1,0-24.8,0s-24.8,0-24.8,0s11.1,0,24.8,0S344.8,267.6,344.8,267.6z"/>
</g>
<rect x="1.1" y="0.5" class="st11" width="637.9" height="534.1"/>
<g class="st12">
	<path d="M210,254.9v-28H221c2.1,0,3.9,0.4,5.4,1.2c1.5,0.8,2.6,1.9,3.4,3.4c0.8,1.4,1.2,3.1,1.2,4.9c0,1.9-0.4,3.5-1.2,4.9
		s-2,2.5-3.5,3.3s-3.4,1.2-5.5,1.2h-7.1v-4.8h6.1c1.1,0,2.1-0.2,2.8-0.6c0.7-0.4,1.3-0.9,1.7-1.7s0.6-1.5,0.6-2.4
		c0-0.9-0.2-1.7-0.6-2.4c-0.4-0.7-0.9-1.2-1.7-1.6c-0.7-0.4-1.7-0.6-2.8-0.6h-4v23.2H210z"/>
	<path d="M240.7,226.9v28h-5.8v-28H240.7z"/>
	<path d="M251.3,255.3c-1.3,0-2.5-0.2-3.6-0.7c-1-0.5-1.9-1.2-2.5-2.1c-0.6-0.9-0.9-2.1-0.9-3.5c0-1.2,0.2-2.1,0.6-2.9
		c0.4-0.8,1-1.4,1.8-1.9s1.6-0.8,2.5-1.1c0.9-0.2,1.9-0.4,3-0.5c1.2-0.1,2.2-0.2,3-0.4c0.7-0.1,1.3-0.3,1.6-0.5
		c0.3-0.2,0.5-0.6,0.5-1v-0.1c0-0.9-0.3-1.5-0.8-2s-1.3-0.7-2.3-0.7c-1,0-1.9,0.2-2.5,0.7s-1,1-1.2,1.7l-5.4-0.4
		c0.3-1.3,0.8-2.4,1.6-3.3c0.8-0.9,1.8-1.7,3.1-2.2c1.3-0.5,2.7-0.8,4.4-0.8c1.2,0,2.3,0.1,3.4,0.4c1.1,0.3,2,0.7,2.9,1.3
		c0.8,0.6,1.5,1.3,2,2.2c0.5,0.9,0.7,2,0.7,3.2v14.2h-5.5V252h-0.2c-0.3,0.7-0.8,1.2-1.4,1.7c-0.6,0.5-1.2,0.9-2,1.2
		S252.4,255.3,251.3,255.3z M253,251.3c0.9,0,1.6-0.2,2.3-0.5c0.7-0.3,1.2-0.8,1.5-1.4c0.4-0.6,0.6-1.2,0.6-2v-2.2
		c-0.2,0.1-0.4,0.2-0.7,0.3c-0.3,0.1-0.7,0.2-1.1,0.3c-0.4,0.1-0.8,0.1-1.2,0.2c-0.4,0.1-0.7,0.1-1.1,0.2c-0.7,0.1-1.3,0.3-1.8,0.5
		s-0.9,0.5-1.2,0.9c-0.3,0.4-0.4,0.8-0.4,1.4c0,0.8,0.3,1.4,0.9,1.8C251.4,251.1,252.1,251.3,253,251.3z"/>
	<path d="M277.2,255.3c-2.2,0-4-0.5-5.6-1.4s-2.7-2.2-3.6-3.8c-0.8-1.6-1.2-3.5-1.2-5.6c0-2.2,0.4-4,1.3-5.7s2-2.9,3.6-3.8
		c1.5-0.9,3.4-1.4,5.5-1.4c1.8,0,3.4,0.3,4.8,1c1.4,0.7,2.5,1.6,3.3,2.8c0.8,1.2,1.2,2.6,1.3,4.2h-5.5c-0.2-1-0.6-1.9-1.2-2.5
		c-0.7-0.6-1.5-1-2.6-1c-0.9,0-1.7,0.2-2.4,0.7s-1.2,1.2-1.6,2.1c-0.4,0.9-0.6,2.1-0.6,3.4c0,1.3,0.2,2.5,0.6,3.4
		c0.4,0.9,0.9,1.7,1.6,2.1c0.7,0.5,1.5,0.7,2.4,0.7c0.7,0,1.3-0.1,1.8-0.4c0.5-0.3,1-0.7,1.3-1.2c0.4-0.5,0.6-1.2,0.7-1.9h5.5
		c-0.1,1.6-0.5,3-1.3,4.2c-0.8,1.2-1.9,2.2-3.2,2.9C280.7,255,279.1,255.3,277.2,255.3z"/>
	<path d="M299.9,255.3c-2.2,0-4-0.4-5.6-1.3c-1.6-0.9-2.8-2.1-3.6-3.8s-1.3-3.5-1.3-5.8c0-2.2,0.4-4.1,1.3-5.7s2-2.9,3.6-3.8
		c1.5-0.9,3.3-1.4,5.4-1.4c1.4,0,2.7,0.2,3.9,0.7c1.2,0.4,2.2,1.1,3.1,2c0.9,0.9,1.6,2,2.1,3.3s0.8,2.9,0.8,4.7v1.6h-17.8v-3.6h12.3
		c0-0.8-0.2-1.6-0.5-2.2c-0.4-0.6-0.9-1.2-1.5-1.5c-0.6-0.4-1.4-0.6-2.2-0.6c-0.9,0-1.7,0.2-2.3,0.6c-0.7,0.4-1.2,0.9-1.6,1.6
		s-0.6,1.4-0.6,2.3v3.4c0,1,0.2,1.9,0.6,2.7c0.4,0.8,0.9,1.3,1.6,1.8c0.7,0.4,1.6,0.6,2.5,0.6c0.6,0,1.2-0.1,1.8-0.3
		c0.5-0.2,1-0.5,1.4-0.8c0.4-0.4,0.7-0.8,0.9-1.3l5.4,0.4c-0.3,1.3-0.8,2.4-1.7,3.4c-0.8,1-1.9,1.7-3.3,2.2
		C303.2,255.1,301.6,255.3,299.9,255.3z"/>
	<path d="M319.2,242.8v12.2h-5.8v-28h5.7v10.7h0.2c0.5-1.2,1.2-2.2,2.3-2.9c1.1-0.7,2.4-1.1,4-1.1c1.5,0,2.7,0.3,3.8,1
		c1.1,0.6,1.9,1.5,2.5,2.7c0.6,1.2,0.9,2.6,0.9,4.2v13.4H327v-12.3c0-1.3-0.3-2.3-1-3c-0.7-0.7-1.6-1.1-2.8-1.1
		c-0.8,0-1.5,0.2-2.1,0.5c-0.6,0.3-1.1,0.8-1.4,1.5C319.4,241.1,319.2,241.9,319.2,242.8z"/>
	<path d="M346.9,255.3c-2.1,0-4-0.5-5.5-1.4c-1.5-0.9-2.7-2.2-3.6-3.8s-1.3-3.5-1.3-5.7c0-2.2,0.4-4.1,1.3-5.7s2-2.9,3.6-3.8
		c1.5-0.9,3.4-1.4,5.5-1.4c2.1,0,4,0.5,5.5,1.4s2.7,2.2,3.6,3.8c0.8,1.6,1.3,3.5,1.3,5.7c0,2.2-0.4,4-1.3,5.7
		c-0.8,1.6-2,2.9-3.6,3.8S349.1,255.3,346.9,255.3z M347,250.8c1,0,1.8-0.3,2.4-0.8c0.6-0.6,1.1-1.3,1.5-2.3c0.3-1,0.5-2,0.5-3.3
		c0-1.2-0.2-2.3-0.5-3.3s-0.8-1.7-1.5-2.3c-0.6-0.6-1.5-0.8-2.4-0.8c-1,0-1.8,0.3-2.5,0.8c-0.7,0.6-1.2,1.3-1.5,2.3
		c-0.3,1-0.5,2-0.5,3.3c0,1.2,0.2,2.3,0.5,3.3c0.3,1,0.8,1.7,1.5,2.3C345.2,250.5,346,250.8,347,250.8z"/>
	<path d="M366.9,226.9v28h-5.8v-28H366.9z"/>
	<path d="M379.3,255.3c-1.6,0-3-0.4-4.3-1.2c-1.3-0.8-2.3-2-3.1-3.7c-0.8-1.6-1.1-3.6-1.1-5.9c0-2.4,0.4-4.4,1.2-6
		c0.8-1.6,1.8-2.8,3.1-3.6c1.3-0.8,2.7-1.2,4.2-1.2c1.2,0,2.2,0.2,3,0.6c0.8,0.4,1.4,0.9,1.9,1.5s0.9,1.2,1.1,1.7h0.2v-10.5h5.8v28
		h-5.7v-3.4h-0.2c-0.3,0.6-0.7,1.2-1.2,1.7c-0.5,0.6-1.1,1-1.9,1.4S380.5,255.3,379.3,255.3z M381.2,250.6c0.9,0,1.7-0.3,2.4-0.8
		c0.7-0.5,1.2-1.2,1.5-2.2c0.4-0.9,0.5-2,0.5-3.3c0-1.2-0.2-2.3-0.5-3.3s-0.8-1.6-1.5-2.1s-1.5-0.8-2.4-0.8c-1,0-1.8,0.3-2.4,0.8
		c-0.7,0.5-1.2,1.2-1.5,2.2c-0.3,0.9-0.5,2-0.5,3.2c0,1.2,0.2,2.3,0.5,3.2c0.3,0.9,0.8,1.7,1.5,2.2
		C379.4,250.4,380.2,250.6,381.2,250.6z"/>
	<path d="M405.6,255.3c-2.2,0-4-0.4-5.6-1.3s-2.8-2.1-3.6-3.8s-1.3-3.5-1.3-5.8c0-2.2,0.4-4.1,1.3-5.7s2-2.9,3.6-3.8
		c1.5-0.9,3.3-1.4,5.4-1.4c1.4,0,2.7,0.2,3.9,0.7s2.2,1.1,3.1,2c0.9,0.9,1.6,2,2.1,3.3s0.8,2.9,0.8,4.7v1.6h-17.8v-3.6h12.3
		c0-0.8-0.2-1.6-0.5-2.2c-0.4-0.6-0.9-1.2-1.5-1.5c-0.6-0.4-1.4-0.6-2.2-0.6c-0.9,0-1.7,0.2-2.3,0.6s-1.2,0.9-1.6,1.6
		c-0.4,0.7-0.6,1.4-0.6,2.3v3.4c0,1,0.2,1.9,0.6,2.7s0.9,1.3,1.6,1.8c0.7,0.4,1.6,0.6,2.5,0.6c0.6,0,1.2-0.1,1.8-0.3
		c0.5-0.2,1-0.5,1.4-0.8c0.4-0.4,0.7-0.8,0.9-1.3l5.4,0.4c-0.3,1.3-0.8,2.4-1.7,3.4c-0.8,1-1.9,1.7-3.3,2.2
		C408.9,255.1,407.4,255.3,405.6,255.3z"/>
	<path d="M419.1,254.9v-21h5.7v3.7h0.2c0.4-1.3,1-2.3,1.9-3c0.9-0.7,1.9-1,3.1-1c0.3,0,0.6,0,0.9,0.1c0.3,0,0.6,0.1,0.9,0.2v5.2
		c-0.3-0.1-0.7-0.2-1.1-0.2s-0.9-0.1-1.3-0.1c-0.9,0-1.6,0.2-2.3,0.6c-0.7,0.4-1.2,0.9-1.6,1.5c-0.4,0.7-0.6,1.4-0.6,2.3v11.9H419.1
		z"/>
</g>
<g class="st12">
	<path d="M249.8,301.6c-1.1,0-2.3-0.2-3.4-0.7c-1.1-0.4-2.2-1.1-3.1-2.1c-0.9-1-1.7-2.4-2.3-4.1c-0.6-1.7-0.9-3.9-0.9-6.5
		c0-2.5,0.2-4.7,0.7-6.6c0.5-1.9,1.1-3.6,2-4.9c0.9-1.3,2-2.3,3.2-3s2.7-1,4.3-1c1.6,0,3,0.3,4.2,0.9s2.2,1.5,3,2.6
		c0.8,1.1,1.3,2.4,1.5,3.9h-3.3c-0.3-1.3-0.9-2.3-1.8-3.2s-2.1-1.3-3.6-1.3c-2.2,0-3.9,0.9-5.1,2.8c-1.2,1.9-1.9,4.6-1.9,8h0.2
		c0.5-0.8,1.1-1.4,1.8-2c0.7-0.6,1.5-1,2.3-1.3c0.9-0.3,1.8-0.5,2.7-0.5c1.6,0,3.1,0.4,4.4,1.2c1.3,0.8,2.4,1.9,3.2,3.3
		s1.2,3,1.2,4.8c0,1.7-0.4,3.3-1.2,4.8c-0.8,1.4-1.9,2.6-3.3,3.4S251.6,301.6,249.8,301.6z M249.8,298.6c1.1,0,2.2-0.3,3.1-0.9
		c0.9-0.6,1.6-1.3,2.2-2.3c0.5-1,0.8-2,0.8-3.2c0-1.2-0.3-2.2-0.8-3.2c-0.5-1-1.2-1.7-2.1-2.3c-0.9-0.6-1.9-0.8-3.1-0.8
		c-0.9,0-1.7,0.2-2.4,0.5c-0.7,0.3-1.4,0.8-2,1.4c-0.6,0.6-1,1.3-1.3,2c-0.3,0.8-0.5,1.6-0.5,2.4c0,1.1,0.3,2.2,0.8,3.1
		c0.5,1,1.2,1.7,2.2,2.3C247.5,298.3,248.6,298.6,249.8,298.6z"/>
	<path d="M274,301.6c-1.8,0-3.4-0.3-4.8-0.9c-1.4-0.6-2.5-1.5-3.4-2.6c-0.8-1.1-1.3-2.4-1.3-3.9h3.4c0.1,0.9,0.4,1.7,0.9,2.3
		c0.5,0.7,1.3,1.2,2.1,1.5c0.9,0.4,1.9,0.5,2.9,0.5c1.2,0,2.3-0.2,3.2-0.6c0.9-0.4,1.7-1,2.2-1.8c0.5-0.7,0.8-1.6,0.8-2.6
		c0-1-0.3-1.9-0.8-2.7c-0.5-0.8-1.3-1.4-2.2-1.9c-1-0.4-2.2-0.7-3.6-0.7h-2.2v-3h2.2c1.1,0,2.1-0.2,2.9-0.6c0.8-0.4,1.5-1,2-1.7
		c0.5-0.7,0.7-1.6,0.7-2.6c0-0.9-0.2-1.8-0.6-2.5c-0.4-0.7-1-1.3-1.8-1.6c-0.8-0.4-1.7-0.6-2.7-0.6c-1,0-1.9,0.2-2.7,0.5
		c-0.9,0.4-1.5,0.9-2.1,1.5c-0.5,0.7-0.8,1.5-0.9,2.4H265c0.1-1.5,0.5-2.8,1.3-3.9c0.8-1.1,1.9-2,3.3-2.6c1.3-0.6,2.8-0.9,4.4-0.9
		c1.7,0,3.2,0.3,4.5,1s2.2,1.6,2.9,2.8c0.7,1.1,1,2.4,1,3.7c0,1.6-0.4,2.9-1.2,4c-0.8,1.1-1.9,1.9-3.4,2.3v0.2
		c1.8,0.3,3.2,1,4.1,2.3c1,1.2,1.5,2.7,1.5,4.5c0,1.5-0.4,2.9-1.2,4.1c-0.8,1.2-2,2.2-3.4,2.9S275.8,301.6,274,301.6z"/>
	<path d="M298.3,301.6c-1.1,0-2.3-0.2-3.4-0.7c-1.1-0.4-2.2-1.1-3.1-2.1c-0.9-1-1.7-2.4-2.3-4.1c-0.6-1.7-0.9-3.9-0.9-6.5
		c0-2.5,0.2-4.7,0.7-6.6c0.5-1.9,1.1-3.6,2-4.9c0.9-1.3,2-2.3,3.2-3s2.7-1,4.3-1c1.6,0,3,0.3,4.2,0.9s2.2,1.5,3,2.6
		c0.8,1.1,1.3,2.4,1.5,3.9h-3.3c-0.3-1.3-0.9-2.3-1.8-3.2s-2.1-1.3-3.6-1.3c-2.2,0-3.9,0.9-5.1,2.8c-1.2,1.9-1.9,4.6-1.9,8h0.2
		c0.5-0.8,1.1-1.4,1.8-2c0.7-0.6,1.5-1,2.3-1.3c0.9-0.3,1.8-0.5,2.7-0.5c1.6,0,3.1,0.4,4.4,1.2c1.3,0.8,2.4,1.9,3.2,3.3
		s1.2,3,1.2,4.8c0,1.7-0.4,3.3-1.2,4.8c-0.8,1.4-1.9,2.6-3.3,3.4S300.2,301.6,298.3,301.6z M298.3,298.6c1.1,0,2.2-0.3,3.1-0.9
		c0.9-0.6,1.6-1.3,2.2-2.3c0.5-1,0.8-2,0.8-3.2c0-1.2-0.3-2.2-0.8-3.2c-0.5-1-1.2-1.7-2.1-2.3c-0.9-0.6-1.9-0.8-3.1-0.8
		c-0.9,0-1.7,0.2-2.4,0.5c-0.7,0.3-1.4,0.8-2,1.4c-0.6,0.6-1,1.3-1.3,2c-0.3,0.8-0.5,1.6-0.5,2.4c0,1.1,0.3,2.2,0.8,3.1
		c0.5,1,1.2,1.7,2.2,2.3C296.1,298.3,297.2,298.6,298.3,298.6z"/>
	<path d="M315.5,280.2l5,8.6l5-8.6h3.7l-6.8,10.5l6.8,10.5h-3.7l-5-8.2l-5,8.2h-3.7l6.7-10.5l-6.7-10.5H315.5z"/>
	<path d="M342.6,301.6c-1.6,0-3.1-0.3-4.3-1s-2.3-1.5-3.1-2.6c-0.8-1.1-1.2-2.4-1.3-3.8h3.3c0.1,1.3,0.7,2.3,1.7,3.1
		c1,0.8,2.3,1.2,3.7,1.2c1.2,0,2.2-0.3,3.1-0.8c0.9-0.5,1.6-1.3,2.1-2.2c0.5-0.9,0.8-2,0.8-3.2c0-1.2-0.3-2.3-0.8-3.3
		c-0.5-1-1.3-1.7-2.2-2.3c-0.9-0.6-2-0.8-3.2-0.8c-0.9,0-1.7,0.1-2.6,0.4c-0.9,0.3-1.6,0.6-2.2,1l-3.2-0.4l1.7-13.8h14.6v3h-11.7
		l-1,8.3h0.2c0.6-0.5,1.3-0.8,2.2-1.1c0.9-0.3,1.8-0.5,2.7-0.5c1.7,0,3.2,0.4,4.6,1.2c1.3,0.8,2.4,1.9,3.2,3.3
		c0.8,1.4,1.2,3,1.2,4.8c0,1.8-0.4,3.4-1.2,4.8c-0.8,1.4-1.9,2.5-3.3,3.3S344.4,301.6,342.6,301.6z"/>
	<path d="M366.8,301.6c-1.8,0-3.4-0.3-4.8-0.9c-1.4-0.6-2.5-1.5-3.4-2.6c-0.8-1.1-1.3-2.4-1.3-3.9h3.5c0.1,0.9,0.4,1.7,0.9,2.3
		s1.3,1.2,2.1,1.5c0.9,0.4,1.9,0.5,2.9,0.5c1.2,0,2.3-0.2,3.2-0.6s1.7-1,2.2-1.8c0.5-0.7,0.8-1.6,0.8-2.6c0-1-0.3-1.9-0.8-2.7
		c-0.5-0.8-1.3-1.4-2.2-1.9s-2.2-0.7-3.6-0.7H364v-3h2.2c1.1,0,2.1-0.2,2.9-0.6c0.8-0.4,1.5-1,2-1.7c0.5-0.7,0.7-1.6,0.7-2.6
		c0-0.9-0.2-1.8-0.6-2.5c-0.4-0.7-1-1.3-1.8-1.6c-0.8-0.4-1.7-0.6-2.7-0.6c-1,0-1.9,0.2-2.7,0.5c-0.9,0.4-1.5,0.9-2.1,1.5
		c-0.5,0.7-0.8,1.5-0.9,2.4h-3.3c0.1-1.5,0.5-2.8,1.3-3.9c0.8-1.1,1.9-2,3.3-2.6c1.3-0.6,2.8-0.9,4.4-0.9c1.7,0,3.2,0.3,4.5,1
		s2.2,1.6,2.9,2.8c0.7,1.1,1,2.4,1,3.7c0,1.6-0.4,2.9-1.2,4s-1.9,1.9-3.4,2.3v0.2c1.8,0.3,3.2,1,4.1,2.3c1,1.2,1.5,2.7,1.5,4.5
		c0,1.5-0.4,2.9-1.2,4.1c-0.8,1.2-2,2.2-3.4,2.9S368.6,301.6,366.8,301.6z"/>
	<path d="M391.1,301.6c-1.1,0-2.3-0.2-3.4-0.7c-1.2-0.4-2.2-1.1-3.1-2.1c-0.9-1-1.7-2.4-2.3-4.1c-0.6-1.7-0.9-3.9-0.9-6.5
		c0-2.5,0.2-4.7,0.7-6.6c0.5-1.9,1.1-3.6,2-4.9c0.9-1.3,2-2.3,3.2-3s2.7-1,4.3-1c1.6,0,3,0.3,4.2,0.9s2.2,1.5,3,2.6
		c0.8,1.1,1.3,2.4,1.5,3.9h-3.3c-0.3-1.3-0.9-2.3-1.8-3.2s-2.1-1.3-3.6-1.3c-2.2,0-3.9,0.9-5.1,2.8c-1.2,1.9-1.9,4.6-1.9,8h0.2
		c0.5-0.8,1.1-1.4,1.8-2c0.7-0.6,1.5-1,2.3-1.3c0.9-0.3,1.8-0.5,2.7-0.5c1.6,0,3.1,0.4,4.4,1.2c1.3,0.8,2.4,1.9,3.2,3.3
		c0.8,1.4,1.2,3,1.2,4.8c0,1.7-0.4,3.3-1.2,4.8c-0.8,1.4-1.9,2.6-3.3,3.4C394.7,301.2,393,301.6,391.1,301.6z M391.1,298.6
		c1.2,0,2.2-0.3,3.1-0.9c0.9-0.6,1.6-1.3,2.2-2.3c0.5-1,0.8-2,0.8-3.2c0-1.2-0.3-2.2-0.8-3.2c-0.5-1-1.2-1.7-2.1-2.3
		c-0.9-0.6-1.9-0.8-3.1-0.8c-0.9,0-1.7,0.2-2.4,0.5c-0.7,0.3-1.4,0.8-2,1.4c-0.6,0.6-1,1.3-1.3,2c-0.3,0.8-0.5,1.6-0.5,2.4
		c0,1.1,0.3,2.2,0.8,3.1c0.5,1,1.2,1.7,2.2,2.3C388.9,298.3,390,298.6,391.1,298.6z"/>
</g>
</svg>
