<?xml version="1.0" encoding="utf-8"?>
<!-- Generator: Adobe Illustrator 26.1.0, SVG Export Plug-In . SVG Version: 6.00 Build 0)  -->
<svg version="1.1" id="Layer_1" xmlns="http://www.w3.org/2000/svg" xmlns:xlink="http://www.w3.org/1999/xlink" x="0px" y="0px"
	 viewBox="0 0 600 600" style="enable-background:new 0 0 600 600;" xml:space="preserve">
<style type="text/css">
	.st0{fill:#EBEBEB;}
	.st1{fill:#F5F5F5;}
	.st2{fill:#E0E0E0;}
	.st3{fill:#FFFFFF;}
	.st4{fill:#FAFAFA;}
	.st5{fill:#263238;}
	.st6{fill:#455A64;}
	.st7{fill:#FF6A27;}
	.st8{opacity:0.2;}
	.st9{opacity:0.3;}
	.st10{fill:#FFBE9D;}
	.st11{fill:#FFE6E6;}
	.st12{enable-background:new    ;}
</style>
<g id="freepik--background-complete--inject-25">
	<path class="st0" d="M321.7,279.9c-0.1-0.6-0.5-1.1-0.9-1.5c-0.4-0.4-1-0.7-1.6-0.8c-1-0.1-2,0.5-2.4,1.4c-0.2-0.3-0.4-0.5-0.7-0.7
		c-0.6-0.3-1.2-0.4-1.8-0.2c-0.6,0.2-1,0.6-1.4,1.1c-0.4,0.6-0.6,1.2-0.6,1.8c0,0.8,0.2,1.5,0.7,2.2c0.5,0.6,1.2,1.1,1.9,1.5
		c1.2,0.6,2.8,1.3,2.8,1.3s1.2-1.1,2.2-1.9c0.6-0.5,1.2-1.1,1.6-1.8C321.8,281.5,321.8,280.7,321.7,279.9z"/>
	<path class="st0" d="M326.9,275.1c0-0.4-0.1-0.7-0.3-1c-0.2-0.3-0.4-0.5-0.8-0.7c-0.5-0.2-1.1,0-1.5,0.5c-0.2-0.5-0.7-0.9-1.3-0.9
		c-0.3,0-0.7,0.2-0.9,0.4c-0.3,0.2-0.5,0.5-0.6,0.9c-0.1,0.4-0.1,0.9,0,1.3c0.2,0.4,0.5,0.8,0.9,1.1c0.6,0.5,1.4,1.2,1.4,1.2
		s0.8-0.4,1.6-0.7c0.4-0.2,0.9-0.4,1.2-0.8C326.7,276,326.9,275.6,326.9,275.1z"/>
	<path class="st0" d="M325.3,287.3c-0.1-0.2-0.2-0.5-0.4-0.7c-0.2-0.2-0.4-0.3-0.7-0.3c-0.4,0-0.9,0.2-1,0.6
		c-0.2-0.3-0.7-0.5-1.1-0.4c-0.2,0.1-0.4,0.2-0.6,0.5c-0.2,0.2-0.2,0.5-0.3,0.7c0,0.3,0.1,0.7,0.3,0.9c0.2,0.3,0.5,0.5,0.8,0.6
		c0.5,0.3,1.2,0.6,1.2,0.6s0.5-0.5,1-0.8c0.3-0.2,0.5-0.5,0.7-0.8C325.3,288,325.4,287.7,325.3,287.3z"/>
	<rect x="277.1" y="311.7" class="st1" width="19.2" height="8.9"/>
	<path class="st2" d="M295.9,320.2h-18.3v-8h18.3V320.2L295.9,320.2z M277.7,320.1h18.1v-7.8h-18.1V320.1z"/>
	<rect x="296.3" y="311.7" class="st2" width="4.7" height="8.9"/>
	<path class="st2" d="M277.6,314.7h18.2l0,0l0,0H277.6C277.6,314.6,277.6,314.6,277.6,314.7L277.6,314.7z"/>
	<path class="st2" d="M286.8,314.6c0-0.8,0.1-1.6,0-2.4l0,0l0,0C286.7,313,286.7,313.8,286.8,314.6L286.8,314.6L286.8,314.6z"/>
	<path class="st2" d="M291.7,313.4c0,0.1-0.1,0.2-0.2,0.2c-0.1,0-0.2-0.1-0.2-0.2s0.1-0.2,0.2-0.2
		C291.6,313.2,291.7,313.3,291.7,313.4L291.7,313.4z"/>
	<path class="st2" d="M282.1,313.4c0,0.1-0.1,0.2-0.2,0.2c-0.1,0-0.2-0.1-0.2-0.2s0.1-0.2,0.2-0.2
		C282,313.2,282.1,313.3,282.1,313.4L282.1,313.4z"/>
	<path class="st2" d="M287,316.2c0,0.1-0.1,0.2-0.2,0.2c-0.1,0-0.2-0.1-0.2-0.2c0-0.1,0.1-0.2,0.2-0.2l0,0
		C286.9,315.9,287,316.1,287,316.2z"/>
	<polygon class="st2" points="279.4,320.6 278.5,326.2 279,326.2 280.8,320.6 	"/>
	<polygon class="st2" points="295,320.6 295.8,326.2 295.3,326.2 293.6,320.6 	"/>
	<polygon class="st2" points="298.7,320.6 299.6,326.2 299.1,326.2 297.3,320.6 	"/>
	<path class="st2" d="M287,318.7c0,0.1-0.1,0.2-0.2,0.2c-0.1,0-0.2-0.1-0.2-0.2c0-0.1,0.1-0.2,0.2-0.2l0,0
		C286.9,318.5,287,318.6,287,318.7z"/>
	<path class="st2" d="M277.6,317.4h18.2l0,0l0,0H277.6L277.6,317.4L277.6,317.4z"/>
	
		<rect x="284.7" y="307.5" transform="matrix(1 -5.266965e-03 5.266965e-03 1 -1.6188 1.5191)" class="st2" width="5.8" height="1.2"/>
	
		<rect x="284.8" y="309.9" transform="matrix(1 -5.266965e-03 5.266965e-03 1 -1.633 1.5215)" class="st1" width="6.5" height="1.8"/>
	<path class="st2" d="M290,311.7c0-0.3,0-0.6,0-0.9s0-0.6,0-0.9c0,0.3,0,0.6,0,0.9C290,311.1,290,311.4,290,311.7z"/>
	<path class="st2" d="M290.3,311.7c0-0.3,0-0.6,0-0.9s0-0.6,0-0.9c0,0.3,0,0.6,0,0.9C290.3,311.1,290.3,311.4,290.3,311.7z"/>
	<path class="st2" d="M285.8,311.7c0-0.3,0-0.6,0-0.9s0-0.6,0-0.9c0,0.3,0,0.6,0,0.9C285.8,311.1,285.8,311.4,285.8,311.7z"/>
	<path class="st2" d="M286,311.7c0-0.3,0-0.6,0-0.9s0-0.6,0-0.9c0,0.3,0,0.6,0,0.9C286.1,311.1,286.1,311.4,286,311.7z"/>
	<path class="st2" d="M286.6,310.8c0,0,0.7,0,1.5,0s1.5,0,1.5,0s-0.7,0-1.5,0S286.6,310.8,286.6,310.8z"/>
	
		<rect x="285.7" y="308.7" transform="matrix(1 -5.266965e-03 5.266965e-03 1 -1.6251 1.5301)" class="st0" width="8" height="1.2"/>
	<path class="st2" d="M292.5,309.7c-0.2,0-0.4-0.2-0.4-0.4c0-0.2,0.2-0.4,0.4-0.4s0.4,0.2,0.4,0.4l0,0
		C292.9,309.5,292.7,309.7,292.5,309.7L292.5,309.7z"/>
	<rect x="286.2" y="309.2" class="st2" width="5.3" height="0.2"/>
	<rect x="279" y="273.4" class="st2" width="11.5" height="16.7"/>
	<rect x="278.4" y="273.4" class="st1" width="11.5" height="16.7"/>
	<rect x="279.8" y="275.2" class="st3" width="8.6" height="13.1"/>
	<path class="st2" d="M288.4,288.3L288.4,288.3c0-0.1,0-0.2,0-0.3c0-0.2,0-0.4,0-0.7c0-0.6,0-1.5,0-2.7c0-2.3,0-5.6,0-9.4l0,0h-8.6
		l0,0l0,0c0,4.9,0,9.5,0,13.1l0,0h6.3h1.7h0.5C288.4,288.3,288.4,288.3,288.4,288.3h-0.1h-0.4h-1.7h-6.3l0,0l0,0c0-3.6,0-8.2,0-13.1
		l0,0l0,0h8.6l0,0l0,0c0,3.9,0,7.1,0,9.5c0,1.2,0,2.1,0,2.7c0,0.3,0,0.5,0,0.7C288.4,288.1,288.4,288.1,288.4,288.3
		C288.4,288.2,288.4,288.3,288.4,288.3z"/>
	<path class="st2" d="M289.9,273.4c-0.1,0.1-0.1,0.2-0.2,0.3c-0.1,0.2-0.3,0.4-0.5,0.7c-0.2,0.3-0.4,0.5-0.6,0.7
		c-0.1,0.1-0.2,0.2-0.2,0.3c0.1-0.1,0.1-0.2,0.2-0.3l0.6-0.7c0.1-0.3,0.3-0.6,0.5-0.8C289.7,273.5,289.8,273.4,289.9,273.4z"/>
	<path class="st3" d="M288.5,288.2c0.4,0.7,0.9,1.3,1.5,1.9"/>
	<path class="st2" d="M290,290.1c-0.1-0.1-0.2-0.2-0.3-0.2c-0.4-0.4-0.8-0.9-1.1-1.3c-0.1-0.1-0.1-0.2-0.2-0.3
		c0.1,0.1,0.2,0.2,0.2,0.3c0.1,0.2,0.3,0.4,0.5,0.7c0.2,0.3,0.4,0.5,0.5,0.7C289.8,289.9,289.9,290,290,290.1z"/>
	<path class="st3" d="M278.4,290.1l1.5-1.9"/>
	<path class="st2" d="M279.9,288.2c-0.2,0.3-0.5,0.6-0.7,1c-0.2,0.3-0.5,0.6-0.8,0.9c0.2-0.3,0.5-0.6,0.7-1
		C279.4,288.8,279.6,288.5,279.9,288.2z"/>
	<path class="st2" d="M278.4,273.4c0.3,0.3,0.5,0.6,0.7,0.9c0.3,0.2,0.5,0.5,0.7,0.9c-0.3-0.3-0.5-0.6-0.7-0.9
		C278.8,274,278.6,273.7,278.4,273.4z"/>
	<rect x="282.9" y="277.8" class="st2" width="2.9" height="8.2"/>
	<rect x="316.7" y="292.2" class="st2" width="8.3" height="8.7"/>
	<rect x="316.1" y="292.2" class="st4" width="8.3" height="8.7"/>
	<path class="st2" d="M324.5,300.9h-8.3v-8.7h8.3V300.9z M316.1,300.9h8.3v-8.7h-8.3V300.9z"/>
	<rect x="317.3" y="293.4" class="st3" width="6.1" height="6.4"/>
	<path class="st2" d="M317.3,299.8c0,0.1-0.1,0.1-0.2,0.2c-0.1,0.1-0.2,0.2-0.4,0.4s-0.3,0.3-0.4,0.4c0,0.1-0.1,0.1-0.2,0.1
		c0-0.1,0.1-0.1,0.2-0.2c0.1-0.1,0.2-0.2,0.4-0.4c0.2-0.2,0.3-0.3,0.4-0.4C317.1,299.9,317.2,299.9,317.3,299.8z"/>
	<path class="st2" d="M323.4,299.8c0.1,0,0.1,0.1,0.2,0.2c0.1,0.1,0.2,0.2,0.4,0.4c0.2,0.2,0.3,0.3,0.4,0.4c0.1,0,0.1,0.1,0.1,0.2
		c-0.1-0.1-0.2-0.2-0.2-0.2c-0.1-0.1-0.2-0.2-0.4-0.4s-0.3-0.3-0.4-0.4C323.4,299.9,323.4,299.9,323.4,299.8z"/>
	<path class="st2" d="M323.3,293.4c0-0.1,0.1-0.1,0.2-0.2c0.1-0.1,0.2-0.2,0.4-0.4c0.2-0.2,0.3-0.3,0.4-0.4c0-0.1,0.1-0.1,0.2-0.1
		c0,0.1-0.1,0.1-0.2,0.2c-0.1,0.1-0.2,0.2-0.4,0.4s-0.3,0.3-0.4,0.4C323.5,293.3,323.4,293.4,323.3,293.4z"/>
	<path class="st2" d="M317.2,293.4c-0.1,0-0.1-0.1-0.2-0.2c-0.1-0.1-0.2-0.2-0.4-0.4c-0.2-0.2-0.3-0.3-0.4-0.4
		c-0.1,0-0.1-0.1-0.1-0.2c0.1,0,0.1,0.1,0.2,0.2c0.1,0.1,0.2,0.2,0.4,0.4c0.2,0.2,0.3,0.3,0.4,0.4
		C317.2,293.3,317.2,293.4,317.2,293.4z"/>
	<path class="st2" d="M323.3,299.8C323.3,299.8,323.3,299.7,323.3,299.8C323.3,299.7,323.3,299.7,323.3,299.8c0-0.2,0-0.3,0-0.4
		c0-0.3,0-0.7,0-1.3c0-1.1,0-2.7,0-4.6l0,0h-6l0,0l0,0c0,2.3,0,4.5,0,6.4l0,0h4.4h1.2L323.3,299.8L323.3,299.8h-0.4h-1.2h-4.4l0,0
		l0,0c0-1.8,0-4,0-6.4l0,0l0,0h6l0,0l0,0c0,1.9,0,3.5,0,4.6c0,0.6,0,1,0,1.3c0,0.1,0,0.3,0,0.3C323.3,299.7,323.3,299.7,323.3,299.8
		C323.3,299.7,323.3,299.8,323.3,299.8z"/>
	<rect x="319.3" y="295.6" class="st0" width="2" height="2"/>
</g>
<g id="freepik--Plant--inject-25">
	<rect x="295.5" y="304" class="st5" width="8.1" height="1.1"/>
	<path class="st5" d="M295.5,304h8.2v1.2h-8.2V304z M303.7,304h-8.1v1.1h8.1V304z"/>
	<polygon class="st5" points="302.9,304.8 301.8,310.6 297.4,310.6 296.3,305.1 	"/>
	<polygon class="st6" points="302.9,310 302.3,310.9 297,310.9 296.3,310 	"/>
	<path class="st5" d="M299.9,304.9c0,0,0-2.7,0-6s0-6,0-6s0,2.7,0,6S299.9,304.9,299.9,304.9z"/>
	<path class="st5" d="M298.1,298.2L298.1,298.2l0.1,0.2l0.1,0.1c0,0,0,0.1,0.1,0.2c0.1,0.1,0,0.1,0.1,0.2s0,0.1,0.1,0.2
		c0.1,0.3,0.2,0.7,0.2,1c0.1,0.4,0.1,0.8,0.1,1.2c0,0.8,0,1.5-0.1,2.3c0,0.3-0.1,0.5-0.1,0.7c0,0.1,0,0.1,0,0.2c0,0,0,0,0,0.1
		c0,0,0,0,0-0.1v-0.2c0-0.2,0.1-0.4,0.1-0.7c0.1-0.8,0.1-1.5,0.1-2.3c0-0.4-0.1-0.8-0.1-1.3c-0.1-0.3-0.1-0.7-0.2-1
		c0-0.1,0-0.1-0.1-0.2c0-0.1,0-0.1-0.1-0.2l-0.1-0.2c0,0,0-0.1-0.1-0.1C298.2,298.3,298.2,298.3,298.1,298.2L298.1,298.2z"/>
	<path class="st5" d="M298.3,296C298.3,296.1,298.3,296.1,298.3,296l0.1,0.3l0.1,0.2c0,0.1,0,0.1,0.1,0.2c0,0.2,0.1,0.3,0.2,0.5
		l0.1,0.3c0,0.1,0,0.2,0.1,0.3c0.1,0.2,0.1,0.5,0.2,0.8c0.1,0.5,0.2,1.1,0.2,1.8c0,0.7,0.1,1.2,0.1,1.8c0,0.5,0,1,0,1.4
		c0,0.2,0,0.4,0,0.5c0,0.2,0,0.3,0,0.4s0,0.2,0,0.3v0.1v-0.1c0-0.1,0-0.2,0-0.3s0-0.3,0-0.4c0-0.2,0-0.3,0-0.5c0-0.4,0-0.9,0-1.4
		s0-1.1-0.1-1.8c-0.1-0.6-0.1-1.2-0.2-1.8c-0.1-0.3-0.1-0.5-0.2-0.8c0-0.1-0.1-0.2-0.1-0.3l-0.1-0.3c0-0.2-0.1-0.4-0.2-0.5
		c0-0.1,0-0.1-0.1-0.2c-0.1-0.1,0-0.1-0.1-0.2L298.3,296C298.4,296.1,298.3,296.1,298.3,296z"/>
	<path class="st5" d="M300.4,305.4L300.4,305.4C300.4,305.3,300.4,305.3,300.4,305.4c0-0.2,0-0.3,0-0.5c0-0.3,0-0.8,0.1-1.3
		c0.1-1.1,0.2-2.6,0.4-4.3c0.1-0.8,0.2-1.6,0.3-2.4c0.1-0.4,0.1-0.7,0.2-1s0.1-0.6,0.2-0.9c0.1-0.3,0.1-0.5,0.2-0.7
		c0-0.2,0.1-0.4,0.1-0.5c0-0.1,0.1-0.3,0.1-0.3v-0.1l0,0l0,0c0,0,0,0,0,0.1s-0.1,0.2-0.1,0.3c0,0.1-0.1,0.3-0.1,0.5
		c0,0.2-0.1,0.5-0.2,0.7c0,0.3-0.1,0.6-0.2,0.9c-0.1,0.3-0.1,0.7-0.2,1c-0.1,0.7-0.2,1.5-0.3,2.4c-0.2,1.7-0.3,3.2-0.3,4.3
		c0,0.6,0,1-0.1,1.3c0,0.2,0,0.3,0,0.4L300.4,305.4L300.4,305.4z"/>
	<path class="st7" d="M300,294.2c0-0.4,0.4-0.7,0.8-0.7c0.4,0,0.7,0.2,1,0.5c0.2,0.3,0.4,0.7,0.5,1c0.3,0.9,0.4,1.8,0.3,2.8
		c-0.1,0.9-0.5,1.8-1.1,2.5c-0.1,0.1-0.2,0.2-0.4,0.2c-0.1,0-0.2-0.1-0.2-0.1c-1.3-1.2-2-2.9-2-4.7c0-0.4,0.1-0.7,0.2-1
		C299.2,294.4,299.7,294.1,300,294.2"/>
	<path class="st7" d="M302.8,291.1l0.5,1c0,0,0,0,0.1,0c0,0,0,0,0.1,0l1.4-2.2l-0.3-0.2L302.8,291.1z"/>
	<g class="st8">
		<path d="M302.8,291.1l0.5,1c0,0,0,0,0.1,0c0,0,0,0,0.1,0l1.4-2.2l-0.3-0.2L302.8,291.1z"/>
	</g>
	<path class="st7" d="M300,292.9l4.8-2.9l0.1-0.1c0-0.1,0-0.1-0.1-0.2c-0.7-0.7-1.6-1.1-2.6-1c-1,0.1-1.8,0.6-2.3,1.5
		C299.4,291,299.4,292.1,300,292.9"/>
	<path class="st5" d="M304.1,289.1L304.1,289.1c-0.1,0-0.2,0-0.2,0c-0.2,0-0.4,0-0.7,0.1s-0.7,0.2-1,0.3c-0.8,0.3-1.4,0.9-1.8,1.6
		c-0.2,0.3-0.3,0.6-0.4,0.9c-0.1,0.2-0.1,0.4-0.1,0.7c0,0.1,0,0.1,0,0.1v0.1c0-0.1,0-0.2,0-0.2c0-0.2,0.1-0.4,0.1-0.7
		c0.4-1.5,1.6-2.6,3.1-2.8c0.2,0,0.4-0.1,0.7-0.1C304,289.1,304.1,289.1,304.1,289.1z"/>
	<path class="st5" d="M300.6,290.9c0.1,0,0.2,0.1,0.2,0.1c0.2,0.1,0.4,0.1,0.6,0.2c0.2,0.1,0.5,0.1,0.6,0.2c0.1,0,0.2,0,0.3,0
		c-0.1,0-0.2-0.1-0.2-0.1l-0.6-0.2l-0.6-0.1C300.8,291,300.7,290.9,300.6,290.9z"/>
	<path class="st5" d="M301.4,288.9c0,0.2-0.1,0.4-0.1,0.5c0,0.2,0,0.4,0,0.5c0-0.2,0-0.4,0-0.5C301.4,289.2,301.4,289,301.4,288.9z"
		/>
	<path class="st5" d="M304.8,290c-0.1,0-0.2-0.1-0.4-0.1c-0.2-0.1-0.5-0.2-0.9-0.2c-0.3-0.1-0.7-0.1-0.9-0.2c-0.1,0-0.2,0-0.4,0
		c0.1,0,0.2,0.1,0.4,0.1c0.2,0,0.5,0.1,0.9,0.2c0.3,0.1,0.7,0.2,0.9,0.2C304.6,289.9,304.7,290,304.8,290z"/>
	<path class="st7" d="M302,293.4c0.4-0.3,0.9-0.4,1.4-0.4s1,0.2,1.5,0.4c0.8,0.4,1.6,0.9,2.1,1.6s0.7,1.7,0.3,2.6
		c0,0.1-0.1,0.2-0.2,0.2s-0.2,0-0.3,0c-0.9-0.3-1.9-0.6-2.7-1.1s-1.6-1.1-2.1-2c-0.1-0.2-0.2-0.4-0.2-0.7
		C301.8,293.8,301.8,293.6,302,293.4"/>
	<path class="st5" d="M302,293.3L302,293.3l0.3,0.1h0.1c0,0,0.1,0,0.2,0.1c0.1,0,0.2,0.1,0.4,0.2l0.2,0.1c0.1,0,0.2,0.1,0.2,0.1
		c0.2,0.1,0.3,0.2,0.5,0.3c0.8,0.5,1.5,1.1,2,1.8c0.1,0.2,0.3,0.3,0.4,0.5c0,0.1,0.1,0.2,0.2,0.2l0.1,0.2c0.1,0.1,0.2,0.3,0.2,0.4
		s0.1,0.1,0.1,0.2l0.1,0.1c0,0.1,0.1,0.1,0.1,0.2c0,0,0,0,0,0.1c0,0,0,0,0-0.1l-0.1-0.2c0,0,0-0.1-0.1-0.1c0,0,0-0.1-0.1-0.2
		s-0.1-0.2-0.2-0.4l-0.1-0.2c0-0.1-0.1-0.1-0.2-0.2c-0.1-0.2-0.2-0.3-0.4-0.5c-0.3-0.4-0.6-0.7-0.9-1s-0.7-0.6-1.1-0.8
		c-0.2-0.1-0.4-0.2-0.5-0.3c-0.1,0-0.2-0.1-0.2-0.1l-0.2-0.2c-0.1-0.1-0.3-0.1-0.4-0.2c-0.1,0-0.1,0-0.2-0.1h-0.1L302,293.3
		L302,293.3z"/>
	<path class="st5" d="M305.2,295.1c0.3,0.1,0.7,0.2,1,0.3c0.3,0.1,0.7,0.2,1,0.3c-0.3-0.1-0.7-0.2-1-0.3
		C305.9,295.2,305.6,295.1,305.2,295.1z"/>
	<path class="st5" d="M305.3,297.3c0-0.1,0-0.2,0-0.3c0-0.2,0-0.5,0-0.8c0-0.3,0-0.6,0-0.8c0-0.1,0-0.2,0-0.3c0,0.1,0,0.2,0,0.3
		c0,0.2,0,0.5,0,0.8c0,0.3,0,0.5,0,0.8C305.3,297.1,305.3,297.2,305.3,297.3z"/>
	<path class="st5" d="M303.4,296.3c0,0,0.1-0.5,0.1-1.2s0.1-1.2,0.1-1.2s-0.1,0.5-0.1,1.2C303.4,295.8,303.4,296.3,303.4,296.3z"/>
	<path class="st5" d="M305.8,293.8c-0.1,0-0.2,0-0.3,0c-0.2,0-0.5,0-0.8,0c-0.3,0-0.6,0-0.8,0c-0.1,0-0.2,0-0.3,0c0.1,0,0.2,0,0.3,0
		c0.2,0,0.5,0,0.8,0c0.3,0,0.6,0,0.8,0C305.5,293.8,305.7,293.8,305.8,293.8z"/>
	<path class="st5" d="M301.2,300.5L301.2,300.5c0-0.1,0-0.2,0-0.3c0-0.2,0-0.4,0-0.7s0-0.6-0.1-1c0-0.4-0.1-0.8-0.2-1.2
		c-0.1-0.4-0.2-0.8-0.3-1.2c-0.1-0.4-0.2-0.7-0.3-1s-0.2-0.5-0.2-0.6l-0.1-0.2c0,0,0,0,0-0.1c0,0,0,0,0,0.1c0,0,0,0.1,0.1,0.2
		c0.1,0.2,0.1,0.4,0.2,0.7c0.1,0.3,0.2,0.6,0.3,1c0.1,0.4,0.2,0.8,0.3,1.2s0.1,0.9,0.2,1.2c0.1,0.3,0.1,0.7,0.1,1c0,0.3,0,0.5,0,0.7
		C301.2,300.3,301.2,300.4,301.2,300.5L301.2,300.5z"/>
	<path class="st5" d="M300.9,297.3c0.1,0.1,0.1,0.2,0.2,0.2c0.1,0.1,0.3,0.3,0.5,0.5c0.2,0.2,0.4,0.3,0.5,0.4
		c0.1,0.1,0.2,0.1,0.2,0.2c-0.1-0.1-0.1-0.1-0.2-0.2l-0.5-0.4l-0.5-0.5C301.1,297.4,301,297.4,300.9,297.3z"/>
	<path class="st5" d="M299.4,298.6c0.1-0.1,0.1-0.2,0.2-0.3l0.5-0.7l0.5-0.7c0.1-0.1,0.1-0.2,0.2-0.3c-0.1,0.1-0.2,0.2-0.2,0.3
		c-0.1,0.2-0.3,0.4-0.5,0.7c-0.2,0.3-0.4,0.5-0.5,0.7C299.5,298.4,299.4,298.4,299.4,298.6z"/>
	<path class="st5" d="M300.2,294.6c0,0,0.5,0.4,1.1,0.8c0.6,0.4,1.2,0.7,1.2,0.7s-0.5-0.4-1.1-0.8
		C300.7,295,300.2,294.6,300.2,294.6z"/>
	<path class="st5" d="M298.7,296.2c0.3-0.2,0.5-0.5,0.8-0.7s0.5-0.5,0.7-0.8c-0.3,0.2-0.5,0.5-0.8,0.7
		C299.2,295.7,299,295.9,298.7,296.2z"/>
	<path class="st7" d="M298.4,296.2H298c-0.3,0-0.6-0.1-0.9-0.3c-0.1-0.1-0.3-0.1-0.4-0.2c-0.5-0.2-1.1-0.2-1.7-0.2
		c-0.9,0-1.9-0.3-2.7-0.7l-0.1-0.1c-0.1-0.2,0.1-0.3,0.2-0.4c0.7-0.5,1.5-0.9,2.3-1.1s1.8-0.2,2.5,0.3S298.2,295.2,298.4,296.2"/>
	<path class="st5" d="M292.1,294.6L292.1,294.6l0.3-0.1c0.2-0.1,0.4-0.2,0.8-0.4c0.4-0.2,0.8-0.3,1.2-0.5c0.5-0.1,1-0.2,1.5-0.1
		s1,0.3,1.4,0.6c0.3,0.3,0.6,0.6,0.7,1c0.1,0.3,0.2,0.5,0.3,0.8c0,0.1,0.1,0.2,0.1,0.2s0,0,0,0.1v-0.1c0-0.1,0-0.1-0.1-0.2
		c-0.1-0.3-0.2-0.5-0.3-0.8c-0.2-0.4-0.4-0.8-0.7-1c-0.4-0.3-0.9-0.6-1.4-0.6c-0.5-0.1-1.1,0-1.6,0.1c-0.4,0.1-0.8,0.3-1.2,0.5
		c-0.3,0.2-0.6,0.3-0.8,0.4L292.1,294.6L292.1,294.6z"/>
	<path class="st5" d="M293.1,295.1c0,0,0.6-0.4,1.3-0.8c0.7-0.5,1.3-0.9,1.2-0.9s-0.6,0.4-1.3,0.8
		C293.6,294.7,293.1,295.1,293.1,295.1z"/>
	<path class="st5" d="M293.7,293.4c0.3,0.1,0.6,0.1,0.8,0.1c-0.1,0-0.3,0-0.4,0C294,293.4,293.9,293.4,293.7,293.4z"/>
	<path class="st5" d="M296.2,293.1c0,0.1,0.1,0.2,0.2,0.3c0.1,0.1,0.1,0.2,0.2,0.3c0-0.1-0.1-0.2-0.2-0.3
		C296.4,293.3,296.3,293.2,296.2,293.1z"/>
	<path class="st5" d="M295.7,295.5c0.1,0,0.2-0.1,0.3-0.2c0.2-0.1,0.4-0.3,0.6-0.4c0.2-0.1,0.4-0.3,0.6-0.5c0.1-0.1,0.2-0.1,0.2-0.2
		c-0.1,0-0.2,0.1-0.3,0.2c-0.2,0.1-0.4,0.3-0.6,0.4c-0.2,0.1-0.5,0.3-0.6,0.4C295.9,295.4,295.8,295.4,295.7,295.5z"/>
	<path class="st7" d="M297.7,298c0.4-0.1,0.9,0.3,1,0.7c0.1,0.4-0.1,0.9-0.3,1.2c-0.4,0.9-1,1.7-1.7,2.3c-0.7,0.6-1.7,1-2.6,1
		c0.2-0.8,0-1.7,0-2.5c0.2-1.5,1.4-2.7,2.9-2.9C297.3,297.8,297.6,297.8,297.7,298"/>
	<path class="st5" d="M294.1,303.3L294.1,303.3c0.1-0.1,0.2-0.1,0.2-0.1c0.2-0.2,0.3-0.3,0.4-0.5c0.1-0.1,0.1-0.3,0.2-0.4
		c0.1-0.2,0.1-0.3,0.2-0.5c0.1-0.2,0.2-0.4,0.3-0.5c0.1-0.2,0.2-0.4,0.4-0.5c0.3-0.3,0.6-0.6,0.9-0.9c0.2-0.2,0.5-0.5,0.7-0.8
		c0.1-0.2,0.2-0.4,0.3-0.6c0-0.1,0-0.1,0.1-0.2c0,0,0,0,0-0.1c0,0,0,0.1-0.1,0.2c-0.1,0.2-0.2,0.4-0.3,0.6c-0.2,0.3-0.4,0.5-0.7,0.8
		c-0.3,0.3-0.6,0.6-0.9,0.9c-0.1,0.2-0.3,0.3-0.4,0.5c-0.1,0.2-0.2,0.4-0.3,0.5l-0.2,0.5c-0.1,0.2-0.1,0.3-0.2,0.4
		c-0.1,0.2-0.2,0.4-0.4,0.6C294.2,303.2,294.1,303.3,294.1,303.3z"/>
	<path class="st5" d="M296.3,302.6c0-0.1,0-0.2,0-0.3c0-0.2-0.1-0.4-0.2-0.7s-0.2-0.5-0.2-0.7c0-0.1-0.1-0.2-0.1-0.3
		c0,0.1,0,0.2,0.1,0.3c0,0.2,0.1,0.4,0.2,0.7s0.1,0.5,0.2,0.7C296.2,302.4,296.2,302.5,296.3,302.6z"/>
	<path class="st5" d="M294.2,300.6c0.1,0,0.2,0,0.3-0.1c0.2,0,0.4-0.1,0.7-0.2c0.3-0.1,0.5-0.1,0.7-0.1c0.1,0,0.2,0,0.3-0.1
		c-0.1,0-0.2,0-0.3,0c-0.2,0-0.4,0.1-0.7,0.1c-0.3,0.1-0.5,0.1-0.7,0.2C294.4,300.5,294.3,300.5,294.2,300.6z"/>
	<path class="st5" d="M297.8,301.1c0-0.1,0-0.2,0-0.3c0-0.2-0.1-0.5-0.2-0.8s-0.2-0.6-0.2-0.8c0-0.1-0.1-0.2-0.1-0.3
		c0,0.1,0,0.2,0.1,0.3c0.1,0.2,0.1,0.5,0.2,0.8s0.1,0.6,0.2,0.8C297.8,300.9,297.8,301,297.8,301.1z"/>
	<path class="st5" d="M295.2,298.8c0,0,0.5,0,1.2-0.1c0.4,0,0.8-0.1,1.2-0.2c0,0-0.5,0-1.2,0.1C295.9,298.7,295.5,298.7,295.2,298.8
		z"/>
	<path class="st6" d="M295.5,305.1c0,0,1.8,0,4.1,0s4.1,0,4.1,0s-1.8,0-4.1,0S295.5,305.1,295.5,305.1z"/>
	<path class="st6" d="M296.8,307.5c0,0,1.2,0,2.8,0s2.8,0,2.8,0s-1.2,0-2.8,0S296.8,307.5,296.8,307.5z"/>
	<path class="st6" d="M296.9,307.9c0,0,1.2,0,2.7,0s2.7,0,2.7,0s-1.2,0-2.7,0S296.9,307.8,296.9,307.9z"/>
	<path class="st6" d="M296.8,307.2c0,0,1.3,0,2.9,0c1.6,0,2.9,0,2.9,0s-1.3,0-2.9,0C298.1,307.2,296.8,307.2,296.8,307.2z"/>
</g>
<g id="freepik--Device--inject-25">
	<path class="st5" d="M306.6,320.1h-13.7c-1.6,0-3-1.3-3-3l0,0v-34.6c0-1.7,1.3-3,3-3h13.7c1.6,0,3,1.3,3,3v34.6
		C309.6,318.7,308.2,320.1,306.6,320.1L306.6,320.1z"/>
	<path class="st3" d="M306.6,280.7h-2.7c-0.4,0-0.7,0.3-0.7,0.7v0.5c0,0.4-0.3,0.7-0.7,0.7h-5.2c-0.4,0-0.7-0.3-0.7-0.7l0,0v-0.5
		c0-0.4-0.3-0.7-0.7-0.7h-3.3c-1.2,0-2.1,0.9-2.1,2.1l0,0v33.7c0,1.2,0.9,2.1,2.1,2.1l0,0h13.7c1.2,0,2.1-0.9,2.1-2.1l0,0v-33.7
		C308.7,281.7,307.7,280.7,306.6,280.7L306.6,280.7z"/>
	<path class="st5" d="M298.5,317.2c0,0.1-0.1,0.3-0.3,0.3c-0.1,0-0.3-0.1-0.3-0.3c0-0.1,0.1-0.3,0.3-0.3l0,0
		C298.3,316.9,298.5,317.1,298.5,317.2L298.5,317.2z"/>
	<path class="st2" d="M299.9,317.2c0,0.1-0.1,0.3-0.3,0.3c-0.1,0-0.3-0.1-0.3-0.3c0-0.1,0.1-0.3,0.3-0.3
		C299.8,316.9,299.9,317.1,299.9,317.2L299.9,317.2z"/>
	<path class="st2" d="M301.4,317.2c0,0.1-0.1,0.3-0.3,0.3c-0.1,0-0.3-0.1-0.3-0.3c0-0.1,0.1-0.3,0.3-0.3
		C301.3,316.9,301.4,317,301.4,317.2L301.4,317.2z"/>
	<path class="st5" d="M292.6,285.4L292.6,285.4L292.6,285.4h0.4l0,0c0-0.1,0-0.2,0-0.2v-0.1c0-0.1,0.1-0.1,0.1-0.1
		c0.1,0,0.1,0,0.2,0c0.1,0,0.1,0.1,0.1,0.1c0,0.1,0,0.2,0,0.4l0,0h0.4l0,0c0-0.2,0-0.3,0-0.5v-0.1c0,0,0-0.1-0.1-0.1
		c-0.1-0.1-0.1-0.1-0.2-0.2l-0.2-0.2l-0.1-0.1c0,0,0-0.1-0.1-0.1H293c0,0,0,0-0.1,0.1l-0.2,0.2c-0.1,0.1-0.2,0.2-0.3,0.3
		c0,0,0,0.1,0,0.2v0.1c0,0.1,0,0.2,0,0.2S292.6,285.3,292.6,285.4L292.6,285.4L292.6,285.4c0-0.1,0-0.1,0-0.2c0-0.1,0-0.1,0-0.2
		c0,0,0-0.1,0-0.2v-0.1v-0.1c0.1-0.1,0.2-0.2,0.3-0.3l0.1-0.2c0,0,0,0,0.1-0.1h0.1c0,0,0.1,0,0.1,0.1l0.1,0.1l0.2,0.2l0.2,0.2
		l0.1,0.1v0.1c0,0.2,0,0.4,0,0.5l0,0l0,0h-0.4l0,0l0,0c0-0.1,0-0.2,0-0.4c0,0,0-0.1-0.1-0.1c-0.1,0-0.1,0-0.2,0c0,0-0.1,0-0.1,0.1
		v0.1c0,0.1,0,0.2,0,0.2l0,0l0,0h-0.3L292.6,285.4L292.6,285.4z"/>
	<path class="st1" d="M307.8,287.1L307.8,287.1c0.1,0,0.2,0.1,0.2,0.2v29.4c0,0.1-0.1,0.2-0.2,0.2l0,0c-0.1,0-0.2-0.1-0.2-0.2v-29.4
		C307.6,287.2,307.7,287.1,307.8,287.1z"/>
	<path class="st2" d="M307.8,288.5L307.8,288.5c0.1,0,0.2,0.1,0.2,0.1v2.1c0,0.1-0.1,0.1-0.1,0.1l0,0c-0.1,0-0.1-0.1-0.1-0.1v-2.1
		C307.6,288.5,307.7,288.5,307.8,288.5z"/>
	<path class="st3" d="M292.7,286.9h13.9c0.3,0,0.5,0.2,0.5,0.5v5.4c0,0.3-0.2,0.5-0.5,0.5h-13.9c-0.3,0-0.5-0.2-0.5-0.5v-5.4
		C292.2,287.2,292.4,286.9,292.7,286.9z"/>
	<path class="st7" d="M292.7,286.9h7.1l0,0v6.4l0,0h-7.1c-0.3,0-0.5-0.2-0.5-0.5v-5.5C292.2,287.2,292.4,286.9,292.7,286.9z"/>
	<g class="st9">
		<path d="M298.4,290.4c0.2-0.2,0.3-0.4,0.4-0.7c0.1-0.2,0.1-0.4,0-0.5c-0.1-0.1-0.2-0.2-0.3-0.2c-0.5-0.2-0.9-0.4-1.4-0.5l-3.6,1.3
			c-0.1,0.3,0.1,0.6,0.4,0.7c0.1,0,0.3,0,0.4-0.1c0.1,0.7,0.1,1.5-0.2,2.1c0,0.1-0.1,0.2,0,0.3c0.1,0.1,0.2,0.1,0.3,0.1h3.6
			c0.2,0,0.4,0,0.5-0.1c0.1-0.1,0.1-0.4,0-0.5l-0.4-1.4c0-0.1,0-0.2,0-0.2C298.2,290.5,298.3,290.5,298.4,290.4z"/>
	</g>
	<path class="st3" d="M297.9,292.2l-0.3-1.2l0.1-1.2l0.1-1.7L297,288c-0.6,0.3-1.5,0.5-2.2,0.2c0,0-0.3,0-0.5,0.2
		c-0.1,0.1,0,0.6,0.1,1c0.1,0.5,0.4,1.8,0.4,1.8s-0.4,1.1-0.5,1.4c0,0,2.8-0.5,3.7,0C297.9,292.5,298.1,292.5,297.9,292.2z"/>
	<path class="st3" d="M293.2,288.9l1-0.6l0.3,1.4l-0.5,0.4C294,290.1,293.2,289.7,293.2,288.9z"/>
	<path class="st3" d="M297.7,288l1.1,0.5c0,0-0.3,1.3-0.5,1.5l-0.5-0.2l-0.1,0.4v-1.7V288z"/>
	<path class="st2" d="M294.1,290L294.1,290c-0.1,0-0.1-0.1-0.2-0.1c-0.1-0.1-0.3-0.2-0.4-0.4c0-0.1-0.1-0.2-0.1-0.3
		c0-0.1,0-0.2-0.1-0.2c0,0,0-0.1,0-0.2c0,0,0,0,0-0.1c0,0,0,0.1,0,0.2s0,0.2,0.1,0.2c0,0.1,0.1,0.2,0.1,0.2c0.1,0.1,0.2,0.3,0.3,0.4
		C294,290,294.1,290,294.1,290z"/>
	<path class="st2" d="M294.4,289.5L294.4,289.5c-0.1,0-0.1-0.1-0.1-0.1c-0.1-0.1-0.2-0.2-0.2-0.3c0-0.1-0.1-0.2-0.2-0.3
		c0,0,0-0.1-0.1-0.2c0,0,0,0.1,0.1,0.1c0.1,0.1,0.1,0.2,0.2,0.3c0.1,0.1,0.2,0.2,0.2,0.3C294.3,289.4,294.3,289.4,294.4,289.5
		L294.4,289.5z"/>
	<path class="st2" d="M297.6,288.1h-0.1c-0.1,0-0.2,0-0.3,0.1l-0.5,0.2c-0.2,0.1-0.4,0.1-0.6,0.1c-0.4,0-0.8,0-1.2-0.1
		c-0.1,0-0.2-0.1-0.3-0.1h-0.1l0,0c0,0,0.1,0,0.1,0.1c0.1,0,0.2,0.1,0.3,0.1c0.4,0.1,0.8,0.2,1.2,0.1c0.2,0,0.4-0.1,0.6-0.1
		c0.2-0.1,0.4-0.1,0.5-0.2c0.1-0.1,0.3-0.1,0.3-0.1C297.5,288.1,297.5,288.1,297.6,288.1L297.6,288.1z"/>
	<path class="st2" d="M297.7,289.1L297.7,289.1L297.7,289.1c-0.2,0-0.3,0-0.5,0c-0.4,0-0.8,0.1-1.2,0.1c-0.5,0-0.9,0-1.2,0h-0.4
		h-0.1l0,0l0,0h0.1h0.4c0.3,0,0.7,0,1.2,0s0.9,0,1.2,0C297.4,289.2,297.5,289.2,297.7,289.1L297.7,289.1L297.7,289.1z"/>
	<path class="st2" d="M297.7,289.8L297.7,289.8h-0.2c0,0-0.1,0-0.2,0c-0.4,0.1-0.7,0.1-1.1,0.1c-0.4,0-0.8,0-1.1,0
		c-0.1,0-0.3,0-0.3,0h-0.1h0.1c0.1,0,0.2,0,0.3,0c0.3,0,0.7,0,1.1,0c0.4,0,0.7,0,1.1-0.1c0.1,0,0.1,0,0.2,0S297.6,289.8,297.7,289.8
		C297.6,289.8,297.6,289.8,297.7,289.8z"/>
	<path class="st2" d="M297.6,290.6h-0.1c-0.1,0-0.2,0-0.3,0c-0.3,0-0.6,0-1,0c-0.4,0-0.8,0-1,0c-0.1,0-0.2,0-0.3,0h-0.1h0.1
		c0.1,0,0.2,0,0.3,0c0.3,0,0.6,0,1,0c0.4,0,0.8,0,1,0h0.3C297.5,290.6,297.5,290.6,297.6,290.6z"/>
	<path class="st2" d="M297.7,291.5L297.7,291.5h-0.4c-0.3,0-0.7,0-1.1,0c-0.4,0-0.8,0-1.1,0h-0.3h-0.1h0.1c0.1,0,0.2,0,0.3,0
		c0.3,0,0.7,0,1.1,0c0.4,0,0.8,0,1.1,0C297.4,291.5,297.6,291.5,297.7,291.5L297.7,291.5z"/>
	<path class="st2" d="M298.1,288.4c0,0.1-0.1,0.2-0.1,0.3c0,0.1-0.1,0.2-0.2,0.3c0,0,0.1-0.1,0.2-0.3
		C298.1,288.5,298.1,288.4,298.1,288.4z"/>
	<path class="st5" d="M294.3,288.8C294.3,288.8,294.3,288.9,294.3,288.8c0,0.2,0.1,0.2,0.1,0.3c0,0.2,0.1,0.5,0.2,0.8
		c0.1,0.3,0.1,0.6,0.2,0.8c0,0.1,0,0.2,0,0.2v0.1v-0.1c0-0.1,0-0.1,0-0.2c0-0.2-0.1-0.5-0.2-0.8c-0.1-0.3-0.1-0.6-0.2-0.8
		C294.4,289,294.4,288.9,294.3,288.8C294.3,288.9,294.3,288.8,294.3,288.8z"/>
	<path class="st5" d="M297.7,289.2L297.7,289.2c0,0.1,0,0.2,0,0.3c0,0.2,0,0.4,0,0.6c0,0.2,0,0.5,0,0.6s0,0.1,0,0.2c0,0,0,0,0,0.1
		c0,0,0,0,0-0.1c0,0,0-0.1,0-0.2c0-0.2,0-0.4,0-0.6c0-0.2,0-0.5,0-0.6S297.7,289.3,297.7,289.2L297.7,289.2z"/>
	<path class="st2" d="M298.5,288.4c0,0.1,0,0.1-0.1,0.2c-0.1,0.1-0.1,0.3-0.2,0.5c-0.1,0.2-0.1,0.4-0.1,0.5c0,0.1,0,0.1,0,0.2
		c0,0,0,0,0-0.1c0,0,0-0.1,0-0.2c0-0.2,0.1-0.4,0.1-0.5c0.1-0.2,0.1-0.3,0.2-0.5C298.4,288.5,298.4,288.5,298.5,288.4L298.5,288.4z"
		/>
	<path class="st2" d="M297.9,292.2L297.9,292.2L297.9,292.2c-0.1,0-0.2,0-0.3,0c-0.1,0-0.1,0-0.2,0s-0.2,0-0.3,0c-0.1,0-0.2,0-0.3,0
		c-0.5,0-1,0-1.5,0.1c-0.1,0-0.2,0-0.3,0.1c-0.1,0-0.2,0-0.3,0.1c-0.1,0.1-0.2,0-0.2,0.1c-0.1,0-0.1,0-0.2,0.1h-0.1l0,0l0,0h0.1
		c0,0,0.1,0,0.2-0.1c0.1-0.1,0.1-0.1,0.2-0.1s0.2-0.1,0.3-0.1c0.1,0,0.2,0,0.3-0.1c0.5-0.1,1-0.1,1.5-0.1c0.1,0,0.2,0,0.3,0
		c0.1,0,0.2,0,0.3,0s0.2,0,0.2,0S297.7,292.2,297.9,292.2L297.9,292.2L297.9,292.2z"/>
	<path class="st7" d="M299.8,293.4c0,0,0-1.4,0-3.2c0-1.8,0-3.2,0-3.2s0,1.4,0,3.2C299.8,292,299.8,293.4,299.8,293.4z"/>
	<path class="st7" d="M306.6,293.4L306.6,293.4c0.2,0,0.3-0.1,0.4-0.2c0-0.1,0.1-0.1,0.1-0.2s0-0.2,0-0.3c0-0.2,0-0.4,0-0.7
		c0-1.1,0-2.6,0-4.5c0-0.1,0-0.1,0-0.2c0-0.2-0.2-0.3-0.3-0.4c-0.1,0-0.2,0-0.4,0h-2h-3.6h-8.1c-0.2,0-0.3,0.1-0.4,0.2
		c0,0.1-0.1,0.2-0.1,0.2v1.3c0,0.7,0,1.4,0,2.1v2c0,0.2,0.1,0.3,0.2,0.4c0.1,0,0.1,0.1,0.2,0.1c0.1,0,0.2,0,0.2,0h0.9h6.6h4.5h1.2
		h0.3L306.6,293.4c0,0,0,0-0.1,0h-0.3H305h-4.5h-6.6H293c-0.1,0-0.2,0-0.2,0c-0.1,0-0.2,0-0.2-0.1c-0.1-0.1-0.2-0.3-0.2-0.4
		c0-0.7,0-1.3,0-2v-3.4c0-0.3,0.2-0.5,0.6-0.5h8.1h3.6h1.3h0.6c0.1,0,0.1,0,0.2,0c0.2,0.1,0.3,0.2,0.4,0.4c0,0.1,0,0.1,0,0.2
		c0,1.9,0,3.4,0,4.5c0,0.3,0,0.5,0,0.7c0,0.1,0,0.2,0,0.3c0,0.1-0.1,0.1-0.1,0.2c-0.1,0.1-0.2,0.1-0.3,0.2
		C306.7,293.4,306.6,293.4,306.6,293.4z"/>
	<path class="st7" d="M303.1,288.4c0,0-0.6,0-1.4,0s-1.4,0-1.4,0s0.6,0,1.4,0S303.1,288.4,303.1,288.4z"/>
	<path class="st7" d="M305.7,289.3c0,0-1.2,0-2.7,0s-2.7,0-2.7,0s1.2,0,2.7,0C304.5,289.2,305.7,289.2,305.7,289.3z"/>
	<path class="st7" d="M305.7,289.8c0,0-1.2,0-2.7,0s-2.7,0-2.7,0s1.2,0,2.7,0C304.5,289.7,305.7,289.7,305.7,289.8z"/>
	<path class="st7" d="M305.2,292.2c0-0.1,0-0.1-0.1-0.2l-0.1-0.1c-0.1,0-0.2,0-0.2,0.1c0,0,0,0-0.1-0.1c0,0-0.1,0-0.2,0
		c-0.1,0-0.1,0-0.1,0.1l-0.1,0.1c0,0.1,0,0.1,0,0.2c0,0.1,0.1,0.1,0.2,0.2l0.2,0.2c0,0,0.1-0.1,0.2-0.1c0.1,0,0.1-0.1,0.2-0.2
		C305.2,292.3,305.2,292.3,305.2,292.2z"/>
	<path class="st5" d="M304.7,292.7L304.7,292.7c0,0-0.1-0.1-0.2-0.2c-0.1,0-0.1-0.1-0.2-0.2c0-0.1,0-0.1,0-0.2s0-0.1,0.1-0.2
		l0.1-0.1c0.1,0,0.1,0,0.2,0c0,0,0,0,0.1,0.1c0.1-0.1,0.1-0.1,0.2-0.1c0.1,0,0.1,0,0.1,0.1c0,0,0.1,0.1,0.1,0.2s0,0.2,0,0.2
		c0,0.1-0.1,0.1-0.2,0.2C304.8,292.6,304.7,292.7,304.7,292.7L304.7,292.7z M304.5,292L304.5,292c-0.1,0-0.2,0.1-0.2,0.2
		c0,0.1,0,0.1,0,0.2s0.1,0.1,0.2,0.2c0.1,0.1,0.2,0.1,0.2,0.1s0.1-0.1,0.2-0.1s0.1-0.1,0.2-0.1c0-0.1,0-0.1,0-0.2l0,0
		c0,0,0-0.1-0.1-0.1l-0.1-0.1c-0.1,0-0.2,0-0.2,0.1l0,0l0,0C304.7,292.2,304.7,292.2,304.5,292C304.6,292,304.6,292,304.5,292
		L304.5,292z"/>
	<path class="st5" d="M306.4,292.6h-0.2h-0.4l0,0l0,0v-0.1c0-0.2,0-0.4-0.1-0.5l0,0h-0.1l0,0l0,0h0.2c0,0.1,0,0.3,0.1,0.5
		c0,0,0,0,0,0.1l0,0H306.4L306.4,292.6L306.4,292.6L306.4,292.6z"/>
	<path class="st5" d="M306.2,292.6h-0.4l0,0v-0.1l-0.1-0.5h-0.1l0,0l0,0h0.1l0,0l0,0l0.1,0.5l0,0h0.6l0,0l0,0L306.2,292.6
		L306.2,292.6z"/>
	<path class="st5" d="M305.8,292.4h0.2h0.4l0,0c0-0.1,0-0.2,0-0.2v-0.1l0,0h-0.5h-0.2h0.2h0.5l0,0l0,0v0.1c0,0.1,0,0.2,0,0.2l0,0
		l0,0H306H305.8L305.8,292.4L305.8,292.4z"/>
	<path class="st5" d="M306.4,292.4L306.4,292.4h-0.6l0,0l0,0l0,0h0.2H306.4V292h-0.7l0,0l0,0h0.2h0.5l0,0l0,0v0.1
		C306.4,292.2,306.4,292.2,306.4,292.4L306.4,292.4L306.4,292.4L306.4,292.4z"/>
	<path class="st5" d="M305.9,292.7L305.9,292.7L305.9,292.7L305.9,292.7C305.8,292.7,305.8,292.7,305.9,292.7
		C305.8,292.7,305.8,292.8,305.9,292.7C305.9,292.8,305.9,292.8,305.9,292.7L305.9,292.7L305.9,292.7L305.9,292.7
		C305.9,292.7,305.9,292.8,305.9,292.7C305.9,292.8,305.9,292.8,305.9,292.7C305.8,292.7,305.8,292.7,305.9,292.7
		C305.8,292.7,305.9,292.7,305.9,292.7L305.9,292.7L305.9,292.7L305.9,292.7z"/>
	<path class="st5" d="M305.9,292.8L305.9,292.8C305.8,292.8,305.8,292.8,305.9,292.8C305.8,292.7,305.9,292.7,305.9,292.8
		L305.9,292.8C305.9,292.7,306,292.7,305.9,292.8L305.9,292.8L305.9,292.8C306,292.7,305.9,292.8,305.9,292.8L305.9,292.8z
		 M305.9,292.7L305.9,292.7C305.9,292.7,305.8,292.7,305.9,292.7C305.8,292.7,305.9,292.8,305.9,292.7
		C305.9,292.8,305.9,292.8,305.9,292.7L305.9,292.7L305.9,292.7L305.9,292.7L305.9,292.7L305.9,292.7L305.9,292.7L305.9,292.7z"/>
	<path class="st5" d="M306.3,292.7L306.3,292.7L306.3,292.7L306.3,292.7C306.2,292.7,306.2,292.7,306.3,292.7
		C306.2,292.7,306.2,292.8,306.3,292.7C306.3,292.8,306.3,292.8,306.3,292.7L306.3,292.7L306.3,292.7L306.3,292.7
		C306.3,292.7,306.3,292.8,306.3,292.7C306.3,292.8,306.2,292.8,306.3,292.7L306.3,292.7C306.2,292.7,306.2,292.7,306.3,292.7
		L306.3,292.7L306.3,292.7L306.3,292.7z"/>
	<path class="st5" d="M306.3,292.8L306.3,292.8C306.2,292.8,306.2,292.7,306.3,292.8C306.2,292.7,306.3,292.7,306.3,292.8
		c0-0.1,0-0.1,0.1-0.1C306.3,292.7,306.3,292.7,306.3,292.8L306.3,292.8L306.3,292.8C306.3,292.7,306.3,292.8,306.3,292.8
		L306.3,292.8z M306.3,292.7L306.3,292.7C306.2,292.7,306.2,292.7,306.3,292.7C306.2,292.7,306.2,292.8,306.3,292.7
		C306.3,292.8,306.3,292.8,306.3,292.7L306.3,292.7L306.3,292.7L306.3,292.7L306.3,292.7L306.3,292.7L306.3,292.7L306.3,292.7
		L306.3,292.7z"/>
	<path class="st5" d="M306.6,292c0,0.1-0.1,0.2-0.2,0.2c-0.1,0-0.2-0.1-0.2-0.2s0.1-0.2,0.2-0.2C306.5,291.8,306.6,291.9,306.6,292
		L306.6,292z"/>
	<path class="st3" d="M306.5,292.1L306.5,292.1L306.5,292.1C306.5,292.1,306.5,292,306.5,292.1c0-0.1,0-0.2,0-0.2
		S306.5,292,306.5,292.1C306.5,292,306.5,292.1,306.5,292.1L306.5,292.1L306.5,292.1z"/>
	<path class="st3" d="M306.6,292C306.5,292,306.5,292,306.6,292c-0.1,0-0.2,0-0.2,0S306.4,292,306.6,292
		C306.5,292,306.5,292,306.6,292z"/>
	<path class="st7" d="M303,292.4c0,0-0.6,0-1.2,0c-0.7,0-1.2,0-1.2,0s0.6,0,1.2,0C302.4,292.4,303,292.4,303,292.4z"/>
	<path class="st1" d="M292.7,294.4h13.9c0.3,0,0.5,0.2,0.5,0.5v5.4c0,0.3-0.2,0.5-0.5,0.5h-13.9c-0.3,0-0.5-0.2-0.5-0.5v-5.4
		C292.2,294.6,292.4,294.4,292.7,294.4z"/>
	<path class="st3" d="M292.7,294.4h7.1l0,0v6.4l0,0h-7.1c-0.3,0-0.5-0.2-0.5-0.5v-5.5C292.2,294.6,292.4,294.4,292.7,294.4z"/>
	<path class="st2" d="M299.8,300.9c0,0,0-1.4,0-3.2c0-1.8,0-3.2,0-3.2s0,1.4,0,3.2C299.8,299.5,299.8,300.9,299.8,300.9z"/>
	<path class="st2" d="M306.6,300.8L306.6,300.8c0.2,0,0.3-0.1,0.4-0.2c0-0.1,0.1-0.1,0.1-0.2c0-0.1,0-0.2,0-0.3c0-0.2,0-0.4,0-0.7
		c0-1.1,0-2.6,0-4.5c0-0.1,0-0.1,0-0.2c0-0.2-0.2-0.3-0.3-0.4c-0.1,0-0.2,0-0.4,0h-2h-3.6h-8.1c-0.2,0-0.3,0.1-0.4,0.2
		c0,0.1-0.1,0.2-0.1,0.2v1.3c0,0.7,0,1.4,0,2.1v2c0,0.2,0.2,0.4,0.4,0.5c0.1,0,0.2,0,0.2,0h0.9h6.6h4.5h1.2h0.3L306.6,300.8h-0.1
		h-0.3H305h-4.5h-6.6H293c-0.1,0-0.2,0-0.2,0c-0.3,0-0.5-0.3-0.5-0.5c0-0.7,0-1.3,0-2v-3.4c0-0.3,0.3-0.5,0.6-0.5h8.1h3.6h1.4h0.6
		c0.1,0,0.1,0,0.2,0c0.2,0.1,0.3,0.2,0.4,0.4c0,0.1,0,0.1,0,0.2c0,1.9,0,3.4,0,4.5c0,0.3,0,0.5,0,0.7c0,0.1,0,0.2,0,0.3
		s-0.1,0.1-0.1,0.2c-0.1,0.1-0.2,0.1-0.3,0.2C306.7,300.8,306.6,300.8,306.6,300.8z"/>
	<path class="st5" d="M303.1,295.9c0,0-0.6,0-1.4,0s-1.4,0-1.4,0s0.6,0,1.4,0S303.1,295.9,303.1,295.9z"/>
	<path class="st2" d="M305.7,296.7c0,0-1.2,0-2.7,0s-2.7,0-2.7,0s1.2,0,2.7,0S305.7,296.7,305.7,296.7z"/>
	<path class="st2" d="M305.7,297.2c0,0-1.2,0-2.7,0s-2.7,0-2.7,0s1.2,0,2.7,0S305.7,297.2,305.7,297.2z"/>
	<path class="st7" d="M305.2,299.7c0-0.1,0-0.1-0.1-0.2l-0.1-0.1c-0.1,0-0.1,0-0.2,0c0,0-0.1,0-0.1,0.1c0,0,0,0-0.1-0.1
		c0,0-0.1,0-0.2,0c-0.1,0-0.1,0-0.1,0.1l-0.1,0.1c0,0.1,0,0.1,0,0.2c0,0.1,0.1,0.1,0.2,0.2c0.1,0.1,0.2,0.2,0.2,0.2s0.1-0.1,0.2-0.1
		s0.1-0.1,0.2-0.1C305.2,299.8,305.2,299.7,305.2,299.7z"/>
	<path class="st5" d="M304.7,300.2L304.7,300.2c0,0-0.1-0.1-0.2-0.2c-0.1,0-0.1-0.1-0.2-0.2c0-0.1,0-0.1,0-0.2s0-0.1,0.1-0.2
		l0.1-0.1c0.1,0,0.1,0,0.2,0c0,0,0,0,0.1,0.1c0,0,0,0,0.1-0.1c0.1,0,0.1,0,0.2,0c0.1,0,0.1,0,0.1,0.1c0,0,0.1,0.1,0.1,0.2
		s0,0.2,0,0.2c0,0.1-0.1,0.1-0.2,0.2C304.8,300.1,304.7,300.2,304.7,300.2L304.7,300.2z M304.5,299.4L304.5,299.4
		c-0.1,0-0.1,0-0.2,0.1l-0.1,0.1c0,0.1,0,0.1,0,0.2c0,0.1,0.1,0.1,0.2,0.2c0.1,0.1,0.2,0.1,0.2,0.1s0.1-0.1,0.2-0.1
		c0.1,0,0.1-0.1,0.2-0.1c0-0.1,0-0.1,0-0.2l0,0c0,0,0-0.1-0.1-0.1l-0.1-0.1c0,0-0.1,0-0.2,0c0,0,0,0-0.1,0.1l0,0l0,0
		c0,0,0,0-0.1-0.1C304.6,299.4,304.6,299.4,304.5,299.4L304.5,299.4z"/>
	<path class="st5" d="M306.4,300h-0.2h-0.4l0,0l0,0v-0.1c0-0.2,0-0.4-0.1-0.5l0,0h-0.1h0.1l0,0l0.1,0.5c0,0,0,0,0,0.1l0,0h0.4H306.4
		L306.4,300L306.4,300z"/>
	<path class="st5" d="M306.2,300h-0.4l0,0l-0.1-0.6h-0.1l0,0l0,0h0.1l0,0l0,0l0.1,0.5l0,0h0.6l0,0l0,0h-0.2V300L306.2,300z"/>
	<path class="st5" d="M305.8,299.9h0.2h0.4l0,0c0-0.1,0-0.2,0-0.3v-0.1l0,0h-0.5h-0.2h0.2h0.5l0,0l0,0v0.1c0,0.1,0,0.2,0,0.3l0,0
		l0,0H306L305.8,299.9L305.8,299.9L305.8,299.9z"/>
	<path class="st5" d="M306.4,299.9L306.4,299.9h-0.6l0,0l0,0l0,0h0.2H306.4v-0.4h-0.7l0,0l0,0h0.2h0.5l0,0l0,0v0.1
		C306.4,299.7,306.4,299.7,306.4,299.9L306.4,299.9L306.4,299.9z"/>
	<path class="st5" d="M305.9,300.2L305.9,300.2C305.9,300.2,305.9,300.1,305.9,300.2C305.9,300.1,305.8,300.1,305.9,300.2
		L305.9,300.2C305.8,300.2,305.8,300.2,305.9,300.2L305.9,300.2L305.9,300.2L305.9,300.2L305.9,300.2L305.9,300.2
		C305.9,300.3,305.8,300.3,305.9,300.2L305.9,300.2C305.8,300.2,305.8,300.1,305.9,300.2C305.9,300.1,305.9,300.1,305.9,300.2
		C305.9,300.1,305.9,300.2,305.9,300.2L305.9,300.2z"/>
	<path class="st5" d="M305.9,300.2L305.9,300.2C305.8,300.2,305.8,300.2,305.9,300.2C305.8,300.1,305.9,300.1,305.9,300.2
		c0-0.1,0-0.1,0.1-0.1C305.9,300.1,306,300.1,305.9,300.2L305.9,300.2L305.9,300.2C306,300.2,305.9,300.2,305.9,300.2
		S305.9,300.3,305.9,300.2z M305.9,300.1L305.9,300.1C305.9,300.1,305.8,300.2,305.9,300.1C305.8,300.2,305.9,300.2,305.9,300.1
		C305.9,300.2,305.9,300.2,305.9,300.1C305.9,300.2,305.9,300.2,305.9,300.1L305.9,300.1L305.9,300.1L305.9,300.1L305.9,300.1
		C305.9,300.2,305.9,300.1,305.9,300.1L305.9,300.1L305.9,300.1z"/>
	<path class="st5" d="M306.3,300.2L306.3,300.2L306.3,300.2C306.3,300.1,306.3,300.1,306.3,300.2
		C306.2,300.2,306.2,300.2,306.3,300.2C306.2,300.2,306.2,300.2,306.3,300.2L306.3,300.2L306.3,300.2L306.3,300.2L306.3,300.2
		L306.3,300.2L306.3,300.2C306.2,300.2,306.2,300.2,306.3,300.2C306.2,300.2,306.2,300.1,306.3,300.2
		C306.3,300.1,306.3,300.1,306.3,300.2L306.3,300.2L306.3,300.2z"/>
	<path class="st5" d="M306.3,300.3L306.3,300.3C306.2,300.2,306.2,300.2,306.3,300.3C306.2,300.2,306.3,300.2,306.3,300.3
		c0-0.1,0-0.1,0.1-0.1C306.3,300.1,306.3,300.2,306.3,300.3L306.3,300.3L306.3,300.3C306.3,300.2,306.3,300.2,306.3,300.3
		C306.3,300.2,306.3,300.3,306.3,300.3z M306.3,300.1L306.3,300.1C306.2,300.2,306.2,300.2,306.3,300.1
		C306.2,300.2,306.2,300.2,306.3,300.1C306.3,300.2,306.3,300.2,306.3,300.1C306.3,300.2,306.3,300.2,306.3,300.1L306.3,300.1
		L306.3,300.1L306.3,300.1L306.3,300.1C306.3,300.2,306.3,300.2,306.3,300.1L306.3,300.1L306.3,300.1z"/>
	<path class="st5" d="M306.6,299.4c0,0.1-0.1,0.2-0.2,0.2c-0.1,0-0.2-0.1-0.2-0.2s0.1-0.2,0.2-0.2
		C306.5,299.3,306.6,299.4,306.6,299.4L306.6,299.4z"/>
	<path class="st3" d="M306.5,299.5L306.5,299.5L306.5,299.5L306.5,299.5c0-0.1,0-0.2,0-0.2C306.5,299.4,306.5,299.4,306.5,299.5
		L306.5,299.5L306.5,299.5L306.5,299.5z"/>
	<path class="st3" d="M306.6,299.5C306.5,299.5,306.5,299.5,306.6,299.5c-0.1,0-0.2,0-0.2,0C306.4,299.4,306.4,299.4,306.6,299.5
		C306.5,299.5,306.5,299.5,306.6,299.5z"/>
	<path class="st5" d="M303,299.9c-0.4,0-0.8,0-1.2,0c-0.4,0-0.8,0-1.2,0c0,0,0.6,0,1.2,0C302.4,299.8,303,299.8,303,299.9z"/>
	<path class="st1" d="M292.7,301.8h13.9c0.3,0,0.5,0.2,0.5,0.5v5.4c0,0.3-0.2,0.5-0.5,0.5h-13.9c-0.3,0-0.5-0.2-0.5-0.5v-5.4
		C292.2,302,292.4,301.8,292.7,301.8z"/>
	<path class="st3" d="M292.7,301.8h7.1l0,0v6.4l0,0h-7.1c-0.3,0-0.5-0.2-0.5-0.5v-5.5C292.2,302,292.4,301.8,292.7,301.8z"/>
	<path class="st2" d="M299.8,308.3c0,0,0-1.4,0-3.2s0-3.2,0-3.2s0,1.4,0,3.2C299.8,306.8,299.8,308.3,299.8,308.3z"/>
	<path class="st2" d="M306.6,308.2L306.6,308.2c0.3,0,0.4-0.2,0.5-0.4c0-0.1,0-0.2,0-0.3c0-0.2,0-0.4,0-0.7c0-1.1,0-2.6,0-4.5
		c0-0.1,0-0.1,0-0.2c0-0.2-0.2-0.3-0.3-0.4c-0.1,0-0.2,0-0.4,0h-2h-3.6h-8.1c-0.3,0-0.5,0.2-0.5,0.5v1.3c0,0.7,0,1.4,0,2.1v2
		c0,0.2,0.1,0.3,0.2,0.4c0.1,0,0.1,0.1,0.2,0.1c0.1,0,0.2,0,0.2,0h0.9h6.6h4.5h1.2h0.3L306.6,308.2h-0.1h-0.3H305h-4.5h-6.6H293
		c-0.1,0-0.2,0-0.2,0c-0.3,0-0.5-0.3-0.5-0.5c0-0.7,0-1.3,0-2v-3.4c0-0.3,0.3-0.5,0.6-0.5h8.1h3.6h2.2c0.1,0,0.1,0,0.2,0
		c0.2,0.1,0.3,0.2,0.4,0.4c0,0.1,0,0.1,0,0.2c0,1.9,0,3.4,0,4.5c0,0.3,0,0.5,0,0.7c0,0.1,0,0.2,0,0.3s-0.1,0.1-0.1,0.2
		c-0.1,0.1-0.2,0.1-0.3,0.2C306.7,308.2,306.6,308.2,306.6,308.2z"/>
	<path class="st5" d="M303.1,303.2c0,0-0.6,0-1.4,0s-1.4,0-1.4,0s0.6,0,1.4,0S303.1,303.2,303.1,303.2z"/>
	<path class="st2" d="M305.7,304.1c0,0-1.2,0-2.7,0s-2.7,0-2.7,0s1.2,0,2.7,0C304.5,304,305.7,304.1,305.7,304.1z"/>
	<path class="st2" d="M305.7,304.6c0,0-1.2,0-2.7,0s-2.7,0-2.7,0s1.2,0,2.7,0C304.5,304.5,305.7,304.6,305.7,304.6z"/>
	<path class="st7" d="M305.2,307c0-0.1,0-0.1-0.1-0.2l-0.1-0.1c-0.1,0-0.2,0-0.2,0.1c0,0,0,0-0.1-0.1c0,0-0.1,0-0.2,0
		c-0.1,0-0.1,0-0.1,0.1l-0.1,0.1c0,0.1,0,0.1,0,0.2s0.1,0.1,0.2,0.2l0.2,0.2c0,0,0.1-0.1,0.2-0.1c0.1,0,0.1-0.1,0.2-0.2
		C305.2,307.2,305.2,307.1,305.2,307z"/>
	<path class="st5" d="M304.7,307.5L304.7,307.5c0,0-0.1-0.1-0.2-0.2c-0.1,0-0.1-0.1-0.2-0.2c0-0.1,0-0.1,0-0.2c0-0.1,0-0.1,0.1-0.2
		l0.1-0.1c0.1,0,0.1,0,0.2,0c0,0,0,0,0.1,0.1c0,0,0,0,0.1-0.1c0,0,0.1,0,0.2,0c0.1,0,0.1,0,0.1,0.1c0,0,0.1,0.1,0.1,0.2
		c0,0.1,0,0.2,0,0.2c0,0.1-0.1,0.1-0.2,0.2C304.8,307.4,304.7,307.5,304.7,307.5L304.7,307.5z M304.5,306.8L304.5,306.8
		c-0.1,0-0.1,0-0.2,0.1l-0.1,0.1c0,0.1,0,0.1,0,0.2c0,0.1,0.1,0.1,0.2,0.2c0.1,0.1,0.2,0.1,0.2,0.1s0.1-0.1,0.2-0.1
		c0.1,0,0.1-0.1,0.2-0.1c0-0.1,0-0.1,0-0.2l0,0c0,0,0-0.1-0.1-0.1l-0.1-0.1c-0.1,0-0.2,0-0.2,0.1l0,0l0,0
		C304.6,307,304.6,307,304.5,306.8C304.6,306.8,304.6,306.8,304.5,306.8L304.5,306.8z"/>
	<path class="st5" d="M306.4,307.4h-0.2h-0.4l0,0l0,0v-0.1c0-0.2,0-0.4-0.1-0.5l0,0h-0.1h0.1l0,0c0,0.1,0,0.3,0.1,0.5c0,0,0,0,0,0.1
		l0,0h0.4H306.4L306.4,307.4L306.4,307.4z"/>
	<path class="st5" d="M306.2,307.4h-0.4l0,0l-0.1-0.6h-0.1l0,0l0,0h0.1l0,0l0,0l0.1,0.5l0,0h0.6l0,0l0,0L306.2,307.4L306.2,307.4z"
		/>
	<path class="st5" d="M305.8,307.2h0.2h0.4l0,0c0-0.1,0-0.2,0-0.2v-0.1l0,0h-0.5h-0.2h0.2h0.5l0,0l0,0v0.1c0,0.1,0,0.2,0,0.3l0,0
		l0,0H306L305.8,307.2L305.8,307.2L305.8,307.2z"/>
	<path class="st5" d="M306.4,307.3L306.4,307.3H306h-0.1l0,0l0,0l0,0l0,0h0.1H306.4v-0.4h-0.6h-0.1h-0.1l0,0l0,0h0.1h0.3h0.4l0,0
		l0,0v0.1L306.4,307.3L306.4,307.3z"/>
	<path class="st5" d="M305.9,307.5L305.9,307.5L305.9,307.5L305.9,307.5C305.8,307.5,305.8,307.5,305.9,307.5
		C305.8,307.6,305.8,307.6,305.9,307.5C305.9,307.6,305.9,307.6,305.9,307.5C305.9,307.6,305.9,307.6,305.9,307.5L305.9,307.5
		L305.9,307.5C305.9,307.6,305.9,307.6,305.9,307.5C305.9,307.6,305.9,307.6,305.9,307.5C305.8,307.5,305.8,307.5,305.9,307.5
		C305.8,307.5,305.8,307.5,305.9,307.5L305.9,307.5L305.9,307.5L305.9,307.5z"/>
	<path class="st5" d="M305.9,307.6L305.9,307.6C305.8,307.6,305.8,307.6,305.9,307.6c-0.1-0.1,0-0.1,0-0.1s0,0,0.1,0
		C305.9,307.5,306,307.5,305.9,307.6L305.9,307.6L305.9,307.6C306,307.6,305.9,307.6,305.9,307.6L305.9,307.6z M305.9,307.5
		L305.9,307.5C305.9,307.5,305.8,307.5,305.9,307.5C305.8,307.6,305.9,307.6,305.9,307.5C305.9,307.6,305.9,307.6,305.9,307.5
		C305.9,307.6,305.9,307.6,305.9,307.5L305.9,307.5L305.9,307.5L305.9,307.5L305.9,307.5L305.9,307.5L305.9,307.5z"/>
	<path class="st5" d="M306.3,307.5L306.3,307.5L306.3,307.5L306.3,307.5C306.2,307.5,306.2,307.5,306.3,307.5
		C306.2,307.5,306.2,307.6,306.3,307.5C306.3,307.6,306.3,307.6,306.3,307.5C306.3,307.6,306.3,307.6,306.3,307.5L306.3,307.5
		L306.3,307.5C306.3,307.6,306.3,307.6,306.3,307.5C306.3,307.6,306.3,307.6,306.3,307.5C306.2,307.5,306.2,307.5,306.3,307.5
		C306.2,307.5,306.2,307.5,306.3,307.5L306.3,307.5L306.3,307.5L306.3,307.5z"/>
	<path class="st5" d="M306.3,307.6L306.3,307.6C306.2,307.6,306.2,307.6,306.3,307.6c-0.1-0.1,0-0.1,0-0.1s0,0,0.1,0
		C306.3,307.5,306.3,307.5,306.3,307.6L306.3,307.6L306.3,307.6L306.3,307.6L306.3,307.6z M306.3,307.5L306.3,307.5
		C306.2,307.5,306.2,307.5,306.3,307.5C306.2,307.6,306.2,307.6,306.3,307.5C306.3,307.6,306.3,307.6,306.3,307.5
		C306.3,307.6,306.3,307.6,306.3,307.5L306.3,307.5L306.3,307.5L306.3,307.5L306.3,307.5L306.3,307.5L306.3,307.5L306.3,307.5z"/>
	<path class="st5" d="M306.6,306.8c0,0.1-0.1,0.2-0.2,0.2c-0.1,0-0.2-0.1-0.2-0.2c0-0.1,0.1-0.2,0.2-0.2
		C306.5,306.6,306.6,306.7,306.6,306.8z"/>
	<path class="st3" d="M306.5,306.9L306.5,306.9L306.5,306.9L306.5,306.9c0-0.1,0-0.2,0-0.2C306.5,306.8,306.5,306.8,306.5,306.9
		L306.5,306.9L306.5,306.9L306.5,306.9z"/>
	<path class="st3" d="M306.6,306.8C306.5,306.8,306.5,306.8,306.6,306.8c-0.1,0-0.2,0-0.2,0S306.5,306.8,306.6,306.8L306.6,306.8z"
		/>
	<path class="st5" d="M303,307.2c0,0-0.6,0-1.2,0c-0.7,0-1.2,0-1.2,0s0.6,0,1.2,0C302.4,307.2,303,307.2,303,307.2z"/>
	<path class="st1" d="M292.7,309.2h13.9c0.3,0,0.5,0.2,0.5,0.5v5.4c0,0.3-0.2,0.5-0.5,0.5h-13.9c-0.3,0-0.5-0.2-0.5-0.5v-5.4
		C292.2,309.4,292.4,309.2,292.7,309.2z"/>
	<path class="st3" d="M292.7,309.2h7.1l0,0v6.4l0,0h-7.1c-0.3,0-0.5-0.2-0.5-0.5v-5.5C292.2,309.4,292.4,309.2,292.7,309.2z"/>
	<path class="st2" d="M299.8,315.7c0,0,0-1.4,0-3.2s0-3.2,0-3.2s0,1.4,0,3.2S299.8,315.7,299.8,315.7z"/>
	<path class="st2" d="M306.6,315.6L306.6,315.6c0.2,0,0.3-0.1,0.4-0.2c0-0.1,0.1-0.1,0.1-0.2c0-0.1,0-0.2,0-0.3c0-0.2,0-0.4,0-0.7
		c0-1.1,0-2.6,0-4.5c0-0.1,0-0.1,0-0.2c0-0.1,0-0.1-0.1-0.2s-0.2-0.2-0.3-0.2c-0.1,0-0.2,0-0.4,0H306h-1.6h-3.6h-8.1
		c-0.2,0-0.3,0.1-0.4,0.2c0,0.1-0.1,0.2-0.1,0.2v1.5c0,0.7,0,1.4,0,2.1v2c0,0.2,0.1,0.3,0.2,0.4c0.1,0,0.1,0.1,0.2,0.1
		c0.1,0,0.2,0,0.2,0h0.9h6.6h4.5h1.2h0.3L306.6,315.6l-0.1,0h-0.3H305h-4.5h-6.6H293c-0.1,0-0.2,0-0.2,0c-0.3,0-0.5-0.3-0.5-0.5
		c0-0.7,0-1.3,0-2v-3.4c0-0.3,0.3-0.5,0.6-0.5h8.1h3.6h1.4h0.6c0.2,0,0.4,0.1,0.5,0.3c0,0.1,0.1,0.1,0.1,0.2c0,0.1,0,0.1,0,0.2
		c0,1.9,0,3.4,0,4.5c0,0.3,0,0.5,0,0.7c0,0.1,0,0.2,0,0.3s-0.1,0.1-0.1,0.2c-0.1,0.1-0.2,0.1-0.3,0.2
		C306.7,315.6,306.6,315.6,306.6,315.6z"/>
	<path class="st5" d="M303.1,310.6c0,0-0.6,0-1.4,0s-1.4,0-1.4,0s0.6,0,1.4,0S303.1,310.6,303.1,310.6z"/>
	<path class="st2" d="M305.7,311.5c0,0-1.2,0-2.7,0s-2.7,0-2.7,0s1.2,0,2.7,0C304.5,311.4,305.7,311.5,305.7,311.5z"/>
	<path class="st2" d="M305.7,312c0,0-1.2,0-2.7,0s-2.7,0-2.7,0s1.2,0,2.7,0C304.5,311.9,305.7,312,305.7,312z"/>
	<path class="st7" d="M305.2,314.4c0-0.1,0-0.1-0.1-0.2l-0.1-0.1c-0.1,0-0.1,0-0.2,0c0,0-0.1,0-0.1,0.1c0,0,0,0-0.1-0.1
		c0,0-0.1,0-0.2,0c-0.1,0-0.1,0-0.1,0.1l-0.1,0.1c0,0.1,0,0.1,0,0.2s0.1,0.1,0.2,0.2c0.1,0.1,0.2,0.2,0.2,0.2s0.1-0.1,0.2-0.1
		s0.1-0.1,0.2-0.1C305.2,314.6,305.2,314.5,305.2,314.4z"/>
	<path class="st5" d="M304.7,314.9L304.7,314.9c0,0-0.1-0.1-0.2-0.2c-0.1,0-0.1-0.1-0.2-0.2c0-0.1,0-0.1,0-0.2c0-0.1,0-0.1,0.1-0.2
		l0.1-0.1c0.1,0,0.2,0,0.2,0.1c0-0.1,0.1-0.1,0.2-0.1c0.1,0,0.1,0,0.1,0.1c0,0,0.1,0.1,0.1,0.2l0,0c0,0.1,0,0.2,0,0.2
		c0,0.1-0.1,0.1-0.2,0.2C304.8,314.9,304.7,314.9,304.7,314.9L304.7,314.9z M304.5,314.2L304.5,314.2c-0.1,0-0.1,0-0.2,0.1l-0.1,0.1
		c0,0.1,0,0.1,0,0.2s0.1,0.1,0.2,0.2c0.1,0.1,0.2,0.1,0.2,0.1s0.1-0.1,0.2-0.1c0.1,0,0.1-0.1,0.2-0.1c0-0.1,0-0.1,0-0.2l0,0
		c0-0.1-0.1-0.2-0.2-0.2C304.8,314.3,304.7,314.3,304.5,314.2c0.1,0.1,0.1,0.1,0,0.2l0,0l0,0c0,0,0,0-0.1-0.1
		C304.6,314.2,304.6,314.2,304.5,314.2L304.5,314.2z"/>
	<path class="st5" d="M306.4,314.8h-0.2h-0.4l0,0l0,0v-0.1c0-0.2,0-0.4-0.1-0.5l0,0h-0.1h0.1l0,0l0.1,0.5c0,0,0,0,0,0.1l0,0h0.4
		H306.4L306.4,314.8L306.4,314.8z"/>
	<path class="st5" d="M306.2,314.8h-0.4l0,0l-0.1-0.6h-0.1l0,0l0,0l0,0h0.1l0,0l0,0l0.1,0.5l0,0h0.6l0,0l0,0L306.2,314.8
		L306.2,314.8L306.2,314.8z"/>
	<path class="st5" d="M305.8,314.7h0.2h0.4l0,0c0-0.1,0-0.2,0-0.2v-0.1l0,0h-0.5h-0.2h0.2h0.5l0,0l0,0v0.1c0,0.1,0,0.2,0,0.2l0,0
		l0,0H306H305.8L305.8,314.7L305.8,314.7z"/>
	<path class="st5" d="M306.4,314.7L306.4,314.7h-0.6l0,0l0,0l0,0h0.2H306.4v-0.4h-0.7l0,0l0,0l0,0h0.2h0.5l0,0l0,0v0.1
		C306.4,314.5,306.4,314.5,306.4,314.7L306.4,314.7L306.4,314.7z"/>
	<path class="st5" d="M305.9,314.9L305.9,314.9L305.9,314.9C305.9,314.8,305.8,314.8,305.9,314.9L305.9,314.9
		C305.8,315,305.8,315,305.9,314.9C305.9,315,305.9,315,305.9,314.9L305.9,314.9C305.9,315,305.9,314.9,305.9,314.9L305.9,314.9
		C305.9,315,305.9,315,305.9,314.9C305.9,315,305.9,315,305.9,314.9C305.8,314.9,305.8,314.9,305.9,314.9
		C305.8,314.9,305.8,314.9,305.9,314.9L305.9,314.9L305.9,314.9L305.9,314.9z"/>
	<path class="st5" d="M305.9,315L305.9,315C305.8,315,305.8,315,305.9,315c-0.1-0.1,0-0.1,0-0.1l0,0
		C305.9,314.9,306,314.9,305.9,315L305.9,315L305.9,315C306,315,305.9,315,305.9,315L305.9,315z M305.9,314.9L305.9,314.9
		C305.9,314.9,305.8,314.9,305.9,314.9C305.8,315,305.9,315,305.9,314.9C305.9,315,305.9,315,305.9,314.9
		C305.9,315,305.9,315,305.9,314.9L305.9,314.9L305.9,314.9L305.9,314.9L305.9,314.9L305.9,314.9L305.9,314.9L305.9,314.9z"/>
	<path class="st5" d="M306.3,315L306.3,315C306.3,314.9,306.3,314.9,306.3,315C306.3,314.9,306.3,314.9,306.3,315
		C306.2,315,306.2,315,306.3,315C306.2,315,306.2,315,306.3,315L306.3,315L306.3,315L306.3,315L306.3,315L306.3,315L306.3,315
		C306.2,315,306.2,315,306.3,315C306.2,315,306.2,314.9,306.3,315C306.3,314.9,306.3,314.9,306.3,315
		C306.3,314.9,306.3,314.9,306.3,315C306.3,314.9,306.3,314.9,306.3,315z"/>
	<path class="st5" d="M306.3,315L306.3,315C306.2,315,306.2,315,306.3,315c-0.1-0.1,0-0.1,0-0.1s0,0,0.1,0
		C306.3,314.9,306.3,314.9,306.3,315L306.3,315L306.3,315L306.3,315L306.3,315z M306.3,314.9L306.3,314.9
		C306.2,314.9,306.2,314.9,306.3,314.9C306.2,315,306.2,315,306.3,314.9C306.3,315,306.3,315,306.3,314.9L306.3,314.9L306.3,314.9
		L306.3,314.9L306.3,314.9L306.3,314.9L306.3,314.9L306.3,314.9L306.3,314.9z"/>
	<path class="st5" d="M306.6,314.2c0,0.1-0.1,0.2-0.2,0.2c-0.1,0-0.2-0.1-0.2-0.2c0-0.1,0.1-0.2,0.2-0.2
		C306.5,314,306.6,314.1,306.6,314.2L306.6,314.2z"/>
	<path class="st3" d="M306.5,314.3L306.5,314.3L306.5,314.3L306.5,314.3c0-0.1,0-0.2,0-0.2C306.5,314.2,306.5,314.2,306.5,314.3
		L306.5,314.3L306.5,314.3L306.5,314.3z"/>
	<path class="st3" d="M306.6,314.2C306.5,314.2,306.5,314.2,306.6,314.2c-0.1,0-0.2,0-0.2,0S306.4,314.2,306.6,314.2
		C306.5,314.2,306.5,314.2,306.6,314.2z"/>
	<path class="st5" d="M303,314.6c-0.4,0-0.8,0-1.2,0c-0.4,0-0.8,0-1.2,0c0,0,0.6,0,1.2,0C302.4,314.6,303,314.6,303,314.6z"/>
	<path class="st5" d="M294.1,296c0,0-0.9,2.2-0.9,3.4l2.4,0.7l0.4-0.8l0.4,0.8c0,0,1.9-0.5,2.4-0.9c0,0-0.5-2.6-0.9-3.2
		c0,0,0.2-0.5,0.1-0.5c-0.2,0-0.5,0-0.7,0c-0.2,0-0.3,0-0.6,0c-0.3,0-0.3,0.3-0.6,0.2c-0.3-0.1-0.3-0.2-0.7-0.2
		c-0.4-0.1-0.6,0.2-0.8,0.1c-0.2,0-0.3-0.1-0.5-0.1c-0.1,0-0.3,0.1-0.3,0.2v0.1l0,0C294,295.8,294.1,295.9,294.1,296z"/>
	<path class="st5" d="M297.5,295.5c0,0.1,0,0.2,0,0.3c0,0.1-0.1,0.2-0.2,0.2c0.1-0.1,0.1-0.2,0.1-0.2
		C297.4,295.7,297.5,295.6,297.5,295.5z"/>
	<path class="st4" d="M296.1,297.2C296.1,297.2,296.1,297.1,296.1,297.2l-0.2-0.2l-0.4-0.4l0,0l-0.5,0.6l0,0l0,0l0.5,0.6l0,0
		l0.4-0.4C296,297.3,296,297.2,296.1,297.2L296.1,297.2L296.1,297.2l-0.1,0.1l-0.3,0.5l0,0l0,0l-0.5-0.6l0,0l0,0l0,0l0.5-0.6l0,0
		l0,0l0.3,0.4L296.1,297.2C296.1,297.1,296.1,297.2,296.1,297.2z"/>
	<path class="st4" d="M297.9,296.8L297.9,296.8l-0.1-0.2l-0.4-0.4l0,0l-0.5,0.6l0,0l0,0l0.5,0.6l0,0l0.4-0.4L297.9,296.8
		L297.9,296.8L297.9,296.8l-0.1,0.2l-0.3,0.5l0,0l0,0l-0.5-0.6l0,0l0,0l0,0l0.5-0.6l0,0l0,0l0.3,0.4L297.9,296.8L297.9,296.8z"/>
	<path class="st4" d="M296.6,295.5c0.1,0.1,0.2,0.2,0.3,0.4l0,0l0,0l0,0l0,0l0,0l0,0l0.1-0.1l0.1-0.1l0.1-0.1c0,0,0,0.1-0.1,0.1H297
		c0,0,0,0,0,0.1l0,0l0,0l0,0l0,0l0,0l0,0C296.7,295.8,296.6,295.6,296.6,295.5z"/>
	<path class="st4" d="M294.8,296l-0.1-0.1c-0.1-0.1-0.1-0.2-0.2-0.3l0,0l0,0c-0.1,0.1-0.1,0.2-0.2,0.3c0,0,0,0.1-0.1,0.1
		c0,0,0-0.1,0.1-0.1c0-0.1,0.1-0.2,0.2-0.3l0,0l0,0l0,0c0.1,0.1,0.2,0.2,0.2,0.3C294.8,295.9,294.8,296,294.8,296z"/>
	<path class="st4" d="M297.3,298.7L297.3,298.7l-0.1-0.2l-0.3-0.4l0,0c-0.1,0.2-0.3,0.4-0.5,0.6l0,0l0,0l0.5,0.6l0,0
		c0.1-0.2,0.3-0.3,0.4-0.4V298.7L297.3,298.7L297.3,298.7l-0.1,0.2l-0.3,0.5l0,0l0,0c-0.1-0.2-0.3-0.4-0.5-0.6l0,0l0,0l0,0
		c0.2-0.2,0.3-0.4,0.5-0.6l0,0l0,0l0.3,0.4L297.3,298.7L297.3,298.7z"/>
	<path class="st4" d="M295.2,299.2L295.2,299.2L295,299l-0.4-0.4l0,0l-0.5,0.6l0,0l0,0l0.5,0.6l0,0l0.4-0.4L295.2,299.2L295.2,299.2
		L295.2,299.2l-0.1,0.2l-0.3,0.5l0,0l0,0l-0.5-0.6l0,0l0,0l0,0l0.5-0.6l0,0l0,0L295.2,299.2L295.2,299.2L295.2,299.2z"/>
	<path class="st4" d="M293.4,298.1C293.4,298.1,293.5,298.1,293.4,298.1l0.2-0.2c0.1-0.1,0.3-0.2,0.5-0.4h0.1l0,0
		c-0.1-0.2-0.2-0.4-0.2-0.5c0-0.1-0.1-0.1-0.1-0.2c0,0.1,0.1,0.1,0.1,0.2c0.1,0.1,0.2,0.3,0.3,0.5l0,0l0,0h-0.1
		c-0.2,0.1-0.4,0.3-0.5,0.4C293.6,298,293.5,298.1,293.4,298.1C293.5,298.1,293.4,298.1,293.4,298.1z"/>
	<path class="st4" d="M298.8,298.6C298.7,298.6,298.7,298.6,298.8,298.6c-0.1-0.1-0.1-0.1-0.2-0.2c-0.1-0.1-0.3-0.3-0.4-0.4l0,0l0,0
		l0,0c0.1-0.2,0.1-0.4,0.2-0.6c0-0.1,0-0.1,0.1-0.2c0,0,0,0,0-0.1c0,0,0,0,0,0.1c0,0,0,0.1-0.1,0.2c0,0.1-0.1,0.3-0.2,0.6l0,0l0,0
		c0.2,0.2,0.3,0.3,0.4,0.4C298.6,298.5,298.7,298.5,298.8,298.6C298.7,298.6,298.8,298.6,298.8,298.6z"/>
	<path class="st5" d="M298,296L298,296c-0.1,0-0.1,0-0.1,0c-0.1,0-0.3,0-0.4,0c-0.2,0-0.4,0-0.6-0.1c-0.2,0-0.5-0.1-0.7-0.1
		c-0.3,0-0.5,0-0.7,0s-0.4,0-0.6,0c-0.1,0-0.3,0-0.4,0h-0.1l0,0l0,0h0.1c0.1,0,0.3,0,0.4,0c0.2,0,0.4,0,0.6,0s0.5,0,0.8-0.1
		c0.2,0,0.5,0,0.8,0.1c0.2,0,0.4,0.1,0.6,0.1c0.1,0,0.3,0,0.4,0C298,296,298,296,298,296z"/>
	<path class="st5" d="M294.4,297.8C294.4,297.8,294.4,297.7,294.4,297.8c0-0.1,0-0.2,0-0.3c0-0.2,0.1-0.4,0.1-0.6
		c0-0.2,0.1-0.5,0.2-0.6c0-0.1,0-0.1,0.1-0.2c0,0,0,0,0-0.1c0,0,0,0,0,0.1c0,0,0,0.1,0,0.2c0,0.2-0.1,0.4-0.2,0.6
		c0,0.2-0.1,0.5-0.1,0.6S294.5,297.7,294.4,297.8C294.5,297.7,294.4,297.8,294.4,297.8z"/>
	<path class="st5" d="M294.8,297.1c0-0.2,0-0.4,0.1-0.5c0-0.2,0.1-0.4,0.1-0.5c0,0.2,0,0.4-0.1,0.5
		C294.9,296.8,294.8,296.9,294.8,297.1z"/>
	<path class="st6" d="M297.7,298.7L297.7,298.7c-0.1-0.2-0.1-0.3-0.2-0.4c-0.2-0.6-0.4-1.3-0.4-1.9c0-0.1,0-0.2,0-0.3V296v0.1
		c0,0.1,0,0.2,0,0.3c0,0.3,0.1,0.7,0.1,1c0.1,0.3,0.2,0.6,0.2,1c0,0.1,0.1,0.2,0.1,0.3C297.7,298.7,297.7,298.7,297.7,298.7z"/>
	<path class="st6" d="M297.6,297c0,0,0-0.1-0.1-0.1c0-0.1-0.1-0.2-0.1-0.3c0-0.1-0.1-0.3-0.1-0.3v-0.1v0.1c0,0.1,0.1,0.2,0.1,0.3
		c0,0.1,0.1,0.2,0.1,0.3C297.6,296.9,297.6,297,297.6,297z"/>
	<path class="st6" d="M295.8,299.9L295.8,299.9L295.8,299.9c-0.2,0-0.3,0-0.4-0.1c-0.3-0.1-0.6-0.2-0.9-0.4s-0.6-0.3-0.9-0.3
		c-0.1,0-0.2,0-0.3,0c-0.1,0-0.1,0-0.1,0l0,0c0,0,0,0,0.1,0c0.1,0,0.2,0,0.3,0c0.3,0.1,0.6,0.2,0.9,0.3c0.3,0.2,0.7,0.3,0.9,0.4
		C295.6,299.8,295.7,299.8,295.8,299.9L295.8,299.9z"/>
	<path class="st6" d="M298.8,298.9L298.8,298.9c-0.1,0.1-0.2,0.1-0.3,0.2c-0.3,0.2-0.6,0.3-0.8,0.4c-0.3,0.1-0.6,0.2-0.9,0.3
		c-0.1,0-0.2,0.1-0.3,0.1h-0.1h0.1c0.1,0,0.2,0,0.3-0.1c0.2-0.1,0.5-0.2,0.9-0.3c0.4-0.1,0.6-0.3,0.8-0.4l0.2-0.1
		C298.8,298.9,298.8,298.9,298.8,298.9z"/>
	<path class="st5" d="M297.7,295.7c0,0.1,0,0.1-0.1,0.2c0,0.1-0.1,0.1-0.2,0.1l0.1-0.1C297.6,295.8,297.7,295.7,297.7,295.7z"/>
	<path class="st5" d="M295,295.5c0,0,0,0.1,0.1,0.2c0.1,0.1,0.1,0.2,0.1,0.2c-0.1,0-0.1-0.1-0.1-0.2C295,295.7,295,295.6,295,295.5z
		"/>
	<path class="st5" d="M294.8,311.8h3.1c0.2,0,0.3,0.1,0.3,0.3v1.9c0,0.2-0.1,0.3-0.3,0.3h-3.1c-0.2,0-0.3-0.1-0.3-0.3v-1.9
		C294.6,311.9,294.7,311.8,294.8,311.8z"/>
	<path class="st5" d="M297.2,312.3C297.2,312.2,297.2,312.2,297.2,312.3v-0.2c0-0.2,0-0.3,0-0.5s-0.1-0.5-0.3-0.7
		c-0.1-0.1-0.2-0.2-0.4-0.2s-0.3,0-0.5,0c-0.3,0-0.6,0.1-0.8,0.2c-0.1,0.1-0.2,0.2-0.2,0.3s-0.1,0.2-0.1,0.3c0,0.2,0,0.3,0,0.5
		c0,0.1,0,0.1,0,0.1l0,0l0,0V312c0-0.2,0-0.3,0-0.5c0-0.1,0-0.2,0.1-0.3c0-0.1,0.1-0.2,0.2-0.3c0.1-0.1,0.2-0.2,0.4-0.2
		c0.2,0,0.3-0.1,0.5-0.1c0.2,0,0.3,0,0.5,0c0.1,0,0.3,0.1,0.4,0.2c0.2,0.2,0.3,0.4,0.3,0.7c0,0.2,0,0.3,0,0.5
		C297.2,312.1,297.2,312.2,297.2,312.3C297.2,312.2,297.2,312.2,297.2,312.3z"/>
	<path class="st6" d="M294.4,311.8h3.1c0.2,0,0.3,0.1,0.3,0.3v1.9c0,0.2-0.1,0.3-0.3,0.3h-3.1c-0.2,0-0.3-0.1-0.3-0.3v-1.9
		C294.1,311.9,294.2,311.8,294.4,311.8z"/>
	<path class="st5" d="M297.5,314.2h0.1c0,0,0.1,0,0.1-0.1c0,0,0.1-0.1,0.1-0.2c0-0.3,0-0.7,0-1.3c0-0.1,0-0.3,0-0.4
		c0-0.1,0-0.1,0-0.2s0-0.1-0.1-0.2c-0.1-0.1-0.1-0.1-0.2-0.1h-0.2h-0.5h-2.3c-0.1,0-0.2,0-0.2,0.1v0.1v0.7c0,0.4,0,0.7,0,1.1v0.1
		c0,0,0,0.1,0.1,0.1c0.1,0.1,0.1,0.1,0.2,0.1h1.3h1.1h0.3L297.5,314.2L297.5,314.2L297.5,314.2h-0.1H297h-1.3h-0.9h-0.5
		c-0.1,0-0.3-0.1-0.3-0.2v-0.1c0-0.4,0-0.7,0-1.1c0-0.2,0-0.4,0-0.6c0,0,0-0.1,0-0.2c0-0.1,0-0.1,0-0.2c0.1-0.1,0.2-0.2,0.3-0.2h3
		c0.1,0,0.2,0,0.2,0.1c0.1,0,0.1,0.1,0.1,0.2s0,0.2,0,0.2v0.4c0,0.5,0,1,0,1.3c0,0.1,0,0.1-0.1,0.2l-0.1,0.1
		C297.6,314.2,297.5,314.2,297.5,314.2z"/>
	<path class="st5" d="M297.7,313c0,0-0.8,0-1.8,0s-1.8,0-1.8,0s0.8,0,1.8,0S297.7,313,297.7,313z"/>
	<path class="st2" d="M295.9,313.3c0-0.2,0-0.4,0-0.6C296,312.9,296,313.2,295.9,313.3z"/>
	<path class="st7" d="M293.2,305.8c0,0,0.9-2.5,1.1-2.7s1.2-0.4,1.2-0.4l0.7,2.3l0.8-2.4c0,0,0.9,0.3,1.1,0.7
		c0.2,0.4,0.9,2.5,0.9,2.5l-1.4,0.5l0.2,0.8h-3.5l0.2-0.7L293.2,305.8z"/>
	<g class="st9">
		<path d="M295.1,304.2c-0.2-0.4-0.4-0.9-0.4-1.3l-0.3,0.1c0,0.5,0.2,0.9,0.4,1.3c0,0.1,0.1,0.1,0.1,0.2s0.1,0,0.2,0
			C295.2,304.4,295.1,304.3,295.1,304.2z"/>
	</g>
	<g class="st9">
		<path d="M295.5,305.6l-0.1-0.1l0,0c-0.1,0-0.2,0.1-0.2,0.2c0,0.1,0.1,0.2,0.2,0.2c0,0,0,0,0.1,0c0,0,0.1,0,0.1-0.1v-0.1
			C295.6,305.7,295.6,305.7,295.5,305.6z"/>
	</g>
	<g class="st9">
		<path d="M297.7,306.5c-0.1,0.2-0.3,0.3-0.5,0.4c-0.2,0.1-0.4,0.1-0.6,0c-0.1,0-0.2-0.1-0.2-0.1c-0.1,0-0.1,0.1-0.2,0
			c0,0-0.1,0-0.1-0.1s0-0.2,0.1-0.2c0.1,0,0.2,0,0.2,0c0.1,0,0.2,0,0.2,0c0.3,0,0.7-0.2,0.9-0.5l0.2-0.2l-0.1,0.5L297.7,306.5z"/>
	</g>
	<path class="st5" d="M297.9,305.1c0,0.2-0.1,0.4-0.1,0.6s-0.1,0.4-0.1,0.6c0-0.2,0.1-0.4,0.1-0.6S297.9,305.3,297.9,305.1z"/>
	<path class="st3" d="M297.9,303C297.9,303.1,297.9,303.1,297.9,303c0,0.1,0,0.2-0.1,0.2c-0.1,0.2-0.2,0.3-0.4,0.4
		c-0.2,0.1-0.4,0.1-0.5,0.1s-0.1,0-0.2,0c0,0,0,0-0.1,0c0,0,0.1,0,0.2,0c0.2,0,0.4,0,0.5-0.1c0.2-0.1,0.3-0.2,0.4-0.4
		C297.9,303.1,297.9,303,297.9,303z"/>
	<path class="st3" d="M298.1,303.3L298.1,303.3c-0.1,0.1-0.1,0.2-0.1,0.2c-0.3,0.4-0.7,0.5-1.2,0.5c-0.1,0-0.1,0-0.2,0
		c0,0,0,0-0.1,0c0,0,0.1,0,0.3,0.1c0.4,0.1,0.9-0.1,1.2-0.4C298.1,303.4,298.1,303.4,298.1,303.3z"/>
	<path class="st3" d="M296.1,304.7C296,304.7,296,304.8,296.1,304.7c-0.1,0-0.2,0.1-0.3,0.1c-0.2,0.1-0.4,0.2-0.6,0.3
		s-0.4,0.3-0.5,0.5c-0.1,0.1-0.1,0.1-0.1,0.2c0,0,0,0-0.1,0.1c0,0,0,0,0-0.1c0,0,0.1-0.1,0.1-0.2c0.2-0.2,0.3-0.3,0.5-0.5
		c0.2-0.1,0.4-0.2,0.6-0.3C295.9,304.8,295.9,304.8,296.1,304.7C296,304.7,296,304.7,296.1,304.7z"/>
	<path class="st3" d="M296,304.5L296,304.5c-0.1,0-0.2,0.1-0.3,0.1c-0.2,0.1-0.4,0.2-0.6,0.3c-0.2,0.1-0.4,0.2-0.6,0.3
		c-0.1,0-0.1,0.1-0.2,0.1c0,0,0,0-0.1,0c0,0,0,0,0.1,0c0,0,0.1-0.1,0.2-0.1c0.2-0.1,0.4-0.2,0.6-0.3c0.2-0.1,0.4-0.2,0.7-0.2
		C295.8,304.5,295.9,304.5,296,304.5L296,304.5z"/>
	<path class="st3" d="M298.6,305.9c-0.1-0.1-0.2-0.2-0.3-0.2c-0.1-0.1-0.2-0.1-0.4-0.2h0.1c0.1,0,0.2,0.1,0.3,0.1
		C298.4,305.6,298.4,305.8,298.6,305.9C298.5,305.9,298.5,305.9,298.6,305.9z"/>
	<path class="st3" d="M293.7,305.9c-0.1-0.1-0.1-0.2-0.2-0.4c0-0.1-0.1-0.3-0.1-0.4c0,0,0.1,0.2,0.1,0.4
		C293.6,305.7,293.7,305.9,293.7,305.9z"/>
	<path class="st3" d="M295.2,307.1c-0.1,0-0.2-0.1-0.4-0.2c-0.1-0.1-0.2-0.1-0.3-0.2c0,0,0.2,0.1,0.4,0.2
		C295,307,295.2,307.1,295.2,307.1z"/>
	<path class="st5" d="M296.1,305.5v-0.1c0-0.1-0.1-0.2-0.1-0.3c-0.1-0.2-0.2-0.6-0.3-1c-0.1-0.4-0.2-0.7-0.3-1
		c0-0.1-0.1-0.2-0.1-0.3v-0.1v0.1c0,0.1,0.1,0.2,0.1,0.3c0.1,0.2,0.2,0.6,0.3,1c0.1,0.4,0.2,0.7,0.3,1c0,0.1,0.1,0.2,0.1,0.3
		C296.1,305.4,296.1,305.4,296.1,305.5z"/>
	<path class="st5" d="M296.4,305.5c0,0-0.1,0-0.2,0c0,0-0.1,0-0.2,0C296.2,305.5,296.3,305.5,296.4,305.5L296.4,305.5z"/>
	<path class="st5" d="M297.2,302.7c0,0-0.2,0.6-0.4,1.4c-0.2,0.8-0.4,1.4-0.5,1.4c-0.1,0,0.2-0.6,0.4-1.4
		C297,303.3,297.2,302.7,297.2,302.7z"/>
	<path class="st5" d="M294.5,306.4c0,0-0.1-0.3-0.2-0.7c-0.1-0.2-0.1-0.5-0.1-0.7c0,0,0.1,0.3,0.2,0.7
		C294.5,306.1,294.6,306.4,294.5,306.4z"/>
	<path d="M298.6,284.6l-0.2,0.7h-0.2l-0.2-0.5l-0.2,0.5h-0.2l-0.2-0.7h0.2l0.2,0.5l0.2-0.5h0.2l0.2,0.5L298.6,284.6L298.6,284.6z"/>
	<path d="M298.7,284.6h0.2v0.7h-0.2V284.6z"/>
	<path d="M298.9,285.2l0.1-0.1c0.1,0,0.2,0.1,0.2,0.1c0.1,0,0.1,0,0.1-0.1c0-0.1-0.4,0-0.4-0.3c0-0.1,0.1-0.2,0.3-0.2
		c0.1,0,0.2,0,0.2,0.1v0.1c-0.1,0-0.1-0.1-0.2-0.1c-0.1,0-0.1,0-0.1,0.1c0,0.1,0.4,0,0.4,0.3c0,0.1-0.1,0.2-0.3,0.2
		C299.1,285.3,299,285.3,298.9,285.2z"/>
	<path d="M300.3,284.6v0.7h-0.2V285h-0.3v0.3h-0.2v-0.7h0.2v0.3h0.3v-0.3H300.3z"/>
	<path d="M300.6,284.6L300.6,284.6v0.7h0.4v0.1h-0.5L300.6,284.6z"/>
	<path d="M301.2,284.6L301.2,284.6l-0.1,0.7H301L301.2,284.6z"/>
	<path d="M301.3,285.2L301.3,285.2c0.1,0,0.2,0,0.3,0s0.2,0,0.2-0.1c0-0.2-0.4-0.1-0.4-0.3c0-0.1,0.1-0.2,0.3-0.2
		c0.1,0,0.2,0,0.2,0.1v0.1c-0.1,0-0.1-0.1-0.2-0.1c-0.1,0-0.2,0.1-0.2,0.1c0,0.2,0.4,0.1,0.4,0.3c0,0.1-0.1,0.2-0.3,0.2
		C301.5,285.3,301.4,285.3,301.3,285.2z"/>
	<path d="M302.3,284.6H302v-0.1h0.6v0.1H302.3v0.7h-0.1L302.3,284.6z"/>
	<path class="st5" d="M307,284.4c0,0-0.3,0-0.8,0c-0.4,0-0.8,0-0.8,0s0.3,0,0.8,0S307,284.4,307,284.4z"/>
	<path class="st5" d="M307,284.8c0,0-0.3,0-0.8,0s-0.8,0-0.8,0s0.3,0,0.8,0S307,284.8,307,284.8z"/>
	<path class="st5" d="M307,285.2c0,0-0.3,0-0.8,0c-0.3,0-0.5,0-0.8,0c0,0,0.3,0,0.8,0C306.5,285.2,306.8,285.2,307,285.2z"/>
</g>
<g id="freepik--Character--inject-25">
	<polygon class="st7" points="295.4,318.7 294.9,322.7 292.8,322.5 293.3,318.5 	"/>
	<path class="st5" d="M293.9,322.4c0,0,0.1-0.9,0.2-1.9c0.2-1.1,0.3-1.9,0.3-1.9s-0.1,0.9-0.2,1.9
		C294.1,321.5,293.9,322.4,293.9,322.4z"/>
	<polygon class="st5" points="294.9,322.4 292.8,322.2 292.8,322.5 294.9,322.7 	"/>
	<path class="st5" d="M292.9,321.2C292.9,321.2,293,321.1,292.9,321.2c0.1-0.2,0.2-0.2,0.3-0.3c0.1-0.1,0.2-0.1,0.4-0.2
		c0.5-0.2,1,0,1.3,0.4c0,0.1,0.1,0.2,0.1,0.2v0.1c0-0.1-0.1-0.2-0.2-0.3c-0.2-0.2-0.4-0.4-0.7-0.4s-0.6,0-0.9,0.2
		C293,321.1,292.9,321.2,292.9,321.2z"/>
	<g class="st9">
		<polygon points="295.2,320.3 295.2,320.7 293,320.5 293.1,320.1 		"/>
	</g>
	<polygon class="st7" points="302.3,319 302,323 299.9,322.9 300.1,318.9 	"/>
	<path class="st5" d="M301,322.8c0,0,0-0.9,0.1-2c0.1-1.1,0.2-2,0.2-2s0,0.9-0.1,2C301.1,321.9,301,322.8,301,322.8z"/>
	<polygon class="st5" points="302,322.7 299.9,322.6 299.9,322.9 302,323 	"/>
	<path class="st5" d="M299.9,321.6C299.9,321.6,300,321.6,299.9,321.6c0.1-0.2,0.2-0.2,0.3-0.3c0.1-0.1,0.2-0.2,0.4-0.2
		c0.2-0.1,0.3-0.1,0.5-0.1c0.3,0,0.6,0.2,0.8,0.4c0.1,0.1,0.1,0.2,0.1,0.2v0.1c-0.1-0.1-0.1-0.2-0.2-0.3c-0.2-0.2-0.5-0.4-0.8-0.4
		s-0.6,0.1-0.8,0.3C300,321.5,299.9,321.6,299.9,321.6z"/>
	<g class="st9">
		<polygon points="302.2,320.6 302.1,321 300,320.9 300,320.6 		"/>
	</g>
	<path class="st5" d="M294.2,300.3c-0.1,0-0.3,2.6-0.2,3.5c0.1,0.9,0.1,7.6,0.1,7.6s-0.4,0.3-0.4,0.7s-0.8,7.9-0.8,7.9l2.4,0.4
		c0,0,2.2-8.1,2.3-9.3c0.1-1.1,1.6-8.9,1.6-8.9s0.5,7.3,0.5,8.4c0,1.1,0,9.8,0,9.8s1.8,0.3,2.7,0c0,0,0.7-6.5,0.7-8.7v-3.5
		c0,0,0.9-4,1.3-6.1c0.4-2.1,0-4,0-4l-7.3-1L294.2,300.3z"/>
	<path class="st6" d="M296.1,312.1c-0.3-0.1-0.6-0.1-0.9-0.1s-0.6,0.1-0.9,0.3c0.1-0.1,0.2-0.1,0.2-0.1c0.4-0.2,0.9-0.2,1.3-0.1
		C295.9,312,296,312,296.1,312.1z"/>
	<path class="st6" d="M296.3,311.4c-0.2,0-0.5,0-0.7,0s-0.5,0-0.7-0.1c0.2,0,0.5,0,0.7,0C295.8,311.4,296,311.4,296.3,311.4z"/>
	<path class="st6" d="M301.3,312.9C301.3,312.9,301.2,312.9,301.3,312.9c-0.1-0.1-0.2-0.2-0.2-0.2c-0.4-0.4-0.6-1-0.6-1.6
		c0-0.1,0-0.2,0-0.2v-0.1c0,0,0,0.1,0,0.3c0.1,0.6,0.3,1.1,0.6,1.5C301.2,312.9,301.3,312.9,301.3,312.9z"/>
	<path class="st6" d="M299.3,302.1L299.3,302.1l-0.2,0.2l-0.1,0.1c-0.3,0.2-0.6,0.3-0.9,0.4c-0.3,0.1-0.7,0.1-1,0.1H297h-0.1h-0.1
		c0,0-0.1,0-0.1-0.1c0.1,0,0.3,0.1,0.4,0.1c0.3,0,0.7,0,1-0.1c0.3-0.1,0.6-0.2,0.9-0.4l0.1-0.1L299.3,302.1
		C299.2,302.1,299.3,302.1,299.3,302.1z"/>
	<path class="st10" d="M308.2,281.6c0-0.4,0.1-0.7,0.2-1c0.2-0.5,1-1.3,1-1.3s1-0.8,1.1-0.8s0.1,0.2,0,0.3c-0.1,0.1-0.7,0.8-0.7,0.8
		s0.2,0.1,0.2,0.2c0,0.1,0,0.2,0,0.2s0.2,0.1,0.3,0.2c0,0.1,0,0.2,0,0.2c0.1,0,0.1,0.1,0.1,0.2c0,0.1,0,0.2,0,0.3
		c0,0-0.4,0.4-0.5,0.5c-0.2,0.1-0.4,0.1-0.4,0.1l-0.1,0.2v0.5L308.2,281.6z"/>
	<path class="st6" d="M292.6,285.5c0,0-3.7,6.6-3.7,7.6c0,1.8,5.1,3.3,5.1,3.3l0.7-2.1l-2.6-1.8l1.9-4.2L292.6,285.5z"/>
	<path class="st6" d="M292.6,285.5c0.5-0.4,1.1-0.6,1.7-0.7c1-0.1,2.8-0.2,2.8-0.2s4.9-1.1,5.2-0.9c0.4,0.2,0.9,1.5,0.9,2.1
		c0.1,0.6-0.4,6.5-0.4,6.5s2.2,6.8,2,7c-0.1,0.1-2.7,1-5.4,1.2l-0.1-2l-0.3,2c-2.5,0.2-5.3,0.3-5.3,0.3s1.9-6.7,1.9-6.9
		C295.5,293.7,292.3,286.2,292.6,285.5z"/>
	<path class="st6" d="M302.3,283.8c0,0,1.8,1,2,1c0.2,0,0.4-0.4,0.7-0.1l1.6-0.3l1.6-2.9c0.6,0.2,1.1,0.5,1.6,1c0,0-0.9,3-1.4,3.5
		s-2.6,2-5.5,2l-0.4-2.4L302.3,283.8z"/>
	<path class="st5" d="M304.1,287.3c0,0,0.1-0.1,0.2-0.4c0.1-0.1,0.1-0.3,0.1-0.4c0-0.2,0.1-0.3,0.1-0.5c0-0.2,0-0.3,0-0.5
		c0-0.1,0-0.3-0.1-0.4c-0.1-0.2-0.1-0.4-0.1-0.4s0,0.1,0.1,0.1c0,0.1,0.1,0.2,0.1,0.3s0.1,0.3,0.1,0.4c0,0.2,0,0.4,0,0.5
		c0,0.2,0,0.4-0.1,0.5c0,0.1-0.1,0.3-0.2,0.4C304.3,287.1,304.2,287.2,304.1,287.3L304.1,287.3z"/>
	<path class="st5" d="M307.2,285.1c-0.3-0.1-0.5-0.3-0.7-0.6c0.1,0.1,0.2,0.2,0.3,0.3C307,284.8,307.1,284.9,307.2,285.1z"/>
	<path class="st10" d="M294,296.3c0,0,0.1,0.3,0.5,0c0,0,0.6-0.1,0.9-0.4c0.3-0.3,0.4-0.5,0.6-0.5s0.8-0.1,0.8-0.1s0.2-0.3,0-0.4
		c-0.2-0.1-1.1,0-1.1,0h-0.2v-0.3v-0.3c0,0-0.5,0.2-0.5,0.3c0,0-0.4-0.1-0.4,0.1L294,296.3z"/>
	<path class="st5" d="M294.3,290.7c0,0,0-0.1-0.1-0.1c0-0.1-0.1-0.2-0.2-0.4c-0.1-0.3-0.3-0.7-0.5-1.2s-0.3-0.9-0.4-1.2
		c0-0.2-0.1-0.3-0.1-0.4v-0.1v0.1l0.1,0.4c0.1,0.3,0.2,0.7,0.4,1.2s0.3,0.9,0.4,1.2l0.1,0.4C294.3,290.6,294.3,290.7,294.3,290.7z"
		/>
	<path class="st5" d="M300.3,294.1c0,0,0,0.1-0.1,0.2c-0.1,0.1-0.2,0.2-0.3,0.4c-0.3,0.4-0.7,0.8-1.1,1.1c-0.4,0.3-0.8,0.6-1.3,0.8
		c-0.2,0.1-0.3,0.2-0.4,0.2c0,0-0.1,0-0.2,0.1c0,0,0.1-0.1,0.2-0.1c0.1,0,0.2-0.1,0.4-0.2c0.9-0.5,1.7-1.1,2.4-2
		c0.1-0.2,0.2-0.3,0.3-0.4C300.3,294.2,300.3,294.2,300.3,294.1z"/>
	<path class="st5" d="M292.2,292.5c0,0-0.3,0.1-0.6,0.2c-0.3,0.1-0.6,0.3-0.6,0.2c0.2-0.1,0.4-0.2,0.6-0.3
		C291.8,292.5,292,292.5,292.2,292.5z"/>
	<g class="st9">
		<path d="M293.6,289.1c-0.4-0.2-0.8-0.7-0.8-1.1c-0.1-0.4,0.1-0.9,0.1-1.3C293.1,287.5,293.4,288.3,293.6,289.1"/>
	</g>
	<g class="st9">
		<path d="M297.4,297.3c1.3,0.4,2.7-0.3,3.1-1.5c0-0.1,0.1-0.2,0.1-0.3C299.6,296.1,298.5,296.8,297.4,297.3z"/>
	</g>
	<path class="st5" d="M303.1,285.2L303.1,285.2c0,0.2,0,0.3,0.1,0.5c0.1,0.8,0.1,1.6-0.1,2.3c0,0.1,0,0.3-0.1,0.3v0.1
		c0,0,0-0.2,0.1-0.5c0.1-0.8,0.1-1.6,0-2.3C303.1,285.4,303.1,285.2,303.1,285.2z"/>
	<g class="st9">
		<path d="M301.1,283.1l-5.7,8.8c1.4,0.7,3.1,1,4.4,0.2c0.4,0.5,1.1,0.3,1.5-0.2c0.4-0.5,0.4-1.1,0.4-1.7
			C301.8,287.9,301.4,285.5,301.1,283.1z"/>
	</g>
	<path class="st5" d="M298.8,276.9c-0.6-0.1-1.2,0.2-1.7,0.6s-0.8,1-1,1.6c-0.5,1.1-0.7,2.3-1,3.5c-0.4,1.7-0.8,3.5-0.9,5.3
		c-0.1,1.8,0.4,2.8,1.2,4.5l2.7-0.4v-0.5l0.4,0.5l1.1-0.2l0.3-2.8l0.5,2.6l0.9-0.1c0.9-3.5-0.1-5.8,0.4-9.3c0.1-0.8,0.3-1.7,0.3-2.5
		c0-0.8-0.4-1.8-1-2.4C300.4,276.6,299.4,276.4,298.8,276.9"/>
	<path class="st6" d="M299.5,291.7C299.5,291.6,299.4,291.6,299.5,291.7c0-0.1,0-0.1,0-0.2l-0.1-0.5c-0.1-0.4-0.2-1-0.2-1.7
		c-0.1-0.8-0.2-1.7-0.1-2.5c0-0.5,0-1,0.1-1.5c0.1-0.5,0.2-1,0.3-1.6c0.3-1,0.7-2,0.9-2.9c0.1-0.4,0.2-0.9,0.2-1.3s-0.1-0.8-0.2-1.1
		c-0.1-0.3-0.2-0.6-0.4-0.8c-0.1-0.2-0.3-0.4-0.5-0.5c-0.3-0.1-0.4-0.2-0.5-0.3h-0.1l0,0l0,0h0.1c0.1,0.1,0.3,0.1,0.4,0.2
		c0.2,0.1,0.4,0.3,0.5,0.5c0.2,0.3,0.3,0.5,0.4,0.9c0.1,0.4,0.2,0.8,0.2,1.2c0,0.5-0.1,0.9-0.2,1.3c-0.2,0.9-0.6,1.9-0.9,2.9
		c-0.1,0.5-0.2,1-0.3,1.6c-0.1,0.5-0.1,1-0.1,1.5c0,0.8,0,1.7,0.1,2.5c0.1,0.7,0.2,1.3,0.2,1.7c0,0.2,0,0.3,0.1,0.5
		C299.4,291.6,299.4,291.6,299.5,291.7C299.5,291.6,299.5,291.6,299.5,291.7z"/>
	<path class="st6" d="M295.7,289.9C295.7,289.9,295.7,289.8,295.7,289.9C295.7,289.8,295.7,289.8,295.7,289.9v-0.5
		c0-0.1,0-0.2,0-0.3c0-0.1,0-0.2,0-0.3c0-0.2,0-0.5,0-0.8c0-0.1,0-0.3,0-0.5c0-0.2,0-0.3,0-0.5c0-0.3,0-0.7,0-1.1
		c0.1-0.8,0.2-1.7,0.3-2.5c0.2-0.8,0.4-1.6,0.6-2.4c0.1-0.4,0.2-0.7,0.4-1c-0.1-0.2,0-0.4,0-0.5l0.2-0.4c0.1-0.3,0.2-0.5,0.3-0.7
		c0-0.1,0.1-0.2,0.1-0.3l0.1-0.2c0.1-0.1,0.1-0.2,0.2-0.3v-0.1l0,0l0,0c0,0,0,0,0,0.1s-0.1,0.2-0.2,0.3c0,0.1-0.1,0.2-0.1,0.2
		c0,0.1-0.1,0.2-0.1,0.3c-0.1,0.2-0.2,0.5-0.3,0.7c-0.1,0.1-0.1,0.3-0.2,0.4c0,0.2,0,0.3-0.1,0.5c-0.1,0.3-0.2,0.7-0.4,1
		c-0.2,0.8-0.4,1.6-0.6,2.4c-0.2,0.8-0.3,1.7-0.3,2.5c0,0.4,0,0.8-0.1,1.1c0,0.2,0,0.3,0,0.5s0,0.3,0,0.5c0,0.3,0,0.6,0,0.8
		c0,0.1,0,0.2,0,0.3s0,0.2,0,0.3c0,0.2,0,0.3,0,0.4C295.6,289.8,295.6,289.8,295.7,289.9C295.6,289.8,295.6,289.9,295.7,289.9z"/>
	<path class="st6" d="M297.1,292C297.1,292,297.1,291.9,297.1,292c0-0.1,0-0.1,0-0.1c0-0.1-0.1-0.2-0.1-0.4c0-0.1,0-0.2-0.1-0.3
		c0-0.1,0-0.2-0.1-0.3c0-0.2-0.1-0.5-0.2-0.8c0-0.2-0.1-0.3-0.1-0.5c0-0.2,0-0.3-0.1-0.5c-0.1-0.2-0.1-0.4-0.1-0.6s0-0.4,0-0.6
		c-0.1-0.9,0-1.8,0-2.6c0.1-0.9,0.2-1.8,0.4-2.6c0-0.2,0.1-0.4,0.1-0.6s0.1-0.4,0.1-0.5c0.1-0.3,0.2-0.7,0.3-1
		c0.1-0.3,0.2-0.5,0.3-0.8c0.1-0.2,0.2-0.4,0.2-0.6l0.3-0.4v-0.1l0,0l0,0v0.1c0,0.1-0.1,0.2-0.1,0.4s-0.1,0.4-0.2,0.6
		s-0.2,0.5-0.3,0.8c-0.1,0.3-0.2,0.6-0.3,1c0,0.2-0.1,0.4-0.1,0.5l-0.1,0.6c-0.2,0.9-0.3,1.7-0.4,2.6c-0.1,0.9-0.1,1.8,0,2.6
		c0,0.2,0,0.4,0,0.6s0,0.4,0.1,0.5c0.1,0.1,0,0.3,0.1,0.5c0,0.2,0.1,0.3,0.1,0.5c0,0.3,0.1,0.6,0.2,0.8c0,0.1,0,0.2,0.1,0.3
		c0,0.1,0,0.2,0.1,0.3l0.1,0.4C297.1,291.8,297.1,291.9,297.1,292C297.1,291.9,297.1,291.9,297.1,292z"/>
	<path class="st6" d="M300.9,290.3L300.9,290.3c0-0.1,0-0.1-0.1-0.1V290c0-0.1-0.1-0.1-0.1-0.2c-0.2-0.5-0.4-1-0.4-1.5
		c-0.2-1.2-0.2-2.5,0.1-3.8c0.1-0.5,0.3-1,0.4-1.5c0.2-0.5,0.3-1,0.4-1.5s0.2-0.9,0.2-1.4c0-0.4,0-0.8-0.1-1.3
		c-0.1-0.4-0.2-0.7-0.4-1c-0.3-0.5-0.7-0.8-1.2-1c-0.1-0.1-0.3-0.1-0.4-0.1h-0.1l0,0l0,0h0.1c0.1,0,0.3,0.1,0.4,0.1
		c0.5,0.2,0.9,0.6,1.2,1c0.2,0.3,0.4,0.7,0.4,1c0.1,0.4,0.2,0.8,0.1,1.3c0,0.5-0.1,0.9-0.2,1.4s-0.2,1-0.4,1.5s-0.3,1-0.4,1.5
		s-0.2,0.9-0.2,1.4c-0.1,1.3,0.1,2.7,0.6,3.9c0,0.1,0.1,0.2,0.1,0.2l0.1,0.2L300.9,290.3C300.9,290.2,300.9,290.3,300.9,290.3z"/>
</g>
<g id="freepik--Floor--inject-25">
	<path class="st5" d="M326.8,299.6c0,0-11.1,0-24.8,0s-24.8,0-24.8,0s11.1,0,24.8,0S326.8,299.6,326.8,299.6z"/>
</g>
<rect x="-1.9" y="-0.5" class="st11" width="607.9" height="600.1"/>
<g class="st12">
	<path d="M192,286.9v-28H203c2.1,0,3.9,0.4,5.4,1.2c1.5,0.8,2.6,1.9,3.4,3.4c0.8,1.4,1.2,3.1,1.2,4.9c0,1.9-0.4,3.5-1.2,4.9
		s-2,2.5-3.5,3.3s-3.4,1.2-5.5,1.2h-7.1v-4.8h6.1c1.1,0,2.1-0.2,2.8-0.6c0.7-0.4,1.3-0.9,1.7-1.7s0.6-1.5,0.6-2.4
		c0-0.9-0.2-1.7-0.6-2.4c-0.4-0.7-0.9-1.2-1.7-1.6c-0.7-0.4-1.7-0.6-2.8-0.6h-4v23.2H192z"/>
	<path d="M222.7,258.9v28h-5.8v-28H222.7z"/>
	<path d="M233.3,287.3c-1.3,0-2.5-0.2-3.6-0.7c-1-0.5-1.9-1.2-2.5-2.1c-0.6-0.9-0.9-2.1-0.9-3.5c0-1.2,0.2-2.1,0.6-2.9
		c0.4-0.8,1-1.4,1.8-1.9s1.6-0.8,2.5-1.1c0.9-0.2,1.9-0.4,3-0.5c1.2-0.1,2.2-0.2,3-0.4c0.7-0.1,1.3-0.3,1.6-0.5
		c0.3-0.2,0.5-0.6,0.5-1v-0.1c0-0.9-0.3-1.5-0.8-2s-1.3-0.7-2.3-0.7c-1,0-1.9,0.2-2.5,0.7s-1,1-1.2,1.7l-5.4-0.4
		c0.3-1.3,0.8-2.4,1.6-3.3c0.8-0.9,1.8-1.7,3.1-2.2c1.3-0.5,2.7-0.8,4.4-0.8c1.2,0,2.3,0.1,3.4,0.4c1.1,0.3,2,0.7,2.9,1.3
		c0.8,0.6,1.5,1.3,2,2.2c0.5,0.9,0.7,2,0.7,3.2v14.2h-5.5V284h-0.2c-0.3,0.7-0.8,1.2-1.4,1.7c-0.6,0.5-1.2,0.9-2,1.2
		S234.4,287.3,233.3,287.3z M235,283.3c0.9,0,1.6-0.2,2.3-0.5c0.7-0.3,1.2-0.8,1.5-1.4c0.4-0.6,0.6-1.2,0.6-2v-2.2
		c-0.2,0.1-0.4,0.2-0.7,0.3c-0.3,0.1-0.7,0.2-1.1,0.3c-0.4,0.1-0.8,0.1-1.2,0.2c-0.4,0.1-0.7,0.1-1.1,0.2c-0.7,0.1-1.3,0.3-1.8,0.5
		s-0.9,0.5-1.2,0.9c-0.3,0.4-0.4,0.8-0.4,1.4c0,0.8,0.3,1.4,0.9,1.8C233.4,283.1,234.1,283.3,235,283.3z"/>
	<path d="M259.2,287.3c-2.2,0-4-0.5-5.6-1.4s-2.7-2.2-3.6-3.8c-0.8-1.6-1.2-3.5-1.2-5.6c0-2.2,0.4-4,1.3-5.7s2-2.9,3.6-3.8
		c1.5-0.9,3.4-1.4,5.5-1.4c1.8,0,3.4,0.3,4.8,1c1.4,0.7,2.5,1.6,3.3,2.8c0.8,1.2,1.2,2.6,1.3,4.2h-5.5c-0.2-1-0.6-1.9-1.2-2.5
		c-0.7-0.6-1.5-1-2.6-1c-0.9,0-1.7,0.2-2.4,0.7s-1.2,1.2-1.6,2.1c-0.4,0.9-0.6,2.1-0.6,3.4c0,1.3,0.2,2.5,0.6,3.4
		c0.4,0.9,0.9,1.7,1.6,2.1c0.7,0.5,1.5,0.7,2.4,0.7c0.7,0,1.3-0.1,1.8-0.4c0.5-0.3,1-0.7,1.3-1.2c0.4-0.5,0.6-1.2,0.7-1.9h5.5
		c-0.1,1.6-0.5,3-1.3,4.2c-0.8,1.2-1.9,2.2-3.2,2.9C262.7,287,261.1,287.3,259.2,287.3z"/>
	<path d="M281.9,287.3c-2.2,0-4-0.4-5.6-1.3c-1.6-0.9-2.8-2.1-3.6-3.8s-1.3-3.5-1.3-5.8c0-2.2,0.4-4.1,1.3-5.7s2-2.9,3.6-3.8
		c1.5-0.9,3.3-1.4,5.4-1.4c1.4,0,2.7,0.2,3.9,0.7c1.2,0.4,2.2,1.1,3.1,2c0.9,0.9,1.6,2,2.1,3.3s0.8,2.9,0.8,4.7v1.6h-17.8v-3.6h12.3
		c0-0.8-0.2-1.6-0.5-2.2c-0.4-0.6-0.9-1.2-1.5-1.5c-0.6-0.4-1.4-0.6-2.2-0.6c-0.9,0-1.7,0.2-2.3,0.6c-0.7,0.4-1.2,0.9-1.6,1.6
		s-0.6,1.4-0.6,2.3v3.4c0,1,0.2,1.9,0.6,2.7c0.4,0.8,0.9,1.3,1.6,1.8c0.7,0.4,1.6,0.6,2.5,0.6c0.6,0,1.2-0.1,1.8-0.3
		c0.5-0.2,1-0.5,1.4-0.8c0.4-0.4,0.7-0.8,0.9-1.3l5.4,0.4c-0.3,1.3-0.8,2.4-1.7,3.4c-0.8,1-1.9,1.7-3.3,2.2
		C285.2,287.1,283.6,287.3,281.9,287.3z"/>
	<path d="M301.2,274.8v12.2h-5.8v-28h5.7v10.7h0.2c0.5-1.2,1.2-2.2,2.3-2.9c1.1-0.7,2.4-1.1,4-1.1c1.5,0,2.7,0.3,3.8,1
		c1.1,0.6,1.9,1.5,2.5,2.7c0.6,1.2,0.9,2.6,0.9,4.2v13.4H309v-12.3c0-1.3-0.3-2.3-1-3c-0.7-0.7-1.6-1.1-2.8-1.1
		c-0.8,0-1.5,0.2-2.1,0.5c-0.6,0.3-1.1,0.8-1.4,1.5C301.4,273.1,301.2,273.9,301.2,274.8z"/>
	<path d="M328.9,287.3c-2.1,0-4-0.5-5.5-1.4c-1.5-0.9-2.7-2.2-3.6-3.8s-1.3-3.5-1.3-5.7c0-2.2,0.4-4.1,1.3-5.7s2-2.9,3.6-3.8
		c1.5-0.9,3.4-1.4,5.5-1.4c2.1,0,4,0.5,5.5,1.4s2.7,2.2,3.6,3.8c0.8,1.6,1.3,3.5,1.3,5.7c0,2.2-0.4,4-1.3,5.7
		c-0.8,1.6-2,2.9-3.6,3.8S331.1,287.3,328.9,287.3z M329,282.8c1,0,1.8-0.3,2.4-0.8c0.6-0.6,1.1-1.3,1.5-2.3c0.3-1,0.5-2,0.5-3.3
		c0-1.2-0.2-2.3-0.5-3.3s-0.8-1.7-1.5-2.3c-0.6-0.6-1.5-0.8-2.4-0.8c-1,0-1.8,0.3-2.5,0.8c-0.7,0.6-1.2,1.3-1.5,2.3
		c-0.3,1-0.5,2-0.5,3.3c0,1.2,0.2,2.3,0.5,3.3c0.3,1,0.8,1.7,1.5,2.3C327.2,282.5,328,282.8,329,282.8z"/>
	<path d="M348.9,258.9v28h-5.8v-28H348.9z"/>
	<path d="M361.3,287.3c-1.6,0-3-0.4-4.3-1.2c-1.3-0.8-2.3-2-3.1-3.7c-0.8-1.6-1.1-3.6-1.1-5.9c0-2.4,0.4-4.4,1.2-6
		c0.8-1.6,1.8-2.8,3.1-3.6c1.3-0.8,2.7-1.2,4.2-1.2c1.2,0,2.2,0.2,3,0.6c0.8,0.4,1.4,0.9,1.9,1.5s0.9,1.2,1.1,1.7h0.2v-10.5h5.8v28
		h-5.7v-3.4h-0.2c-0.3,0.6-0.7,1.2-1.2,1.7c-0.5,0.6-1.1,1-1.9,1.4S362.5,287.3,361.3,287.3z M363.2,282.6c0.9,0,1.7-0.3,2.4-0.8
		c0.7-0.5,1.2-1.2,1.5-2.2c0.4-0.9,0.5-2,0.5-3.3c0-1.2-0.2-2.3-0.5-3.3s-0.8-1.6-1.5-2.1s-1.5-0.8-2.4-0.8c-1,0-1.8,0.3-2.4,0.8
		c-0.7,0.5-1.2,1.2-1.5,2.2c-0.3,0.9-0.5,2-0.5,3.2c0,1.2,0.2,2.3,0.5,3.2c0.3,0.9,0.8,1.7,1.5,2.2
		C361.4,282.4,362.2,282.6,363.2,282.6z"/>
	<path d="M387.6,287.3c-2.2,0-4-0.4-5.6-1.3s-2.8-2.1-3.6-3.8s-1.3-3.5-1.3-5.8c0-2.2,0.4-4.1,1.3-5.7s2-2.9,3.6-3.8
		c1.5-0.9,3.3-1.4,5.4-1.4c1.4,0,2.7,0.2,3.9,0.7s2.2,1.1,3.1,2c0.9,0.9,1.6,2,2.1,3.3s0.8,2.9,0.8,4.7v1.6h-17.8v-3.6h12.3
		c0-0.8-0.2-1.6-0.5-2.2c-0.4-0.6-0.9-1.2-1.5-1.5c-0.6-0.4-1.4-0.6-2.2-0.6c-0.9,0-1.7,0.2-2.3,0.6s-1.2,0.9-1.6,1.6
		c-0.4,0.7-0.6,1.4-0.6,2.3v3.4c0,1,0.2,1.9,0.6,2.7s0.9,1.3,1.6,1.8c0.7,0.4,1.6,0.6,2.5,0.6c0.6,0,1.2-0.1,1.8-0.3
		c0.5-0.2,1-0.5,1.4-0.8c0.4-0.4,0.7-0.8,0.9-1.3l5.4,0.4c-0.3,1.3-0.8,2.4-1.7,3.4c-0.8,1-1.9,1.7-3.3,2.2
		C390.9,287.1,389.4,287.3,387.6,287.3z"/>
	<path d="M401.1,286.9v-21h5.7v3.7h0.2c0.4-1.3,1-2.3,1.9-3c0.9-0.7,1.9-1,3.1-1c0.3,0,0.6,0,0.9,0.1c0.3,0,0.6,0.1,0.9,0.2v5.2
		c-0.3-0.1-0.7-0.2-1.1-0.2s-0.9-0.1-1.3-0.1c-0.9,0-1.6,0.2-2.3,0.6c-0.7,0.4-1.2,0.9-1.6,1.5c-0.4,0.7-0.6,1.4-0.6,2.3v11.9H401.1
		z"/>
</g>
<g>
	<path d="M233.9,333.7c-1.1,0-2.2-0.2-3.3-0.6c-1.1-0.4-2.1-1.1-3-2c-0.9-1-1.6-2.3-2.2-3.9c-0.6-1.6-0.8-3.7-0.8-6.2
		c0-2.4,0.2-4.5,0.7-6.4c0.4-1.9,1.1-3.4,2-4.7c0.9-1.3,1.9-2.2,3.1-2.9c1.2-0.7,2.6-1,4.1-1c1.5,0,2.9,0.3,4,0.9
		c1.2,0.6,2.1,1.4,2.9,2.5c0.7,1.1,1.2,2.3,1.4,3.7h-3.2c-0.3-1.2-0.9-2.3-1.7-3.1c-0.9-0.8-2-1.2-3.4-1.2c-2.1,0-3.7,0.9-4.9,2.7
		c-1.2,1.8-1.8,4.4-1.8,7.7h0.2c0.5-0.7,1.1-1.4,1.8-1.9c0.7-0.5,1.4-0.9,2.3-1.2c0.8-0.3,1.7-0.4,2.6-0.4c1.5,0,3,0.4,4.2,1.2
		c1.3,0.8,2.3,1.8,3.1,3.2c0.8,1.3,1.2,2.9,1.2,4.6c0,1.7-0.4,3.2-1.1,4.6c-0.7,1.4-1.8,2.5-3.1,3.3
		C237.3,333.3,235.8,333.7,233.9,333.7z M233.9,330.8c1.1,0,2.1-0.3,3-0.8c0.9-0.6,1.6-1.3,2.1-2.2c0.5-0.9,0.8-2,0.8-3.1
		c0-1.1-0.2-2.1-0.7-3c-0.5-0.9-1.2-1.6-2-2.2c-0.9-0.5-1.9-0.8-3-0.8c-0.8,0-1.6,0.2-2.3,0.5c-0.7,0.3-1.4,0.8-1.9,1.4
		c-0.5,0.6-1,1.2-1.3,2c-0.3,0.7-0.5,1.5-0.5,2.3c0,1.1,0.3,2.1,0.8,3c0.5,0.9,1.2,1.7,2.1,2.3C231.8,330.5,232.8,330.8,233.9,330.8
		z"/>
	<path d="M256.9,333.7c-2,0-3.7-0.5-5.1-1.6c-1.4-1.1-2.5-2.7-3.2-4.7c-0.7-2.1-1.1-4.6-1.1-7.5c0-2.9,0.4-5.4,1.1-7.5
		c0.7-2.1,1.8-3.6,3.2-4.7c1.4-1.1,3.1-1.6,5.1-1.6s3.7,0.5,5.1,1.6c1.4,1.1,2.5,2.7,3.2,4.7s1.1,4.6,1.1,7.5c0,2.9-0.4,5.4-1.1,7.5
		c-0.7,2.1-1.8,3.6-3.2,4.7C260.6,333.2,258.9,333.7,256.9,333.7z M256.9,330.8c2,0,3.5-0.9,4.6-2.8c1.1-1.9,1.6-4.6,1.6-8.1
		c0-2.3-0.2-4.3-0.7-6c-0.5-1.6-1.2-2.9-2.1-3.8c-0.9-0.9-2-1.3-3.3-1.3c-1.9,0-3.5,1-4.6,2.9c-1.1,1.9-1.6,4.6-1.6,8.1
		c0,2.3,0.2,4.3,0.7,6c0.5,1.6,1.2,2.9,2.1,3.7C254.5,330.4,255.6,330.8,256.9,330.8z"/>
	<path d="M280.1,333.7c-2,0-3.7-0.5-5.1-1.6c-1.4-1.1-2.5-2.7-3.2-4.7c-0.7-2.1-1.1-4.6-1.1-7.5c0-2.9,0.4-5.4,1.1-7.5
		c0.7-2.1,1.8-3.6,3.2-4.7c1.4-1.1,3.1-1.6,5.1-1.6s3.7,0.5,5.1,1.6c1.4,1.1,2.5,2.7,3.2,4.7s1.1,4.6,1.1,7.5c0,2.9-0.4,5.4-1.1,7.5
		c-0.7,2.1-1.8,3.6-3.2,4.7C283.8,333.2,282.1,333.7,280.1,333.7z M280.1,330.8c2,0,3.5-0.9,4.6-2.8c1.1-1.9,1.6-4.6,1.6-8.1
		c0-2.3-0.2-4.3-0.7-6c-0.5-1.6-1.2-2.9-2.1-3.8c-0.9-0.9-2-1.3-3.3-1.3c-1.9,0-3.5,1-4.6,2.9c-1.1,1.9-1.6,4.6-1.6,8.1
		c0,2.3,0.2,4.3,0.7,6c0.5,1.6,1.2,2.9,2.1,3.7C277.7,330.4,278.8,330.8,280.1,330.8z"/>
	<path d="M296.9,313.1l4.8,8.3l4.8-8.3h3.6l-6.5,10.1l6.5,10.1h-3.6l-4.8-7.9l-4.8,7.9h-3.6l6.4-10.1l-6.4-10.1H296.9z"/>
	<path d="M323.5,333.7c-1.1,0-2.2-0.2-3.3-0.6c-1.1-0.4-2.1-1.1-3-2s-1.6-2.3-2.2-3.9c-0.6-1.6-0.8-3.7-0.8-6.2
		c0-2.4,0.2-4.5,0.7-6.4c0.4-1.9,1.1-3.4,2-4.7c0.9-1.3,1.9-2.2,3.1-2.9c1.2-0.7,2.6-1,4.1-1c1.5,0,2.9,0.3,4,0.9
		c1.2,0.6,2.1,1.4,2.9,2.5s1.2,2.3,1.4,3.7h-3.2c-0.3-1.2-0.9-2.3-1.7-3.1c-0.9-0.8-2-1.2-3.4-1.2c-2.1,0-3.7,0.9-4.9,2.7
		c-1.2,1.8-1.8,4.4-1.8,7.7h0.2c0.5-0.7,1.1-1.4,1.8-1.9c0.7-0.5,1.4-0.9,2.3-1.2c0.8-0.3,1.7-0.4,2.6-0.4c1.5,0,3,0.4,4.2,1.2
		c1.3,0.8,2.3,1.8,3.1,3.2c0.8,1.3,1.2,2.9,1.2,4.6c0,1.7-0.4,3.2-1.1,4.6c-0.7,1.4-1.8,2.5-3.1,3.3
		C326.9,333.3,325.3,333.7,323.5,333.7z M323.5,330.8c1.1,0,2.1-0.3,3-0.8c0.9-0.6,1.6-1.3,2.1-2.2c0.5-0.9,0.8-2,0.8-3.1
		c0-1.1-0.2-2.1-0.7-3s-1.2-1.6-2-2.2c-0.9-0.5-1.9-0.8-3-0.8c-0.8,0-1.6,0.2-2.3,0.5c-0.7,0.3-1.4,0.8-1.9,1.4
		c-0.5,0.6-1,1.2-1.3,2c-0.3,0.7-0.5,1.5-0.5,2.3c0,1.1,0.3,2.1,0.8,3c0.5,0.9,1.2,1.7,2.1,2.3C321.4,330.5,322.4,330.8,323.5,330.8
		z"/>
	<path d="M346.5,333.7c-2,0-3.7-0.5-5.1-1.6c-1.4-1.1-2.5-2.7-3.2-4.7c-0.7-2.1-1.1-4.6-1.1-7.5c0-2.9,0.4-5.4,1.1-7.5
		s1.8-3.6,3.2-4.7c1.4-1.1,3.1-1.6,5.1-1.6c2,0,3.7,0.5,5.1,1.6s2.5,2.7,3.2,4.7s1.1,4.6,1.1,7.5c0,2.9-0.4,5.4-1.1,7.5
		c-0.7,2.1-1.8,3.6-3.2,4.7C350.1,333.2,348.4,333.7,346.5,333.7z M346.5,330.8c2,0,3.5-0.9,4.6-2.8c1.1-1.9,1.6-4.6,1.6-8.1
		c0-2.3-0.2-4.3-0.7-6s-1.2-2.9-2.1-3.8c-0.9-0.9-2-1.3-3.3-1.3c-2,0-3.5,1-4.6,2.9c-1.1,1.9-1.6,4.6-1.6,8.1c0,2.3,0.2,4.3,0.7,6
		c0.5,1.6,1.2,2.9,2.1,3.7C344,330.4,345.2,330.8,346.5,330.8z"/>
	<path d="M369.7,333.7c-2,0-3.7-0.5-5.1-1.6c-1.4-1.1-2.5-2.7-3.2-4.7c-0.7-2.1-1.1-4.6-1.1-7.5c0-2.9,0.4-5.4,1.1-7.5
		s1.8-3.6,3.2-4.7s3.1-1.6,5.1-1.6s3.7,0.5,5.1,1.6c1.4,1.1,2.5,2.7,3.2,4.7c0.7,2.1,1.1,4.6,1.1,7.5c0,2.9-0.4,5.4-1.1,7.5
		c-0.7,2.1-1.8,3.6-3.2,4.7C373.3,333.2,371.6,333.7,369.7,333.7z M369.7,330.8c2,0,3.5-0.9,4.6-2.8c1.1-1.9,1.6-4.6,1.6-8.1
		c0-2.3-0.2-4.3-0.7-6s-1.2-2.9-2.1-3.8c-0.9-0.9-2-1.3-3.3-1.3c-2,0-3.5,1-4.6,2.9c-1.1,1.9-1.6,4.6-1.6,8.1c0,2.3,0.2,4.3,0.7,6
		c0.5,1.6,1.2,2.9,2.1,3.7C367.2,330.4,368.3,330.8,369.7,330.8z"/>
</g>
</svg>
