<svg xmlns="http://www.w3.org/2000/svg" xmlns:xlink="http://www.w3.org/1999/xlink" style="margin:auto;background:#f1f2f3;display:block;z-index:1;position:relative" width="1920" height="937" preserveAspectRatio="xMidYMid" viewBox="0 0 1920 937">
<g transform="translate(960,468.5) scale(1,1) translate(-960,-468.5)"><path id="path0" d="M 1144.9576067292153 804.0187398300453
c 0 35.55031455058053 -8.698481219822895 10.21126056240079 -18.909741782223687 10.21126056240079
S 1107.138123164768 839.5690543806259 1107.138123164768 804.0187398300453
s 8.698481219822895 -10.21126056240079 18.909741782223687 -10.21126056240079
S 1144.9576067292153 768.4684252794648 1144.9576067292153 804.0187398300453
z" fill="none" stroke="none"></path>
<circle cx="0" cy="0" r="5.744242007413961" fill="#3c56eb">
  <animateMotion begin="-2.7378236518044377s" dur="4.45s" repeatCount="indefinite">
    <mpath xlink:href="#path0"></mpath>
  </animateMotion>
</circle><path id="path1" d="M 1163.672776786749 109.95301420434775
c 0 23.584938259787485 -5.770782765692682 6.774397159726193 -12.545179925418875 6.774397159726193
S 1138.5824169359114 133.53795246413523 1138.5824169359114 109.95301420434775
s 5.770782765692682 -6.774397159726193 12.545179925418875 -6.774397159726193
S 1163.672776786749 86.36807594456027 1163.672776786749 109.95301420434775
z" fill="none" stroke="none"></path>
<circle cx="0" cy="0" r="8.181006831650862" fill="#ff5723">
  <animateMotion begin="-4.327483472074317s" dur="4.45s" repeatCount="indefinite">
    <mpath xlink:href="#path1"></mpath>
  </animateMotion>
</circle><path id="path2" d="M 327.94577809314643 600.011381280992
c 0 21.999544329961264 -5.382867229671373 6.3190180522229165 -11.701885281894288 6.3190180522229165
S 304.5420075293578 622.0109256109533 304.5420075293578 600.011381280992
s 5.382867229671373 -6.3190180522229165 11.701885281894288 -6.3190180522229165
S 327.94577809314643 578.0118369510308 327.94577809314643 600.011381280992
z" fill="none" stroke="none"></path>
<circle cx="0" cy="0" r="4.963744313749725" fill="#3c56eb">
  <animateMotion begin="-3.008904543226758s" dur="4.45s" repeatCount="indefinite">
    <mpath xlink:href="#path2"></mpath>
  </animateMotion>
</circle><path id="path3" d="M 1681.8018082003355 558.6819728746126
c 0 19.909707623945334 -4.8715242058589645 5.718745806877916 -10.59027001273688 5.718745806877916
S 1660.6212681748616 578.5916804985579 1660.6212681748616 558.6819728746126
s 4.8715242058589645 -5.718745806877916 10.59027001273688 -5.718745806877916
S 1681.8018082003355 538.7722652506673 1681.8018082003355 558.6819728746126
z" fill="none" stroke="none"></path>
<circle cx="0" cy="0" r="4.332589044760168" fill="#b90b82">
  <animateMotion begin="-3.5760290981898963s" dur="4.45s" repeatCount="indefinite">
    <mpath xlink:href="#path3"></mpath>
  </animateMotion>
</circle><path id="path4" d="M 416.88839414900013 373.5788238463797
c 0 22.67922705439917 -5.549172577140221 6.514246068816783 -12.063418645957004 6.514246068816783
S 392.7615568570861 396.25805090077887 392.7615568570861 373.5788238463797
s 5.549172577140221 -6.514246068816783 12.063418645957004 -6.514246068816783
S 416.88839414900013 350.8995967919805 416.88839414900013 373.5788238463797
z" fill="none" stroke="none"></path>
<circle cx="0" cy="0" r="7.494992147586724" fill="#ff5723">
  <animateMotion begin="-0.975725683338166s" dur="4.45s" repeatCount="indefinite">
    <mpath xlink:href="#path4"></mpath>
  </animateMotion>
</circle><path id="path5" d="M 1394.7571813835586 791.2891000257653
c 0 31.148154196312912 -7.621356877821244 8.946810247877114 -16.568167125698356 8.946810247877114
S 1361.6208471321618 822.4372542220782 1361.6208471321618 791.2891000257653
s 7.621356877821244 -8.946810247877114 16.568167125698356 -8.946810247877114
S 1394.7571813835586 760.1409458294523 1394.7571813835586 791.2891000257653
z" fill="none" stroke="none"></path>
<circle cx="0" cy="0" r="7.314759755402113" fill="#ff5723">
  <animateMotion begin="-1.8344442716147669s" dur="4.45s" repeatCount="indefinite">
    <mpath xlink:href="#path5"></mpath>
  </animateMotion>
</circle><path id="path6" d="M 818.2494450958438 908.4006421468436
c 0 34.584446913723035 -8.462151904421592 9.933830496494915 -18.395982400916505 9.933830496494915
S 781.4574802940108 942.9850890605666 781.4574802940108 908.4006421468436
s 8.462151904421592 -9.933830496494915 18.395982400916505 -9.933830496494915
S 818.2494450958438 873.8161952331205 818.2494450958438 908.4006421468436
z" fill="none" stroke="none"></path>
<circle cx="0" cy="0" r="6.448617249955031" fill="#82de45">
  <animateMotion begin="-2.373082331905982s" dur="4.45s" repeatCount="indefinite">
    <mpath xlink:href="#path6"></mpath>
  </animateMotion>
</circle><path id="path7" d="M 1560.8845378734527 757.7373404926169
c 0 20.25350308000894 -4.955644370640484 5.817495565534482 -10.773139936174967 5.817495565534482
S 1539.338258001103 777.9908435726259 1539.338258001103 757.7373404926169
s 4.955644370640484 -5.817495565534482 10.773139936174967 -5.817495565534482
S 1560.8845378734527 737.483837412608 1560.8845378734527 757.7373404926169
z" fill="none" stroke="none"></path>
<circle cx="0" cy="0" r="4.25230320654899" fill="#82de45">
  <animateMotion begin="-2.0416494485330614s" dur="4.45s" repeatCount="indefinite">
    <mpath xlink:href="#path7"></mpath>
  </animateMotion>
</circle><path id="path8" d="M 86.6498394690449 415.9373697621786
c 0 35.55304894393096 -8.699150273515022 10.212045973256766 -18.911196246771787 10.212045973256766
S 48.827446975501324 451.49041870610955 48.827446975501324 415.9373697621786
s 8.699150273515022 -10.212045973256766 18.911196246771787 -10.212045973256766
S 86.6498394690449 380.38432081824766 86.6498394690449 415.9373697621786
z" fill="none" stroke="none"></path>
<circle cx="0" cy="0" r="6.240284641324375" fill="#82de45">
  <animateMotion begin="-1.0135908333266126s" dur="4.45s" repeatCount="indefinite">
    <mpath xlink:href="#path8"></mpath>
  </animateMotion>
</circle><path id="path9" d="M 1258.8556868478581 537.8839044857115
c 0 29.837386276650246 -7.300637067691017 8.570313079463368 -15.870950147154385 8.570313079463368
S 1227.1137865535493 567.7212907623617 1227.1137865535493 537.8839044857115
s 7.300637067691017 -8.570313079463368 15.870950147154385 -8.570313079463368
S 1258.8556868478581 508.0465182090612 1258.8556868478581 537.8839044857115
z" fill="none" stroke="none"></path>
<circle cx="0" cy="0" r="7.109611351222188" fill="#b90b82">
  <animateMotion begin="-3.8085482942672075s" dur="4.45s" repeatCount="indefinite">
    <mpath xlink:href="#path9"></mpath>
  </animateMotion>
</circle><path id="path10" d="M 304.342345348701 789.413322732173
c 0 22.974540819512804 -5.6214302005190895 6.599070235391976 -12.220500435911067 6.599070235391976
S 279.9013444768789 812.3878635516858 279.9013444768789 789.413322732173
s 5.6214302005190895 -6.599070235391976 12.220500435911067 -6.599070235391976
S 304.342345348701 766.4387819126603 304.342345348701 789.413322732173
z" fill="none" stroke="none"></path>
<circle cx="0" cy="0" r="4.311437746003629" fill="#ff5723">
  <animateMotion begin="-4.36339415950292s" dur="4.45s" repeatCount="indefinite">
    <mpath xlink:href="#path10"></mpath>
  </animateMotion>
</circle><path id="path11" d="M 709.1044912062798 453.93401842308407
c 0 21.29085302840579 -5.209464038865247 6.115457784754856 -11.324921823620102 6.115457784754856
S 686.4546475590396 475.2248714514899 686.4546475590396 453.93401842308407
s 5.209464038865247 -6.115457784754856 11.324921823620102 -6.115457784754856
S 709.1044912062798 432.64316539467825 709.1044912062798 453.93401842308407
z" fill="none" stroke="none"></path>
<circle cx="0" cy="0" r="5.481599263541262" fill="#b90b82">
  <animateMotion begin="-1.7136941149365832s" dur="4.45s" repeatCount="indefinite">
    <mpath xlink:href="#path11"></mpath>
  </animateMotion>
</circle><path id="path12" d="M 1900.6174066023204 734.2303743633106
c 0 25.410503681345634 -6.217463666712229 7.298761695705662 -13.516225362417892 7.298761695705662
S 1873.5849558774848 759.6408780446562 1873.5849558774848 734.2303743633106
s 6.217463666712229 -7.298761695705662 13.516225362417892 -7.298761695705662
S 1900.6174066023204 708.819870681965 1900.6174066023204 734.2303743633106
z" fill="none" stroke="none"></path>
<circle cx="0" cy="0" r="7.523330991015376" fill="#b90b82">
  <animateMotion begin="-1.598030701173521s" dur="4.45s" repeatCount="indefinite">
    <mpath xlink:href="#path12"></mpath>
  </animateMotion>
</circle><path id="path13" d="M 343.0294060954718 52.815210432510405
c 0 30.33613659544676 -7.422671720162504 8.713571149755985 -16.13624286991849 8.713571149755985
S 310.75692035563486 83.15134702795717 310.75692035563486 52.815210432510405
s 7.422671720162504 -8.713571149755985 16.13624286991849 -8.713571149755985
S 343.0294060954718 22.479073837063645 343.0294060954718 52.815210432510405
z" fill="none" stroke="none"></path>
<circle cx="0" cy="0" r="6.095661112548442" fill="#b90b82">
  <animateMotion begin="-2.513876645497081s" dur="4.45s" repeatCount="indefinite">
    <mpath xlink:href="#path13"></mpath>
  </animateMotion>
</circle><path id="path14" d="M 1838.7596426568955 385.46801166915265
c 0 31.702712350985774 -7.757046639070986 9.106098228474638 -16.86314486754562 9.106098228474638
S 1805.0333529218044 417.17072402013844 1805.0333529218044 385.46801166915265
s 7.757046639070986 -9.106098228474638 16.86314486754562 -9.106098228474638
S 1838.7596426568955 353.76529931816685 1838.7596426568955 385.46801166915265
z" fill="none" stroke="none"></path>
<circle cx="0" cy="0" r="7.144611028681289" fill="#82de45">
  <animateMotion begin="-1.469846452623871s" dur="4.45s" repeatCount="indefinite">
    <mpath xlink:href="#path14"></mpath>
  </animateMotion>
</circle><path id="path15" d="M 950.784957184874 381.3785034618392
c 0 25.32398837171601 -6.196295027122002 7.273911553578002 -13.470206580700005 7.273911553578002
S 923.8445440234739 406.7024918335552 923.8445440234739 381.3785034618392
s 6.196295027122002 -7.273911553578002 13.470206580700005 -7.273911553578002
S 950.784957184874 356.05451509012323 950.784957184874 381.3785034618392
z" fill="none" stroke="none"></path>
<circle cx="0" cy="0" r="7.863818243822621" fill="#3c56eb">
  <animateMotion begin="-1.3507605677308276s" dur="4.45s" repeatCount="indefinite">
    <mpath xlink:href="#path15"></mpath>
  </animateMotion>
</circle><path id="path16" d="M 105.05140402678384 119.7439554702403
c 0 25.704005345725083 -6.289277903741243 7.3830653652614595 -13.672343269002702 7.3830653652614595
S 77.70671748877842 145.4479608159654 77.70671748877842 119.7439554702403
s 6.289277903741243 -7.3830653652614595 13.672343269002702 -7.3830653652614595
S 105.05140402678384 94.03995012451522 105.05140402678384 119.7439554702403
z" fill="none" stroke="none"></path>
<circle cx="0" cy="0" r="4.966028579156715" fill="#b90b82">
  <animateMotion begin="-0.10823520600909688s" dur="4.45s" repeatCount="indefinite">
    <mpath xlink:href="#path16"></mpath>
  </animateMotion>
</circle><path id="path17" d="M 1283.9704248055953 401.5513094948898
c 0 21.21821942611955 -5.1916919872420175 6.094594941544978 -11.286286928786994 6.094594941544978
S 1261.3978509480214 422.76952892100934 1261.3978509480214 401.5513094948898
s 5.1916919872420175 -6.094594941544978 11.286286928786994 -6.094594941544978
S 1283.9704248055953 380.3330900687702 1283.9704248055953 401.5513094948898
z" fill="none" stroke="none"></path>
<circle cx="0" cy="0" r="4.797204565673682" fill="#ff5723">
  <animateMotion begin="-2.5316921283096145s" dur="4.45s" repeatCount="indefinite">
    <mpath xlink:href="#path17"></mpath>
  </animateMotion>
</circle><path id="path18" d="M 1303.6494182667411 325.694884024385
c 0 24.618882259381625 -6.023769063465716 7.0713810745032335 -13.09515013796895 7.0713810745032335
S 1277.4591179908034 350.3137662837666 1277.4591179908034 325.694884024385
s 6.023769063465716 -7.0713810745032335 13.09515013796895 -7.0713810745032335
S 1303.6494182667411 301.07600176500335 1303.6494182667411 325.694884024385
z" fill="none" stroke="none"></path>
<circle cx="0" cy="0" r="6.370882669538059" fill="#b90b82">
  <animateMotion begin="-3.3892442608174425s" dur="4.45s" repeatCount="indefinite">
    <mpath xlink:href="#path18"></mpath>
  </animateMotion>
</circle><path id="path19" d="M 1394.4936234387428 104.89313300013714
c 0 21.095610424171014 -5.1616919122971625 6.059377462261887 -11.22106937455905 6.059377462261887
S 1372.0514846896249 125.98874342430815 1372.0514846896249 104.89313300013714
s 5.1616919122971625 -6.059377462261887 11.22106937455905 -6.059377462261887
S 1394.4936234387428 83.79752257596613 1394.4936234387428 104.89313300013714
z" fill="none" stroke="none"></path>
<circle cx="0" cy="0" r="6.452239897509774" fill="#ff5723">
  <animateMotion begin="-0.8869857863294003s" dur="4.45s" repeatCount="indefinite">
    <mpath xlink:href="#path19"></mpath>
  </animateMotion>
</circle><path id="path20" d="M 574.9351807340839 364.9666456021098
c 0 28.331397721391834 -6.932150506298001 8.137741898697655 -15.069892404995656 8.137741898697655
S 544.7953959240925 393.29804332350164 544.7953959240925 364.9666456021098
s 6.932150506298001 -8.137741898697655 15.069892404995656 -8.137741898697655
S 574.9351807340839 336.63524788071794 574.9351807340839 364.9666456021098
z" fill="none" stroke="none"></path>
<circle cx="0" cy="0" r="4.2606267806344675" fill="#ff5723">
  <animateMotion begin="-1.341288321238246s" dur="4.45s" repeatCount="indefinite">
    <mpath xlink:href="#path20"></mpath>
  </animateMotion>
</circle><path id="path21" d="M 1040.4930459619816 743.7606602694209
c 0 29.69393147632794 -7.265536425058964 8.529107977243132 -15.794644402302096 8.529107977243132
S 1008.9037571573774 773.4545917457489 1008.9037571573774 743.7606602694209
s 7.265536425058964 -8.529107977243132 15.794644402302096 -8.529107977243132
S 1040.4930459619816 714.0667287930929 1040.4930459619816 743.7606602694209
z" fill="none" stroke="none"></path>
<circle cx="0" cy="0" r="5.51623543852582" fill="#ff5723">
  <animateMotion begin="-2.549895330691046s" dur="4.45s" repeatCount="indefinite">
    <mpath xlink:href="#path21"></mpath>
  </animateMotion>
</circle></g>
</svg>