
        <svg xmlns="http://www.w3.org/2000/svg" xmlns:xlink="http://www.w3.org/1999/xlink" version="1.1" width="3147.783251231527" height="1344.8275862068967" viewBox="0 0 3147.783251231527 1344.8275862068967">
			
			<g transform="scale(7.389162561576355) translate(10, 10)">
				<defs id="SvgjsDefs4687"/><g id="SvgjsG4688" featureKey="symbolFeature-0" transform="matrix(0.5358462929725647,0,0,0.5358462929725647,-1.3396156688839618,46.660385608673096)" fill="#fff"><title xmlns="http://www.w3.org/2000/svg">Artboard 26</title><g xmlns="http://www.w3.org/2000/svg" data-name="Layer 26"><path d="M29.3548,35.99872a1.31411,1.31411,0,0,0-1.69513,0,1.07537,1.07537,0,0,0-.37921.80859,1.09559,1.09559,0,0,0,.4209.84021l3.31732,2.18842-3.359,2.21918a1.05286,1.05286,0,0,0-.00037,1.618h.00037a1.31327,1.31327,0,0,0,.85956.31378,1.204,1.204,0,0,0,.7962-.28369l4.79913-3.2182a.851.851,0,0,0,.31061-.649.866.866,0,0,0-.34454-.67371Z"/><path d="M98.61932,72.54773a1.17119,1.17119,0,0,0,.419.89185,1.44021,1.44021,0,0,0,.94513.34534,1.42392,1.42392,0,0,0,.93628-.3407l5.53986-4.64038A.90315.90315,0,0,0,106.46,67.394l-5.53479-4.6366a1.46385,1.46385,0,0,0-1.88684,0,1.15871,1.15871,0,0,0,0,1.78375l4.0943,3.55737-4.0943,3.55737A1.17137,1.17137,0,0,0,98.61932,72.54773Z"/><path d="M29.3548,59.36188a1.31461,1.31461,0,0,0-1.6955,0,1.0634,1.0634,0,0,0-.37885.80859,1.08392,1.08392,0,0,0,.4209.841l3.31732,2.18762-3.359,2.22a1.05175,1.05175,0,0,0,0,1.61725,1.31353,1.31353,0,0,0,.85956.31372,1.204,1.204,0,0,0,.7962-.28369l4.79913-3.2182a.851.851,0,0,0,.31061-.649.866.866,0,0,0-.34454-.67371Z"/><path d="M29.35516,47.68066a1.31091,1.31091,0,0,0-1.6955,0,1.07556,1.07556,0,0,0-.37921.80859,1.09559,1.09559,0,0,0,.4209.84021l3.31732,2.18762-3.359,2.22a1.05169,1.05169,0,0,0,0,1.61719,1.3132,1.3132,0,0,0,.85956.31372,1.20429,1.20429,0,0,0,.7962-.28363L34.115,52.16614a.85.85,0,0,0,.31018-.64825.86745.86745,0,0,0-.34454-.6745Z"/><ellipse cx="93.99333" cy="93.6601" rx="1.72928" ry="1.73517"/><path d="M85.57025,73.4635l.0058.00537a1.46459,1.46459,0,0,0,1.88647-.00073,1.15959,1.15959,0,0,0,0-1.78448l-4.0943-3.55737,4.0943-3.55743a1.15875,1.15875,0,0,0,0-1.78369,1.46381,1.46381,0,0,0-1.89227.00464L80.41,67.44562a.9022.9022,0,0,0,.00037,1.36127Z"/><path d="M89.97552,73.71631a1.47994,1.47994,0,0,0,.60645.12952,1.37872,1.37872,0,0,0,1.19324-.64825l5.3631-8.96863a1.12864,1.12864,0,0,0,.108-.92889,1.27269,1.27269,0,0,0-.70441-.76312,1.42762,1.42762,0,0,0-1.80353.52112l-5.35583,8.96863-.00079.00079a1.12582,1.12582,0,0,0-.10876.92651A1.27068,1.27068,0,0,0,89.97552,73.71631Z"/><path d="M64,2.5A61.5,61.5,0,1,0,125.5,64,61.56976,61.56976,0,0,0,64,2.5ZM43.70709,96.506a11.50948,11.50948,0,0,0,2.49408-9.34479h15.9054A11.03022,11.03022,0,0,0,64.72565,96.506Zm30.601-11.77985H19.43018a1.64683,1.64683,0,0,1-1.60638-1.64343v-8.1731H74.30811Zm.5426-46.19446H40.78516a1.184,1.184,0,1,0,0,2.368H74.30811v9.43347H40.78516a1.184,1.184,0,1,0,0,2.368H74.30811v9.43347H40.78516a1.184,1.184,0,1,0,0,2.368H74.30811v8.039h-56.528V32.09674a1.6466,1.6466,0,0,1,1.606-1.64343H88.77a1.69912,1.69912,0,0,1,1.67273,1.71051v4.5379H78.32257A4.0388,4.0388,0,0,0,74.85071,38.53168Zm35.3147,57.71918a1.50323,1.50323,0,0,1-1.64417,1.29578H78.32257a1.50325,1.50325,0,0,1-1.64423-1.29578V89.77356H94.91479l15.25061.01923Zm.05444-8.84528H94.90619l-18.22784-.02295v-38.999h33.5415ZM76.67834,46.01569V40.36548a1.50325,1.50325,0,0,1,1.64423-1.29578h30.25305a1.50329,1.50329,0,0,1,1.64423,1.29578v5.65021Z"/></g></g><g id="SvgjsG4689" featureKey="textGroupContainer" transform="matrix(1,0,0,1,405,0)" fill="#fff"><rect xmlns="http://www.w3.org/2000/svg" y="0" height="1" width="1" opacity="0"/><rect xmlns="http://www.w3.org/2000/svg" y="0" x="-319" width="3" height="162"/></g><g id="SvgjsG4690" featureKey="nameFeature-0" transform="matrix(1.7338473796844482,0,0,1.7338473796844482,99.83876811199082,24.909898130199647)" fill="#fff"><path d="M30.2 24.880000000000003 q0 -3.2 -1.64 -5.8 q-1.56 -2.52 -4.26 -3.96 t-5.86 -1.44 q-3.28 0 -5.98 1.48 t-4.22 4.04 q-1.56 2.68 -1.56 5.96 q0 3.12 1.68 5.76 q1.6 2.48 4.3 3.94 t5.84 1.46 t5.84 -1.52 t4.26 -4.08 q1.6 -2.68 1.6 -5.84 z M34.52 25.119999999999997 q0 4.32 -2.24 7.96 q-2.16 3.48 -5.86 5.54 t-7.98 2.06 q-4.44 0 -8.16 -2.16 q-3.64 -2.08 -5.72 -5.72 q-2.16 -3.72 -2.16 -8.16 q0 -4.28 2.28 -7.88 q2.16 -3.44 5.86 -5.46 t7.94 -2.02 q4.36 0 8.08 2.12 q3.64 2.08 5.76 5.64 q2.2 3.72 2.2 8.08 z M46.666 14.52 l0 9.92 q1.24 -0.72 2.76 -0.96 q1.12 -0.2 2.88 -0.2 l5.68 0 q2.36 0 3.68 -1.08 q1.4 -1.16 1.4 -3.48 q0 -2.2 -1.48 -3.28 q-1.28 -0.92 -3.6 -0.92 l-11.32 0 z M59.426 35.28 l-3.64 -7.64 l-3.48 0 q-1.64 0 -2.88 0.2 q-1.52 0.28 -2.76 0.96 l0 11.2 l-4.36 0 l0 -29.84 l15.68 0 q2.76 0 4.88 1.04 t3.28 2.96 q1.24 2.04 1.24 4.8 q0 3.36 -1.8 5.52 t-5.08 3 l2.32 4.76 q1 1.48 1.56 2.08 q0.68 0.76 1.3 1.02 t1.62 0.26 l0.44 0 l0.96 -0.04 l0 4.44 q-2.32 0 -3.44 -0.16 q-1.88 -0.32 -3.2 -1.24 q-1.56 -1.12 -2.64 -3.32 z M81.172 40 l-4.28 0 l0 -29.84 l4.28 0 l0 29.84 z M116.518 14 l-2.8 3.28 q-1.64 -1.68 -3.92 -2.64 t-4.8 -0.96 q-3.28 0 -5.98 1.48 t-4.22 4.04 q-1.56 2.68 -1.56 5.96 q0 3.12 1.68 5.76 q1.6 2.48 4.3 3.94 t5.82 1.46 q2.2 0 4.22 -0.76 t3.62 -2.12 l0 -5.44 l-3.84 0 l-1.88 -4.32 l10.04 0 l0 11.6 q-2.28 2.56 -5.46 3.98 t-6.74 1.42 q-4.44 0 -8.16 -2.16 q-3.64 -2.08 -5.72 -5.72 q-2.16 -3.72 -2.16 -8.16 q0 -4.28 2.28 -7.88 q2.16 -3.44 5.86 -5.46 t7.94 -2.02 q3.32 0 6.32 1.28 q2.92 1.2 5.16 3.44 z M129.864 40 l-4.28 0 l0 -29.84 l4.28 0 l0 29.84 z M140.53 14.36 l-3.48 -4.2 l5.64 0 l19.16 22.8 l0 -22.8 l4.4 0 l0 29.84 l-4.32 0 l-17.12 -20.52 l0 20.52 l-4.28 0 l0 -25.64 z"/></g><g id="SvgjsG4691" featureKey="sloganFeature-0" transform="matrix(1.3903193473815918,0,0,1.3903193473815918,103.24922826520094,94.35015197686585)" fill="#fff"><path d="M0.54 19.7 l0 -2.82 c0.24 0.06 0.54 0.12 0.88 0.16 c0.34 0.06 0.7 0.1 1.08 0.12 s0.76 0.04 1.16 0.06 s0.78 0.04 1.12 0.04 c0.94 0 1.6 -0.06 2 -0.16 c0.38 -0.1 0.58 -0.28 0.58 -0.56 c0 -0.24 -0.18 -0.42 -0.36 -0.56 c-0.66 -0.44 -1.44 -0.62 -2.22 -0.8 c-2.2 -0.44 -4.22 -1.32 -4.22 -3.84 c0 -2.98 2.82 -3.68 5.24 -3.68 c1.34 0 2.7 0.14 4 0.46 l0 2.82 c-0.2 -0.06 -0.46 -0.1 -0.78 -0.16 c-0.34 -0.04 -0.68 -0.08 -1.06 -0.12 c-0.78 -0.08 -1.52 -0.12 -2.3 -0.12 c-0.44 0 -1.36 0 -1.78 0.16 c-0.28 0.1 -0.46 0.22 -0.46 0.54 c0 0.16 0.04 0.3 0.12 0.42 c0.08 0.14 0.22 0.24 0.4 0.34 c0.54 0.3 1.24 0.48 1.84 0.62 c0.5 0.12 1 0.26 1.52 0.4 c1.76 0.48 2.92 1.46 2.92 3.34 c0 3.1 -3.08 3.76 -5.56 3.76 c-1.36 0 -2.78 -0.1 -4.12 -0.42 z M19.354 17.32 c2.18 0 3.3 -1.4 3.3 -3.44 c0 -2.16 -1.2 -3.44 -3.3 -3.44 c-2.2 0 -3.3 1.4 -3.3 3.44 c0 2.12 1.22 3.44 3.3 3.44 z M19.354 20.1 c-3.76 0 -6.3 -2.56 -6.3 -6.22 c0 -3.78 2.66 -6.22 6.3 -6.22 c3.78 0 6.3 2.54 6.3 6.22 c0 3.8 -2.64 6.22 -6.3 6.22 z M29.108 7.76 l9.1 0 l0 2.78 l-6.1 0 l0 1.96 l4.9 0 l0 2.78 l-4.9 0 l0 4.72 l-3 0 l0 -12.24 z M40.782000000000004 7.76 l10.2 0 l0 2.78 l-3.6 0 l0 9.46 l-3 0 l0 -9.46 l-3.6 0 l0 -2.78 z M66.896 7.76 l2.92 0 l-2.26 12.24 l-4.44 0 l-1.6 -7.14 l-1.7 7.14 l-4.68 0 l-1.98 -12.24 l3.06 0 l1.38 9.16 l1.8 -7.14 l4.26 0 l1.72 7.14 z M80.29 17.52 l-4.5 0 l-0.88 2.48 l-3.26 0 l4.9 -12.24 l3 0 l4.9 12.24 l-3.28 0 z M76.77000000000001 14.74 l2.54 0 l-1.26 -3.56 z M90.26400000000001 10.58 l0 2.92 l2.8 0 c0.92 0 1.46 -0.54 1.46 -1.46 s-0.54 -1.46 -1.46 -1.46 l-2.8 0 z M94.804 15.48 c0.56 0.76 1.12 1.52 1.7 2.26 c0.56 0.74 1.12 1.5 1.68 2.26 l-3.66 0 c-0.72 -0.96 -1.42 -1.92 -2.12 -2.88 c-0.7 -0.94 -1.42 -1.9 -2.14 -2.86 l0 5.74 l-3 0 l0 -12.24 l5.8 0 c2.28 0 4.22 1.74 4.22 4.04 c0 1.62 -1 3.04 -2.48 3.68 z M101.03800000000001 7.76 l9.1 0 l0 2.78 l-6.1 0 l0 1.96 l4.9 0 l0 2.78 l-4.9 0 l0 1.94 l6.1 0 l0 2.78 l-9.1 0 l0 -12.24 z M123.72600000000001 20 l-4.3 0 l0 -12.24 l4.3 0 c3.74 0 6.3 2.44 6.3 6.12 c0 3.78 -2.7 6.12 -6.3 6.12 z M122.42600000000002 10.54 l0 6.68 l1.3 0 c2.12 0 3.3 -1.34 3.3 -3.34 c0 -0.46 -0.06 -0.88 -0.18 -1.3 c-0.52 -1.46 -1.66 -2.04 -3.12 -2.04 l-1.3 0 z M133.48 7.76 l9.1 0 l0 2.78 l-6.1 0 l0 1.96 l4.9 0 l0 2.78 l-4.9 0 l0 1.94 l6.1 0 l0 2.78 l-9.1 0 l0 -12.24 z M154.334 7.76 l3.28 0 l-4.9 12.24 l-3 0 l-4.9 -12.24 l3.26 0 l3.14 8.82 z M164.008 18.38 c0 1.02 -0.7 1.72 -1.72 1.72 s-1.74 -0.68 -1.74 -1.72 c0 -1.02 0.72 -1.74 1.74 -1.74 c1.06 0 1.72 0.68 1.72 1.74 z"/></g>
			</g>
		</svg>
	