<?xml version="1.0" encoding="utf-8"?>
<!-- Generator: Adobe Illustrator 26.1.0, SVG Export Plug-In . SVG Version: 6.00 Build 0)  -->
<svg version="1.1" id="Layer_1" xmlns="http://www.w3.org/2000/svg" xmlns:xlink="http://www.w3.org/1999/xlink" x="0px" y="0px"
	 viewBox="0 0 50 50" style="enable-background:new 0 0 50 50;" xml:space="preserve">
<style type="text/css">
	.st0{fill:#EBEBEB;}
	.st1{fill:#F5F5F5;}
	.st2{fill:#E0E0E0;}
	.st3{fill:#FFFFFF;}
	.st4{fill:#FAFAFA;}
	.st5{fill:#263238;}
	.st6{fill:#455A64;}
	.st7{fill:#FF6A27;}
	.st8{opacity:0.2;}
	.st9{opacity:0.3;}
	.st10{fill:#FFBE9D;}
	.st11{fill:#FFE6E6;}
</style>
<g id="freepik--background-complete--inject-25">
	<path class="st0" d="M46.7,4.9c-0.1-0.6-0.5-1.1-0.9-1.5s-1-0.7-1.6-0.8c-1-0.1-2,0.5-2.4,1.4c-0.2-0.3-0.4-0.5-0.7-0.7
		c-0.6-0.3-1.2-0.4-1.8-0.2s-1,0.6-1.4,1.1c-0.4,0.6-0.6,1.2-0.6,1.8c0,0.8,0.2,1.5,0.7,2.2c0.5,0.6,1.2,1.1,1.9,1.5
		c1.2,0.6,2.8,1.3,2.8,1.3s1.2-1.1,2.2-1.9c0.6-0.5,1.2-1.1,1.6-1.8C46.8,6.5,46.8,5.7,46.7,4.9z"/>
	<path class="st0" d="M51.9,0.1c0-0.4-0.1-0.7-0.3-1s-0.4-0.5-0.8-0.7c-0.5-0.2-1.1,0-1.5,0.5C49.1-1.6,48.6-2,48-2
		c-0.3,0-0.7,0.2-0.9,0.4c-0.3,0.2-0.5,0.5-0.6,0.9s-0.1,0.9,0,1.3C46.7,1,47,1.4,47.4,1.7c0.6,0.5,1.4,1.2,1.4,1.2s0.8-0.4,1.6-0.7
		c0.4-0.2,0.9-0.4,1.2-0.8C51.7,1,51.9,0.6,51.9,0.1z"/>
	<path class="st0" d="M50.3,12.3c-0.1-0.2-0.2-0.5-0.4-0.7s-0.4-0.3-0.7-0.3c-0.4,0-0.9,0.2-1,0.6c-0.2-0.3-0.7-0.5-1.1-0.4
		c-0.2,0.1-0.4,0.2-0.6,0.5c-0.2,0.2-0.2,0.5-0.3,0.7c0,0.3,0.1,0.7,0.3,0.9c0.2,0.3,0.5,0.5,0.8,0.6c0.5,0.3,1.2,0.6,1.2,0.6
		s0.5-0.5,1-0.8c0.3-0.2,0.5-0.5,0.7-0.8C50.3,13,50.4,12.7,50.3,12.3z"/>
	<rect x="2.1" y="36.7" class="st1" width="19.2" height="8.9"/>
	<path class="st2" d="M20.9,45.2H2.6v-8h18.3V45.2L20.9,45.2z M2.7,45.1h18.1v-7.8H2.7V45.1z"/>
	<rect x="21.3" y="36.7" class="st2" width="4.7" height="8.9"/>
	<path class="st2" d="M2.6,39.7h18.2l0,0l0,0H2.6C2.6,39.6,2.6,39.6,2.6,39.7L2.6,39.7z"/>
	<path class="st2" d="M11.8,39.6c0-0.8,0.1-1.6,0-2.4l0,0l0,0C11.7,38,11.7,38.8,11.8,39.6L11.8,39.6L11.8,39.6z"/>
	<path class="st2" d="M16.7,38.4c0,0.1-0.1,0.2-0.2,0.2s-0.2-0.1-0.2-0.2c0-0.1,0.1-0.2,0.2-0.2S16.7,38.3,16.7,38.4L16.7,38.4z"/>
	<path class="st2" d="M7.1,38.4c0,0.1-0.1,0.2-0.2,0.2s-0.2-0.1-0.2-0.2c0-0.1,0.1-0.2,0.2-0.2S7.1,38.3,7.1,38.4L7.1,38.4z"/>
	<path class="st2" d="M12,41.2c0,0.1-0.1,0.2-0.2,0.2c-0.1,0-0.2-0.1-0.2-0.2c0-0.1,0.1-0.2,0.2-0.2l0,0C11.9,40.9,12,41.1,12,41.2z
		"/>
	<polygon class="st2" points="4.4,45.6 3.5,51.2 4,51.2 5.8,45.6 	"/>
	<polygon class="st2" points="20,45.6 20.8,51.2 20.3,51.2 18.6,45.6 	"/>
	<polygon class="st2" points="23.7,45.6 24.6,51.2 24.1,51.2 22.3,45.6 	"/>
	<path class="st2" d="M12,43.7c0,0.1-0.1,0.2-0.2,0.2c-0.1,0-0.2-0.1-0.2-0.2c0-0.1,0.1-0.2,0.2-0.2l0,0C11.9,43.5,12,43.6,12,43.7z
		"/>
	<path class="st2" d="M2.6,42.4h18.2l0,0l0,0H2.6L2.6,42.4L2.6,42.4z"/>
	
		<rect x="9.7" y="32.5" transform="matrix(1 -5.266965e-03 5.266965e-03 1 -0.1742 6.682467e-02)" class="st2" width="5.8" height="1.2"/>
	
		<rect x="9.8" y="34.9" transform="matrix(1 -5.266965e-03 5.266965e-03 1 -0.1884 6.923236e-02)" class="st1" width="6.5" height="1.8"/>
	<path class="st2" d="M15,36.7c0-0.3,0-0.6,0-0.9c0-0.3,0-0.6,0-0.9c0,0.3,0,0.6,0,0.9C15,36.1,15,36.4,15,36.7z"/>
	<path class="st2" d="M15.3,36.7c0-0.3,0-0.6,0-0.9c0-0.3,0-0.6,0-0.9c0,0.3,0,0.6,0,0.9C15.3,36.1,15.3,36.4,15.3,36.7z"/>
	<path class="st2" d="M10.8,36.7c0-0.3,0-0.6,0-0.9c0-0.3,0-0.6,0-0.9c0,0.3,0,0.6,0,0.9C10.8,36.1,10.8,36.4,10.8,36.7z"/>
	<path class="st2" d="M11,36.7c0-0.3,0-0.6,0-0.9c0-0.3,0-0.6,0-0.9c0,0.3,0,0.6,0,0.9C11.1,36.1,11.1,36.4,11,36.7z"/>
	<path class="st2" d="M11.6,35.8c0,0,0.7,0,1.5,0s1.5,0,1.5,0s-0.7,0-1.5,0S11.6,35.8,11.6,35.8z"/>
	
		<rect x="10.7" y="33.7" transform="matrix(1 -5.266965e-03 5.266965e-03 1 -0.1805 7.790205e-02)" class="st0" width="8" height="1.2"/>
	<path class="st2" d="M17.5,34.7c-0.2,0-0.4-0.2-0.4-0.4s0.2-0.4,0.4-0.4c0.2,0,0.4,0.2,0.4,0.4l0,0C17.9,34.5,17.7,34.7,17.5,34.7
		L17.5,34.7z"/>
	<rect x="11.2" y="34.2" class="st2" width="5.3" height="0.2"/>
	<rect x="4" y="-1.6" class="st2" width="11.5" height="16.7"/>
	<rect x="3.4" y="-1.6" class="st1" width="11.5" height="16.7"/>
	<rect x="4.8" y="0.2" class="st3" width="8.6" height="13.1"/>
	<path class="st2" d="M13.4,13.3L13.4,13.3c0-0.1,0-0.2,0-0.3c0-0.2,0-0.4,0-0.7c0-0.6,0-1.5,0-2.7c0-2.3,0-5.6,0-9.4l0,0H4.8l0,0
		l0,0c0,4.9,0,9.5,0,13.1l0,0h6.3h1.7L13.4,13.3C13.4,13.3,13.4,13.3,13.4,13.3h-0.1h-0.4h-1.7H4.9l0,0l0,0c0-3.6,0-8.2,0-13.1l0,0
		l0,0h8.6l0,0l0,0c0,3.9,0,7.1,0,9.5c0,1.2,0,2.1,0,2.7c0,0.3,0,0.5,0,0.7C13.4,13.1,13.4,13.1,13.4,13.3
		C13.4,13.2,13.4,13.3,13.4,13.3z"/>
	<path class="st2" d="M14.9-1.6c-0.1,0.1-0.1,0.2-0.2,0.3c-0.1,0.2-0.3,0.4-0.5,0.7s-0.4,0.5-0.6,0.7c-0.1,0.1-0.2,0.2-0.2,0.3
		c0.1-0.1,0.1-0.2,0.2-0.3l0.6-0.7c0.1-0.3,0.3-0.6,0.5-0.8C14.7-1.5,14.8-1.6,14.9-1.6z"/>
	<path class="st3" d="M13.5,13.2c0.4,0.7,0.9,1.3,1.5,1.9"/>
	<path class="st2" d="M15,15.1c-0.1-0.1-0.2-0.2-0.3-0.2c-0.4-0.4-0.8-0.9-1.1-1.3c-0.1-0.1-0.1-0.2-0.2-0.3
		c0.1,0.1,0.2,0.2,0.2,0.3c0.1,0.2,0.3,0.4,0.5,0.7s0.4,0.5,0.5,0.7C14.8,14.9,14.9,15,15,15.1z"/>
	<path class="st3" d="M3.4,15.1l1.5-1.9"/>
	<path class="st2" d="M4.9,13.2c-0.2,0.3-0.5,0.6-0.7,1c-0.2,0.3-0.5,0.6-0.8,0.9c0.2-0.3,0.5-0.6,0.7-1C4.4,13.8,4.6,13.5,4.9,13.2
		z"/>
	<path class="st2" d="M3.4-1.6C3.7-1.3,3.9-1,4.1-0.7c0.3,0.2,0.5,0.5,0.7,0.9C4.5-0.1,4.3-0.4,4.1-0.7C3.8-1,3.6-1.3,3.4-1.6z"/>
	<rect x="7.9" y="2.8" class="st2" width="2.9" height="8.2"/>
	<rect x="41.7" y="17.2" class="st2" width="8.3" height="8.7"/>
	<rect x="41.1" y="17.2" class="st4" width="8.3" height="8.7"/>
	<path class="st2" d="M49.5,25.9h-8.3v-8.7h8.3V25.9z M41.1,25.9h8.3v-8.7h-8.3V25.9z"/>
	<rect x="42.3" y="18.4" class="st3" width="6.1" height="6.4"/>
	<path class="st2" d="M42.3,24.8c0,0.1-0.1,0.1-0.2,0.2c-0.1,0.1-0.2,0.2-0.4,0.4c-0.2,0.2-0.3,0.3-0.4,0.4c0,0.1-0.1,0.1-0.2,0.1
		c0-0.1,0.1-0.1,0.2-0.2c0.1-0.1,0.2-0.2,0.4-0.4c0.2-0.2,0.3-0.3,0.4-0.4C42.1,24.9,42.2,24.9,42.3,24.8z"/>
	<path class="st2" d="M48.4,24.8c0.1,0,0.1,0.1,0.2,0.2c0.1,0.1,0.2,0.2,0.4,0.4c0.2,0.2,0.3,0.3,0.4,0.4c0.1,0,0.1,0.1,0.1,0.2
		c-0.1-0.1-0.2-0.2-0.2-0.2c-0.1-0.1-0.2-0.2-0.4-0.4c-0.2-0.2-0.3-0.3-0.4-0.4C48.4,24.9,48.4,24.9,48.4,24.8z"/>
	<path class="st2" d="M48.3,18.4c0-0.1,0.1-0.1,0.2-0.2c0.1-0.1,0.2-0.2,0.4-0.4c0.2-0.2,0.3-0.3,0.4-0.4c0-0.1,0.1-0.1,0.2-0.1
		c0,0.1-0.1,0.1-0.2,0.2c-0.1,0.1-0.2,0.2-0.4,0.4s-0.3,0.3-0.4,0.4C48.5,18.3,48.4,18.4,48.3,18.4z"/>
	<path class="st2" d="M42.2,18.4c-0.1,0-0.1-0.1-0.2-0.2c-0.1-0.1-0.2-0.2-0.4-0.4c-0.2-0.2-0.3-0.3-0.4-0.4c-0.1,0-0.1-0.1-0.1-0.2
		c0.1,0,0.1,0.1,0.2,0.2c0.1,0.1,0.2,0.2,0.4,0.4s0.3,0.3,0.4,0.4C42.2,18.3,42.2,18.4,42.2,18.4z"/>
	<path class="st2" d="M48.3,24.8C48.3,24.8,48.3,24.7,48.3,24.8c0-0.1,0-0.1,0-0.1c0-0.1,0-0.2,0-0.3c0-0.3,0-0.7,0-1.3
		c0-1.1,0-2.7,0-4.6l0,0h-6l0,0l0,0c0,2.3,0,4.5,0,6.4l0,0h4.4h1.2L48.3,24.8L48.3,24.8h-0.4h-1.2h-4.4l0,0l0,0c0-1.8,0-4,0-6.4l0,0
		l0,0h6l0,0l0,0c0,1.9,0,3.5,0,4.6c0,0.6,0,1,0,1.3c0,0.1,0,0.3,0,0.3C48.3,24.7,48.3,24.7,48.3,24.8C48.3,24.7,48.3,24.8,48.3,24.8
		z"/>
	<rect x="44.3" y="20.6" class="st0" width="2" height="2"/>
</g>
<g id="freepik--Plant--inject-25">
	<rect x="20.5" y="29" class="st5" width="8.1" height="1.1"/>
	<path class="st5" d="M20.5,29h8.2v1.2h-8.2V29z M28.7,29h-8.1v1.1h8.1V29z"/>
	<polygon class="st5" points="27.9,29.8 26.8,35.6 22.4,35.6 21.3,30.1 	"/>
	<polygon class="st6" points="27.9,35 27.3,35.9 22,35.9 21.3,35 	"/>
	<path class="st5" d="M24.9,29.9c0,0,0-2.7,0-6s0-6,0-6s0,2.7,0,6S24.9,29.9,24.9,29.9z"/>
	<path class="st5" d="M23.1,23.2L23.1,23.2l0.1,0.2l0.1,0.1c0,0,0,0.1,0.1,0.2s0,0.1,0.1,0.2s0,0.1,0.1,0.2c0.1,0.3,0.2,0.7,0.2,1
		c0.1,0.4,0.1,0.8,0.1,1.2c0,0.8,0,1.5-0.1,2.3c0,0.3-0.1,0.5-0.1,0.7c0,0.1,0,0.1,0,0.2c0,0,0,0,0,0.1c0,0,0,0,0-0.1v-0.2
		c0-0.2,0.1-0.4,0.1-0.7c0.1-0.8,0.1-1.5,0.1-2.3c0-0.4-0.1-0.8-0.1-1.3c-0.1-0.3-0.1-0.7-0.2-1c0-0.1,0-0.1-0.1-0.2
		c0-0.1,0-0.1-0.1-0.2l-0.1-0.2c0,0,0-0.1-0.1-0.1C23.2,23.3,23.2,23.3,23.1,23.2L23.1,23.2z"/>
	<path class="st5" d="M23.3,21C23.3,21.1,23.3,21.1,23.3,21l0.1,0.3l0.1,0.2c0,0.1,0,0.1,0.1,0.2c0,0.2,0.1,0.3,0.2,0.5l0.1,0.3
		c0,0.1,0,0.2,0.1,0.3c0.1,0.2,0.1,0.5,0.2,0.8c0.1,0.5,0.2,1.1,0.2,1.8s0.1,1.2,0.1,1.8c0,0.5,0,1,0,1.4c0,0.2,0,0.4,0,0.5
		c0,0.2,0,0.3,0,0.4s0,0.2,0,0.3v0.1v-0.1c0-0.1,0-0.2,0-0.3s0-0.3,0-0.4c0-0.2,0-0.3,0-0.5c0-0.4,0-0.9,0-1.4s0-1.1-0.1-1.8
		c-0.1-0.6-0.1-1.2-0.2-1.8c-0.1-0.3-0.1-0.5-0.2-0.8c0-0.1-0.1-0.2-0.1-0.3l-0.1-0.3c0-0.2-0.1-0.4-0.2-0.5c0-0.1,0-0.1-0.1-0.2
		s0-0.1-0.1-0.2L23.3,21C23.4,21.1,23.3,21.1,23.3,21z"/>
	<path class="st5" d="M25.4,30.4L25.4,30.4C25.4,30.3,25.4,30.3,25.4,30.4c0-0.2,0-0.3,0-0.5c0-0.3,0-0.8,0.1-1.3
		c0.1-1.1,0.2-2.6,0.4-4.3c0.1-0.8,0.2-1.6,0.3-2.4c0.1-0.4,0.1-0.7,0.2-1s0.1-0.6,0.2-0.9s0.1-0.5,0.2-0.7c0-0.2,0.1-0.4,0.1-0.5
		s0.1-0.3,0.1-0.3v-0.1l0,0l0,0c0,0,0,0,0,0.1s-0.1,0.2-0.1,0.3s-0.1,0.3-0.1,0.5s-0.1,0.5-0.2,0.7c0,0.3-0.1,0.6-0.2,0.9
		s-0.1,0.7-0.2,1c-0.1,0.7-0.2,1.5-0.3,2.4c-0.2,1.7-0.3,3.2-0.3,4.3c0,0.6,0,1-0.1,1.3C25.5,30.1,25.5,30.2,25.4,30.4L25.4,30.4
		L25.4,30.4z"/>
	<path class="st7" d="M25,19.2c0-0.4,0.4-0.7,0.8-0.7s0.7,0.2,1,0.5c0.2,0.3,0.4,0.7,0.5,1c0.3,0.9,0.4,1.8,0.3,2.8
		c-0.1,0.9-0.5,1.8-1.1,2.5c-0.1,0.1-0.2,0.2-0.4,0.2c-0.1,0-0.2-0.1-0.2-0.1c-1.3-1.2-2-2.9-2-4.7c0-0.4,0.1-0.7,0.2-1
		C24.2,19.4,24.7,19.1,25,19.2"/>
	<path class="st7" d="M27.8,16.1l0.5,1c0,0,0,0,0.1,0c0,0,0,0,0.1,0l1.4-2.2l-0.3-0.2L27.8,16.1z"/>
	<g class="st8">
		<path d="M27.8,16.1l0.5,1c0,0,0,0,0.1,0c0,0,0,0,0.1,0l1.4-2.2l-0.3-0.2L27.8,16.1z"/>
	</g>
	<path class="st7" d="M25,17.9l4.8-2.9l0.1-0.1c0-0.1,0-0.1-0.1-0.2c-0.7-0.7-1.6-1.1-2.6-1s-1.8,0.6-2.3,1.5
		C24.4,16,24.4,17.1,25,17.9"/>
	<path class="st5" d="M29.1,14.1L29.1,14.1c-0.1,0-0.2,0-0.2,0c-0.2,0-0.4,0-0.7,0.1s-0.7,0.2-1,0.3c-0.8,0.3-1.4,0.9-1.8,1.6
		c-0.2,0.3-0.3,0.6-0.4,0.9c-0.1,0.2-0.1,0.4-0.1,0.7c0,0.1,0,0.1,0,0.1v0.1c0-0.1,0-0.2,0-0.2c0-0.2,0.1-0.4,0.1-0.7
		c0.4-1.5,1.6-2.6,3.1-2.8c0.2,0,0.4-0.1,0.7-0.1C29,14.1,29.1,14.1,29.1,14.1z"/>
	<path class="st5" d="M25.6,15.9c0.1,0,0.2,0.1,0.2,0.1c0.2,0.1,0.4,0.1,0.6,0.2s0.5,0.1,0.6,0.2c0.1,0,0.2,0,0.3,0
		c-0.1,0-0.2-0.1-0.2-0.1l-0.6-0.2L25.9,16C25.8,16,25.7,15.9,25.6,15.9z"/>
	<path class="st5" d="M26.4,13.9c0,0.2-0.1,0.4-0.1,0.5c0,0.2,0,0.4,0,0.5c0-0.2,0-0.4,0-0.5C26.4,14.2,26.4,14,26.4,13.9z"/>
	<path class="st5" d="M29.8,15c-0.1,0-0.2-0.1-0.4-0.1c-0.2-0.1-0.5-0.2-0.9-0.2c-0.3-0.1-0.7-0.1-0.9-0.2c-0.1,0-0.2,0-0.4,0
		c0.1,0,0.2,0.1,0.4,0.1s0.5,0.1,0.9,0.2c0.3,0.1,0.7,0.2,0.9,0.2C29.6,14.9,29.7,15,29.8,15z"/>
	<path class="st7" d="M27,18.4c0.4-0.3,0.9-0.4,1.4-0.4s1,0.2,1.5,0.4c0.8,0.4,1.6,0.9,2.1,1.6s0.7,1.7,0.3,2.6
		c0,0.1-0.1,0.2-0.2,0.2c-0.1,0-0.2,0-0.3,0c-0.9-0.3-1.9-0.6-2.7-1.1s-1.6-1.1-2.1-2c-0.1-0.2-0.2-0.4-0.2-0.7
		C26.8,18.8,26.8,18.6,27,18.4"/>
	<path class="st5" d="M27,18.3L27,18.3l0.3,0.1h0.1c0,0,0.1,0,0.2,0.1c0.1,0,0.2,0.1,0.4,0.2l0.2,0.1c0.1,0,0.2,0.1,0.2,0.1
		c0.2,0.1,0.3,0.2,0.5,0.3c0.8,0.5,1.5,1.1,2,1.8c0.1,0.2,0.3,0.3,0.4,0.5c0,0.1,0.1,0.2,0.2,0.2l0.1,0.2c0.1,0.1,0.2,0.3,0.2,0.4
		s0.1,0.1,0.1,0.2l0.1,0.1c0,0.1,0.1,0.1,0.1,0.2c0,0,0,0,0,0.1c0,0,0,0,0-0.1L32,22.6c0,0,0-0.1-0.1-0.1c0,0,0-0.1-0.1-0.2
		s-0.1-0.2-0.2-0.4l-0.1-0.2c0-0.1-0.1-0.1-0.2-0.2c-0.1-0.2-0.2-0.3-0.4-0.5c-0.3-0.4-0.6-0.7-0.9-1s-0.7-0.6-1.1-0.8
		c-0.2-0.1-0.4-0.2-0.5-0.3c-0.1,0-0.2-0.1-0.2-0.1L28,18.6c-0.1-0.1-0.3-0.1-0.4-0.2c-0.1,0-0.1,0-0.2-0.1h-0.1H27L27,18.3z"/>
	<path class="st5" d="M30.2,20.1c0.3,0.1,0.7,0.2,1,0.3c0.3,0.1,0.7,0.2,1,0.3c-0.3-0.1-0.7-0.2-1-0.3
		C30.9,20.2,30.6,20.1,30.2,20.1z"/>
	<path class="st5" d="M30.3,22.3c0-0.1,0-0.2,0-0.3c0-0.2,0-0.5,0-0.8s0-0.6,0-0.8c0-0.1,0-0.2,0-0.3c0,0.1,0,0.2,0,0.3
		c0,0.2,0,0.5,0,0.8s0,0.5,0,0.8C30.3,22.1,30.3,22.2,30.3,22.3z"/>
	<path class="st5" d="M28.4,21.3c0,0,0.1-0.5,0.1-1.2s0.1-1.2,0.1-1.2s-0.1,0.5-0.1,1.2C28.4,20.8,28.4,21.3,28.4,21.3z"/>
	<path class="st5" d="M30.8,18.8c-0.1,0-0.2,0-0.3,0c-0.2,0-0.5,0-0.8,0s-0.6,0-0.8,0c-0.1,0-0.2,0-0.3,0c0.1,0,0.2,0,0.3,0
		c0.2,0,0.5,0,0.8,0s0.6,0,0.8,0C30.5,18.8,30.7,18.8,30.8,18.8z"/>
	<path class="st5" d="M26.2,25.5L26.2,25.5c0-0.1,0-0.2,0-0.3c0-0.2,0-0.4,0-0.7c0-0.3,0-0.6-0.1-1c0-0.4-0.1-0.8-0.2-1.2
		s-0.2-0.8-0.3-1.2c-0.1-0.4-0.2-0.7-0.3-1s-0.2-0.5-0.2-0.6L25,19.3c0,0,0,0,0-0.1c0,0,0,0,0,0.1c0,0,0,0.1,0.1,0.2
		c0.1,0.2,0.1,0.4,0.2,0.7c0.1,0.3,0.2,0.6,0.3,1c0.1,0.4,0.2,0.8,0.3,1.2s0.1,0.9,0.2,1.2s0.1,0.7,0.1,1s0,0.5,0,0.7
		C26.2,25.3,26.2,25.4,26.2,25.5L26.2,25.5z"/>
	<path class="st5" d="M25.9,22.3c0.1,0.1,0.1,0.2,0.2,0.2c0.1,0.1,0.3,0.3,0.5,0.5s0.4,0.3,0.5,0.4s0.2,0.1,0.2,0.2
		c-0.1-0.1-0.1-0.1-0.2-0.2L26.6,23l-0.5-0.5C26.1,22.4,26,22.4,25.9,22.3z"/>
	<path class="st5" d="M24.4,23.6c0.1-0.1,0.1-0.2,0.2-0.3l0.5-0.7l0.5-0.7c0.1-0.1,0.1-0.2,0.2-0.3c-0.1,0.1-0.2,0.2-0.2,0.3
		c-0.1,0.2-0.3,0.4-0.5,0.7c-0.2,0.3-0.4,0.5-0.5,0.7C24.5,23.4,24.4,23.4,24.4,23.6z"/>
	<path class="st5" d="M25.2,19.6c0,0,0.5,0.4,1.1,0.8s1.2,0.7,1.2,0.7s-0.5-0.4-1.1-0.8C25.7,20,25.2,19.6,25.2,19.6z"/>
	<path class="st5" d="M23.7,21.2c0.3-0.2,0.5-0.5,0.8-0.7s0.5-0.5,0.7-0.8c-0.3,0.2-0.5,0.5-0.8,0.7C24.2,20.7,24,20.9,23.7,21.2z"
		/>
	<path class="st7" d="M23.4,21.2H23c-0.3,0-0.6-0.1-0.9-0.3c-0.1-0.1-0.3-0.1-0.4-0.2c-0.5-0.2-1.1-0.2-1.7-0.2
		c-0.9,0-1.9-0.3-2.7-0.7l-0.1-0.1c-0.1-0.2,0.1-0.3,0.2-0.4c0.7-0.5,1.5-0.9,2.3-1.1s1.8-0.2,2.5,0.3C22.9,19,23.2,20.2,23.4,21.2"
		/>
	<path class="st5" d="M17.1,19.6L17.1,19.6l0.3-0.1c0.2-0.1,0.4-0.2,0.8-0.4c0.4-0.2,0.8-0.3,1.2-0.5c0.5-0.1,1-0.2,1.5-0.1
		s1,0.3,1.4,0.6c0.3,0.3,0.6,0.6,0.7,1c0.1,0.3,0.2,0.5,0.3,0.8c0,0.1,0.1,0.2,0.1,0.2s0,0,0,0.1v-0.1c0-0.1,0-0.1-0.1-0.2
		c-0.1-0.3-0.2-0.5-0.3-0.8c-0.2-0.4-0.4-0.8-0.7-1c-0.4-0.3-0.9-0.6-1.4-0.6c-0.5-0.1-1.1,0-1.6,0.1c-0.4,0.1-0.8,0.3-1.2,0.5
		c-0.3,0.2-0.6,0.3-0.8,0.4L17.1,19.6L17.1,19.6z"/>
	<path class="st5" d="M18.1,20.1c0,0,0.6-0.4,1.3-0.8c0.7-0.5,1.3-0.9,1.2-0.9s-0.6,0.4-1.3,0.8C18.6,19.7,18.1,20.1,18.1,20.1z"/>
	<path class="st5" d="M18.7,18.4c0.3,0.1,0.6,0.1,0.8,0.1c-0.1,0-0.3,0-0.4,0C19,18.4,18.9,18.4,18.7,18.4z"/>
	<path class="st5" d="M21.2,18.1c0,0.1,0.1,0.2,0.2,0.3c0.1,0.1,0.1,0.2,0.2,0.3c0-0.1-0.1-0.2-0.2-0.3
		C21.4,18.3,21.3,18.2,21.2,18.1z"/>
	<path class="st5" d="M20.7,20.5c0.1,0,0.2-0.1,0.3-0.2c0.2-0.1,0.4-0.3,0.6-0.4s0.4-0.3,0.6-0.5c0.1-0.1,0.2-0.1,0.2-0.2
		c-0.1,0-0.2,0.1-0.3,0.2c-0.2,0.1-0.4,0.3-0.6,0.4s-0.5,0.3-0.6,0.4C20.9,20.4,20.8,20.4,20.7,20.5z"/>
	<path class="st7" d="M22.7,23c0.4-0.1,0.9,0.3,1,0.7c0.1,0.4-0.1,0.9-0.3,1.2c-0.4,0.9-1,1.7-1.7,2.3s-1.7,1-2.6,1
		c0.2-0.8,0-1.7,0-2.5c0.2-1.5,1.4-2.7,2.9-2.9C22.3,22.8,22.6,22.8,22.7,23"/>
	<path class="st5" d="M19.1,28.3L19.1,28.3c0.1-0.1,0.2-0.1,0.2-0.1c0.2-0.2,0.3-0.3,0.4-0.5c0.1-0.1,0.1-0.3,0.2-0.4
		c0.1-0.2,0.1-0.3,0.2-0.5s0.2-0.4,0.3-0.5c0.1-0.2,0.2-0.4,0.4-0.5c0.3-0.3,0.6-0.6,0.9-0.9c0.2-0.2,0.5-0.5,0.7-0.8
		c0.1-0.2,0.2-0.4,0.3-0.6c0-0.1,0-0.1,0.1-0.2c0,0,0,0,0-0.1c0,0,0,0.1-0.1,0.2c-0.1,0.2-0.2,0.4-0.3,0.6c-0.2,0.3-0.4,0.5-0.7,0.8
		c-0.3,0.3-0.6,0.6-0.9,0.9c-0.1,0.2-0.3,0.3-0.4,0.5s-0.2,0.4-0.3,0.5l-0.2,0.5c-0.1,0.2-0.1,0.3-0.2,0.4c-0.1,0.2-0.2,0.4-0.4,0.6
		C19.2,28.2,19.1,28.3,19.1,28.3z"/>
	<path class="st5" d="M21.3,27.6c0-0.1,0-0.2,0-0.3c0-0.2-0.1-0.4-0.2-0.7c-0.1-0.3-0.2-0.5-0.2-0.7c0-0.1-0.1-0.2-0.1-0.3
		c0,0.1,0,0.2,0.1,0.3c0,0.2,0.1,0.4,0.2,0.7c0.1,0.3,0.1,0.5,0.2,0.7C21.2,27.4,21.2,27.5,21.3,27.6z"/>
	<path class="st5" d="M19.2,25.6c0.1,0,0.2,0,0.3-0.1c0.2,0,0.4-0.1,0.7-0.2c0.3-0.1,0.5-0.1,0.7-0.1c0.1,0,0.2,0,0.3-0.1
		c-0.1,0-0.2,0-0.3,0c-0.2,0-0.4,0.1-0.7,0.1c-0.3,0.1-0.5,0.1-0.7,0.2C19.4,25.5,19.3,25.5,19.2,25.6z"/>
	<path class="st5" d="M22.8,26.1c0-0.1,0-0.2,0-0.3c0-0.2-0.1-0.5-0.2-0.8s-0.2-0.6-0.2-0.8c0-0.1-0.1-0.2-0.1-0.3
		c0,0.1,0,0.2,0.1,0.3c0.1,0.2,0.1,0.5,0.2,0.8s0.1,0.6,0.2,0.8C22.8,25.9,22.8,26,22.8,26.1z"/>
	<path class="st5" d="M20.2,23.8c0,0,0.5,0,1.2-0.1c0.4,0,0.8-0.1,1.2-0.2c0,0-0.5,0-1.2,0.1C20.9,23.7,20.5,23.7,20.2,23.8z"/>
	<path class="st6" d="M20.5,30.1c0,0,1.8,0,4.1,0s4.1,0,4.1,0s-1.8,0-4.1,0S20.5,30.1,20.5,30.1z"/>
	<path class="st6" d="M21.8,32.5c0,0,1.2,0,2.8,0s2.8,0,2.8,0s-1.2,0-2.8,0S21.8,32.5,21.8,32.5z"/>
	<path class="st6" d="M21.9,32.9c0,0,1.2,0,2.7,0s2.7,0,2.7,0s-1.2,0-2.7,0S21.9,32.8,21.9,32.9z"/>
	<path class="st6" d="M21.8,32.2c0,0,1.3,0,2.9,0s2.9,0,2.9,0s-1.3,0-2.9,0S21.8,32.2,21.8,32.2z"/>
</g>
<g id="freepik--Device--inject-25">
	<path class="st5" d="M31.6,45.1H17.9c-1.6,0-3-1.3-3-3l0,0V7.5c0-1.7,1.3-3,3-3h13.7c1.6,0,3,1.3,3,3v34.6
		C34.6,43.7,33.2,45.1,31.6,45.1L31.6,45.1z"/>
	<path class="st3" d="M31.6,5.7h-2.7c-0.4,0-0.7,0.3-0.7,0.7v0.5c0,0.4-0.3,0.7-0.7,0.7h-5.2c-0.4,0-0.7-0.3-0.7-0.7l0,0V6.4
		c0-0.4-0.3-0.7-0.7-0.7h-3.3c-1.2,0-2.1,0.9-2.1,2.1l0,0v33.7c0,1.2,0.9,2.1,2.1,2.1l0,0h13.7c1.2,0,2.1-0.9,2.1-2.1l0,0V7.8
		C33.7,6.7,32.7,5.7,31.6,5.7L31.6,5.7z"/>
	<path class="st5" d="M23.5,42.2c0,0.1-0.1,0.3-0.3,0.3c-0.1,0-0.3-0.1-0.3-0.3c0-0.1,0.1-0.3,0.3-0.3l0,0
		C23.3,41.9,23.5,42.1,23.5,42.2L23.5,42.2z"/>
	<path class="st2" d="M24.9,42.2c0,0.1-0.1,0.3-0.3,0.3c-0.1,0-0.3-0.1-0.3-0.3c0-0.1,0.1-0.3,0.3-0.3S24.9,42.1,24.9,42.2
		L24.9,42.2z"/>
	<path class="st2" d="M26.4,42.2c0,0.1-0.1,0.3-0.3,0.3c-0.1,0-0.3-0.1-0.3-0.3c0-0.1,0.1-0.3,0.3-0.3S26.4,42,26.4,42.2L26.4,42.2z
		"/>
	<path class="st5" d="M17.6,10.4L17.6,10.4h0.1H18l0,0c0-0.1,0-0.2,0-0.2v-0.1c0-0.1,0.1-0.1,0.1-0.1c0.1,0,0.1,0,0.2,0
		s0.1,0.1,0.1,0.1c0,0.1,0,0.2,0,0.4l0,0h0.4l0,0c0-0.2,0-0.3,0-0.5V9.9c0,0,0-0.1-0.1-0.1c-0.1-0.1-0.1-0.1-0.2-0.2l-0.2-0.2
		l-0.1-0.1c0,0,0-0.1-0.1-0.1H18c0,0,0,0-0.1,0.1l-0.2,0.2c-0.1,0.1-0.2,0.2-0.3,0.3c0,0,0,0.1,0,0.2v0.1c0,0.1,0,0.2,0,0.2
		S17.6,10.3,17.6,10.4L17.6,10.4L17.6,10.4c0-0.1,0-0.1,0-0.2c0-0.1,0-0.1,0-0.2c0,0,0-0.1,0-0.2V9.7V9.6c0.1-0.1,0.2-0.2,0.3-0.3
		L18,9.1c0,0,0,0,0.1-0.1h0.1c0,0,0.1,0,0.1,0.1l0.1,0.1l0.2,0.2l0.2,0.2l0.1,0.1v0.1c0,0.2,0,0.4,0,0.5l0,0l0,0h-0.4l0,0l0,0
		c0-0.1,0-0.2,0-0.4c0,0,0-0.1-0.1-0.1s-0.1,0-0.2,0c0,0-0.1,0-0.1,0.1V10c0,0.1,0,0.2,0,0.2l0,0l0,0h-0.3L17.6,10.4L17.6,10.4z"/>
	<path class="st1" d="M32.8,12.1L32.8,12.1c0.1,0,0.2,0.1,0.2,0.2v29.4c0,0.1-0.1,0.2-0.2,0.2l0,0c-0.1,0-0.2-0.1-0.2-0.2V12.3
		C32.6,12.2,32.7,12.1,32.8,12.1z"/>
	<path class="st2" d="M32.8,13.5L32.8,13.5c0.1,0,0.2,0.1,0.2,0.1v2.1c0,0.1-0.1,0.1-0.1,0.1l0,0c-0.1,0-0.1-0.1-0.1-0.1v-2.1
		C32.6,13.5,32.7,13.5,32.8,13.5z"/>
	<path class="st3" d="M17.7,11.9h13.9c0.3,0,0.5,0.2,0.5,0.5v5.4c0,0.3-0.2,0.5-0.5,0.5H17.7c-0.3,0-0.5-0.2-0.5-0.5v-5.4
		C17.2,12.2,17.4,11.9,17.7,11.9z"/>
	<path class="st7" d="M17.7,11.9h7.1l0,0v6.4l0,0h-7.1c-0.3,0-0.5-0.2-0.5-0.5v-5.5C17.2,12.2,17.4,11.9,17.7,11.9z"/>
	<g class="st9">
		<path d="M23.4,15.4c0.2-0.2,0.3-0.4,0.4-0.7c0.1-0.2,0.1-0.4,0-0.5S23.6,14,23.5,14c-0.5-0.2-0.9-0.4-1.4-0.5l-3.6,1.3
			c-0.1,0.3,0.1,0.6,0.4,0.7c0.1,0,0.3,0,0.4-0.1c0.1,0.7,0.1,1.5-0.2,2.1c0,0.1-0.1,0.2,0,0.3c0.1,0.1,0.2,0.1,0.3,0.1H23
			c0.2,0,0.4,0,0.5-0.1s0.1-0.4,0-0.5l-0.4-1.4c0-0.1,0-0.2,0-0.2C23.2,15.5,23.3,15.5,23.4,15.4z"/>
	</g>
	<path class="st3" d="M22.9,17.2L22.6,16l0.1-1.2l0.1-1.7L22,13c-0.6,0.3-1.5,0.5-2.2,0.2c0,0-0.3,0-0.5,0.2c-0.1,0.1,0,0.6,0.1,1
		c0.1,0.5,0.4,1.8,0.4,1.8s-0.4,1.1-0.5,1.4c0,0,2.8-0.5,3.7,0C22.9,17.5,23.1,17.5,22.9,17.2z"/>
	<path class="st3" d="M18.2,13.9l1-0.6l0.3,1.4L19,15.1C19,15.1,18.2,14.7,18.2,13.9z"/>
	<path class="st3" d="M22.7,13l1.1,0.5c0,0-0.3,1.3-0.5,1.5l-0.5-0.2l-0.1,0.4v-1.7V13z"/>
	<path class="st2" d="M19.1,15L19.1,15c-0.1,0-0.1-0.1-0.2-0.1c-0.1-0.1-0.3-0.2-0.4-0.4c0-0.1-0.1-0.2-0.1-0.3s0-0.2-0.1-0.2
		c0,0,0-0.1,0-0.2c0,0,0,0,0-0.1c0,0,0,0.1,0,0.2s0,0.2,0.1,0.2c0,0.1,0.1,0.2,0.1,0.2c0.1,0.1,0.2,0.3,0.3,0.4
		C19,15,19.1,15,19.1,15z"/>
	<path class="st2" d="M19.4,14.5L19.4,14.5c-0.1,0-0.1-0.1-0.1-0.1c-0.1-0.1-0.2-0.2-0.2-0.3s-0.1-0.2-0.2-0.3c0,0,0-0.1-0.1-0.2
		c0,0,0,0.1,0.1,0.1c0.1,0.1,0.1,0.2,0.2,0.3s0.2,0.2,0.2,0.3C19.3,14.4,19.3,14.4,19.4,14.5L19.4,14.5z"/>
	<path class="st2" d="M22.6,13.1h-0.1c-0.1,0-0.2,0-0.3,0.1l-0.5,0.2c-0.2,0.1-0.4,0.1-0.6,0.1c-0.4,0-0.8,0-1.2-0.1
		c-0.1,0-0.2-0.1-0.3-0.1h-0.1l0,0c0,0,0.1,0,0.1,0.1c0.1,0,0.2,0.1,0.3,0.1c0.4,0.1,0.8,0.2,1.2,0.1c0.2,0,0.4-0.1,0.6-0.1
		c0.2-0.1,0.4-0.1,0.5-0.2s0.3-0.1,0.3-0.1C22.5,13.1,22.5,13.1,22.6,13.1L22.6,13.1z"/>
	<path class="st2" d="M22.7,14.1L22.7,14.1h-0.1c-0.1,0-0.2,0-0.4,0c-0.4,0-0.8,0.1-1.2,0.1c-0.5,0-0.9,0-1.2,0h-0.4h-0.1l0,0l0,0
		h0.1h0.4c0.3,0,0.7,0,1.2,0s0.9,0,1.2,0c0.2,0,0.3,0,0.4,0L22.7,14.1L22.7,14.1z"/>
	<path class="st2" d="M22.7,14.8h-0.1h-0.1c0,0-0.1,0-0.2,0c-0.4,0.1-0.7,0.1-1.1,0.1s-0.8,0-1.1,0c-0.1,0-0.3,0-0.3,0h-0.1h0.1
		c0.1,0,0.2,0,0.3,0c0.3,0,0.7,0,1.1,0s0.7,0,1.1-0.1c0.1,0,0.1,0,0.2,0s0.1,0,0.1,0S22.6,14.8,22.7,14.8z"/>
	<path class="st2" d="M22.6,15.6h-0.1c-0.1,0-0.2,0-0.3,0c-0.3,0-0.6,0-1,0s-0.8,0-1,0c-0.1,0-0.2,0-0.3,0h-0.1h0.1
		c0.1,0,0.2,0,0.3,0c0.3,0,0.6,0,1,0s0.8,0,1,0h0.3C22.5,15.6,22.5,15.6,22.6,15.6z"/>
	<path class="st2" d="M22.7,16.5h-0.1h-0.3c-0.3,0-0.7,0-1.1,0s-0.8,0-1.1,0h-0.3h-0.1h0.1c0.1,0,0.2,0,0.3,0c0.3,0,0.7,0,1.1,0
		s0.8,0,1.1,0c0.1,0,0.3,0,0.3,0C22.7,16.5,22.7,16.5,22.7,16.5z"/>
	<path class="st2" d="M23.1,13.4c0,0.1-0.1,0.2-0.1,0.3s-0.1,0.2-0.2,0.3c0,0,0.1-0.1,0.2-0.3S23.1,13.4,23.1,13.4z"/>
	<path class="st5" d="M19.3,13.8C19.3,13.8,19.3,13.9,19.3,13.8c0,0.2,0.1,0.2,0.1,0.3c0,0.2,0.1,0.5,0.2,0.8s0.1,0.6,0.2,0.8
		c0,0.1,0,0.2,0,0.2V16v-0.1c0-0.1,0-0.1,0-0.2c0-0.2-0.1-0.5-0.2-0.8s-0.1-0.6-0.2-0.8c0-0.1,0-0.2,0-0.2
		C19.3,13.9,19.3,13.8,19.3,13.8z"/>
	<path class="st5" d="M22.7,14.2L22.7,14.2c0,0.1,0,0.2,0,0.3c0,0.2,0,0.4,0,0.6s0,0.5,0,0.6s0,0.1,0,0.2c0,0,0,0,0,0.1
		c0,0,0,0,0-0.1c0,0,0-0.1,0-0.2c0-0.2,0-0.4,0-0.6s0-0.5,0-0.6S22.7,14.3,22.7,14.2L22.7,14.2z"/>
	<path class="st2" d="M23.5,13.4c0,0.1,0,0.1-0.1,0.2s-0.1,0.3-0.2,0.5s-0.1,0.4-0.1,0.5s0,0.1,0,0.2c0,0,0,0,0-0.1c0,0,0-0.1,0-0.2
		c0-0.2,0.1-0.4,0.1-0.5c0.1-0.2,0.1-0.3,0.2-0.5C23.4,13.5,23.4,13.5,23.5,13.4L23.5,13.4z"/>
	<path class="st2" d="M22.9,17.2L22.9,17.2h-0.1c0,0-0.1,0-0.2,0s-0.1,0-0.2,0s-0.2,0-0.3,0c-0.1,0-0.2,0-0.3,0c-0.5,0-1,0-1.5,0.1
		c-0.1,0-0.2,0-0.3,0.1c-0.1,0-0.2,0-0.3,0.1s-0.2,0-0.2,0.1c-0.1,0-0.1,0-0.2,0.1h-0.1l0,0l0,0h0.1c0,0,0.1,0,0.2-0.1
		s0.1-0.1,0.2-0.1s0.2-0.1,0.3-0.1c0.1,0,0.2,0,0.3-0.1c0.5-0.1,1-0.1,1.5-0.1c0.1,0,0.2,0,0.3,0s0.2,0,0.3,0c0.1,0,0.2,0,0.2,0
		s0.1,0,0.2,0H22.9L22.9,17.2z"/>
	<path class="st7" d="M24.8,18.4c0,0,0-1.4,0-3.2s0-3.2,0-3.2s0,1.4,0,3.2S24.8,18.4,24.8,18.4z"/>
	<path class="st7" d="M31.6,18.4L31.6,18.4c0.2,0,0.3-0.1,0.4-0.2c0-0.1,0.1-0.1,0.1-0.2s0-0.2,0-0.3c0-0.2,0-0.4,0-0.7
		c0-1.1,0-2.6,0-4.5c0-0.1,0-0.1,0-0.2c0-0.2-0.2-0.3-0.3-0.4c-0.1,0-0.2,0-0.4,0h-2h-3.6h-8.1c-0.2,0-0.3,0.1-0.4,0.2
		c0,0.1-0.1,0.2-0.1,0.2v1.3c0,0.7,0,1.4,0,2.1v2c0,0.2,0.1,0.3,0.2,0.4c0.1,0,0.1,0.1,0.2,0.1s0.2,0,0.2,0h0.9h6.6h4.5H31h0.3
		L31.6,18.4L31.6,18.4h-0.4H30h-4.5h-6.6H18c-0.1,0-0.2,0-0.2,0c-0.1,0-0.2,0-0.2-0.1c-0.1-0.1-0.2-0.3-0.2-0.4c0-0.7,0-1.3,0-2
		v-3.4c0-0.3,0.2-0.5,0.6-0.5h8.1h3.6H31h0.6c0.1,0,0.1,0,0.2,0c0.2,0.1,0.3,0.2,0.4,0.4c0,0.1,0,0.1,0,0.2c0,1.9,0,3.4,0,4.5
		c0,0.3,0,0.5,0,0.7c0,0.1,0,0.2,0,0.3c0,0.1-0.1,0.1-0.1,0.2c-0.1,0.1-0.2,0.1-0.3,0.2C31.7,18.4,31.6,18.4,31.6,18.4z"/>
	<path class="st7" d="M28.1,13.4c0,0-0.6,0-1.4,0s-1.4,0-1.4,0s0.6,0,1.4,0S28.1,13.4,28.1,13.4z"/>
	<path class="st7" d="M30.7,14.3c0,0-1.2,0-2.7,0s-2.7,0-2.7,0s1.2,0,2.7,0C29.5,14.2,30.7,14.2,30.7,14.3z"/>
	<path class="st7" d="M30.7,14.8c0,0-1.2,0-2.7,0s-2.7,0-2.7,0s1.2,0,2.7,0C29.5,14.7,30.7,14.7,30.7,14.8z"/>
	<path class="st7" d="M30.2,17.2c0-0.1,0-0.1-0.1-0.2L30,16.9c-0.1,0-0.2,0-0.2,0.1c0,0,0,0-0.1-0.1c0,0-0.1,0-0.2,0s-0.1,0-0.1,0.1
		l-0.1,0.1c0,0.1,0,0.1,0,0.2s0.1,0.1,0.2,0.2l0.2,0.2c0,0,0.1-0.1,0.2-0.1s0.1-0.1,0.2-0.2C30.2,17.3,30.2,17.3,30.2,17.2z"/>
	<path class="st5" d="M29.7,17.7L29.7,17.7c0,0-0.1-0.1-0.2-0.2c-0.1,0-0.1-0.1-0.2-0.2c0-0.1,0-0.1,0-0.2s0-0.1,0.1-0.2l0.1-0.1
		c0.1,0,0.1,0,0.2,0c0,0,0,0,0.1,0.1c0.1-0.1,0.1-0.1,0.2-0.1s0.1,0,0.1,0.1c0,0,0.1,0.1,0.1,0.2s0,0.2,0,0.2c0,0.1-0.1,0.1-0.2,0.2
		C29.8,17.6,29.7,17.7,29.7,17.7L29.7,17.7z M29.5,17L29.5,17c-0.1,0-0.2,0.1-0.2,0.2s0,0.1,0,0.2s0.1,0.1,0.2,0.2s0.2,0.1,0.2,0.1
		s0.1-0.1,0.2-0.1s0.1-0.1,0.2-0.1c0-0.1,0-0.1,0-0.2l0,0c0,0,0-0.1-0.1-0.1l-0.1-0.1c-0.1,0-0.2,0-0.2,0.1l0,0l0,0c0,0,0,0-0.1-0.1
		C29.6,17,29.6,17,29.5,17L29.5,17z"/>
	<path class="st5" d="M31.4,17.6h-0.2h-0.4l0,0l0,0v-0.1c0-0.2,0-0.4-0.1-0.5l0,0h-0.1l0,0l0,0h0.2c0,0.1,0,0.3,0.1,0.5
		c0,0,0,0,0,0.1l0,0H31.4L31.4,17.6L31.4,17.6L31.4,17.6z"/>
	<path class="st5" d="M31.2,17.6h-0.4l0,0v-0.1L30.7,17h-0.1l0,0l0,0h0.1l0,0l0,0l0.1,0.5l0,0h0.6l0,0l0,0L31.2,17.6L31.2,17.6z"/>
	<path class="st5" d="M30.8,17.4H31h0.4l0,0c0-0.1,0-0.2,0-0.2v-0.1l0,0h-0.5h-0.2h0.2h0.5l0,0l0,0v0.1c0,0.1,0,0.2,0,0.2l0,0l0,0
		H31H30.8L30.8,17.4L30.8,17.4z"/>
	<path class="st5" d="M31.4,17.4L31.4,17.4h-0.6l0,0l0,0l0,0H31H31.4V17h-0.7l0,0l0,0h0.2h0.5l0,0l0,0v0.1
		C31.4,17.2,31.4,17.2,31.4,17.4L31.4,17.4L31.4,17.4L31.4,17.4z"/>
	<path class="st5" d="M30.9,17.7L30.9,17.7L30.9,17.7L30.9,17.7C30.8,17.7,30.8,17.7,30.9,17.7C30.8,17.7,30.8,17.8,30.9,17.7
		C30.9,17.8,30.9,17.8,30.9,17.7L30.9,17.7L30.9,17.7L30.9,17.7C30.9,17.7,30.9,17.8,30.9,17.7C30.9,17.8,30.9,17.8,30.9,17.7
		C30.8,17.7,30.8,17.7,30.9,17.7C30.8,17.7,30.9,17.7,30.9,17.7L30.9,17.7L30.9,17.7L30.9,17.7z"/>
	<path class="st5" d="M30.9,17.8L30.9,17.8C30.8,17.8,30.8,17.8,30.9,17.8c-0.1-0.1,0-0.1,0-0.1l0,0C30.9,17.7,31,17.7,30.9,17.8
		L30.9,17.8L30.9,17.8C31,17.7,30.9,17.8,30.9,17.8L30.9,17.8z M30.9,17.7L30.9,17.7C30.9,17.7,30.8,17.7,30.9,17.7
		C30.8,17.7,30.9,17.8,30.9,17.7C30.9,17.8,30.9,17.8,30.9,17.7L30.9,17.7L30.9,17.7L30.9,17.7L30.9,17.7L30.9,17.7L30.9,17.7
		L30.9,17.7z"/>
	<path class="st5" d="M31.3,17.7L31.3,17.7L31.3,17.7L31.3,17.7C31.2,17.7,31.2,17.7,31.3,17.7C31.2,17.7,31.2,17.8,31.3,17.7
		C31.3,17.8,31.3,17.8,31.3,17.7L31.3,17.7L31.3,17.7L31.3,17.7C31.3,17.7,31.3,17.8,31.3,17.7C31.3,17.8,31.2,17.8,31.3,17.7
		L31.3,17.7C31.2,17.7,31.2,17.7,31.3,17.7L31.3,17.7L31.3,17.7L31.3,17.7z"/>
	<path class="st5" d="M31.3,17.8L31.3,17.8C31.2,17.8,31.2,17.7,31.3,17.8c-0.1-0.1,0-0.1,0-0.1s0,0,0.1,0
		C31.3,17.7,31.3,17.7,31.3,17.8L31.3,17.8L31.3,17.8C31.3,17.7,31.3,17.8,31.3,17.8L31.3,17.8z M31.3,17.7L31.3,17.7
		C31.2,17.7,31.2,17.7,31.3,17.7C31.2,17.7,31.2,17.8,31.3,17.7C31.3,17.8,31.3,17.8,31.3,17.7L31.3,17.7L31.3,17.7L31.3,17.7
		L31.3,17.7L31.3,17.7L31.3,17.7L31.3,17.7L31.3,17.7z"/>
	<path class="st5" d="M31.6,17c0,0.1-0.1,0.2-0.2,0.2s-0.2-0.1-0.2-0.2s0.1-0.2,0.2-0.2S31.6,16.9,31.6,17L31.6,17z"/>
	<path class="st3" d="M31.5,17.1L31.5,17.1L31.5,17.1C31.5,17.1,31.5,17,31.5,17.1c0-0.1,0-0.2,0-0.2S31.5,17,31.5,17.1
		C31.5,17,31.5,17.1,31.5,17.1L31.5,17.1L31.5,17.1z"/>
	<path class="st3" d="M31.6,17C31.5,17,31.5,17,31.6,17c-0.1,0-0.2,0-0.2,0S31.4,17,31.6,17C31.5,17,31.5,17,31.6,17z"/>
	<path class="st7" d="M28,17.4c0,0-0.6,0-1.2,0c-0.7,0-1.2,0-1.2,0s0.6,0,1.2,0S28,17.4,28,17.4z"/>
	<path class="st1" d="M17.7,19.4h13.9c0.3,0,0.5,0.2,0.5,0.5v5.4c0,0.3-0.2,0.5-0.5,0.5H17.7c-0.3,0-0.5-0.2-0.5-0.5v-5.4
		C17.2,19.6,17.4,19.4,17.7,19.4z"/>
	<path class="st3" d="M17.7,19.4h7.1l0,0v6.4l0,0h-7.1c-0.3,0-0.5-0.2-0.5-0.5v-5.5C17.2,19.6,17.4,19.4,17.7,19.4z"/>
	<path class="st2" d="M24.8,25.9c0,0,0-1.4,0-3.2c0-1.8,0-3.2,0-3.2s0,1.4,0,3.2S24.8,25.9,24.8,25.9z"/>
	<path class="st2" d="M31.6,25.8L31.6,25.8c0.2,0,0.3-0.1,0.4-0.2c0-0.1,0.1-0.1,0.1-0.2s0-0.2,0-0.3c0-0.2,0-0.4,0-0.7
		c0-1.1,0-2.6,0-4.5c0-0.1,0-0.1,0-0.2c0-0.2-0.2-0.3-0.3-0.4c-0.1,0-0.2,0-0.4,0h-2h-3.6h-8.1c-0.2,0-0.3,0.1-0.4,0.2
		c0,0.1-0.1,0.2-0.1,0.2V21c0,0.7,0,1.4,0,2.1v2c0,0.2,0.2,0.4,0.4,0.5c0.1,0,0.2,0,0.2,0h0.9h6.6h4.5H31h0.3L31.6,25.8L31.6,25.8
		h-0.4H30h-4.5h-6.6H18c-0.1,0-0.2,0-0.2,0c-0.3,0-0.5-0.3-0.5-0.5c0-0.7,0-1.3,0-2v-3.4c0-0.3,0.3-0.5,0.6-0.5H26h3.6H31h0.6
		c0.1,0,0.1,0,0.2,0c0.2,0.1,0.3,0.2,0.4,0.4c0,0.1,0,0.1,0,0.2c0,1.9,0,3.4,0,4.5c0,0.3,0,0.5,0,0.7c0,0.1,0,0.2,0,0.3
		c0,0.1-0.1,0.1-0.1,0.2c-0.1,0.1-0.2,0.1-0.3,0.2C31.7,25.8,31.6,25.8,31.6,25.8z"/>
	<path class="st5" d="M28.1,20.9c0,0-0.6,0-1.4,0s-1.4,0-1.4,0s0.6,0,1.4,0S28.1,20.9,28.1,20.9z"/>
	<path class="st2" d="M30.7,21.7c0,0-1.2,0-2.7,0s-2.7,0-2.7,0s1.2,0,2.7,0S30.7,21.7,30.7,21.7z"/>
	<path class="st2" d="M30.7,22.2c0,0-1.2,0-2.7,0s-2.7,0-2.7,0s1.2,0,2.7,0S30.7,22.2,30.7,22.2z"/>
	<path class="st7" d="M30.2,24.7c0-0.1,0-0.1-0.1-0.2L30,24.4c-0.1,0-0.1,0-0.2,0c0,0-0.1,0-0.1,0.1c0,0,0,0-0.1-0.1
		c0,0-0.1,0-0.2,0s-0.1,0-0.1,0.1l-0.1,0.1c0,0.1,0,0.1,0,0.2s0.1,0.1,0.2,0.2s0.2,0.2,0.2,0.2s0.1-0.1,0.2-0.1S29.9,25,30,25
		C30.2,24.8,30.2,24.7,30.2,24.7z"/>
	<path class="st5" d="M29.7,25.2L29.7,25.2c0,0-0.1-0.1-0.2-0.2c-0.1,0-0.1-0.1-0.2-0.2c0-0.1,0-0.1,0-0.2s0-0.1,0.1-0.2l0.1-0.1
		c0.1,0,0.1,0,0.2,0c0,0,0,0,0.1,0.1c0,0,0,0,0.1-0.1c0.1,0,0.1,0,0.2,0s0.1,0,0.1,0.1c0,0,0.1,0.1,0.1,0.2s0,0.2,0,0.2
		c0,0.1-0.1,0.1-0.2,0.2C29.8,25.1,29.7,25.2,29.7,25.2L29.7,25.2z M29.5,24.4L29.5,24.4c-0.1,0-0.1,0-0.2,0.1l-0.1,0.1
		c0,0.1,0,0.1,0,0.2s0.1,0.1,0.2,0.2s0.2,0.1,0.2,0.1s0.1-0.1,0.2-0.1s0.1-0.1,0.2-0.1c0-0.1,0-0.1,0-0.2l0,0c0,0,0-0.1-0.1-0.1
		l-0.1-0.1c0,0-0.1,0-0.2,0c0,0,0,0-0.1,0.1l0,0l0,0c0,0,0,0-0.1-0.1C29.6,24.4,29.6,24.4,29.5,24.4L29.5,24.4z"/>
	<path class="st5" d="M31.4,25h-0.2h-0.4l0,0l0,0v-0.1c0-0.2,0-0.4-0.1-0.5l0,0h-0.1h0.1l0,0l0.1,0.5c0,0,0,0,0,0.1l0,0h0.4H31.4
		L31.4,25L31.4,25z"/>
	<path class="st5" d="M31.2,25h-0.4l0,0l-0.1-0.6h-0.1l0,0l0,0h0.1l0,0l0,0l0.1,0.5l0,0h0.6l0,0l0,0h-0.2V25z"/>
	<path class="st5" d="M30.8,24.9H31h0.4l0,0c0-0.1,0-0.2,0-0.3v-0.1l0,0h-0.5h-0.2h0.2h0.5l0,0l0,0v0.1c0,0.1,0,0.2,0,0.3l0,0l0,0
		H31H30.8L30.8,24.9L30.8,24.9z"/>
	<path class="st5" d="M31.4,24.9L31.4,24.9h-0.6l0,0l0,0l0,0H31H31.4v-0.4h-0.7l0,0l0,0h0.2h0.5l0,0l0,0v0.1
		C31.4,24.7,31.4,24.7,31.4,24.9L31.4,24.9L31.4,24.9z"/>
	<path class="st5" d="M30.9,25.2L30.9,25.2C30.9,25.2,30.9,25.1,30.9,25.2C30.9,25.1,30.8,25.1,30.9,25.2L30.9,25.2
		C30.8,25.2,30.8,25.2,30.9,25.2L30.9,25.2L30.9,25.2L30.9,25.2L30.9,25.2L30.9,25.2C30.9,25.3,30.8,25.3,30.9,25.2L30.9,25.2
		C30.8,25.2,30.8,25.1,30.9,25.2C30.9,25.1,30.9,25.1,30.9,25.2C30.9,25.1,30.9,25.2,30.9,25.2L30.9,25.2z"/>
	<path class="st5" d="M30.9,25.2L30.9,25.2C30.8,25.2,30.8,25.2,30.9,25.2c-0.1-0.1,0-0.1,0-0.1s0,0,0.1,0
		C30.9,25.1,31,25.1,30.9,25.2L30.9,25.2L30.9,25.2C31,25.2,30.9,25.2,30.9,25.2S30.9,25.3,30.9,25.2z M30.9,25.1L30.9,25.1
		C30.9,25.1,30.8,25.2,30.9,25.1C30.8,25.2,30.9,25.2,30.9,25.1C30.9,25.2,30.9,25.2,30.9,25.1C30.9,25.2,30.9,25.2,30.9,25.1
		L30.9,25.1L30.9,25.1L30.9,25.1L30.9,25.1C30.9,25.2,30.9,25.1,30.9,25.1L30.9,25.1L30.9,25.1z"/>
	<path class="st5" d="M31.3,25.2L31.3,25.2L31.3,25.2C31.3,25.1,31.3,25.1,31.3,25.2C31.2,25.2,31.2,25.2,31.3,25.2
		C31.2,25.2,31.2,25.2,31.3,25.2L31.3,25.2L31.3,25.2L31.3,25.2L31.3,25.2L31.3,25.2L31.3,25.2C31.2,25.2,31.2,25.2,31.3,25.2
		C31.2,25.2,31.2,25.1,31.3,25.2C31.3,25.1,31.3,25.1,31.3,25.2L31.3,25.2L31.3,25.2z"/>
	<path class="st5" d="M31.3,25.3L31.3,25.3C31.2,25.2,31.2,25.2,31.3,25.3c-0.1-0.1,0-0.1,0-0.1s0,0,0.1,0
		C31.3,25.1,31.3,25.2,31.3,25.3L31.3,25.3L31.3,25.3C31.3,25.2,31.3,25.2,31.3,25.3C31.3,25.2,31.3,25.3,31.3,25.3z M31.3,25.1
		L31.3,25.1C31.2,25.2,31.2,25.2,31.3,25.1C31.2,25.2,31.2,25.2,31.3,25.1C31.3,25.2,31.3,25.2,31.3,25.1
		C31.3,25.2,31.3,25.2,31.3,25.1L31.3,25.1L31.3,25.1L31.3,25.1L31.3,25.1C31.3,25.2,31.3,25.2,31.3,25.1L31.3,25.1L31.3,25.1z"/>
	<path class="st5" d="M31.6,24.4c0,0.1-0.1,0.2-0.2,0.2s-0.2-0.1-0.2-0.2s0.1-0.2,0.2-0.2C31.5,24.3,31.6,24.4,31.6,24.4L31.6,24.4z
		"/>
	<path class="st3" d="M31.5,24.5L31.5,24.5L31.5,24.5L31.5,24.5c0-0.1,0-0.2,0-0.2C31.5,24.4,31.5,24.4,31.5,24.5L31.5,24.5
		L31.5,24.5L31.5,24.5z"/>
	<path class="st3" d="M31.6,24.5C31.5,24.5,31.5,24.5,31.6,24.5c-0.1,0-0.2,0-0.2,0C31.4,24.4,31.4,24.4,31.6,24.5
		C31.5,24.5,31.5,24.5,31.6,24.5z"/>
	<path class="st5" d="M28,24.9c-0.4,0-0.8,0-1.2,0c-0.4,0-0.8,0-1.2,0c0,0,0.6,0,1.2,0C27.4,24.8,28,24.8,28,24.9z"/>
	<path class="st1" d="M17.7,26.8h13.9c0.3,0,0.5,0.2,0.5,0.5v5.4c0,0.3-0.2,0.5-0.5,0.5H17.7c-0.3,0-0.5-0.2-0.5-0.5v-5.4
		C17.2,27,17.4,26.8,17.7,26.8z"/>
	<path class="st3" d="M17.7,26.8h7.1l0,0v6.4l0,0h-7.1c-0.3,0-0.5-0.2-0.5-0.5v-5.5C17.2,27,17.4,26.8,17.7,26.8z"/>
	<path class="st2" d="M24.8,33.3c0,0,0-1.4,0-3.2s0-3.2,0-3.2s0,1.4,0,3.2C24.8,31.8,24.8,33.3,24.8,33.3z"/>
	<path class="st2" d="M31.6,33.2L31.6,33.2c0.3,0,0.4-0.2,0.5-0.4c0-0.1,0-0.2,0-0.3c0-0.2,0-0.4,0-0.7c0-1.1,0-2.6,0-4.5
		c0-0.1,0-0.1,0-0.2c0-0.2-0.2-0.3-0.3-0.4c-0.1,0-0.2,0-0.4,0h-2h-3.6h-8.1c-0.3,0-0.5,0.2-0.5,0.5v1.3c0,0.7,0,1.4,0,2.1v2
		c0,0.2,0.1,0.3,0.2,0.4c0.1,0,0.1,0.1,0.2,0.1s0.2,0,0.2,0h0.9h6.6h4.5H31h0.3L31.6,33.2L31.6,33.2h-0.4H30h-4.5h-6.6H18
		c-0.1,0-0.2,0-0.2,0c-0.3,0-0.5-0.3-0.5-0.5c0-0.7,0-1.3,0-2v-3.4c0-0.3,0.3-0.5,0.6-0.5H26h3.6h2.2c0.1,0,0.1,0,0.2,0
		c0.2,0.1,0.3,0.2,0.4,0.4c0,0.1,0,0.1,0,0.2c0,1.9,0,3.4,0,4.5c0,0.3,0,0.5,0,0.7c0,0.1,0,0.2,0,0.3s-0.1,0.1-0.1,0.2
		c-0.1,0.1-0.2,0.1-0.3,0.2C31.7,33.2,31.6,33.2,31.6,33.2z"/>
	<path class="st5" d="M28.1,28.2c0,0-0.6,0-1.4,0s-1.4,0-1.4,0s0.6,0,1.4,0S28.1,28.2,28.1,28.2z"/>
	<path class="st2" d="M30.7,29.1c0,0-1.2,0-2.7,0s-2.7,0-2.7,0s1.2,0,2.7,0C29.5,29,30.7,29.1,30.7,29.1z"/>
	<path class="st2" d="M30.7,29.6c0,0-1.2,0-2.7,0s-2.7,0-2.7,0s1.2,0,2.7,0C29.5,29.5,30.7,29.6,30.7,29.6z"/>
	<path class="st7" d="M30.2,32c0-0.1,0-0.1-0.1-0.2L30,31.7c-0.1,0-0.2,0-0.2,0.1c0,0,0,0-0.1-0.1c0,0-0.1,0-0.2,0s-0.1,0-0.1,0.1
		l-0.1,0.1c0,0.1,0,0.1,0,0.2c0,0.1,0.1,0.1,0.2,0.2l0.2,0.2c0,0,0.1-0.1,0.2-0.1s0.1-0.1,0.2-0.2C30.2,32.2,30.2,32.1,30.2,32z"/>
	<path class="st5" d="M29.7,32.5L29.7,32.5c0,0-0.1-0.1-0.2-0.2c-0.1,0-0.1-0.1-0.2-0.2c0-0.1,0-0.1,0-0.2s0-0.1,0.1-0.2l0.1-0.1
		c0.1,0,0.1,0,0.2,0c0,0,0,0,0.1,0.1c0,0,0,0,0.1-0.1c0,0,0.1,0,0.2,0s0.1,0,0.1,0.1c0,0,0.1,0.1,0.1,0.2s0,0.2,0,0.2
		c0,0.1-0.1,0.1-0.2,0.2C29.8,32.4,29.7,32.5,29.7,32.5L29.7,32.5z M29.5,31.8L29.5,31.8c-0.1,0-0.1,0-0.2,0.1L29.2,32
		c0,0.1,0,0.1,0,0.2c0,0.1,0.1,0.1,0.2,0.2c0.1,0.1,0.2,0.1,0.2,0.1s0.1-0.1,0.2-0.1s0.1-0.1,0.2-0.1c0-0.1,0-0.1,0-0.2l0,0
		c0,0,0-0.1-0.1-0.1l-0.1-0.1c-0.1,0-0.2,0-0.2,0.1l0,0l0,0c0,0,0,0-0.1-0.1C29.6,31.8,29.6,31.8,29.5,31.8L29.5,31.8z"/>
	<path class="st5" d="M31.4,32.4h-0.2h-0.4l0,0l0,0v-0.1c0-0.2,0-0.4-0.1-0.5l0,0h-0.1h0.1l0,0c0,0.1,0,0.3,0.1,0.5c0,0,0,0,0,0.1
		l0,0h0.4H31.4L31.4,32.4L31.4,32.4z"/>
	<path class="st5" d="M31.2,32.4h-0.4l0,0l-0.1-0.6h-0.1l0,0l0,0h0.1l0,0l0,0l0.1,0.5l0,0h0.6l0,0l0,0L31.2,32.4L31.2,32.4z"/>
	<path class="st5" d="M30.8,32.2H31h0.4l0,0c0-0.1,0-0.2,0-0.2v-0.1l0,0h-0.5h-0.2h0.2h0.5l0,0l0,0V32c0,0.1,0,0.2,0,0.3l0,0l0,0H31
		L30.8,32.2L30.8,32.2L30.8,32.2z"/>
	<path class="st5" d="M31.4,32.3L31.4,32.3H31h-0.1l0,0l0,0l0,0l0,0H31H31.4v-0.4h-0.6h-0.1h-0.1l0,0l0,0h0.1H31h0.4l0,0l0,0V32
		V32.3L31.4,32.3z"/>
	<path class="st5" d="M30.9,32.5L30.9,32.5L30.9,32.5L30.9,32.5C30.8,32.5,30.8,32.5,30.9,32.5C30.8,32.6,30.8,32.6,30.9,32.5
		C30.9,32.6,30.9,32.6,30.9,32.5C30.9,32.6,30.9,32.6,30.9,32.5L30.9,32.5L30.9,32.5C30.9,32.6,30.9,32.6,30.9,32.5
		C30.9,32.6,30.9,32.6,30.9,32.5C30.8,32.5,30.8,32.5,30.9,32.5C30.8,32.5,30.8,32.5,30.9,32.5L30.9,32.5L30.9,32.5L30.9,32.5z"/>
	<path class="st5" d="M30.9,32.6L30.9,32.6C30.8,32.6,30.8,32.6,30.9,32.6C30.8,32.5,30.9,32.5,30.9,32.6
		C30.9,32.5,30.9,32.5,30.9,32.6C30.9,32.5,31,32.5,30.9,32.6L30.9,32.6L30.9,32.6C31,32.6,30.9,32.6,30.9,32.6L30.9,32.6z
		 M30.9,32.5L30.9,32.5C30.9,32.5,30.8,32.5,30.9,32.5C30.8,32.6,30.9,32.6,30.9,32.5C30.9,32.6,30.9,32.6,30.9,32.5
		C30.9,32.6,30.9,32.6,30.9,32.5L30.9,32.5L30.9,32.5L30.9,32.5L30.9,32.5L30.9,32.5L30.9,32.5z"/>
	<path class="st5" d="M31.3,32.5L31.3,32.5L31.3,32.5L31.3,32.5C31.2,32.5,31.2,32.5,31.3,32.5C31.2,32.5,31.2,32.6,31.3,32.5
		C31.3,32.6,31.3,32.6,31.3,32.5C31.3,32.6,31.3,32.6,31.3,32.5L31.3,32.5L31.3,32.5C31.3,32.6,31.3,32.6,31.3,32.5
		C31.3,32.6,31.3,32.6,31.3,32.5C31.2,32.5,31.2,32.5,31.3,32.5C31.2,32.5,31.2,32.5,31.3,32.5L31.3,32.5L31.3,32.5L31.3,32.5z"/>
	<path class="st5" d="M31.3,32.6L31.3,32.6C31.2,32.6,31.2,32.6,31.3,32.6C31.2,32.5,31.3,32.5,31.3,32.6
		C31.3,32.5,31.3,32.5,31.3,32.6C31.3,32.5,31.3,32.5,31.3,32.6L31.3,32.6L31.3,32.6L31.3,32.6L31.3,32.6z M31.3,32.5L31.3,32.5
		C31.2,32.5,31.2,32.5,31.3,32.5C31.2,32.6,31.2,32.6,31.3,32.5C31.3,32.6,31.3,32.6,31.3,32.5C31.3,32.6,31.3,32.6,31.3,32.5
		L31.3,32.5L31.3,32.5L31.3,32.5L31.3,32.5L31.3,32.5L31.3,32.5L31.3,32.5z"/>
	<path class="st5" d="M31.6,31.8c0,0.1-0.1,0.2-0.2,0.2s-0.2-0.1-0.2-0.2s0.1-0.2,0.2-0.2S31.6,31.7,31.6,31.8z"/>
	<path class="st3" d="M31.5,31.9L31.5,31.9L31.5,31.9L31.5,31.9c0-0.1,0-0.2,0-0.2C31.5,31.8,31.5,31.8,31.5,31.9L31.5,31.9
		L31.5,31.9L31.5,31.9z"/>
	<path class="st3" d="M31.6,31.8C31.5,31.8,31.5,31.8,31.6,31.8c-0.1,0-0.2,0-0.2,0S31.5,31.8,31.6,31.8L31.6,31.8z"/>
	<path class="st5" d="M28,32.2c0,0-0.6,0-1.2,0c-0.7,0-1.2,0-1.2,0s0.6,0,1.2,0S28,32.2,28,32.2z"/>
	<path class="st1" d="M17.7,34.2h13.9c0.3,0,0.5,0.2,0.5,0.5v5.4c0,0.3-0.2,0.5-0.5,0.5H17.7c-0.3,0-0.5-0.2-0.5-0.5v-5.4
		C17.2,34.4,17.4,34.2,17.7,34.2z"/>
	<path class="st3" d="M17.7,34.2h7.1l0,0v6.4l0,0h-7.1c-0.3,0-0.5-0.2-0.5-0.5v-5.5C17.2,34.4,17.4,34.2,17.7,34.2z"/>
	<path class="st2" d="M24.8,40.7c0,0,0-1.4,0-3.2s0-3.2,0-3.2s0,1.4,0,3.2S24.8,40.7,24.8,40.7z"/>
	<path class="st2" d="M31.6,40.6L31.6,40.6c0.2,0,0.3-0.1,0.4-0.2c0-0.1,0.1-0.1,0.1-0.2c0-0.1,0-0.2,0-0.3c0-0.2,0-0.4,0-0.7
		c0-1.1,0-2.6,0-4.5c0-0.1,0-0.1,0-0.2c0-0.1,0-0.1-0.1-0.2c-0.1-0.1-0.2-0.2-0.3-0.2s-0.2,0-0.4,0H31h-1.6h-3.6h-8.1
		c-0.2,0-0.3,0.1-0.4,0.2c0,0.1-0.1,0.2-0.1,0.2V36c0,0.7,0,1.4,0,2.1v2c0,0.2,0.1,0.3,0.2,0.4c0.1,0,0.1,0.1,0.2,0.1s0.2,0,0.2,0
		h0.9h6.6h4.5H31h0.3H31.6L31.6,40.6h-0.4H30h-4.5h-6.6H18c-0.1,0-0.2,0-0.2,0c-0.3,0-0.5-0.3-0.5-0.5c0-0.7,0-1.3,0-2v-3.4
		c0-0.3,0.3-0.5,0.6-0.5H26h3.6H31h0.6c0.2,0,0.4,0.1,0.5,0.3c0,0.1,0.1,0.1,0.1,0.2c0,0.1,0,0.1,0,0.2c0,1.9,0,3.4,0,4.5
		c0,0.3,0,0.5,0,0.7c0,0.1,0,0.2,0,0.3s-0.1,0.1-0.1,0.2c-0.1,0.1-0.2,0.1-0.3,0.2C31.7,40.6,31.6,40.6,31.6,40.6z"/>
	<path class="st5" d="M28.1,35.6c0,0-0.6,0-1.4,0s-1.4,0-1.4,0s0.6,0,1.4,0S28.1,35.6,28.1,35.6z"/>
	<path class="st2" d="M30.7,36.5c0,0-1.2,0-2.7,0s-2.7,0-2.7,0s1.2,0,2.7,0C29.5,36.4,30.7,36.5,30.7,36.5z"/>
	<path class="st2" d="M30.7,37c0,0-1.2,0-2.7,0s-2.7,0-2.7,0s1.2,0,2.7,0C29.5,36.9,30.7,37,30.7,37z"/>
	<path class="st7" d="M30.2,39.4c0-0.1,0-0.1-0.1-0.2L30,39.1c-0.1,0-0.1,0-0.2,0c0,0-0.1,0-0.1,0.1c0,0,0,0-0.1-0.1
		c0,0-0.1,0-0.2,0s-0.1,0-0.1,0.1l-0.1,0.1c0,0.1,0,0.1,0,0.2c0,0.1,0.1,0.1,0.2,0.2c0.1,0.1,0.2,0.2,0.2,0.2s0.1-0.1,0.2-0.1
		s0.1-0.1,0.2-0.1C30.2,39.6,30.2,39.5,30.2,39.4z"/>
	<path class="st5" d="M29.7,39.9L29.7,39.9c0,0-0.1-0.1-0.2-0.2c-0.1,0-0.1-0.1-0.2-0.2c0-0.1,0-0.1,0-0.2c0-0.1,0-0.1,0.1-0.2
		l0.1-0.1c0.1,0,0.2,0,0.2,0.1c0-0.1,0.1-0.1,0.2-0.1s0.1,0,0.1,0.1c0,0,0.1,0.1,0.1,0.2l0,0c0,0.1,0,0.2,0,0.2
		c0,0.1-0.1,0.1-0.2,0.2C29.8,39.9,29.7,39.9,29.7,39.9L29.7,39.9z M29.5,39.2L29.5,39.2c-0.1,0-0.1,0-0.2,0.1l-0.1,0.1
		c0,0.1,0,0.1,0,0.2c0,0.1,0.1,0.1,0.2,0.2c0.1,0.1,0.2,0.1,0.2,0.1s0.1-0.1,0.2-0.1s0.1-0.1,0.2-0.1c0-0.1,0-0.1,0-0.2l0,0
		c0-0.1-0.1-0.2-0.2-0.2c0,0-0.1,0-0.2,0c0,0,0,0-0.1,0.1l0,0l0,0C29.5,39.4,29.5,39.4,29.5,39.2C29.6,39.2,29.6,39.2,29.5,39.2
		L29.5,39.2z"/>
	<path class="st5" d="M31.4,39.8h-0.2h-0.4l0,0l0,0v-0.1c0-0.2,0-0.4-0.1-0.5l0,0h-0.1h0.1l0,0l0.1,0.5c0,0,0,0,0,0.1l0,0h0.4H31.4
		L31.4,39.8L31.4,39.8z"/>
	<path class="st5" d="M31.2,39.8h-0.4l0,0l-0.1-0.6h-0.1l0,0l0,0l0,0h0.1l0,0l0,0l0.1,0.5l0,0h0.6l0,0l0,0L31.2,39.8L31.2,39.8z"/>
	<path class="st5" d="M30.8,39.7H31h0.4l0,0c0-0.1,0-0.2,0-0.2v-0.1l0,0h-0.5h-0.2h0.2h0.5l0,0l0,0v0.1c0,0.1,0,0.2,0,0.2l0,0l0,0
		H31H30.8L30.8,39.7L30.8,39.7z"/>
	<path class="st5" d="M31.4,39.7L31.4,39.7h-0.6l0,0l0,0l0,0H31H31.4v-0.4h-0.7l0,0l0,0l0,0h0.2h0.5l0,0l0,0v0.1
		C31.4,39.5,31.4,39.5,31.4,39.7L31.4,39.7L31.4,39.7z"/>
	<path class="st5" d="M30.9,39.9L30.9,39.9L30.9,39.9C30.9,39.8,30.8,39.8,30.9,39.9L30.9,39.9C30.8,40,30.8,40,30.9,39.9
		C30.9,40,30.9,40,30.9,39.9L30.9,39.9C30.9,40,30.9,39.9,30.9,39.9L30.9,39.9C30.9,40,30.9,40,30.9,39.9C30.9,40,30.9,40,30.9,39.9
		C30.8,39.9,30.8,39.9,30.9,39.9C30.8,39.9,30.8,39.9,30.9,39.9L30.9,39.9L30.9,39.9L30.9,39.9z"/>
	<path class="st5" d="M30.9,40L30.9,40C30.8,40,30.8,40,30.9,40C30.8,39.9,30.9,39.9,30.9,40L30.9,40C30.9,39.9,31,39.9,30.9,40
		L30.9,40L30.9,40C31,40,30.9,40,30.9,40L30.9,40z M30.9,39.9L30.9,39.9C30.9,39.9,30.8,39.9,30.9,39.9C30.8,40,30.9,40,30.9,39.9
		C30.9,40,30.9,40,30.9,39.9C30.9,40,30.9,40,30.9,39.9L30.9,39.9L30.9,39.9L30.9,39.9L30.9,39.9L30.9,39.9L30.9,39.9L30.9,39.9z"/>
	<path class="st5" d="M31.3,40L31.3,40C31.3,39.9,31.3,39.9,31.3,40C31.3,39.9,31.3,39.9,31.3,40C31.2,40,31.2,40,31.3,40
		C31.2,40,31.2,40,31.3,40L31.3,40L31.3,40L31.3,40L31.3,40L31.3,40L31.3,40C31.2,40,31.2,40,31.3,40C31.2,40,31.2,39.9,31.3,40
		C31.3,39.9,31.3,39.9,31.3,40C31.3,39.9,31.3,39.9,31.3,40C31.3,39.9,31.3,39.9,31.3,40z"/>
	<path class="st5" d="M31.3,40L31.3,40C31.2,40,31.2,40,31.3,40C31.2,39.9,31.3,39.9,31.3,40C31.3,39.9,31.3,39.9,31.3,40
		C31.3,39.9,31.3,39.9,31.3,40L31.3,40L31.3,40L31.3,40L31.3,40z M31.3,39.9L31.3,39.9C31.2,39.9,31.2,39.9,31.3,39.9
		C31.2,40,31.2,40,31.3,39.9C31.3,40,31.3,40,31.3,39.9L31.3,39.9L31.3,39.9L31.3,39.9L31.3,39.9L31.3,39.9L31.3,39.9L31.3,39.9
		L31.3,39.9z"/>
	<path class="st5" d="M31.6,39.2c0,0.1-0.1,0.2-0.2,0.2s-0.2-0.1-0.2-0.2c0-0.1,0.1-0.2,0.2-0.2S31.6,39.1,31.6,39.2L31.6,39.2z"/>
	<path class="st3" d="M31.5,39.3L31.5,39.3L31.5,39.3L31.5,39.3c0-0.1,0-0.2,0-0.2C31.5,39.2,31.5,39.2,31.5,39.3L31.5,39.3
		L31.5,39.3L31.5,39.3z"/>
	<path class="st3" d="M31.6,39.2C31.5,39.2,31.5,39.2,31.6,39.2c-0.1,0-0.2,0-0.2,0S31.4,39.2,31.6,39.2
		C31.5,39.2,31.5,39.2,31.6,39.2z"/>
	<path class="st5" d="M28,39.6c-0.4,0-0.8,0-1.2,0c-0.4,0-0.8,0-1.2,0c0,0,0.6,0,1.2,0S28,39.6,28,39.6z"/>
	<path class="st5" d="M19.1,21c0,0-0.9,2.2-0.9,3.4l2.4,0.7l0.4-0.8l0.4,0.8c0,0,1.9-0.5,2.4-0.9c0,0-0.5-2.6-0.9-3.2
		c0,0,0.2-0.5,0.1-0.5c-0.2,0-0.5,0-0.7,0s-0.3,0-0.6,0c-0.3,0-0.3,0.3-0.6,0.2c-0.3-0.1-0.3-0.2-0.7-0.2c-0.4-0.1-0.6,0.2-0.8,0.1
		c-0.2,0-0.3-0.1-0.5-0.1c-0.1,0-0.3,0.1-0.3,0.2v0.1l0,0C19,20.8,19.1,20.9,19.1,21z"/>
	<path class="st5" d="M22.5,20.5c0,0.1,0,0.2,0,0.3c0,0.1-0.1,0.2-0.2,0.2c0.1-0.1,0.1-0.2,0.1-0.2C22.4,20.7,22.5,20.6,22.5,20.5z"
		/>
	<path class="st4" d="M21.1,22.2C21.1,22.2,21.1,22.1,21.1,22.2L20.9,22l-0.4-0.4l0,0L20,22.2l0,0l0,0l0.5,0.6l0,0l0.4-0.4
		C21,22.3,21,22.2,21.1,22.2L21.1,22.2L21.1,22.2L21,22.3l-0.3,0.5l0,0l0,0l-0.5-0.6l0,0l0,0l0,0l0.5-0.6l0,0l0,0L21,22L21.1,22.2
		C21.1,22.1,21.1,22.2,21.1,22.2z"/>
	<path class="st4" d="M22.9,21.8L22.9,21.8l-0.1-0.2l-0.4-0.4l0,0l-0.5,0.6l0,0l0,0l0.5,0.6l0,0l0.4-0.4L22.9,21.8L22.9,21.8
		L22.9,21.8L22.8,22l-0.3,0.5l0,0l0,0L22,21.9l0,0l0,0l0,0l0.5-0.6l0,0l0,0l0.3,0.4L22.9,21.8L22.9,21.8z"/>
	<path class="st4" d="M21.6,20.5c0.1,0.1,0.2,0.2,0.3,0.4l0,0l0,0l0,0l0,0l0,0l0,0l0.1-0.1l0.1-0.1l0.1-0.1c0,0,0,0.1-0.1,0.1H22
		c0,0,0,0,0,0.1l0,0l0,0l0,0l0,0l0,0l0,0C21.7,20.8,21.6,20.6,21.6,20.5z"/>
	<path class="st4" d="M19.8,21l-0.1-0.1c-0.1-0.1-0.1-0.2-0.2-0.3l0,0l0,0c-0.1,0.1-0.1,0.2-0.2,0.3c0,0,0,0.1-0.1,0.1
		c0,0,0-0.1,0.1-0.1c0-0.1,0.1-0.2,0.2-0.3l0,0l0,0l0,0c0.1,0.1,0.2,0.2,0.2,0.3C19.8,20.9,19.8,21,19.8,21z"/>
	<path class="st4" d="M22.3,23.7L22.3,23.7l-0.1-0.2l-0.3-0.4l0,0c-0.1,0.2-0.3,0.4-0.5,0.6l0,0l0,0l0.5,0.6l0,0
		c0.1-0.2,0.3-0.3,0.4-0.4V23.7L22.3,23.7L22.3,23.7l-0.1,0.2l-0.3,0.5l0,0l0,0c-0.1-0.2-0.3-0.4-0.5-0.6l0,0l0,0l0,0
		c0.2-0.2,0.3-0.4,0.5-0.6l0,0l0,0l0.3,0.4L22.3,23.7L22.3,23.7z"/>
	<path class="st4" d="M20.2,24.2L20.2,24.2L20,24l-0.4-0.4l0,0l-0.5,0.6l0,0l0,0l0.5,0.6l0,0l0.4-0.4L20.2,24.2L20.2,24.2L20.2,24.2
		l-0.1,0.2l-0.3,0.5l0,0l0,0l-0.5-0.6l0,0l0,0l0,0l0.5-0.6l0,0l0,0l0.3,0.4L20.2,24.2L20.2,24.2z"/>
	<path class="st4" d="M18.4,23.1C18.4,23.1,18.5,23.1,18.4,23.1l0.2-0.2c0.1-0.1,0.3-0.2,0.5-0.4h0.1l0,0C19.1,22.3,19,22.1,19,22
		s-0.1-0.1-0.1-0.2c0,0.1,0.1,0.1,0.1,0.2c0.1,0.1,0.2,0.3,0.3,0.5l0,0l0,0h-0.1c-0.2,0.1-0.4,0.3-0.5,0.4
		C18.6,23,18.5,23.1,18.4,23.1C18.5,23.1,18.4,23.1,18.4,23.1z"/>
	<path class="st4" d="M23.8,23.6C23.7,23.6,23.7,23.6,23.8,23.6c-0.1-0.1-0.1-0.1-0.2-0.2s-0.3-0.3-0.4-0.4l0,0l0,0l0,0
		c0.1-0.2,0.1-0.4,0.2-0.6c0-0.1,0-0.1,0.1-0.2c0,0,0,0,0-0.1c0,0,0,0,0,0.1c0,0,0,0.1-0.1,0.2c0,0.1-0.1,0.3-0.2,0.6l0,0l0,0
		c0.2,0.2,0.3,0.3,0.4,0.4C23.6,23.5,23.7,23.5,23.8,23.6C23.7,23.6,23.8,23.6,23.8,23.6z"/>
	<path class="st5" d="M23,21L23,21c-0.1,0-0.1,0-0.1,0c-0.1,0-0.3,0-0.4,0c-0.2,0-0.4,0-0.6-0.1c-0.2,0-0.5-0.1-0.7-0.1
		c-0.3,0-0.5,0-0.7,0s-0.4,0-0.6,0c-0.1,0-0.3,0-0.4,0h-0.1l0,0l0,0h0.1c0.1,0,0.3,0,0.4,0c0.2,0,0.4,0,0.6,0s0.5,0,0.8-0.1
		c0.2,0,0.5,0,0.8,0.1c0.2,0,0.4,0.1,0.6,0.1c0.1,0,0.3,0,0.4,0C23,21,23,21,23,21z"/>
	<path class="st5" d="M19.4,22.8C19.4,22.8,19.4,22.7,19.4,22.8c0-0.1,0-0.2,0-0.3c0-0.2,0.1-0.4,0.1-0.6s0.1-0.5,0.2-0.6
		c0-0.1,0-0.1,0.1-0.2c0,0,0,0,0-0.1c0,0,0,0,0,0.1c0,0,0,0.1,0,0.2c0,0.2-0.1,0.4-0.2,0.6c0,0.2-0.1,0.5-0.1,0.6
		S19.5,22.7,19.4,22.8C19.5,22.7,19.4,22.8,19.4,22.8z"/>
	<path class="st5" d="M19.8,22.1c0-0.2,0-0.4,0.1-0.5c0-0.2,0.1-0.4,0.1-0.5c0,0.2,0,0.4-0.1,0.5C19.9,21.8,19.8,21.9,19.8,22.1z"/>
	<path class="st6" d="M22.7,23.7L22.7,23.7c-0.1-0.2-0.1-0.3-0.2-0.4c-0.2-0.6-0.4-1.3-0.4-1.9c0-0.1,0-0.2,0-0.3V21v0.1
		c0,0.1,0,0.2,0,0.3c0,0.3,0.1,0.7,0.1,1c0.1,0.3,0.2,0.6,0.2,1c0,0.1,0.1,0.2,0.1,0.3C22.7,23.7,22.7,23.7,22.7,23.7z"/>
	<path class="st6" d="M22.6,22c0,0,0-0.1-0.1-0.1c0-0.1-0.1-0.2-0.1-0.3s-0.1-0.3-0.1-0.3v-0.1v0.1c0,0.1,0.1,0.2,0.1,0.3
		s0.1,0.2,0.1,0.3C22.6,21.9,22.6,22,22.6,22z"/>
	<path class="st6" d="M20.8,24.9L20.8,24.9h-0.1c-0.1,0-0.2,0-0.3-0.1c-0.3-0.1-0.6-0.2-0.9-0.4c-0.3-0.2-0.6-0.3-0.9-0.3
		c-0.1,0-0.2,0-0.3,0c-0.1,0-0.1,0-0.1,0l0,0c0,0,0,0,0.1,0s0.2,0,0.3,0c0.3,0.1,0.6,0.2,0.9,0.3c0.3,0.2,0.7,0.3,0.9,0.4
		C20.6,24.8,20.7,24.8,20.8,24.9L20.8,24.9z"/>
	<path class="st6" d="M23.8,23.9L23.8,23.9c-0.1,0.1-0.2,0.1-0.3,0.2c-0.3,0.2-0.6,0.3-0.8,0.4c-0.3,0.1-0.6,0.2-0.9,0.3
		c-0.1,0-0.2,0.1-0.3,0.1h-0.1h0.1c0.1,0,0.2,0,0.3-0.1c0.2-0.1,0.5-0.2,0.9-0.3s0.6-0.3,0.8-0.4l0.2-0.1
		C23.8,23.9,23.8,23.9,23.8,23.9z"/>
	<path class="st5" d="M22.7,20.7c0,0.1,0,0.1-0.1,0.2c0,0.1-0.1,0.1-0.2,0.1l0.1-0.1C22.6,20.8,22.7,20.7,22.7,20.7z"/>
	<path class="st5" d="M20,20.5c0,0,0,0.1,0.1,0.2s0.1,0.2,0.1,0.2c-0.1,0-0.1-0.1-0.1-0.2C20,20.7,20,20.6,20,20.5z"/>
	<path class="st5" d="M19.8,36.8h3.1c0.2,0,0.3,0.1,0.3,0.3V39c0,0.2-0.1,0.3-0.3,0.3h-3.1c-0.2,0-0.3-0.1-0.3-0.3v-1.9
		C19.6,36.9,19.7,36.8,19.8,36.8z"/>
	<path class="st5" d="M22.2,37.3C22.2,37.2,22.2,37.2,22.2,37.3v-0.2c0-0.2,0-0.3,0-0.5s-0.1-0.5-0.3-0.7c-0.1-0.1-0.2-0.2-0.4-0.2
		c-0.2,0-0.3,0-0.5,0c-0.3,0-0.6,0.1-0.8,0.2C20.1,36,20,36.1,20,36.2s-0.1,0.2-0.1,0.3c0,0.2,0,0.3,0,0.5c0,0.1,0,0.1,0,0.1l0,0
		l0,0V37c0-0.2,0-0.3,0-0.5c0-0.1,0-0.2,0.1-0.3c0-0.1,0.1-0.2,0.2-0.3s0.2-0.2,0.4-0.2c0.2,0,0.3-0.1,0.5-0.1s0.3,0,0.5,0
		c0.1,0,0.3,0.1,0.4,0.2c0.2,0.2,0.3,0.4,0.3,0.7c0,0.2,0,0.3,0,0.5C22.2,37.1,22.2,37.2,22.2,37.3C22.2,37.2,22.2,37.2,22.2,37.3z"
		/>
	<path class="st6" d="M19.4,36.8h3.1c0.2,0,0.3,0.1,0.3,0.3V39c0,0.2-0.1,0.3-0.3,0.3h-3.1c-0.2,0-0.3-0.1-0.3-0.3v-1.9
		C19.1,36.9,19.2,36.8,19.4,36.8z"/>
	<path class="st5" d="M22.5,39.2h0.1c0,0,0.1,0,0.1-0.1c0,0,0.1-0.1,0.1-0.2c0-0.3,0-0.7,0-1.3c0-0.1,0-0.3,0-0.4c0-0.1,0-0.1,0-0.2
		c0-0.1,0-0.1-0.1-0.2s-0.1-0.1-0.2-0.1h-0.2h-0.5h-2.3c-0.1,0-0.2,0-0.2,0.1v0.1v0.7c0,0.4,0,0.7,0,1.1v0.1c0,0,0,0.1,0.1,0.1
		c0.1,0.1,0.1,0.1,0.2,0.1h1.3H22h0.3L22.5,39.2L22.5,39.2L22.5,39.2h-0.1H22h-1.3h-0.9h-0.5c-0.1,0-0.3-0.1-0.3-0.2v-0.1
		c0-0.4,0-0.7,0-1.1c0-0.2,0-0.4,0-0.6c0,0,0-0.1,0-0.2s0-0.1,0-0.2c0.1-0.1,0.2-0.2,0.3-0.2h3c0.1,0,0.2,0,0.2,0.1
		c0.1,0,0.1,0.1,0.1,0.2c0,0.1,0,0.2,0,0.2v0.4c0,0.5,0,1,0,1.3c0,0.1,0,0.1-0.1,0.2L22.5,39.2C22.6,39.2,22.5,39.2,22.5,39.2z"/>
	<path class="st5" d="M22.7,38c0,0-0.8,0-1.8,0s-1.8,0-1.8,0s0.8,0,1.8,0S22.7,38,22.7,38z"/>
	<path class="st2" d="M20.9,38.3c0-0.2,0-0.4,0-0.6C21,37.9,21,38.2,20.9,38.3z"/>
	<path class="st7" d="M18.2,30.8c0,0,0.9-2.5,1.1-2.7s1.2-0.4,1.2-0.4l0.7,2.3l0.8-2.4c0,0,0.9,0.3,1.1,0.7s0.9,2.5,0.9,2.5
		l-1.4,0.5l0.2,0.8h-3.5l0.2-0.7L18.2,30.8z"/>
	<g class="st9">
		<path d="M20.1,29.2c-0.2-0.4-0.4-0.9-0.4-1.3L19.4,28c0,0.5,0.2,0.9,0.4,1.3c0,0.1,0.1,0.1,0.1,0.2s0.1,0,0.2,0
			C20.2,29.4,20.1,29.3,20.1,29.2z"/>
	</g>
	<g class="st9">
		<path d="M20.5,30.6l-0.1-0.1l0,0c-0.1,0-0.2,0.1-0.2,0.2s0.1,0.2,0.2,0.2c0,0,0,0,0.1,0c0,0,0.1,0,0.1-0.1v-0.1
			C20.6,30.7,20.6,30.7,20.5,30.6z"/>
	</g>
	<g class="st9">
		<path d="M22.7,31.5c-0.1,0.2-0.3,0.3-0.5,0.4s-0.4,0.1-0.6,0c-0.1,0-0.2-0.1-0.2-0.1c-0.1,0-0.1,0.1-0.2,0c0,0-0.1,0-0.1-0.1
			s0-0.2,0.1-0.2s0.2,0,0.2,0c0.1,0,0.2,0,0.2,0c0.3,0,0.7-0.2,0.9-0.5l0.2-0.2l-0.1,0.5L22.7,31.5z"/>
	</g>
	<path class="st5" d="M22.9,30.1c0,0.2-0.1,0.4-0.1,0.6s-0.1,0.4-0.1,0.6c0-0.2,0.1-0.4,0.1-0.6S22.9,30.3,22.9,30.1z"/>
	<path class="st3" d="M22.9,28C22.9,28.1,22.9,28.1,22.9,28c0,0.1,0,0.2-0.1,0.2c-0.1,0.2-0.2,0.3-0.4,0.4c-0.2,0.1-0.4,0.1-0.5,0.1
		s-0.1,0-0.2,0c0,0,0,0-0.1,0c0,0,0.1,0,0.2,0c0.2,0,0.4,0,0.5-0.1c0.2-0.1,0.3-0.2,0.4-0.4C22.9,28.1,22.9,28,22.9,28z"/>
	<path class="st3" d="M23.1,28.3L23.1,28.3C23,28.4,23,28.5,23,28.5c-0.3,0.4-0.7,0.5-1.2,0.5c-0.1,0-0.1,0-0.2,0c0,0,0,0-0.1,0
		c0,0,0.1,0,0.3,0.1c0.4,0.1,0.9-0.1,1.2-0.4C23.1,28.4,23.1,28.4,23.1,28.3z"/>
	<path class="st3" d="M21.1,29.7C21,29.7,21,29.8,21.1,29.7c-0.1,0-0.2,0.1-0.3,0.1c-0.2,0.1-0.4,0.2-0.6,0.3s-0.4,0.3-0.5,0.5
		c-0.1,0.1-0.1,0.1-0.1,0.2c0,0,0,0-0.1,0.1c0,0,0,0,0-0.1c0,0,0.1-0.1,0.1-0.2c0.2-0.2,0.3-0.3,0.5-0.5c0.2-0.1,0.4-0.2,0.6-0.3
		C20.9,29.8,20.9,29.8,21.1,29.7C21,29.7,21,29.7,21.1,29.7z"/>
	<path class="st3" d="M21,29.5L21,29.5c-0.1,0-0.2,0.1-0.3,0.1c-0.2,0.1-0.4,0.2-0.6,0.3s-0.4,0.2-0.6,0.3c-0.1,0-0.1,0.1-0.2,0.1
		c0,0,0,0-0.1,0c0,0,0,0,0.1,0c0,0,0.1-0.1,0.2-0.1c0.2-0.1,0.4-0.2,0.6-0.3s0.4-0.2,0.7-0.2C20.8,29.5,20.9,29.5,21,29.5L21,29.5z"
		/>
	<path class="st3" d="M23.6,30.9c-0.1-0.1-0.2-0.2-0.3-0.2c-0.1-0.1-0.2-0.1-0.4-0.2H23c0.1,0,0.2,0.1,0.3,0.1S23.4,30.8,23.6,30.9
		C23.5,30.9,23.5,30.9,23.6,30.9z"/>
	<path class="st3" d="M18.7,30.9c-0.1-0.1-0.1-0.2-0.2-0.4c0-0.1-0.1-0.3-0.1-0.4c0,0,0.1,0.2,0.1,0.4
		C18.6,30.7,18.7,30.9,18.7,30.9z"/>
	<path class="st3" d="M20.2,32.1c-0.1,0-0.2-0.1-0.4-0.2c-0.1-0.1-0.2-0.1-0.3-0.2c0,0,0.2,0.1,0.4,0.2C20,32,20.2,32.1,20.2,32.1z"
		/>
	<path class="st5" d="M21.1,30.5L21.1,30.5c0-0.2-0.1-0.3-0.1-0.4c-0.1-0.2-0.2-0.6-0.3-1c-0.1-0.4-0.2-0.7-0.3-1
		c0-0.1-0.1-0.2-0.1-0.3v-0.1v0.1c0,0.1,0.1,0.2,0.1,0.3c0.1,0.2,0.2,0.6,0.3,1c0.1,0.4,0.2,0.7,0.3,1C21,30.2,21.1,30.3,21.1,30.5
		C21.1,30.4,21.1,30.4,21.1,30.5z"/>
	<path class="st5" d="M21.4,30.5c0,0-0.1,0-0.2,0c0,0-0.1,0-0.2,0C21.2,30.5,21.3,30.5,21.4,30.5L21.4,30.5z"/>
	<path class="st5" d="M22.2,27.7c0,0-0.2,0.6-0.4,1.4c-0.2,0.8-0.4,1.4-0.5,1.4s0.2-0.6,0.4-1.4C22,28.3,22.2,27.7,22.2,27.7z"/>
	<path class="st5" d="M19.5,31.4c0,0-0.1-0.3-0.2-0.7c-0.1-0.2-0.1-0.5-0.1-0.7c0,0,0.1,0.3,0.2,0.7S19.6,31.4,19.5,31.4z"/>
	<path d="M23.6,9.6l-0.2,0.7h-0.2L23,9.8l-0.2,0.5h-0.2l-0.2-0.7h0.2l0.2,0.5L23,9.6h0.2l0.2,0.5L23.6,9.6L23.6,9.6z"/>
	<path d="M23.7,9.6h0.2v0.7h-0.2V9.6z"/>
	<path d="M23.9,10.2l0.1-0.1c0.1,0,0.2,0.1,0.2,0.1c0.1,0,0.1,0,0.1-0.1s-0.4,0-0.4-0.3c0-0.1,0.1-0.2,0.3-0.2c0.1,0,0.2,0,0.2,0.1
		v0.1c-0.1,0-0.1-0.1-0.2-0.1s-0.1,0-0.1,0.1s0.4,0,0.4,0.3c0,0.1-0.1,0.2-0.3,0.2C24.1,10.3,24,10.3,23.9,10.2z"/>
	<path d="M25.3,9.6v0.7h-0.2V10h-0.3v0.3h-0.2V9.6h0.2v0.3h0.3V9.6H25.3z"/>
	<path d="M25.6,9.6L25.6,9.6v0.7H26v0.1h-0.5L25.6,9.6z"/>
	<path d="M26.2,9.6L26.2,9.6l-0.1,0.7H26L26.2,9.6z"/>
	<path d="M26.3,10.2L26.3,10.2c0.1,0,0.2,0,0.3,0c0.1,0,0.2,0,0.2-0.1c0-0.2-0.4-0.1-0.4-0.3c0-0.1,0.1-0.2,0.3-0.2
		c0.1,0,0.2,0,0.2,0.1v0.1c-0.1,0-0.1-0.1-0.2-0.1s-0.2,0.1-0.2,0.1c0,0.2,0.4,0.1,0.4,0.3c0,0.1-0.1,0.2-0.3,0.2
		C26.5,10.3,26.4,10.3,26.3,10.2z"/>
	<path d="M27.3,9.6H27V9.5h0.6v0.1H27.3v0.7h-0.1L27.3,9.6z"/>
	<path class="st5" d="M32,9.4c0,0-0.3,0-0.8,0c-0.4,0-0.8,0-0.8,0s0.3,0,0.8,0S32,9.4,32,9.4z"/>
	<path class="st5" d="M32,9.8c0,0-0.3,0-0.8,0s-0.8,0-0.8,0s0.3,0,0.8,0S32,9.8,32,9.8z"/>
	<path class="st5" d="M32,10.2c0,0-0.3,0-0.8,0c-0.3,0-0.5,0-0.8,0c0,0,0.3,0,0.8,0C31.5,10.2,31.8,10.2,32,10.2z"/>
</g>
<g id="freepik--Character--inject-25">
	<polygon class="st7" points="20.4,43.7 19.9,47.7 17.8,47.5 18.3,43.5 	"/>
	<path class="st5" d="M18.9,47.4c0,0,0.1-0.9,0.2-1.9c0.2-1.1,0.3-1.9,0.3-1.9s-0.1,0.9-0.2,1.9S18.9,47.4,18.9,47.4z"/>
	<polygon class="st5" points="19.9,47.4 17.8,47.2 17.8,47.5 19.9,47.7 	"/>
	<path class="st5" d="M17.9,46.2C17.9,46.2,18,46.1,17.9,46.2c0.1-0.2,0.2-0.2,0.3-0.3c0.1-0.1,0.2-0.1,0.4-0.2c0.5-0.2,1,0,1.3,0.4
		c0,0.1,0.1,0.2,0.1,0.2v0.1c0-0.1-0.1-0.2-0.2-0.3c-0.2-0.2-0.4-0.4-0.7-0.4c-0.3,0-0.6,0-0.9,0.2C18,46.1,17.9,46.2,17.9,46.2z"/>
	<g class="st9">
		<polygon points="20.2,45.3 20.2,45.7 18,45.5 18.1,45.1 		"/>
	</g>
	<polygon class="st7" points="27.3,44 27,48 24.9,47.9 25.1,43.9 	"/>
	<path class="st5" d="M26,47.8c0,0,0-0.9,0.1-2s0.2-2,0.2-2s0,0.9-0.1,2C26.1,46.9,26,47.8,26,47.8z"/>
	<polygon class="st5" points="27,47.7 24.9,47.6 24.9,47.9 27,48 	"/>
	<path class="st5" d="M24.9,46.6C24.9,46.6,25,46.6,24.9,46.6c0.1-0.2,0.2-0.2,0.3-0.3c0.1-0.1,0.2-0.2,0.4-0.2
		c0.2-0.1,0.3-0.1,0.5-0.1c0.3,0,0.6,0.2,0.8,0.4c0.1,0.1,0.1,0.2,0.1,0.2v0.1c-0.1-0.1-0.1-0.2-0.2-0.3C26.6,46.2,26.3,46,26,46
		s-0.6,0.1-0.8,0.3S24.9,46.6,24.9,46.6z"/>
	<g class="st9">
		<polygon points="27.2,45.6 27.1,46 25,45.9 25,45.6 		"/>
	</g>
	<path class="st5" d="M19.2,25.3c-0.1,0-0.3,2.6-0.2,3.5c0.1,0.9,0.1,7.6,0.1,7.6s-0.4,0.3-0.4,0.7S17.9,45,17.9,45l2.4,0.4
		c0,0,2.2-8.1,2.3-9.3c0.1-1.1,1.6-8.9,1.6-8.9s0.5,7.3,0.5,8.4s0,9.8,0,9.8s1.8,0.3,2.7,0c0,0,0.7-6.5,0.7-8.7v-3.5
		c0,0,0.9-4,1.3-6.1s0-4,0-4l-7.3-1L19.2,25.3z"/>
	<path class="st6" d="M21.1,37.1C20.8,37,20.5,37,20.2,37s-0.6,0.1-0.9,0.3c0.1-0.1,0.2-0.1,0.2-0.1c0.4-0.2,0.9-0.2,1.3-0.1
		C20.9,37,21,37,21.1,37.1z"/>
	<path class="st6" d="M21.3,36.4c-0.2,0-0.5,0-0.7,0s-0.5,0-0.7-0.1c0.2,0,0.5,0,0.7,0C20.8,36.4,21,36.4,21.3,36.4z"/>
	<path class="st6" d="M26.3,37.9C26.3,37.9,26.2,37.9,26.3,37.9c-0.1-0.1-0.2-0.2-0.2-0.2c-0.4-0.4-0.6-1-0.6-1.6c0-0.1,0-0.2,0-0.2
		v-0.1c0,0,0,0.1,0,0.3c0.1,0.6,0.3,1.1,0.6,1.5C26.2,37.9,26.3,37.9,26.3,37.9z"/>
	<path class="st6" d="M24.3,27.1L24.3,27.1l-0.2,0.2L24,27.4c-0.3,0.2-0.6,0.3-0.9,0.4s-0.7,0.1-1,0.1H22h-0.1h-0.1
		c0,0-0.1,0-0.1-0.1c0.1,0,0.3,0.1,0.4,0.1c0.3,0,0.7,0,1-0.1s0.6-0.2,0.9-0.4l0.1-0.1L24.3,27.1C24.2,27.1,24.3,27.1,24.3,27.1z"/>
	<path class="st10" d="M33.2,6.6c0-0.4,0.1-0.7,0.2-1c0.2-0.5,1-1.3,1-1.3s1-0.8,1.1-0.8s0.1,0.2,0,0.3s-0.7,0.8-0.7,0.8
		S35,4.7,35,4.8C35,4.9,35,5,35,5s0.2,0.1,0.3,0.2c0,0.1,0,0.2,0,0.2c0.1,0,0.1,0.1,0.1,0.2s0,0.2,0,0.3c0,0-0.4,0.4-0.5,0.5
		c-0.2,0.1-0.4,0.1-0.4,0.1l-0.1,0.2v0.5L33.2,6.6z"/>
	<path class="st6" d="M17.6,10.5c0,0-3.7,6.6-3.7,7.6c0,1.8,5.1,3.3,5.1,3.3l0.7-2.1l-2.6-1.8l1.9-4.2L17.6,10.5z"/>
	<path class="st6" d="M17.6,10.5c0.5-0.4,1.1-0.6,1.7-0.7c1-0.1,2.8-0.2,2.8-0.2s4.9-1.1,5.2-0.9c0.4,0.2,0.9,1.5,0.9,2.1
		c0.1,0.6-0.4,6.5-0.4,6.5s2.2,6.8,2,7c-0.1,0.1-2.7,1-5.4,1.2l-0.1-2l-0.3,2c-2.5,0.2-5.3,0.3-5.3,0.3s1.9-6.7,1.9-6.9
		C20.5,18.7,17.3,11.2,17.6,10.5z"/>
	<path class="st6" d="M27.3,8.8c0,0,1.8,1,2,1s0.4-0.4,0.7-0.1l1.6-0.3l1.6-2.9c0.6,0.2,1.1,0.5,1.6,1c0,0-0.9,3-1.4,3.5
		s-2.6,2-5.5,2l-0.4-2.4L27.3,8.8z"/>
	<path class="st5" d="M29.1,12.3c0,0,0.1-0.1,0.2-0.4c0.1-0.1,0.1-0.3,0.1-0.4c0-0.2,0.1-0.3,0.1-0.5s0-0.3,0-0.5
		c0-0.1,0-0.3-0.1-0.4c-0.1-0.2-0.1-0.4-0.1-0.4s0,0.1,0.1,0.1c0,0.1,0.1,0.2,0.1,0.3s0.1,0.3,0.1,0.4c0,0.2,0,0.4,0,0.5
		c0,0.2,0,0.4-0.1,0.5c0,0.1-0.1,0.3-0.2,0.4C29.3,12.1,29.2,12.2,29.1,12.3L29.1,12.3z"/>
	<path class="st5" d="M32.2,10.1c-0.3-0.1-0.5-0.3-0.7-0.6c0.1,0.1,0.2,0.2,0.3,0.3C32,9.8,32.1,9.9,32.2,10.1z"/>
	<path class="st10" d="M19,21.3c0,0,0.1,0.3,0.5,0c0,0,0.6-0.1,0.9-0.4s0.4-0.5,0.6-0.5s0.8-0.1,0.8-0.1s0.2-0.3,0-0.4s-1.1,0-1.1,0
		h-0.2v-0.3v-0.3c0,0-0.5,0.2-0.5,0.3c0,0-0.4-0.1-0.4,0.1L19,21.3z"/>
	<path class="st5" d="M19.3,15.7c0,0,0-0.1-0.1-0.1c0-0.1-0.1-0.2-0.2-0.4c-0.1-0.3-0.3-0.7-0.5-1.2s-0.3-0.9-0.4-1.2
		c0-0.2-0.1-0.3-0.1-0.4v-0.1v0.1l0.1,0.4c0.1,0.3,0.2,0.7,0.4,1.2s0.3,0.9,0.4,1.2l0.1,0.4C19.3,15.6,19.3,15.7,19.3,15.7z"/>
	<path class="st5" d="M25.3,19.1c0,0,0,0.1-0.1,0.2s-0.2,0.2-0.3,0.4c-0.3,0.4-0.7,0.8-1.1,1.1c-0.4,0.3-0.8,0.6-1.3,0.8
		c-0.2,0.1-0.3,0.2-0.4,0.2c0,0-0.1,0-0.2,0.1c0,0,0.1-0.1,0.2-0.1s0.2-0.1,0.4-0.2c0.9-0.5,1.7-1.1,2.4-2c0.1-0.2,0.2-0.3,0.3-0.4
		C25.3,19.2,25.3,19.2,25.3,19.1z"/>
	<path class="st5" d="M17.2,17.5c0,0-0.3,0.1-0.6,0.2S16,18,16,17.9c0.2-0.1,0.4-0.2,0.6-0.3C16.8,17.5,17,17.5,17.2,17.5z"/>
	<g class="st9">
		<path d="M18.6,14.1c-0.4-0.2-0.8-0.7-0.8-1.1c-0.1-0.4,0.1-0.9,0.1-1.3C18.1,12.5,18.4,13.3,18.6,14.1"/>
	</g>
	<g class="st9">
		<path d="M22.4,22.3c1.3,0.4,2.7-0.3,3.1-1.5c0-0.1,0.1-0.2,0.1-0.3C24.6,21.1,23.5,21.8,22.4,22.3z"/>
	</g>
	<path class="st5" d="M28.1,10.2v0.1c0,0.1,0,0.2,0.1,0.4c0.1,0.8,0.1,1.6-0.1,2.3c0,0.1,0,0.3-0.1,0.3v0.1c0,0,0-0.2,0.1-0.5
		c0.1-0.8,0.1-1.6,0-2.3C28.1,10.4,28.1,10.2,28.1,10.2z"/>
	<g class="st9">
		<path d="M26.1,8.1l-5.7,8.8c1.4,0.7,3.1,1,4.4,0.2c0.4,0.5,1.1,0.3,1.5-0.2s0.4-1.1,0.4-1.7C26.8,12.9,26.4,10.5,26.1,8.1z"/>
	</g>
	<path class="st5" d="M23.8,1.9c-0.6-0.1-1.2,0.2-1.7,0.6s-0.8,1-1,1.6c-0.5,1.1-0.7,2.3-1,3.5c-0.4,1.7-0.8,3.5-0.9,5.3
		s0.4,2.8,1.2,4.5l2.7-0.4v-0.5l0.4,0.5l1.1-0.2l0.3-2.8l0.5,2.6l0.9-0.1c0.9-3.5-0.1-5.8,0.4-9.3C26.8,6.4,27,5.5,27,4.7
		s-0.4-1.8-1-2.4C25.4,1.6,24.4,1.4,23.8,1.9"/>
	<path class="st6" d="M24.5,16.7C24.5,16.6,24.4,16.6,24.5,16.7c0-0.1,0-0.1,0-0.2L24.4,16c-0.1-0.4-0.2-1-0.2-1.7
		c-0.1-0.8-0.2-1.7-0.1-2.5c0-0.5,0-1,0.1-1.5s0.2-1,0.3-1.6c0.3-1,0.7-2,0.9-2.9c0.1-0.4,0.2-0.9,0.2-1.3c0-0.4-0.1-0.8-0.2-1.1
		S25.2,2.8,25,2.6c-0.1-0.2-0.3-0.4-0.5-0.5C24.2,2,24.1,1.9,24,1.8h-0.1l0,0l0,0H24c0.1,0.1,0.3,0.1,0.4,0.2
		c0.2,0.1,0.4,0.3,0.5,0.5c0.2,0.3,0.3,0.5,0.4,0.9s0.2,0.8,0.2,1.2c0,0.5-0.1,0.9-0.2,1.3c-0.2,0.9-0.6,1.9-0.9,2.9
		c-0.1,0.5-0.2,1-0.3,1.6c-0.1,0.5-0.1,1-0.1,1.5c0,0.8,0,1.7,0.1,2.5c0.1,0.7,0.2,1.3,0.2,1.7C24.3,16.3,24.3,16.4,24.5,16.7
		C24.4,16.6,24.4,16.6,24.5,16.7C24.5,16.6,24.5,16.6,24.5,16.7z"/>
	<path class="st6" d="M20.7,14.9C20.7,14.9,20.7,14.8,20.7,14.9c0-0.1,0-0.1,0-0.1v-0.4c0-0.1,0-0.2,0-0.3s0-0.2,0-0.3
		c0-0.2,0-0.5,0-0.8c0-0.1,0-0.3,0-0.5s0-0.3,0-0.5c0-0.3,0-0.7,0-1.1c0.1-0.8,0.2-1.7,0.3-2.5c0.2-0.8,0.4-1.6,0.6-2.4
		c0.1-0.4,0.2-0.7,0.4-1c-0.1-0.2,0-0.4,0-0.5l0.2-0.4c0.1-0.3,0.2-0.5,0.3-0.7c0-0.1,0.1-0.2,0.1-0.3l0.1-0.2
		c0.1-0.1,0.1-0.2,0.2-0.3V2.5l0,0l0,0c0,0,0,0,0,0.1s-0.1,0.2-0.2,0.3c0,0.1-0.1,0.2-0.1,0.2c0,0.1-0.1,0.2-0.1,0.3
		c-0.1,0.2-0.2,0.5-0.3,0.7c-0.1,0.1-0.1,0.3-0.2,0.4c0,0.2,0,0.3-0.1,0.5c-0.1,0.3-0.2,0.7-0.4,1c-0.2,0.8-0.4,1.6-0.6,2.4
		s-0.3,1.7-0.3,2.5c0,0.4,0,0.8-0.1,1.1c0,0.2,0,0.3,0,0.5s0,0.3,0,0.5c0,0.3,0,0.6,0,0.8c0,0.1,0,0.2,0,0.3s0,0.2,0,0.3
		c0,0.2,0,0.3,0,0.4C20.6,14.8,20.6,14.8,20.7,14.9C20.6,14.8,20.6,14.9,20.7,14.9z"/>
	<path class="st6" d="M22.1,17C22.1,17,22.1,16.9,22.1,17c0-0.1,0-0.1,0-0.1c0-0.1-0.1-0.2-0.1-0.4c0-0.1,0-0.2-0.1-0.3
		c0-0.1,0-0.2-0.1-0.3c0-0.2-0.1-0.5-0.2-0.8c0-0.2-0.1-0.3-0.1-0.5s0-0.3-0.1-0.5s-0.1-0.4-0.1-0.6s0-0.4,0-0.6
		c-0.1-0.9,0-1.8,0-2.6c0.1-0.9,0.2-1.8,0.4-2.6c0-0.2,0.1-0.4,0.1-0.6s0.1-0.4,0.1-0.5c0.1-0.3,0.2-0.7,0.3-1s0.2-0.5,0.3-0.8
		c0.1-0.2,0.2-0.4,0.2-0.6L23,3.8V3.7l0,0l0,0v0.1c0,0.1-0.1,0.2-0.1,0.4s-0.1,0.4-0.2,0.6s-0.2,0.5-0.3,0.8c-0.1,0.3-0.2,0.6-0.3,1
		C22.1,6.8,22,7,22,7.1l-0.1,0.6c-0.2,0.9-0.3,1.7-0.4,2.6s-0.1,1.8,0,2.6c0,0.2,0,0.4,0,0.6s0,0.4,0.1,0.5s0,0.3,0.1,0.5
		c0,0.2,0.1,0.3,0.1,0.5c0,0.3,0.1,0.6,0.2,0.8c0,0.1,0,0.2,0.1,0.3c0,0.1,0,0.2,0.1,0.3l0.1,0.4C22.1,16.8,22.1,16.9,22.1,17
		C22.1,16.9,22.1,16.9,22.1,17z"/>
	<path class="st6" d="M25.9,15.3L25.9,15.3c0-0.1,0-0.1-0.1-0.1V15c0-0.1-0.1-0.1-0.1-0.2c-0.2-0.5-0.4-1-0.4-1.5
		c-0.2-1.2-0.2-2.5,0.1-3.8c0.1-0.5,0.3-1,0.4-1.5c0.2-0.5,0.3-1,0.4-1.5s0.2-0.9,0.2-1.4c0-0.4,0-0.8-0.1-1.3
		c-0.1-0.4-0.2-0.7-0.4-1c-0.3-0.5-0.7-0.8-1.2-1c-0.1-0.1-0.3-0.1-0.4-0.1h-0.1l0,0l0,0h0.1c0.1,0,0.3,0.1,0.4,0.1
		c0.5,0.2,0.9,0.6,1.2,1c0.2,0.3,0.4,0.7,0.4,1c0.1,0.4,0.2,0.8,0.1,1.3c0,0.5-0.1,0.9-0.2,1.4S26,7.5,25.8,8s-0.3,1-0.4,1.5
		s-0.2,0.9-0.2,1.4c-0.1,1.3,0.1,2.7,0.6,3.9c0,0.1,0.1,0.2,0.1,0.2l0.1,0.2L25.9,15.3C25.9,15.2,25.9,15.3,25.9,15.3z"/>
</g>
<g id="freepik--Floor--inject-25">
	<path class="st5" d="M51.8,24.6c0,0-11.1,0-24.8,0s-24.8,0-24.8,0s11.1,0,24.8,0S51.8,24.6,51.8,24.6z"/>
</g>
<rect x="-211.2" y="-130.2" class="st11" width="476.5" height="309.5"/>
<g>
	<path d="M10,29.3c-0.5,0-1-0.1-1.4-0.3c-0.4-0.2-0.7-0.5-1-0.8c-0.2-0.3-0.4-0.7-0.4-1.2h1c0,0.4,0.2,0.7,0.5,1s0.7,0.4,1.1,0.4
		c0.4,0,0.7-0.1,1-0.3c0.3-0.2,0.5-0.4,0.7-0.7c0.2-0.3,0.2-0.6,0.2-1s-0.1-0.7-0.2-1c-0.2-0.3-0.4-0.5-0.7-0.7s-0.6-0.3-1-0.3
		c-0.3,0-0.5,0-0.8,0.1s-0.5,0.2-0.7,0.3l-1-0.1L8,20.5h4.5v0.9H8.9L8.6,24h0.1c0.2-0.1,0.4-0.3,0.7-0.4s0.6-0.1,0.8-0.1
		c0.5,0,1,0.1,1.4,0.4s0.7,0.6,1,1c0.2,0.4,0.4,0.9,0.4,1.5s-0.1,1.1-0.4,1.5c-0.2,0.4-0.6,0.8-1,1C11.1,29.2,10.6,29.3,10,29.3z"/>
	<path d="M17.4,29.3c-0.6,0-1.2-0.2-1.6-0.5c-0.5-0.4-0.8-0.9-1-1.5c-0.2-0.7-0.4-1.5-0.4-2.4s0.1-1.7,0.4-2.4
		c0.2-0.7,0.6-1.2,1-1.5c0.5-0.4,1-0.5,1.6-0.5s1.2,0.2,1.6,0.5c0.5,0.4,0.8,0.9,1,1.5c0.2,0.7,0.4,1.5,0.4,2.4s-0.1,1.8-0.4,2.4
		c-0.2,0.7-0.6,1.2-1,1.5C18.6,29.1,18.1,29.3,17.4,29.3z M17.4,28.4c0.6,0,1.1-0.3,1.5-0.9s0.5-1.5,0.5-2.6c0-0.8-0.1-1.4-0.2-1.9
		s-0.4-0.9-0.7-1.2c-0.3-0.3-0.7-0.4-1.1-0.4c-0.6,0-1.1,0.3-1.5,0.9s-0.5,1.5-0.5,2.6c0,0.8,0.1,1.4,0.2,1.9s0.4,0.9,0.7,1.2
		C16.6,28.3,17,28.4,17.4,28.4z"/>
	<path d="M22.9,22.6l1.6,2.7l1.6-2.7h1.2L25,25.9l2.1,3.3H26l-1.6-2.5l-1.6,2.5h-1.2l2.1-3.3l-2.1-3.3H22.9z"/>
	<path d="M31.3,29.3c-0.5,0-1-0.1-1.4-0.3c-0.4-0.2-0.7-0.5-1-0.8c-0.2-0.3-0.4-0.7-0.4-1.2h1c0,0.4,0.2,0.7,0.5,1s0.7,0.4,1.1,0.4
		s0.7-0.1,1-0.3c0.3-0.2,0.5-0.4,0.7-0.7c0.2-0.3,0.2-0.6,0.2-1s-0.1-0.7-0.2-1c-0.2-0.3-0.4-0.5-0.7-0.7s-0.6-0.3-1-0.3
		c-0.3,0-0.5,0-0.8,0.1s-0.5,0.2-0.7,0.3l-1-0.1l0.5-4.3h4.5v0.9H30L29.8,24h0.1c0.2-0.1,0.4-0.3,0.7-0.4c0.3-0.1,0.6-0.1,0.8-0.1
		c0.5,0,1,0.1,1.4,0.4c0.4,0.3,0.7,0.6,1,1c0.2,0.4,0.4,0.9,0.4,1.5s-0.1,1.1-0.4,1.5c-0.2,0.4-0.6,0.8-1,1
		C32.3,29.2,31.8,29.3,31.3,29.3z"/>
	<path d="M38.7,29.3c-0.6,0-1.2-0.2-1.6-0.5c-0.5-0.4-0.8-0.9-1-1.5c-0.2-0.7-0.4-1.5-0.4-2.4s0.1-1.7,0.4-2.4
		c0.2-0.7,0.6-1.2,1-1.5c0.5-0.4,1-0.5,1.6-0.5s1.2,0.2,1.6,0.5c0.5,0.4,0.8,0.9,1,1.5c0.2,0.7,0.4,1.5,0.4,2.4s-0.1,1.8-0.4,2.4
		c-0.2,0.7-0.6,1.2-1,1.5C39.9,29.1,39.3,29.3,38.7,29.3z M38.7,28.4c0.6,0,1.1-0.3,1.5-0.9s0.5-1.5,0.5-2.6c0-0.8-0.1-1.4-0.2-1.9
		s-0.4-0.9-0.7-1.2c-0.3-0.3-0.7-0.4-1.1-0.4c-0.6,0-1.1,0.3-1.5,0.9s-0.5,1.5-0.5,2.6c0,0.8,0.1,1.4,0.2,1.9s0.4,0.9,0.7,1.2
		S38.3,28.4,38.7,28.4z"/>
</g>
</svg>
