<?xml version="1.0" encoding="utf-8"?>
<!-- Generator: Adobe Illustrator 26.1.0, SVG Export Plug-In . SVG Version: 6.00 Build 0)  -->
<svg version="1.1" id="Layer_1" xmlns="http://www.w3.org/2000/svg" xmlns:xlink="http://www.w3.org/1999/xlink" x="0px" y="0px"
	 viewBox="0 0 500 422.1" style="enable-background:new 0 0 500 422.1;" xml:space="preserve">
<style type="text/css">
	.st0{fill:#FFE6E6;}
	.st1{enable-background:new    ;}
</style>
<g id="BACKGROUND">
</g>
<rect x="-27.4" y="-5" class="st0" width="550.9" height="433"/>
<g class="st1">
	<path d="M96.1,244.7v-39.2h15.4c2.9,0,5.5,0.6,7.6,1.7c2.1,1.1,3.6,2.7,4.8,4.8c1.1,2,1.7,4.3,1.7,6.9c0,2.7-0.6,4.9-1.7,6.9
		c-1.1,2-2.8,3.5-4.9,4.6s-4.8,1.7-7.7,1.7h-9.9v-6.7h8.5c1.5,0,2.9-0.3,3.9-0.8s1.8-1.3,2.4-2.4c0.6-1.1,0.8-2.1,0.8-3.4
		c0-1.3-0.3-2.4-0.8-3.4c-0.6-1-1.3-1.7-2.4-2.2c-1-0.6-2.4-0.8-3.9-0.8h-5.6v32.5H96.1z"/>
	<path d="M139.1,205.6v39.2H131v-39.2C131,205.6,139.1,205.6,139.1,205.6z"/>
	<path d="M153.9,245.3c-1.8,0-3.5-0.3-5-1c-1.4-0.7-2.7-1.7-3.5-2.9c-0.8-1.3-1.3-2.9-1.3-4.9c0-1.7,0.3-2.9,0.8-4.1
		c0.6-1.1,1.4-2,2.5-2.7s2.2-1.1,3.5-1.5c1.3-0.3,2.7-0.6,4.2-0.7c1.7-0.1,3.1-0.3,4.2-0.6c1-0.1,1.8-0.4,2.2-0.7
		c0.4-0.3,0.7-0.8,0.7-1.4v-0.1c0-1.3-0.4-2.1-1.1-2.8c-0.7-0.7-1.8-1-3.2-1s-2.7,0.3-3.5,1c-0.8,0.7-1.4,1.4-1.7,2.4l-7.6-0.6
		c0.4-1.8,1.1-3.4,2.2-4.6c1.1-1.3,2.5-2.4,4.3-3.1c1.8-0.7,3.8-1.1,6.2-1.1c1.7,0,3.2,0.1,4.8,0.6c1.5,0.4,2.8,1,4.1,1.8
		c1.1,0.8,2.1,1.8,2.8,3.1c0.7,1.3,1,2.8,1,4.5v19.9h-7.7v-4.1h-0.3c-0.4,1-1.1,1.7-2,2.4c-0.8,0.7-1.7,1.3-2.8,1.7
		C156.7,245.2,155.4,245.3,153.9,245.3z M156.3,239.7c1.3,0,2.2-0.3,3.2-0.7c1-0.4,1.7-1.1,2.1-2c0.6-0.8,0.8-1.7,0.8-2.8v-3.1
		c-0.3,0.1-0.6,0.3-1,0.4c-0.4,0.1-1,0.3-1.5,0.4c-0.6,0.1-1.1,0.1-1.7,0.3c-0.6,0.1-1,0.1-1.5,0.3c-1,0.1-1.8,0.4-2.5,0.7
		s-1.3,0.7-1.7,1.3c-0.4,0.6-0.6,1.1-0.6,2c0,1.1,0.4,2,1.3,2.5C154,239.4,155,239.7,156.3,239.7z"/>
	<path d="M190.1,245.3c-3.1,0-5.6-0.7-7.8-2c-2.2-1.3-3.8-3.1-5-5.3c-1.1-2.2-1.7-4.9-1.7-7.8c0-3.1,0.6-5.6,1.8-8
		c1.3-2.4,2.8-4.1,5-5.3c2.1-1.3,4.8-2,7.7-2c2.5,0,4.8,0.4,6.7,1.4c2,1,3.5,2.2,4.6,3.9c1.1,1.7,1.7,3.6,1.8,5.9h-7.7
		c-0.3-1.4-0.8-2.7-1.7-3.5c-1-0.8-2.1-1.4-3.6-1.4c-1.3,0-2.4,0.3-3.4,1c-1,0.7-1.7,1.7-2.2,2.9c-0.6,1.3-0.8,2.9-0.8,4.8
		c0,1.8,0.3,3.5,0.8,4.8c0.6,1.3,1.3,2.4,2.2,2.9c1,0.7,2.1,1,3.4,1c1,0,1.8-0.1,2.5-0.6c0.7-0.4,1.4-1,1.8-1.7
		c0.6-0.7,0.8-1.7,1-2.7h7.7c-0.1,2.2-0.7,4.2-1.8,5.9s-2.7,3.1-4.5,4.1C195,244.9,192.8,245.3,190.1,245.3z"/>
	<path d="M221.9,245.3c-3.1,0-5.6-0.6-7.8-1.8c-2.2-1.3-3.9-2.9-5-5.3c-1.1-2.4-1.8-4.9-1.8-8.1c0-3.1,0.6-5.7,1.8-8
		c1.3-2.2,2.8-4.1,5-5.3c2.1-1.3,4.6-2,7.6-2c2,0,3.8,0.3,5.5,1c1.7,0.6,3.1,1.5,4.3,2.8c1.3,1.3,2.2,2.8,2.9,4.6
		c0.7,1.8,1.1,4.1,1.1,6.6v2.2h-24.9v-5h17.2c0-1.1-0.3-2.2-0.7-3.1c-0.6-0.8-1.3-1.7-2.1-2.1c-0.8-0.6-2-0.8-3.1-0.8
		c-1.3,0-2.4,0.3-3.2,0.8c-1,0.6-1.7,1.3-2.2,2.2c-0.6,1-0.8,2-0.8,3.2v4.8c0,1.4,0.3,2.7,0.8,3.8c0.6,1.1,1.3,1.8,2.2,2.5
		c1,0.6,2.2,0.8,3.5,0.8c0.8,0,1.7-0.1,2.5-0.4c0.7-0.3,1.4-0.7,2-1.1c0.6-0.6,1-1.1,1.3-1.8l7.6,0.6c-0.4,1.8-1.1,3.4-2.4,4.8
		c-1.1,1.4-2.7,2.4-4.6,3.1C226.5,245,224.3,245.3,221.9,245.3z"/>
	<path d="M248.9,227.8v17.1h-8.1v-39.2h8v15h0.3c0.7-1.7,1.7-3.1,3.2-4.1c1.5-1,3.4-1.5,5.6-1.5c2.1,0,3.8,0.4,5.3,1.4
		c1.5,0.8,2.7,2.1,3.5,3.8c0.8,1.7,1.3,3.6,1.3,5.9v18.7h-8.1v-17.2c0-1.8-0.4-3.2-1.4-4.2c-1-1-2.2-1.5-3.9-1.5
		c-1.1,0-2.1,0.3-2.9,0.7c-0.8,0.4-1.5,1.1-2,2.1C249.2,225.4,248.9,226.5,248.9,227.8z"/>
	<path d="M287.6,245.3c-2.9,0-5.6-0.7-7.7-2c-2.1-1.3-3.8-3.1-5-5.3c-1.3-2.2-1.8-4.9-1.8-8s0.6-5.7,1.8-8s2.8-4.1,5-5.3
		c2.1-1.3,4.8-2,7.7-2c2.9,0,5.6,0.7,7.7,2c2.1,1.3,3.8,3.1,5,5.3c1.1,2.2,1.8,4.9,1.8,8s-0.6,5.6-1.8,8c-1.1,2.2-2.8,4.1-5,5.3
		C293.1,244.6,290.7,245.3,287.6,245.3z M287.8,239c1.4,0,2.5-0.4,3.4-1.1c0.8-0.8,1.5-1.8,2.1-3.2c0.4-1.4,0.7-2.8,0.7-4.6
		c0-1.7-0.3-3.2-0.7-4.6c-0.4-1.4-1.1-2.4-2.1-3.2c-0.8-0.8-2.1-1.1-3.4-1.1c-1.4,0-2.5,0.4-3.5,1.1c-1,0.8-1.7,1.8-2.1,3.2
		c-0.4,1.4-0.7,2.8-0.7,4.6c0,1.7,0.3,3.2,0.7,4.6c0.4,1.4,1.1,2.4,2.1,3.2C285.3,238.6,286.4,239,287.8,239z"/>
	<path d="M315.6,205.6v39.2h-8.1v-39.2C307.5,205.6,315.6,205.6,315.6,205.6z"/>
	<path d="M333,245.3c-2.2,0-4.2-0.6-6-1.7s-3.2-2.8-4.3-5.2c-1.1-2.2-1.5-5-1.5-8.3c0-3.4,0.6-6.2,1.7-8.4c1.1-2.2,2.5-3.9,4.3-5
		c1.8-1.1,3.8-1.7,5.9-1.7c1.7,0,3.1,0.3,4.2,0.8c1.1,0.6,2,1.3,2.7,2.1c0.7,0.8,1.3,1.7,1.5,2.4h0.3v-14.7h8.1v39.2h-8v-4.8h-0.3
		c-0.4,0.8-1,1.7-1.7,2.4c-0.7,0.8-1.5,1.4-2.7,2C336,245,334.7,245.3,333,245.3z M335.6,238.7c1.3,0,2.4-0.4,3.4-1.1
		c1-0.7,1.7-1.7,2.1-3.1c0.6-1.3,0.7-2.8,0.7-4.6c0-1.7-0.3-3.2-0.7-4.6c-0.4-1.4-1.1-2.2-2.1-2.9c-1-0.7-2.1-1.1-3.4-1.1
		c-1.4,0-2.5,0.4-3.4,1.1c-1,0.7-1.7,1.7-2.1,3.1c-0.4,1.3-0.7,2.8-0.7,4.5s0.3,3.2,0.7,4.5c0.4,1.3,1.1,2.4,2.1,3.1
		C333.1,238.4,334.2,238.7,335.6,238.7z"/>
	<path d="M369.8,245.3c-3.1,0-5.6-0.6-7.8-1.8c-2.2-1.3-3.9-2.9-5-5.3c-1.1-2.4-1.8-4.9-1.8-8.1c0-3.1,0.6-5.7,1.8-8
		c1.3-2.2,2.8-4.1,5-5.3c2.1-1.3,4.6-2,7.6-2c2,0,3.8,0.3,5.5,1c1.7,0.7,3.1,1.5,4.3,2.8c1.3,1.3,2.2,2.8,2.9,4.6
		c0.7,1.8,1.1,4.1,1.1,6.6v2.2h-24.9v-5h17.2c0-1.1-0.3-2.2-0.7-3.1c-0.6-0.8-1.3-1.7-2.1-2.1c-0.8-0.6-2-0.8-3.1-0.8
		c-1.3,0-2.4,0.3-3.2,0.8s-1.7,1.3-2.2,2.2c-0.6,1-0.8,2-0.8,3.2v4.8c0,1.4,0.3,2.7,0.8,3.8s1.3,1.8,2.2,2.5c1,0.6,2.2,0.8,3.5,0.8
		c0.8,0,1.7-0.1,2.5-0.4c0.7-0.3,1.4-0.7,2-1.1c0.6-0.6,1-1.1,1.3-1.8l7.6,0.6c-0.4,1.8-1.1,3.4-2.4,4.8c-1.1,1.4-2.7,2.4-4.6,3.1
		C374.4,245,372.3,245.3,369.8,245.3z"/>
	<path d="M388.7,244.7v-29.4h8v5.2h0.3c0.6-1.8,1.4-3.2,2.7-4.2c1.3-1,2.7-1.4,4.3-1.4c0.4,0,0.8,0,1.3,0.1c0.4,0,0.8,0.1,1.3,0.3
		v7.3c-0.4-0.1-1-0.3-1.5-0.3c-0.6,0-1.3-0.1-1.8-0.1c-1.3,0-2.2,0.3-3.2,0.8c-1,0.6-1.7,1.3-2.2,2.1c-0.6,1-0.8,2-0.8,3.2V245h-8.1
		V244.7z"/>
</g>
</svg>
