<?xml version="1.0" encoding="utf-8"?>
<!-- Generator: Adobe Illustrator 26.1.0, SVG Export Plug-In . SVG Version: 6.00 Build 0)  -->
<svg version="1.1" id="Layer_1" xmlns="http://www.w3.org/2000/svg" xmlns:xlink="http://www.w3.org/1999/xlink" x="0px" y="0px"
	 viewBox="0 0 500 400" style="enable-background:new 0 0 500 400;" xml:space="preserve">
<style type="text/css">
	.st0{fill:#FFE6E6;}
	.st1{enable-background:new    ;}
</style>
<g id="BACKGROUND">
</g>
<rect x="-11" y="-9.8" class="st0" width="530" height="416.6"/>
<g class="st1">
	<path d="M107.9,230.5v-37.7h14.8c2.8,0,5.2,0.5,7.3,1.6c2,1.1,3.5,2.6,4.6,4.6c1.1,1.9,1.6,4.2,1.6,6.6c0,2.6-0.5,4.7-1.6,6.6
		s-2.7,3.4-4.7,4.4c-2,1.1-4.6,1.6-7.4,1.6h-9.6v-6.5h8.2c1.5,0,2.8-0.3,3.8-0.8s1.7-1.2,2.3-2.3c0.5-1.1,0.8-2,0.8-3.2
		s-0.3-2.3-0.8-3.2c-0.5-0.9-1.2-1.6-2.3-2.2c-0.9-0.5-2.3-0.8-3.8-0.8h-5.4v31.2H107.9z"/>
	<path d="M149.2,192.8v37.7h-7.8v-37.7C141.4,192.8,149.2,192.8,149.2,192.8z"/>
	<path d="M163.5,231c-1.7,0-3.4-0.3-4.8-0.9c-1.3-0.7-2.6-1.6-3.4-2.8c-0.8-1.2-1.2-2.8-1.2-4.7c0-1.6,0.3-2.8,0.8-3.9
		c0.5-1.1,1.3-1.9,2.4-2.6c1.1-0.7,2.2-1.1,3.4-1.5c1.2-0.3,2.6-0.5,4-0.7c1.6-0.1,3-0.3,4-0.5c0.9-0.1,1.7-0.4,2.2-0.7
		c0.4-0.3,0.7-0.8,0.7-1.3v-0.1c0-1.2-0.4-2-1.1-2.7s-1.7-0.9-3.1-0.9s-2.6,0.3-3.4,0.9c-0.8,0.7-1.3,1.3-1.6,2.3l-7.3-0.5
		c0.4-1.7,1.1-3.2,2.2-4.4s2.4-2.3,4.2-3s3.6-1.1,5.9-1.1c1.6,0,3.1,0.1,4.6,0.5c1.5,0.4,2.7,0.9,3.9,1.7c1.1,0.8,2,1.7,2.7,3
		c0.7,1.2,0.9,2.7,0.9,4.3v19.1h-7.4v-3.9h-0.3c-0.4,0.9-1.1,1.6-1.9,2.3c-0.8,0.7-1.6,1.2-2.7,1.6S164.9,231,163.5,231z
		 M165.8,225.6c1.2,0,2.2-0.3,3.1-0.7c0.9-0.4,1.6-1.1,2-1.9c0.5-0.8,0.8-1.6,0.8-2.7v-3c-0.3,0.1-0.5,0.3-0.9,0.4s-0.9,0.3-1.5,0.4
		c-0.5,0.1-1.1,0.1-1.6,0.3c-0.5,0.1-0.9,0.1-1.5,0.3c-0.9,0.1-1.7,0.4-2.4,0.7c-0.7,0.3-1.2,0.7-1.6,1.2s-0.5,1.1-0.5,1.9
		c0,1.1,0.4,1.9,1.2,2.4C163.6,225.4,164.5,225.6,165.8,225.6z"/>
	<path d="M198.3,231c-3,0-5.4-0.7-7.5-1.9c-2.2-1.2-3.6-3-4.8-5.1c-1.1-2.2-1.6-4.7-1.6-7.5c0-3,0.5-5.4,1.7-7.7s2.7-3.9,4.8-5.1
		c2-1.2,4.6-1.9,7.4-1.9c2.4,0,4.6,0.4,6.5,1.3c1.9,0.9,3.4,2.2,4.4,3.8s1.6,3.5,1.7,5.7h-7.4c-0.3-1.3-0.8-2.6-1.6-3.4
		c-0.9-0.8-2-1.3-3.5-1.3c-1.2,0-2.3,0.3-3.2,0.9c-0.9,0.7-1.6,1.6-2.2,2.8c-0.5,1.2-0.8,2.8-0.8,4.6s0.3,3.4,0.8,4.6
		c0.5,1.2,1.2,2.3,2.2,2.8c0.9,0.7,2,0.9,3.2,0.9c0.9,0,1.7-0.1,2.4-0.5c0.7-0.4,1.3-0.9,1.7-1.6c0.5-0.7,0.8-1.6,0.9-2.6h7.4
		c-0.1,2.2-0.7,4-1.7,5.7s-2.6,3-4.3,3.9C203,230.6,200.9,231,198.3,231z"/>
	<path d="M228.9,231c-3,0-5.4-0.5-7.5-1.7c-2.2-1.2-3.8-2.8-4.8-5.1c-1.1-2.3-1.7-4.7-1.7-7.8c0-3,0.5-5.5,1.7-7.7
		c1.2-2.2,2.7-3.9,4.8-5.1c2-1.2,4.4-1.9,7.3-1.9c1.9,0,3.6,0.3,5.2,0.9c1.6,0.5,3,1.5,4.2,2.7s2.2,2.7,2.8,4.4
		c0.7,1.7,1.1,3.9,1.1,6.3v2.2h-24v-4.8h16.6c0-1.1-0.3-2.2-0.7-3c-0.5-0.8-1.2-1.6-2-2c-0.8-0.5-1.9-0.8-3-0.8
		c-1.2,0-2.3,0.3-3.1,0.8c-0.9,0.5-1.6,1.2-2.2,2.2c-0.5,0.9-0.8,1.9-0.8,3.1v4.6c0,1.3,0.3,2.6,0.8,3.6c0.5,1.1,1.2,1.7,2.2,2.4
		c0.9,0.5,2.2,0.8,3.4,0.8c0.8,0,1.6-0.1,2.4-0.4c0.7-0.3,1.3-0.7,1.9-1.1c0.5-0.5,0.9-1.1,1.2-1.7l7.3,0.5
		c-0.4,1.7-1.1,3.2-2.3,4.6c-1.1,1.3-2.6,2.3-4.4,3C233.3,230.7,231.2,231,228.9,231z"/>
	<path d="M254.9,214.2v16.4H247v-37.7h7.7v14.4h0.3c0.7-1.6,1.6-3,3.1-3.9c1.5-0.9,3.2-1.5,5.4-1.5c2,0,3.6,0.4,5.1,1.3
		c1.5,0.8,2.6,2,3.4,3.6c0.8,1.6,1.2,3.5,1.2,5.7v18h-7.8v-16.6c0-1.7-0.4-3.1-1.3-4c-0.9-0.9-2.2-1.5-3.8-1.5c-1.1,0-2,0.3-2.8,0.7
		c-0.8,0.4-1.5,1.1-1.9,2C255.1,211.9,254.9,213,254.9,214.2z"/>
	<path d="M292.1,231c-2.8,0-5.4-0.7-7.4-1.9c-2-1.2-3.6-3-4.8-5.1c-1.2-2.2-1.7-4.7-1.7-7.7s0.5-5.5,1.7-7.7
		c1.2-2.2,2.7-3.9,4.8-5.1c2-1.2,4.6-1.9,7.4-1.9c2.8,0,5.4,0.7,7.4,1.9c2,1.2,3.6,3,4.8,5.1c1.1,2.2,1.7,4.7,1.7,7.7
		s-0.5,5.4-1.7,7.7c-1.1,2.2-2.7,3.9-4.8,5.1C297.4,230.3,295.1,231,292.1,231z M292.3,225c1.3,0,2.4-0.4,3.2-1.1
		c0.8-0.8,1.5-1.7,2-3.1c0.4-1.3,0.7-2.7,0.7-4.4c0-1.6-0.3-3.1-0.7-4.4s-1.1-2.3-2-3.1c-0.8-0.8-2-1.1-3.2-1.1
		c-1.3,0-2.4,0.4-3.4,1.1c-0.9,0.8-1.6,1.7-2,3.1s-0.7,2.7-0.7,4.4c0,1.6,0.3,3.1,0.7,4.4s1.1,2.3,2,3.1
		C289.9,224.6,290.9,225,292.3,225z"/>
	<path d="M319.1,192.8v37.7h-7.8v-37.7C311.3,192.8,319.1,192.8,319.1,192.8z"/>
	<path d="M335.7,231c-2.2,0-4-0.5-5.8-1.6s-3.1-2.7-4.2-5c-1.1-2.2-1.5-4.8-1.5-7.9c0-3.2,0.5-5.9,1.6-8.1c1.1-2.2,2.4-3.8,4.2-4.8
		c1.7-1.1,3.6-1.6,5.7-1.6c1.6,0,3,0.3,4,0.8c1.1,0.5,1.9,1.2,2.6,2c0.7,0.8,1.2,1.6,1.5,2.3h0.3v-14.1h7.8v37.7h-7.7V226H344
		c-0.4,0.8-0.9,1.6-1.6,2.3c-0.7,0.8-1.5,1.3-2.6,1.9C338.7,230.7,337.4,231,335.7,231z M338.3,224.7c1.2,0,2.3-0.4,3.2-1.1
		c0.9-0.7,1.6-1.6,2-3c0.5-1.2,0.7-2.7,0.7-4.4c0-1.6-0.3-3.1-0.7-4.4s-1.1-2.2-2-2.8s-2-1.1-3.2-1.1c-1.3,0-2.4,0.4-3.2,1.1
		c-0.9,0.7-1.6,1.6-2,3c-0.4,1.2-0.7,2.7-0.7,4.3c0,1.6,0.3,3.1,0.7,4.3c0.4,1.2,1.1,2.3,2,3C335.9,224.4,337,224.7,338.3,224.7z"/>
	<path d="M371.1,231c-3,0-5.4-0.5-7.5-1.7c-2.2-1.2-3.8-2.8-4.8-5.1c-1.1-2.3-1.7-4.7-1.7-7.8c0-3,0.5-5.5,1.7-7.7
		c1.2-2.2,2.7-3.9,4.8-5.1c2-1.2,4.4-1.9,7.3-1.9c1.9,0,3.6,0.3,5.2,0.9s3,1.5,4.2,2.7s2.2,2.7,2.8,4.4c0.7,1.7,1.1,3.9,1.1,6.3v2.2
		h-24v-4.8h16.6c0-1.1-0.3-2.2-0.7-3c-0.5-0.8-1.2-1.6-2-2c-0.8-0.5-1.9-0.8-3-0.8c-1.2,0-2.3,0.3-3.1,0.8c-0.8,0.5-1.6,1.2-2.2,2.2
		c-0.5,0.9-0.8,1.9-0.8,3.1v4.6c0,1.3,0.3,2.6,0.8,3.6c0.5,1.1,1.2,1.7,2.2,2.4c0.9,0.5,2.2,0.8,3.4,0.8c0.8,0,1.6-0.1,2.4-0.4
		c0.7-0.3,1.3-0.7,1.9-1.1c0.5-0.5,0.9-1.1,1.2-1.7l7.3,0.5c-0.4,1.7-1.1,3.2-2.3,4.6c-1.1,1.3-2.6,2.3-4.4,3
		C375.6,230.7,373.6,231,371.1,231z"/>
	<path d="M389.3,230.5v-28.3h7.7v5h0.3c0.5-1.7,1.3-3.1,2.6-4s2.6-1.3,4.2-1.3c0.4,0,0.8,0,1.2,0.1c0.4,0,0.8,0.1,1.2,0.3v7
		c-0.4-0.1-0.9-0.3-1.5-0.3s-1.2-0.1-1.7-0.1c-1.2,0-2.2,0.3-3.1,0.8c-0.9,0.5-1.6,1.2-2.2,2c-0.5,0.9-0.8,1.9-0.8,3.1v16h-7.8
		V230.5z"/>
</g>
</svg>
